<svg width="40" height="70" viewBox="0 0 40 70" fill="none" xmlns="http://www.w3.org/2000/svg">
<path d="M29.6229 15.1659L19.6578 11.9775C19.6387 11.9713 19.6203 11.9641 19.6026 11.9558C18.0334 12.6566 16.5139 13.3693 15.097 14.0883L24.7465 17.1394C24.7804 17.1501 24.8122 17.1642 24.8416 17.1813C25.3745 16.9569 25.9013 16.7357 26.4205 16.5177C27.5277 16.053 28.6006 15.6026 29.6229 15.1659ZM7.42514 47.7514C7.54649 48.053 7.67906 48.349 7.82283 48.6406L8.66553 48.2251C8.53217 47.9546 8.40925 47.6801 8.2967 47.4003L7.42514 47.7514ZM14.2842 54.8613C14.579 54.9966 14.878 55.1214 15.1815 55.236L15.5123 54.3571C15.2292 54.2501 14.9508 54.134 14.6758 54.0078L14.2842 54.8613ZM16.1021 55.547C16.4129 55.64 16.7261 55.7219 17.0425 55.7935L17.2489 54.8775C16.9538 54.8107 16.6615 54.7343 16.3717 54.6475L16.1021 55.547ZM17.9976 55.9747C18.3177 56.0239 18.6395 56.0629 18.9622 56.0902L19.041 55.1546C18.7385 55.1278 18.44 55.0927 18.1399 55.0466L17.9976 55.9747ZM19.9317 56.1403C19.9897 56.1413 20.0476 56.1419 20.1055 56.1424L20.1936 56.1427L20.2816 56.1424L20.3695 56.1416L20.4572 56.1403L20.5449 56.1385L20.6324 56.1361L20.7197 56.1332L20.8069 56.1298L20.9049 56.1253L20.8538 55.1877L20.7673 55.1917L20.6857 55.1949L20.604 55.1976L20.5222 55.1998L20.4403 55.2015L20.3582 55.2028L20.2761 55.2035L20.1938 55.2037L20.1113 55.2035C20.0569 55.203 20.0025 55.2025 19.9481 55.2015L19.9317 56.1403ZM21.8723 56.0449L21.9278 56.0384L22.013 56.0278L22.098 56.0167L22.1828 56.0051L22.2675 55.993L22.352 55.9804L22.4363 55.9674L22.5205 55.9538L22.6045 55.9397L22.6884 55.9252L22.772 55.9101L22.8319 55.899L22.6572 54.9764L22.6029 54.9865L22.5247 55.0006L22.4465 55.0142L22.3681 55.0273L22.2895 55.04L22.2107 55.0522L22.1318 55.0639L22.0527 55.0752L21.9735 55.086L21.8941 55.0964L21.8146 55.1063L21.7591 55.1128L21.8723 56.0449ZM23.7818 55.6869L23.8429 55.671L23.9239 55.6493L24.0047 55.6271L24.0854 55.6044L24.1658 55.5814L24.246 55.5578L24.326 55.5338L24.4058 55.5093L24.4854 55.4844L24.5648 55.459L24.644 55.4332L24.7119 55.4106L24.4123 54.5207L24.3497 54.5415L24.2758 54.5656L24.2018 54.5893L24.1275 54.6125L24.053 54.6353L23.9784 54.6577L23.9036 54.6797L23.8285 54.7013L23.7533 54.7224L23.6779 54.743L23.6023 54.7633L23.5412 54.7793L23.7818 55.6869ZM25.623 55.0694L25.6529 55.0571L25.7288 55.0251L25.8046 54.9927L25.8801 54.9598L25.9553 54.9266L26.0304 54.8929L26.1051 54.8588L26.1796 54.8242L26.2539 54.7893L26.3279 54.7539L26.4017 54.7181L26.4752 54.6819L26.5079 54.6656L26.0851 53.827L26.0573 53.8409L25.9888 53.8747L25.92 53.908L25.851 53.941L25.7818 53.9736L25.7123 54.0058L25.6425 54.0376L25.5726 54.069L25.5025 54.1L25.4321 54.1306L25.3614 54.1609L25.2905 54.1907L25.2607 54.2031L25.623 55.0694ZM27.3623 54.2007L27.4068 54.1744L27.4766 54.1326L27.5461 54.0904L27.6152 54.0478L27.6842 54.0047L27.7528 53.9614L27.8211 53.9176L27.8892 53.8735L27.957 53.8289L28.0244 53.784L28.0916 53.7387L28.1585 53.6931L28.1818 53.6769L27.6447 52.9064L27.5637 52.962L27.5011 53.0041L27.4382 53.046L27.3751 53.0875L27.3117 53.1286L27.248 53.1694L27.1841 53.2098L27.1199 53.2499L27.0554 53.2896L26.9907 53.3289L26.9257 53.3679L26.8811 53.3942L27.3623 54.2007ZM28.962 53.0964L29.0002 53.0659L29.0627 53.0151L29.125 52.964L29.1869 52.9125L29.2485 52.8606L29.3097 52.8085L29.3707 52.756L29.4313 52.7031L29.4915 52.6499L29.5515 52.5963L29.6111 52.5424L29.6704 52.4882L29.699 52.4617L29.0581 51.7749L29.0336 51.7976L28.9785 51.8481L28.923 51.8982L28.8672 51.9481L28.8111 51.9976L28.7547 52.0468L28.698 52.0957L28.641 52.1443L28.5837 52.1925L28.526 52.2404L28.4681 52.2881L28.4099 52.3353L28.3717 52.3659L28.962 53.0964ZM30.3884 51.7754L30.4095 51.7529L30.4639 51.6941L30.5179 51.635L30.5715 51.5755L30.6248 51.5157L30.6778 51.4557L30.7303 51.3953L30.7825 51.3345L30.8343 51.2735L30.8858 51.2122L30.9368 51.1506L30.9875 51.0887L31.0263 51.0407L30.2935 50.4529L30.2583 50.4964L30.2112 50.554L30.1638 50.6112L30.1159 50.6682L30.0678 50.7249L30.0193 50.7813L29.9705 50.8374L29.9213 50.8932L29.8717 50.9488L29.8219 51.0041L29.7716 51.0591L29.7211 51.1138L29.7 51.1363L30.3884 51.7754ZM31.6086 50.2608L31.6565 50.191L31.7013 50.1247L31.7458 50.0582L31.7898 49.9914L31.8333 49.9243L31.8766 49.8569L31.9193 49.7893L31.9617 49.7214L32.0036 49.6532L32.0452 49.5848L32.0863 49.516L32.1329 49.4369L31.319 48.9676L31.2782 49.0367L31.2401 49.1004L31.2016 49.1639L31.1627 49.2271L31.1234 49.2901L31.0837 49.3529L31.0437 49.4153L31.0032 49.4776L30.9623 49.5396L30.9211 49.6013L30.8795 49.6629L30.8349 49.7279L31.6086 50.2608ZM32.5923 48.578L32.6169 48.5272L32.6515 48.4548L32.6857 48.3821L32.7194 48.3091L32.7527 48.2359L32.7855 48.1625L32.8179 48.0888L32.8498 48.0149L32.8813 47.9408L32.9123 47.8664L32.9428 47.7918L32.9729 47.717L32.9851 47.6861L32.1098 47.3445L32.0998 47.3698L32.0719 47.439L32.0437 47.5081L32.015 47.5769L31.9858 47.6456L31.9563 47.7141L31.9263 47.7822L31.8959 47.8502L31.8651 47.9181L31.8338 47.9857L31.8022 48.053L31.7701 48.1202L31.7455 48.1709L32.5923 48.578ZM33.3082 46.7663L33.321 46.7248L33.3444 46.647L33.3674 46.569L33.3898 46.4909L33.4118 46.4125L33.4332 46.3339L33.4542 46.2552L33.4746 46.1762L33.4946 46.0971L33.5141 46.0177L33.533 45.9382L33.5515 45.8585L33.5593 45.8238L32.6417 45.6212L32.6352 45.6499L32.6182 45.7236L32.6006 45.7972L32.5826 45.8706L32.5641 45.9438L32.5452 46.0169L32.5258 46.0898L32.506 46.1624L32.4857 46.2349L32.4649 46.3073L32.4437 46.3795L32.422 46.4514L32.4092 46.4929L33.3082 46.7663ZM33.7364 44.8644L33.7447 44.8062L33.7559 44.7241L33.7666 44.6419L33.7768 44.5594L33.7864 44.4768L33.7955 44.3941L33.804 44.3112L33.812 44.2281L33.8195 44.1449L33.8264 44.0616L33.8328 43.9781L33.8385 43.897L32.9008 43.8348L32.8955 43.9097L32.8896 43.987L32.8832 44.0641L32.8763 44.1412L32.8689 44.218L32.861 44.2948L32.8526 44.3714L32.8437 44.4478L32.8343 44.5241L32.8244 44.6002L32.814 44.6763L32.8057 44.7344L33.7364 44.8644ZM33.8659 42.9214L33.8655 42.8823L33.8642 42.798L33.8622 42.7139L33.8597 42.6299L33.8567 42.546L33.8531 42.4623L33.849 42.3786L33.8443 42.2951L33.839 42.2118L33.8332 42.1286L33.8269 42.0455L33.8186 41.9466L32.8829 42.0332L32.8901 42.1198L32.896 42.1967L32.9013 42.2737L32.9062 42.3509L32.9105 42.4281L32.9144 42.5056L32.9177 42.5831L32.9205 42.6608L32.9228 42.7386L32.9246 42.8165L32.9259 42.8945L32.9263 42.9337L33.8659 42.9214ZM33.6966 40.9816L33.6824 40.8977L33.6681 40.8169L33.6533 40.7363L33.638 40.6558L33.6222 40.5755L33.6059 40.4954L33.5891 40.4154L33.5718 40.3356L33.5539 40.256L33.5356 40.1766L33.5168 40.0973L33.4994 40.0263L32.5872 40.2521L32.6032 40.3173L32.6206 40.3906L32.6376 40.4641L32.6541 40.5378L32.6701 40.6116L32.6857 40.6855L32.7007 40.7596L32.7154 40.834L32.7295 40.9084L32.7432 40.983L32.7564 41.0578L32.7696 41.1355L33.6966 40.9816ZM33.2286 39.0895L33.2011 39.0075L33.175 38.9312L33.1483 38.855L33.1212 38.779L33.0936 38.7033L33.0656 38.6278L33.037 38.5524L33.008 38.4774L32.9786 38.4025L32.9486 38.3278L32.9182 38.2534L32.8853 38.1741L32.0208 38.5425L32.0207 38.542L32.0492 38.6108L32.0774 38.6797L32.1051 38.7488L32.1324 38.8182L32.1592 38.8877L32.1856 38.9574L32.2116 39.0273L32.2372 39.0974L32.2623 39.1677L32.2869 39.2382L32.3112 39.3089L32.3367 39.3852L33.2286 39.0895ZM32.474 37.291L32.4453 37.2352L32.4082 37.1643L32.3706 37.0936L32.3327 37.0232L32.2943 36.953L32.2554 36.883L32.2162 36.8133L32.1765 36.7439L32.1364 36.6747L32.0958 36.6057L32.0548 36.5371L32.0135 36.4687L31.9971 36.4419L31.1973 36.935L31.2107 36.9568L31.2491 37.0203L31.2871 37.0839L31.3247 37.1478L31.3619 37.212L31.3987 37.2764L31.4351 37.341L31.4711 37.4059L31.5067 37.471L31.5419 37.5363L31.5767 37.6018L31.6111 37.6675L31.6398 37.7233L32.474 37.291ZM31.458 35.6313L31.4383 35.6039L31.3912 35.5393L31.3437 35.4749L31.2959 35.4109L31.2476 35.3472L31.199 35.2838L31.15 35.2206L31.1006 35.1578L31.0508 35.0952L31.0006 35.033L30.9501 34.971L30.8992 34.9093L30.8606 34.8632L30.1412 35.4673L30.1761 35.5091L30.2235 35.5664L30.2704 35.624L30.317 35.6818L30.3633 35.7399L30.4092 35.7983L30.4547 35.857L30.4999 35.9159L30.5447 35.9751L30.5891 36.0345L30.6332 36.0942L30.6769 36.1542L30.6966 36.1817L31.458 35.6313ZM30.2086 34.1411L30.1474 34.0784L30.091 34.0213L30.0342 33.9647L29.9771 33.9084L29.9196 33.8523L29.8618 33.7967L29.8037 33.7413L29.7452 33.6863L29.6864 33.6316L29.6272 33.5773L29.5677 33.5233L29.5041 33.4664L28.8827 34.1707L28.8823 34.1703L28.938 34.2202L28.9933 34.2705L29.0484 34.3211L29.1031 34.3719L29.1576 34.4231L29.2117 34.4746L29.2654 34.5264L29.3189 34.5785L29.372 34.6309L29.4248 34.6836L29.4772 34.7366L29.5346 34.7953L30.2086 34.1411ZM28.7551 32.8459L28.6998 32.8036L28.6354 32.7548L28.5707 32.7064L28.5057 32.6584L28.4403 32.6107L28.3747 32.5634L28.3088 32.5165L28.2425 32.47L28.176 32.4238L28.1091 32.378L28.042 32.3325L27.9638 32.2804L27.4485 33.0656L27.5174 33.1116L27.58 33.1539L27.6422 33.1966L27.7042 33.2396L27.7659 33.2829L27.8273 33.3266L27.8885 33.3707L27.9493 33.4151L28.0099 33.4598L28.0701 33.5049L28.1301 33.5503L28.1854 33.5926L28.7551 32.8459ZM27.1344 31.7723L27.0713 31.7369L26.9999 31.6973L26.9282 31.6581L26.8562 31.6193L26.784 31.5809L26.7115 31.5429L26.6387 31.5053L26.5656 31.4681L26.4923 31.4314L26.4187 31.395L26.3449 31.3591L26.2738 31.325L25.8698 32.1728L25.9359 32.2044L26.0047 32.238L26.0733 32.2718L26.1417 32.3061L26.2097 32.3407L26.2776 32.3758L26.3452 32.4112L26.4126 32.447L26.4796 32.4831L26.5464 32.5197L26.6131 32.5566L26.6761 32.592L27.1344 31.7723ZM25.3812 30.9379L25.2848 30.9004L25.2073 30.8709L25.1296 30.8418L25.0516 30.8132L24.9733 30.7849L24.8949 30.7572L24.8162 30.7299L24.7373 30.703L24.6582 30.6766L24.5788 30.6506L24.4992 30.6251L24.4637 30.614L24.1846 31.5105L24.2148 31.5201L24.289 31.5438L24.363 31.5681L24.4369 31.5927L24.5105 31.6178L24.5838 31.6432L24.657 31.6691L24.73 31.6954L24.8027 31.7221L24.8752 31.7493L24.9475 31.7768L25.0387 31.8123L25.3812 30.9379ZM23.5284 30.355L23.4457 30.3355L23.3632 30.3165L23.2805 30.2979L23.1977 30.2799L23.1147 30.2623L23.0314 30.2453L22.948 30.2287L22.8644 30.2125L22.7806 30.1969L22.6967 30.1818L22.6125 30.1671L22.5745 30.1608L22.4217 31.0872L22.454 31.0926L22.5326 31.1063L22.611 31.1204L22.6892 31.135L22.7673 31.1501L22.8451 31.1656L22.9228 31.1815L23.0003 31.1979L23.0777 31.2148L23.1548 31.232L23.2318 31.2498L23.309 31.2681L23.5284 30.355ZM21.6124 30.0325L21.5029 30.022L21.4164 30.0144L21.3298 30.0073L21.243 30.0007L21.156 29.9946L21.0689 29.9891L20.9817 29.9841L20.8943 29.9796L20.8067 29.9756L20.7191 29.9721L20.6436 29.9696L20.615 30.9081L20.6848 30.9104L20.7668 30.9137L20.8486 30.9174L20.9303 30.9216L21.0119 30.9263L21.0934 30.9315L21.1746 30.9372L21.2557 30.9434L21.3368 30.95L21.4176 30.9571L21.5213 30.967L21.6124 30.0325ZM19.6727 29.9716L19.5773 29.9753L19.4902 29.9793L19.4032 29.9837L19.3164 29.9887L19.2298 29.9942L19.1433 30.0002L19.0569 30.0068L18.9706 30.0138L18.8845 30.0214L18.7986 30.0294L18.7015 30.0392L18.8034 30.9726L18.8893 30.964L18.9696 30.9565L19.05 30.9494L19.1306 30.9428L19.2113 30.9367L19.2922 30.9311L19.3732 30.926L19.4543 30.9213L19.5356 30.9171L19.617 30.9134L19.7067 30.91L19.6727 29.9716ZM17.74 30.1723L17.6959 30.18L17.6122 30.195L17.5287 30.2105L17.4454 30.2265L17.3623 30.243L17.2793 30.26L17.1966 30.2774L17.114 30.2954L17.0316 30.3138L16.9494 30.3327L16.8674 30.352L16.7899 30.3708L17.0142 31.2826L17.0862 31.2652L17.1627 31.2471L17.2394 31.2295L17.3164 31.2123L17.3934 31.1956L17.4707 31.1793L17.5481 31.1634L17.6257 31.148L17.7035 31.1331L17.7814 31.1186L17.8594 31.1046L17.9035 31.0969L17.74 30.1723ZM15.8534 30.6352L15.8194 30.6461L15.7402 30.6719L15.6613 30.6982L15.5826 30.7249L15.504 30.7521L15.4258 30.7797L15.3477 30.8078L15.2698 30.8363L15.1922 30.8652L15.1149 30.8946L15.0377 30.9244L14.9377 30.9639L15.2897 31.8345L15.3793 31.7991L15.4512 31.7713L15.5234 31.7439L15.5958 31.7169L15.6684 31.6903L15.7412 31.6642L15.8143 31.6384L15.8875 31.613L15.9609 31.5881L16.0346 31.5636L16.1084 31.5395L16.1424 31.5286L15.8534 30.6352ZM14.0473 31.3556L13.9825 31.387L13.909 31.4232L13.8357 31.4598L13.7627 31.4968L13.69 31.5342L13.6175 31.5721L13.5454 31.6103L13.4734 31.649L13.4017 31.688L13.3303 31.7275L13.2592 31.7673L13.189 31.8072L13.6558 32.6221L13.7212 32.585L13.7875 32.5478L13.854 32.5111L13.9208 32.4747L13.9879 32.4386L14.0552 32.403L14.1228 32.3677L14.1906 32.3328L14.2586 32.2983L14.3269 32.2642L14.3954 32.2304L14.4602 32.199L14.0473 31.3556ZM12.3623 32.3195L12.2926 32.3664L12.2257 32.4121L12.1592 32.4581L12.0929 32.5045L12.0269 32.5513L11.9612 32.5984L11.8959 32.646L11.8308 32.6939L11.766 32.7421L11.7016 32.7907L11.6375 32.8397L11.5739 32.8889L12.1511 33.6298L12.2103 33.584L12.2701 33.5384L12.3301 33.4931L12.3904 33.4482L12.451 33.4036L12.5119 33.3593L12.5731 33.3154L12.6345 33.2718L12.6962 33.2286L12.7583 33.1857L12.8205 33.1432L12.8856 33.0994L12.3623 32.3195ZM10.8259 33.515L10.7731 33.5627L10.7138 33.6169L10.6549 33.6715L10.5963 33.7264L10.5381 33.7817L10.4802 33.8372L10.4226 33.8932L10.3654 33.9494L10.3085 34.006L10.252 34.0629L10.1958 34.1201L10.1269 34.1914L10.8075 34.8388L10.8687 34.7755L10.921 34.7223L10.9735 34.6694L11.0264 34.6168L11.0796 34.5645L11.1332 34.5124L11.187 34.4608L11.2412 34.4094L11.2958 34.3583L11.3506 34.3075L11.4057 34.257L11.4585 34.2093L10.8259 33.515ZM9.47854 34.9169L9.44738 34.9545L9.39672 35.0164L9.34641 35.0786L9.29648 35.1411L9.24695 35.2039L9.19778 35.2671L9.149 35.3305L9.10062 35.3942L9.05264 35.4582L9.00503 35.5224L8.95782 35.587L8.91098 35.6519L8.88506 35.6883L9.65225 36.2305L9.67482 36.1988L9.71827 36.1386L9.76212 36.0787L9.80632 36.019L9.8509 35.9596L9.89584 35.9004L9.94113 35.8415L9.98677 35.7829L10.0328 35.7246L10.0792 35.6665L10.1259 35.6087L10.173 35.5511L10.2042 35.5135L9.47854 34.9169ZM8.35032 36.5018L8.29793 36.5891L8.25724 36.658L8.21696 36.7273L8.17713 36.7968L8.13771 36.8665L8.09871 36.9365L8.06015 37.0068L8.02201 37.0773L7.98433 37.148L7.94706 37.2191L7.91021 37.2904L7.87802 37.3536L8.71701 37.7765L8.74657 37.7185L8.78067 37.6525L8.81521 37.5867L8.85017 37.5211L8.88552 37.4557L8.92127 37.3905L8.95741 37.3257L8.99396 37.261L9.0309 37.1966L9.06825 37.1324L9.10598 37.0684L9.15536 36.9861L8.35032 36.5018ZM7.47058 38.242L7.4414 38.3133L7.41132 38.3881L7.38169 38.4632L7.35256 38.5384L7.32389 38.6138L7.29569 38.6895L7.26794 38.7654L7.24065 38.8416L7.21388 38.9179L7.18758 38.9944L7.16173 39.0712L7.13358 39.1568L8.029 39.4417L8.05339 39.3677L8.07729 39.2966L8.10167 39.2258L8.12646 39.1551L8.15168 39.0847L8.17736 39.0144L8.20347 38.9443L8.23003 38.8745L8.25703 38.8048L8.28442 38.7353L8.31227 38.6661L8.34145 38.5948L7.47058 38.242ZM6.86829 40.0953L6.85122 40.1669L6.83275 40.2466L6.81481 40.3265L6.79737 40.4066L6.78043 40.4868L6.76401 40.5673L6.74812 40.6479L6.73272 40.7286L6.71783 40.8096L6.70349 40.8907L6.68964 40.972L6.67707 41.0489L7.60501 41.1971L7.61657 41.1264L7.62938 41.0512L7.64267 40.9761L7.65642 40.9013L7.67067 40.8265L7.68539 40.7519L7.70059 40.6775L7.71624 40.6033L7.73239 40.5292L7.74899 40.4552L7.76607 40.3815L7.78313 40.3099L6.86829 40.0953ZM6.55996 42.0176L6.55781 42.0435L6.55143 42.127L6.54559 42.2107L6.54031 42.2944L6.53556 42.3783L6.53137 42.4624L6.52774 42.5466L6.52465 42.6309L6.52211 42.7153L6.52014 42.7999C6.51908 42.8636 6.51812 42.9272 6.51774 42.9908L7.45747 42.9947C7.45773 42.936 7.45869 42.8774 7.45968 42.8187L7.46151 42.7404L7.46386 42.6621L7.46672 42.584L7.47009 42.506L7.47397 42.4282L7.47837 42.3504L7.48325 42.2729L7.48867 42.1954L7.49458 42.1181L7.49673 42.0922L6.55996 42.0176ZM6.55018 43.9653C6.57353 44.2893 6.60919 44.6127 6.65766 44.934L7.58686 44.7939C7.54212 44.4961 7.50903 44.197 7.48739 43.8967L6.55018 43.9653ZM6.84016 45.8922C6.91343 46.2091 6.99901 46.5225 7.09651 46.8328L7.99287 46.5509C7.90257 46.2637 7.82342 45.9734 7.7556 45.6801L6.84016 45.8922ZM26.5138 42.5611C26.3554 42.5928 26.2013 42.4901 26.1696 42.3319C26.1379 42.1736 26.2407 42.0197 26.399 41.988C26.9364 41.8792 27.4954 41.8915 28.0274 42.0275C28.5421 42.159 29.0336 42.4061 29.4582 42.7708C29.4986 42.8055 29.5372 42.8401 29.5738 42.8745C30.2222 43.4832 30.5738 44.2806 30.619 45.0942C30.6642 45.9081 30.4028 46.7369 29.8251 47.4084C29.7912 47.4478 29.757 47.4858 29.7226 47.5224C29.0769 48.2091 28.202 48.5806 27.3096 48.626C26.4177 48.6715 25.5073 48.3914 24.7898 47.775C24.6669 47.6699 24.6525 47.4852 24.7577 47.3624C24.8628 47.2396 25.0477 47.2252 25.1706 47.3303C25.7704 47.8455 26.5325 48.0796 27.2798 48.0415C28.0265 48.0034 28.7576 47.6937 29.2958 47.1213C29.3255 47.0897 29.3536 47.0585 29.38 47.0278C29.8557 46.475 30.0711 45.7939 30.034 45.1263C29.9969 44.4585 29.707 43.8029 29.1723 43.3009C29.1406 43.2711 29.1089 43.2426 29.0773 43.2155C28.724 42.912 28.3137 42.7061 27.8829 42.596C27.4331 42.481 26.9631 42.4701 26.5138 42.5611ZM12.8367 50.2177C12.8243 50.2069 12.8125 50.1954 12.8013 50.1833C12.7884 50.1714 12.7764 50.1605 12.7652 50.1509C12.5067 49.9289 12.1774 49.828 11.8542 49.8445C11.5318 49.8609 11.2168 49.9939 10.9857 50.2397C10.9723 50.2539 10.9605 50.2669 10.9504 50.2787C10.7499 50.5118 10.659 50.7978 10.6746 51.0775C10.6901 51.3576 10.8125 51.6333 11.0384 51.8454C11.0527 51.8588 11.066 51.8708 11.0783 51.8813C11.3368 52.1034 11.6661 52.2043 11.9893 52.1878C12.3117 52.1714 12.6267 52.0383 12.8578 51.7926C12.8712 51.7784 12.8829 51.7654 12.8931 51.7535C13.0936 51.5205 13.1844 51.2345 13.1689 50.9547C13.1541 50.688 13.0424 50.4252 12.8367 50.2177ZM13.2431 49.3349L17.7607 47.787L13.2526 43.9156C12.9281 44.0453 12.5845 44.1194 12.2379 44.137C11.4594 44.1767 10.6645 43.932 10.0377 43.3935C10.0015 43.3625 9.96764 43.3321 9.93597 43.3023C9.36667 42.7679 9.05789 42.067 9.01813 41.3513C8.97834 40.6353 9.208 39.9066 9.71553 39.3167C9.74589 39.2815 9.77597 39.2479 9.8057 39.2163C10.3704 38.6158 11.1347 38.291 11.914 38.2513C12.6924 38.2116 13.4874 38.4564 14.1142 38.9948C14.1503 39.0258 14.1842 39.0562 14.2159 39.086C14.7852 39.6204 15.094 40.3213 15.1338 41.037C15.1467 41.2704 15.131 41.5052 15.0864 41.7361L17.8899 42.7113C17.9626 42.5918 18.046 42.4764 18.1406 42.3665C18.1674 42.3354 18.1938 42.306 18.2197 42.2784C18.7143 41.7524 19.3838 41.4678 20.0661 41.4331C20.2506 41.4237 20.4362 41.4326 20.6196 41.4598L21.9963 37.5889C21.7777 37.4874 21.57 37.3554 21.3801 37.1922C21.3485 37.1651 21.319 37.1386 21.2916 37.1129C20.7961 36.6477 20.5273 36.0375 20.4927 35.4143C20.4581 34.7908 20.6579 34.1562 21.0997 33.6427C21.1263 33.6118 21.1525 33.5827 21.1783 33.5553C21.669 33.0334 22.3332 32.7511 23.0102 32.7166C23.6864 32.6821 24.3769 32.8948 24.9216 33.3626C24.9532 33.3898 24.9827 33.4162 25.0101 33.442C25.5056 33.9071 25.7743 34.5174 25.809 35.1406C25.8436 35.7641 25.6437 36.3987 25.2019 36.9121C25.1753 36.943 25.1491 36.9722 25.1234 36.9996C24.8828 37.2555 24.6004 37.4537 24.2954 37.5934L25.6829 43.683C26.0151 43.4169 26.4199 43.2716 26.8309 43.2507C27.3284 43.2254 27.8367 43.3819 28.2377 43.7265C28.2614 43.7469 28.2833 43.7664 28.3033 43.7852C28.6698 44.1293 28.8686 44.5811 28.8943 45.0428C28.9199 45.5049 28.772 45.9749 28.445 46.3549C28.425 46.3781 28.4056 46.3998 28.3869 46.4197C28.0252 46.8044 27.536 47.0124 27.0377 47.0378C26.5403 47.0632 26.032 46.9066 25.631 46.5621C25.6072 46.5417 25.5854 46.5221 25.5654 46.5034C25.4642 46.4084 25.3758 46.3052 25.3003 46.1958L21.7759 47.4034L22.7373 49.2521C23.2475 49.263 23.7569 49.4422 24.1672 49.7947C24.1939 49.8177 24.2187 49.8398 24.2415 49.8612C24.6568 50.2511 24.8821 50.7629 24.9111 51.2857C24.9402 51.8088 24.7726 52.3411 24.4022 52.7715C24.3797 52.7977 24.3577 52.8222 24.3363 52.8449C23.9258 53.2815 23.3705 53.5176 22.8045 53.5465C22.2395 53.5753 21.6623 53.3975 21.2069 53.0063C21.1802 52.9834 21.1554 52.9612 21.1326 52.9398C20.7174 52.5499 20.4921 52.0381 20.463 51.5153C20.4408 51.1154 20.5336 50.7101 20.744 50.349L18.5864 48.4961L13.8939 50.1039C14.019 50.3561 14.0897 50.6282 14.105 50.9034C14.1335 51.417 13.969 51.9397 13.6053 52.3624C13.5832 52.3881 13.5616 52.4121 13.5406 52.4345C13.1376 52.863 12.5925 53.0948 12.037 53.1231C11.4824 53.1514 10.9159 52.9769 10.4689 52.5929C10.4426 52.5703 10.4183 52.5485 10.396 52.5276C9.98825 52.1448 9.76704 51.6423 9.73852 51.1289C9.70996 50.6152 9.8745 50.0926 10.2382 49.6699C10.2603 49.6442 10.2819 49.6201 10.3029 49.5978C10.7059 49.1693 11.251 48.9375 11.8064 48.9092C12.308 48.8836 12.8193 49.0239 13.2431 49.3349ZM18.7886 47.4349L20.4398 46.8692L20.2982 46.5969C19.6332 46.6186 18.9583 46.4034 18.4231 45.9437C18.3912 45.9163 18.3615 45.8896 18.3339 45.8637C17.8345 45.3949 17.5637 44.7799 17.5288 44.1519C17.5183 43.9638 17.5291 43.7747 17.5612 43.5882L14.7603 42.6139C14.669 42.7733 14.5611 42.9267 14.4363 43.0717C14.406 43.1069 14.3759 43.1404 14.3462 43.172C14.2674 43.2558 14.1847 43.3343 14.0986 43.4073L18.7886 47.4349ZM21.3381 46.5614L24.9794 45.3138C24.9776 45.2941 24.9761 45.2743 24.9749 45.2546L22.7273 44.9047C22.625 45.1734 22.4746 45.4296 22.2752 45.6614C22.2484 45.6925 22.222 45.7219 22.196 45.7495C21.9249 46.0378 21.6013 46.2536 21.2518 46.3955L21.3381 46.5614ZM20.8776 47.7111L19.6143 48.144L21.3798 49.6601C21.5051 49.5723 21.638 49.4986 21.7761 49.4389L20.8776 47.7111ZM25.9588 45.4398C25.963 45.4497 25.9669 45.4599 25.9704 45.4702L25.9733 45.4789C26.023 45.604 26.1013 45.7212 26.2078 45.8211C26.2197 45.8323 26.2306 45.8421 26.2403 45.8505C26.4529 46.0331 26.7239 46.1161 26.99 46.1025C27.2553 46.089 27.5143 45.9797 27.7041 45.7778C27.7152 45.766 27.7248 45.7554 27.7329 45.746C27.8967 45.5557 27.9709 45.3223 27.9582 45.0942C27.9455 44.8658 27.8455 44.6407 27.6609 44.4674C27.649 44.4562 27.6381 44.4464 27.6283 44.438C27.4157 44.2554 27.1448 44.1724 26.8787 44.186C26.6134 44.1995 26.3544 44.3088 26.1645 44.5107C26.1534 44.5225 26.1438 44.5331 26.1358 44.5425C25.972 44.7328 25.8978 44.9662 25.9104 45.1943C25.9151 45.2774 25.9312 45.36 25.9588 45.4398ZM22.5434 50.1956C22.5258 50.1988 22.5082 50.201 22.4905 50.2022C22.2029 50.2437 21.9288 50.3765 21.7206 50.598C21.7068 50.6126 21.6946 50.6261 21.6841 50.6383C21.4769 50.8791 21.383 51.1748 21.3991 51.464C21.4152 51.7535 21.5416 52.0385 21.775 52.2576C21.7898 52.2714 21.8035 52.2838 21.8163 52.2948C22.0832 52.5241 22.4231 52.6282 22.7568 52.6112C23.0897 52.5942 23.4149 52.4568 23.6535 52.2031C23.6673 52.1884 23.6795 52.175 23.69 52.1627C23.8972 51.9219 23.9911 51.6262 23.975 51.337C23.959 51.0475 23.8325 50.7625 23.5991 50.5434C23.5844 50.5296 23.5706 50.5172 23.5579 50.5063C23.2909 50.277 22.951 50.1728 22.6173 50.1898C22.5926 50.1911 22.568 50.193 22.5434 50.1956ZM13.5735 39.7682C13.5499 39.746 13.527 39.7254 13.5049 39.7064C13.0665 39.3298 12.5088 39.1587 11.9617 39.1866C11.4155 39.2144 10.8812 39.4405 10.4885 39.8582C10.4664 39.8817 10.4461 39.9042 10.4277 39.9256C10.0833 40.3257 9.92741 40.8179 9.95419 41.3C9.98099 41.7823 10.191 42.2564 10.5784 42.6201C10.602 42.6423 10.6249 42.6629 10.647 42.6819C11.0854 43.0585 11.6431 43.2296 12.1902 43.2017C12.7364 43.1739 13.2707 42.9479 13.6634 42.5302C13.6855 42.5067 13.7058 42.4842 13.7242 42.4628C14.0686 42.0626 14.2245 41.5704 14.1977 41.0884C14.1709 40.606 13.9609 40.1319 13.5735 39.7682ZM21.9926 42.0842C22.0245 42.1116 22.0542 42.1383 22.0819 42.1642C22.5812 42.633 22.8521 43.248 22.8869 43.876C22.8889 43.9118 22.8901 43.9477 22.8906 43.9835L24.8604 44.2902L23.3888 37.8316C23.3564 37.8344 23.3239 37.8366 23.2914 37.8383C23.161 37.8449 23.0301 37.8423 22.8997 37.8305C22.8953 37.854 22.8891 37.8775 22.8809 37.9007L21.5105 41.7539C21.6801 41.8447 21.8419 41.9548 21.9926 42.0842ZM21.4395 42.8464C21.4199 42.828 21.4011 42.8111 21.3833 42.7958C21.205 42.6427 21.0027 42.5309 20.7893 42.4597C20.7814 42.4574 20.7735 42.4549 20.7656 42.4521L20.7639 42.4515C20.5534 42.3847 20.3326 42.3572 20.1138 42.3684C19.6645 42.3912 19.2252 42.5771 18.9025 42.9203C18.8842 42.9397 18.8676 42.9581 18.8527 42.9754C18.5707 43.3032 18.4429 43.7061 18.4648 44.1005C18.4868 44.4952 18.6588 44.8835 18.9763 45.1815C18.9959 45.1999 19.0146 45.2168 19.0325 45.2321C19.393 45.5418 19.8517 45.6825 20.3019 45.6596C20.7512 45.6367 21.1905 45.4509 21.5133 45.1076C21.5316 45.0882 21.5482 45.0698 21.563 45.0525C21.8451 44.7247 21.9728 44.3218 21.9509 43.9274C21.929 43.5327 21.7569 43.1444 21.4395 42.8464ZM24.3677 34.1242C24.3483 34.106 24.3298 34.0893 24.3122 34.0742C23.956 33.7682 23.5027 33.6292 23.0579 33.6519C22.614 33.6745 22.1799 33.858 21.861 34.1972C21.8429 34.2164 21.8266 34.2346 21.8119 34.2516C21.5333 34.5754 21.4071 34.9734 21.4288 35.3629C21.4504 35.7528 21.6204 36.1363 21.934 36.4307C21.9533 36.4488 21.9718 36.4655 21.9895 36.4807C22.3457 36.7867 22.7989 36.9257 23.2437 36.903C23.6877 36.8804 24.1217 36.6968 24.4406 36.3577C24.4587 36.3385 24.4751 36.3203 24.4898 36.3033C24.7684 35.9795 24.8945 35.5815 24.8729 35.1919C24.8512 34.8021 24.6813 34.4186 24.3677 34.1242ZM20.8889 11.3885L30.9317 14.6018C31.5479 14.3333 32.1411 14.0703 32.7072 13.8124L22.841 10.6856C22.7879 10.6689 22.7399 10.6435 22.6979 10.6116C22.0918 10.8684 21.4878 11.1275 20.8889 11.3885ZM23.9949 10.0668L33.9641 13.2262C34.4954 12.9717 34.9954 12.7225 35.4597 12.4783C35.8877 12.2533 36.1797 11.97 36.3211 11.6927C36.3872 11.5629 36.4164 11.442 36.4059 11.3396C36.3979 11.2605 36.3612 11.1864 36.2941 11.1241C36.2715 11.1032 36.2458 11.0833 36.2169 11.0647C36.048 10.9992 35.8667 10.9442 35.6727 10.9011C35.6527 10.8981 35.6331 10.8938 35.614 10.8884C35.1414 10.7903 34.5959 10.7611 33.9761 10.8182C33.7186 10.8414 33.491 10.6518 33.4677 10.3945C33.4444 10.1373 33.6342 9.90982 33.8916 9.88653C34.6072 9.82067 35.246 9.85618 35.8083 9.97316C36.1367 10.0128 36.4112 10.1 36.6332 10.223C36.8925 10.3293 37.1297 10.4561 37.3445 10.6003C37.9915 11.0348 38.4352 11.624 38.6783 12.2883C38.9186 12.9451 38.9603 13.6715 38.8061 14.3896C38.5882 15.4047 37.9785 16.4066 36.9854 17.1673C35.0613 18.6412 31.1363 20.2729 26.703 22.1159C21.7391 24.1795 16.1306 26.5112 12.0935 29.1321L12.3728 29.2747C12.8903 29.5384 13.3242 29.7582 13.7268 29.9612C13.9579 30.0777 14.0508 30.3593 13.9342 30.5902C13.8176 30.8211 13.5358 30.9139 13.3047 30.7975C12.6947 30.4899 12.2177 30.2489 11.947 30.1109C11.6832 29.9764 11.4365 29.8497 11.2073 29.7304C10.6594 30.1159 10.1474 30.5074 9.67896 30.9051C8.68663 31.7477 7.65113 32.7273 7.09592 33.7988C6.57837 34.7977 6.48419 35.9034 7.27829 37.0937C7.42121 37.3095 7.36204 37.6001 7.14614 37.7429C6.93024 37.8857 6.63933 37.8266 6.49641 37.6109C5.47467 36.0793 5.5962 34.656 6.26264 33.3697C6.89144 32.1561 8.00827 31.0942 9.07328 30.1899C9.62611 29.7205 10.2354 29.2605 10.8903 28.8094C10.9004 28.8018 10.9107 28.7947 10.9213 28.788C15.0769 25.934 21.0701 23.4424 26.3432 21.2503C30.7171 19.4321 34.5895 17.8222 36.4164 16.4228C37.2225 15.8053 37.7151 15.0025 37.8884 14.1952C38.0063 13.6465 37.9766 13.0975 37.7973 12.6074C37.6866 12.305 37.5181 12.0236 37.291 11.7773C37.2599 11.8914 37.2154 12.0055 37.158 12.1181C36.9347 12.5564 36.5051 12.9872 35.8965 13.3072C33.5334 14.5499 30.3344 15.8929 26.784 17.3833C23.6643 18.6929 20.2734 20.1164 16.9904 21.6611C12.8341 23.6166 8.7398 25.8215 5.86919 28.4142C3.07135 30.9413 1.43791 33.8425 2.07865 37.2498C2.25402 38.1824 2.8138 39.2998 3.53857 40.4358C4.27678 41.5929 5.18989 42.77 6.04936 43.7971C6.2156 43.9956 6.1893 44.2912 5.99062 44.4573C5.79195 44.6234 5.49612 44.5972 5.32988 44.3986C4.45501 43.3531 3.51964 42.1457 2.74934 40.9383C1.96557 39.7098 1.35666 38.4825 1.15727 37.4222C0.505464 33.9561 1.92975 30.9998 4.50253 28.4233C2.59407 26.5087 1.51154 24.444 1.28318 22.1818C1.04321 19.8044 1.75396 17.2348 3.44828 14.4186C5.41543 11.1488 8.24097 8.44657 11.4539 6.17739C14.6459 3.92305 18.2232 2.09503 21.7178 0.562466C22.2127 0.345404 22.6618 0.191053 23.1361 0.0991649C23.6123 0.00690141 24.1069 -0.0209971 24.6895 0.0155397C26.7511 0.144856 31.1529 1.71674 34.1417 2.78401C35.6944 3.33849 36.7659 3.77717 36.8023 3.76215C37.3675 3.53768 37.7248 4.36592 37.1712 4.62223C35.036 5.5813 32.3932 6.64912 29.5502 7.79784C27.7514 8.52462 25.8721 9.284 23.9949 10.0668ZM13.9416 14.7073C13.9344 14.705 13.9273 14.7026 13.9203 14.7C13.3808 14.9875 12.8596 15.2758 12.3607 15.5644L21.7025 18.5182C22.315 18.2535 22.9234 17.9934 23.5257 17.7377L13.9416 14.7073ZM20.3932 19.0885L11.2855 16.2087C10.4017 16.7584 9.60633 17.3085 8.92232 17.8563C8.57891 18.1313 8.24563 18.4191 7.92623 18.7176C7.91732 18.7266 7.90795 18.7354 7.89819 18.7438C7.75902 18.8745 7.62252 19.0072 7.48905 19.1419C6.80407 19.9173 6.4347 20.9715 6.42827 22.1091C6.42144 23.3172 6.82201 24.6166 7.68494 25.7827C10.3005 23.9341 13.4305 22.3005 16.5903 20.8138C17.8579 20.2174 19.1312 19.643 20.3932 19.0885ZM6.92883 26.3344C5.94222 24.9991 5.48431 23.5027 5.4922 22.1055C5.49299 21.9663 5.49849 21.8282 5.50841 21.6913C5.21318 22.2079 4.97432 22.7366 4.80465 23.2716C4.34032 24.7357 4.40146 26.2547 5.26019 27.7043C5.78119 27.2348 6.33955 26.7785 6.92883 26.3344ZM6.79021 18.5166C6.94352 18.3435 7.10976 18.1812 7.28857 18.0314C7.62465 17.7172 7.97471 17.4149 8.33499 17.1264C12.7874 13.5606 21.6908 9.96321 29.2014 6.92859C31.5316 5.98709 33.7271 5.09999 35.6032 4.28955C35.0982 4.12224 34.496 3.90719 33.826 3.66793C30.8856 2.61795 26.5551 1.07154 24.6307 0.950827C24.1308 0.919466 23.7112 0.942505 23.3123 1.01978C22.9115 1.09743 22.5243 1.23124 22.0922 1.42074C18.651 2.9299 15.1303 4.72862 11.9936 6.94395C8.87778 9.14448 6.14374 11.755 4.2522 14.8991C2.66489 17.5375 1.99627 19.9174 2.21558 22.0901C2.3508 23.4296 2.82675 24.7004 3.63582 25.9141C3.49384 24.9351 3.60376 23.9515 3.90897 22.9891C4.41557 21.3918 5.46683 19.8602 6.79021 18.5166ZM32.2337 54.2952C32.0597 54.1537 31.9015 54.0274 31.7372 53.9009C31.471 53.6958 31.1941 53.4949 30.8113 53.2307C30.5985 53.0839 30.5451 52.7924 30.692 52.5797C30.839 52.367 31.1307 52.3136 31.3436 52.4605C31.742 52.7355 32.0311 52.9452 32.3098 53.16C32.5194 53.3214 32.7265 53.4886 32.9745 53.692C33.8626 52.9365 34.602 52.1809 35.2005 51.434C35.2043 51.429 35.2082 51.4241 35.2122 51.4193C35.2892 51.323 35.3639 51.2267 35.4362 51.1307C35.6401 50.751 35.6473 50.2068 35.5079 49.6079C35.2978 48.7049 34.7599 47.7125 34.0402 46.9273C33.8659 46.7369 33.879 46.4413 34.0696 46.2671C34.2602 46.0929 34.556 46.106 34.7303 46.2964C35.5572 47.1986 36.1773 48.3474 36.4219 49.3988C36.4307 49.4364 36.4389 49.4738 36.4467 49.5112C36.6126 49.176 36.75 48.8442 36.8594 48.5168C37.406 46.88 37.2472 45.3472 36.481 44.0346C36.3195 43.7578 36.1295 43.4889 35.9122 43.229C35.8797 43.1901 35.8426 43.1494 35.801 43.1069C35.7597 43.0665 35.7179 43.0262 35.6756 42.986L35.6658 42.9764C35.6047 42.9204 35.5372 42.8618 35.4637 42.8008C35.2565 42.629 35.0031 42.439 34.7094 42.2333C34.4976 42.0855 34.4458 41.794 34.5938 41.5823C34.7418 41.3706 35.0335 41.3189 35.2454 41.4668C35.5597 41.6869 35.8339 41.8927 36.062 42.0819C36.1474 42.1527 36.2265 42.2212 36.299 42.2873C36.3067 42.2938 36.3143 42.3005 36.3216 42.3075L36.3415 42.3264C36.3824 42.3645 36.4211 42.4018 36.4574 42.4383C38.0845 44.0273 39.016 45.7714 39.512 47.4216C40.2683 49.9379 40.0061 52.2455 39.6556 53.4483C39.066 55.4715 37.6105 57.212 35.7998 58.6893C34.0254 60.1371 31.9054 61.3347 29.9386 62.2952C26.6243 63.9137 22.6583 65.256 18.8128 66.3265C12.643 68.0442 6.77592 69.066 4.42108 69.4042C4.16463 69.4407 3.92713 69.2625 3.89065 69.0063C3.85978 68.7895 3.98269 68.5863 4.17661 68.5067C5.66074 67.7657 8.04677 66.6653 10.8359 65.379C16.5777 62.731 24.0215 59.2979 28.4668 56.7727C28.1736 56.558 27.9114 56.3845 27.3233 56.032C27.1013 55.8993 27.029 55.612 27.1618 55.3901C27.2946 55.1683 27.5822 55.0961 27.8042 55.2288C28.643 55.7315 28.8568 55.89 29.3475 56.26C30.4265 55.6125 31.3869 54.9556 32.2337 54.2952ZM38.6127 47.6894C38.4825 47.2561 38.3194 46.8158 38.1179 46.3735C38.148 47.1574 38.0279 47.9748 37.7477 48.8139C37.4401 49.7349 36.9379 50.681 36.2279 51.6356C36.1438 51.78 36.0416 51.9132 35.9206 52.0331C35.2507 52.8678 34.4212 53.7072 33.4231 54.5403C32.3091 55.4702 30.9818 56.3954 29.4283 57.3006C25.0178 59.8706 17.2039 63.4742 11.2286 66.2299C9.88387 66.8501 8.63205 67.4274 7.53706 67.9383C10.4177 67.4138 14.4226 66.577 18.5631 65.4243C22.3635 64.3663 26.2749 63.0437 29.5274 61.4553C31.439 60.5218 33.4961 59.3605 35.2088 57.9631C36.8852 56.5953 38.2269 55.0042 38.7562 53.1879C39.0734 52.0996 39.3077 50.0018 38.6127 47.6894Z" fill="white"/>
<path d="M29.1229 15.1659L19.1578 11.9775C19.1387 11.9713 19.1203 11.9641 19.1026 11.9558C17.5334 12.6566 16.0139 13.3693 14.597 14.0883L24.2465 17.1394C24.2804 17.1501 24.3122 17.1642 24.3416 17.1813C24.8745 16.9569 25.4013 16.7357 25.9205 16.5177C27.0277 16.053 28.1006 15.6026 29.1229 15.1659ZM6.92514 47.7514C7.04649 48.053 7.17906 48.349 7.32283 48.6406L8.16553 48.2251C8.03217 47.9546 7.90925 47.6801 7.7967 47.4003L6.92514 47.7514ZM13.7842 54.8613C14.079 54.9966 14.378 55.1214 14.6815 55.236L15.0123 54.3571C14.7292 54.2501 14.4508 54.134 14.1758 54.0078L13.7842 54.8613ZM15.6021 55.547C15.9129 55.64 16.2261 55.7219 16.5425 55.7935L16.7489 54.8775C16.4538 54.8107 16.1615 54.7343 15.8717 54.6475L15.6021 55.547ZM17.4976 55.9747C17.8177 56.0239 18.1395 56.0629 18.4622 56.0902L18.541 55.1546C18.2385 55.1278 17.94 55.0927 17.6399 55.0466L17.4976 55.9747ZM19.4317 56.1403C19.4897 56.1413 19.5476 56.1419 19.6055 56.1424L19.6936 56.1427L19.7816 56.1424L19.8695 56.1416L19.9572 56.1403L20.0449 56.1385L20.1324 56.1361L20.2197 56.1332L20.3069 56.1298L20.4049 56.1253L20.3538 55.1877L20.2673 55.1917L20.1857 55.1949L20.104 55.1976L20.0222 55.1998L19.9403 55.2015L19.8582 55.2028L19.7761 55.2035L19.6938 55.2037L19.6113 55.2035C19.5569 55.203 19.5025 55.2025 19.4481 55.2015L19.4317 56.1403ZM21.3723 56.0449L21.4278 56.0384L21.513 56.0278L21.598 56.0167L21.6828 56.0051L21.7675 55.993L21.852 55.9804L21.9363 55.9674L22.0205 55.9538L22.1045 55.9397L22.1884 55.9252L22.272 55.9101L22.3319 55.899L22.1572 54.9764L22.1029 54.9865L22.0247 55.0006L21.9465 55.0142L21.8681 55.0273L21.7895 55.04L21.7107 55.0522L21.6318 55.0639L21.5527 55.0752L21.4735 55.086L21.3941 55.0964L21.3146 55.1063L21.2591 55.1128L21.3723 56.0449ZM23.2818 55.6869L23.3429 55.671L23.4239 55.6493L23.5047 55.6271L23.5854 55.6044L23.6658 55.5814L23.746 55.5578L23.826 55.5338L23.9058 55.5093L23.9854 55.4844L24.0648 55.459L24.144 55.4332L24.2119 55.4106L23.9123 54.5207L23.8497 54.5415L23.7758 54.5656L23.7018 54.5893L23.6275 54.6125L23.553 54.6353L23.4784 54.6577L23.4036 54.6797L23.3285 54.7013L23.2533 54.7224L23.1779 54.743L23.1023 54.7633L23.0412 54.7793L23.2818 55.6869ZM25.123 55.0694L25.1529 55.0571L25.2288 55.0251L25.3046 54.9927L25.3801 54.9598L25.4553 54.9266L25.5304 54.8929L25.6051 54.8588L25.6796 54.8242L25.7539 54.7893L25.8279 54.7539L25.9017 54.7181L25.9752 54.6819L26.0079 54.6656L25.5851 53.827L25.5573 53.8409L25.4888 53.8747L25.42 53.908L25.351 53.941L25.2818 53.9736L25.2123 54.0058L25.1425 54.0376L25.0726 54.069L25.0025 54.1L24.9321 54.1306L24.8614 54.1609L24.7905 54.1907L24.7607 54.2031L25.123 55.0694ZM26.8623 54.2007L26.9068 54.1744L26.9766 54.1326L27.0461 54.0904L27.1152 54.0478L27.1842 54.0047L27.2528 53.9614L27.3211 53.9176L27.3892 53.8735L27.457 53.8289L27.5244 53.784L27.5916 53.7387L27.6585 53.6931L27.6818 53.6769L27.1447 52.9064L27.0637 52.962L27.0011 53.0041L26.9382 53.046L26.8751 53.0875L26.8117 53.1286L26.748 53.1694L26.6841 53.2098L26.6199 53.2499L26.5554 53.2896L26.4907 53.3289L26.4257 53.3679L26.3811 53.3942L26.8623 54.2007ZM28.462 53.0964L28.5002 53.0659L28.5627 53.0151L28.625 52.964L28.6869 52.9125L28.7485 52.8606L28.8097 52.8085L28.8707 52.756L28.9313 52.7031L28.9915 52.6499L29.0515 52.5963L29.1111 52.5424L29.1704 52.4882L29.199 52.4617L28.5581 51.7749L28.5336 51.7976L28.4785 51.8481L28.423 51.8982L28.3672 51.9481L28.3111 51.9976L28.2547 52.0468L28.198 52.0957L28.141 52.1443L28.0837 52.1925L28.026 52.2404L27.9681 52.2881L27.9099 52.3353L27.8717 52.3659L28.462 53.0964ZM29.8884 51.7754L29.9095 51.7529L29.9639 51.6941L30.0179 51.635L30.0715 51.5755L30.1248 51.5157L30.1778 51.4557L30.2303 51.3953L30.2825 51.3345L30.3343 51.2735L30.3858 51.2122L30.4368 51.1506L30.4875 51.0887L30.5263 51.0407L29.7935 50.4529L29.7583 50.4964L29.7112 50.554L29.6638 50.6112L29.6159 50.6682L29.5678 50.7249L29.5193 50.7813L29.4705 50.8374L29.4213 50.8932L29.3717 50.9488L29.3219 51.0041L29.2716 51.0591L29.2211 51.1138L29.2 51.1363L29.8884 51.7754ZM31.1086 50.2608L31.1565 50.191L31.2013 50.1247L31.2458 50.0582L31.2898 49.9914L31.3333 49.9243L31.3766 49.8569L31.4193 49.7893L31.4617 49.7214L31.5036 49.6532L31.5452 49.5848L31.5863 49.516L31.6329 49.4369L30.819 48.9676L30.7782 49.0367L30.7401 49.1004L30.7016 49.1639L30.6627 49.2271L30.6234 49.2901L30.5837 49.3529L30.5437 49.4153L30.5032 49.4776L30.4623 49.5396L30.4211 49.6013L30.3795 49.6629L30.3349 49.7279L31.1086 50.2608ZM32.0923 48.578L32.1169 48.5272L32.1515 48.4548L32.1857 48.3821L32.2194 48.3091L32.2527 48.2359L32.2855 48.1625L32.3179 48.0888L32.3498 48.0149L32.3813 47.9408L32.4123 47.8664L32.4428 47.7918L32.4729 47.717L32.4851 47.6861L31.6098 47.3445L31.5998 47.3698L31.5719 47.439L31.5437 47.5081L31.515 47.5769L31.4858 47.6456L31.4563 47.7141L31.4263 47.7822L31.3959 47.8502L31.3651 47.9181L31.3338 47.9857L31.3022 48.053L31.2701 48.1202L31.2455 48.1709L32.0923 48.578ZM32.8082 46.7663L32.821 46.7248L32.8444 46.647L32.8674 46.569L32.8898 46.4909L32.9118 46.4125L32.9332 46.3339L32.9542 46.2552L32.9746 46.1762L32.9946 46.0971L33.0141 46.0177L33.033 45.9382L33.0515 45.8585L33.0593 45.8238L32.1417 45.6212L32.1352 45.6499L32.1182 45.7236L32.1006 45.7972L32.0826 45.8706L32.0641 45.9438L32.0452 46.0169L32.0258 46.0898L32.006 46.1624L31.9857 46.2349L31.9649 46.3073L31.9437 46.3795L31.922 46.4514L31.9092 46.4929L32.8082 46.7663ZM33.2364 44.8644L33.2447 44.8062L33.2559 44.7241L33.2666 44.6419L33.2768 44.5594L33.2864 44.4768L33.2955 44.3941L33.304 44.3112L33.312 44.2281L33.3195 44.1449L33.3264 44.0616L33.3328 43.9781L33.3385 43.897L32.4008 43.8348L32.3955 43.9097L32.3896 43.987L32.3832 44.0641L32.3763 44.1412L32.3689 44.218L32.361 44.2948L32.3526 44.3714L32.3437 44.4478L32.3343 44.5241L32.3244 44.6002L32.314 44.6763L32.3057 44.7344L33.2364 44.8644ZM33.3659 42.9214L33.3655 42.8823L33.3642 42.798L33.3622 42.7139L33.3597 42.6299L33.3567 42.546L33.3531 42.4623L33.349 42.3786L33.3443 42.2951L33.339 42.2118L33.3332 42.1286L33.3269 42.0455L33.3186 41.9466L32.3829 42.0332L32.3901 42.1198L32.396 42.1967L32.4013 42.2737L32.4062 42.3509L32.4105 42.4281L32.4144 42.5056L32.4177 42.5831L32.4205 42.6608L32.4228 42.7386L32.4246 42.8165L32.4259 42.8945L32.4263 42.9337L33.3659 42.9214ZM33.1966 40.9816L33.1824 40.8977L33.1681 40.8169L33.1533 40.7363L33.138 40.6558L33.1222 40.5755L33.1059 40.4954L33.0891 40.4154L33.0718 40.3356L33.0539 40.256L33.0356 40.1766L33.0168 40.0973L32.9994 40.0263L32.0872 40.2521L32.1032 40.3173L32.1206 40.3906L32.1376 40.4641L32.1541 40.5378L32.1701 40.6116L32.1857 40.6855L32.2007 40.7596L32.2154 40.834L32.2295 40.9084L32.2432 40.983L32.2564 41.0578L32.2696 41.1355L33.1966 40.9816ZM32.7286 39.0895L32.7011 39.0075L32.675 38.9312L32.6483 38.855L32.6212 38.779L32.5936 38.7033L32.5656 38.6278L32.537 38.5524L32.508 38.4774L32.4786 38.4025L32.4486 38.3278L32.4182 38.2534L32.3853 38.1741L31.5208 38.5425L31.5207 38.542L31.5492 38.6108L31.5774 38.6797L31.6051 38.7488L31.6324 38.8182L31.6592 38.8877L31.6856 38.9574L31.7116 39.0273L31.7372 39.0974L31.7623 39.1677L31.7869 39.2382L31.8112 39.3089L31.8367 39.3852L32.7286 39.0895ZM31.974 37.291L31.9453 37.2352L31.9082 37.1643L31.8706 37.0936L31.8327 37.0232L31.7943 36.953L31.7554 36.883L31.7162 36.8133L31.6765 36.7439L31.6364 36.6747L31.5958 36.6057L31.5548 36.5371L31.5135 36.4687L31.4971 36.4419L30.6973 36.935L30.7107 36.9568L30.7491 37.0203L30.7871 37.0839L30.8247 37.1478L30.8619 37.212L30.8987 37.2764L30.9351 37.341L30.9711 37.4059L31.0067 37.471L31.0419 37.5363L31.0767 37.6018L31.1111 37.6675L31.1398 37.7233L31.974 37.291ZM30.958 35.6313L30.9383 35.6039L30.8912 35.5393L30.8437 35.4749L30.7959 35.4109L30.7476 35.3472L30.699 35.2838L30.65 35.2206L30.6006 35.1578L30.5508 35.0952L30.5006 35.033L30.4501 34.971L30.3992 34.9093L30.3606 34.8632L29.6412 35.4673L29.6761 35.5091L29.7235 35.5664L29.7704 35.624L29.817 35.6818L29.8633 35.7399L29.9092 35.7983L29.9547 35.857L29.9999 35.9159L30.0447 35.9751L30.0891 36.0345L30.1332 36.0942L30.1769 36.1542L30.1966 36.1817L30.958 35.6313ZM29.7086 34.1411L29.6474 34.0784L29.591 34.0213L29.5342 33.9647L29.4771 33.9084L29.4196 33.8523L29.3618 33.7967L29.3037 33.7413L29.2452 33.6863L29.1864 33.6316L29.1272 33.5773L29.0677 33.5233L29.0041 33.4664L28.3827 34.1707L28.3823 34.1703L28.438 34.2202L28.4933 34.2705L28.5484 34.3211L28.6031 34.3719L28.6576 34.4231L28.7117 34.4746L28.7654 34.5264L28.8189 34.5785L28.872 34.6309L28.9248 34.6836L28.9772 34.7366L29.0346 34.7953L29.7086 34.1411ZM28.2551 32.8459L28.1998 32.8036L28.1354 32.7548L28.0707 32.7064L28.0057 32.6584L27.9403 32.6107L27.8747 32.5634L27.8088 32.5165L27.7425 32.47L27.676 32.4238L27.6091 32.378L27.542 32.3325L27.4638 32.2804L26.9485 33.0656L27.0174 33.1116L27.08 33.1539L27.1422 33.1966L27.2042 33.2396L27.2659 33.2829L27.3273 33.3266L27.3885 33.3707L27.4493 33.4151L27.5099 33.4598L27.5701 33.5049L27.6301 33.5503L27.6854 33.5926L28.2551 32.8459ZM26.6344 31.7723L26.5713 31.7369L26.4999 31.6973L26.4282 31.6581L26.3562 31.6193L26.284 31.5809L26.2115 31.5429L26.1387 31.5053L26.0656 31.4681L25.9923 31.4314L25.9187 31.395L25.8449 31.3591L25.7738 31.325L25.3698 32.1728L25.4359 32.2044L25.5047 32.238L25.5733 32.2718L25.6417 32.3061L25.7097 32.3407L25.7776 32.3758L25.8452 32.4112L25.9126 32.447L25.9796 32.4831L26.0464 32.5197L26.1131 32.5566L26.1761 32.592L26.6344 31.7723ZM24.8812 30.9379L24.7848 30.9004L24.7073 30.8709L24.6296 30.8418L24.5516 30.8132L24.4733 30.7849L24.3949 30.7572L24.3162 30.7299L24.2373 30.703L24.1582 30.6766L24.0788 30.6506L23.9992 30.6251L23.9637 30.614L23.6846 31.5105L23.7148 31.5201L23.789 31.5438L23.863 31.5681L23.9369 31.5927L24.0105 31.6178L24.0838 31.6432L24.157 31.6691L24.23 31.6954L24.3027 31.7221L24.3752 31.7493L24.4475 31.7768L24.5387 31.8123L24.8812 30.9379ZM23.0284 30.355L22.9457 30.3355L22.8632 30.3165L22.7805 30.2979L22.6977 30.2799L22.6147 30.2623L22.5314 30.2453L22.448 30.2287L22.3644 30.2125L22.2806 30.1969L22.1967 30.1818L22.1125 30.1671L22.0745 30.1608L21.9217 31.0872L21.954 31.0926L22.0326 31.1063L22.111 31.1204L22.1892 31.135L22.2673 31.1501L22.3451 31.1656L22.4228 31.1815L22.5003 31.1979L22.5777 31.2148L22.6548 31.232L22.7318 31.2498L22.809 31.2681L23.0284 30.355ZM21.1124 30.0325L21.0029 30.022L20.9164 30.0144L20.8298 30.0073L20.743 30.0007L20.656 29.9946L20.5689 29.9891L20.4817 29.9841L20.3943 29.9796L20.3067 29.9756L20.2191 29.9721L20.1436 29.9696L20.115 30.9081L20.1848 30.9104L20.2668 30.9137L20.3486 30.9174L20.4303 30.9216L20.5119 30.9263L20.5934 30.9315L20.6746 30.9372L20.7557 30.9434L20.8368 30.95L20.9176 30.9571L21.0213 30.967L21.1124 30.0325ZM19.1727 29.9716L19.0773 29.9753L18.9902 29.9793L18.9032 29.9837L18.8164 29.9887L18.7298 29.9942L18.6433 30.0002L18.5569 30.0068L18.4706 30.0138L18.3845 30.0214L18.2986 30.0294L18.2015 30.0392L18.3034 30.9726L18.3893 30.964L18.4696 30.9565L18.55 30.9494L18.6306 30.9428L18.7113 30.9367L18.7922 30.9311L18.8732 30.926L18.9543 30.9213L19.0356 30.9171L19.117 30.9134L19.2067 30.91L19.1727 29.9716ZM17.24 30.1723L17.1959 30.18L17.1122 30.195L17.0287 30.2105L16.9454 30.2265L16.8623 30.243L16.7793 30.26L16.6966 30.2774L16.614 30.2954L16.5316 30.3138L16.4494 30.3327L16.3674 30.352L16.2899 30.3708L16.5142 31.2826L16.5862 31.2652L16.6627 31.2471L16.7394 31.2295L16.8164 31.2123L16.8934 31.1956L16.9707 31.1793L17.0481 31.1634L17.1257 31.148L17.2035 31.1331L17.2814 31.1186L17.3594 31.1046L17.4035 31.0969L17.24 30.1723ZM15.3534 30.6352L15.3194 30.6461L15.2402 30.6719L15.1613 30.6982L15.0826 30.7249L15.004 30.7521L14.9258 30.7797L14.8477 30.8078L14.7698 30.8363L14.6922 30.8652L14.6149 30.8946L14.5377 30.9244L14.4377 30.9639L14.7897 31.8345L14.8793 31.7991L14.9512 31.7713L15.0234 31.7439L15.0958 31.7169L15.1684 31.6903L15.2412 31.6642L15.3143 31.6384L15.3875 31.613L15.4609 31.5881L15.5346 31.5636L15.6084 31.5395L15.6424 31.5286L15.3534 30.6352ZM13.5473 31.3556L13.4825 31.387L13.409 31.4232L13.3357 31.4598L13.2627 31.4968L13.19 31.5342L13.1175 31.5721L13.0454 31.6103L12.9734 31.649L12.9017 31.688L12.8303 31.7275L12.7592 31.7673L12.689 31.8072L13.1558 32.6221L13.2212 32.585L13.2875 32.5478L13.354 32.5111L13.4208 32.4747L13.4879 32.4386L13.5552 32.403L13.6228 32.3677L13.6906 32.3328L13.7586 32.2983L13.8269 32.2642L13.8954 32.2304L13.9602 32.199L13.5473 31.3556ZM11.8623 32.3195L11.7926 32.3664L11.7257 32.4121L11.6592 32.4581L11.5929 32.5045L11.5269 32.5513L11.4612 32.5984L11.3959 32.646L11.3308 32.6939L11.266 32.7421L11.2016 32.7907L11.1375 32.8397L11.0739 32.8889L11.6511 33.6298L11.7103 33.584L11.7701 33.5384L11.8301 33.4931L11.8904 33.4482L11.951 33.4036L12.0119 33.3593L12.0731 33.3154L12.1345 33.2718L12.1962 33.2286L12.2583 33.1857L12.3205 33.1432L12.3856 33.0994L11.8623 32.3195ZM10.3259 33.515L10.2731 33.5627L10.2138 33.6169L10.1549 33.6715L10.0963 33.7264L10.0381 33.7817L9.98015 33.8372L9.92261 33.8932L9.86541 33.9494L9.80851 34.006L9.752 34.0629L9.69584 34.1201L9.62686 34.1914L10.3075 34.8388L10.3687 34.7755L10.421 34.7223L10.4735 34.6694L10.5264 34.6168L10.5796 34.5645L10.6332 34.5124L10.687 34.4608L10.7412 34.4094L10.7958 34.3583L10.8506 34.3075L10.9057 34.257L10.9585 34.2093L10.3259 33.515ZM8.97854 34.9169L8.94738 34.9545L8.89672 35.0164L8.84641 35.0786L8.79648 35.1411L8.74695 35.2039L8.69778 35.2671L8.649 35.3305L8.60062 35.3942L8.55264 35.4582L8.50503 35.5224L8.45782 35.587L8.41098 35.6519L8.38506 35.6883L9.15225 36.2305L9.17482 36.1988L9.21827 36.1386L9.26212 36.0787L9.30632 36.019L9.3509 35.9596L9.39584 35.9004L9.44113 35.8415L9.48677 35.7829L9.53281 35.7246L9.57918 35.6665L9.62593 35.6087L9.67302 35.5511L9.70418 35.5135L8.97854 34.9169ZM7.85032 36.5018L7.79793 36.5891L7.75724 36.658L7.71696 36.7273L7.67713 36.7968L7.63771 36.8665L7.59871 36.9365L7.56015 37.0068L7.52201 37.0773L7.48433 37.148L7.44706 37.2191L7.41021 37.2904L7.37802 37.3536L8.21701 37.7765L8.24657 37.7185L8.28067 37.6525L8.31521 37.5867L8.35017 37.5211L8.38552 37.4557L8.42127 37.3905L8.45741 37.3257L8.49396 37.261L8.5309 37.1966L8.56825 37.1324L8.60598 37.0684L8.65536 36.9861L7.85032 36.5018ZM6.97058 38.242L6.9414 38.3133L6.91132 38.3881L6.88169 38.4632L6.85256 38.5384L6.82389 38.6138L6.79569 38.6895L6.76794 38.7654L6.74065 38.8416L6.71388 38.9179L6.68758 38.9944L6.66173 39.0712L6.63358 39.1568L7.529 39.4417L7.55339 39.3677L7.57729 39.2966L7.60167 39.2258L7.62646 39.1551L7.65168 39.0847L7.67736 39.0144L7.70347 38.9443L7.73003 38.8745L7.75703 38.8048L7.78442 38.7353L7.81227 38.6661L7.84145 38.5948L6.97058 38.242ZM6.36829 40.0953L6.35122 40.1669L6.33275 40.2466L6.31481 40.3265L6.29737 40.4066L6.28043 40.4868L6.26401 40.5673L6.24812 40.6479L6.23272 40.7286L6.21783 40.8096L6.20349 40.8907L6.18964 40.972L6.17707 41.0489L7.10501 41.1971L7.11657 41.1264L7.12938 41.0512L7.14267 40.9761L7.15642 40.9013L7.17067 40.8265L7.18539 40.7519L7.20059 40.6775L7.21624 40.6033L7.23239 40.5292L7.24899 40.4552L7.26607 40.3815L7.28313 40.3099L6.36829 40.0953ZM6.05996 42.0176L6.05781 42.0435L6.05143 42.127L6.04559 42.2107L6.04031 42.2944L6.03556 42.3783L6.03137 42.4624L6.02774 42.5466L6.02465 42.6309L6.02211 42.7153L6.02014 42.7999C6.01908 42.8636 6.01812 42.9272 6.01774 42.9908L6.95747 42.9947C6.95773 42.936 6.95869 42.8774 6.95968 42.8187L6.96151 42.7404L6.96386 42.6621L6.96672 42.584L6.97009 42.506L6.97397 42.4282L6.97837 42.3504L6.98325 42.2729L6.98867 42.1954L6.99458 42.1181L6.99673 42.0922L6.05996 42.0176ZM6.05018 43.9653C6.07353 44.2893 6.10919 44.6127 6.15766 44.934L7.08686 44.7939C7.04212 44.4961 7.00903 44.197 6.98739 43.8967L6.05018 43.9653ZM6.34016 45.8922C6.41343 46.2091 6.49901 46.5225 6.59651 46.8328L7.49287 46.5509C7.40257 46.2637 7.32342 45.9734 7.2556 45.6801L6.34016 45.8922ZM26.0138 42.5611C25.8554 42.5928 25.7013 42.4901 25.6696 42.3319C25.6379 42.1736 25.7407 42.0197 25.899 41.988C26.4364 41.8792 26.9954 41.8915 27.5274 42.0275C28.0421 42.159 28.5336 42.4061 28.9582 42.7708C28.9986 42.8055 29.0372 42.8401 29.0738 42.8745C29.7222 43.4832 30.0738 44.2806 30.119 45.0942C30.1642 45.9081 29.9028 46.7369 29.3251 47.4084C29.2912 47.4478 29.257 47.4858 29.2226 47.5224C28.5769 48.2091 27.702 48.5806 26.8096 48.626C25.9177 48.6715 25.0073 48.3914 24.2898 47.775C24.1669 47.6699 24.1525 47.4852 24.2577 47.3624C24.3628 47.2396 24.5477 47.2252 24.6706 47.3303C25.2704 47.8455 26.0325 48.0796 26.7798 48.0415C27.5265 48.0034 28.2576 47.6937 28.7958 47.1213C28.8255 47.0897 28.8536 47.0585 28.88 47.0278C29.3557 46.475 29.5711 45.7939 29.534 45.1263C29.4969 44.4585 29.207 43.8029 28.6723 43.3009C28.6406 43.2711 28.6089 43.2426 28.5773 43.2155C28.224 42.912 27.8137 42.7061 27.3829 42.596C26.9331 42.481 26.4631 42.4701 26.0138 42.5611ZM12.3367 50.2177C12.3243 50.2069 12.3125 50.1954 12.3013 50.1833C12.2884 50.1714 12.2764 50.1605 12.2652 50.1509C12.0067 49.9289 11.6774 49.828 11.3542 49.8445C11.0318 49.8609 10.7168 49.9939 10.4857 50.2397C10.4723 50.2539 10.4605 50.2669 10.4504 50.2787C10.2499 50.5118 10.159 50.7978 10.1746 51.0775C10.1901 51.3576 10.3125 51.6333 10.5384 51.8454C10.5527 51.8588 10.566 51.8708 10.5783 51.8813C10.8368 52.1034 11.1661 52.2043 11.4893 52.1878C11.8117 52.1714 12.1267 52.0383 12.3578 51.7926C12.3712 51.7784 12.3829 51.7654 12.3931 51.7535C12.5936 51.5205 12.6844 51.2345 12.6689 50.9547C12.6541 50.688 12.5424 50.4252 12.3367 50.2177ZM12.7431 49.3349L17.2607 47.787L12.7526 43.9156C12.4281 44.0453 12.0845 44.1194 11.7379 44.137C10.9594 44.1767 10.1645 43.932 9.53766 43.3935C9.50154 43.3625 9.46764 43.3321 9.43597 43.3023C8.86667 42.7679 8.55789 42.067 8.51813 41.3513C8.47834 40.6353 8.708 39.9066 9.21553 39.3167C9.24589 39.2815 9.27597 39.2479 9.3057 39.2163C9.87036 38.6158 10.6347 38.291 11.414 38.2513C12.1924 38.2116 12.9874 38.4564 13.6142 38.9948C13.6503 39.0258 13.6842 39.0562 13.7159 39.086C14.2852 39.6204 14.594 40.3213 14.6338 41.037C14.6467 41.2704 14.631 41.5052 14.5864 41.7361L17.3899 42.7113C17.4626 42.5918 17.546 42.4764 17.6406 42.3665C17.6674 42.3354 17.6938 42.306 17.7197 42.2784C18.2143 41.7524 18.8838 41.4678 19.5661 41.4331C19.7506 41.4237 19.9362 41.4326 20.1196 41.4598L21.4963 37.5889C21.2777 37.4874 21.07 37.3554 20.8801 37.1922C20.8485 37.1651 20.819 37.1386 20.7916 37.1129C20.2961 36.6477 20.0273 36.0375 19.9927 35.4143C19.9581 34.7908 20.1579 34.1562 20.5997 33.6427C20.6263 33.6118 20.6525 33.5827 20.6783 33.5553C21.169 33.0334 21.8332 32.7511 22.5102 32.7166C23.1864 32.6821 23.8769 32.8948 24.4216 33.3626C24.4532 33.3898 24.4827 33.4162 24.5101 33.442C25.0056 33.9071 25.2743 34.5174 25.309 35.1406C25.3436 35.7641 25.1437 36.3987 24.7019 36.9121C24.6753 36.943 24.6491 36.9722 24.6234 36.9996C24.3828 37.2555 24.1004 37.4537 23.7954 37.5934L25.1829 43.683C25.5151 43.4169 25.9199 43.2716 26.3309 43.2507C26.8284 43.2254 27.3367 43.3819 27.7377 43.7265C27.7614 43.7469 27.7833 43.7664 27.8033 43.7852C28.1698 44.1293 28.3686 44.5811 28.3943 45.0428C28.4199 45.5049 28.272 45.9749 27.945 46.3549C27.925 46.3781 27.9056 46.3998 27.8869 46.4197C27.5252 46.8044 27.036 47.0124 26.5377 47.0378C26.0403 47.0632 25.532 46.9066 25.131 46.5621C25.1072 46.5417 25.0854 46.5221 25.0654 46.5034C24.9642 46.4084 24.8758 46.3052 24.8003 46.1958L21.2759 47.4034L22.2373 49.2521C22.7475 49.263 23.2569 49.4422 23.6672 49.7947C23.6939 49.8177 23.7187 49.8398 23.7415 49.8612C24.1568 50.2511 24.3821 50.7629 24.4111 51.2857C24.4402 51.8088 24.2726 52.3411 23.9022 52.7715C23.8797 52.7977 23.8577 52.8222 23.8363 52.8449C23.4258 53.2815 22.8705 53.5176 22.3045 53.5465C21.7395 53.5753 21.1623 53.3975 20.7069 53.0063C20.6802 52.9834 20.6554 52.9612 20.6326 52.9398C20.2174 52.5499 19.9921 52.0381 19.963 51.5153C19.9408 51.1154 20.0336 50.7101 20.244 50.349L18.0864 48.4961L13.3939 50.1039C13.519 50.3561 13.5897 50.6282 13.605 50.9034C13.6335 51.417 13.469 51.9397 13.1053 52.3624C13.0832 52.3881 13.0616 52.4121 13.0406 52.4345C12.6376 52.863 12.0925 53.0948 11.537 53.1231C10.9824 53.1514 10.4159 52.9769 9.9689 52.5929C9.94265 52.5703 9.91832 52.5485 9.896 52.5276C9.48825 52.1448 9.26704 51.6423 9.23852 51.1289C9.20996 50.6152 9.3745 50.0926 9.73821 49.6699C9.76033 49.6442 9.78191 49.6201 9.80287 49.5978C10.2059 49.1693 10.751 48.9375 11.3064 48.9092C11.808 48.8836 12.3193 49.0239 12.7431 49.3349ZM18.2886 47.4349L19.9398 46.8692L19.7982 46.5969C19.1332 46.6186 18.4583 46.4034 17.9231 45.9437C17.8912 45.9163 17.8615 45.8896 17.8339 45.8637C17.3345 45.3949 17.0637 44.7799 17.0288 44.1519C17.0183 43.9638 17.0291 43.7747 17.0612 43.5882L14.2603 42.6139C14.169 42.7733 14.0611 42.9267 13.9363 43.0717C13.906 43.1069 13.8759 43.1404 13.8462 43.172C13.7674 43.2558 13.6847 43.3343 13.5986 43.4073L18.2886 47.4349ZM20.8381 46.5614L24.4794 45.3138C24.4776 45.2941 24.4761 45.2743 24.4749 45.2546L22.2273 44.9047C22.125 45.1734 21.9746 45.4296 21.7752 45.6614C21.7484 45.6925 21.722 45.7219 21.696 45.7495C21.4249 46.0378 21.1013 46.2536 20.7518 46.3955L20.8381 46.5614ZM20.3776 47.7111L19.1143 48.144L20.8798 49.6601C21.0051 49.5723 21.138 49.4986 21.2761 49.4389L20.3776 47.7111ZM25.4588 45.4398C25.463 45.4497 25.4669 45.4599 25.4704 45.4702L25.4733 45.4789C25.523 45.604 25.6013 45.7212 25.7078 45.8211C25.7197 45.8323 25.7306 45.8421 25.7403 45.8505C25.9529 46.0331 26.2239 46.1161 26.49 46.1025C26.7553 46.089 27.0143 45.9797 27.2041 45.7778C27.2152 45.766 27.2248 45.7554 27.2329 45.746C27.3967 45.5557 27.4709 45.3223 27.4582 45.0942C27.4455 44.8658 27.3455 44.6407 27.1609 44.4674C27.149 44.4562 27.1381 44.4464 27.1283 44.438C26.9157 44.2554 26.6448 44.1724 26.3787 44.186C26.1134 44.1995 25.8544 44.3088 25.6645 44.5107C25.6534 44.5225 25.6438 44.5331 25.6358 44.5425C25.472 44.7328 25.3978 44.9662 25.4104 45.1943C25.4151 45.2774 25.4312 45.36 25.4588 45.4398ZM22.0434 50.1956C22.0258 50.1988 22.0082 50.201 21.9905 50.2022C21.7029 50.2437 21.4288 50.3765 21.2206 50.598C21.2068 50.6126 21.1946 50.6261 21.1841 50.6383C20.9769 50.8791 20.883 51.1748 20.8991 51.464C20.9152 51.7535 21.0416 52.0385 21.275 52.2576C21.2898 52.2714 21.3035 52.2838 21.3163 52.2948C21.5832 52.5241 21.9231 52.6282 22.2568 52.6112C22.5897 52.5942 22.9149 52.4568 23.1535 52.2031C23.1673 52.1884 23.1795 52.175 23.19 52.1627C23.3972 51.9219 23.4911 51.6262 23.475 51.337C23.459 51.0475 23.3325 50.7625 23.0991 50.5434C23.0844 50.5296 23.0706 50.5172 23.0579 50.5063C22.7909 50.277 22.451 50.1728 22.1173 50.1898C22.0926 50.1911 22.068 50.193 22.0434 50.1956ZM13.0735 39.7682C13.0499 39.746 13.027 39.7254 13.0049 39.7064C12.5665 39.3298 12.0088 39.1587 11.4617 39.1866C10.9155 39.2144 10.3812 39.4405 9.98848 39.8582C9.9664 39.8817 9.94611 39.9042 9.92768 39.9256C9.58334 40.3257 9.42741 40.8179 9.45419 41.3C9.48099 41.7823 9.69097 42.2564 10.0784 42.6201C10.102 42.6423 10.1249 42.6629 10.147 42.6819C10.5854 43.0585 11.1431 43.2296 11.6902 43.2017C12.2364 43.1739 12.7707 42.9479 13.1634 42.5302C13.1855 42.5067 13.2058 42.4842 13.2242 42.4628C13.5686 42.0626 13.7245 41.5704 13.6977 41.0884C13.6709 40.606 13.4609 40.1319 13.0735 39.7682ZM21.4926 42.0842C21.5245 42.1116 21.5542 42.1383 21.5819 42.1642C22.0812 42.633 22.3521 43.248 22.3869 43.876C22.3889 43.9118 22.3901 43.9477 22.3906 43.9835L24.3604 44.2902L22.8888 37.8316C22.8564 37.8344 22.8239 37.8366 22.7914 37.8383C22.661 37.8449 22.5301 37.8423 22.3997 37.8305C22.3953 37.854 22.3891 37.8775 22.3809 37.9007L21.0105 41.7539C21.1801 41.8447 21.3419 41.9548 21.4926 42.0842ZM20.9395 42.8464C20.9199 42.828 20.9011 42.8111 20.8833 42.7958C20.705 42.6427 20.5027 42.5309 20.2893 42.4597C20.2814 42.4574 20.2735 42.4549 20.2656 42.4521L20.2639 42.4515C20.0534 42.3847 19.8326 42.3572 19.6138 42.3684C19.1645 42.3912 18.7252 42.5771 18.4025 42.9203C18.3842 42.9397 18.3676 42.9581 18.3527 42.9754C18.0707 43.3032 17.9429 43.7061 17.9648 44.1005C17.9868 44.4952 18.1588 44.8835 18.4763 45.1815C18.4959 45.1999 18.5146 45.2168 18.5325 45.2321C18.893 45.5418 19.3517 45.6825 19.8019 45.6596C20.2512 45.6367 20.6905 45.4509 21.0133 45.1076C21.0316 45.0882 21.0482 45.0698 21.063 45.0525C21.3451 44.7247 21.4728 44.3218 21.4509 43.9274C21.429 43.5327 21.2569 43.1444 20.9395 42.8464ZM23.8677 34.1242C23.8483 34.106 23.8298 34.0893 23.8122 34.0742C23.456 33.7682 23.0027 33.6292 22.5579 33.6519C22.114 33.6745 21.6799 33.858 21.361 34.1972C21.3429 34.2164 21.3266 34.2346 21.3119 34.2516C21.0333 34.5754 20.9071 34.9734 20.9288 35.3629C20.9504 35.7528 21.1204 36.1363 21.434 36.4307C21.4533 36.4488 21.4718 36.4655 21.4895 36.4807C21.8457 36.7867 22.2989 36.9257 22.7437 36.903C23.1877 36.8804 23.6217 36.6968 23.9406 36.3577C23.9587 36.3385 23.9751 36.3203 23.9898 36.3033C24.2684 35.9795 24.3945 35.5815 24.3729 35.1919C24.3512 34.8021 24.1813 34.4186 23.8677 34.1242ZM20.3889 11.3885L30.4317 14.6018C31.0479 14.3333 31.6411 14.0703 32.2072 13.8124L22.341 10.6856C22.2879 10.6689 22.2399 10.6435 22.1979 10.6116C21.5918 10.8684 20.9878 11.1275 20.3889 11.3885ZM23.4949 10.0668L33.4641 13.2262C33.9954 12.9717 34.4954 12.7225 34.9597 12.4783C35.3877 12.2533 35.6797 11.97 35.8211 11.6927C35.8872 11.5629 35.9164 11.442 35.9059 11.3396C35.8979 11.2605 35.8612 11.1864 35.7941 11.1241C35.7715 11.1032 35.7458 11.0833 35.7169 11.0647C35.548 10.9992 35.3667 10.9442 35.1727 10.9011C35.1527 10.8981 35.1331 10.8938 35.114 10.8884C34.6414 10.7903 34.0959 10.7611 33.4761 10.8182C33.2186 10.8414 32.991 10.6518 32.9677 10.3945C32.9444 10.1373 33.1342 9.90982 33.3916 9.88653C34.1072 9.82067 34.746 9.85618 35.3083 9.97316C35.6367 10.0128 35.9112 10.1 36.1332 10.223C36.3925 10.3293 36.6297 10.4561 36.8445 10.6003C37.4915 11.0348 37.9352 11.624 38.1783 12.2883C38.4186 12.9451 38.4603 13.6715 38.3061 14.3896C38.0882 15.4047 37.4785 16.4066 36.4854 17.1673C34.5613 18.6412 30.6363 20.2729 26.203 22.1159C21.2391 24.1795 15.6306 26.5112 11.5935 29.1321L11.8728 29.2747C12.3903 29.5384 12.8242 29.7582 13.2268 29.9612C13.4579 30.0777 13.5508 30.3593 13.4342 30.5902C13.3176 30.8211 13.0358 30.9139 12.8047 30.7975C12.1947 30.4899 11.7177 30.2489 11.447 30.1109C11.1832 29.9764 10.9365 29.8497 10.7073 29.7304C10.1594 30.1159 9.64737 30.5074 9.17896 30.9051C8.18663 31.7477 7.15113 32.7273 6.59592 33.7988C6.07837 34.7977 5.98419 35.9034 6.77829 37.0937C6.92121 37.3095 6.86204 37.6001 6.64614 37.7429C6.43024 37.8857 6.13933 37.8266 5.99641 37.6109C4.97467 36.0793 5.0962 34.656 5.76264 33.3697C6.39144 32.1561 7.50827 31.0942 8.57328 30.1899C9.12611 29.7205 9.7354 29.2605 10.3903 28.8094C10.4004 28.8018 10.4107 28.7947 10.4213 28.788C14.5769 25.934 20.5701 23.4424 25.8432 21.2503C30.2171 19.4321 34.0895 17.8222 35.9164 16.4228C36.7225 15.8053 37.2151 15.0025 37.3884 14.1952C37.5063 13.6465 37.4766 13.0975 37.2973 12.6074C37.1866 12.305 37.0181 12.0236 36.791 11.7773C36.7599 11.8914 36.7154 12.0055 36.658 12.1181C36.4347 12.5564 36.0051 12.9872 35.3965 13.3072C33.0334 14.5499 29.8344 15.8929 26.284 17.3833C23.1643 18.6929 19.7734 20.1164 16.4904 21.6611C12.3341 23.6166 8.2398 25.8215 5.36919 28.4142C2.57135 30.9413 0.93791 33.8425 1.57865 37.2498C1.75402 38.1824 2.3138 39.2998 3.03857 40.4358C3.77678 41.5929 4.68989 42.77 5.54936 43.7971C5.7156 43.9956 5.6893 44.2912 5.49062 44.4573C5.29195 44.6234 4.99612 44.5972 4.82988 44.3986C3.95501 43.3531 3.01964 42.1457 2.24934 40.9383C1.46557 39.7098 0.856659 38.4825 0.657272 37.4222C0.00546432 33.9561 1.42975 30.9998 4.00253 28.4233C2.09407 26.5087 1.01154 24.444 0.783184 22.1818C0.543213 19.8044 1.25396 17.2348 2.94828 14.4186C4.91543 11.1488 7.74097 8.44657 10.9539 6.17739C14.1459 3.92305 17.7232 2.09503 21.2178 0.562466C21.7127 0.345404 22.1618 0.191053 22.6361 0.0991649C23.1123 0.00690141 23.6069 -0.0209971 24.1895 0.0155397C26.2511 0.144856 30.6529 1.71674 33.6417 2.78401C35.1944 3.33849 36.2659 3.77717 36.3023 3.76215C36.8675 3.53768 37.2248 4.36592 36.6712 4.62223C34.536 5.5813 31.8932 6.64912 29.0502 7.79784C27.2514 8.52462 25.3721 9.284 23.4949 10.0668ZM13.4416 14.7073C13.4344 14.705 13.4273 14.7026 13.4203 14.7C12.8808 14.9875 12.3596 15.2758 11.8607 15.5644L21.2025 18.5182C21.815 18.2535 22.4234 17.9934 23.0257 17.7377L13.4416 14.7073ZM19.8932 19.0885L10.7855 16.2087C9.9017 16.7584 9.10633 17.3085 8.42232 17.8563C8.07891 18.1313 7.74563 18.4191 7.42623 18.7176C7.41732 18.7266 7.40795 18.7354 7.39819 18.7438C7.25902 18.8745 7.12252 19.0072 6.98905 19.1419C6.30407 19.9173 5.9347 20.9715 5.92827 22.1091C5.92144 23.3172 6.32201 24.6166 7.18494 25.7827C9.80046 23.9341 12.9305 22.3005 16.0903 20.8138C17.3579 20.2174 18.6312 19.643 19.8932 19.0885ZM6.42883 26.3344C5.44222 24.9991 4.98431 23.5027 4.9922 22.1055C4.99299 21.9663 4.99849 21.8282 5.00841 21.6913C4.71318 22.2079 4.47432 22.7366 4.30465 23.2716C3.84032 24.7357 3.90146 26.2547 4.76019 27.7043C5.28119 27.2348 5.83955 26.7785 6.42883 26.3344ZM6.29021 18.5166C6.44352 18.3435 6.60976 18.1812 6.78857 18.0314C7.12465 17.7172 7.47471 17.4149 7.83499 17.1264C12.2874 13.5606 21.1908 9.96321 28.7014 6.92859C31.0316 5.98709 33.2271 5.09999 35.1032 4.28955C34.5982 4.12224 33.996 3.90719 33.326 3.66793C30.3856 2.61795 26.0551 1.07154 24.1307 0.950827C23.6308 0.919466 23.2112 0.942505 22.8123 1.01978C22.4115 1.09743 22.0243 1.23124 21.5922 1.42074C18.151 2.9299 14.6303 4.72862 11.4936 6.94395C8.37778 9.14448 5.64374 11.755 3.7522 14.8991C2.16489 17.5375 1.49627 19.9174 1.71558 22.0901C1.8508 23.4296 2.32675 24.7004 3.13582 25.9141C2.99384 24.9351 3.10376 23.9515 3.40897 22.9891C3.91557 21.3918 4.96683 19.8602 6.29021 18.5166ZM31.7337 54.2952C31.5597 54.1537 31.4015 54.0274 31.2372 53.9009C30.971 53.6958 30.6941 53.4949 30.3113 53.2307C30.0985 53.0839 30.0451 52.7924 30.192 52.5797C30.339 52.367 30.6307 52.3136 30.8436 52.4605C31.242 52.7355 31.5311 52.9452 31.8098 53.16C32.0194 53.3214 32.2265 53.4886 32.4745 53.692C33.3626 52.9365 34.102 52.1809 34.7005 51.434C34.7043 51.429 34.7082 51.4241 34.7122 51.4193C34.7892 51.323 34.8639 51.2267 34.9362 51.1307C35.1401 50.751 35.1473 50.2068 35.0079 49.6079C34.7978 48.7049 34.2599 47.7125 33.5402 46.9273C33.3659 46.7369 33.379 46.4413 33.5696 46.2671C33.7602 46.0929 34.056 46.106 34.2303 46.2964C35.0572 47.1986 35.6773 48.3474 35.9219 49.3988C35.9307 49.4364 35.9389 49.4738 35.9467 49.5112C36.1126 49.176 36.25 48.8442 36.3594 48.5168C36.906 46.88 36.7472 45.3472 35.981 44.0346C35.8195 43.7578 35.6295 43.4889 35.4122 43.229C35.3797 43.1901 35.3426 43.1494 35.301 43.1069C35.2597 43.0665 35.2179 43.0262 35.1756 42.986L35.1658 42.9764C35.1047 42.9204 35.0372 42.8618 34.9637 42.8008C34.7565 42.629 34.5031 42.439 34.2094 42.2333C33.9976 42.0855 33.9458 41.794 34.0938 41.5823C34.2418 41.3706 34.5335 41.3189 34.7454 41.4668C35.0597 41.6869 35.3339 41.8927 35.562 42.0819C35.6474 42.1527 35.7265 42.2212 35.799 42.2873C35.8067 42.2938 35.8143 42.3005 35.8216 42.3075L35.8415 42.3264C35.8824 42.3645 35.9211 42.4018 35.9574 42.4383C37.5845 44.0273 38.516 45.7714 39.012 47.4216C39.7683 49.9379 39.5061 52.2455 39.1556 53.4483C38.566 55.4715 37.1105 57.212 35.2998 58.6893C33.5254 60.1371 31.4054 61.3347 29.4386 62.2952C26.1243 63.9137 22.1583 65.256 18.3128 66.3265C12.143 68.0442 6.27592 69.066 3.92108 69.4042C3.66463 69.4407 3.42713 69.2625 3.39065 69.0063C3.35978 68.7895 3.48269 68.5863 3.67661 68.5067C5.16074 67.7657 7.54677 66.6653 10.3359 65.379C16.0777 62.731 23.5215 59.2979 27.9668 56.7727C27.6736 56.558 27.4114 56.3845 26.8233 56.032C26.6013 55.8993 26.529 55.612 26.6618 55.3901C26.7946 55.1683 27.0822 55.0961 27.3042 55.2288C28.143 55.7315 28.3568 55.89 28.8475 56.26C29.9265 55.6125 30.8869 54.9556 31.7337 54.2952ZM38.1127 47.6894C37.9825 47.2561 37.8194 46.8158 37.6179 46.3735C37.648 47.1574 37.5279 47.9748 37.2477 48.8139C36.9401 49.7349 36.4379 50.681 35.7279 51.6356C35.6438 51.78 35.5416 51.9132 35.4206 52.0331C34.7507 52.8678 33.9212 53.7072 32.9231 54.5403C31.8091 55.4702 30.4818 56.3954 28.9283 57.3006C24.5178 59.8706 16.7039 63.4742 10.7286 66.2299C9.38387 66.8501 8.13205 67.4274 7.03706 67.9383C9.91768 67.4138 13.9226 66.577 18.0631 65.4243C21.8635 64.3663 25.7749 63.0437 29.0274 61.4553C30.939 60.5218 32.9961 59.3605 34.7088 57.9631C36.3852 56.5953 37.7269 55.0042 38.2562 53.1879C38.5734 52.0996 38.8077 50.0018 38.1127 47.6894Z" fill="white"/>
<path d="M28.6229 15.1659L18.6578 11.9775C18.6387 11.9713 18.6203 11.9641 18.6026 11.9558C17.0334 12.6566 15.5139 13.3693 14.097 14.0883L23.7465 17.1394C23.7804 17.1501 23.8122 17.1642 23.8416 17.1813C24.3745 16.9569 24.9013 16.7357 25.4205 16.5177C26.5277 16.053 27.6006 15.6026 28.6229 15.1659ZM6.42514 47.7514C6.54649 48.053 6.67906 48.349 6.82283 48.6406L7.66553 48.2251C7.53217 47.9546 7.40925 47.6801 7.2967 47.4003L6.42514 47.7514ZM13.2842 54.8613C13.579 54.9966 13.878 55.1214 14.1815 55.236L14.5123 54.3571C14.2292 54.2501 13.9508 54.134 13.6758 54.0078L13.2842 54.8613ZM15.1021 55.547C15.4129 55.64 15.7261 55.7219 16.0425 55.7935L16.2489 54.8775C15.9538 54.8107 15.6615 54.7343 15.3717 54.6475L15.1021 55.547ZM16.9976 55.9747C17.3177 56.0239 17.6395 56.0629 17.9622 56.0902L18.041 55.1546C17.7385 55.1278 17.44 55.0927 17.1399 55.0466L16.9976 55.9747ZM18.9317 56.1403C18.9897 56.1413 19.0476 56.1419 19.1055 56.1424L19.1936 56.1427L19.2816 56.1424L19.3695 56.1416L19.4572 56.1403L19.5449 56.1385L19.6324 56.1361L19.7197 56.1332L19.8069 56.1298L19.9049 56.1253L19.8538 55.1877L19.7673 55.1917L19.6857 55.1949L19.604 55.1976L19.5222 55.1998L19.4403 55.2015L19.3582 55.2028L19.2761 55.2035L19.1938 55.2037L19.1113 55.2035C19.0569 55.203 19.0025 55.2025 18.9481 55.2015L18.9317 56.1403ZM20.8723 56.0449L20.9278 56.0384L21.013 56.0278L21.098 56.0167L21.1828 56.0051L21.2675 55.993L21.352 55.9804L21.4363 55.9674L21.5205 55.9538L21.6045 55.9397L21.6884 55.9252L21.772 55.9101L21.8319 55.899L21.6572 54.9764L21.6029 54.9865L21.5247 55.0006L21.4465 55.0142L21.3681 55.0273L21.2895 55.04L21.2107 55.0522L21.1318 55.0639L21.0527 55.0752L20.9735 55.086L20.8941 55.0964L20.8146 55.1063L20.7591 55.1128L20.8723 56.0449ZM22.7818 55.6869L22.8429 55.671L22.9239 55.6493L23.0047 55.6271L23.0854 55.6044L23.1658 55.5814L23.246 55.5578L23.326 55.5338L23.4058 55.5093L23.4854 55.4844L23.5648 55.459L23.644 55.4332L23.7119 55.4106L23.4123 54.5207L23.3497 54.5415L23.2758 54.5656L23.2018 54.5893L23.1275 54.6125L23.053 54.6353L22.9784 54.6577L22.9036 54.6797L22.8285 54.7013L22.7533 54.7224L22.6779 54.743L22.6023 54.7633L22.5412 54.7793L22.7818 55.6869ZM24.623 55.0694L24.6529 55.0571L24.7288 55.0251L24.8046 54.9927L24.8801 54.9598L24.9553 54.9266L25.0304 54.8929L25.1051 54.8588L25.1796 54.8242L25.2539 54.7893L25.3279 54.7539L25.4017 54.7181L25.4752 54.6819L25.5079 54.6656L25.0851 53.827L25.0573 53.8409L24.9888 53.8747L24.92 53.908L24.851 53.941L24.7818 53.9736L24.7123 54.0058L24.6425 54.0376L24.5726 54.069L24.5025 54.1L24.4321 54.1306L24.3614 54.1609L24.2905 54.1907L24.2607 54.2031L24.623 55.0694ZM26.3623 54.2007L26.4068 54.1744L26.4766 54.1326L26.5461 54.0904L26.6152 54.0478L26.6842 54.0047L26.7528 53.9614L26.8211 53.9176L26.8892 53.8735L26.957 53.8289L27.0244 53.784L27.0916 53.7387L27.1585 53.6931L27.1818 53.6769L26.6447 52.9064L26.5637 52.962L26.5011 53.0041L26.4382 53.046L26.3751 53.0875L26.3117 53.1286L26.248 53.1694L26.1841 53.2098L26.1199 53.2499L26.0554 53.2896L25.9907 53.3289L25.9257 53.3679L25.8811 53.3942L26.3623 54.2007ZM27.962 53.0964L28.0002 53.0659L28.0627 53.0151L28.125 52.964L28.1869 52.9125L28.2485 52.8606L28.3097 52.8085L28.3707 52.756L28.4313 52.7031L28.4915 52.6499L28.5515 52.5963L28.6111 52.5424L28.6704 52.4882L28.699 52.4617L28.0581 51.7749L28.0336 51.7976L27.9785 51.8481L27.923 51.8982L27.8672 51.9481L27.8111 51.9976L27.7547 52.0468L27.698 52.0957L27.641 52.1443L27.5837 52.1925L27.526 52.2404L27.4681 52.2881L27.4099 52.3353L27.3717 52.3659L27.962 53.0964ZM29.3884 51.7754L29.4095 51.7529L29.4639 51.6941L29.5179 51.635L29.5715 51.5755L29.6248 51.5157L29.6778 51.4557L29.7303 51.3953L29.7825 51.3345L29.8343 51.2735L29.8858 51.2122L29.9368 51.1506L29.9875 51.0887L30.0263 51.0407L29.2935 50.4529L29.2583 50.4964L29.2112 50.554L29.1638 50.6112L29.1159 50.6682L29.0678 50.7249L29.0193 50.7813L28.9705 50.8374L28.9213 50.8932L28.8717 50.9488L28.8219 51.0041L28.7716 51.0591L28.7211 51.1138L28.7 51.1363L29.3884 51.7754ZM30.6086 50.2608L30.6565 50.191L30.7013 50.1247L30.7458 50.0582L30.7898 49.9914L30.8333 49.9243L30.8766 49.8569L30.9193 49.7893L30.9617 49.7214L31.0036 49.6532L31.0452 49.5848L31.0863 49.516L31.1329 49.4369L30.319 48.9676L30.2782 49.0367L30.2401 49.1004L30.2016 49.1639L30.1627 49.2271L30.1234 49.2901L30.0837 49.3529L30.0437 49.4153L30.0032 49.4776L29.9623 49.5396L29.9211 49.6013L29.8795 49.6629L29.8349 49.7279L30.6086 50.2608ZM31.5923 48.578L31.6169 48.5272L31.6515 48.4548L31.6857 48.3821L31.7194 48.3091L31.7527 48.2359L31.7855 48.1625L31.8179 48.0888L31.8498 48.0149L31.8813 47.9408L31.9123 47.8664L31.9428 47.7918L31.9729 47.717L31.9851 47.6861L31.1098 47.3445L31.0998 47.3698L31.0719 47.439L31.0437 47.5081L31.015 47.5769L30.9858 47.6456L30.9563 47.7141L30.9263 47.7822L30.8959 47.8502L30.8651 47.9181L30.8338 47.9857L30.8022 48.053L30.7701 48.1202L30.7455 48.1709L31.5923 48.578ZM32.3082 46.7663L32.321 46.7248L32.3444 46.647L32.3674 46.569L32.3898 46.4909L32.4118 46.4125L32.4332 46.3339L32.4542 46.2552L32.4746 46.1762L32.4946 46.0971L32.5141 46.0177L32.533 45.9382L32.5515 45.8585L32.5593 45.8238L31.6417 45.6212L31.6352 45.6499L31.6182 45.7236L31.6006 45.7972L31.5826 45.8706L31.5641 45.9438L31.5452 46.0169L31.5258 46.0898L31.506 46.1624L31.4857 46.2349L31.4649 46.3073L31.4437 46.3795L31.422 46.4514L31.4092 46.4929L32.3082 46.7663ZM32.7364 44.8644L32.7447 44.8062L32.7559 44.7241L32.7666 44.6419L32.7768 44.5594L32.7864 44.4768L32.7955 44.3941L32.804 44.3112L32.812 44.2281L32.8195 44.1449L32.8264 44.0616L32.8328 43.9781L32.8385 43.897L31.9008 43.8348L31.8955 43.9097L31.8896 43.987L31.8832 44.0641L31.8763 44.1412L31.8689 44.218L31.861 44.2948L31.8526 44.3714L31.8437 44.4478L31.8343 44.5241L31.8244 44.6002L31.814 44.6763L31.8057 44.7344L32.7364 44.8644ZM32.8659 42.9214L32.8655 42.8823L32.8642 42.798L32.8622 42.7139L32.8597 42.6299L32.8567 42.546L32.8531 42.4623L32.849 42.3786L32.8443 42.2951L32.839 42.2118L32.8332 42.1286L32.8269 42.0455L32.8186 41.9466L31.8829 42.0332L31.8901 42.1198L31.896 42.1967L31.9013 42.2737L31.9062 42.3509L31.9105 42.4281L31.9144 42.5056L31.9177 42.5831L31.9205 42.6608L31.9228 42.7386L31.9246 42.8165L31.9259 42.8945L31.9263 42.9337L32.8659 42.9214ZM32.6966 40.9816L32.6824 40.8977L32.6681 40.8169L32.6533 40.7363L32.638 40.6558L32.6222 40.5755L32.6059 40.4954L32.5891 40.4154L32.5718 40.3356L32.5539 40.256L32.5356 40.1766L32.5168 40.0973L32.4994 40.0263L31.5872 40.2521L31.6032 40.3173L31.6206 40.3906L31.6376 40.4641L31.6541 40.5378L31.6701 40.6116L31.6857 40.6855L31.7007 40.7596L31.7154 40.834L31.7295 40.9084L31.7432 40.983L31.7564 41.0578L31.7696 41.1355L32.6966 40.9816ZM32.2286 39.0895L32.2011 39.0075L32.175 38.9312L32.1483 38.855L32.1212 38.779L32.0936 38.7033L32.0656 38.6278L32.037 38.5524L32.008 38.4774L31.9786 38.4025L31.9486 38.3278L31.9182 38.2534L31.8853 38.1741L31.0208 38.5425L31.0207 38.542L31.0492 38.6108L31.0774 38.6797L31.1051 38.7488L31.1324 38.8182L31.1592 38.8877L31.1856 38.9574L31.2116 39.0273L31.2372 39.0974L31.2623 39.1677L31.2869 39.2382L31.3112 39.3089L31.3367 39.3852L32.2286 39.0895ZM31.474 37.291L31.4453 37.2352L31.4082 37.1643L31.3706 37.0936L31.3327 37.0232L31.2943 36.953L31.2554 36.883L31.2162 36.8133L31.1765 36.7439L31.1364 36.6747L31.0958 36.6057L31.0548 36.5371L31.0135 36.4687L30.9971 36.4419L30.1973 36.935L30.2107 36.9568L30.2491 37.0203L30.2871 37.0839L30.3247 37.1478L30.3619 37.212L30.3987 37.2764L30.4351 37.341L30.4711 37.4059L30.5067 37.471L30.5419 37.5363L30.5767 37.6018L30.6111 37.6675L30.6398 37.7233L31.474 37.291ZM30.458 35.6313L30.4383 35.6039L30.3912 35.5393L30.3437 35.4749L30.2959 35.4109L30.2476 35.3472L30.199 35.2838L30.15 35.2206L30.1006 35.1578L30.0508 35.0952L30.0006 35.033L29.9501 34.971L29.8992 34.9093L29.8606 34.8632L29.1412 35.4673L29.1761 35.5091L29.2235 35.5664L29.2704 35.624L29.317 35.6818L29.3633 35.7399L29.4092 35.7983L29.4547 35.857L29.4999 35.9159L29.5447 35.9751L29.5891 36.0345L29.6332 36.0942L29.6769 36.1542L29.6966 36.1817L30.458 35.6313ZM29.2086 34.1411L29.1474 34.0784L29.091 34.0213L29.0342 33.9647L28.9771 33.9084L28.9196 33.8523L28.8618 33.7967L28.8037 33.7413L28.7452 33.6863L28.6864 33.6316L28.6272 33.5773L28.5677 33.5233L28.5041 33.4664L27.8827 34.1707L27.8823 34.1703L27.938 34.2202L27.9933 34.2705L28.0484 34.3211L28.1031 34.3719L28.1576 34.4231L28.2117 34.4746L28.2654 34.5264L28.3189 34.5785L28.372 34.6309L28.4248 34.6836L28.4772 34.7366L28.5346 34.7953L29.2086 34.1411ZM27.7551 32.8459L27.6998 32.8036L27.6354 32.7548L27.5707 32.7064L27.5057 32.6584L27.4403 32.6107L27.3747 32.5634L27.3088 32.5165L27.2425 32.47L27.176 32.4238L27.1091 32.378L27.042 32.3325L26.9638 32.2804L26.4485 33.0656L26.5174 33.1116L26.58 33.1539L26.6422 33.1966L26.7042 33.2396L26.7659 33.2829L26.8273 33.3266L26.8885 33.3707L26.9493 33.4151L27.0099 33.4598L27.0701 33.5049L27.1301 33.5503L27.1854 33.5926L27.7551 32.8459ZM26.1344 31.7723L26.0713 31.7369L25.9999 31.6973L25.9282 31.6581L25.8562 31.6193L25.784 31.5809L25.7115 31.5429L25.6387 31.5053L25.5656 31.4681L25.4923 31.4314L25.4187 31.395L25.3449 31.3591L25.2738 31.325L24.8698 32.1728L24.9359 32.2044L25.0047 32.238L25.0733 32.2718L25.1417 32.3061L25.2097 32.3407L25.2776 32.3758L25.3452 32.4112L25.4126 32.447L25.4796 32.4831L25.5464 32.5197L25.6131 32.5566L25.6761 32.592L26.1344 31.7723ZM24.3812 30.9379L24.2848 30.9004L24.2073 30.8709L24.1296 30.8418L24.0516 30.8132L23.9733 30.7849L23.8949 30.7572L23.8162 30.7299L23.7373 30.703L23.6582 30.6766L23.5788 30.6506L23.4992 30.6251L23.4637 30.614L23.1846 31.5105L23.2148 31.5201L23.289 31.5438L23.363 31.5681L23.4369 31.5927L23.5105 31.6178L23.5838 31.6432L23.657 31.6691L23.73 31.6954L23.8027 31.7221L23.8752 31.7493L23.9475 31.7768L24.0387 31.8123L24.3812 30.9379ZM22.5284 30.355L22.4457 30.3355L22.3632 30.3165L22.2805 30.2979L22.1977 30.2799L22.1147 30.2623L22.0314 30.2453L21.948 30.2287L21.8644 30.2125L21.7806 30.1969L21.6967 30.1818L21.6125 30.1671L21.5745 30.1608L21.4217 31.0872L21.454 31.0926L21.5326 31.1063L21.611 31.1204L21.6892 31.135L21.7673 31.1501L21.8451 31.1656L21.9228 31.1815L22.0003 31.1979L22.0777 31.2148L22.1548 31.232L22.2318 31.2498L22.309 31.2681L22.5284 30.355ZM20.6124 30.0325L20.5029 30.022L20.4164 30.0144L20.3298 30.0073L20.243 30.0007L20.156 29.9946L20.0689 29.9891L19.9817 29.9841L19.8943 29.9796L19.8067 29.9756L19.7191 29.9721L19.6436 29.9696L19.615 30.9081L19.6848 30.9104L19.7668 30.9137L19.8486 30.9174L19.9303 30.9216L20.0119 30.9263L20.0934 30.9315L20.1746 30.9372L20.2557 30.9434L20.3368 30.95L20.4176 30.9571L20.5213 30.967L20.6124 30.0325ZM18.6727 29.9716L18.5773 29.9753L18.4902 29.9793L18.4032 29.9837L18.3164 29.9887L18.2298 29.9942L18.1433 30.0002L18.0569 30.0068L17.9706 30.0138L17.8845 30.0214L17.7986 30.0294L17.7015 30.0392L17.8034 30.9726L17.8893 30.964L17.9696 30.9565L18.05 30.9494L18.1306 30.9428L18.2113 30.9367L18.2922 30.9311L18.3732 30.926L18.4543 30.9213L18.5356 30.9171L18.617 30.9134L18.7067 30.91L18.6727 29.9716ZM16.74 30.1723L16.6959 30.18L16.6122 30.195L16.5287 30.2105L16.4454 30.2265L16.3623 30.243L16.2793 30.26L16.1966 30.2774L16.114 30.2954L16.0316 30.3138L15.9494 30.3327L15.8674 30.352L15.7899 30.3708L16.0142 31.2826L16.0862 31.2652L16.1627 31.2471L16.2394 31.2295L16.3164 31.2123L16.3934 31.1956L16.4707 31.1793L16.5481 31.1634L16.6257 31.148L16.7035 31.1331L16.7814 31.1186L16.8594 31.1046L16.9035 31.0969L16.74 30.1723ZM14.8534 30.6352L14.8194 30.6461L14.7402 30.6719L14.6613 30.6982L14.5826 30.7249L14.504 30.7521L14.4258 30.7797L14.3477 30.8078L14.2698 30.8363L14.1922 30.8652L14.1149 30.8946L14.0377 30.9244L13.9377 30.9639L14.2897 31.8345L14.3793 31.7991L14.4512 31.7713L14.5234 31.7439L14.5958 31.7169L14.6684 31.6903L14.7412 31.6642L14.8143 31.6384L14.8875 31.613L14.9609 31.5881L15.0346 31.5636L15.1084 31.5395L15.1424 31.5286L14.8534 30.6352ZM13.0473 31.3556L12.9825 31.387L12.909 31.4232L12.8357 31.4598L12.7627 31.4968L12.69 31.5342L12.6175 31.5721L12.5454 31.6103L12.4734 31.649L12.4017 31.688L12.3303 31.7275L12.2592 31.7673L12.189 31.8072L12.6558 32.6221L12.7212 32.585L12.7875 32.5478L12.854 32.5111L12.9208 32.4747L12.9879 32.4386L13.0552 32.403L13.1228 32.3677L13.1906 32.3328L13.2586 32.2983L13.3269 32.2642L13.3954 32.2304L13.4602 32.199L13.0473 31.3556ZM11.3623 32.3195L11.2926 32.3664L11.2257 32.4121L11.1592 32.4581L11.0929 32.5045L11.0269 32.5513L10.9612 32.5984L10.8959 32.646L10.8308 32.6939L10.766 32.7421L10.7016 32.7907L10.6375 32.8397L10.5739 32.8889L11.1511 33.6298L11.2103 33.584L11.2701 33.5384L11.3301 33.4931L11.3904 33.4482L11.451 33.4036L11.5119 33.3593L11.5731 33.3154L11.6345 33.2718L11.6962 33.2286L11.7583 33.1857L11.8205 33.1432L11.8856 33.0994L11.3623 32.3195ZM9.82593 33.515L9.77314 33.5627L9.71384 33.6169L9.65492 33.6715L9.59633 33.7264L9.53809 33.7817L9.48015 33.8372L9.42261 33.8932L9.36541 33.9494L9.30851 34.006L9.252 34.0629L9.19584 34.1201L9.12686 34.1914L9.80753 34.8388L9.86873 34.7755L9.92097 34.7223L9.97354 34.6694L10.0264 34.6168L10.0796 34.5645L10.1332 34.5124L10.187 34.4608L10.2412 34.4094L10.2958 34.3583L10.3506 34.3075L10.4057 34.257L10.4585 34.2093L9.82593 33.515ZM8.47854 34.9169L8.44738 34.9545L8.39672 35.0164L8.34641 35.0786L8.29648 35.1411L8.24695 35.2039L8.19778 35.2671L8.149 35.3305L8.10062 35.3942L8.05264 35.4582L8.00503 35.5224L7.95782 35.587L7.91098 35.6519L7.88506 35.6883L8.65225 36.2305L8.67482 36.1988L8.71827 36.1386L8.76212 36.0787L8.80632 36.019L8.8509 35.9596L8.89584 35.9004L8.94113 35.8415L8.98677 35.7829L9.03281 35.7246L9.07918 35.6665L9.12593 35.6087L9.17302 35.5511L9.20418 35.5135L8.47854 34.9169ZM7.35032 36.5018L7.29793 36.5891L7.25724 36.658L7.21696 36.7273L7.17713 36.7968L7.13771 36.8665L7.09871 36.9365L7.06015 37.0068L7.02201 37.0773L6.98433 37.148L6.94706 37.2191L6.91021 37.2904L6.87802 37.3536L7.71701 37.7765L7.74657 37.7185L7.78067 37.6525L7.81521 37.5867L7.85017 37.5211L7.88552 37.4557L7.92127 37.3905L7.95741 37.3257L7.99396 37.261L8.0309 37.1966L8.06825 37.1324L8.10598 37.0684L8.15536 36.9861L7.35032 36.5018ZM6.47058 38.242L6.4414 38.3133L6.41132 38.3881L6.38169 38.4632L6.35256 38.5384L6.32389 38.6138L6.29569 38.6895L6.26794 38.7654L6.24065 38.8416L6.21388 38.9179L6.18758 38.9944L6.16173 39.0712L6.13358 39.1568L7.029 39.4417L7.05339 39.3677L7.07729 39.2966L7.10167 39.2258L7.12646 39.1551L7.15168 39.0847L7.17736 39.0144L7.20347 38.9443L7.23003 38.8745L7.25703 38.8048L7.28442 38.7353L7.31227 38.6661L7.34145 38.5948L6.47058 38.242ZM5.86829 40.0953L5.85122 40.1669L5.83275 40.2466L5.81481 40.3265L5.79737 40.4066L5.78043 40.4868L5.76401 40.5673L5.74812 40.6479L5.73272 40.7286L5.71783 40.8096L5.70349 40.8907L5.68964 40.972L5.67707 41.0489L6.60501 41.1971L6.61657 41.1264L6.62938 41.0512L6.64267 40.9761L6.65642 40.9013L6.67067 40.8265L6.68539 40.7519L6.70059 40.6775L6.71624 40.6033L6.73239 40.5292L6.74899 40.4552L6.76607 40.3815L6.78313 40.3099L5.86829 40.0953ZM5.55996 42.0176L5.55781 42.0435L5.55143 42.127L5.54559 42.2107L5.54031 42.2944L5.53556 42.3783L5.53137 42.4624L5.52774 42.5466L5.52465 42.6309L5.52211 42.7153L5.52014 42.7999C5.51908 42.8636 5.51812 42.9272 5.51774 42.9908L6.45747 42.9947C6.45773 42.936 6.45869 42.8774 6.45968 42.8187L6.46151 42.7404L6.46386 42.6621L6.46672 42.584L6.47009 42.506L6.47397 42.4282L6.47837 42.3504L6.48325 42.2729L6.48867 42.1954L6.49458 42.1181L6.49673 42.0922L5.55996 42.0176ZM5.55018 43.9653C5.57353 44.2893 5.60919 44.6127 5.65766 44.934L6.58686 44.7939C6.54212 44.4961 6.50903 44.197 6.48739 43.8967L5.55018 43.9653ZM5.84016 45.8922C5.91343 46.2091 5.99901 46.5225 6.09651 46.8328L6.99287 46.5509C6.90257 46.2637 6.82342 45.9734 6.7556 45.6801L5.84016 45.8922ZM25.5138 42.5611C25.3554 42.5928 25.2013 42.4901 25.1696 42.3319C25.1379 42.1736 25.2407 42.0197 25.399 41.988C25.9364 41.8792 26.4954 41.8915 27.0274 42.0275C27.5421 42.159 28.0336 42.4061 28.4582 42.7708C28.4986 42.8055 28.5372 42.8401 28.5738 42.8745C29.2222 43.4832 29.5738 44.2806 29.619 45.0942C29.6642 45.9081 29.4028 46.7369 28.8251 47.4084C28.7912 47.4478 28.757 47.4858 28.7226 47.5224C28.0769 48.2091 27.202 48.5806 26.3096 48.626C25.4177 48.6715 24.5073 48.3914 23.7898 47.775C23.6669 47.6699 23.6525 47.4852 23.7577 47.3624C23.8628 47.2396 24.0477 47.2252 24.1706 47.3303C24.7704 47.8455 25.5325 48.0796 26.2798 48.0415C27.0265 48.0034 27.7576 47.6937 28.2958 47.1213C28.3255 47.0897 28.3536 47.0585 28.38 47.0278C28.8557 46.475 29.0711 45.7939 29.034 45.1263C28.9969 44.4585 28.707 43.8029 28.1723 43.3009C28.1406 43.2711 28.1089 43.2426 28.0773 43.2155C27.724 42.912 27.3137 42.7061 26.8829 42.596C26.4331 42.481 25.9631 42.4701 25.5138 42.5611ZM11.8367 50.2177C11.8243 50.2069 11.8125 50.1954 11.8013 50.1833C11.7884 50.1714 11.7764 50.1605 11.7652 50.1509C11.5067 49.9289 11.1774 49.828 10.8542 49.8445C10.5318 49.8609 10.2168 49.9939 9.98566 50.2397C9.97232 50.2539 9.96053 50.2669 9.95036 50.2787C9.74987 50.5118 9.65903 50.7978 9.67459 51.0775C9.69015 51.3576 9.81254 51.6333 10.0384 51.8454C10.0527 51.8588 10.066 51.8708 10.0783 51.8813C10.3368 52.1034 10.6661 52.2043 10.9893 52.1878C11.3117 52.1714 11.6267 52.0383 11.8578 51.7926C11.8712 51.7784 11.8829 51.7654 11.8931 51.7535C12.0936 51.5205 12.1844 51.2345 12.1689 50.9547C12.1541 50.688 12.0424 50.4252 11.8367 50.2177ZM12.2431 49.3349L16.7607 47.787L12.2526 43.9156C11.9281 44.0453 11.5845 44.1194 11.2379 44.137C10.4594 44.1767 9.66451 43.932 9.03766 43.3935C9.00154 43.3625 8.96764 43.3321 8.93597 43.3023C8.36667 42.7679 8.05789 42.067 8.01813 41.3513C7.97834 40.6353 8.208 39.9066 8.71553 39.3167C8.74589 39.2815 8.77597 39.2479 8.8057 39.2163C9.37036 38.6158 10.1347 38.291 10.914 38.2513C11.6924 38.2116 12.4874 38.4564 13.1142 38.9948C13.1503 39.0258 13.1842 39.0562 13.2159 39.086C13.7852 39.6204 14.094 40.3213 14.1338 41.037C14.1467 41.2704 14.131 41.5052 14.0864 41.7361L16.8899 42.7113C16.9626 42.5918 17.046 42.4764 17.1406 42.3665C17.1674 42.3354 17.1938 42.306 17.2197 42.2784C17.7143 41.7524 18.3838 41.4678 19.0661 41.4331C19.2506 41.4237 19.4362 41.4326 19.6196 41.4598L20.9963 37.5889C20.7777 37.4874 20.57 37.3554 20.3801 37.1922C20.3485 37.1651 20.319 37.1386 20.2916 37.1129C19.7961 36.6477 19.5273 36.0375 19.4927 35.4143C19.4581 34.7908 19.6579 34.1562 20.0997 33.6427C20.1263 33.6118 20.1525 33.5827 20.1783 33.5553C20.669 33.0334 21.3332 32.7511 22.0102 32.7166C22.6864 32.6821 23.3769 32.8948 23.9216 33.3626C23.9532 33.3898 23.9827 33.4162 24.0101 33.442C24.5056 33.9071 24.7743 34.5174 24.809 35.1406C24.8436 35.7641 24.6437 36.3987 24.2019 36.9121C24.1753 36.943 24.1491 36.9722 24.1234 36.9996C23.8828 37.2555 23.6004 37.4537 23.2954 37.5934L24.6829 43.683C25.0151 43.4169 25.4199 43.2716 25.8309 43.2507C26.3284 43.2254 26.8367 43.3819 27.2377 43.7265C27.2614 43.7469 27.2833 43.7664 27.3033 43.7852C27.6698 44.1293 27.8686 44.5811 27.8943 45.0428C27.9199 45.5049 27.772 45.9749 27.445 46.3549C27.425 46.3781 27.4056 46.3998 27.3869 46.4197C27.0252 46.8044 26.536 47.0124 26.0377 47.0378C25.5403 47.0632 25.032 46.9066 24.631 46.5621C24.6072 46.5417 24.5854 46.5221 24.5654 46.5034C24.4642 46.4084 24.3758 46.3052 24.3003 46.1958L20.7759 47.4034L21.7373 49.2521C22.2475 49.263 22.7569 49.4422 23.1672 49.7947C23.1939 49.8177 23.2187 49.8398 23.2415 49.8612C23.6568 50.2511 23.8821 50.7629 23.9111 51.2857C23.9402 51.8088 23.7726 52.3411 23.4022 52.7715C23.3797 52.7977 23.3577 52.8222 23.3363 52.8449C22.9258 53.2815 22.3705 53.5176 21.8045 53.5465C21.2395 53.5753 20.6623 53.3975 20.2069 53.0063C20.1802 52.9834 20.1554 52.9612 20.1326 52.9398C19.7174 52.5499 19.4921 52.0381 19.463 51.5153C19.4408 51.1154 19.5336 50.7101 19.744 50.349L17.5864 48.4961L12.8939 50.1039C13.019 50.3561 13.0897 50.6282 13.105 50.9034C13.1335 51.417 12.969 51.9397 12.6053 52.3624C12.5832 52.3881 12.5616 52.4121 12.5406 52.4345C12.1376 52.863 11.5925 53.0948 11.037 53.1231C10.4824 53.1514 9.91587 52.9769 9.4689 52.5929C9.44265 52.5703 9.41832 52.5485 9.396 52.5276C8.98825 52.1448 8.76704 51.6423 8.73852 51.1289C8.70996 50.6152 8.8745 50.0926 9.23821 49.6699C9.26033 49.6442 9.28191 49.6201 9.30287 49.5978C9.70589 49.1693 10.251 48.9375 10.8064 48.9092C11.308 48.8836 11.8193 49.0239 12.2431 49.3349ZM17.7886 47.4349L19.4398 46.8692L19.2982 46.5969C18.6332 46.6186 17.9583 46.4034 17.4231 45.9437C17.3912 45.9163 17.3615 45.8896 17.3339 45.8637C16.8345 45.3949 16.5637 44.7799 16.5288 44.1519C16.5183 43.9638 16.5291 43.7747 16.5612 43.5882L13.7603 42.6139C13.669 42.7733 13.5611 42.9267 13.4363 43.0717C13.406 43.1069 13.3759 43.1404 13.3462 43.172C13.2674 43.2558 13.1847 43.3343 13.0986 43.4073L17.7886 47.4349ZM20.3381 46.5614L23.9794 45.3138C23.9776 45.2941 23.9761 45.2743 23.9749 45.2546L21.7273 44.9047C21.625 45.1734 21.4746 45.4296 21.2752 45.6614C21.2484 45.6925 21.222 45.7219 21.196 45.7495C20.9249 46.0378 20.6013 46.2536 20.2518 46.3955L20.3381 46.5614ZM19.8776 47.7111L18.6143 48.144L20.3798 49.6601C20.5051 49.5723 20.638 49.4986 20.7761 49.4389L19.8776 47.7111ZM24.9588 45.4398C24.963 45.4497 24.9669 45.4599 24.9704 45.4702L24.9733 45.4789C25.023 45.604 25.1013 45.7212 25.2078 45.8211C25.2197 45.8323 25.2306 45.8421 25.2403 45.8505C25.4529 46.0331 25.7239 46.1161 25.99 46.1025C26.2553 46.089 26.5143 45.9797 26.7041 45.7778C26.7152 45.766 26.7248 45.7554 26.7329 45.746C26.8967 45.5557 26.9709 45.3223 26.9582 45.0942C26.9455 44.8658 26.8455 44.6407 26.6609 44.4674C26.649 44.4562 26.6381 44.4464 26.6283 44.438C26.4157 44.2554 26.1448 44.1724 25.8787 44.186C25.6134 44.1995 25.3544 44.3088 25.1645 44.5107C25.1534 44.5225 25.1438 44.5331 25.1358 44.5425C24.972 44.7328 24.8978 44.9662 24.9104 45.1943C24.9151 45.2774 24.9312 45.36 24.9588 45.4398ZM21.5434 50.1956C21.5258 50.1988 21.5082 50.201 21.4905 50.2022C21.2029 50.2437 20.9288 50.3765 20.7206 50.598C20.7068 50.6126 20.6946 50.6261 20.6841 50.6383C20.4769 50.8791 20.383 51.1748 20.3991 51.464C20.4152 51.7535 20.5416 52.0385 20.775 52.2576C20.7898 52.2714 20.8035 52.2838 20.8163 52.2948C21.0832 52.5241 21.4231 52.6282 21.7568 52.6112C22.0897 52.5942 22.4149 52.4568 22.6535 52.2031C22.6673 52.1884 22.6795 52.175 22.69 52.1627C22.8972 51.9219 22.9911 51.6262 22.975 51.337C22.959 51.0475 22.8325 50.7625 22.5991 50.5434C22.5844 50.5296 22.5706 50.5172 22.5579 50.5063C22.2909 50.277 21.951 50.1728 21.6173 50.1898C21.5926 50.1911 21.568 50.193 21.5434 50.1956ZM12.5735 39.7682C12.5499 39.746 12.527 39.7254 12.5049 39.7064C12.0665 39.3298 11.5088 39.1587 10.9617 39.1866C10.4155 39.2144 9.88124 39.4405 9.48848 39.8582C9.4664 39.8817 9.44611 39.9042 9.42768 39.9256C9.08334 40.3257 8.92741 40.8179 8.95419 41.3C8.98099 41.7823 9.19097 42.2564 9.57837 42.6201C9.602 42.6423 9.62492 42.6629 9.64703 42.6819C10.0854 43.0585 10.6431 43.2296 11.1902 43.2017C11.7364 43.1739 12.2707 42.9479 12.6634 42.5302C12.6855 42.5067 12.7058 42.4842 12.7242 42.4628C13.0686 42.0626 13.2245 41.5704 13.1977 41.0884C13.1709 40.606 12.9609 40.1319 12.5735 39.7682ZM20.9926 42.0842C21.0245 42.1116 21.0542 42.1383 21.0819 42.1642C21.5812 42.633 21.8521 43.248 21.8869 43.876C21.8889 43.9118 21.8901 43.9477 21.8906 43.9835L23.8604 44.2902L22.3888 37.8316C22.3564 37.8344 22.3239 37.8366 22.2914 37.8383C22.161 37.8449 22.0301 37.8423 21.8997 37.8305C21.8953 37.854 21.8891 37.8775 21.8809 37.9007L20.5105 41.7539C20.6801 41.8447 20.8419 41.9548 20.9926 42.0842ZM20.4395 42.8464C20.4199 42.828 20.4011 42.8111 20.3833 42.7958C20.205 42.6427 20.0027 42.5309 19.7893 42.4597C19.7814 42.4574 19.7735 42.4549 19.7656 42.4521L19.7639 42.4515C19.5534 42.3847 19.3326 42.3572 19.1138 42.3684C18.6645 42.3912 18.2252 42.5771 17.9025 42.9203C17.8842 42.9397 17.8676 42.9581 17.8527 42.9754C17.5707 43.3032 17.4429 43.7061 17.4648 44.1005C17.4868 44.4952 17.6588 44.8835 17.9763 45.1815C17.9959 45.1999 18.0146 45.2168 18.0325 45.2321C18.393 45.5418 18.8517 45.6825 19.3019 45.6596C19.7512 45.6367 20.1905 45.4509 20.5133 45.1076C20.5316 45.0882 20.5482 45.0698 20.563 45.0525C20.8451 44.7247 20.9728 44.3218 20.9509 43.9274C20.929 43.5327 20.7569 43.1444 20.4395 42.8464ZM23.3677 34.1242C23.3483 34.106 23.3298 34.0893 23.3122 34.0742C22.956 33.7682 22.5027 33.6292 22.0579 33.6519C21.614 33.6745 21.1799 33.858 20.861 34.1972C20.8429 34.2164 20.8266 34.2346 20.8119 34.2516C20.5333 34.5754 20.4071 34.9734 20.4288 35.3629C20.4504 35.7528 20.6204 36.1363 20.934 36.4307C20.9533 36.4488 20.9718 36.4655 20.9895 36.4807C21.3457 36.7867 21.7989 36.9257 22.2437 36.903C22.6877 36.8804 23.1217 36.6968 23.4406 36.3577C23.4587 36.3385 23.4751 36.3203 23.4898 36.3033C23.7684 35.9795 23.8945 35.5815 23.8729 35.1919C23.8512 34.8021 23.6813 34.4186 23.3677 34.1242ZM19.8889 11.3885L29.9317 14.6018C30.5479 14.3333 31.1411 14.0703 31.7072 13.8124L21.841 10.6856C21.7879 10.6689 21.7399 10.6435 21.6979 10.6116C21.0918 10.8684 20.4878 11.1275 19.8889 11.3885ZM22.9949 10.0668L32.9641 13.2262C33.4954 12.9717 33.9954 12.7225 34.4597 12.4783C34.8877 12.2533 35.1797 11.97 35.3211 11.6927C35.3872 11.5629 35.4164 11.442 35.4059 11.3396C35.3979 11.2605 35.3612 11.1864 35.2941 11.1241C35.2715 11.1032 35.2458 11.0833 35.2169 11.0647C35.048 10.9992 34.8667 10.9442 34.6727 10.9011C34.6527 10.8981 34.6331 10.8938 34.614 10.8884C34.1414 10.7903 33.5959 10.7611 32.9761 10.8182C32.7186 10.8414 32.491 10.6518 32.4677 10.3945C32.4444 10.1373 32.6342 9.90982 32.8916 9.88653C33.6072 9.82067 34.246 9.85618 34.8083 9.97316C35.1367 10.0128 35.4112 10.1 35.6332 10.223C35.8925 10.3293 36.1297 10.4561 36.3445 10.6003C36.9915 11.0348 37.4352 11.624 37.6783 12.2883C37.9186 12.9451 37.9603 13.6715 37.8061 14.3896C37.5882 15.4047 36.9785 16.4066 35.9854 17.1673C34.0613 18.6412 30.1363 20.2729 25.703 22.1159C20.7391 24.1795 15.1306 26.5112 11.0935 29.1321L11.3728 29.2747C11.8903 29.5384 12.3242 29.7582 12.7268 29.9612C12.9579 30.0777 13.0508 30.3593 12.9342 30.5902C12.8176 30.8211 12.5358 30.9139 12.3047 30.7975C11.6947 30.4899 11.2177 30.2489 10.947 30.1109C10.6832 29.9764 10.4365 29.8497 10.2073 29.7304C9.65936 30.1159 9.14737 30.5074 8.67896 30.9051C7.68663 31.7477 6.65113 32.7273 6.09592 33.7988C5.57837 34.7977 5.48419 35.9034 6.27829 37.0937C6.42121 37.3095 6.36204 37.6001 6.14614 37.7429C5.93024 37.8857 5.63933 37.8266 5.49641 37.6109C4.47467 36.0793 4.5962 34.656 5.26264 33.3697C5.89144 32.1561 7.00827 31.0942 8.07328 30.1899C8.62611 29.7205 9.2354 29.2605 9.89034 28.8094C9.90039 28.8018 9.91073 28.7947 9.92131 28.788C14.0769 25.934 20.0701 23.4424 25.3432 21.2503C29.7171 19.4321 33.5895 17.8222 35.4164 16.4228C36.2225 15.8053 36.7151 15.0025 36.8884 14.1952C37.0063 13.6465 36.9766 13.0975 36.7973 12.6074C36.6866 12.305 36.5181 12.0236 36.291 11.7773C36.2599 11.8914 36.2154 12.0055 36.158 12.1181C35.9347 12.5564 35.5051 12.9872 34.8965 13.3072C32.5334 14.5499 29.3344 15.8929 25.784 17.3833C22.6643 18.6929 19.2734 20.1164 15.9904 21.6611C11.8341 23.6166 7.7398 25.8215 4.86919 28.4142C2.07135 30.9413 0.43791 33.8425 1.07865 37.2498C1.25402 38.1824 1.8138 39.2998 2.53857 40.4358C3.27678 41.5929 4.18989 42.77 5.04936 43.7971C5.2156 43.9956 5.1893 44.2912 4.99062 44.4573C4.79195 44.6234 4.49612 44.5972 4.32988 44.3986C3.45501 43.3531 2.51964 42.1457 1.74934 40.9383C0.965568 39.7098 0.356659 38.4825 0.157272 37.4222C-0.494536 33.9561 0.929752 30.9998 3.50253 28.4233C1.59407 26.5087 0.511538 24.444 0.283184 22.1818C0.0432128 19.8044 0.753965 17.2348 2.44828 14.4186C4.41543 11.1488 7.24097 8.44657 10.4539 6.17739C13.6459 3.92305 17.2232 2.09503 20.7178 0.562466C21.2127 0.345404 21.6618 0.191053 22.1361 0.0991649C22.6123 0.00690141 23.1069 -0.0209971 23.6895 0.0155397C25.7511 0.144856 30.1529 1.71674 33.1417 2.78401C34.6944 3.33849 35.7659 3.77717 35.8023 3.76215C36.3675 3.53768 36.7248 4.36592 36.1712 4.62223C34.036 5.5813 31.3932 6.64912 28.5502 7.79784C26.7514 8.52462 24.8721 9.284 22.9949 10.0668ZM12.9416 14.7073C12.9344 14.705 12.9273 14.7026 12.9203 14.7C12.3808 14.9875 11.8596 15.2758 11.3607 15.5644L20.7025 18.5182C21.315 18.2535 21.9234 17.9934 22.5257 17.7377L12.9416 14.7073ZM19.3932 19.0885L10.2855 16.2087C9.4017 16.7584 8.60633 17.3085 7.92232 17.8563C7.57891 18.1313 7.24563 18.4191 6.92623 18.7176C6.91732 18.7266 6.90795 18.7354 6.89819 18.7438C6.75902 18.8745 6.62252 19.0072 6.48905 19.1419C5.80407 19.9173 5.4347 20.9715 5.42827 22.1091C5.42144 23.3172 5.82201 24.6166 6.68494 25.7827C9.30046 23.9341 12.4305 22.3005 15.5903 20.8138C16.8579 20.2174 18.1312 19.643 19.3932 19.0885ZM5.92883 26.3344C4.94222 24.9991 4.48431 23.5027 4.4922 22.1055C4.49299 21.9663 4.49849 21.8282 4.50841 21.6913C4.21318 22.2079 3.97432 22.7366 3.80465 23.2716C3.34032 24.7357 3.40146 26.2547 4.26019 27.7043C4.78119 27.2348 5.33955 26.7785 5.92883 26.3344ZM5.79021 18.5166C5.94352 18.3435 6.10976 18.1812 6.28857 18.0314C6.62465 17.7172 6.97471 17.4149 7.33499 17.1264C11.7874 13.5606 20.6908 9.96321 28.2014 6.92859C30.5316 5.98709 32.7271 5.09999 34.6032 4.28955C34.0982 4.12224 33.496 3.90719 32.826 3.66793C29.8856 2.61795 25.5551 1.07154 23.6307 0.950827C23.1308 0.919466 22.7112 0.942505 22.3123 1.01978C21.9115 1.09743 21.5243 1.23124 21.0922 1.42074C17.651 2.9299 14.1303 4.72862 10.9936 6.94395C7.87778 9.14448 5.14374 11.755 3.2522 14.8991C1.66489 17.5375 0.996274 19.9174 1.21558 22.0901C1.3508 23.4296 1.82675 24.7004 2.63582 25.9141C2.49384 24.9351 2.60376 23.9515 2.90897 22.9891C3.41557 21.3918 4.46683 19.8602 5.79021 18.5166ZM31.2337 54.2952C31.0597 54.1537 30.9015 54.0274 30.7372 53.9009C30.471 53.6958 30.1941 53.4949 29.8113 53.2307C29.5985 53.0839 29.5451 52.7924 29.692 52.5797C29.839 52.367 30.1307 52.3136 30.3436 52.4605C30.742 52.7355 31.0311 52.9452 31.3098 53.16C31.5194 53.3214 31.7265 53.4886 31.9745 53.692C32.8626 52.9365 33.602 52.1809 34.2005 51.434C34.2043 51.429 34.2082 51.4241 34.2122 51.4193C34.2892 51.323 34.3639 51.2267 34.4362 51.1307C34.6401 50.751 34.6473 50.2068 34.5079 49.6079C34.2978 48.7049 33.7599 47.7125 33.0402 46.9273C32.8659 46.7369 32.879 46.4413 33.0696 46.2671C33.2602 46.0929 33.556 46.106 33.7303 46.2964C34.5572 47.1986 35.1773 48.3474 35.4219 49.3988C35.4307 49.4364 35.4389 49.4738 35.4467 49.5112C35.6126 49.176 35.75 48.8442 35.8594 48.5168C36.406 46.88 36.2472 45.3472 35.481 44.0346C35.3195 43.7578 35.1295 43.4889 34.9122 43.229C34.8797 43.1901 34.8426 43.1494 34.801 43.1069C34.7597 43.0665 34.7179 43.0262 34.6756 42.986L34.6658 42.9764C34.6047 42.9204 34.5372 42.8618 34.4637 42.8008C34.2565 42.629 34.0031 42.439 33.7094 42.2333C33.4976 42.0855 33.4458 41.794 33.5938 41.5823C33.7418 41.3706 34.0335 41.3189 34.2454 41.4668C34.5597 41.6869 34.8339 41.8927 35.062 42.0819C35.1474 42.1527 35.2265 42.2212 35.299 42.2873C35.3067 42.2938 35.3143 42.3005 35.3216 42.3075L35.3415 42.3264C35.3824 42.3645 35.4211 42.4018 35.4574 42.4383C37.0845 44.0273 38.016 45.7714 38.512 47.4216C39.2683 49.9379 39.0061 52.2455 38.6556 53.4483C38.066 55.4715 36.6105 57.212 34.7998 58.6893C33.0254 60.1371 30.9054 61.3347 28.9386 62.2952C25.6243 63.9137 21.6583 65.256 17.8128 66.3265C11.643 68.0442 5.77592 69.066 3.42108 69.4042C3.16463 69.4407 2.92713 69.2625 2.89065 69.0063C2.85978 68.7895 2.98269 68.5863 3.17661 68.5067C4.66074 67.7657 7.04677 66.6653 9.83587 65.379C15.5777 62.731 23.0215 59.2979 27.4668 56.7727C27.1736 56.558 26.9114 56.3845 26.3233 56.032C26.1013 55.8993 26.029 55.612 26.1618 55.3901C26.2946 55.1683 26.5822 55.0961 26.8042 55.2288C27.643 55.7315 27.8568 55.89 28.3475 56.26C29.4265 55.6125 30.3869 54.9556 31.2337 54.2952ZM37.6127 47.6894C37.4825 47.2561 37.3194 46.8158 37.1179 46.3735C37.148 47.1574 37.0279 47.9748 36.7477 48.8139C36.4401 49.7349 35.9379 50.681 35.2279 51.6356C35.1438 51.78 35.0416 51.9132 34.9206 52.0331C34.2507 52.8678 33.4212 53.7072 32.4231 54.5403C31.3091 55.4702 29.9818 56.3954 28.4283 57.3006C24.0178 59.8706 16.2039 63.4742 10.2286 66.2299C8.88387 66.8501 7.63205 67.4274 6.53706 67.9383C9.41768 67.4138 13.4226 66.577 17.5631 65.4243C21.3635 64.3663 25.2749 63.0437 28.5274 61.4553C30.439 60.5218 32.4961 59.3605 34.2088 57.9631C35.8852 56.5953 37.2269 55.0042 37.7562 53.1879C38.0734 52.0996 38.3077 50.0018 37.6127 47.6894Z" fill="white"/>
</svg>
