<svg width="63" height="66" viewBox="0 0 63 66" fill="none" xmlns="http://www.w3.org/2000/svg">
<path d="M48.5832 7.33341C49.0894 7.33341 49.4998 6.5126 49.4998 5.50008C49.4998 4.48756 49.0894 3.66675 48.5832 3.66675C48.0769 3.66675 47.6665 4.48756 47.6665 5.50008C47.6665 6.5126 48.0769 7.33341 48.5832 7.33341Z" fill="white"/>
<path d="M52.2502 7.33341C52.7564 7.33341 53.1668 6.5126 53.1668 5.50008C53.1668 4.48756 52.7564 3.66675 52.2502 3.66675C51.7439 3.66675 51.3335 4.48756 51.3335 5.50008C51.3335 6.5126 51.7439 7.33341 52.2502 7.33341Z" fill="white"/>
<path d="M57.7502 7.33341C58.2564 7.33341 58.6668 6.5126 58.6668 5.50008C58.6668 4.48756 58.2564 3.66675 57.7502 3.66675C57.2439 3.66675 56.8335 4.48756 56.8335 5.50008C56.8335 6.5126 57.2439 7.33341 57.7502 7.33341Z" fill="white"/>
<path d="M3.6665 0V18.15C4.34343 17.49 5.13317 16.94 5.92291 16.39V11H60.0768V63.8H5.92291V47.52C5.13317 46.97 4.34343 46.42 3.6665 45.76V66H62.3332V0H3.6665ZM5.92291 8.8V2.2H60.0768V8.8H5.92291Z" fill="white"/>
<path d="M47.6667 31.9583C47.6667 21.3833 36.9417 12.8333 23.8333 12.8333C10.725 12.8333 0 21.3833 0 31.9583C0 39.7208 5.63333 46.4707 14.4083 49.5083C16.7917 61.9958 30.225 62.3333 30.3333 62.3333H32.3917L31.2 60.5333C29.3583 57.6083 28.925 53.6707 28.925 50.6333C39.8667 48.7207 47.6667 40.9583 47.6667 31.9583ZM27.625 48.6082L26.7583 48.7208V49.6208C26.65 52.5458 26.8667 56.4832 28.3833 59.8582C24.9167 59.2957 17.7667 57.0458 16.4667 48.4958L16.3583 47.8208L15.7083 47.5958C7.475 45.0083 2.16667 38.8208 2.16667 31.9583C2.16667 22.6208 11.9167 15.0833 23.8333 15.0833C35.75 15.0833 45.5 22.6208 45.5 31.9583C45.5 40.0583 38.025 47.0333 27.625 48.6082Z" fill="white"/>
<path d="M14.5544 26.2456V27.7316C14.5544 28.4746 14.2738 29.1114 13.7126 29.536L11 31.5526L13.7126 33.5693C14.2738 33.9939 14.5544 34.6307 14.5544 35.3737V37.9211C14.5544 40.2561 16.2381 42.1667 18.2959 42.1667H20.1667V40.0439H18.2959C17.267 40.0439 16.4252 39.0886 16.4252 37.9211V35.3737C16.4252 33.9939 15.7704 32.614 14.7415 31.8711L14.3673 31.5526L14.7415 31.2342C15.7704 30.4912 16.4252 29.1114 16.4252 27.7316V26.2456C16.4252 25.0781 17.267 24.1228 18.2959 24.1228H20.1667V22H18.2959C16.2381 22 14.5544 23.9105 14.5544 26.2456Z" fill="white"/>
<path d="M34.2347 27.7316V26.2456C34.2347 23.9105 32.2143 22 29.7449 22H27.5V24.1228H29.7449C30.9796 24.1228 31.9898 25.0781 31.9898 26.2456V27.7316C31.9898 29.1114 32.7755 30.4912 34.0102 31.2342L34.4592 31.5526L34.0102 31.8711C32.7755 32.614 31.9898 33.9939 31.9898 35.3737V37.9211C31.9898 39.0886 30.9796 40.0439 29.7449 40.0439H27.5V42.1667H29.7449C32.2143 42.1667 34.2347 40.2561 34.2347 37.9211V35.3737C34.2347 34.6307 34.5714 33.9939 35.2449 33.5693L38.5 31.5526L35.2449 29.536C34.5714 29.1114 34.2347 28.4746 34.2347 27.7316Z" fill="white"/>
</svg>
