<svg width="55" height="61" viewBox="0 0 55 61" fill="none" xmlns="http://www.w3.org/2000/svg">
<path fill-rule="evenodd" clip-rule="evenodd" d="M20.4056 19.567H35.3318C37.1368 19.5723 38.6011 21.0628 38.6063 22.9001V38.0938C38.6011 39.9337 37.1369 41.4243 35.3318 41.4269H20.4056C18.5981 41.4243 17.1337 39.9338 17.1311 38.0938V22.9001C17.1337 21.0628 18.598 19.5723 20.4056 19.567ZM36.9498 4.41063C36.6819 4.41063 36.414 4.45034 36.1565 4.52976C33.99 1.92737 31.1759 0 27.8678 0C23.2695 0 19.137 3.84673 16.268 9.97299C10.9076 9.51763 6.39262 10.5501 3.61751 13.1155C2.38728 12.6681 1.0167 13.179 0.363872 14.3333C-0.291543 15.4849 -0.0418624 16.949 0.954262 17.8094C0.161011 21.5264 1.53425 26.0087 4.58242 30.4988C0.949069 35.8413 -0.484029 41.504 1.92435 45.748C4.62663 50.508 10.8662 51.4744 16.224 51.0296C22.3308 64.1718 33.171 64.4761 39.4676 51.0243C39.7771 51.0508 40.084 51.072 40.3883 51.0879C46.6199 51.4268 51.5846 49.6688 53.8111 45.7454C56.2195 41.5015 54.7864 35.8415 51.1531 30.4989C54.7864 25.1564 56.2169 19.4964 53.8111 15.2551C51.5848 11.3289 46.6197 9.57369 40.3883 9.91256C40.0996 9.92844 39.8057 9.94698 39.5118 9.97345C39.3506 9.62399 39.1841 9.28249 39.0151 8.94891V8.94626C39.6939 8.12822 39.8447 6.98189 39.4026 6.01028C38.9605 5.03866 38.0031 4.41327 36.9498 4.41063ZM37.4439 9.87493C37.4959 9.97818 37.548 10.0841 37.6 10.19L37.6026 10.1873C34.2683 10.693 31.0042 11.5825 27.8704 12.8401C24.7207 11.5772 21.4385 10.6851 18.0909 10.182C20.5981 5.03011 24.052 1.84784 27.8704 1.84784C30.583 1.84784 32.903 3.49983 34.703 5.631H34.7004C34.0996 6.55496 34.097 7.75159 34.6952 8.6782C35.2934 9.60216 36.375 10.0735 37.4439 9.87493ZM37.5792 6.52329C37.7872 6.73773 37.8783 7.04483 37.821 7.34132C37.7638 7.63781 37.5636 7.88669 37.2879 8.00054C37.0148 8.11702 36.7001 8.08525 36.453 7.91847C36.2059 7.74903 36.0577 7.46841 36.0577 7.16394C36.0577 6.79859 36.2762 6.47033 36.6091 6.32997C36.9394 6.18966 37.3217 6.26648 37.5792 6.52329ZM5.0349 14.3044C7.33142 12.3188 11.0376 11.4848 15.4902 11.7655H15.4928C14.2444 14.9503 13.3575 18.2703 12.853 21.6619C10.2131 23.801 7.82034 26.2367 5.72142 28.9239C3.26883 25.1487 2.13488 21.4769 2.67586 18.4663C3.6538 18.4769 4.56144 17.9501 5.05041 17.087C5.53938 16.224 5.53426 15.1622 5.0349 14.3044ZM3.33914 15.0695C3.54721 15.2839 3.64083 15.591 3.58102 15.8875C3.5238 16.184 3.32353 16.4329 3.04785 16.5494C2.77476 16.6659 2.46006 16.6341 2.21298 16.4647C1.96591 16.2979 1.81765 16.0146 1.81765 15.7101C1.81765 15.3448 2.03612 15.0139 2.36643 14.8735C2.69934 14.7332 3.08167 14.81 3.33914 15.0695ZM21.8622 46.3778C22.7464 46.3778 23.5735 46.8147 24.0781 47.5507C24.5176 47.413 24.9571 47.2674 25.4019 47.1112C21.7243 45.4433 18.2291 43.3889 14.9699 40.9824C15.4875 43.7489 16.2834 46.4519 17.3445 49.0543C17.9453 48.9801 18.559 48.8848 19.1807 48.771C19.3575 47.3997 20.5072 46.3778 21.8622 46.3778ZM24.5618 49.3271C25.649 48.9856 26.7518 48.5964 27.8675 48.1569H27.8701C31.0171 49.4197 34.2993 50.3119 37.6469 50.8149C32.2736 61.852 23.6335 61.9977 18.1379 50.8097C18.606 50.7435 19.0794 50.664 19.5579 50.5767V50.5793C20.1769 51.5959 21.3681 52.091 22.5099 51.8051C23.649 51.5192 24.4787 50.5185 24.5645 49.3244L24.5618 49.3271ZM22.4941 48.4905C22.7048 48.7049 22.7958 49.012 22.736 49.3085C22.6788 49.6077 22.4785 49.8539 22.2055 49.9704C21.9298 50.0869 21.6151 50.0551 21.368 49.8857C21.1209 49.7189 20.9727 49.4356 20.9727 49.1311C20.9727 48.7658 21.1911 48.4349 21.524 48.2945C21.8543 48.1542 22.2393 48.2337 22.4941 48.4905ZM30.3355 13.8835C32.1743 14.7175 33.9688 15.6467 35.7088 16.6739C37.454 17.6958 39.1419 18.8104 40.7701 20.0123C40.2525 17.2458 39.4566 14.5428 38.3955 11.9404C35.6516 12.3058 32.952 12.957 30.3378 13.8836L30.3355 13.8835ZM42.8921 21.6694C42.3927 18.2781 41.5189 14.9529 40.2834 11.7629L40.4837 11.7523C46.0339 11.4531 50.393 12.9039 52.2473 16.1708C54.1433 19.5145 53.0977 24.1689 50.0158 28.9259L50.0184 28.9233C47.9195 26.2388 45.5293 23.8058 42.8921 21.6721L42.8921 21.6694ZM12.8419 39.3226C13.3387 42.7166 14.2151 46.0418 15.4532 49.2319C11.0031 49.5072 5.72628 48.7103 3.48914 44.8213C1.60096 41.4855 2.6361 36.8178 5.72069 32.0716C7.81694 34.756 10.2049 37.1889 12.8419 39.3226ZM6.81575 30.4984C8.49846 28.2613 10.4023 26.2069 12.4986 24.3669C12.0773 28.4439 12.0747 32.5527 12.496 36.63C10.3998 34.7901 8.49587 32.7355 6.81575 30.4984ZM14.5325 38.3399C16.5612 39.9548 18.6991 41.4189 20.9306 42.7267C23.1596 44.0425 25.4795 45.1941 27.8671 46.179C28.278 46.0122 28.6889 45.8375 29.0999 45.6548C31.0557 44.7917 32.9621 43.8149 34.8061 42.7267C37.0428 41.4189 39.1833 39.9495 41.2172 38.3346C41.5683 35.7375 41.7425 33.1192 41.7373 30.4986C41.7399 27.8749 41.5631 25.2566 41.2068 22.6598C39.1755 21.0449 37.035 19.5782 34.8009 18.2677C32.572 16.9545 30.2547 15.8029 27.8671 14.8207C25.4926 15.795 23.1908 16.9387 20.9746 18.2412C20.9616 18.2518 20.946 18.2598 20.9304 18.2677V18.2704C18.6963 19.5808 16.5532 21.0502 14.5219 22.6651C14.1682 25.2622 13.994 27.8779 13.9966 30.4991C13.994 33.1228 14.1708 35.7437 14.5297 38.3433L14.5325 38.3399ZM30.335 47.1132C32.9618 48.0425 35.6745 48.6964 38.4313 49.0591C39.4846 46.4514 40.2726 43.7404 40.7824 40.9682C37.5184 43.38 34.0176 45.4401 30.335 47.1132ZM40.2443 49.2312C41.4927 46.0437 42.3795 42.7238 42.8841 39.3301C45.5239 37.1936 47.9167 34.7606 50.013 32.0707C53.095 36.8229 54.1405 41.4826 52.2445 44.8232C50.3901 48.0954 46.0311 49.5435 40.4836 49.2443L40.2469 49.2311L40.2443 49.2312ZM48.9205 30.4977C47.2378 32.7348 45.3314 34.7892 43.2376 36.6318C43.6564 32.5548 43.6564 28.446 43.2376 24.3687C45.3313 26.2087 47.2377 28.2606 48.9205 30.4977ZM25.4013 13.8822C22.7745 12.9503 20.0618 12.2964 17.3023 11.9336C16.2516 14.5414 15.4635 17.2524 14.9538 20.0218C18.2178 17.6127 21.7187 15.5527 25.4013 13.8822ZM24.5716 35.8505L24.634 35.7552H24.6314C24.6314 35.5011 24.7355 35.2575 24.9175 35.0828C25.0996 34.908 25.3441 34.818 25.5937 34.8339C25.8434 34.8471 26.0775 34.9663 26.2387 35.1622C26.3974 35.3554 26.4728 35.6096 26.4442 35.8638C26.5977 35.8294 26.8317 35.697 26.8317 35.6308L26.8759 25.9994C26.8759 25.1707 25.755 24.8769 25.2842 25.0384H25.2868C24.9852 25.1469 24.7329 25.364 24.5768 25.6473C24.8135 25.965 24.8239 26.3965 24.6028 26.7247C24.3844 27.053 23.9838 27.2013 23.6067 27.0954C22.6496 26.8201 21.7341 27.6725 22.6912 28.1226V28.1199C22.9669 28.2497 23.1594 28.5065 23.2088 28.8109C23.2556 29.1153 23.1516 29.4224 22.9305 29.6316C22.8238 29.7428 23.0475 29.8513 23.1307 29.8831C23.5911 30.0657 23.8252 30.59 23.6561 31.0612C23.4845 31.5351 22.9721 31.7813 22.5065 31.6171C22.4389 31.5907 22.3687 31.5616 22.3063 31.5298C22.1606 31.6648 22.0852 31.8607 22.1008 32.0619C22.1164 32.2605 22.223 32.4431 22.3869 32.5517C22.7822 32.2419 23.3492 32.3134 23.6561 32.7132C23.963 33.1156 23.8927 33.6927 23.4974 34.0051C23.3726 34.1004 23.383 34.164 23.513 34.2566V34.2593C23.7133 34.3969 23.8485 34.6114 23.8901 34.8549C23.9344 35.0958 23.8797 35.3447 23.7419 35.5459C23.6249 35.718 23.4974 35.7365 23.6639 35.8742H23.6613C23.9396 36.0595 24.3011 36.0491 24.5716 35.8505ZM25.4247 37.5978H25.4221C26.2569 37.8758 27.1698 37.7169 27.8669 37.1742C28.5951 37.7434 29.5626 37.889 30.4235 37.5581C32.2648 38.5403 34.5094 36.9677 33.8618 35.1251L33.8644 35.1225C34.0256 34.8551 34.1219 34.5506 34.1427 34.2356C34.8605 33.8464 35.3443 33.1237 35.4379 32.3003C35.5289 31.4796 35.2168 30.6615 34.603 30.1188C34.6706 29.8276 34.668 29.5231 34.5952 29.2319C36.0075 27.7785 35.066 25.5202 32.9307 25.221V25.2237C32.6264 24.3076 31.9164 23.5902 31.0139 23.291C29.9059 22.968 28.7121 23.2566 27.8642 24.0508C27.279 23.5134 26.5326 23.1957 25.7445 23.1533C24.4207 23.1004 23.2191 23.9423 22.7952 25.2237C20.6651 25.5228 19.721 27.781 21.1307 29.2345V29.2319C21.0578 29.5231 21.0552 29.8276 21.1229 30.1188C20.5091 30.6615 20.197 31.4796 20.288 32.3003C20.3816 33.1236 20.8654 33.8464 21.5832 34.2356C21.604 34.5506 21.7002 34.8551 21.8615 35.1225C21.2139 36.9651 23.4584 38.5403 25.2998 37.5555C25.3388 37.5713 25.3752 37.5846 25.4169 37.5978L25.4247 37.5978ZM31.1283 35.8134C31.5366 36.2211 32.3064 35.8823 32.127 35.689L32.1244 35.6917C32.0776 35.6467 32.0334 35.5937 31.997 35.5408C31.8591 35.3396 31.8045 35.0907 31.8461 34.8498C31.8903 34.6062 32.0256 34.3918 32.2232 34.2515C32.3559 34.1588 32.3637 34.0953 32.2388 34C31.8461 33.6876 31.7733 33.1104 32.0802 32.7081C32.3871 32.3083 32.9567 32.2342 33.3494 32.5466C33.5158 32.438 33.6199 32.2554 33.6355 32.0568C33.6511 31.8556 33.5756 31.6597 33.43 31.5247C33.3624 31.5564 33.2974 31.5855 33.2297 31.612H33.2323C32.7642 31.7762 32.2518 31.53 32.0827 31.0561C31.9111 30.5848 32.1452 30.0606 32.6081 29.8779C32.6913 29.8462 32.915 29.7376 32.8084 29.6264H32.8058C32.5847 29.4173 32.4807 29.1102 32.5301 28.8058C32.5769 28.5013 32.772 28.2419 33.0451 28.1148C34.0022 27.6674 33.0841 26.8123 32.1296 27.0876V27.0903C31.755 27.1935 31.3545 27.0453 31.136 26.717C30.9176 26.3913 30.928 25.9572 31.162 25.6421C30.9592 25.2503 30.5638 25.0041 30.1295 24.9909C29.4975 25.0438 28.8655 25.3509 28.8655 25.9969L28.8993 35.6256C28.8993 35.6944 29.1334 35.8295 29.2868 35.8586V35.8612C29.2582 35.6071 29.3337 35.3529 29.4949 35.1596C29.6536 34.9637 29.8876 34.8446 30.1373 34.8313C30.387 34.8155 30.6315 34.9055 30.8135 35.0802C30.9956 35.2549 31.0996 35.4985 31.0996 35.7527C31.1022 35.7738 31.11 35.795 31.1256 35.8109L31.1283 35.8134ZM35.3312 21.4168H20.405C19.6014 21.4195 18.9485 22.0813 18.946 22.8994V38.093C18.9486 38.9111 19.6014 39.5756 20.405 39.5782H35.3312C36.1349 39.5756 36.7851 38.9137 36.7877 38.0957V22.8993C36.7851 22.0813 36.1349 21.4195 35.3312 21.4168Z" fill="white"/>
</svg>
