<svg width="46" height="57" viewBox="0 0 46 57" fill="none" xmlns="http://www.w3.org/2000/svg">
<path d="M26 3C26 1.34315 24.6569 7.24236e-08 23 0C21.3431 -7.24236e-08 20 1.34315 20 3L26 3ZM20.8787 56.1213C22.0503 57.2929 23.9497 57.2929 25.1213 56.1213L44.2132 37.0294C45.3848 35.8579 45.3848 33.9584 44.2132 32.7868C43.0416 31.6152 41.1421 31.6152 39.9706 32.7868L23 49.7574L6.02944 32.7868C4.85786 31.6152 2.95837 31.6152 1.7868 32.7868C0.615222 33.9584 0.615221 35.8579 1.7868 37.0294L20.8787 56.1213ZM20 3L20 54L26 54L26 3L20 3Z" fill="black"/>
</svg>
