<svg width="628" height="419" viewBox="0 0 628 419" fill="none" xmlns="http://www.w3.org/2000/svg">
<path d="M-82.3939 133.954L-152.381 255.601C-154.097 258.586 -155 261.973 -155 265.421C-155 268.869 -154.097 272.256 -152.381 275.241L-36.6814 476.401C-33.6918 481.597 -29.3942 485.912 -24.2203 488.912C-19.0464 491.911 -13.1781 493.491 -7.20473 493.491C-1.23135 493.491 4.6369 491.911 9.81085 488.912C14.9848 485.912 19.2823 481.597 22.272 476.401L68.2997 396.887L114.012 316.424C116.916 311.244 118.426 305.392 118.394 299.447C118.362 293.502 116.789 287.667 113.83 282.519C110.87 277.371 106.627 273.087 101.517 270.088C96.4082 267.09 90.6096 265.481 84.6932 265.421H12.8142C6.81879 265.415 0.92923 263.833 -4.26942 260.832C-9.46808 257.831 -13.7949 253.516 -16.8201 248.314L-63.1631 167.851C-65.0736 164.4 -66.0599 160.511 -66.0257 156.562C-65.9914 152.614 -64.9377 148.742 -62.9677 145.326C-60.9977 141.91 -58.1788 139.066 -54.7869 137.072C-51.395 135.079 -47.5462 134.005 -43.6171 133.954H185.261C188.7 133.972 192.083 133.076 195.068 131.36C198.052 129.643 200.534 127.165 202.261 124.176C203.988 121.188 204.899 117.794 204.903 114.338C204.908 110.882 204.004 107.486 202.285 104.493L149.321 12.6251C147.579 9.71205 145.135 7.286 142.215 5.56998C139.296 3.85396 135.993 2.90305 132.612 2.80469H4.30222C0.901779 2.81103 -2.43619 3.72327 -5.37141 5.44842C-8.30664 7.17357 -10.7341 9.64993 -12.4065 12.6251L-82.3939 133.954Z" fill="#040000" fill-opacity="0.14"/>
<path d="M556.97 131.152L487.298 9.50564C485.535 6.56446 483.035 4.13918 480.048 2.47165C477.061 0.804119 473.691 -0.0473903 470.274 0.00203539H239.19C233.154 -0.0573168 227.211 1.49672 221.97 4.50494C216.728 7.51316 212.377 11.8674 209.362 17.1216C206.346 22.3758 204.775 28.3411 204.809 34.4063C204.843 40.4715 206.481 46.4186 209.555 51.6383L254.953 130.835L300.665 210.348C303.633 215.62 307.94 220.005 313.147 223.056C318.353 226.107 324.272 227.715 330.299 227.715C336.327 227.715 342.246 226.107 347.452 223.056C352.659 220.005 356.966 215.62 359.934 210.348L395.873 146.991C398.849 141.746 403.165 137.395 408.375 134.388C413.585 131.38 419.499 129.826 425.508 129.885H517.878C522.143 129.422 526.45 130.2 530.286 132.127C534.123 134.053 537.328 137.047 539.52 140.751C541.713 144.456 542.799 148.715 542.651 153.023C542.503 157.33 541.127 161.504 538.685 165.048L422.985 363.99C421.174 366.942 420.187 370.33 420.128 373.798C420.069 377.265 420.939 380.685 422.648 383.698C424.357 386.711 426.841 389.207 429.84 390.923C432.84 392.639 436.243 393.512 439.694 393.451H545.621C549.022 393.445 552.359 392.533 555.295 390.808C558.23 389.082 560.657 386.606 562.33 383.631L625.382 272.122C627.097 269.136 628 265.749 628 262.302C628 258.854 627.097 255.467 625.382 252.481L556.97 131.152Z" fill="#040000" fill-opacity="0.14"/>
</svg>
