<svg width="100" height="88" viewBox="0 0 100 88" fill="none" xmlns="http://www.w3.org/2000/svg">
<path d="M98.3933 10.7783C97.0711 9.16494 95.2366 8.05144 93.1997 7.74844L37.8935 0.0793303C33.5139 -0.526639 29.6426 2.40092 28.9318 6.74111L28.6261 8.96428L18.1361 9.26727C13.8598 9.46795 10.4967 13.0014 10.5999 17.2394L6.52606 17.9477C2.24976 18.6559 -0.605105 22.5908 0.109577 27.0333L9.68272 81.5389C10.2942 85.3754 13.6533 88 17.4214 88C17.8304 88 18.3386 88 18.7437 87.8977L71.7069 78.7137L76.1898 78.6114C77.512 78.5091 78.7349 78.1077 79.7554 77.6001L83.1145 78.1038C83.5235 78.2061 83.9285 78.2061 84.3374 78.2061C85.9654 78.2061 87.5973 77.7024 88.9195 76.6911C90.6506 75.3808 91.7704 73.4606 92.0761 71.442L99.9221 16.6332C100.228 14.5123 99.6162 12.4939 98.3933 10.7783ZM36.7737 2.20026C37.0795 2.20026 37.282 2.20026 37.5877 2.30257L92.7913 9.97167C94.32 10.1724 95.6422 10.9829 96.5594 12.0926C97.4766 13.3045 97.8816 14.7172 97.6791 16.2321L97.1709 19.7656L30.6631 10.377L31.072 7.14652C31.6795 4.21901 34.022 2.20026 36.7737 2.20026ZM18.2353 11.4866L28.3167 11.1837L21.1855 61.4474C20.8798 63.5683 21.388 65.5869 22.7142 67.3025C24.0364 68.9158 25.8708 70.0294 27.9077 70.3324L71.9058 76.4905L71.3975 76.5928L20.4783 78.0014C17.3217 78.1037 14.7765 75.6798 14.5701 72.65L12.8389 17.3375C12.7357 14.2092 15.1819 11.6873 18.2353 11.4866ZM18.4418 85.6745C15.2851 86.1781 12.4342 84.1595 11.922 81.1336L2.34887 26.628C1.84063 23.4998 3.87754 20.6745 6.93092 20.1669L10.699 19.4586L12.3309 72.7524C12.5334 76.9903 15.9958 80.2209 20.2761 80.2209H20.4786L56.0236 79.2096L18.4418 85.6745ZM89.9404 71.037C89.7379 72.5519 88.92 73.8622 87.701 74.8735C86.4781 75.7824 84.9495 76.0854 83.5239 75.8847L28.3203 68.2156C26.7917 68.015 25.4694 67.2044 24.5523 66.0947C23.6351 64.8828 23.2301 63.4701 23.4325 61.9552L30.3573 12.6988L96.8651 21.9851L89.9404 71.037Z" fill="black"/>
<path d="M37.9153 8.26167H38.1178C38.626 8.26167 39.1382 7.85638 39.2375 7.35271C39.3408 6.74674 38.9318 6.14079 38.3203 6.14079H38.2171C37.6056 6.03849 37.0974 6.44378 36.9942 7.04975C36.7917 7.65572 37.3038 8.26167 37.9153 8.26167Z" fill="black"/>
<path d="M45.3515 9.35542H45.554C46.0622 9.35542 46.5744 8.95013 46.6737 8.44646C46.777 7.84049 46.368 7.23454 45.7565 7.23454H45.6533C45.0418 7.13224 44.5336 7.53753 44.4304 8.1435C44.2319 8.6511 44.74 9.2571 45.3515 9.35542Z" fill="black"/>
<path d="M52.7836 10.371H52.9861C53.4943 10.371 54.0065 9.96575 54.1059 9.46209C54.2091 8.85612 53.8001 8.25017 53.1886 8.25017H53.0854C52.4739 8.14786 51.9657 8.55315 51.8625 9.15912C51.7632 9.76509 52.1721 10.371 52.7836 10.371Z" fill="black"/>
<path d="M87.7033 27.942L37.7966 20.875C37.4908 20.875 37.1851 20.875 36.9826 21.0757C36.7801 21.2764 36.5736 21.481 36.5736 21.784L33.7188 40.6593C33.7188 40.9623 33.7187 41.2653 33.9213 41.466C34.1238 41.6666 34.3302 41.8712 34.636 41.8712L84.5427 48.9383H84.7452C85.2535 48.9383 85.7657 48.533 85.865 48.0293L88.6166 29.2557C88.6166 28.9527 88.6166 28.6497 88.4141 28.4491C88.2116 28.2444 87.9058 28.0443 87.7033 27.942ZM83.832 46.6169L36.1645 39.8529L38.6103 23.2984L86.2778 30.0625L83.832 46.6169Z" fill="black"/>
<path d="M83.7276 55.3016L33.8209 48.2345C33.2094 48.1322 32.598 48.5375 32.598 49.1435C32.4947 49.7495 32.9037 50.3554 33.5152 50.3554L83.4219 57.4224H83.6244C84.1327 57.4224 84.6449 57.0171 84.7442 56.5135C84.7482 56.0059 84.3391 55.3999 83.7276 55.3016Z" fill="black"/>
<path d="M82.6105 62.8641L32.7037 55.797C32.0922 55.6947 31.4808 56.1 31.4808 56.706C31.3775 57.312 31.7865 57.9179 32.398 57.9179L82.3048 64.9849H82.5073C83.0155 64.9849 83.5277 64.5797 83.627 64.076C83.631 63.5723 83.2219 62.9663 82.6105 62.8641Z" fill="black"/>
</svg>
