<svg width="84" height="84" viewBox="0 0 84 84" fill="none" xmlns="http://www.w3.org/2000/svg">
<path d="M76.5437 5.96832H39.8335C39.0912 2.46447 35.9857 -0.0316658 32.4032 0.000651377H7.55943C3.4462 -0.0531439 0.0681179 3.23191 0 7.34547V70.5761C0.0681353 74.6897 3.4462 77.9747 7.55943 77.9209H14.8176V78.8893L14.8212 78.8929C14.8534 81.7404 17.1879 84.0249 20.0353 83.9998H64.0723C66.8909 83.9962 69.1753 81.7117 69.1789 78.8929V77.9245H76.5446C80.6291 77.9496 83.9641 74.6645 84 70.5797V13.3167C83.9641 9.2319 80.6318 5.94325 76.5437 5.96832ZM7.55833 2.75138H32.4021C34.9948 2.69758 37.1465 4.74899 37.211 7.34189C37.211 8.10219 37.8278 8.71905 38.588 8.71905H76.5431C79.1072 8.69394 81.2085 10.7453 81.2444 13.3096V19.5068H2.75281V7.34556C2.81736 4.75266 4.96563 2.69758 7.55833 2.75138ZM66.4234 78.897C66.4305 79.521 66.1867 80.1235 65.742 80.5682C65.3009 81.0093 64.6949 81.2568 64.0709 81.2496H20.0339C18.7071 81.2783 17.6062 80.2239 17.5739 78.897V36.4558C17.5667 35.7995 17.8249 35.172 18.2875 34.7057C18.7501 34.2431 19.3812 33.9849 20.0339 33.9921H64.0709C64.7128 33.9957 65.3296 34.2575 65.7743 34.7237C66.2189 35.1863 66.452 35.8139 66.4234 36.4559L66.4234 78.897ZM76.5428 75.1708H69.1771V36.4562C69.2058 35.0826 68.6822 33.7557 67.7212 32.7731C66.7601 31.794 65.444 31.2381 64.0706 31.2381H20.0335C17.154 31.2417 14.823 33.5764 14.8194 36.4562V75.1708H7.5576C4.96489 75.2246 2.81679 73.1732 2.75226 70.5803V22.2614H81.2439V70.5766C81.2116 73.1444 79.1105 75.1995 76.5428 75.1708ZM60.9758 43.0766H40.2448C39.5922 40.0283 36.9026 37.8514 33.79 37.8514C30.6737 37.8514 27.9841 40.0283 27.3351 43.0766H23.0175C22.2573 43.0766 21.6405 43.6935 21.6405 44.4538C21.6405 45.2141 22.2573 45.831 23.0175 45.831H27.3351C27.9842 48.8758 30.6737 51.0527 33.79 51.0527C36.9026 51.0527 39.5922 48.8758 40.2448 45.831H60.9758C61.736 45.831 62.3528 45.2141 62.3528 44.4538C62.3528 43.6935 61.736 43.0766 60.9758 43.0766ZM33.7901 48.3019C32.2338 48.3019 30.828 47.3624 30.2328 45.9242C29.6375 44.4861 29.9674 42.8328 31.0683 41.7318C32.1692 40.6308 33.8224 40.3009 35.2604 40.8998C36.6984 41.4951 37.6344 42.8974 37.6344 44.4538C37.6308 46.577 35.9131 48.2948 33.7901 48.3019ZM60.9795 56.2994H57.0886C56.4431 53.2511 53.75 51.0706 50.6337 51.0706C47.521 51.0706 44.8279 53.2511 44.1788 56.2994H23.021C22.2608 56.2994 21.644 56.9163 21.644 57.6766C21.644 58.4369 22.2608 59.0537 23.021 59.0537H44.1788C44.8279 62.0985 47.521 64.279 50.6337 64.279C53.75 64.279 56.4431 62.0985 57.0886 59.0537H60.9759C61.7361 59.0537 62.3529 58.4369 62.3529 57.6766C62.3529 56.9163 61.7361 56.2994 60.9759 56.2994H60.9795ZM50.6332 61.5247C49.0805 61.5211 47.6747 60.5851 47.0795 59.147C46.4842 57.7089 46.8141 56.0556 47.915 54.9546C49.0159 53.8536 50.6691 53.5236 52.1071 54.119C53.5451 54.7179 54.4846 56.1202 54.4846 57.6766C54.4775 59.7997 52.7598 61.5176 50.6332 61.5247ZM60.9758 69.4147H48.4529C47.8039 66.3663 45.1143 64.1894 41.9981 64.1894C38.8818 64.1894 36.1923 66.3663 35.5432 69.4147H23.0204C22.2601 69.4147 21.6433 70.0316 21.6433 70.7919C21.6433 71.5522 22.2601 72.169 23.0204 72.169H35.5432C36.1923 75.2174 38.8818 77.3943 41.9981 77.3943C45.1143 77.3943 47.8039 75.2174 48.4529 72.169H60.9758C61.736 72.169 62.3528 71.5522 62.3528 70.7919C62.3528 70.0316 61.736 69.4147 60.9758 69.4147ZM41.9983 74.64C40.4419 74.64 39.0397 73.704 38.4409 72.2659C37.8456 70.8278 38.1755 69.1709 39.2764 68.0699C40.3773 66.9689 42.0305 66.6389 43.4685 67.2343C44.9065 67.8296 45.8461 69.2355 45.8461 70.7919C45.8425 72.915 44.1212 74.6364 41.9983 74.64Z" fill="black"/>
</svg>
