<svg width="88" height="91" viewBox="0 0 88 91" fill="none" xmlns="http://www.w3.org/2000/svg">
<path fill-rule="evenodd" clip-rule="evenodd" d="M62.7427 60.4141C69.1996 46.1932 66.0703 34.1482 52.7606 26.6621L52.9931 34.3078C53.016 35.0784 52.105 35.5795 51.4456 35.0253L46.8145 31.3353C38.4289 32.1591 32.2921 35.0139 28.2865 39.4213C24.2958 43.8097 22.3899 49.7733 22.4585 56.8231L28.9878 52.8029C29.6625 52.3891 30.5125 52.9547 30.3943 53.7253H30.3981L29.4986 59.6171C34.4041 66.4352 39.9579 70.2996 45.7891 71.5484C51.6018 72.7974 57.7384 71.4573 63.8331 67.8775L57.0751 64.2558C56.3737 63.88 56.4462 62.8626 57.178 62.5778L62.7427 60.4141ZM49.8821 39.7781L51.4372 40.4197L54.0368 38.9922C54.4065 38.7872 54.8563 38.8631 55.1422 39.1479L57.7074 41.7027C58.0199 42.014 58.0657 42.4962 57.837 42.8568L56.4305 45.3965L57.0746 46.9454L59.9219 47.7654C60.3298 47.8831 60.5928 48.2513 60.5928 48.6537H60.5966V52.2678C60.5966 52.7196 60.2726 53.0954 59.8457 53.1789L57.0747 53.9761L56.4306 55.5212L57.8676 58.1102C58.0734 58.4785 57.9972 58.9264 57.7113 59.2111L55.1461 61.766C54.8335 62.0773 54.3495 62.1229 53.9874 61.8951L51.4374 60.4943L49.8822 61.1358L49.0589 63.9717C48.9407 64.3779 48.571 64.6398 48.167 64.6398V64.6436H44.5383C44.0847 64.6436 43.7073 64.3209 43.6235 63.8957L42.823 61.1359L41.2678 60.4943L38.6683 61.9256C38.2986 62.1306 37.8488 62.0546 37.5629 61.7699L34.9977 59.215C34.6814 58.9038 34.6394 58.4216 34.8681 58.061L36.2746 55.5213L35.6304 53.9724L32.7831 53.1524C32.3753 53.0347 32.1123 52.6665 32.1123 52.264H32.1085V48.65C32.1085 48.1982 32.4325 47.8224 32.8594 47.7389L35.6304 46.9417L36.2745 45.3927L34.8375 42.8037C34.6317 42.4354 34.7079 41.9875 34.9938 41.7028L37.5628 39.1479C37.8754 38.8366 38.3594 38.791 38.7215 39.0188L41.2715 40.4196L42.8267 39.7781L43.65 36.9422C43.7682 36.536 44.1379 36.2741 44.5419 36.2741V36.2703H48.1706C48.6242 36.2703 49.0016 36.593 49.0854 37.0182L49.8821 39.7781ZM49.9583 41.7787C50.3166 41.9268 50.6596 42.0938 50.9874 42.276C51.2771 42.4393 51.6202 42.4317 51.8946 42.2836L54.3226 40.9511L55.9006 42.5228L54.5628 44.941C54.395 45.2485 54.4179 45.6054 54.5894 45.8787C54.921 46.4367 55.2679 47.3099 55.4394 47.9363C55.5309 48.2703 55.7977 48.5095 56.1103 48.5892L58.7365 49.3447V51.5693L56.0759 52.3362C55.7557 52.4311 55.5232 52.6778 55.4394 52.9777C55.2374 53.6952 54.9363 54.4241 54.5665 55.0732C54.4026 55.3617 54.4102 55.7034 54.5589 55.9767L55.8968 58.3949L54.3188 59.9666L51.8907 58.6341C51.582 58.4671 51.2237 58.4899 50.9493 58.6607C50.389 58.991 49.5123 59.3364 48.8834 59.5072C48.548 59.5984 48.3078 59.8641 48.2278 60.1754L47.4693 62.791H45.2356L44.4657 60.1412C44.3704 59.8223 44.1226 59.5907 43.8215 59.5072C43.1011 59.306 42.3693 59.0061 41.7176 58.6379C41.4279 58.4746 41.0848 58.4822 40.8104 58.6303L38.3824 59.9628L36.8044 58.3911L38.1422 55.9729C38.31 55.6654 38.2871 55.3085 38.1156 55.0352C37.784 54.4772 37.4371 53.604 37.2656 52.9776C37.1741 52.6436 36.9073 52.4044 36.5947 52.3247L33.9685 51.5692V49.3446L36.6291 48.5778C36.9493 48.4828 37.1818 48.2361 37.2656 47.9362C37.4676 47.2187 37.7687 46.4898 38.1385 45.8407C38.3024 45.5522 38.2947 45.2105 38.1461 44.9372L36.8082 42.519L38.3862 40.9473L40.8142 42.2798C41.123 42.4468 41.4813 42.424 41.7557 42.2532C42.316 41.9229 43.1927 41.5775 43.8216 41.4067C44.157 41.3155 44.3972 41.0498 44.4772 40.7385L45.2357 38.1229H47.4694L48.2393 40.7727C48.3346 41.0916 48.5824 41.3232 48.8835 41.4067C49.2418 41.5092 49.6 41.6345 49.9583 41.7787ZM47.0996 46.767C47.3206 46.3076 47.8733 46.1102 48.3383 46.3304C48.7995 46.5506 48.9977 47.101 48.7766 47.5642L45.6054 54.143C45.3843 54.6024 44.8316 54.7998 44.3666 54.5796C43.9054 54.3594 43.7072 53.809 43.9283 53.3458L47.0996 46.767ZM51.117 53.7179C50.7054 54.0254 50.1222 53.9456 49.8135 53.5356C49.5047 53.1256 49.5848 52.5449 49.9964 52.2374L52.1691 50.605L49.9355 48.5892C49.5543 48.2475 49.5276 47.6629 49.8707 47.2832C50.2137 46.9036 50.8007 46.877 51.1819 47.2187L54.3722 50.1115C54.6809 50.5215 54.6009 51.1022 54.1892 51.4097L51.117 53.7179ZM42.7048 52.2412C43.1164 52.5487 43.1965 53.1295 42.8877 53.5394C42.579 53.9494 41.9958 54.0292 41.5842 53.7217L38.5121 51.4173C38.0013 51.0339 38.0356 50.3316 38.5045 49.9444L41.5194 47.2263C41.9006 46.8846 42.4876 46.9112 42.8307 47.2908C43.1737 47.6704 43.147 48.2551 42.7659 48.5968L40.5322 50.6126L42.7048 52.2412ZM29.1045 62.1947C34.0253 68.489 39.5638 72.1143 45.3989 73.367C52.1455 74.8134 59.2393 73.0785 66.1946 68.6066C66.793 68.2231 66.7625 67.3386 66.1183 67.0046L59.7224 63.5804L81.1738 55.2248L82.9158 63.7094C82.9196 63.812 82.9386 63.9031 82.9729 63.9904L85.7555 77.5281L78.643 73.7166C78.2389 73.5003 77.7472 73.6103 77.4728 73.9596C76.5771 74.9732 75.6508 75.9451 74.7018 76.8675C66.949 84.3955 57.6453 88.6589 48.0818 89.1069C38.526 89.5549 28.6883 86.1914 19.8605 78.4701L19.7804 78.398L25.1738 80.1899C25.8027 80.429 26.3821 80.0494 26.4659 79.4762L29.1045 62.1947ZM15.6193 77.0192L0.636306 72.0423C-0.118396 71.7918 -0.225116 70.7857 0.441912 70.3796L8.37387 65.4938C4.56611 53.7977 5.02726 41.7936 10.2225 31.7759C14.8308 22.8927 23.0295 15.7628 34.6363 11.8492C35.9322 11.4127 37.2625 11.0179 38.6232 10.6648L50.4388 0.233035C51.0296 -0.287055 51.9597 0.119145 51.9825 0.901175L52.2646 10.183C64.3622 12.7568 74.5239 19.1194 80.6615 28.6402C86.0816 37.0565 88.1818 47.6931 85.7843 59.6594C85.5213 60.9729 85.1973 62.3168 84.8162 63.6872L87.9798 79.0957C88.1399 79.8664 87.3166 80.4662 86.6305 80.0941L78.4165 75.6943C70.13 84.8433 59.5148 90.4274 48.1753 90.959C38.1512 91.4259 27.8519 87.9182 18.6426 79.8664C17.6134 78.9705 16.6066 78.0177 15.6193 77.0192ZM83.9312 59.3929L82.7877 53.8276C82.6771 53.2012 82.0673 52.8861 81.526 53.0987L65.174 59.4688C71.284 44.451 66.855 31.7374 52.2031 24.2659C51.5703 23.9432 50.8347 24.4215 50.8538 25.1162L51.0748 32.367L33.0806 18.0324L50.1869 2.92707L50.4308 10.9675C50.4423 11.4079 50.7624 11.7685 51.1779 11.852V11.8558C63.0316 14.2133 73.083 20.3101 79.0938 29.6415C84.2585 37.6591 86.2519 47.8256 83.9536 59.2981L83.9312 59.3929ZM16.2711 75.2845L3.10599 70.915L9.97835 66.6859C10.3519 66.4543 10.5044 65.9988 10.3709 65.6002C6.5022 54.2267 6.7842 42.4509 11.8766 32.6256C16.2904 24.1107 24.1576 17.3308 35.3332 13.5727L31.0222 17.3804C30.5991 17.7562 30.6105 18.4395 31.0565 18.7963L44.771 29.7179C36.8352 30.815 30.9121 33.7761 26.9026 38.1873C22.2677 43.2856 20.2324 50.2711 20.6401 58.5046C20.6744 59.1993 21.4482 59.6435 22.0924 59.2259L28.2443 55.4372L24.791 78.1122L16.2711 75.2845Z" fill="black"/>
</svg>
