<svg width="606" height="433" viewBox="0 0 606 433" fill="none" xmlns="http://www.w3.org/2000/svg">
<g opacity="0.5" clip-path="url(#clip0_2240_5029)">
<path d="M602.333 429.306V485.674L650.375 513.45V457.058L699.13 428.874L651.082 401.086L602.333 429.306ZM600.918 486.083V428.466C617.647 418.827 634.369 409.16 651.082 399.465C668.027 409.288 684.983 419.095 701.948 428.886L651.79 457.881V515.888L600.918 486.467V486.065V486.083Z" fill="black"/>
<path d="M602.34 314.507V372.094C585.615 381.761 568.893 391.428 552.176 401.095C535.447 391.436 518.725 381.769 502.012 372.094V313.252L552.176 342.253L602.34 313.252V314.453V314.507ZM600.925 371.284V315.726L552.176 343.91L503.427 315.726V371.284L552.176 399.461L600.925 371.284Z" fill="black"/>
<path d="M453.961 114.364V171.957C437.236 181.624 420.514 191.291 403.797 200.958C387.068 191.299 370.346 181.632 353.633 171.957V113.962C370.366 104.319 387.088 94.6523 403.797 84.9614C420.522 94.6163 437.244 104.283 453.961 113.962V114.364ZM452.546 171.123V114.773L403.797 86.5886L355.048 114.773V171.123L403.797 199.301L452.546 171.123Z" fill="black"/>
<path d="M453.615 114.983L404.165 143.575L403.457 142.35L452.914 113.764L453.615 114.983Z" fill="black"/>
<path d="M403.101 200.147V143.371L354.004 114.983L354.705 113.764L404.516 142.561V200.147H403.101Z" fill="black"/>
<path d="M403.109 155.619L353.652 127.027L355.055 124.577L404.512 153.17L403.109 155.619Z" fill="black"/>
<path d="M403.109 167.059L353.652 138.466L355.055 136.016L404.512 164.609L403.109 167.059Z" fill="black"/>
<path d="M403.109 178.482L353.652 149.895L355.055 147.446L404.512 176.032L403.109 178.482Z" fill="black"/>
<path d="M403.109 189.93L353.652 161.338L355.055 158.894L404.512 187.481L403.109 189.93Z" fill="black"/>
<path d="M452.91 228.114L501.306 200.135L452.91 172.155L453.612 170.93L504.13 200.135L453.612 229.339L452.91 228.114Z" fill="black"/>
<path d="M492.119 207.085L442.656 178.493L444.059 176.043L493.516 204.635L492.119 207.085Z" fill="black"/>
<path d="M482.224 212.805L432.773 184.212L434.177 181.763L483.633 210.355L482.224 212.805Z" fill="black"/>
<path d="M472.347 218.514L422.891 189.922L424.294 187.472L473.75 216.065L472.347 218.514Z" fill="black"/>
<path d="M462.445 224.244L412.988 195.651L414.397 193.202L463.848 221.794L462.445 224.244Z" fill="black"/>
<path d="M404.501 201.361V256.913L452.543 284.688V229.131L404.501 201.361ZM403.086 257.321V198.911C420.043 208.714 437 218.521 453.958 228.332V287.174L403.086 257.753V257.351V257.321Z" fill="black"/>
<path d="M452.562 241.392L403.105 212.8L404.509 210.35L453.965 238.943L452.562 241.392Z" fill="black"/>
<path d="M452.562 252.822L403.105 224.229L404.509 221.78L453.965 250.372L452.562 252.822Z" fill="black"/>
<path d="M452.562 264.27L403.105 235.678L404.509 233.228L453.965 261.821L452.562 264.27Z" fill="black"/>
<path d="M452.562 275.699L403.105 247.107L404.509 244.657L453.965 273.25L452.562 275.699Z" fill="black"/>
<path d="M503.417 201.361V257.723L454.662 285.913L502.692 313.689L551.441 285.505V229.131L503.399 201.361H503.417ZM502.002 256.913V198.911C518.952 208.714 535.909 218.521 552.874 228.332V286.327C536.157 295.982 519.429 305.647 502.692 315.322C485.731 305.523 468.775 295.716 451.826 285.901L501.984 256.901L502.002 256.913Z" fill="black"/>
<path d="M551.82 240.783L502.363 212.191L503.065 210.966L552.528 239.559L551.82 240.783Z" fill="black"/>
<path d="M551.82 252.213L502.363 223.62L503.065 222.396L552.528 250.988L551.82 252.213Z" fill="black"/>
<path d="M551.82 263.652L502.363 235.059L503.065 233.834L552.528 262.427L551.82 263.652Z" fill="black"/>
<path d="M551.82 275.1L502.363 246.508L503.065 245.283L552.528 273.875L551.82 275.1Z" fill="black"/>
<path d="M551.82 286.53L502.363 257.937L503.065 256.712L552.528 285.305L551.82 286.53Z" fill="black"/>
<path d="M463.495 279.581L512.951 308.173L512.25 309.398L462.793 280.806L463.495 279.581Z" fill="black"/>
<path d="M473.403 273.871L522.86 302.463L522.152 303.688L472.695 275.096L473.403 273.871Z" fill="black"/>
<path d="M483.286 268.151L532.742 296.744L532.035 297.963L482.578 269.37L483.286 268.151Z" fill="black"/>
<path d="M493.182 262.432L542.639 291.024L541.937 292.249L492.48 263.657L493.182 262.432Z" fill="black"/>
<path d="M453.612 228.115L503.068 256.707L502.367 257.932L452.91 229.34L453.612 228.115Z" fill="black"/>
<path d="M463.676 222.092L503.245 244.963L502.19 246.8L462.627 223.93L463.676 222.092Z" fill="black"/>
<path d="M473.575 216.373L503.25 233.527L502.195 235.364L472.52 218.21L473.575 216.373Z" fill="black"/>
<path d="M483.458 210.653L503.239 222.086L502.184 223.923L482.402 212.491L483.458 210.653Z" fill="black"/>
<path d="M493.346 204.934L503.24 210.656L502.173 212.493L492.285 206.771L493.346 204.934Z" fill="black"/>
<path d="M492.284 263.949L452.715 241.078L453.776 239.241L493.345 262.111L492.284 263.949Z" fill="black"/>
<path d="M482.41 269.675L452.734 252.521L453.79 250.69L483.465 267.844L482.41 269.675Z" fill="black"/>
<path d="M472.516 275.395L452.734 263.962L453.79 262.119L473.571 273.557L472.516 275.395Z" fill="black"/>
<path d="M462.609 281.111L452.715 275.395L453.776 273.558L463.67 279.274L462.609 281.111Z" fill="black"/>
<path d="M502.363 199.535L552.174 170.715C569.119 180.53 586.074 190.337 603.039 200.136L552.528 229.37L551.82 228.169L600.221 200.19L552.174 172.414L503.065 200.802L502.363 199.601V199.535Z" fill="black"/>
<path d="M551.465 400.27V343.092H552.88V400.27H551.465Z" fill="black"/>
<path d="M551.474 355.753L502.012 327.161L503.421 324.711L552.878 353.303L551.474 355.753Z" fill="black"/>
<path d="M551.474 367.192L502.012 338.6L503.421 336.15L552.878 364.742L551.474 367.192Z" fill="black"/>
<path d="M551.474 378.641L502.012 350.048L503.421 347.599L552.878 376.191L551.474 378.641Z" fill="black"/>
<path d="M551.474 390.07L502.012 361.478L503.421 359.028L552.878 387.614L551.474 390.07Z" fill="black"/>
<path d="M551.816 353.923L601.273 325.337L601.981 326.556L552.524 355.148L551.816 353.923Z" fill="black"/>
<path d="M551.816 365.358L601.273 336.766L601.981 337.991L552.524 366.583L551.816 365.358Z" fill="black"/>
<path d="M551.816 376.797L601.273 348.205L601.981 349.43L552.524 378.022L551.816 376.797Z" fill="black"/>
<path d="M551.816 388.236L601.273 359.644L601.981 360.863L552.524 389.455L551.816 388.236Z" fill="black"/>
<path d="M602.333 258.546V313.281L649.673 285.914L602.333 258.546ZM600.918 314.506V256.096L652.485 285.914C635.296 295.861 618.107 305.798 600.918 315.725V314.524V314.506Z" fill="black"/>
<path d="M602.339 85.7794V144.189C585.15 134.258 567.961 124.319 550.771 114.372C567.961 104.449 585.15 94.5116 602.339 84.5605V85.7614V85.7794ZM600.924 141.739V87.0043L553.554 114.372L600.924 141.739Z" fill="black"/>
<path d="M503.427 115.594V141.731L526.033 128.659L503.427 115.594ZM502.012 142.956V113.138L528.857 128.659L502.012 144.186V142.986V142.956Z" fill="black"/>
<path d="M452.922 86.3834L427.139 71.4508C435.853 66.4193 444.566 61.3837 453.276 56.3441C461.995 61.3717 470.707 66.4073 479.414 71.4508C470.699 76.4944 461.987 81.532 453.276 86.5636L452.922 86.3594V86.3834ZM429.933 71.4508L453.252 84.9364L476.565 71.4508L453.252 57.9713L429.933 71.4508Z" fill="black"/>
<path d="M355.054 228.753V287.157L303.486 257.345L355.054 227.528V228.729V228.753ZM353.639 284.713V229.954L306.269 257.321L353.639 284.689V284.713Z" fill="black"/>
<path d="M403.443 315.124L355.048 287.144V343.103H353.633V284.694L404.151 313.899L403.443 315.124Z" fill="black"/>
<path d="M392.5 365.969V308.784H395.33V365.969H392.5Z" fill="black"/>
<path d="M382.598 360.259V303.075H385.434V360.259H382.598Z" fill="black"/>
<path d="M372.715 354.54V297.355H375.545V354.54H372.715Z" fill="black"/>
<path d="M362.812 348.82V291.636H365.649V348.82H362.812Z" fill="black"/>
<path d="M353.989 400.89L303.477 371.661C320.434 361.863 337.389 352.056 354.342 342.241C371.288 352.056 388.243 361.863 405.208 371.661C388.259 381.468 371.304 391.275 354.342 401.082L353.995 400.878L353.989 400.89ZM306.295 371.661L354.342 399.437L402.39 371.661L354.342 343.886L306.295 371.661Z" fill="black"/>
<path d="M394.26 366.578L344.803 395.171L344.102 393.946L393.558 365.354L394.26 366.578Z" fill="black"/>
<path d="M384.383 360.863L334.92 389.455L334.219 388.236L383.675 359.644L384.383 360.863Z" fill="black"/>
<path d="M374.475 355.149L325.018 383.741L324.316 382.517L373.767 353.924L374.475 355.149Z" fill="black"/>
<path d="M364.592 349.43L315.135 378.022L314.434 376.791L363.89 348.205L364.592 349.43Z" fill="black"/>
<path d="M404.501 315.725V370.46L451.871 343.093L404.501 315.719V315.725ZM403.086 371.685V313.282L454.653 343.099C437.464 353.05 420.275 362.987 403.086 372.91V371.709V371.685Z" fill="black"/>
<path d="M305.595 201.361V227.504L328.206 214.432L305.595 201.361ZM304.18 228.759V198.911L331.025 214.432L304.18 229.959V228.759Z" fill="black"/>
<path d="M453.974 401.504V456.239L501.308 428.872L453.974 401.504ZM452.559 457.464V399.055L504.126 428.872L452.559 458.689V457.488V457.464Z" fill="black"/>
<path d="M650.726 458.075L601.27 429.483L601.977 428.258L651.428 456.85L650.726 458.075Z" fill="black"/>
<path d="M403.086 600.427V371.689H404.501V600.427H403.086Z" fill="black"/>
<path d="M305.248 372.298L-89.3498 600.424H-92.168L304.541 371.073L305.248 372.298Z" fill="black"/>
<path d="M600.918 85.7709V0H602.333V85.7709H600.918Z" fill="black"/>
<path d="M403.086 85.7709V0H404.501V85.7709H403.086Z" fill="black"/>
<path d="M354.005 114.976L155.117 0H157.935L354.707 113.757L354.005 114.976Z" fill="black"/>
<path d="M551.465 600.423V400.277H552.88V600.423H551.465Z" fill="black"/>
<path d="M650.737 114.976L451.855 0H454.674L651.439 113.757L650.737 114.976Z" fill="black"/>
<path d="M354.698 400.895L9.55648 600.429H6.73828L353.996 399.671L354.698 400.895Z" fill="black"/>
<path d="M403.449 86.3833L254.023 0H256.842L404.156 85.1644L403.449 86.3833Z" fill="black"/>
<path d="M304.185 428.869V314.908L255.436 286.724L207.389 314.506L255.79 342.48L255.082 343.681L204.57 314.506C221.528 304.703 238.483 294.896 255.436 285.085C272.145 294.764 288.867 304.431 305.6 314.086V428.869H304.185Z" fill="black"/>
<path d="M216.209 308.168L265.666 336.761L264.964 337.985L215.508 309.393L216.209 308.168Z" fill="black"/>
<path d="M226.112 302.459L275.568 331.051L274.861 332.276L225.41 303.683L226.112 302.459Z" fill="black"/>
<path d="M235.995 296.739L285.457 325.331L284.75 326.55L235.293 297.958L235.995 296.739Z" fill="black"/>
<path d="M245.897 291.02L295.354 319.612L294.652 320.837L245.195 292.245L245.897 291.02Z" fill="black"/>
<path d="M206.68 201.361V256.913L254.722 284.688V229.131L206.68 201.361ZM205.283 257.321V198.911C222.24 208.714 239.198 218.521 256.155 228.332V287.174L205.283 257.753V257.351V257.321Z" fill="black"/>
<path d="M255.076 240.783L205.625 212.191L206.327 210.966L255.783 239.559L255.076 240.783Z" fill="black"/>
<path d="M255.076 252.213L205.625 223.62L206.327 222.396L255.783 250.988L255.076 252.213Z" fill="black"/>
<path d="M255.076 263.652L205.625 235.059L206.327 233.834L255.783 262.427L255.076 263.652Z" fill="black"/>
<path d="M255.076 275.1L205.625 246.508L206.327 245.283L255.783 273.875L255.076 275.1Z" fill="black"/>
<path d="M155.801 343.1V285.508C172.77 275.729 189.727 265.922 206.673 256.087V314.496H205.275V258.536L157.234 286.306V343.088L155.801 343.1Z" fill="black"/>
<path d="M205.635 315.117L156.172 286.525L156.873 285.3L206.336 313.892L205.635 315.117Z" fill="black"/>
<path d="M166.055 291.022L205.624 268.151L206.331 269.37L166.768 292.246L166.055 291.022Z" fill="black"/>
<path d="M175.957 296.741L205.632 279.581L206.334 280.806L176.659 297.96L175.957 296.741Z" fill="black"/>
<path d="M185.84 302.458L205.627 291.02L206.329 292.245L186.547 303.683L185.84 302.458Z" fill="black"/>
<path d="M195.742 308.175L205.63 302.459L206.337 303.683L196.45 309.4L195.742 308.175Z" fill="black"/>
<path d="M206.329 315.113L-287.182 600.417H-290L205.628 313.888L206.329 315.113Z" fill="black"/>
<path d="M205.273 428.867V314.504H206.689V428.867H205.273Z" fill="black"/>
<path d="M254.727 457.455V343.092H256.142V457.455H254.727Z" fill="black"/>
<path d="M305.242 315.113L255.786 343.699L255.078 342.474L304.535 313.888L305.242 315.113Z" fill="black"/>
</g>
<defs>
<clipPath id="clip0_2240_5029">
<rect width="750" height="433" fill="white"/>
</clipPath>
</defs>
</svg>
