<svg width="74" height="74" viewBox="0 0 74 74" fill="none" xmlns="http://www.w3.org/2000/svg">
<rect width="74" height="74" rx="37" fill="white"/>
<path d="M20.2871 54.5508C22.1001 54.5508 23.5747 53.0762 23.5747 51.2634C23.5747 49.6352 22.3839 48.2835 20.8278 48.0244C21.0439 46.7408 22.1601 45.7588 23.5044 45.7588H29.8901V50.4674C28.3147 50.7096 27.103 52.0703 27.103 53.7126C27.103 55.5254 28.5776 57 30.3901 57C32.2031 57 33.6777 55.5254 33.6777 53.7126C33.6777 52.0703 32.466 50.7095 30.8901 50.4674V45.7588H43.1099V50.4674C41.534 50.7095 40.3223 52.0703 40.3223 53.7126C40.3223 55.5254 41.7969 57 43.6099 57C45.4224 57 46.897 55.5254 46.897 53.7126C46.897 52.0703 45.6853 50.7096 44.1099 50.4674V45.7588H50.4956C51.8399 45.7588 52.9561 46.7408 53.1722 48.0244C51.6161 48.2835 50.4253 49.6352 50.4253 51.2634C50.4253 53.0762 51.8999 54.5508 53.7129 54.5508C55.5254 54.5508 57 53.0762 57 51.2634C57 49.61 55.772 48.2418 54.1809 48.0133C53.952 46.1816 52.3884 44.7588 50.4956 44.7588H37.5V43.2659C39.0902 42.8598 40.2516 40.5284 40.9447 37.4611C41.5954 37.696 42.2271 37.8934 42.8301 38.0459C43.8271 38.2983 44.7041 38.4236 45.4512 38.4236C46.7324 38.4236 47.6318 38.0542 48.0986 37.3225C49.1739 35.6375 47.4727 32.896 44.6597 30.2402C47.4727 27.5844 49.1739 24.8429 48.0986 23.158C47.3599 21.9995 45.5381 21.75 42.8301 22.4346C42.2368 22.5847 41.6152 22.7792 40.9756 23.0091C40.217 19.5582 38.8738 17 37 17C35.1262 17 33.7831 19.5582 33.0244 23.009C32.3849 22.7792 31.7632 22.5847 31.1699 22.4346C28.4609 21.7495 26.6401 22.0002 25.9014 23.158C24.8261 24.8429 26.5273 27.5844 29.3403 30.2402C26.5273 32.896 24.8261 35.6375 25.9014 37.3225C26.3682 38.0544 27.2671 38.4236 28.5493 38.4236C29.2959 38.4236 30.1733 38.2981 31.1699 38.0459C31.7729 37.8934 32.4047 37.696 33.0553 37.4612C33.7485 40.5284 34.9098 42.8598 36.5 43.2659V44.7588H23.5044C21.6116 44.7588 20.048 46.1816 19.8191 48.0133C18.228 48.2418 17 49.61 17 51.2634C17 53.0762 18.4746 54.5508 20.2871 54.5508ZM32.6777 53.7126C32.6777 54.9739 31.6514 56 30.3901 56C29.1289 56 28.103 54.9739 28.103 53.7126C28.103 52.4514 29.1289 51.4253 30.3901 51.4253C31.6514 51.4253 32.6777 52.4514 32.6777 53.7126ZM45.897 53.7126C45.897 54.9739 44.8711 56 43.6099 56C42.3486 56 41.3223 54.9739 41.3223 53.7126C41.3223 52.4514 42.3486 51.4253 43.6099 51.4253C44.8711 51.4253 45.897 52.4514 45.897 53.7126ZM56 51.2634C56 52.5247 54.9741 53.5508 53.7129 53.5508C52.4517 53.5508 51.4253 52.5247 51.4253 51.2634C51.4253 50.0022 52.4517 48.9761 53.7129 48.9761C54.9741 48.9761 56 50.0022 56 51.2634ZM47.2559 36.7844C46.7915 37.5122 45.228 37.6216 43.0752 37.0764C42.4611 36.921 41.8152 36.717 41.1479 36.4716C41.3648 35.3004 41.5185 34.0486 41.6074 32.7731C42.4191 32.1747 43.197 31.5499 43.9189 30.9142C46.6493 33.4893 47.8912 35.7886 47.2559 36.7844ZM35.0103 33.3589C34.4294 32.9882 33.8838 32.6127 33.3572 32.2362C33.3208 31.569 33.3008 30.8787 33.3008 30.1658C33.3008 29.5082 33.3175 28.8693 33.3486 28.2504C33.8778 27.8719 34.4262 27.4943 35.0103 27.1216C35.6728 26.6988 36.3383 26.3047 37.0001 25.9377C37.6619 26.3047 38.3273 26.6988 38.9897 27.1216C39.5738 27.4943 40.1222 27.8719 40.6514 28.2504C40.6825 28.8693 40.6992 29.5082 40.6992 30.1658C40.6992 30.8787 40.6792 31.569 40.6428 32.2362C40.1162 32.6127 39.5706 32.9882 38.9897 33.3589C38.3273 33.7816 37.6619 34.1757 37.0001 34.5428C36.3383 34.1757 35.6728 33.7816 35.0103 33.3589ZM35.9575 35.0983C35.2246 35.4727 34.5005 35.8108 33.7958 36.1031C33.6522 35.3045 33.5358 34.4424 33.4517 33.5266C33.7886 33.7574 34.1292 33.9828 34.4722 34.2017C34.9662 34.5169 35.462 34.8124 35.9575 35.0983ZM32.3242 31.4696C31.7904 31.0576 31.289 30.6471 30.8245 30.2403C31.2875 29.8348 31.787 29.4257 32.3188 29.015C32.3071 29.399 32.3008 29.7831 32.3008 30.1658C32.3008 30.5993 32.3091 31.0346 32.3242 31.4696ZM33.4364 26.9645C33.5167 26.0414 33.6313 25.1742 33.7719 24.3677C34.4842 24.6623 35.2162 25.0034 35.9575 25.3822C35.462 25.6681 34.9662 25.9636 34.4722 26.2788C34.124 26.5009 33.7784 26.73 33.4364 26.9645ZM38.0427 25.3823C38.7839 25.0036 39.516 24.6624 40.2281 24.3678C40.3688 25.1743 40.4833 26.0414 40.5636 26.9645C40.2216 26.73 39.876 26.5009 39.5278 26.2788C39.0339 25.9636 38.5381 25.6682 38.0427 25.3823ZM41.6812 29.015C42.213 29.4257 42.7125 29.8348 43.1755 30.2403C42.711 30.6471 42.2096 31.0576 41.6758 31.4696C41.6909 31.0346 41.6992 30.5993 41.6992 30.1658C41.6992 29.7831 41.6929 29.399 41.6812 29.015ZM39.5278 34.2017C39.8708 33.9828 40.2114 33.7574 40.5483 33.5266C40.4642 34.4424 40.3478 35.3044 40.2042 36.1029C39.4996 35.8107 38.7756 35.4727 38.0427 35.0982C38.5381 34.8123 39.0339 34.5169 39.5278 34.2017ZM43.0752 23.4041C43.9829 23.1746 44.7852 23.061 45.4448 23.061C46.3506 23.061 46.9873 23.2749 47.2559 23.696C47.8912 24.6919 46.6493 26.9913 43.9189 29.5663C43.2004 28.9335 42.4264 28.3116 41.6187 27.7158C41.535 26.4362 41.3852 25.1788 41.1729 23.9992C41.8314 23.7578 42.4687 23.5575 43.0752 23.4041ZM37 18C38.1162 18 39.3131 20.0361 40.034 23.3706C39.0498 23.7692 38.031 24.2511 37.0001 24.8023C35.9692 24.2511 34.9503 23.7691 33.9661 23.3706C34.6869 20.0361 35.8838 18 37 18ZM26.7441 23.696C27.0127 23.2749 27.6494 23.061 28.5552 23.061C29.2148 23.061 30.0176 23.1746 30.9248 23.4041C31.5314 23.5575 32.1686 23.7577 32.8271 23.9991C32.6148 25.1787 32.465 26.4362 32.3813 27.7158C31.5736 28.3116 30.7996 28.9335 30.0811 29.5663C27.3507 26.9913 26.1088 24.6919 26.7441 23.696ZM30.9248 37.0764C28.7715 37.6213 27.208 37.512 26.7441 36.7844C26.1088 35.7886 27.3507 33.4893 30.0811 30.9142C30.803 31.5499 31.5809 32.1747 32.3926 32.7731C32.4815 34.0487 32.6352 35.3004 32.8521 36.4716C32.1848 36.7171 31.5389 36.9211 30.9248 37.0764ZM33.9955 37.0986C34.9705 36.7024 35.9795 36.2239 37 35.6782C38.0206 36.2239 39.0296 36.7023 40.0045 37.0985C39.2808 40.3521 38.101 42.3318 37 42.3318C35.899 42.3318 34.7193 40.3522 33.9955 37.0986ZM20.2871 48.9761C21.5483 48.9761 22.5747 50.0022 22.5747 51.2634C22.5747 52.5247 21.5483 53.5508 20.2871 53.5508C19.0259 53.5508 18 52.5247 18 51.2634C18 50.0022 19.0259 48.9761 20.2871 48.9761Z" fill="black"/>
</svg>
