<svg width="74" height="74" viewBox="0 0 74 74" fill="none" xmlns="http://www.w3.org/2000/svg">
<rect width="74" height="74" rx="37" fill="white"/>
<path fill-rule="evenodd" clip-rule="evenodd" d="M39.6183 30.5897C40.2073 30.8306 40.7415 31.1394 41.2398 31.526C41.5965 31.8028 41.9028 31.5474 42.2278 31.3598L42.2274 31.3589C42.8072 31.0241 43.5329 31.1689 43.9397 31.7007C44.3935 32.294 44.7723 32.9472 45.0609 33.638C45.3176 34.2525 45.0781 34.9592 44.5018 35.2919C44.1733 35.4815 43.7997 35.6117 43.861 36.0638C43.9465 36.6947 43.9465 37.3051 43.861 37.9361C43.7993 38.391 44.1777 38.5184 44.5015 38.7089L44.5019 38.7081C45.0782 39.0407 45.3176 39.7476 45.061 40.362C44.7725 41.0527 44.3935 41.7061 43.9398 42.2993C43.533 42.8311 42.8001 42.9769 42.2279 42.6402L42.2274 42.6411C41.9094 42.4574 41.5993 42.1955 41.2401 42.4741C40.7416 42.8608 40.2077 43.1695 39.6185 43.4105C38.9281 43.6928 39.6097 44.4668 38.9436 45.2237C38.5651 45.6537 38.0909 45.6802 37.56 45.714C36.99 45.7502 36.4561 45.7332 35.8835 45.6598C35.2176 45.5744 34.7273 45.0162 34.7273 44.3486C34.7273 43.97 34.7977 43.5802 34.3818 43.4101C33.7926 43.1691 33.2589 42.8606 32.7604 42.4738C32.4036 42.1971 32.0976 42.4523 31.7724 42.6401L31.7728 42.6408C31.193 42.9757 30.4672 42.8308 30.0605 42.2991C29.6066 41.7057 29.2279 41.0526 28.9393 40.3618C28.6823 39.7466 28.9216 39.0428 29.4988 38.7087L29.4983 38.7078C29.8269 38.5181 30.2005 38.3881 30.1392 37.936C30.0537 37.305 30.0537 36.6944 30.1392 36.0635C30.2405 35.3165 29.2292 35.5261 28.9059 34.5689C28.8063 34.274 28.811 33.9446 28.9392 33.6376C29.2278 32.9467 29.6065 32.2937 30.0605 31.7003C30.4739 31.1599 31.226 31.0193 31.7962 31.3731L32.1366 31.5696L32.137 31.5689C32.3404 31.6863 32.5743 31.67 32.7605 31.5258C33.259 31.1392 33.7927 30.8304 34.3818 30.5894C35.0724 30.307 34.3907 29.5329 35.0568 28.7759C35.4351 28.346 35.9095 28.3193 36.4403 28.2856C37.0103 28.2494 37.5441 28.2665 38.1167 28.3398C38.7826 28.4251 39.2729 28.9835 39.2729 29.6509C39.2727 30.03 39.2024 30.4195 39.6183 30.5897ZM46.0825 36.5435H44.7275C44.1264 36.5435 44.1264 37.4565 44.7275 37.4565H46.0825C46.6836 37.4565 46.6836 36.5435 46.0825 36.5435ZM29.2713 36.5435H27.9162C27.3152 36.5435 27.3152 37.4565 27.9162 37.4565H29.2713C29.8722 37.4565 29.8722 36.5435 29.2713 36.5435ZM52.0323 34.316C52.0323 33.715 52.9454 33.715 52.9454 34.316V34.8918H53.4207C54.0218 34.8918 54.0218 35.8048 53.4207 35.8048H52.0443C51.5588 35.8048 51.5588 36.5435 52.0443 36.5435H52.8293C53.9605 36.5435 54.5459 37.9214 53.7354 38.7319C53.5289 38.9383 53.2524 39.0752 52.9454 39.103V39.6841C52.9454 40.2851 52.0323 40.2851 52.0323 39.6841V39.1082H51.255C50.6539 39.1082 50.6539 38.1952 51.255 38.1952H52.8293C53.3147 38.1952 53.3146 37.4565 52.8293 37.4565H52.0442C50.913 37.4565 50.3277 36.0786 51.1382 35.2681C51.3678 35.0386 51.6839 34.8951 52.0323 34.8919V34.316H52.0323ZM36.5435 51.5124C36.5435 50.9113 37.4565 50.9113 37.4565 51.5124V52.4368C37.4565 52.5784 37.3921 52.7049 37.2909 52.7886L36.7157 53.3386C36.5335 53.5118 36.2453 53.5046 36.0719 53.3225C35.8986 53.1403 35.9058 52.8521 36.088 52.6787L36.5435 52.2433V51.5124ZM39.5667 52.8933H39.4488C38.8477 52.8933 38.8477 51.9803 39.4488 51.9803H39.5667C39.377 50.9066 38.5303 50.0598 37.4565 49.8702V49.988C37.4565 50.5891 36.5435 50.5891 36.5435 49.988V49.8702C35.4697 50.0598 34.623 50.9066 34.4333 51.9803H34.5512C35.1523 51.9803 35.1523 52.8933 34.5512 52.8933H34.4333C34.623 53.9671 35.4697 54.8138 36.5435 55.0035V54.8856C36.5435 54.2846 37.4565 54.2846 37.4565 54.8856V55.0035C38.5303 54.8138 39.377 53.9671 39.5667 52.8933ZM37 48.9172C35.0563 48.9172 33.4804 50.4931 33.4804 52.4368C33.4804 54.3805 35.0563 55.9564 37 55.9564C38.9437 55.9564 40.5196 54.3805 40.5196 52.4368C40.5196 50.4931 38.9437 48.9172 37 48.9172ZM38.228 22.7207V19.1097C38.228 18.5087 39.1411 18.5087 39.1411 19.1097V22.7207H39.3351C39.9362 22.7207 39.9362 23.6338 39.3351 23.6338C37.7784 23.6338 36.2216 23.6338 34.6649 23.6338C34.0638 23.6338 34.0638 22.7207 34.6649 22.7207H34.8589V21.4928C34.8589 20.8917 35.772 20.8917 35.772 21.4928V22.7207H36.5435V20.1232C36.5435 19.5222 37.4565 19.5222 37.4565 20.1232V22.7207H38.228ZM21.3492 37.4565C20.7482 37.4565 20.7482 36.5435 21.3492 36.5435H21.7772C22.3782 36.5435 22.3782 37.4565 21.7772 37.4565H21.3492ZM23.0156 38.9135L22.9997 36.2493L22.0015 35.0864H20.1098V38.9134H23.0156V38.9135ZM23.9081 36.0771C23.9076 35.9649 23.8665 35.8623 23.7988 35.7833L23.7992 35.7829L22.5557 34.334C22.4656 34.2288 22.3381 34.1748 22.2097 34.1748V34.1735H19.6533C19.4012 34.1735 19.1967 34.3779 19.1967 34.63V39.37C19.1967 39.6221 19.4012 39.8265 19.6533 39.8265H23.4731C23.7252 39.8265 23.9296 39.6221 23.9296 39.37L23.9081 36.0771ZM16 37C16 40.2806 18.8242 42.8512 22.1003 42.5375C23.7088 46.8649 27.1351 50.2912 31.4625 51.8997C31.1488 55.176 33.7195 58 37 58C40.2805 58 42.8512 55.1759 42.5375 51.8997C46.865 50.2911 50.2912 46.8649 51.8997 42.5375C55.176 42.8512 58 40.2805 58 37C58 33.7195 55.1759 31.1488 51.8997 31.4625C50.2912 27.135 46.8649 23.7087 42.5375 22.1002C42.8512 18.8242 40.2806 16 37 16C33.7194 16 31.1488 18.8242 31.4625 22.1003C27.135 23.7089 23.7089 27.135 22.1003 31.4626C18.8251 31.1484 16 33.7191 16 37ZM23.01 31.6268C25.4071 32.2708 27.1264 34.4551 27.1264 37C27.1264 39.5449 25.407 41.7293 23.01 42.3732C24.5275 46.3204 27.6796 49.4725 31.6268 50.99C32.2707 48.593 34.4551 46.8737 37 46.8737C39.5449 46.8737 41.7293 48.5931 42.3732 50.99C46.3204 49.4725 49.4725 46.3204 50.99 42.3732C48.593 41.7293 46.8736 39.5449 46.8736 37C46.8736 34.4551 48.5929 32.2707 50.99 31.6268C49.4725 27.6796 46.3204 24.5274 42.3732 23.01C41.7293 25.407 39.5449 27.1264 37 27.1264C34.4551 27.1264 32.2707 25.4071 31.6268 23.01C27.6796 24.5275 24.5276 27.6796 23.01 31.6268ZM18.275 33.7118C16.4591 35.5277 16.4591 38.4722 18.275 40.2881C20.091 42.1041 23.0355 42.1041 24.8514 40.2881C26.6674 38.4722 26.6674 35.5277 24.8514 33.7118C23.0355 31.8959 20.091 31.8958 18.275 33.7118ZM33.7118 55.725C35.5277 57.5409 38.4723 57.5409 40.2881 55.725C42.1041 53.909 42.1041 50.9645 40.2881 49.1486C38.4722 47.3326 35.5277 47.3326 33.7118 49.1486C31.8959 50.9645 31.8958 53.909 33.7118 55.725ZM55.725 40.2882C57.5409 38.4723 57.5409 35.5278 55.725 33.7119C53.909 31.8959 50.9645 31.8959 49.1486 33.7119C47.3326 35.5278 47.3326 38.4723 49.1486 40.2882C50.9645 42.1042 53.909 42.1041 55.725 40.2882ZM40.2882 18.275C38.4723 16.4591 35.5278 16.4591 33.7119 18.275C31.8959 20.091 31.8959 23.0355 33.7119 24.8514C35.5278 26.6674 38.4724 26.6674 40.2882 24.8514C42.1041 23.0355 42.1042 20.091 40.2882 18.275ZM37 35.0788C38.5145 35.0788 39.3501 36.843 38.3982 38.0143C38.8595 38.1826 39.2838 38.4309 39.654 38.7467C41.0368 36.6495 39.5339 33.8232 37 33.8232C34.4661 33.8232 32.9632 36.6495 34.346 38.7467C34.7157 38.4313 35.1408 38.1824 35.6017 38.0144C34.6498 36.8427 35.4856 35.0788 37 35.0788ZM37.6277 36.2518C37.07 35.6941 36.1122 36.0908 36.1122 36.8795C36.1122 37.669 37.0708 38.0642 37.6277 37.5073C37.9744 37.1607 37.9744 36.5984 37.6277 36.2518ZM39.0487 39.4281C37.8687 38.4301 36.1314 38.4301 34.9514 39.4281C36.1334 40.4264 37.8666 40.4264 39.0487 39.4281ZM37 32.9101C35.8707 32.9101 34.8482 33.3679 34.108 34.108C32.5108 35.7052 32.5108 38.2947 34.108 39.8919C35.7052 41.4891 38.2947 41.4891 39.8919 39.8919C40.632 39.1518 41.0898 38.1293 41.0898 36.9999C41.0899 34.7413 39.2587 32.9101 37 32.9101ZM40.0052 31.7906C39.7667 31.6527 39.523 31.5324 39.2759 31.4313C38.7141 31.2015 38.3596 30.6752 38.3596 30.0709C38.3596 29.7862 38.4363 29.2978 38.0023 29.2424C37.3539 29.1595 36.6459 29.1593 35.9975 29.2424C35.7931 29.2686 35.6402 29.4412 35.6402 29.6512C35.6402 30.1241 35.6756 30.4703 35.3924 30.8921C35.2339 31.1281 35.0055 31.3163 34.724 31.4314C34.2268 31.6348 33.7425 31.9162 33.3165 32.2465C32.8371 32.6183 32.2061 32.6609 31.6802 32.3574L31.6807 32.3566C31.4384 32.2167 31.0502 31.906 30.7843 32.2535C30.3769 32.7861 30.0401 33.3665 29.7807 33.9875C29.6998 34.1812 29.7712 34.3988 29.9528 34.5037C30.3628 34.7405 30.6841 34.8849 30.9071 35.3394C31.1396 35.8133 31.0325 36.1169 31.0006 36.591C30.9736 36.9913 30.9881 37.4228 31.0412 37.815C31.1223 38.4124 30.8415 38.9835 30.3199 39.2853L29.9545 39.4963L29.954 39.4954C29.7705 39.6035 29.6993 39.8177 29.7807 40.0125C30.0401 40.6335 30.3769 41.2141 30.7842 41.7465C30.9098 41.9107 31.137 41.9561 31.316 41.8528L31.3165 41.8536C31.7178 41.6175 32.0193 41.4109 32.5156 41.4447C32.7998 41.4641 33.0769 41.5678 33.3164 41.7536C33.7424 42.084 34.2267 42.3653 34.724 42.5687C35.2859 42.7985 35.6402 43.3249 35.6402 43.9292C35.6402 44.214 35.5635 44.7021 35.9975 44.7576C36.6462 44.8407 37.3536 44.8407 38.0023 44.7576C38.2067 44.7314 38.3596 44.5588 38.3596 44.3488C38.3596 43.876 38.3243 43.53 38.6074 43.1083C38.7658 42.8722 38.9944 42.6841 39.2759 42.5689C39.7731 42.3656 40.2575 42.0842 40.6835 41.7537C41.1625 41.3821 41.7948 41.3396 42.3198 41.6427L42.6837 41.8529L42.6832 41.8536C42.8621 41.9561 43.0899 41.9107 43.2155 41.7465C43.6227 41.2142 43.9599 40.6332 44.2192 40.0125C44.3003 39.8181 44.229 39.6024 44.0452 39.4963L44.0457 39.4954C43.6361 39.259 43.3154 39.1147 43.0926 38.6605C42.8599 38.1863 42.9672 37.8828 42.9992 37.409C43.0261 37.0086 43.0118 36.5772 42.9585 36.1849C42.8775 35.5879 43.1581 35.016 43.6798 34.7146C43.936 34.5666 44.3894 34.3948 44.2191 33.9874C43.9596 33.3663 43.6229 32.7861 43.2155 32.2535C43.0899 32.0892 42.8627 32.0437 42.6837 32.1471L42.6832 32.1463C42.282 32.3824 41.9807 32.5891 41.4841 32.5552C41.2 32.5359 40.9228 32.4321 40.6833 32.2463C40.4695 32.0805 40.2429 31.928 40.0052 31.7906Z" fill="black"/>
</svg>
