<svg width="74" height="74" viewBox="0 0 74 74" fill="none" xmlns="http://www.w3.org/2000/svg">
<rect width="74" height="74" rx="37" fill="white"/>
<path d="M36.9959 21.7396C37.9541 21.7396 38.8197 21.1618 39.1867 20.2767C39.5537 19.3916 39.3517 18.3713 38.6733 17.6935C37.9949 17.0158 36.9737 16.8139 36.0877 17.1806C35.2018 17.5473 34.6235 18.412 34.6235 19.3694C34.6235 19.999 34.8719 20.6008 35.3185 21.0453C35.7634 21.4915 36.3657 21.7396 36.9959 21.7396ZM36.9959 17.7954C37.6335 17.7954 38.2081 18.1805 38.4509 18.7694C38.6955 19.3583 38.5584 20.0342 38.108 20.4841C37.6557 20.9341 36.9774 21.0674 36.3898 20.823C35.8004 20.5767 35.4186 20.0027 35.4204 19.3657C35.4223 18.4972 36.1266 17.7954 36.9959 17.7954ZM49.4844 26.8782C50.4408 26.8763 51.3045 26.2986 51.6697 25.4153C52.0367 24.5302 51.8346 23.5136 51.1581 22.8358C50.5984 22.2747 49.7958 22.0303 49.0174 22.184C48.2389 22.3377 47.5902 22.871 47.2863 23.6024C46.9823 24.3339 47.0657 25.169 47.5068 25.8282C47.9498 26.4856 48.6911 26.8801 49.4844 26.8782ZM48.3686 23.3987C48.984 22.7858 49.9793 22.7858 50.5946 23.3987C51.2081 24.0135 51.2081 25.0079 50.5946 25.6227C50.3036 25.9412 49.8958 26.1264 49.4659 26.1375C49.0359 26.1467 48.6188 25.9801 48.3148 25.6764C48.0109 25.3727 47.8441 24.9561 47.8533 24.5264C47.8645 24.0968 48.0498 23.6895 48.3686 23.3987ZM51.8142 34.9149C51.9124 34.8463 51.9792 34.7389 51.994 34.6204C52.0033 34.5019 51.9606 34.3853 51.8791 34.2982L49.4084 31.8132V28.3707V28.3726C49.4047 28.2541 49.351 28.143 49.2601 28.0689C49.1693 27.993 49.0488 27.9634 48.9339 27.9837C48.1221 28.1522 47.2788 27.9022 46.6931 27.3171C46.1055 26.7301 45.8553 25.8894 46.0239 25.0783C46.0462 24.9616 46.0147 24.8413 45.9387 24.7505C45.8645 24.6598 45.7533 24.6061 45.6347 24.6043H42.128L39.6851 22.1766C39.598 22.0951 39.4812 22.0525 39.3626 22.0618C39.244 22.0766 39.1365 22.1433 39.0679 22.2433C38.6138 22.9339 37.8409 23.3506 37.0124 23.3506C36.1839 23.3506 35.411 22.9339 34.9551 22.2433C34.8865 22.1433 34.7809 22.0766 34.6604 22.0618C34.5418 22.0525 34.425 22.0951 34.3379 22.1766L31.832 24.6265H28.3864H28.3883C28.2697 24.6302 28.1585 24.6839 28.0843 24.7746C28.0083 24.8654 27.9787 24.9857 27.9991 25.1005C28.1659 25.9116 27.9138 26.7523 27.3281 27.3375C26.7424 27.9227 25.9009 28.1745 25.091 28.0078C24.9724 27.9819 24.85 28.0116 24.7574 28.0875C24.6647 28.1634 24.6091 28.2764 24.6054 28.3967V31.9002L22.1755 34.3408H22.1773C22.0958 34.4279 22.0531 34.5445 22.0624 34.6631C22.0772 34.7816 22.144 34.889 22.2441 34.9575C22.9354 35.4112 23.3524 36.1833 23.3524 37.0111C23.3524 37.8388 22.9354 38.611 22.2441 39.0665C22.144 39.135 22.0772 39.2406 22.0624 39.3609C22.0531 39.4795 22.0958 39.5961 22.1773 39.6831L24.6498 42.1664V45.6088C24.6517 45.7273 24.7054 45.8384 24.7963 45.9125C24.8871 45.9865 25.0076 46.018 25.1243 45.9977C25.9343 45.8273 26.7776 46.0791 27.3633 46.6643C27.9509 47.2513 28.2011 48.092 28.0325 48.9031C28.0065 49.0197 28.0362 49.1419 28.1122 49.2345C28.1882 49.329 28.3012 49.3827 28.4217 49.3864H31.9284L34.3713 51.8085C34.4454 51.8844 34.5455 51.927 34.6512 51.927H34.6938C34.8124 51.9122 34.9199 51.8474 34.9885 51.7474C35.4444 51.0567 36.2173 50.6401 37.0458 50.6401C37.8725 50.6401 38.6472 51.0567 39.1013 51.7474C39.1699 51.8474 39.2774 51.9122 39.396 51.927C39.5165 51.9363 39.6332 51.8937 39.7185 51.8085L42.204 49.3438H45.6496C45.7701 49.3401 45.8831 49.2864 45.9573 49.192C46.0351 49.0994 46.0648 48.9772 46.0388 48.8605C45.8683 48.0494 46.1204 47.2087 46.7061 46.6217C47.2936 46.0365 48.1351 45.7847 48.9469 45.9551C49.0655 45.9792 49.186 45.9495 49.2787 45.8736C49.3732 45.7977 49.4288 45.6866 49.4307 45.5662V42.0627L51.8606 39.6221C51.9421 39.5351 51.9848 39.4184 51.9755 39.2999C51.9607 39.1795 51.8939 39.0721 51.7938 39.0054C51.1025 38.5499 50.6855 37.7778 50.6855 36.95C50.6855 36.1223 51.1025 35.3501 51.7938 34.8946L51.8142 34.9149ZM48.6114 32.5446C48.6114 32.6687 48.4112 32.7872 48.2277 32.8335H48.2259C48.0331 32.8909 47.8237 32.8353 47.6847 32.6909L47.6365 32.6428H47.6384C47.6254 32.6057 47.618 32.565 47.6143 32.5242V32.4539C47.6143 32.2557 47.7218 32.0743 47.8941 31.9798C48.0609 31.8854 48.2834 31.828 48.3686 31.9132L48.6114 32.1557L48.6114 32.5446ZM42.2001 38.4499L47.5661 39.2183C47.4642 39.5517 47.3418 39.8794 47.201 40.1998C47.062 40.5072 46.9471 40.8238 46.8544 41.1479C46.7543 41.3423 46.6505 41.5849 46.5263 41.8867H46.5282C46.4003 42.2108 46.2539 42.5275 46.0907 42.8348L41.7684 39.5887C41.2179 39.1165 40.4006 39.1331 39.8705 39.6257L39.6944 39.8016C39.2014 40.3312 39.1847 41.1478 39.6574 41.6978L42.9121 46.0069C42.6044 46.1717 42.2874 46.3161 41.9631 46.4439C41.648 46.5624 41.3422 46.7031 41.0475 46.8642C40.8436 46.9309 40.6008 47.0309 40.2931 47.1587C39.9725 47.2994 39.6444 47.4198 39.3108 47.5235L38.5379 42.1719C38.4786 41.4553 37.8929 40.896 37.1756 40.8683H36.9291C36.2118 40.8997 35.6316 41.4571 35.5723 42.1719L34.8031 47.5329C34.4695 47.4311 34.1415 47.3089 33.8208 47.1681C33.5131 47.0293 33.1962 46.9144 32.8718 46.8219C32.6772 46.7219 32.4344 46.6182 32.1267 46.4941V46.4959C31.8024 46.3682 31.4854 46.2219 31.1778 46.0589L34.4325 41.7406C34.9051 41.1906 34.8884 40.374 34.3954 39.8444L34.2193 39.6685C33.6892 39.1759 32.8719 39.1593 32.3214 39.6315L28.0084 42.8776C27.8434 42.5721 27.697 42.2554 27.571 41.9295C27.4523 41.6147 27.3115 41.3092 27.1502 41.0147C27.0835 40.811 26.9834 40.5685 26.8555 40.2611C26.7147 39.9407 26.5942 39.6148 26.4904 39.2797L31.8564 38.5112V38.513C32.5718 38.4538 33.1297 37.8723 33.1612 37.1557V36.9057C33.1297 36.1891 32.5718 35.6094 31.8564 35.5502L26.4814 34.7817C26.5815 34.4465 26.7038 34.1188 26.8465 33.8003C26.9855 33.4929 27.1004 33.1762 27.1931 32.8522C27.2932 32.6577 27.397 32.4152 27.5212 32.1078H27.5193C27.6491 31.7837 27.7936 31.4689 27.9567 31.1597L32.279 34.4114C32.5515 34.6206 32.8832 34.7391 33.228 34.7484C33.582 34.7577 33.9249 34.6225 34.177 34.3743L34.3531 34.1984C34.8461 33.6688 34.8628 32.8522 34.3901 32.3022L31.1354 27.9932C31.4431 27.8284 31.76 27.6839 32.0844 27.5562C32.3976 27.4395 32.7035 27.2988 32.9963 27.1358C33.2058 27.0692 33.4467 26.9692 33.7563 26.8414H33.7544C34.0751 26.7007 34.4031 26.5803 34.7367 26.4766L35.5004 31.8376C35.5597 32.5543 36.1435 33.1135 36.8627 33.1413H37.1092C37.8265 33.1098 38.4066 32.5524 38.4659 31.8376L39.2351 26.4766C39.5688 26.5784 39.8968 26.7007 40.2175 26.8414C40.5251 26.9803 40.8421 27.0951 41.1664 27.1877C41.3611 27.2877 41.6039 27.3914 41.906 27.5154V27.5136C42.2303 27.6414 42.5473 27.7876 42.855 27.9506L39.6151 32.2596C39.1425 32.8096 39.1591 33.6262 39.6522 34.1558L39.8282 34.3318C40.0729 34.5725 40.4047 34.7077 40.7494 34.7058C41.0923 34.6966 41.4241 34.578 41.6984 34.3688L46.0392 31.1171C46.2042 31.4245 46.3487 31.7411 46.4766 32.0652C46.5934 32.3781 46.7343 32.6837 46.8974 32.9763C46.9641 33.1855 47.0642 33.4262 47.1921 33.7299C47.3311 34.0503 47.4534 34.3799 47.5572 34.715L42.2007 35.4872C41.4834 35.5465 40.9237 36.1316 40.8959 36.8483V37.0945C40.9274 37.8112 41.4853 38.3908 42.2007 38.4501L42.2001 38.4499ZM48.6541 41.7682L48.3687 42.0534C48.2834 42.1386 48.061 42.0867 47.8942 41.9867C47.7218 41.8923 47.6143 41.7108 47.6143 41.5127V41.446C47.631 41.4108 47.6532 41.3775 47.681 41.3479L47.7292 41.296L47.7274 41.2942C47.8682 41.1497 48.0758 41.0942 48.2686 41.1534C48.4539 41.2016 48.6522 41.3201 48.6522 41.4423L48.6541 41.7682ZM41.4832 48.577C41.359 48.577 41.2404 48.377 41.194 48.1937V48.1919C41.1366 47.9993 41.1922 47.79 41.3368 47.6512L41.3849 47.603V47.6049C41.422 47.5919 41.4628 47.5845 41.5036 47.5808H41.574C41.7723 47.5808 41.954 47.6882 42.0485 47.8604C42.143 48.0271 42.2005 48.2493 42.1152 48.3345L41.8724 48.577L41.4832 48.577ZM32.8959 48.2344C32.8477 48.4196 32.7291 48.6178 32.6068 48.6178L32.2787 48.6196L31.9933 48.3344C31.908 48.2493 31.9599 48.027 32.06 47.8604C32.1545 47.6863 32.338 47.5789 32.5345 47.5808H32.6012C32.6383 47.5974 32.6716 47.6197 32.7013 47.6474L32.7532 47.6956V47.6937C32.8978 47.8345 32.9534 48.0419 32.8959 48.2344ZM25.4355 41.455C25.4355 41.331 25.6301 41.2125 25.8192 41.1662H25.8211C26.0138 41.1088 26.2233 41.1643 26.3623 41.3087L26.4104 41.3569H26.4086C26.4216 41.3939 26.429 41.4347 26.4327 41.4754V41.5458C26.4327 41.7439 26.3252 41.9254 26.1528 42.0198C25.986 42.1143 25.7636 42.1717 25.6783 42.0865L25.4355 41.8439L25.4355 41.455ZM25.3929 32.2594L25.6783 31.9742C25.7636 31.889 25.986 31.9409 26.1528 32.0353V32.0372C26.3252 32.1316 26.4327 32.3131 26.4327 32.5112V32.5779C26.416 32.6131 26.3938 32.6464 26.366 32.676L26.3178 32.7279H26.3196C26.1788 32.8742 25.9712 32.9279 25.7784 32.8705C25.5931 32.8223 25.3948 32.7038 25.3948 32.5816L25.3929 32.2594ZM32.5638 25.4226C32.688 25.4226 32.8066 25.6226 32.853 25.8059V25.8078C32.9104 26.0004 32.8548 26.2096 32.7103 26.3485L32.6621 26.3966V26.3948C32.625 26.4077 32.5842 26.4152 32.5434 26.4189H32.473C32.2747 26.4189 32.0931 26.3115 31.9985 26.1392C31.904 25.9726 31.8465 25.7504 31.9318 25.6652L32.1746 25.4226L32.5638 25.4226ZM41.153 25.7633C41.2012 25.5782 41.3198 25.38 41.4422 25.38H41.7684L42.0538 25.6652C42.1391 25.7504 42.0872 25.9726 41.9871 26.1393C41.8907 26.3115 41.7091 26.4189 41.5126 26.4189H41.4459C41.4088 26.4022 41.3754 26.38 41.3458 26.3522L41.2939 26.3041V26.3059C41.1493 26.1652 41.0937 25.9578 41.1512 25.7652L41.153 25.7633ZM46.1091 27.8799C46.7652 28.5354 47.6697 28.8799 48.5964 28.828V31.1316C48.222 31.0112 47.8143 31.0649 47.4862 31.2779C47.3528 31.3557 47.236 31.4557 47.1341 31.5723C46.8116 30.8001 46.5836 30.3502 46.2129 30.2501H46.2148C46.0516 30.2001 45.8737 30.2353 45.7403 30.339L41.2178 33.724C40.9899 33.9462 40.6303 33.9611 40.3819 33.7629L40.2058 33.587H40.2077C40.0001 33.3315 40.0224 32.9611 40.2596 32.7333L43.6663 28.2354C43.7719 28.1002 43.8053 27.9243 43.7571 27.7613C43.657 27.3965 43.2159 27.1688 42.4523 26.8503C42.8563 26.4781 43.0102 25.9059 42.8452 25.3799H45.1806C45.1176 26.3077 45.4548 27.2188 46.1091 27.8799ZM34.56 23.0432C35.1791 23.7339 36.065 24.1302 36.9918 24.1302C37.9203 24.1302 38.8044 23.7339 39.4235 23.0432L41.0564 24.6746C40.7079 24.8561 40.4596 25.182 40.378 25.5653C40.3373 25.7208 40.3243 25.8801 40.3391 26.0393C39.5607 25.7208 39.0862 25.5653 38.7488 25.7542L38.7507 25.756C38.6042 25.8356 38.5042 25.9819 38.4838 26.1486L37.6812 31.7429C37.633 32.0466 37.444 32.3595 37.1159 32.3595H36.8694C36.5376 32.3595 36.3467 32.0466 36.3041 31.7429L35.5053 26.1211C35.483 25.9544 35.3829 25.8063 35.2346 25.7267C34.9066 25.5378 34.4376 25.6933 33.674 26.0007V26.0026C33.6759 25.8656 33.6592 25.7304 33.6258 25.5989C33.548 25.1934 33.2792 24.8489 32.9048 24.6749L34.56 23.0432ZM27.9172 27.9207V27.9226C28.5751 27.267 28.9199 26.3634 28.8662 25.4375H31.1737C31.0532 25.8115 31.107 26.2189 31.3201 26.5467C31.398 26.68 31.4981 26.7967 31.6148 26.8985C30.842 27.2207 30.3916 27.4485 30.2915 27.8188L30.2896 27.817C30.2414 27.9799 30.2748 28.1577 30.3804 28.291L33.7723 32.8093C33.991 33.0408 34.0058 33.3963 33.8056 33.6444L33.6295 33.8204L33.6314 33.8185C33.3719 34.0407 32.9827 34.0185 32.7528 33.7667L28.2507 30.3631C28.1173 30.2539 27.9394 30.2187 27.7763 30.2724C27.4111 30.3724 27.1887 30.8131 26.8643 31.5705V31.5723C26.7717 31.4723 26.6642 31.3853 26.5474 31.3168C26.2045 31.0927 25.7782 31.0427 25.3927 31.1835V28.8502C26.3213 28.9132 27.2332 28.5762 27.8948 27.9225L27.9172 27.9207ZM24.1417 37.0277C24.1417 36.1018 23.7469 35.2185 23.0537 34.6019L24.6866 32.9705C24.8682 33.3186 25.1944 33.5668 25.5781 33.6482C25.7338 33.689 25.8932 33.7019 26.0526 33.6871C25.7338 34.4649 25.5781 34.9389 25.7671 35.276L25.769 35.2741C25.8487 35.4204 25.9951 35.5204 26.1619 35.5408L31.7614 36.3426V36.3407C32.0783 36.3481 32.3434 36.5889 32.3786 36.9055V37.1518C32.3452 37.4684 32.0802 37.711 31.7614 37.7166L26.1344 38.5165C25.9676 38.5388 25.8193 38.6387 25.7396 38.7869C25.5506 39.1147 25.7063 39.5832 26.0195 40.3461C25.8823 40.3442 25.7452 40.3591 25.6117 40.3887C25.2058 40.4702 24.8611 40.7387 24.6869 41.1145L23.041 39.4609C23.7379 38.8443 24.138 37.9591 24.1417 37.0277ZM27.9376 46.12C27.2815 45.4645 26.3769 45.12 25.4502 45.1719V42.872V42.8739C25.5688 42.9164 25.6949 42.9368 25.8209 42.935C26.0823 42.9294 26.3362 42.8572 26.5605 42.722C26.6939 42.6424 26.8125 42.5405 26.9126 42.4239C27.2351 43.2016 27.4631 43.6516 27.8338 43.7516L27.8319 43.7497C27.995 43.7997 28.173 43.7664 28.3064 43.6609L32.8289 40.2722V40.2703C33.0605 40.0536 33.4164 40.0388 33.6648 40.237L33.8408 40.4073L33.839 40.4092C34.0484 40.6647 34.0243 41.0369 33.7871 41.2666L30.3804 45.7645C30.2748 45.8997 30.2414 46.0756 30.2896 46.2385C30.3897 46.6033 30.8308 46.8256 31.5889 47.1496H31.5907C31.4906 47.2422 31.4035 47.3496 31.3349 47.4663C31.1125 47.8088 31.0643 48.2348 31.2015 48.6199H28.8661C28.9291 47.6922 28.5918 46.7811 27.9376 46.12ZM39.4866 50.9511C38.8657 50.2641 37.9816 49.8697 37.0549 49.8697C36.1263 49.8697 35.244 50.2641 34.6231 50.9511L32.9902 49.3252C33.3387 49.1437 33.587 48.8178 33.6686 48.4345C33.7094 48.279 33.7223 48.1197 33.7075 47.9605C34.4859 48.2827 34.9604 48.4345 35.2978 48.2493H35.2959C35.4424 48.166 35.5425 48.0179 35.5628 47.8512L36.3654 42.2626H36.3635C36.371 41.9441 36.6119 41.6812 36.9288 41.646H37.1754C37.4923 41.6793 37.7351 41.9441 37.7407 42.2626L38.5414 47.8754C38.5617 48.0439 38.6618 48.192 38.812 48.2735C39.14 48.4624 39.609 48.3069 40.3726 47.9939C40.3707 48.1309 40.3856 48.268 40.4208 48.4013C40.4986 48.8068 40.7674 49.1512 41.1418 49.3253L39.4866 50.9511ZM46.1294 46.0773C45.4715 46.7329 45.1267 47.6365 45.1805 48.5624H42.8729C42.9934 48.1884 42.9396 47.781 42.7265 47.4532C42.6486 47.3199 42.5467 47.2014 42.4281 47.1014C43.2065 46.7792 43.6569 46.5514 43.757 46.1811V46.1829C43.8052 46.02 43.7718 45.8422 43.6662 45.7089L40.2966 41.2054C40.0797 40.9739 40.0649 40.6184 40.2632 40.3702L40.4393 40.1943C40.5301 40.1017 40.6561 40.0517 40.7859 40.0536C40.9582 40.0629 41.1232 40.124 41.2604 40.2277L45.7958 43.6368C45.9311 43.7423 46.1072 43.7756 46.2703 43.7275C46.6354 43.6275 46.8578 43.1868 47.1822 42.4239C47.273 42.5257 47.3805 42.6146 47.4991 42.6831C47.7234 42.8183 47.9792 42.8924 48.2405 42.8979C48.3814 42.8961 48.5223 42.8664 48.6539 42.8127V45.1497C47.7253 45.0867 46.8134 45.4237 46.1517 46.0774L46.1294 46.0773ZM49.8827 36.9703V36.9722C49.8809 37.8981 50.2775 38.7814 50.9689 39.398L49.3601 41.0294C49.1784 40.6813 48.8522 40.4332 48.4686 40.3517C48.3129 40.3109 48.1535 40.298 47.9941 40.3128C48.3166 39.535 48.4686 39.0573 48.2832 38.7239V38.7258C48.2017 38.5795 48.0552 38.4795 47.8884 38.4591L42.289 37.6573C41.9813 37.6092 41.6718 37.4203 41.6718 37.0925V36.8463L41.6736 36.8481C41.707 36.5315 41.9721 36.2889 42.2909 36.2833L47.9363 35.4834C48.1031 35.4611 48.2495 35.3612 48.3292 35.213C48.5183 34.8852 48.3626 34.4112 48.0494 33.6483C48.1884 33.6557 48.3255 33.6409 48.459 33.6057C48.8556 33.5223 49.1893 33.2538 49.3598 32.8854L51.0057 34.539C50.3087 35.1556 49.9084 36.0408 49.9047 36.9722L49.8827 36.9703ZM54.6276 34.6001V34.6019C53.6675 34.6019 52.8019 35.1797 52.4349 36.0648C52.068 36.95 52.27 37.9703 52.9502 38.648C53.6286 39.3258 54.648 39.5276 55.5339 39.1609C56.4217 38.7943 57 37.9295 57 36.9721C57.0019 35.6796 55.9676 34.6223 54.6739 34.5963L54.6276 34.6001ZM54.6276 38.5443V38.5462C53.9881 38.548 53.4136 38.1647 53.1671 37.5759C52.9224 36.987 53.0577 36.3092 53.5081 35.8593C53.9585 35.4074 54.6387 35.2741 55.2263 35.5185C55.8157 35.763 56.1994 36.3389 56.1975 36.9759C56.192 37.8221 55.521 38.5128 54.674 38.5406L54.6276 38.5443ZM47.8458 47.7698C47.1674 48.4476 46.9653 49.4679 47.3324 50.353C47.6993 51.24 48.5649 51.8178 49.5232 51.8178C50.4832 51.8178 51.3488 51.24 51.7158 50.353C52.0828 49.4679 51.8789 48.4476 51.2006 47.7698C50.2738 46.8458 48.7725 46.8458 47.8458 47.7698ZM50.6371 50.5586C50.1867 51.0086 49.5083 51.1438 48.9189 50.9012C48.3295 50.6567 47.9458 50.0827 47.9458 49.4457C47.9458 48.8087 48.3295 48.2346 48.9189 47.9921C49.5083 47.7476 50.1867 47.8828 50.6371 48.3346C51.2506 48.9494 51.2506 49.9438 50.6371 50.5586ZM37.0511 52.2604C36.0929 52.2604 35.2273 52.8382 34.8603 53.7233C34.4933 54.6084 34.6953 55.6287 35.3737 56.3065C36.0521 56.9842 37.0733 57.1861 37.9593 56.8194C38.8452 56.4527 39.4235 55.5879 39.4235 54.6306C39.4235 54.001 39.1751 53.3992 38.7285 52.9547C38.2836 52.5085 37.6813 52.2604 37.0511 52.2604ZM37.0511 56.2046C36.4135 56.2046 35.8389 55.8195 35.5961 55.2306C35.3515 54.6417 35.4886 53.9658 35.939 53.5159C36.3913 53.0659 37.0696 52.9325 37.6572 53.177C38.2466 53.4233 38.6284 53.9973 38.6266 54.6343C38.6247 55.5028 37.9204 56.2046 37.0511 56.2046ZM24.5626 47.1161C23.432 47.1161 22.4571 47.9142 22.2365 49.0234C22.0141 50.1308 22.6072 51.2418 23.6526 51.6752C24.6979 52.1085 25.9045 51.7455 26.5347 50.8049C27.163 49.866 27.0426 48.6142 26.2437 47.8124C25.8007 47.3643 25.1947 47.1124 24.5626 47.1161ZM25.6784 50.6012C25.304 50.9678 24.772 51.1234 24.2605 51.0197C23.7471 50.9141 23.3189 50.5623 23.1188 50.0771C22.9186 49.5938 22.9724 49.042 23.2633 48.6068C23.5525 48.1716 24.0399 47.9068 24.5626 47.9031C25.1984 47.905 25.773 48.2864 26.0158 48.8734C26.2604 49.4605 26.127 50.1364 25.6784 50.5863L25.6784 50.6012ZM19.3729 34.6574C18.4129 34.6574 17.5472 35.2352 17.1803 36.1221C16.8133 37.0073 17.0172 38.0257 17.6955 38.7035C18.3739 39.3831 19.3933 39.5849 20.2811 39.2182C21.1671 38.8516 21.7453 37.9868 21.7453 37.0276C21.7453 36.3999 21.4951 35.7962 21.0503 35.3517C20.6055 34.9073 20.0013 34.6574 19.3729 34.6574ZM19.3729 38.6017C18.7353 38.6017 18.1608 38.2183 17.918 37.6313C17.6733 37.0424 17.8086 36.3647 18.259 35.9147C18.7094 35.4647 19.3859 35.3314 19.9753 35.574C20.5647 35.8184 20.9484 36.3925 20.9484 37.0276C20.9484 37.4461 20.7816 37.8461 20.4869 38.1406C20.1903 38.4368 19.79 38.6017 19.3729 38.6017ZM24.5202 26.9206C25.1503 26.9224 25.7546 26.6743 26.2013 26.2299C27.128 25.304 27.1299 23.8022 26.2031 22.8745C25.2764 21.9486 23.7732 21.9468 22.8465 22.8726C22.17 23.5504 21.968 24.5688 22.335 25.4521C22.7001 26.3373 23.5638 26.915 24.5202 26.9169L24.5202 26.9206ZM23.41 23.4411C24.0253 22.8282 25.0206 22.8282 25.636 23.4411C26.2013 24.0633 26.179 25.0206 25.5841 25.6132C24.9891 26.2076 24.0327 26.2317 23.41 25.6651C22.7965 25.0503 22.7965 24.0559 23.41 23.4411Z" fill="black"/>
</svg>
