<svg width="24" height="24" viewBox="0 0 24 24" fill="none" xmlns="http://www.w3.org/2000/svg">
<path fill-rule="evenodd" clip-rule="evenodd" d="M21.514 1.14367C21.8091 1.01646 22.1321 0.972584 22.4493 1.01661C22.7666 1.06064 23.0665 1.19096 23.3179 1.39401C23.5693 1.59706 23.763 1.86542 23.8788 2.17114C23.9946 2.47687 24.0282 2.8088 23.9762 3.13237L21.268 19.9581C21.0053 21.5811 19.2667 22.5118 17.8135 21.7034C16.5979 21.027 14.7924 19.985 13.1684 18.8977C12.3564 18.3534 9.86912 16.6106 10.1748 15.3704C10.4375 14.31 14.6169 10.3252 17.0051 7.95614C17.9424 7.02539 17.515 6.48846 16.408 7.34461C13.6592 9.4703 9.2458 12.7029 7.78661 13.6128C6.49937 14.4152 5.82828 14.5521 5.02584 14.4152C3.56187 14.1656 2.20418 13.7792 1.09605 13.3083C-0.401352 12.6723 -0.328512 10.5637 1.09486 9.94974L21.514 1.14367Z" fill="#ECEAE6"/>
</svg>
