<svg width="162" height="137" viewBox="0 0 162 137" fill="none" xmlns="http://www.w3.org/2000/svg">
<path fill-rule="evenodd" clip-rule="evenodd" d="M159.08 32.9864L132.058 17.3463L102.117 0L72.1749 17.3392L45.1536 32.9864L102.117 65.9656L159.08 32.9864ZM12.3977 43.5647H24.8097V31.1309H12.3977V43.5647ZM0 68.4396H12.3977V56.0057H0V68.4396ZM24.8097 80.8663H37.1932V68.4396H49.6193V80.8663H37.1932V93.3002H42.2331V104.021L72.1749 121.36L99.1819 137V71.0344L42.2331 38.0623V43.5647H49.6193V55.9986H37.1932V68.4325H24.8097V80.8663ZM12.4119 93.3073H24.8097V80.8734H12.3977V93.3073H12.4119ZM105.051 137L132.058 121.36L162 104.021V38.0623L105.051 71.0344V137ZM123.985 105.72H136.382V93.3073H123.985V105.741V105.72ZM111.587 93.286H123.985V80.8734H111.587V93.3073V93.286ZM74.429 80.8663H86.8267V68.4325H74.429V80.8663ZM49.6193 68.4396H61.9958V56.0057H49.6193V68.4396ZM49.6193 93.3215H61.9958V80.8734H49.6193V93.3073V93.3215ZM74.429 43.5576H86.8267V31.1309H74.429V43.5647V43.5576Z" fill="#4A4A4A"/>
</svg>
