<svg width="408" height="450" viewBox="0 0 408 450" fill="none" xmlns="http://www.w3.org/2000/svg">
<g opacity="0.2">
<path d="M603.675 371.276L646.684 322.635C648.502 320.582 650.137 318.372 651.568 316.033C652.984 313.754 654.134 311.32 654.993 308.778C655.435 289.635 633.365 281.958 618.971 273.322C614.173 270.443 607.456 266.605 609.375 260.847C614.173 243.575 638.162 238.777 638.047 218.712C638.268 216.514 638.354 214.307 638.585 212.12C638.809 209.92 639.19 207.739 639.727 205.594L651.635 158.047C652.298 155.384 652.729 152.667 652.921 149.929C653.105 147.233 653.054 144.527 652.767 141.84C651.597 136.082 649.677 130.325 643.92 129.365C613.213 123.608 587.305 112.093 595.941 75.6286C595.941 73.7094 593.062 69.8711 591.143 67.1555C585.798 61.9488 581.768 55.5446 579.388 48.4724L564.543 4.01495C561.954 -3.72569 557.374 -10.6491 551.263 -16.0607C545.153 -21.4722 537.727 -25.1816 529.73 -26.8164L497.977 -33.2648C489.262 -35.0287 481.234 -39.2509 474.842 -45.4323L431.967 -86.9055C426.096 -92.5867 418.833 -96.6222 410.908 -98.6065C402.982 -100.591 394.675 -100.454 386.819 -98.2094L311.098 -76.5804C303.917 -74.5262 296.347 -74.2333 289.028 -75.7264L247.526 -84.1611C239.519 -85.7887 231.224 -85.28 223.476 -82.686C215.728 -80.092 208.799 -75.5041 203.385 -69.3835L193.962 -58.7417C191.746 -56.3286 189.658 -53.8014 187.706 -51.1706C178.523 -39.5021 187.159 -23.1892 179.482 -11.6742C166.048 9.43659 137.26 -15.5126 117.109 -16.4721C112.311 -16.4721 107.513 -17.4317 102.562 -15.8484C99.9778 -14.9514 97.5496 -13.6564 95.3651 -12.0101C86.5406 -5.58503 80.2512 3.73358 77.5936 14.3209L59.9469 84.9365C58.1324 92.1788 54.6045 98.8792 49.6602 104.474L12.6779 146.292C7.26557 152.412 3.55957 159.849 1.93241 167.855C0.305259 175.861 0.814284 184.154 3.40832 191.901L6.69969 201.737C7.65927 204.548 8.70522 207.715 9.78954 210.882C19.2318 229.181 41.3022 232.06 56.6555 244.534C59.5343 247.413 58.5747 252.211 55.696 256.049C40.3426 273.322 13.4743 280.039 8.26381 304.499C8.09328 307.475 8.17353 310.46 8.5037 313.423C9.47607 322.874 13.7026 331.693 20.4601 338.372L23.3388 341.174L59.5535 376.218C64.919 381.408 68.9573 387.813 71.3276 394.891L94.7702 464.941C97.3638 472.689 101.952 479.618 108.073 485.03C114.195 490.442 121.634 494.147 129.641 495.772L183.983 506.817C192.695 508.561 200.727 512.763 207.128 518.927L227.394 538.541C233.265 544.229 240.531 548.27 248.46 550.257C256.389 552.245 264.702 552.109 272.562 549.864L312.95 538.349C320.131 536.293 327.701 535.997 335.021 537.485L411.855 553.107C419.862 554.736 428.157 554.228 435.905 551.633C443.654 549.039 450.583 544.451 455.995 538.33L495.338 493.863C501.217 487.214 508.875 482.386 517.409 479.949L549.42 470.794C557.266 468.545 564.382 464.272 570.054 458.404C575.727 452.536 579.756 445.279 581.739 437.362L593.388 390.832C595.197 383.582 598.725 376.874 603.675 371.276Z" stroke="black" stroke-width="2" stroke-miterlimit="10"/>
<path d="M104.74 -4.31401C96.2711 2.06937 90.3411 11.25 88.0049 21.5947C88.0049 21.5947 87.1317 25.3083 87.1509 25.3371C87.3236 25.5482 81.3934 50.363 81.5949 50.459C81.7964 50.5549 78.7257 62.8088 78.8889 62.8472C79.052 62.8855 72.7188 89.6579 72.997 89.7155C71.4868 96.6499 68.3269 103.118 63.785 108.571C64.1881 108.802 34.4986 143.001 34.3547 143.548C34.3547 143.625 29.029 149.67 29.0002 149.737C23.7556 155.715 20.1094 162.923 18.4014 170.69C16.6933 178.457 16.9789 186.53 19.2316 194.156C19.1453 194.204 20.4407 198.263 22.1104 203.675C22.9548 206.401 23.8664 209.433 24.8164 212.523C31.5335 226.552 46.2247 231.619 59.6492 238.959C63.3053 240.789 66.7485 243.016 69.9168 245.6C72.8915 248.229 72.095 253.075 69.3122 256.635C58.9584 269.839 41.0717 276.153 31.7062 289.405C28.7742 293.525 26.7826 298.239 25.872 303.213C25.7758 306.098 25.917 308.987 26.2942 311.849C27.4565 321.023 31.6474 329.547 38.2026 336.069C38.2026 336.069 39.2773 337.125 41.0142 338.823C47.4146 345.108 62.5472 360.241 70.4733 368.292C73.5152 371.382 75.5399 373.358 75.5207 373.416C80.5611 378.537 84.3051 384.788 86.4408 391.648C86.0857 392.157 107.974 459.318 107.935 459.97C111.428 470.715 118.931 479.697 128.883 485.044C132.951 487.211 137.326 488.745 141.857 489.593C142.173 489.353 194.125 499.543 194.327 499.188C202.646 500.699 210.362 504.551 216.57 510.291C216.685 510.128 236.116 528.657 236.27 528.523C237.473 529.639 238.739 530.687 240.06 531.661C249.951 538.963 262.297 542.126 274.481 540.479C276.422 540.221 278.345 539.839 280.238 539.337C280.296 539.395 292.07 536.123 292.118 536.2C292.166 536.276 309.678 531.459 309.736 531.574C309.793 531.689 319.139 529.031 319.178 529.089C321.275 528.544 323.407 528.146 325.559 527.899C330.52 527.351 335.538 527.616 340.413 528.686C340.413 528.542 363.693 533.081 363.731 532.927C363.77 532.774 376.446 535.298 376.494 535.25C376.58 534.99 414.033 542.35 414.205 542.149C422.503 543.678 431.062 542.881 438.934 539.846C445.836 537.18 452.002 532.903 456.916 527.371C457.223 527.112 495.031 484.593 495.424 484.574C501.203 478.213 508.676 473.633 516.967 471.37C517.159 471.37 547.856 462.791 548.057 462.916C555.615 460.82 562.486 456.767 567.977 451.167C573.468 445.567 577.384 438.617 579.33 431.02C579.33 431.02 583.61 413.939 583.591 413.862C583.572 413.786 590.375 386.342 590.308 386.246C591.999 379.299 595.321 372.854 600 367.447C599.884 367.275 640.715 320.773 640.59 320.591C642.311 318.614 643.85 316.484 645.186 314.229C646.529 312.041 647.611 309.702 648.411 307.262C648.756 288.877 627.655 281.411 613.866 273.015C609.279 270.223 603.013 266.547 604.692 260.972C605.752 257.483 607.519 254.249 609.883 251.472C618.155 241.56 631.32 235.351 632.05 220.315C632.155 218.146 632.366 215.987 632.597 213.837C632.828 211.678 633.203 209.537 633.719 207.427C633.719 207.216 638.517 187.948 638.345 187.785C638.172 187.622 644.428 161.243 644.169 161.128C644.716 158.554 645.037 155.937 645.129 153.307C645.288 150.701 645.163 148.085 644.755 145.506C643.747 139.93 641.492 134.49 635.878 133.434C625.016 131.409 614.825 128.396 606.64 123.838C592.246 115.826 584.08 102.727 589.55 80.0813C589.598 78.1621 586.901 74.4293 585.155 71.7521C582.68 69.1931 580.519 66.3488 578.716 63.279L578.208 62.4058C576.621 59.5526 575.335 56.5426 574.369 53.4241C574.369 53.4241 573.563 50.8812 573.573 50.8524C573.793 50.3918 560.532 10.0797 560.225 9.74387C557.708 2.30893 553.28 -4.33323 547.385 -9.51583C541.49 -14.6984 534.336 -18.2391 526.64 -19.7825C526.544 -19.7825 496.211 -25.8566 496.106 -25.7991C487.767 -27.4321 480.064 -31.3986 473.891 -37.2373C473.728 -37.1221 432.744 -76.5034 432.581 -76.4074C426.877 -81.7891 419.874 -85.5994 412.257 -87.4663C404.64 -89.3332 396.669 -89.1928 389.122 -87.0588C389.016 -87.0588 361.016 -79.1039 360.929 -79.1422C360.843 -79.1806 316.433 -66.6677 316.309 -66.754C309.254 -64.9718 301.881 -64.8601 294.776 -66.4278C294.622 -66.5525 276.544 -70.2661 276.333 -70.3429C276.121 -70.4196 254.195 -74.6034 254.109 -74.3731C238.448 -77.0216 222.701 -71.1105 211.983 -58.7415C211.897 -58.5976 207.3 -53.3967 202.694 -48.1861C200.362 -45.5761 198.079 -42.9372 196.447 -40.8261C187.61 -29.3975 194.941 -14.2841 187.37 -3.40241C185.432 -0.399671 182.603 1.92205 179.28 3.2379C175.365 4.70606 170.942 4.6005 166.23 3.65052C161.701 2.61407 157.263 1.21497 152.959 -0.533254C143.603 -4.13169 134.084 -8.62254 125.985 -8.83364C121.245 -8.94879 116.524 -9.73565 111.707 -8.09477C109.199 -7.21171 106.847 -5.93552 104.74 -4.31401Z" stroke="black" stroke-width="2.1" stroke-miterlimit="10"/>
<path d="M114.097 3.3852C111.097 5.72906 108.416 8.45498 106.123 11.4937C102.291 16.6652 99.6464 22.6186 98.379 28.9293C98.379 28.9869 97.5921 32.5181 97.6401 32.5853C97.9856 32.9883 92.5543 56.6996 93.0149 56.8915C93.2452 56.9875 90.5776 68.6848 90.8175 68.7615C91.2781 68.8959 85.4918 94.3824 86.0196 94.5647C84.8167 101.192 82.0245 107.428 77.8823 112.739C78.6884 113.209 50.7549 146.056 50.4574 147.15C50.4574 147.303 45.3525 153.128 45.2853 153.262C34.941 165.363 30.9779 181.637 34.9218 196.444C34.7587 196.54 35.939 200.435 37.3975 205.656C38.1364 208.275 38.8945 211.25 39.7197 214.205C45.6595 227.812 59.775 233.109 72.9596 240.277C76.5309 242.058 79.9048 244.21 83.0257 246.697C85.962 249.221 85.3095 253.836 82.7858 257.252C73.449 269.842 56.8771 275.839 48.4615 288.659C45.808 292.671 44.0624 297.213 43.3469 301.969C43.3261 304.751 43.5283 307.529 43.9515 310.279C45.3173 319.162 49.4824 327.378 55.8407 333.731C55.8407 333.789 56.9058 334.787 58.5659 336.437C64.8512 342.694 79.1586 357.548 86.6433 365.532C89.522 368.554 91.4412 370.454 91.3548 370.569C96.0782 375.643 99.534 381.762 101.44 388.427C100.73 389.454 121.044 453.746 120.977 455.041C122.609 460.228 125.249 465.042 128.747 469.205C132.245 473.368 136.531 476.799 141.359 479.3C145.327 481.308 149.574 482.708 153.958 483.455C154.582 482.984 204.144 492.302 204.547 491.621C212.515 492.868 219.963 496.356 226.023 501.677C226.253 501.351 244.84 518.796 245.147 518.527C246.322 519.554 247.552 520.515 248.832 521.406C258.579 528.2 270.487 531.169 282.283 529.745C284.162 529.539 286.027 529.219 287.868 528.785C287.992 528.91 299.229 525.907 299.335 526.022C299.44 526.137 316.166 521.771 316.281 521.991C316.396 522.212 325.339 519.736 325.339 519.89C327.358 519.427 329.407 519.106 331.471 518.93C336.258 518.491 341.084 518.815 345.769 519.89C345.865 519.621 367.993 523.728 368.07 523.421C368.146 523.114 380.189 525.456 380.285 525.34C380.458 524.822 416.183 531.587 416.519 531.184C424.564 532.497 432.815 531.605 440.393 528.603C447.063 525.938 453.027 521.767 457.819 516.416C458.433 515.898 494.725 475.327 495.512 475.279C501.2 469.227 508.481 464.904 516.517 462.804C516.91 462.91 546.264 454.811 546.686 455.07C553.947 453.118 560.562 449.281 565.86 443.947C571.159 438.613 574.952 431.973 576.856 424.699C576.913 424.613 580.953 408.387 580.915 408.223C580.876 408.06 587.305 381.892 587.229 381.71C588.795 375.057 591.912 368.869 596.325 363.651C596.105 363.286 634.709 318.934 634.498 318.55C636.114 316.641 637.559 314.592 638.816 312.428C640.077 310.313 641.088 308.059 641.829 305.711C642.059 288.084 621.927 280.829 608.81 272.663C604.434 269.957 598.465 266.416 600.058 261.052C601.059 257.699 602.738 254.586 604.99 251.907C612.84 242.312 625.372 236.305 626.101 221.872C626.207 219.752 626.418 217.631 626.648 215.52C626.882 213.4 627.251 211.298 627.752 209.225C627.809 208.803 632.329 190.273 631.984 189.957C631.638 189.64 637.271 164.394 636.781 164.173C637.237 161.687 637.475 159.167 637.492 156.64C637.558 154.125 637.359 151.61 636.897 149.136C635.774 143.763 633.48 138.533 628.001 137.448C617.388 135.357 607.485 132.257 599.54 127.584C585.693 119.437 577.892 106.473 583.323 84.4027C583.4 82.4836 580.895 78.8372 579.293 76.2175C577.014 73.6834 575.04 70.8912 573.411 67.8979C573.257 67.6101 573.104 67.3318 572.96 67.0439C571.492 64.2347 570.316 61.283 569.448 58.2349C569.448 58.1869 568.709 55.7592 568.728 55.7112C569.179 54.7517 556.666 16.0133 556.052 15.3416C553.605 8.20951 549.322 1.84784 543.635 -3.10306C537.948 -8.05396 531.057 -11.4194 523.656 -12.8605C523.474 -12.8605 494.552 -18.57 494.351 -18.4549C486.375 -19.9494 478.982 -23.6609 473.019 -29.1638C472.693 -28.9431 433.58 -66.2133 433.254 -66.0406C426.667 -72.0813 418.39 -75.9622 409.533 -77.1621C403.488 -78.0003 397.335 -77.5888 391.455 -75.9531C391.244 -75.9531 364.586 -68.4203 364.366 -68.4971C364.145 -68.5739 321.808 -56.7806 321.549 -56.9821C314.621 -55.4675 307.44 -55.5397 300.544 -57.1932C300.227 -57.4427 282.878 -61.1179 282.456 -61.1947C282.033 -61.2715 260.894 -65.1002 260.712 -64.6396C245.694 -66.6259 231.022 -60.4366 220.601 -48.1828C220.438 -47.8853 215.966 -42.8187 211.466 -37.8289C209.163 -35.286 206.879 -32.7335 205.238 -30.6896C196.391 -19.7215 202.858 -5.47174 195.268 4.64226C193.297 7.45837 190.501 9.59394 187.265 10.7548C183.427 12.0598 179.07 11.9159 174.464 10.9467C170.015 9.89511 165.654 8.49623 161.424 6.76294C152.192 3.1837 142.836 -1.21119 134.882 -1.4223C130.189 -1.54704 125.545 -2.24754 120.862 -0.568271C118.407 0.372238 116.122 1.70766 114.097 3.3852Z" stroke="black" stroke-width="2.19" stroke-miterlimit="10"/>
<path d="M123.443 11.0714C120.564 13.4128 118.006 16.1229 115.834 19.1319C112.242 24.251 109.824 30.0995 108.752 36.2604C108.819 36.3468 108.061 39.7341 108.138 39.8205C108.646 40.4346 103.743 63.0232 104.434 63.311C104.779 63.455 102.39 74.5861 102.755 74.7013C103.436 74.9028 98.2637 99.1227 99.0986 99.4105C98.1891 105.716 95.7622 111.705 92.0265 116.865C93.2451 117.575 67.0773 149.059 66.6263 150.7C66.5591 150.931 61.7324 156.534 61.6365 156.746C51.628 168.683 47.4443 184.382 50.726 198.67C50.4669 198.823 51.5417 202.556 52.7891 207.565C53.4225 210.098 54.0366 212.968 54.7083 215.827C59.8805 229.021 73.401 234.549 86.3745 241.534C89.8645 243.266 93.1724 245.343 96.2486 247.733C99.1274 250.151 98.6476 254.546 96.3638 257.809C87.9962 269.784 72.8252 275.504 65.2925 287.853C62.9208 291.757 61.4216 296.127 60.8976 300.664C60.9481 303.345 61.2112 306.018 61.6845 308.657C63.2162 317.278 67.3325 325.229 73.4873 331.457C73.5449 331.543 74.5525 332.512 76.1358 334.115C82.3059 340.342 95.788 354.88 102.822 362.826C105.441 365.791 107.293 367.623 107.217 367.796C111.618 372.809 114.783 378.784 116.457 385.241C115.392 386.777 134.143 448.2 134.047 450.157C135.57 455.21 138.114 459.896 141.521 463.926C144.927 467.957 149.124 471.246 153.852 473.59C157.708 475.444 161.819 476.712 166.049 477.352C167.008 476.642 214.162 485.105 214.757 484.069C222.362 485.061 229.531 488.185 235.436 493.079C235.772 492.599 253.524 508.951 253.985 508.557C255.133 509.513 256.331 510.407 257.574 511.235C267.184 517.527 278.667 520.319 290.094 519.141C291.907 518.963 293.707 518.678 295.487 518.287C295.679 518.47 306.388 515.668 306.551 515.898C306.714 516.128 322.643 512.127 322.864 512.463C323.084 512.799 331.5 510.438 331.577 510.63C333.516 510.222 335.481 509.953 337.459 509.824C342.069 509.538 346.696 509.975 351.171 511.119C351.306 510.707 372.282 514.401 372.445 513.941C372.608 513.48 383.96 515.639 384.114 515.505C384.382 514.737 418.371 520.898 418.879 520.303C426.675 521.42 434.628 520.426 441.909 517.424C448.337 514.759 454.083 510.682 458.721 505.496C459.681 504.719 494.418 466.096 495.598 466.029C501.182 460.256 508.279 456.173 516.075 454.245C516.651 454.398 544.69 446.818 545.314 447.211C552.271 445.407 558.626 441.794 563.733 436.737C568.839 431.681 572.516 425.362 574.389 418.424C574.466 418.299 578.304 402.85 578.228 402.61C578.151 402.37 584.235 377.44 584.11 377.171C585.55 370.811 588.458 364.876 592.602 359.841C592.276 359.294 628.731 317.092 628.356 316.554C629.874 314.725 631.228 312.766 632.406 310.701C633.581 308.677 634.525 306.527 635.217 304.291C635.323 287.422 616.15 280.369 603.676 272.452C599.521 269.823 593.85 266.407 595.347 261.263C596.29 258.048 597.877 255.058 600.01 252.474C607.437 243.262 619.346 237.379 620.085 223.571C620.19 221.489 620.411 219.406 620.651 217.334C620.884 215.251 621.243 213.184 621.726 211.144C621.812 210.521 626.082 192.74 625.564 192.25C625.046 191.761 630.045 167.685 629.268 167.349C629.611 164.953 629.749 162.533 629.68 160.114C629.662 157.687 629.392 155.269 628.874 152.898C627.617 147.735 625.286 142.707 619.941 141.594C609.587 139.435 599.962 136.259 592.266 131.499C578.957 123.256 571.53 110.321 576.913 88.9031C577.028 86.9839 574.706 83.4431 573.257 80.8618C571.159 78.3663 569.367 75.6279 567.922 72.7054C567.775 72.4239 567.64 72.1456 567.519 71.8705C566.191 69.1 565.134 66.2078 564.362 63.2343C564.41 63.1575 563.69 60.8353 563.728 60.7586C564.4 59.3864 552.626 22.145 551.714 21.1374C549.339 14.3165 545.208 8.24175 539.739 3.52493C534.269 -1.1919 527.653 -4.38432 520.557 -5.73091C520.278 -5.67333 492.729 -11.0662 492.47 -10.8839C484.863 -12.2726 477.795 -15.7552 472.059 -20.9403C471.58 -20.5948 434.338 -55.7731 433.849 -55.4853C427.498 -61.1908 419.57 -64.8434 411.107 -65.9639C405.311 -66.7461 399.417 -66.3512 393.777 -64.8028C393.46 -64.8028 368.06 -57.7019 367.782 -57.7978C367.35 -57.961 327.153 -46.8586 326.769 -47.1657C319.971 -45.921 312.983 -46.1732 306.292 -47.9046C305.821 -48.2884 289.192 -51.8868 288.549 -52.002C287.733 -52.1555 267.572 -55.5428 267.294 -54.8807C252.9 -56.2145 239.322 -49.7374 229.189 -37.5507C228.949 -37.1092 224.612 -32.177 220.207 -27.3695C217.933 -24.8842 215.669 -22.418 213.999 -20.4413C205.142 -9.88589 210.765 3.4523 203.156 12.8274C201.151 15.454 198.387 17.4004 195.239 18.4026C191.401 19.5541 187.188 19.3622 182.669 18.4026C178.308 17.3217 174.036 15.9135 169.887 14.19C160.781 10.63 151.588 6.34064 143.777 6.11993C139.142 5.98559 134.574 5.37146 130.016 7.07952C127.621 8.03986 125.4 9.38857 123.443 11.0714Z" stroke="black" stroke-width="2.29" stroke-miterlimit="10"/>
<path d="M132.799 18.7671C130.035 21.1024 127.592 23.7934 125.535 26.77C123.511 29.8207 121.898 33.1244 120.737 36.5961C119.994 38.8554 119.442 41.1729 119.086 43.5243C119.173 43.649 118.491 46.8828 118.587 46.998C119.278 47.8136 114.893 69.2987 115.824 69.6825C116.284 69.8744 114.154 80.4298 114.643 80.5834C115.603 80.8521 111.007 103.815 112.11 104.189C111.507 110.2 109.448 115.974 106.113 121.011C107.734 121.97 83.313 152.082 82.718 154.27C82.6317 154.586 78.0449 159.96 77.9201 160.238C68.2475 171.984 63.843 187.107 66.4051 200.925C66.0693 201.126 67.0288 204.705 68.0652 209.503C68.593 211.95 69.0248 214.723 69.6293 217.477C74.0242 230.259 86.9594 236.007 99.6642 242.82C103.104 244.496 106.375 246.498 109.433 248.798C112.312 251.111 111.937 255.275 109.913 258.394C102.514 269.765 88.725 275.196 82.1423 287.066C80.0598 290.864 78.8071 295.06 78.4671 299.378C78.5856 301.958 78.9065 304.525 79.4267 307.054C81.1496 315.385 85.2297 323.046 91.1815 329.125C91.2583 329.24 92.2275 330.19 93.7436 331.735C99.789 337.934 112.455 352.164 119.038 360.062C121.456 362.94 123.212 364.735 123.107 364.956C127.188 369.92 130.062 375.764 131.503 382.027C130.083 384.08 147.26 442.634 147.135 445.234C148.552 450.146 150.995 454.701 154.303 458.599C157.612 462.496 161.71 465.646 166.326 467.842C170.084 469.55 174.075 470.689 178.168 471.22C179.425 470.26 224.228 477.879 224.995 476.497C232.234 477.236 239.12 479.992 244.868 484.452C245.31 483.809 262.227 499.086 262.841 498.549C263.958 499.429 265.121 500.249 266.325 501.005C275.79 506.805 286.864 509.421 297.924 508.471C299.672 508.326 301.411 508.089 303.134 507.761C303.384 508.001 313.565 505.438 313.776 505.746C313.987 506.053 329.129 502.464 329.369 502.867C329.503 503.126 337.583 501.111 337.727 501.36C339.588 501.022 341.47 500.814 343.36 500.736C347.792 500.592 352.221 501.116 356.496 502.291C356.679 501.744 376.571 505.016 376.744 504.402C376.916 503.788 387.683 505.774 387.865 505.602C388.22 504.565 420.491 510.131 421.163 509.315C428.708 510.238 436.363 509.169 443.367 506.216C449.582 503.568 455.147 499.603 459.68 494.595C460.909 493.559 494.168 456.884 495.732 456.788C501.222 451.315 508.132 447.483 515.682 445.724C516.449 445.925 543.174 438.872 543.989 439.39C550.648 437.726 556.746 434.324 561.659 429.531C566.572 424.737 570.124 418.725 571.951 412.109C572.047 411.937 575.684 397.274 575.607 396.967C575.531 396.66 581.211 372.978 581.048 372.613C582.367 366.545 585.069 360.864 588.946 356.012C588.504 355.293 622.781 315.22 622.282 314.51C623.693 312.747 624.952 310.865 626.043 308.887C627.138 306.944 628.011 304.884 628.644 302.746C628.644 286.644 610.412 279.802 598.589 272.116C594.646 269.573 589.282 266.282 590.683 261.359C591.568 258.282 593.063 255.414 595.077 252.924C602.082 244.067 613.367 238.348 614.106 225.154C614.221 223.11 614.442 221.066 614.682 219.032C614.918 216.989 615.271 214.961 615.737 212.958C615.843 212.123 619.873 195.09 619.182 194.438C618.328 193.641 622.867 170.861 621.821 170.448C622.059 168.14 622.101 165.816 621.946 163.501C621.838 161.166 621.494 158.848 620.919 156.582C619.547 151.621 617.177 146.804 611.966 145.662C601.862 143.446 592.515 140.193 585.098 135.337C572.316 126.998 565.282 114.111 570.618 93.317C570.781 91.3979 568.641 87.953 567.336 85.4293C565.425 82.9614 563.814 80.2749 562.538 77.4263C562.413 77.1577 562.298 76.8794 562.183 76.6107C560.989 73.8832 560.054 71.0496 559.39 68.1472C559.438 68.0416 558.776 65.825 558.824 65.7194C559.717 63.8962 548.701 28.1806 547.482 26.8468C545.183 20.3287 541.206 14.5315 535.954 10.0388C530.701 5.54608 524.358 2.51637 517.562 1.25468C517.179 1.34104 491.087 -3.70636 490.694 -3.46646C483.439 -4.69321 476.665 -7.90116 471.119 -12.736C470.476 -12.2754 435.115 -45.3618 434.453 -44.9972C428.323 -50.3579 420.738 -53.7749 412.661 -54.8137C407.107 -55.5369 401.466 -55.1554 396.06 -53.691C395.638 -53.691 371.533 -46.9739 371.168 -47.1466C370.593 -47.3578 332.478 -36.9847 331.97 -37.3973C325.305 -36.4242 318.51 -36.8523 312.02 -38.6543C311.377 -39.1725 295.477 -42.6942 294.613 -42.8477C293.519 -43.0492 274.212 -46.0335 273.848 -45.1219C260.116 -45.7936 247.593 -39.0382 237.758 -26.9474C237.431 -26.3525 233.219 -21.5642 228.93 -16.9198C226.684 -14.4921 224.42 -12.1219 222.74 -10.2027C213.874 -0.136707 218.643 12.3667 211.005 21.0125C208.964 23.4471 206.234 25.2068 203.174 26.0599C199.442 27.0195 195.267 26.818 190.853 25.8104C186.567 24.7246 182.365 23.3262 178.283 21.6266C169.301 18.0954 160.262 13.95 152.604 13.6813C148.018 13.5469 143.536 13.0096 139.103 14.7656C136.794 15.7409 134.664 17.0932 132.799 18.7671Z" stroke="black" stroke-width="2.38" stroke-miterlimit="10"/>
<path d="M142.155 26.4619C139.506 28.7851 137.182 31.4543 135.246 34.3977C133.391 37.419 131.933 40.6667 130.908 44.0607C130.246 46.2708 129.777 48.5343 129.507 50.8257C129.613 50.9793 128.989 54.0595 129.114 54.2035C129.978 55.2302 126.12 75.6022 127.281 76.082C127.857 76.3219 126.005 86.3111 126.609 86.4934C127.751 86.8293 123.817 108.564 125.199 108.996C124.896 114.699 123.206 120.242 120.276 125.145C122.301 126.316 99.626 155.094 98.8871 157.829C98.7815 158.222 94.4346 163.375 94.2811 163.721C84.9348 175.293 80.3096 189.888 82.2671 203.169C81.8449 203.428 82.6893 206.854 83.5146 211.441C83.9368 213.801 84.2535 216.469 84.6949 219.117C88.3317 231.486 100.672 237.455 113.137 244.066C116.462 245.7 119.635 247.626 122.618 249.824C125.42 252.031 125.218 255.975 123.443 258.93C117.014 269.697 104.597 274.859 98.9543 286.25C97.166 289.955 96.1599 293.989 95.9988 298.101C96.2004 300.582 96.5853 303.045 97.1503 305.47C99.0666 313.522 103.113 320.909 108.867 326.859C108.963 326.994 109.903 327.915 111.342 329.412C117.273 335.582 129.104 349.496 135.255 357.355C137.462 360.185 139.094 361.894 138.998 362.153C142.756 367.062 145.339 372.767 146.55 378.83C144.774 381.383 160.387 437.067 160.224 440.33C161.547 445.108 163.906 449.537 167.133 453.302C170.361 457.066 174.377 460.074 178.897 462.112C182.549 463.663 186.41 464.669 190.354 465.097C191.928 463.916 234.313 470.653 235.311 468.935C242.182 469.427 248.783 471.815 254.378 475.834C254.934 475.038 271.007 489.221 271.775 488.558C272.866 489.357 273.997 490.1 275.162 490.785C284.483 496.097 295.166 498.537 305.869 497.799C307.558 497.694 309.228 497.511 310.888 497.243C311.204 497.54 320.858 495.218 321.117 495.602C321.51 496.158 335.75 492.8 336.038 493.356C336.201 493.683 343.859 491.859 344.032 492.176C345.813 491.902 347.612 491.758 349.415 491.744C353.67 491.739 357.904 492.346 361.985 493.548C362.206 492.867 380.995 495.727 381.177 494.959C381.244 494.345 391.531 495.995 391.732 495.774C392.164 494.479 422.698 499.45 423.552 498.423C430.819 499.117 438.142 497.941 444.826 495.007C450.831 492.37 456.217 488.507 460.64 483.665C462.185 482.379 493.918 447.642 495.876 447.517C501.27 442.346 507.988 438.767 515.288 437.173C516.248 437.422 541.648 430.888 542.675 431.54C555.38 428.402 566.089 418.768 569.543 405.804C569.677 405.593 573.094 391.717 572.998 391.334C572.902 390.95 578.218 368.505 578.007 368.064C579.2 362.287 581.701 356.861 585.319 352.202C584.762 351.29 616.85 313.367 616.227 312.475C617.535 310.784 618.701 308.987 619.71 307.101C620.723 305.242 621.524 303.276 622.099 301.238C621.965 285.885 604.731 279.264 593.533 271.818C589.8 269.351 584.743 266.185 586.057 261.483C586.882 258.544 588.281 255.798 590.174 253.403C596.766 244.892 607.446 239.345 608.157 226.765C608.272 224.76 608.502 222.754 608.742 220.749C608.983 218.746 609.329 216.756 609.778 214.79C609.913 213.753 613.693 197.46 612.83 196.653C611.765 195.694 615.709 174.065 614.403 173.499C614.536 171.281 614.482 169.057 614.24 166.849C614.039 164.604 613.622 162.383 612.993 160.218C611.506 155.468 609.097 150.853 604.011 149.663C594.175 147.389 585.098 144.068 577.901 139.107C565.638 130.692 558.988 117.824 564.275 97.6726C564.476 95.7534 562.528 92.4044 561.396 89.9287C559.68 87.4937 558.263 84.8616 557.174 82.0889L556.867 81.2925C555.81 78.6066 554.995 75.8321 554.43 73.0017C554.487 72.8769 553.883 70.7467 553.95 70.6219C555.063 68.3381 544.795 34.1578 543.27 32.4881C541.045 26.2753 537.221 20.7592 532.184 16.4967C527.146 12.2341 521.073 9.37595 514.578 8.2107C514.108 8.31625 489.437 3.63349 488.938 3.92137C482.046 2.83084 475.582 -0.122263 470.245 -4.61891C469.439 -4.05276 435.95 -35.0281 435.134 -34.5771C429.223 -39.5658 421.981 -42.7177 414.302 -43.6451C408.991 -44.3124 403.602 -43.9475 398.43 -42.5704C397.912 -42.5704 375.103 -36.3139 374.642 -36.4866C373.923 -36.7553 337.89 -27.0923 337.219 -27.6105C330.69 -26.9135 324.087 -27.5235 317.797 -29.4049C317 -30.0478 301.82 -33.4927 300.745 -33.6847C299.373 -33.9342 280.92 -36.5634 280.469 -35.3735C267.361 -35.3735 255.913 -28.3494 246.385 -16.345C245.972 -15.6157 241.894 -10.9522 237.7 -6.4901C235.484 -4.11994 233.229 -1.83613 231.53 -0.00332626C222.673 9.5925 226.579 21.2418 218.912 29.1488C216.84 31.3907 214.147 32.9642 211.177 33.6684C207.166 34.4284 203.035 34.2643 199.096 33.1886C194.89 32.0902 190.766 30.6953 186.756 29.0144C177.909 25.5024 169.023 21.4146 161.5 21.1843C156.971 21.0403 152.576 20.5989 148.267 22.3837C146.015 23.3898 143.948 24.7685 142.155 26.4619Z" stroke="black" stroke-width="2.48" stroke-miterlimit="10"/>
<path d="M151.501 34.1425C148.969 36.4579 146.761 39.1047 144.937 42.011C143.228 44.9923 141.912 48.1822 141.022 51.5013C140.444 53.6641 140.056 55.8731 139.861 58.1032C139.986 58.2856 139.439 61.2123 139.583 61.385C140.619 62.6133 137.299 81.8817 138.681 82.4958C139.371 82.7837 137.798 92.1972 138.517 92.4179C139.89 92.8209 136.598 113.26 138.23 113.826C138.222 119.217 136.905 124.526 134.391 129.295C136.829 130.705 115.91 158.082 115.027 161.402C114.893 161.872 110.786 166.795 110.594 167.217C101.593 178.617 96.7469 192.646 98.0327 205.438C97.5337 205.745 98.263 209.026 98.8771 213.392C99.1938 215.667 99.3665 218.19 99.6736 220.781C102.552 232.738 114.298 238.946 126.542 245.404C129.782 246.988 132.886 248.836 135.821 250.931C138.585 253.052 138.517 256.766 137.011 259.568C131.541 269.73 120.497 274.604 115.795 285.524C114.304 289.109 113.541 292.955 113.549 296.838C113.828 299.217 114.274 301.574 114.883 303.891C116.976 311.651 120.985 318.762 126.542 324.57C126.657 324.733 127.569 325.625 128.941 327.074C134.746 333.216 145.753 346.803 151.462 354.633C153.468 357.387 155.041 359.047 154.888 359.431C158.314 364.272 160.609 369.821 161.605 375.667C159.475 378.738 173.513 431.554 173.322 435.459C175.72 444.805 182.917 453.039 191.429 456.426C194.982 457.798 198.715 458.648 202.512 458.95C204.431 457.539 244.388 463.412 245.588 461.349C252.085 461.59 258.392 463.612 263.82 467.192C264.491 466.233 279.73 479.341 280.651 478.544C281.706 479.254 282.8 479.916 283.933 480.54C293.088 485.336 303.356 487.605 313.68 487.113C315.311 487.046 316.923 486.912 318.526 486.701C318.9 487.065 328.025 484.973 328.342 485.434C328.803 486.106 342.227 483.121 342.582 483.793C342.784 484.177 350.009 482.546 350.259 482.92C351.966 482.723 353.685 482.646 355.402 482.69C359.474 482.811 363.509 483.506 367.387 484.753C367.666 483.928 385.332 486.365 385.62 485.444C385.696 484.714 395.379 486.154 395.666 485.885C396.185 484.34 424.991 488.706 426.008 487.478C433.013 487.952 440.025 486.683 446.419 483.784C452.181 481.156 457.356 477.396 461.638 472.729C463.49 471.184 493.707 438.395 496.058 438.251C501.352 433.384 507.881 430.064 514.933 428.656C516.094 428.963 540.17 422.946 541.398 423.723C553.441 420.845 563.824 411.863 567.192 399.532C567.345 399.273 570.56 386.194 570.445 385.724C570.33 385.254 575.243 364.085 575.012 363.548C576.087 358.063 578.382 352.891 581.729 348.415C581.067 347.331 610.968 311.548 610.219 310.473C611.431 308.861 612.5 307.146 613.415 305.349C614.346 303.573 615.08 301.7 615.603 299.764C615.353 285.179 599.088 278.75 588.523 271.543C585.002 269.163 580.242 266.122 581.47 261.64C582.24 258.857 583.544 256.25 585.309 253.964C591.479 245.798 601.506 240.414 602.245 228.448C602.37 226.481 602.6 224.524 602.84 222.556C603.082 220.592 603.425 218.642 603.867 216.713C604.021 215.465 607.552 199.92 606.515 198.941C605.239 197.751 608.598 177.351 607.024 176.669C607.047 174.539 606.893 172.411 606.563 170.307C606.279 168.155 605.791 166.034 605.105 163.974C603.502 159.426 601.046 155.021 596.104 153.812C586.508 151.48 577.718 148.054 570.771 143.036C559.045 134.515 552.779 121.724 558.037 102.167C558.277 100.248 556.512 97.0047 555.494 94.5674C553.966 92.1651 552.732 89.5877 551.819 86.8907C551.733 86.6316 551.647 86.3725 551.57 86.1134C550.642 83.472 549.942 80.7561 549.478 77.9954C549.555 77.8418 548.998 75.8171 549.075 75.6636C550.418 72.9288 540.89 40.2838 539.066 38.2399C536.914 32.3105 533.229 27.0574 528.386 23.0154C523.543 18.9734 517.716 16.2867 511.498 15.2291C510.931 15.3442 487.671 11.0165 487.076 11.3908C480.547 10.4198 474.4 7.71212 469.276 3.55097C468.316 4.23227 436.698 -24.6416 435.691 -24.1042C429.995 -28.7302 423.097 -31.6332 415.808 -32.4718C410.747 -33.0789 405.617 -32.7306 400.685 -31.445C400.052 -31.445 378.547 -25.6011 378 -25.8027C377.127 -26.1289 343.168 -17.1664 342.4 -17.8093C336.012 -17.391 329.602 -18.1788 323.506 -20.1315C322.546 -20.9088 308.085 -24.2769 306.799 -24.5072C305.159 -24.8143 287.56 -26.9829 287.013 -25.6107C274.538 -24.9678 264.175 -17.6558 254.934 -5.73779C252.277 -2.34763 249.432 0.891226 246.413 3.96359C244.215 6.26659 241.98 8.46403 240.262 10.2297C231.405 19.3841 234.504 30.141 226.751 37.3187C224.635 39.3676 221.967 40.7549 219.074 41.3105C215.125 41.9189 211.092 41.6802 207.243 40.61C203.117 39.4927 199.071 38.0981 195.133 36.4359C186.41 32.943 177.678 28.9607 170.308 28.7592C165.837 28.6057 161.519 28.241 157.344 30.0738C155.18 31.0894 153.204 32.4651 151.501 34.1425Z" stroke="black" stroke-width="2.57" stroke-miterlimit="10"/>
<path d="M160.856 41.8432C158.446 44.1558 156.364 46.787 154.667 49.6638C152.072 54.5378 150.566 59.9169 150.252 65.4297C150.406 65.6408 149.917 68.414 150.089 68.6155C151.298 70.0549 148.506 88.2102 150.089 88.8819C150.895 89.2178 149.59 98.0555 150.444 98.3146C152.037 98.7848 149.331 117.967 151.27 118.619C151.538 123.703 150.584 128.777 148.487 133.416C151.366 135.057 132.174 161.129 131.128 164.948C130.974 165.495 127.107 170.197 126.887 170.705C118.25 181.923 113.155 195.396 113.779 207.688C113.193 208.052 113.779 211.181 114.211 215.364C114.422 217.562 114.45 220.018 114.633 222.465C116.725 233.98 127.885 240.438 139.879 246.724C143.035 248.261 146.069 250.035 148.957 252.03C151.682 254.045 151.759 257.528 150.502 260.187C145.992 269.734 136.319 274.34 132.558 284.781C131.377 288.255 130.863 291.921 131.042 295.586C131.399 297.855 131.905 300.099 132.558 302.303C134.837 309.762 138.811 316.593 144.169 322.262C144.303 322.454 145.186 323.327 146.481 324.718C152.162 330.831 162.343 344.073 167.592 351.903C169.396 354.571 170.874 356.183 170.692 356.577C173.799 361.35 175.818 366.749 176.603 372.391C174.108 375.97 186.592 425.916 186.362 430.474C188.54 439.523 195.612 447.603 203.903 450.625C207.344 451.872 210.948 452.615 214.602 452.832C216.809 451.182 254.406 456.191 255.807 453.792C261.948 453.788 267.976 455.446 273.252 458.59C274.039 457.467 288.432 469.481 289.507 468.55C290.538 469.193 291.601 469.783 292.693 470.316C301.669 474.607 311.534 476.711 321.48 476.457C323.044 476.457 324.599 476.342 326.134 476.179C326.566 476.611 335.174 474.759 335.538 475.287C336.076 476.073 348.694 473.473 349.107 474.25C349.337 474.701 356.14 473.291 356.38 473.703C358.006 473.582 359.637 473.566 361.265 473.655C365.157 473.921 368.997 474.702 372.684 475.977C373 475.018 389.563 477.043 389.851 475.977C389.937 475.123 399.015 476.352 399.35 476.035C399.965 474.231 427.034 478.002 428.224 476.563C434.964 476.822 441.667 475.46 447.771 472.59C453.3 469.974 458.275 466.318 462.424 461.824C464.592 460.02 493.294 429.198 496.009 429.006C501.224 424.418 507.59 421.336 514.424 420.091C515.777 420.446 538.519 414.958 539.958 415.86C551.339 413.278 561.395 404.892 564.658 393.223C564.83 392.916 567.834 380.633 567.709 380.086C567.584 379.539 572.133 359.618 571.845 358.976C572.795 353.785 574.883 348.87 577.958 344.582C577.18 343.315 604.903 309.682 604.029 308.425C605.125 306.884 606.088 305.253 606.908 303.55C607.757 301.858 608.419 300.079 608.885 298.244C608.511 284.426 593.234 278.179 583.293 271.231C579.992 268.928 575.53 266.011 576.662 261.751C577.374 259.088 578.589 256.587 580.241 254.381C585.999 246.57 595.393 241.35 596.132 229.998C596.257 228.079 596.506 226.16 596.746 224.241C596.986 222.321 597.322 220.402 597.706 218.483C597.888 217.025 601.17 202.218 599.961 201.086C598.473 199.694 601.237 180.484 599.404 179.697C599.32 177.652 599.07 175.617 598.656 173.613C598.276 171.555 597.714 169.536 596.976 167.577C595.259 163.24 592.764 159.037 587.956 157.799C578.62 155.4 570.089 151.946 563.401 146.793C552.202 138.156 546.32 125.432 551.54 106.49C551.818 104.571 550.235 101.424 549.362 99.0439C548.022 96.6679 546.975 94.1387 546.243 91.5112C546.179 91.2745 546.112 91.025 546.042 90.7627C545.256 88.1606 544.675 85.5008 544.305 82.8077C544.391 82.635 543.892 80.7159 543.979 80.5335C545.543 77.3381 536.772 46.2381 534.642 43.8871C532.567 38.2889 529.049 33.3384 524.446 29.5369C519.842 25.7353 514.316 23.2177 508.426 22.2389C507.764 22.3828 485.914 18.4006 485.214 18.8132C479.044 17.9852 473.204 15.5386 468.287 11.7219C467.155 12.5087 437.427 -14.2636 436.275 -13.6399C430.835 -17.8925 424.32 -20.5502 417.458 -21.3165C412.642 -21.8786 407.763 -21.5534 403.064 -20.357C402.335 -20.357 382.126 -14.9353 381.483 -15.1752C380.466 -15.5494 348.589 -7.33542 347.687 -8.05511C341.442 -7.92241 335.224 -8.89705 329.32 -10.9339C328.207 -11.8359 314.466 -15.1272 313.007 -15.4055C311.088 -15.751 294.343 -17.5166 293.7 -15.9237C281.878 -14.6091 272.59 -7.01876 263.637 4.8033C263.061 5.83965 259.242 10.2249 255.26 14.3415C253.1 16.587 250.865 18.6885 249.128 20.3965C240.28 29.0903 242.478 38.974 234.734 45.4224C232.588 47.2673 229.963 48.4652 227.163 48.8769C223.277 49.326 219.34 48.9998 215.581 47.9173C211.536 46.7831 207.568 45.3921 203.701 43.7527C195.065 40.2791 186.534 36.3928 179.309 36.1433C174.885 35.9993 170.672 35.7114 166.604 37.5826C164.449 38.6486 162.502 40.0915 160.856 41.8432Z" stroke="black" stroke-width="2.67" stroke-miterlimit="10"/>
<path d="M170.203 49.5352C167.91 51.8396 165.95 54.4524 164.379 57.2982C162.031 62.1079 160.752 67.3682 160.627 72.7187C160.799 72.9682 160.387 75.5974 160.627 75.8277C162.009 77.459 159.744 94.5108 161.586 95.2785C162.546 95.6527 161.481 103.915 162.45 104.222C164.273 104.769 162.191 122.675 164.369 123.413C164.923 128.184 164.338 133.019 162.661 137.519C165.904 139.438 148.498 164.119 147.308 168.485C147.145 169.118 143.469 173.59 143.258 174.156C134.91 185.22 129.584 198.126 129.584 209.939C128.922 210.352 129.402 213.345 129.584 217.261C129.699 219.381 129.584 221.723 129.632 224.074C130.966 235.205 141.531 241.855 153.276 247.967C156.353 249.453 159.323 251.152 162.162 253.053C164.849 254.972 165.041 258.225 164.081 260.73C160.521 269.683 152.23 274.001 149.409 283.952C148.538 287.316 148.269 290.809 148.613 294.267C149.041 296.447 149.609 298.598 150.311 300.706C152.765 307.866 156.705 314.426 161.874 319.955C162.028 320.176 162.834 321.02 164.1 322.364C169.666 328.457 179.003 341.335 183.839 349.165C185.442 351.756 186.823 353.31 186.622 353.771C189.388 358.486 191.103 363.743 191.65 369.182C188.771 373.279 199.72 420.356 199.461 425.567C201.38 434.309 208.395 442.235 216.436 444.883C219.775 445.973 223.251 446.584 226.761 446.697C229.275 444.778 264.482 448.961 266.104 446.217C271.883 445.976 277.624 447.267 282.743 449.959C283.636 448.683 297.194 459.555 298.423 458.596C299.382 459.152 300.447 459.651 301.503 460.131C309.573 463.768 319.639 465.648 329.388 465.831C330.895 465.831 332.382 465.831 333.851 465.696C334.35 466.186 342.429 464.574 342.842 465.178C343.466 466.08 355.268 463.845 355.739 464.737C356.007 465.255 362.369 464.017 362.648 464.516C364.197 464.464 365.749 464.512 367.292 464.66C371.001 465.06 374.644 465.927 378.135 467.241C378.5 466.138 393.94 467.74 394.275 466.512C394.371 465.553 402.854 466.512 403.228 466.195C403.929 464.142 429.281 467.309 430.634 465.668C437.105 465.684 443.492 464.206 449.298 461.35C454.595 458.739 459.372 455.185 463.394 450.861C465.87 448.798 493.055 419.915 496.193 419.713C501.286 415.431 507.438 412.597 514.002 411.509C515.547 411.912 536.965 406.941 538.616 407.978C549.344 405.703 559.074 397.94 562.212 386.867C562.423 386.521 565.215 375.026 565.091 374.392C564.908 373.615 569.121 355.095 568.795 354.375C569.626 349.479 571.509 344.82 574.312 340.72C573.429 339.262 598.964 307.778 597.956 306.348C598.972 304.88 599.858 303.326 600.605 301.704C601.376 300.101 601.968 298.418 602.37 296.685C601.881 283.625 587.574 277.58 578.266 270.872C575.185 268.656 571.021 265.863 572.057 261.824C572.71 259.298 573.833 256.918 575.368 254.809C580.703 247.344 589.474 242.334 590.222 231.558C590.347 229.639 590.596 227.787 590.836 225.897C591.076 224.006 591.412 222.135 591.796 220.274C592.007 218.614 595.039 204.556 593.657 203.26C591.959 201.667 594.137 183.646 592.045 182.744C591.84 180.802 591.49 178.878 590.999 176.987C590.524 175.017 589.882 173.091 589.08 171.229C587.247 167.103 584.705 163.102 580.031 161.835C570.954 159.369 562.701 155.847 556.263 150.598C545.592 141.914 540.094 129.2 545.266 110.881C545.592 108.962 544.191 105.911 543.471 103.579C542.319 101.235 541.456 98.7607 540.9 96.2092C540.9 95.9694 540.794 95.7295 540.746 95.4896C540.105 92.9275 539.643 90.324 539.364 87.6978C539.47 87.4962 539.028 85.673 539.124 85.4715C540.909 81.8155 532.887 52.2508 530.488 49.5736C528.49 44.2856 525.13 39.6193 520.749 36.047C516.368 32.4747 511.121 30.1232 505.539 29.2304C504.79 29.3935 484.361 25.7663 483.555 26.2365C477.742 25.5385 472.21 23.343 467.501 19.8649C466.215 20.7765 438.359 -3.89438 437.044 -3.1651C431.796 -7.06496 425.587 -9.46621 419.081 -10.1125C414.508 -10.5988 409.885 -10.2739 405.426 -9.15289C404.581 -9.15289 385.668 -4.15347 384.939 -4.42215C383.768 -4.86356 353.983 2.64038 352.956 1.81514C346.86 1.6773 340.83 0.532761 335.108 -1.57219C333.831 -2.60854 320.819 -5.82314 319.102 -6.1398C316.914 -6.53323 301.014 -7.89584 300.284 -6.07263C289.105 -4.09589 280.882 3.77268 272.236 15.5084C271.574 16.6887 267.879 20.93 264.012 24.8835C261.872 27.0617 259.656 29.0769 257.9 30.7178C249.062 38.9606 250.396 47.9902 242.623 53.6806C240.442 55.3147 237.859 56.3262 235.148 56.6073C231.306 56.914 227.44 56.5206 223.738 55.4462C219.779 54.2934 215.895 52.8961 212.108 51.2624C203.635 47.8175 195.229 44.0368 188.119 43.7777C183.753 43.6241 179.607 43.4226 175.644 45.3322C173.598 46.4036 171.757 47.8262 170.203 49.5352Z" stroke="black" stroke-width="2.76" stroke-miterlimit="10"/>
<path d="M179.559 57.2224C177.381 59.5094 175.539 62.0941 174.089 64.8991C171.975 69.6431 170.921 74.7907 170.999 79.9837C171.201 80.262 170.846 82.7281 171.066 82.9968C172.621 84.8392 170.884 100.768 172.985 101.632C174.022 102.064 173.264 109.76 174.348 110.095C176.402 110.71 174.933 127.368 177.419 128.203C178.248 132.67 178.028 137.269 176.776 141.637C180.432 143.758 164.771 167.114 163.447 172.027C163.255 172.737 159.858 176.988 159.609 177.621C151.616 188.484 146.117 200.843 145.407 212.166C144.649 212.627 145.004 215.477 145.014 219.171C145.014 221.215 144.755 223.441 144.678 225.696C145.244 236.405 155.233 243.285 166.748 249.235C169.726 250.67 172.611 252.291 175.384 254.09C176.499 254.876 177.324 256.006 177.733 257.306C178.142 258.606 178.113 260.005 177.649 261.287C175.039 269.636 168.14 273.685 166.259 283.147C165.703 286.393 165.677 289.708 166.182 292.963C166.703 295.039 167.343 297.083 168.101 299.085C170.733 305.937 174.64 312.228 179.616 317.624C179.798 317.874 180.576 318.699 181.766 319.985C187.206 326.049 195.718 338.562 200.122 346.402C201.523 348.907 202.8 350.423 202.579 350.931C205.006 355.587 206.431 360.699 206.763 365.939C203.567 370.545 212.914 414.753 212.616 420.635C214.343 429.08 221.252 436.852 229.025 439.136C232.257 440.069 235.603 440.547 238.966 440.556C241.845 438.436 274.615 441.727 276.39 438.637C281.81 438.168 287.261 439.093 292.223 441.324C293.183 439.885 305.945 449.73 307.327 448.531C308.287 449.01 309.246 449.433 310.311 449.845C318.934 453.109 328.048 454.887 337.266 455.104C338.705 455.104 340.145 455.161 341.546 455.104C342.102 455.651 349.654 454.278 350.124 454.96C350.815 455.919 361.812 454.115 362.34 455.113C362.637 455.699 368.577 454.653 368.884 455.219C370.355 455.236 371.823 455.348 373.279 455.555C376.803 456.094 380.253 457.044 383.556 458.385C383.969 457.157 398.295 458.385 398.67 456.956C398.775 455.862 406.653 456.658 407.076 456.265C407.862 453.943 431.487 456.514 432.984 454.672C439.184 454.487 445.268 452.941 450.804 450.143C455.87 447.538 460.453 444.084 464.353 439.933C467.136 437.62 492.814 410.675 496.336 410.445C501.33 406.466 507.29 403.883 513.608 402.96C515.355 403.411 535.448 398.968 537.291 400.129C547.367 398.143 556.77 391.004 559.803 380.573C560.033 380.179 562.624 369.48 562.451 368.77C562.24 367.906 566.088 350.653 565.714 349.847C566.429 345.241 568.106 340.837 570.636 336.921C569.677 335.29 592.995 305.937 591.862 304.296C592.774 302.9 593.567 301.43 594.232 299.901C594.918 298.377 595.439 296.785 595.787 295.151C595.183 282.859 581.835 277.015 573.17 270.557C570.291 268.417 566.453 265.759 567.412 261.921C568.007 259.53 569.041 257.272 570.464 255.261C575.367 248.151 583.524 243.266 584.262 233.143C584.397 231.291 584.646 229.448 584.886 227.596C585.126 225.744 585.462 223.911 585.846 222.088C586.076 220.169 588.868 206.908 587.314 205.44C585.395 203.655 586.988 186.814 584.637 185.806C584.324 183.944 583.878 182.107 583.303 180.308C582.737 178.44 582.028 176.617 581.182 174.858C579.263 170.943 576.653 167.181 572.114 165.847C563.296 163.323 555.312 159.735 549.084 154.38C538.932 145.619 533.827 132.933 538.961 115.239C539.325 113.32 538.107 110.374 537.531 108.09C536.572 105.774 535.896 103.351 535.516 100.874C535.516 100.644 535.448 100.404 535.42 100.173C534.911 97.6585 534.565 95.1135 534.383 92.5542C534.498 92.3335 534.115 90.6351 534.22 90.376C536.235 86.269 528.952 58.2396 526.217 55.2169C524.28 50.2404 521.061 45.8649 516.887 42.5347C512.712 39.2045 507.731 37.0382 502.448 36.2555C501.604 36.4379 482.585 33.1561 481.683 33.6935C476.229 33.1255 471.008 31.1806 466.512 28.0415C465.063 29.0683 439.078 6.48929 437.609 7.29534C432.582 3.76343 426.715 1.61271 420.596 1.05806C416.268 0.616627 411.897 0.918447 407.67 1.95047C406.711 1.95047 389.112 6.52767 388.287 6.22061C386.972 5.73122 359.26 12.5155 358.108 11.5847C352.185 11.1556 346.362 9.8324 340.836 7.65998C339.406 6.49889 327.114 3.36105 325.175 3.00601C322.719 2.555 307.672 1.60502 306.847 3.65852C296.292 6.28778 289.162 14.4442 280.804 26.084C280.075 27.4178 276.496 31.5248 272.734 35.296C270.633 37.4166 268.416 39.3454 266.641 40.9191C257.822 48.7109 258.302 56.8386 250.481 61.8188C248.267 63.2438 245.721 64.0703 243.093 64.2178C239.345 64.3716 235.597 63.908 232 62.8456C228.118 61.6834 224.308 60.2927 220.59 58.681C212.242 55.2553 203.98 51.5801 197.042 51.3114C192.724 51.1483 188.655 51.0235 184.865 52.9811C182.855 54.0632 181.057 55.5001 179.559 57.2224Z" stroke="black" stroke-width="2.86" stroke-miterlimit="10"/>
<path d="M188.906 64.9223C186.842 67.221 185.122 69.8068 183.801 72.5989C181.94 77.2761 181.121 82.3027 181.402 87.3285C181.613 87.6356 181.334 89.9578 181.584 90.2073C183.302 92.2512 182.093 107.077 184.405 108.036C185.557 108.516 185.067 115.646 186.276 116.01C188.56 116.692 187.706 132.074 190.47 133.014C191.567 137.182 191.715 141.544 190.901 145.777C194.961 148.128 181.056 170.131 179.578 175.591C179.367 176.378 176.21 180.389 175.894 181.118C168.217 191.798 162.517 203.601 161.135 214.406C160.3 214.915 160.521 217.64 160.339 221.123C160.233 223.042 159.821 225.211 159.619 227.36C159.427 237.657 168.812 244.767 180.077 250.534C182.992 251.92 185.827 253.467 188.57 255.169C189.648 255.88 190.479 256.908 190.948 258.111C191.418 259.314 191.502 260.633 191.189 261.886C189.52 269.659 184.002 273.401 183.071 282.392C182.833 285.51 183.049 288.645 183.714 291.7C184.293 293.676 184.982 295.617 185.777 297.515C188.578 304.055 192.45 310.08 197.235 315.344C197.427 315.623 198.194 316.419 199.298 317.657C204.614 323.702 212.3 335.812 216.263 343.691C217.472 346.099 218.653 347.586 218.394 348.153C220.475 352.743 221.602 357.709 221.704 362.748C218.154 367.862 225.926 409.211 225.6 415.717C227.107 423.854 233.891 431.483 241.443 433.402C244.579 434.181 247.808 434.527 251.039 434.429C254.186 432.078 284.624 434.496 286.601 431.06C291.672 430.373 296.834 430.936 301.637 432.701C302.75 431.108 314.62 439.86 316.165 438.536C317.125 438.929 318.085 439.275 319.044 439.62C327.474 442.352 336.227 443.965 345.078 444.418C346.459 444.495 347.822 444.562 349.165 444.571C349.789 445.186 356.842 444.044 357.331 444.802C358.099 445.924 368.29 444.437 368.846 445.55C369.192 446.193 374.7 445.349 375.036 445.982C376.43 446.071 377.817 446.244 379.191 446.5C382.524 447.181 385.773 448.22 388.883 449.6C389.343 448.227 402.557 448.986 402.969 447.45C403.094 446.241 410.368 446.826 410.838 446.385C411.711 443.804 433.609 445.781 435.297 443.727C441.222 443.327 446.998 441.693 452.253 438.929C457.087 436.338 461.474 432.988 465.246 429.007C468.336 426.435 492.498 401.438 496.413 401.179C501.307 397.503 507.076 395.168 513.148 394.404C515.068 394.903 533.856 390.979 535.91 392.274C545.323 390.576 554.401 384.06 557.328 374.253C557.577 373.821 559.957 363.909 559.775 363.132C559.535 362.172 563.018 346.195 562.596 345.293C563.192 340.975 564.665 336.825 566.923 333.097C565.82 331.283 586.988 304.079 585.731 302.294C586.539 300.973 587.236 299.586 587.814 298.149C588.421 296.71 588.875 295.211 589.167 293.677C588.437 282.162 576.068 276.51 568.056 270.282C565.398 268.229 561.838 265.696 562.692 262.088C563.233 259.836 564.176 257.7 565.474 255.783C569.965 249.018 577.488 244.268 578.227 234.797C578.362 232.984 578.621 231.179 578.861 229.366C579.101 227.552 579.436 225.758 579.82 223.973C580.079 221.891 582.622 209.32 580.895 207.66C578.774 205.674 579.763 190.023 577.153 188.9C576.264 185.296 574.933 181.815 573.189 178.537C571.117 174.833 568.497 171.234 564.093 169.901C555.533 167.319 547.78 163.673 541.888 158.213C532.292 149.375 527.542 136.728 532.638 119.647C533.041 117.728 532.004 114.849 531.572 112.642C530.808 110.358 530.318 107.99 530.114 105.589C530.114 105.359 530.114 105.138 530.114 104.908C529.75 102.44 529.522 99.9545 529.433 97.4617C529.567 97.2122 529.231 95.5425 529.356 95.3314C531.582 90.7638 525.057 64.2697 522.015 60.9208C520.164 56.2411 517.106 52.136 513.151 49.0241C509.196 45.9122 504.487 43.9049 499.503 43.2069C498.544 43.4084 480.954 40.4817 479.956 41.0766C474.844 40.6809 469.909 39.026 465.592 36.2595C463.979 37.3918 439.875 16.924 438.234 17.8164C433.431 14.6466 427.906 12.739 422.17 12.27C418.092 11.8925 413.979 12.1809 409.993 13.124C408.938 13.124 392.625 17.279 391.704 16.9623C390.245 16.425 364.615 22.4799 363.329 21.4532C357.553 20.7475 351.903 19.2492 346.536 17.0007C344.943 15.7053 333.371 12.6442 331.231 12.2028C328.496 11.7038 314.304 11.1569 313.392 13.4407C303.48 16.732 297.415 25.1668 289.355 36.7201C288.539 38.1883 285.084 42.161 281.438 45.769C279.356 47.8225 277.158 49.6649 275.364 51.1714C266.565 58.5123 266.19 65.7667 258.312 70.0081C256.07 71.2174 253.566 71.8598 251.019 71.8792C247.344 71.8779 243.688 71.3413 240.166 70.2863C236.367 69.1031 232.635 67.7128 228.987 66.1217C220.764 62.7152 212.674 59.136 205.871 58.8673C201.61 58.6946 197.628 58.6658 193.953 60.6521C192.026 61.7586 190.316 63.2054 188.906 64.9223Z" stroke="black" stroke-width="2.95" stroke-miterlimit="10"/>
<path d="M198.261 72.6149C196.309 74.8945 194.708 77.4528 193.511 80.2052C191.891 84.8194 191.292 89.7304 191.755 94.5989C191.995 94.9347 191.755 97.1034 192.053 97.4201C193.972 99.6751 193.262 113.388 195.805 114.443C197.071 114.971 196.86 121.525 198.194 121.928C200.699 122.676 200.459 136.801 203.501 137.838C204.865 141.71 205.379 145.83 205.007 149.919C209.469 152.5 197.331 173.15 195.69 179.157C195.459 180.021 192.542 183.83 192.197 184.608C184.875 195.115 178.935 206.352 176.891 216.667C175.932 217.234 176.047 219.815 175.682 223.039C175.471 224.958 174.915 226.935 174.588 228.979C173.629 238.872 182.409 246.203 193.444 251.798C196.323 253.227 199.125 254.571 201.735 256.212C202.776 256.855 203.61 257.785 204.137 258.889C204.664 259.993 204.863 261.225 204.71 262.439C203.98 269.646 199.912 273.129 199.912 281.574C200.005 284.557 200.459 287.518 201.265 290.392C201.927 292.215 202.656 294.067 203.52 295.89C206.49 302.11 210.332 307.874 214.929 313.009C215.14 313.317 215.889 314.094 216.916 315.274C222.097 321.3 228.968 333.007 232.48 340.924C233.507 343.236 234.572 344.685 234.294 345.309C236.04 349.833 236.891 354.653 236.798 359.501C232.893 365.134 239.101 403.642 238.717 410.772C240.003 418.602 246.691 426.067 253.994 427.622C257.015 428.251 260.107 428.467 263.187 428.265C266.641 425.674 294.671 427.238 296.868 423.467C301.59 422.56 306.458 422.761 311.089 424.052C312.317 422.296 323.352 429.973 325.051 428.505C325.943 428.821 326.874 429.09 327.834 429.359C336.048 431.575 344.447 433.039 352.927 433.734C354.251 433.85 355.556 433.974 356.832 434.042C357.523 434.713 364.02 433.811 364.586 434.646C365.44 435.884 374.815 434.771 375.448 435.999C375.822 436.7 380.908 436.057 381.282 436.738C382.593 436.905 383.894 437.145 385.178 437.458C388.321 438.278 391.377 439.399 394.304 440.807C394.813 439.3 406.903 439.646 407.364 437.928C407.498 436.594 414.167 436.968 414.695 436.479C415.655 433.6 435.806 435.011 437.677 432.765C443.322 432.137 448.789 430.41 453.769 427.68C458.381 425.099 462.585 421.849 466.244 418.036C469.641 415.205 492.287 392.127 496.595 391.877C501.391 388.506 506.971 386.421 512.803 385.823C514.933 386.37 532.378 382.944 534.633 384.393C543.394 382.982 552.146 377.09 554.948 367.917C555.236 367.447 557.404 358.321 557.193 357.467C556.934 356.402 560.072 341.701 559.592 340.713C560.071 336.699 561.336 332.818 563.315 329.294C562.097 327.307 581.077 302.243 579.695 300.276C580.401 299.028 581.004 297.725 581.499 296.38C582.023 295.024 582.408 293.619 582.651 292.186C581.797 281.41 570.397 275.979 562.999 270.001C560.561 268.024 557.299 265.616 558.066 262.228C558.543 260.113 559.391 258.098 560.571 256.279C564.649 249.879 571.548 245.311 572.278 236.416C572.422 234.65 572.681 232.884 572.93 231.099C573.18 229.315 573.487 227.568 573.842 225.822C574.13 223.528 576.423 211.716 574.523 209.931C572.191 207.743 572.604 193.282 569.725 192.044C569.188 190.369 568.547 188.728 567.806 187.131C567.057 185.457 566.201 183.832 565.244 182.266C563.056 178.773 560.398 175.377 556.128 174.014C547.818 171.375 540.381 167.661 534.7 162.106C525.594 153.191 521.266 140.563 526.314 124.106C526.755 122.187 525.92 119.433 525.632 117.245C525.055 114.993 524.749 112.68 524.721 110.355V109.693C524.5 107.361 524.395 104.895 524.395 102.419C524.539 102.141 524.26 100.615 524.395 100.337C526.851 95.3186 521.074 70.3598 517.678 66.675C515.905 62.2991 513.001 58.4732 509.263 55.5897C505.524 52.7062 501.086 50.8689 496.404 50.2662C495.377 50.4869 479.179 47.9248 478.085 48.5773C473.338 48.2585 468.734 46.818 464.651 44.3744C462.876 45.6218 440.661 27.2458 438.848 28.2342C434.27 25.4478 429.09 23.8023 423.744 23.4363C419.91 23.1116 416.048 23.3803 412.296 24.2327C411.145 24.2327 396.118 27.9751 395.11 27.6008C393.508 26.9963 369.959 32.3412 368.549 31.2089C362.924 30.2323 357.444 28.556 352.236 26.219C350.48 24.7989 339.627 21.8146 337.266 21.4211C334.263 20.8646 320.954 20.7302 319.917 23.2443C310.648 27.1978 305.648 35.9108 297.847 47.3682C296.945 48.9899 293.615 52.8187 290.074 56.254C288.146 58.087 286.125 59.8198 284.019 61.4453C275.249 68.3447 274.03 74.7163 266.094 78.2188C263.821 79.2057 261.354 79.6618 258.878 79.5526C255.278 79.4031 251.712 78.7969 248.265 77.7486C244.648 76.6643 240.992 75.1002 237.326 73.584C229.227 70.1967 221.282 66.723 214.641 66.4447C210.429 66.272 206.533 66.32 202.982 68.3639C201.168 69.4878 199.569 70.9275 198.261 72.6149Z" stroke="black" stroke-width="3.05" stroke-miterlimit="10"/>
<path d="M207.617 80.3038C205.777 82.5794 204.294 85.1228 203.222 87.8461C202.405 90.601 201.938 93.4477 201.831 96.3192C201.782 98.1921 201.881 100.066 202.128 101.923C202.387 102.297 202.243 104.313 202.541 104.658C204.604 107.115 204.46 119.723 207.224 120.875C208.615 121.451 208.673 127.429 210.102 127.87C212.847 128.686 213.211 141.554 216.532 142.677C218.153 146.267 219.031 150.148 219.113 154.086C223.978 156.907 213.586 176.156 211.81 182.749C211.551 183.708 208.874 187.278 208.5 188.122C201.505 198.457 195.354 209.137 192.638 218.954C191.678 219.568 191.573 222.025 191.026 225.009C190.69 226.832 190.009 228.713 189.548 230.661C187.811 240.141 196.016 247.693 206.821 253.115C209.584 254.487 212.348 255.773 214.91 257.299C215.919 257.886 216.757 258.725 217.343 259.735C217.928 260.744 218.241 261.889 218.249 263.056C218.451 269.716 215.745 272.892 216.685 280.828C217.105 283.661 217.8 286.448 218.758 289.147C219.497 290.865 220.284 292.602 221.195 294.329C224.333 300.209 228.146 305.703 232.557 310.7C232.797 311.035 233.516 311.793 234.476 312.916C239.523 318.923 245.607 330.189 248.658 338.192C249.503 340.389 250.443 341.819 250.136 342.5C251.545 346.953 252.111 351.629 251.806 356.289C247.545 362.421 252.18 398.022 251.806 405.842C252.861 413.375 259.483 420.687 266.507 421.877C269.419 422.349 272.381 422.433 275.316 422.126C279.087 419.295 304.727 420.006 307.126 415.879C311.518 414.754 316.101 414.597 320.56 415.419C321.903 413.5 332.075 420.082 333.946 418.489C334.81 418.72 335.702 418.912 336.623 419.113C343.695 420.648 352.447 422.069 360.795 423.047C362.062 423.201 363.3 423.374 364.518 423.498C365.267 424.228 371.236 423.566 371.859 424.458C372.819 425.801 381.34 425.063 382.04 426.377C382.443 427.145 387.097 426.694 387.51 427.442C388.742 427.694 389.96 428.014 391.156 428.402C394.109 429.353 396.973 430.561 399.716 432.01C400.263 430.359 411.231 430.292 411.749 428.44C411.893 426.982 417.958 427.154 418.533 426.617C419.579 423.527 438.013 424.295 440.047 421.819C445.405 420.977 450.564 419.159 455.266 416.455C459.63 413.887 463.629 410.743 467.155 407.109C470.859 404.009 491.989 382.908 496.691 382.601C501.387 379.54 506.774 377.702 512.361 377.256C514.683 377.87 530.804 374.992 533.271 376.536C541.369 375.414 549.795 370.146 552.462 361.605C552.769 361.087 554.736 352.758 554.506 351.818C554.228 350.657 556.963 337.232 556.425 336.157C556.787 332.416 557.852 328.776 559.563 325.429C558.239 323.251 575.032 300.336 573.525 298.187C574.125 297.011 574.635 295.793 575.051 294.54C575.492 293.268 575.813 291.957 576.01 290.625C575.051 280.607 564.611 275.387 557.845 269.639C555.619 267.72 552.664 265.465 553.335 262.298C553.758 260.32 554.514 258.428 555.571 256.704C559.237 250.649 565.503 246.254 566.232 237.973C566.386 236.246 566.645 234.509 566.894 232.772C567.144 231.035 567.451 229.317 567.787 227.609C568.103 225.105 570.157 214.031 568.075 212.083C565.532 209.703 565.34 196.432 562.202 195.079C561.558 193.5 560.824 191.959 560.005 190.464C559.163 188.887 558.234 187.359 557.222 185.887C554.928 182.614 552.222 179.409 548.077 178.018C540.036 175.312 532.858 171.541 527.436 165.879C518.8 156.898 514.962 144.298 519.923 128.456C520.403 126.536 519.75 123.888 519.606 121.739C519.22 119.522 519.101 117.267 519.251 115.022C519.251 114.81 519.251 114.599 519.251 114.379C519.174 112.095 519.184 109.715 519.251 107.278C519.405 106.971 519.184 105.55 519.328 105.243C522.015 99.7641 516.977 76.3407 513.321 72.3201C511.623 68.251 508.872 64.7077 505.351 62.0547C501.829 59.4018 497.664 57.735 493.285 57.2259C492.162 57.4754 477.385 55.2587 476.185 55.9688C471.834 55.7831 467.581 54.6222 463.739 52.5719C461.82 53.9345 441.448 37.66 439.481 38.7347C435.138 36.3094 430.302 34.8987 425.337 34.6085C421.737 34.3213 418.114 34.554 414.58 35.2994C413.323 35.2994 399.601 38.6196 398.507 38.1781C396.751 37.5256 375.275 42.1412 373.74 40.9034C368.31 39.6454 363.033 37.7985 358.003 35.3954C356.084 33.8408 345.96 30.9333 343.379 30.4631C340.107 29.8586 327.613 30.1273 326.519 32.8717C317.883 37.4777 313.968 46.4785 306.502 57.8208C305.542 59.5864 302.318 63.2712 298.893 66.5434C296.985 68.3205 294.97 69.9774 292.857 71.5044C284.115 77.972 282.042 83.48 274.039 86.2244C271.748 86.9857 269.323 87.2602 266.919 87.0305C263.398 86.7281 259.92 86.046 256.546 84.9962C252.996 83.9022 249.416 82.3381 245.837 80.8316C237.863 77.473 230.081 74.1145 223.575 73.817C219.42 73.6347 215.601 73.7691 212.185 75.8322C210.399 77.028 208.851 78.5441 207.617 80.3038Z" stroke="black" stroke-width="3.14" stroke-miterlimit="10"/>
<path d="M216.963 87.9989C215.235 90.2634 213.875 92.7861 212.933 95.4741C212.264 98.1925 211.941 100.985 211.973 103.784C212.01 105.609 212.189 107.428 212.511 109.225C212.799 109.628 212.722 111.49 213.039 111.864C215.274 114.531 215.649 126.027 218.652 127.275C220.159 127.898 220.485 133.301 222.059 133.781C225.033 134.663 226.022 146.255 229.611 147.493C231.478 150.81 232.702 154.45 233.219 158.221C238.496 161.273 229.85 179.217 227.931 186.308C227.653 187.335 225.225 190.693 224.803 191.605C218.153 201.767 211.782 211.881 208.404 221.208C207.319 221.87 207.089 224.202 206.379 226.966C205.928 228.722 205.103 230.487 204.517 232.33C202.023 241.388 209.632 249.18 220.178 254.4C222.865 255.724 225.561 256.943 228.075 258.363C229.048 258.909 229.886 259.666 230.525 260.58C231.165 261.494 231.59 262.54 231.77 263.641C232.921 269.773 231.626 272.632 233.487 280.05C234.232 282.716 235.166 285.326 236.28 287.861C237.086 289.473 237.94 291.114 238.899 292.745C242.191 298.302 245.974 303.553 250.203 308.434C250.462 308.799 251.163 309.538 252.026 310.603C256.949 316.6 262.246 327.424 264.818 335.494C265.489 337.586 266.305 338.997 265.979 339.726C267.037 344.105 267.317 348.636 266.804 353.112C262.179 359.762 265.259 392.455 264.885 400.967C265.71 408.192 272.216 415.36 279.019 416.176C281.825 416.493 284.661 416.444 287.454 416.032C291.542 412.971 314.783 412.808 317.384 408.356C321.446 407.024 325.731 406.509 329.993 406.839C331.441 404.757 340.797 410.255 342.803 408.538C343.628 408.691 344.492 408.797 345.384 408.931C352.197 409.891 360.622 411.196 368.625 412.424C369.825 412.606 371.005 412.837 372.157 413.019C372.972 413.806 378.403 413.384 379.085 414.372C380.092 415.831 387.836 415.466 388.594 416.915C389.036 417.75 393.258 417.491 393.699 418.306C394.831 418.613 395.973 418.969 397.106 419.4C399.857 420.482 402.526 421.765 405.089 423.239C405.684 421.454 415.549 420.964 416.096 418.968C416.249 417.385 421.719 417.347 422.333 416.761C423.465 413.413 440.172 413.585 442.369 410.927C447.447 409.858 452.311 407.951 456.763 405.285C460.888 402.723 464.692 399.679 468.096 396.217C472.107 392.858 491.721 373.705 496.816 373.379C501.407 370.624 506.602 369.032 511.948 368.744C514.463 369.406 529.221 367.045 531.927 368.744C539.373 367.909 547.472 363.265 550.063 355.358C550.389 354.801 552.145 347.259 551.906 346.242C551.598 344.985 553.959 332.808 553.422 331.666C553.673 328.209 554.534 324.824 555.965 321.667C554.525 319.306 569.14 298.531 567.48 296.209C567.974 295.107 568.391 293.972 568.727 292.812C569.078 291.624 569.322 290.407 569.456 289.175C568.362 279.915 558.901 274.897 552.779 269.389C550.764 267.585 548.106 265.426 548.691 262.48C549.04 260.643 549.688 258.876 550.61 257.25C553.853 251.541 559.505 247.309 560.206 239.642C560.369 237.953 560.628 236.254 560.878 234.556C561.127 232.857 561.434 231.178 561.751 229.509C562.096 226.793 563.9 216.468 561.645 214.357C558.882 211.775 558.114 199.694 554.717 198.226C553.981 196.774 553.15 195.331 552.222 193.898C551.263 192.469 550.303 191.02 549.219 189.619C546.81 186.558 544.056 183.554 540.055 182.134C532.263 179.361 525.354 175.542 520.191 169.765C512.112 160.716 508.58 148.136 513.551 132.917C514.069 130.998 513.551 128.445 513.609 126.353C513.409 124.163 513.473 121.956 513.801 119.78C513.801 119.569 513.868 119.368 513.906 119.157C513.954 116.921 514.088 114.599 514.28 112.219C514.453 111.902 514.28 110.568 514.443 110.242C517.322 104.302 513.062 82.4142 509.099 78.0673C507.481 74.3178 504.896 71.0657 501.608 68.6443C498.32 66.223 494.447 64.7194 490.387 64.2877C489.158 64.5467 475.801 62.6851 474.496 63.4528C470.46 63.3826 466.487 62.4432 462.847 60.6988C460.755 62.1766 442.283 48.0035 440.143 49.1838C436.03 47.1425 431.536 45.9822 426.949 45.7773C423.609 45.5671 420.255 45.806 416.979 46.4874C415.606 46.4874 403.189 49.3662 402 48.9343C400.08 48.2338 380.706 52.1297 379.037 50.7863C373.787 49.2566 368.695 47.2324 363.827 44.741C361.755 43.0713 352.312 40.2309 349.558 39.7223C345.998 39.0698 334.368 39.7223 333.178 42.7162C325.195 47.9843 322.345 57.2635 315.177 68.5386C314.111 70.4578 311.031 74.0082 307.711 77.0981C305.829 78.846 303.817 80.4498 301.694 81.896C292.991 87.9222 290.064 92.5665 281.994 94.5433C279.689 95.0862 277.302 95.1839 274.96 94.8312C271.527 94.3753 268.139 93.6208 264.837 92.5761C261.344 91.4534 257.851 89.8893 254.358 88.4116C246.509 85.0722 238.89 81.8 232.528 81.5122C228.43 81.3202 224.688 81.5122 221.406 83.6424C219.667 84.8051 218.16 86.2827 216.963 87.9989Z" stroke="black" stroke-width="3.24" stroke-miterlimit="10"/>
<path d="M226.319 95.6971C224.696 97.9518 223.455 100.458 222.644 103.115C222.12 105.793 221.936 108.527 222.097 111.252C222.217 113.029 222.48 114.794 222.884 116.53C223.182 116.961 223.172 118.67 223.517 119.082C225.926 121.961 226.838 132.324 230.071 133.668C231.683 134.339 232.288 139.185 233.986 139.694C237.182 140.654 238.784 150.988 242.623 152.303C244.761 155.36 246.358 158.761 247.344 162.359C253.025 165.641 246.135 182.232 244.062 189.871C243.765 190.974 241.577 194.112 241.126 195.1C234.812 205.08 228.219 214.637 224.17 223.465C222.999 224.176 222.606 226.344 221.742 228.887C221.157 230.576 220.216 232.217 219.506 233.963C216.234 242.6 223.239 250.65 233.564 255.688C236.174 256.965 238.794 258.106 241.241 259.431C243.154 260.457 244.605 262.172 245.3 264.229C247.421 269.861 247.517 272.375 250.29 279.275C251.134 281.386 252.372 283.756 253.802 286.587C254.685 288.093 255.596 289.619 256.604 291.154C260.053 296.371 263.812 301.376 267.86 306.143C268.128 306.527 268.819 307.247 269.597 308.254C274.394 314.242 278.933 324.567 280.996 332.762C281.505 334.739 282.196 336.13 281.841 336.926C282.556 341.221 282.556 345.605 281.841 349.9C276.861 357.059 278.367 386.921 277.916 396.046C278.521 402.965 284.94 409.98 291.485 410.44C294.18 410.61 296.886 410.432 299.535 409.912C303.94 406.611 324.792 405.594 327.594 400.787C331.349 399.251 335.343 398.38 339.397 398.215C340.951 395.979 349.472 400.393 351.631 398.532C352.428 398.608 353.253 398.637 354.107 398.695C361.598 399.297 369.05 400.319 376.427 401.756C377.569 401.977 378.682 402.255 379.776 402.495C380.649 403.349 385.533 403.157 386.282 404.222C387.366 405.786 394.304 405.805 395.119 407.36C395.59 408.262 399.39 408.195 399.869 409.078C400.915 409.461 401.971 409.874 403.017 410.363C405.567 411.584 408.041 412.959 410.425 414.48C411.068 412.561 419.829 411.659 420.404 409.509C420.577 407.801 425.442 407.542 426.104 406.928C427.323 403.32 442.302 402.888 444.672 400.019C449.442 398.728 453.993 396.732 458.174 394.098C462.061 391.554 465.672 388.611 468.95 385.318C473.268 381.71 491.366 364.495 496.854 364.14C501.354 361.687 506.374 360.341 511.498 360.216C514.204 360.926 527.676 359.093 530.545 360.897C537.33 360.35 545.112 356.329 547.578 349.056C547.943 348.451 549.497 341.705 549.219 340.611C548.893 339.258 550.888 328.377 550.303 327.11C550.439 323.94 551.087 320.813 552.222 317.85C550.677 315.317 563.104 296.682 561.348 294.187C561.734 293.156 562.054 292.101 562.308 291.03C562.573 289.923 562.747 288.797 562.826 287.662C561.617 279.169 553.124 274.362 547.635 269.094C545.841 267.366 543.481 265.332 543.97 262.607C544.281 260.904 544.854 259.26 545.668 257.732C548.547 252.368 553.527 248.309 554.237 241.256C554.41 239.606 554.669 237.946 554.928 236.286C555.187 234.625 555.475 232.985 555.773 231.344C556.137 228.465 557.692 218.869 555.274 216.576C552.299 213.793 550.936 202.902 547.28 201.318C546.436 199.969 545.508 198.625 544.498 197.288C543.538 195.954 542.435 194.611 541.274 193.296C538.75 190.417 535.957 187.644 532.081 186.186C524.548 183.365 517.898 179.469 513.004 173.596C505.433 164.49 502.305 151.929 507.247 137.324C507.813 135.405 507.525 132.948 507.679 130.914C507.67 128.752 507.921 126.596 508.427 124.494C508.475 124.293 508.533 124.091 508.581 123.899C508.772 121.711 509.022 119.447 509.31 117.125C509.492 116.779 509.377 115.551 509.55 115.205C512.678 108.805 509.147 88.4523 504.876 83.7599C501.316 76.3423 494.878 71.9379 487.307 71.2853C485.992 71.5636 474.045 70.0571 472.644 70.8919C468.961 70.9452 465.304 70.2634 461.887 68.8864C459.632 70.4793 443.031 58.4077 440.776 59.6552C436.901 57.9936 432.747 57.0756 428.532 56.9492C425.436 56.8023 422.334 57.0278 419.291 57.6209C417.823 57.6209 406.702 60.087 405.416 59.6168C403.372 58.8491 386.061 62.035 384.305 60.5764C379.245 58.7695 374.333 56.5718 369.614 54.0033C367.388 52.1993 358.694 49.4356 355.69 48.8791C351.852 48.1786 341.085 49.2629 339.8 52.4583C332.449 58.3982 330.684 67.946 323.813 79.1347C321.767 82.2544 319.307 85.0821 316.501 87.5407C314.631 89.2137 312.625 90.7287 310.504 92.0699C301.867 97.6643 298.029 101.445 289.911 102.625C287.598 102.937 285.249 102.856 282.964 102.385C279.619 101.784 276.32 100.953 273.089 99.9001C269.664 98.7582 266.248 97.1941 262.841 95.7451C255.164 92.4249 247.651 89.2487 241.442 88.9513C237.393 88.7593 233.766 89.0568 230.58 91.2063C228.886 92.4176 227.44 93.942 226.319 95.6971Z" stroke="black" stroke-width="3.33" stroke-miterlimit="10"/>
<path d="M235.666 103.427C234.16 105.682 233.041 108.173 232.356 110.796C231.979 113.435 231.937 116.111 232.231 118.761C232.44 120.49 232.783 122.2 233.258 123.875C233.584 124.336 233.642 125.891 234.006 126.332C236.588 129.403 238.027 138.672 241.491 140.112C243.218 140.831 244.091 145.101 245.915 145.648C249.34 146.675 251.557 155.743 255.712 157.163C258.096 159.978 260.038 163.139 261.469 166.538C267.553 170.06 262.429 185.298 260.203 193.484C259.877 194.673 257.929 197.581 257.449 198.637C251.451 208.376 244.734 217.387 239.936 225.716C238.679 226.484 238.094 228.547 237.058 230.821C236.338 232.433 235.282 233.959 234.438 235.619C230.398 243.852 236.818 252.114 246.913 256.979C249.446 258.198 251.989 259.282 254.417 260.501C256.28 261.471 257.816 262.97 258.831 264.809C261.959 269.953 263.427 272.121 267.083 278.493C268.225 280.479 269.703 282.677 271.324 285.316C272.284 286.707 273.244 288.137 274.309 289.567C277.648 294.125 281.39 298.865 285.507 303.845C285.804 304.258 286.419 304.958 287.167 305.908C291.811 311.886 295.65 321.77 297.185 330.032C297.531 331.894 298.078 333.276 297.694 334.12C298.061 338.33 297.77 342.571 296.83 346.69C291.504 354.367 291.447 381.36 290.957 391.129C291.341 397.75 297.675 404.87 303.96 404.697C306.545 404.647 309.118 404.326 311.636 403.738C316.348 400.206 334.81 398.326 337.814 393.182C341.278 391.432 344.985 390.21 348.811 389.555C350.48 387.156 358.157 390.515 360.47 388.499C361.237 388.499 362.024 388.384 362.849 388.432C369.135 388.807 376.946 389.325 384.238 391.052C385.323 391.301 386.369 391.637 387.395 391.935C388.355 392.894 392.712 392.894 393.498 394.036C394.65 395.716 400.782 396.099 401.655 397.769C402.163 398.729 405.493 398.873 406.04 399.813C407 400.264 407.959 400.773 408.919 401.281C411.232 402.586 413.496 404.16 415.751 405.666C416.442 403.613 424.08 402.279 424.704 399.976C424.886 398.153 429.147 397.683 429.857 397.021C431.172 393.182 444.414 392.127 446.957 389.056C451.446 387.552 455.723 385.475 459.681 382.876C463.33 380.344 466.753 377.499 469.91 374.374C474.535 370.536 491.117 355.24 496.999 354.866C501.379 352.73 506.193 351.633 511.066 351.661C513.945 352.419 526.113 351.114 529.193 353.043C535.325 352.784 542.771 349.387 545.132 342.747C545.515 342.094 546.849 336.135 546.571 334.964C546.216 333.515 547.838 323.91 547.223 322.557C547.25 319.666 547.703 316.795 548.567 314.036C546.916 311.311 557.203 294.844 555.284 292.148C555.568 291.203 555.795 290.241 555.965 289.269C556.154 288.253 556.26 287.222 556.282 286.189C554.958 278.455 547.435 273.858 542.579 268.82C540.996 267.189 538.942 265.279 539.336 262.765C539.588 261.196 540.073 259.672 540.775 258.246C543.174 253.227 547.588 249.341 548.298 242.892C548.471 241.29 548.73 239.668 548.989 238.047C549.248 236.425 549.536 234.822 549.814 233.249C550.208 230.12 551.522 221.283 548.922 218.855C545.736 215.88 543.788 206.179 539.864 204.461C538.91 203.182 537.887 201.931 536.793 200.709C535.709 199.471 534.567 198.233 533.348 197.015C530.719 194.386 527.878 191.775 524.136 190.298C516.862 187.419 510.471 183.485 505.837 177.478C498.765 168.314 496.049 155.762 500.933 141.781C501.538 139.862 501.432 137.511 501.73 135.515C501.922 133.386 502.36 131.287 503.035 129.259L503.236 128.683C503.563 126.543 503.927 124.336 504.321 122.081C504.522 121.707 504.455 120.584 504.637 120.21C507.996 113.349 505.203 94.541 500.636 89.5032C497.2 82.6806 491.251 78.8039 484.323 78.3433C482.912 78.6503 472.376 77.4892 470.889 78.3433C467.543 78.5007 464.196 78.0587 461.005 77.0382C458.587 78.7367 443.857 68.7666 441.401 70.11C437.772 68.839 433.961 68.165 430.116 68.1141C427.269 68.024 424.419 68.2298 421.614 68.7282C420.031 68.7282 410.205 70.7818 408.833 70.2732C406.645 69.4575 391.407 71.9141 389.487 70.3691C384.625 68.2906 379.895 65.916 375.324 63.2586C372.935 61.3395 364.97 58.643 361.746 58.0481C357.648 57.2996 347.717 58.787 346.393 62.2127C339.675 68.805 338.985 78.6407 332.411 89.7431C330.436 92.8223 328.021 95.5961 325.243 97.9763C323.394 99.6042 321.392 101.05 319.265 102.294C310.629 107.457 306.004 110.393 297.799 110.816C295.486 110.903 293.173 110.641 290.938 110.038C287.916 109.299 284.643 108.493 281.342 107.342C278.041 106.19 274.625 104.617 271.324 103.187C263.734 99.8859 256.422 96.8056 250.348 96.4698C246.356 96.2779 242.786 96.6521 239.793 98.8399C238.134 100.088 236.732 101.645 235.666 103.427Z" stroke="black" stroke-width="3.43" stroke-miterlimit="10"/>
<path d="M245.022 111.101C243.618 113.343 242.618 115.815 242.067 118.403C241.832 121.006 241.932 123.627 242.364 126.205C242.657 127.882 243.081 129.535 243.631 131.146C243.976 131.645 244.101 133.066 244.494 133.517C247.248 136.789 249.216 144.955 252.91 146.49C254.752 147.258 255.904 150.952 257.842 151.537C261.498 152.631 264.329 160.442 268.762 161.949C271.436 164.517 273.742 167.443 275.614 170.643C282.11 174.404 278.723 188.28 276.362 197.012C276.017 198.279 274.309 200.966 273.791 202.088C268.148 211.684 261.124 220.157 255.741 227.997C254.407 228.813 253.63 230.741 252.488 232.795C251.634 234.33 250.463 235.75 249.494 237.286C244.696 245.116 250.511 253.599 260.366 258.291C262.823 259.462 265.298 260.479 267.668 261.592C269.526 262.509 271.163 263.819 272.466 265.43C276.64 270.065 279.462 271.888 283.981 277.751C285.421 279.603 287.129 281.59 288.942 284.065C289.969 285.351 291.005 286.685 292.109 288.009C295.621 292.279 299.363 296.78 303.259 301.578C303.576 302.019 304.152 302.701 304.833 303.593C309.333 309.562 312.51 318.946 313.469 327.333C313.671 329.079 314.064 330.452 313.661 331.354C313.658 335.453 313.066 339.532 311.905 343.464C306.224 351.649 304.593 375.773 304.075 386.203C304.238 392.517 310.475 399.215 316.55 398.947C319.025 398.808 321.474 398.367 323.842 397.632C328.88 393.861 344.953 391.116 348.139 385.618C351.336 383.657 354.757 382.088 358.33 380.945C360.115 378.392 366.966 380.638 369.423 378.507C370.161 378.421 370.91 378.296 371.697 378.22C378.591 377.723 385.519 378.46 392.155 380.398C393.182 380.686 394.17 381.07 395.13 381.415C396.089 382.375 399.985 382.691 400.82 383.9C402.058 385.685 407.374 386.453 408.305 388.238C408.842 389.264 411.778 389.591 412.325 390.589C413.208 391.116 414.11 391.663 414.983 392.258C417.104 393.698 419.186 395.31 421.25 396.893C421.979 394.705 428.514 392.959 429.176 390.502C429.368 388.583 433.014 387.873 433.782 387.163C435.183 383.037 446.698 381.405 449.413 378.143C453.552 376.401 457.496 374.226 461.178 371.656C464.581 369.155 467.807 366.42 470.831 363.471C475.773 359.345 490.838 346.026 497.114 345.623C501.386 343.807 506.006 342.958 510.644 343.137C513.744 343.943 524.568 343.137 527.85 345.22C533.319 345.22 540.439 342.475 542.694 336.468C543.097 335.777 544.23 330.605 543.923 329.358C543.548 327.813 544.805 319.474 544.143 318.035C544.065 315.416 544.319 312.797 544.901 310.243C543.126 307.364 551.187 292.97 549.181 290.14C549.363 289.258 549.497 288.368 549.584 287.472C549.687 286.542 549.722 285.605 549.69 284.67C548.241 277.694 541.687 273.308 537.474 268.511C536.102 266.956 534.356 265.171 534.653 262.878C534.849 261.442 535.243 260.041 535.824 258.713C537.81 254.05 541.581 250.336 542.301 244.492C542.483 242.928 542.742 241.345 543.001 239.761C543.26 238.178 543.548 236.604 543.807 235.05C544.23 231.711 545.295 223.621 542.522 221.021C539.125 217.845 536.582 209.324 532.398 207.529C531.342 206.358 530.22 205.217 529.039 204.075C527.859 202.933 526.65 201.791 525.374 200.668C522.665 198.058 519.542 195.915 516.133 194.325C509.119 191.379 502.987 187.397 498.621 181.275C492.048 172.053 489.754 159.512 494.59 146.154C495.233 144.235 495.31 141.98 495.761 140.042C496.135 137.94 496.76 135.891 497.623 133.939C497.699 133.747 497.786 133.565 497.872 133.382C498.333 131.29 498.832 129.141 499.302 126.953C499.513 126.55 499.504 125.523 499.705 125.13C503.275 117.818 501.24 100.536 496.366 95.1812C493.045 88.9535 487.595 85.5854 481.271 85.3359C479.765 85.6526 470.649 84.8561 469.046 85.7965C466.031 86.0721 462.991 85.8779 460.036 85.2208C457.455 87.0344 444.615 79.1562 441.986 80.5956C438.612 79.7157 435.138 79.2802 431.651 79.3001C429.052 79.2742 426.455 79.4668 423.888 79.8759C422.209 79.8759 413.678 81.5072 412.21 80.9602C409.878 80.0966 396.723 81.8334 394.669 80.1829C390.073 78.0527 385.668 75.2411 381.033 72.5063C378.491 70.4432 371.246 67.8331 367.81 67.1998C363.435 66.4033 354.376 68.2937 352.898 71.9977C346.824 79.2521 347.208 89.3662 340.923 100.373C339.028 103.418 336.664 106.145 333.918 108.452C332.077 110.019 330.081 111.392 327.959 112.55C319.38 117.29 313.863 119.372 305.601 119.008C303.296 118.86 301.02 118.422 298.826 117.703C295.88 116.801 292.675 115.947 289.441 114.776C286.208 113.605 282.897 112.031 279.654 110.621C272.188 107.349 265.03 104.374 259.109 104.067C255.165 103.865 251.682 104.316 248.774 106.543C247.248 107.812 245.975 109.359 245.022 111.101Z" stroke="black" stroke-width="3.52" stroke-miterlimit="10"/>
<path d="M254.329 118.781C253.035 121.019 252.157 123.474 251.738 126.026C251.651 128.605 251.893 131.184 252.457 133.702C252.836 135.338 253.339 136.942 253.964 138.5C254.338 139.028 254.53 140.285 254.924 140.774C257.85 144.258 260.345 151.33 264.27 152.942C266.237 153.758 267.657 156.876 269.711 157.5C273.597 158.661 277.042 165.177 281.753 166.808C284.718 169.143 287.38 171.838 289.68 174.83C296.579 178.822 294.948 191.344 292.434 200.624C291.747 202.342 290.953 204.015 290.054 205.633C284.747 215.075 277.493 222.963 271.457 230.294C270.037 231.167 269.058 232.952 267.792 234.775C266.832 236.234 265.517 237.539 264.423 238.978C258.848 246.386 264.078 255.118 273.693 259.619C276.073 260.741 278.491 261.691 280.794 262.699C282.653 263.571 284.38 264.698 285.928 266.048C291.167 270.136 295.322 271.633 300.734 277.006C302.471 278.724 304.419 280.576 306.405 282.821C307.518 284.002 308.622 285.22 309.754 286.449C313.439 290.431 317.2 294.701 320.866 299.307C321.192 299.777 321.739 300.439 322.353 301.274C326.7 307.243 329.291 316.157 329.589 324.64C329.656 326.262 329.886 327.615 329.454 328.584C329.13 332.594 328.275 336.544 326.911 340.329C320.876 349.033 317.68 370.287 317.124 381.361C317.066 387.377 323.217 393.922 328.994 393.288C331.36 392.998 333.683 392.424 335.912 391.58C341.257 387.579 354.931 383.971 358.328 378.146C361.266 375.933 364.408 374.005 367.713 372.389C369.632 369.673 375.61 370.834 378.268 368.55C378.969 368.378 379.688 368.176 380.447 368.032C386.998 366.985 393.708 367.578 399.974 369.759C400.934 370.086 401.893 370.527 402.766 370.93C403.832 371.967 407.152 372.504 408.035 373.809C409.349 375.728 413.859 376.841 414.848 378.741C415.414 379.835 417.928 380.353 418.513 381.418C419.31 382.023 420.125 382.627 420.922 383.28C422.841 384.854 424.76 386.552 426.612 388.174C427.389 385.842 432.801 383.673 433.511 381.063C433.713 379 436.764 378.108 437.58 377.35C439.058 372.974 448.846 370.748 451.724 367.265C455.534 365.324 459.179 363.078 462.625 360.548C465.782 358.149 468.786 355.366 471.741 352.612C476.99 348.226 490.539 336.855 497.208 336.433C501.365 334.928 505.794 334.323 510.201 334.658C513.493 335.512 522.992 335.253 526.514 337.441C531.312 337.748 538.125 335.608 540.255 330.234C540.697 329.495 541.618 325.12 541.292 323.795C540.898 322.145 541.781 315.082 541.071 313.557C540.89 311.203 540.945 308.837 541.234 306.494C539.315 303.414 545.226 291.218 543.086 288.176C543.172 287.399 543.211 286.592 543.22 285.758C543.237 284.915 543.202 284.072 543.115 283.234C541.551 277.016 535.966 272.842 532.387 268.274C531.235 266.806 529.777 265.146 529.997 263.083C530.129 261.77 530.429 260.48 530.89 259.244C532.464 254.926 535.63 251.385 536.321 246.156C536.523 244.63 536.772 243.085 537.031 241.54C537.29 239.995 537.578 238.46 537.818 236.934C538.269 233.393 539.085 226.043 536.139 223.289C532.531 219.911 529.422 212.58 524.95 210.67C523.789 209.596 522.561 208.55 521.304 207.504C520.047 206.458 518.751 205.431 517.417 204.395C514.583 202.041 511.474 200.04 508.157 198.436C501.44 195.423 495.51 191.402 491.422 185.155C485.338 175.876 483.467 163.353 488.256 150.61C488.946 148.691 489.215 146.532 489.801 144.641C490.369 142.573 491.18 140.579 492.219 138.702C492.315 138.519 492.411 138.337 492.516 138.164C493.111 136.13 493.716 134.028 494.301 131.908C494.522 131.476 494.57 130.555 494.781 130.133C498.619 122.36 497.295 106.623 492.113 100.923C488.918 95.2902 483.947 92.4594 478.247 92.3922C476.654 92.7377 468.949 92.2867 467.25 93.2942C464.557 93.6746 461.828 93.723 459.123 93.4382C456.378 95.3573 445.41 89.5998 442.618 91.116C439.518 90.6304 436.379 90.4344 433.243 90.5306C430.889 90.5597 428.54 90.7359 426.209 91.0584C424.424 91.0584 417.199 92.2675 415.654 91.6917C413.178 90.7321 402.095 91.7781 399.916 90.0316C395.483 87.6327 391.28 84.6292 386.809 81.856C384.103 79.6682 377.577 77.1349 373.931 76.4631C369.287 75.6091 361.063 77.9121 359.537 81.7984C354.106 89.715 355.555 100.107 349.577 111.027C347.748 114.028 345.429 116.701 342.716 118.934C340.891 120.439 338.898 121.727 336.776 122.773C328.255 127.1 321.854 128.338 313.535 127.167C311.237 126.797 308.985 126.182 306.818 125.335C303.939 124.279 300.811 123.368 297.673 122.187C294.535 121.007 291.273 119.424 288.077 118.032C280.736 114.779 273.741 111.901 267.926 111.593C264.04 111.382 260.623 111.92 257.85 114.184C256.394 115.478 255.199 117.038 254.329 118.781Z" stroke="black" stroke-width="3.62" stroke-miterlimit="10"/>
<path d="M263.723 126.458C262.53 128.694 261.771 131.136 261.487 133.655C261.545 136.182 261.929 138.692 262.629 141.121C263.097 142.697 263.681 144.236 264.376 145.727C264.769 146.283 265.038 147.387 265.479 147.905C268.579 151.59 271.592 157.501 275.747 159.266C277.829 160.13 279.518 162.673 281.706 163.335C285.813 164.563 289.881 169.851 294.862 171.549C298.129 173.649 301.148 176.112 303.862 178.89C311.165 183.112 311.29 194.243 308.66 204.108C308.037 205.798 307.303 207.446 306.463 209.04C301.483 218.309 293.988 225.631 287.271 232.473C285.774 233.433 284.594 235.025 283.203 236.638C282.042 238 280.679 239.209 279.451 240.553C273.117 247.548 277.752 256.51 287.127 260.829C289.44 261.894 291.762 262.748 294.036 263.707C295.935 264.529 297.77 265.491 299.525 266.586C305.839 270.089 311.318 271.288 317.613 276.182C319.638 277.765 321.826 279.454 324.004 281.508C325.184 282.573 326.355 283.686 327.535 284.828C331.514 288.596 335.209 292.653 338.59 296.966C338.945 297.465 339.453 298.108 340 298.886C344.194 304.864 346.257 313.279 345.854 321.916C345.918 323.212 345.762 324.51 345.393 325.754C344.727 329.658 343.589 333.466 342.006 337.096C335.605 346.308 330.846 364.694 330.261 376.439C329.973 382.149 336.018 388.539 341.564 387.541C343.819 387.109 346.013 386.407 348.099 385.45C353.761 381.208 365.045 376.737 368.644 370.557C371.333 368.09 374.2 365.826 377.223 363.782C379.228 360.903 384.391 360.98 387.164 358.581C387.836 358.332 388.517 358.053 389.237 357.833C394.716 356.211 401.654 356.662 407.843 359.128C408.737 359.51 409.605 359.949 410.443 360.443C411.566 361.546 414.368 362.314 415.308 363.667C416.7 365.692 420.385 367.198 421.44 369.204C422.045 370.365 424.127 371.075 424.741 372.207C425.461 372.879 426.19 373.551 426.9 374.251C428.647 375.969 430.335 377.754 432.015 379.404C432.84 376.938 437.139 374.357 437.887 371.593C438.108 369.405 440.565 368.302 441.419 367.496C442.983 362.861 451.014 360.04 454.095 356.355C457.563 354.19 460.913 351.842 464.132 349.321C467.059 346.922 469.889 344.245 472.691 341.645C478.247 337.01 490.281 327.577 497.343 327.126C501.388 325.941 505.631 325.582 509.818 326.071C513.301 327.03 521.467 327.232 525.171 329.554C529.326 330.149 535.803 328.594 537.828 323.883C538.539 322.052 538.824 320.083 538.663 318.125C538.24 316.388 538.749 310.602 538.001 308.98C537.719 306.884 537.574 304.772 537.569 302.657C535.582 299.394 539.267 289.328 537.003 286.114C537.003 285.413 536.926 284.684 536.859 283.945C536.791 283.206 536.686 282.458 536.542 281.699C534.863 276.239 530.238 272.276 527.301 267.949C526.342 266.557 525.209 265.022 525.334 263.151C525.411 261.976 525.621 260.814 525.958 259.687C527.109 255.724 529.671 252.346 530.343 247.73C530.564 246.243 530.804 244.736 531.072 243.22C531.341 241.704 531.6 240.226 531.83 238.739C532.31 234.987 532.876 228.385 529.758 225.458C525.919 221.889 522.215 215.747 517.514 213.723C516.237 212.763 514.913 211.804 513.56 210.844C512.207 209.884 510.854 208.925 509.463 208.023C506.517 205.929 503.415 204.065 500.183 202.448C493.677 199.367 488.035 195.299 484.226 188.937C478.631 179.61 477.182 167.087 481.932 154.967C482.661 153.048 483.112 150.995 483.851 149.143C484.616 147.115 485.614 145.182 486.826 143.385L487.171 142.867C487.91 140.881 488.63 138.846 489.311 136.783C489.551 136.332 489.657 135.507 489.878 135.056C493.898 126.833 493.351 112.621 487.872 106.595C484.801 101.557 480.32 99.2541 475.244 99.3693C473.555 99.7339 467.26 99.6379 465.466 100.703C463.077 101.2 460.65 101.489 458.211 101.567C455.333 103.611 446.217 99.9354 443.271 101.567C440.651 101.461 437.772 101.567 434.845 101.691C432.706 101.797 430.585 101.941 428.551 102.181C426.631 102.181 420.72 102.968 419.07 102.354C416.45 101.394 407.449 101.672 405.146 99.8203C400.867 97.1622 396.865 93.9668 392.566 91.1168C389.688 88.7947 383.93 86.3189 380.034 85.628C375.111 84.726 367.742 87.432 366.091 91.5487C361.293 100.118 363.827 110.798 358.146 121.622C356.388 124.587 354.113 127.213 351.429 129.375C349.619 130.844 347.63 132.075 345.508 133.041C337.026 136.956 329.742 137.35 321.384 135.373C319.119 134.781 316.91 133.991 314.783 133.012C311.981 131.803 308.929 130.824 305.878 129.634C302.826 128.445 299.631 126.852 296.56 125.489C289.354 122.255 282.512 119.482 276.879 119.165C273.041 118.945 269.711 119.559 267.062 121.871C265.67 123.176 264.538 124.733 263.723 126.458Z" stroke="black" stroke-width="3.71" stroke-miterlimit="10"/>
<path d="M273.079 134.133C271.971 136.358 271.319 138.782 271.16 141.263C271.362 143.755 271.888 146.21 272.724 148.565C273.277 150.095 273.944 151.58 274.72 153.008C275.133 153.594 275.459 154.544 275.929 155.091C279.201 158.986 282.742 163.823 287.137 165.646C289.325 166.558 291.292 168.525 293.595 169.235C297.933 170.53 302.615 174.561 307.874 176.345C311.454 178.213 314.831 180.448 317.949 183.014C325.626 187.476 327.545 197.293 324.724 207.657C324.173 209.321 323.503 210.944 322.718 212.512C318.074 221.609 310.388 228.374 303.018 234.717C301.401 235.845 299.9 237.13 298.537 238.555C297.213 239.812 295.754 240.944 294.401 242.182C287.3 248.765 291.34 257.958 300.475 262.094C302.711 263.111 304.966 263.936 307.192 264.723C309.419 265.51 311.319 266.441 313.046 267.122C320.425 270.001 327.238 270.96 334.406 275.345C336.866 276.808 339.24 278.41 341.517 280.143C342.796 281.109 344.034 282.114 345.23 283.156C349.313 286.545 353.004 290.378 356.237 294.585C356.611 295.113 357.081 295.737 357.561 296.456C361.582 302.454 363.203 310.428 362.023 319.054C361.939 320.363 361.678 321.654 361.246 322.893C360.24 326.683 358.82 330.351 357.014 333.832C350.297 343.553 343.935 359.069 343.311 371.448C342.803 376.85 348.79 383.078 354.049 381.725C356.194 381.144 358.262 380.31 360.209 379.239C366.178 374.768 375.073 369.432 378.873 362.927C381.316 360.173 383.911 357.559 386.646 355.096C388.767 352.054 393.085 351.047 396.021 348.523C396.654 348.197 397.288 347.832 397.988 347.564C403.179 345.424 409.839 345.702 415.664 348.418C416.505 348.843 417.313 349.33 418.082 349.876C419.262 351.037 421.536 352.045 422.525 353.475C423.993 355.605 426.872 357.495 427.985 359.606C428.618 360.835 430.268 361.746 430.921 362.936C431.564 363.675 432.207 364.423 432.84 365.172C434.385 367.034 435.882 368.886 437.379 370.584C438.252 367.974 441.438 364.97 442.177 362.053C442.407 359.741 444.259 358.436 445.161 357.591C446.821 352.688 453.155 349.272 456.369 345.376C459.248 343.092 462.434 340.799 465.543 338.064C468.239 335.684 470.849 333.093 473.546 330.694C479.409 325.8 489.926 318.316 497.382 317.845C501.3 316.98 505.347 316.863 509.309 317.5C512.984 318.459 519.865 319.237 523.703 321.684C527.205 322.567 533.299 321.684 535.218 317.557C535.881 315.946 536.097 314.186 535.842 312.462C535.4 310.629 535.544 306.11 534.757 304.402C534.335 302.482 533.99 300.563 533.721 298.807C531.62 295.362 533.117 287.446 530.737 284.049C530.612 283.425 530.468 282.782 530.305 282.13C530.142 281.477 529.988 280.825 529.787 280.163C527.983 275.461 524.327 271.709 522.033 267.611C521.138 266.33 520.605 264.832 520.488 263.274C520.513 262.229 520.632 261.188 520.843 260.165C521.582 256.547 523.521 253.352 524.183 249.341C524.423 247.892 524.653 246.462 524.922 244.946C525.19 243.43 525.449 242.067 525.661 240.58C526.16 236.617 526.486 230.754 523.194 227.673C519.164 223.902 514.846 218.951 509.885 216.811C508.503 215.928 507.083 215.074 505.644 214.23C504.204 213.385 502.765 212.55 501.326 211.706C498.274 209.94 495.232 208.117 492.018 206.505C485.78 203.367 480.368 199.26 476.847 192.773C471.722 183.389 470.715 170.885 475.426 159.38C476.185 157.461 476.827 155.542 477.71 153.709C478.659 151.7 479.841 149.809 481.232 148.076L481.75 147.567C482.623 145.648 483.468 143.652 484.245 141.656C484.494 141.177 484.658 140.447 484.888 139.977C489.129 131.341 489.34 118.626 483.554 112.255C480.599 107.822 476.616 106.037 472.164 106.344C470.379 106.728 465.447 106.987 463.604 108.119C461.407 108.762 459.248 109.299 457.233 109.702C454.172 111.861 446.956 110.288 443.799 111.986C441.428 112.255 438.895 112.591 436.323 112.821C434.404 112.984 432.562 113.109 430.767 113.262C428.772 113.262 424.137 113.627 422.4 112.975C419.627 111.948 412.708 111.526 410.271 109.558C406.154 106.68 402.354 103.254 398.218 100.327C394.618 97.5915 390.456 95.6875 386.032 94.752C380.84 93.7925 374.315 96.9111 372.598 101.258C368.443 110.489 372.051 121.409 366.658 132.185C364.98 135.107 362.758 137.68 360.113 139.766C358.311 141.184 356.322 142.346 354.202 143.221C345.777 146.733 337.582 146.282 329.196 143.489C326.961 142.686 324.787 141.724 322.69 140.61C319.955 139.248 316.932 138.221 314.053 137.022C310.954 135.755 307.951 134.22 304.976 132.876C297.885 129.662 291.196 126.984 285.707 126.668C281.927 126.447 278.683 127.138 276.112 129.489C274.817 130.832 273.788 132.408 273.079 134.133Z" stroke="black" stroke-width="3.81" stroke-miterlimit="10"/>
<path d="M282.425 141.809C281.442 144.038 280.926 146.445 280.909 148.881C281.256 151.335 281.924 153.732 282.895 156.011C283.533 157.488 284.281 158.916 285.131 160.281C285.563 160.905 285.966 161.702 286.456 162.287C289.9 166.375 293.969 170.098 298.594 172.017C300.897 172.977 303.143 174.387 305.561 175.116C310.128 176.479 315.425 179.243 320.962 181.123C324.867 182.746 328.599 184.755 332.103 187.121C340.221 191.813 343.848 200.277 340.893 211.187C340.411 212.832 339.802 214.436 339.069 215.985C334.771 224.9 326.864 231.108 318.822 236.952C317.153 237.979 315.569 239.245 313.938 240.483C312.307 241.721 310.906 242.681 309.418 243.823C301.55 249.993 305.004 259.406 313.9 263.369C316.023 264.299 318.198 265.103 320.415 265.778C322.622 266.478 324.657 267.16 326.614 267.697C335.039 269.981 343.196 270.624 351.256 274.568C353.949 275.852 356.564 277.294 359.086 278.886C360.411 279.74 361.716 280.642 362.982 281.582C367.152 284.585 370.846 288.198 373.941 292.301C374.334 292.857 374.756 293.462 375.179 294.124C379.017 300.14 380.293 307.712 378.249 316.338C378.001 317.612 377.632 318.858 377.146 320.061C375.817 323.742 374.12 327.278 372.079 330.617C364.969 340.846 357.071 353.493 356.428 366.524C355.689 371.629 361.591 377.694 366.59 375.986C368.614 375.251 370.546 374.285 372.348 373.107C378.643 368.386 385.139 362.197 389.14 355.326C391.405 352.227 393.66 349.213 396.107 346.44C398.333 343.245 401.865 341.143 404.906 338.485C405.506 338.054 406.127 337.653 406.768 337.286C409.379 335.97 412.274 335.32 415.197 335.392C418.12 335.464 420.979 336.256 423.522 337.699C424.312 338.163 425.058 338.699 425.749 339.301C426.996 340.52 428.742 341.767 429.779 343.274C431.324 345.519 433.396 347.774 434.577 349.991C435.258 351.286 436.496 352.39 437.158 353.647C437.724 354.453 438.281 355.268 438.828 356.075C440.181 358.07 441.495 360.009 442.8 361.736C443.712 358.992 445.785 355.576 446.639 352.505C446.825 350.658 447.695 348.947 449.076 347.707C450.822 342.554 455.428 338.533 458.816 334.436C461.359 331.941 464.285 329.552 467.116 326.846C469.601 324.475 472 321.981 474.572 319.754C480.752 314.601 489.753 309.065 497.602 308.566C501.392 308.024 505.247 308.151 508.992 308.94C512.831 309.947 518.387 311.252 522.494 313.824C525.372 314.995 531.13 314.726 532.953 311.243C533.573 309.854 533.725 308.301 533.385 306.819C532.915 304.9 532.684 301.637 531.859 299.843C531.331 298.154 530.775 296.532 530.228 294.978C528.021 291.351 527.349 285.584 524.825 282.014C524.595 281.457 524.355 280.901 524.115 280.335C523.875 279.769 523.645 279.212 523.396 278.636C521.476 274.702 518.77 271.161 517.12 267.304C516.511 266.078 516.13 264.751 515.997 263.388C515.963 262.47 515.992 261.549 516.084 260.634C516.4 257.362 517.734 254.359 518.377 250.933C518.646 249.542 518.857 248.102 519.126 246.663C519.394 245.224 519.653 243.784 519.845 242.402C520.373 238.238 520.45 233.123 516.966 229.88C512.725 225.907 507.822 222.146 502.573 219.891C501.085 219.104 499.569 218.355 498.043 217.607L493.505 215.371C490.357 213.816 487.248 212.195 484.178 210.573C478.19 207.378 473.027 203.213 469.784 196.611C467.388 191.488 466.1 185.917 466.004 180.262C465.908 174.607 467.007 168.995 469.227 163.793C469.997 161.897 470.884 160.051 471.885 158.266C473.036 156.297 474.404 154.462 475.963 152.797L476.414 152.326C477.422 150.407 478.382 148.488 479.293 146.569C479.552 146.07 479.763 145.446 480.003 144.947C484.475 135.802 485.435 124.671 479.341 117.973C476.462 114.135 473.018 112.878 469.189 113.377C467.27 113.78 463.844 114.337 461.838 115.574C459.986 116.342 458.144 117.139 456.359 117.887C453.135 120.161 447.79 120.679 444.508 122.474C442.38 123.155 440.201 123.668 437.993 124.009C436.401 124.221 434.8 124.352 433.195 124.403C431.093 124.403 427.754 124.403 425.921 123.673C423.043 122.589 418.158 121.437 415.596 119.374C411.643 116.198 408.035 112.609 404.081 109.615C400.644 106.805 396.584 104.861 392.24 103.944C389.602 103.544 386.906 104.021 384.565 105.302C382.225 106.583 380.37 108.598 379.286 111.036C375.764 120.929 380.447 132.146 375.351 142.807C373.745 145.692 371.567 148.22 368.951 150.235C367.161 151.598 365.179 152.688 363.069 153.468C354.691 156.587 345.585 155.272 337.16 151.674C334.956 150.656 332.812 149.513 330.74 148.248C328.012 146.806 325.202 145.525 322.325 144.41C319.283 143.124 316.366 141.589 313.477 140.264C306.511 137.079 299.986 134.507 294.641 134.181C290.908 133.95 287.741 134.718 285.352 137.117C284.088 138.482 283.095 140.074 282.425 141.809Z" stroke="black" stroke-width="3.9" stroke-miterlimit="10"/>
<path d="M452.877 337.805C455.871 328.976 461.628 322.259 468.585 315.6C470.705 313.157 473.012 310.882 475.485 308.796C487.71 298.596 503.485 294.863 521.122 305.918C524.001 307.837 532.637 307.837 530.718 301.12C527.839 286.726 511.527 277.13 511.114 261.057C511.045 258.15 511.47 255.253 512.371 252.488C513.446 245.464 516.324 237.787 510.567 232.03C495.214 218.596 471.224 219.555 462.588 200.364C456.83 186.929 458.75 167.738 471.061 156.99C472.529 154.63 473.882 152.193 475.062 149.832C479.755 140.236 481.453 130.64 475.062 123.597C465.467 112.082 452.032 132.233 439.558 135.112C436.128 135.797 432.574 135.508 429.3 134.277C426.203 133.022 423.329 131.276 420.788 129.105C413.62 122.666 407.863 114.99 398.267 113.07C392.51 112.111 387.712 115.949 385.792 120.747C382.914 131.302 388.671 142.817 383.873 153.373C374.277 170.645 352.207 165.847 338.639 155.849C336.007 154.326 333.279 152.977 330.473 151.809C327.546 150.379 324.657 148.93 321.836 147.663C307.798 141.167 295.726 137.54 291.734 149.535C290.807 151.751 290.409 154.152 290.573 156.549C291.063 158.968 291.873 161.311 292.982 163.516C294.688 167.006 297.07 170.123 299.988 172.688C302.907 175.252 306.305 177.213 309.985 178.456C312.435 179.452 314.933 180.323 317.47 181.066C333.975 185.999 363.722 191.756 357.005 214.786C353.167 230.139 337.813 236.857 324.379 245.493C315.743 251.25 318.622 260.846 327.258 264.684C340.692 270.442 355.086 268.523 368.05 273.81C370.982 274.898 373.838 276.18 376.6 277.648C390.303 284.932 400.426 296.84 394.429 313.642C388.671 330.915 370.439 342.43 369.48 361.621C368.52 366.419 374.277 372.177 379.075 370.258C397.307 361.621 399.227 339.551 415.54 327.076C417.936 325.667 420.666 324.923 423.446 324.923C426.227 324.923 428.957 325.667 431.353 327.076C433.559 328.79 435.474 330.847 437.025 333.17C438.581 335.499 439.951 337.947 441.122 340.491C442.408 342.698 443.607 344.953 444.768 347.084C445.929 349.214 447.043 351.248 448.165 353.004C449.125 350.126 450.084 346.287 450.958 343.063C451.236 340.443 451.879 338.735 452.877 337.805Z" stroke="black" stroke-width="4" stroke-miterlimit="10"/>
</g>
</svg>
