<svg width="78" height="74" viewBox="0 0 78 74" fill="none" xmlns="http://www.w3.org/2000/svg">
<path d="M27.2159 48.7223C26.5603 48.7223 26.0392 48.2026 26.0392 47.5489C26.0392 46.8952 26.5603 46.3755 27.2159 46.3755H36.8483C37.5039 46.3755 38.025 46.8952 38.025 47.5489C38.025 48.2026 37.5039 48.7223 36.8483 48.7223H27.2159ZM29.8216 42.4196C29.1659 42.4196 28.6448 41.9 28.6448 41.2462C28.6448 40.5925 29.1659 40.0729 29.8216 40.0729H34.8647C35.5203 40.0729 36.0414 40.5925 36.0414 41.2462C36.0414 41.9 35.5203 42.4196 34.8647 42.4196H29.8216ZM51.2379 32.2783C50.9017 31.7252 51.1034 31.0044 51.6582 30.6692C52.2129 30.3507 52.9358 30.5351 53.272 31.105L54.0116 32.3957L57.3737 29.0432C57.8276 28.5906 58.5672 28.5906 59.0379 29.0432C59.4918 29.4958 59.4918 30.2501 59.0379 30.7027L54.5832 35.128C54.0453 35.6644 53.1207 35.5638 52.7341 34.8933L51.2379 32.2783ZM55.222 22.5561C60.5004 22.5561 64.7703 26.8306 64.7703 32.0772C64.7703 37.3238 60.4836 41.5983 55.222 41.5983C49.9603 41.5983 45.6737 37.3238 45.6737 32.0772C45.6737 26.8306 49.9603 22.5561 55.222 22.5561ZM60.3155 26.9982C57.4914 24.1989 52.9358 24.1989 50.1284 26.9982C47.3211 29.7975 47.3211 34.3569 50.1284 37.1562C52.9526 39.9723 57.5082 39.9723 60.3155 37.1562C63.1397 34.3569 63.1397 29.7975 60.3155 26.9982ZM60.2819 19.0193L60.9207 19.2875L62.7698 17.4436C63.1901 17.0246 63.8457 16.991 64.2996 17.3263C65.4763 18.0471 66.5522 18.8852 67.4935 19.8239C68.4685 20.7961 69.3427 21.9024 70.0655 23.1093C70.3513 23.5787 70.2672 24.1653 69.8974 24.5341L68.0483 26.378L68.3172 27.0149H70.9228C71.5112 27.0149 71.9819 27.434 72.0828 27.9872C72.234 28.6409 72.3517 29.2946 72.4358 29.9651C72.6879 32.0437 72.5534 34.139 72.0659 36.184C71.9315 36.7204 71.444 37.0724 70.9228 37.0724H68.3172L68.0483 37.7094L69.8974 39.5532C70.3177 39.9723 70.3513 40.626 70.0151 41.0786C69.2922 42.252 68.4517 43.3248 67.4935 44.2635C66.5185 45.2357 65.409 46.1073 64.1987 46.8281C63.728 47.1131 63.1397 47.0293 62.753 46.6605L60.9039 44.8166L60.2651 45.0848V47.683C60.2651 48.2697 59.8448 48.739 59.2901 48.8396C58.6345 48.9905 57.9789 49.1078 57.3065 49.1916C55.222 49.4431 53.1207 49.309 51.0698 48.8061C50.5319 48.672 50.1789 48.2026 50.1789 47.6662V45.0681L49.5401 44.7999L47.6909 46.6437C47.2707 47.0628 46.6151 47.0963 46.1612 46.7611C44.9845 46.0403 43.9086 45.2022 42.9672 44.2467C41.9922 43.2745 41.1181 42.1682 40.3953 40.9613C40.1095 40.4919 40.1935 39.9052 40.5634 39.5197L42.4125 37.6758L42.1435 37.0389H39.5379C38.9496 37.0389 38.4789 36.6198 38.378 36.0667C38.2267 35.4129 38.1091 34.7592 38.025 34.0887C37.7728 32.0101 37.9073 29.9148 38.3948 27.8698C38.5293 27.3334 39.0168 26.9814 39.5379 26.9814H42.1435L42.4125 26.3444L40.5634 24.5006C40.1431 24.0815 40.1095 23.4278 40.4457 22.9752C41.1685 21.8018 42.0091 20.729 42.9672 19.7903C43.9422 18.8181 45.0517 17.9465 46.2621 17.2257C46.7328 16.9407 47.3211 17.0246 47.6909 17.3933L49.5401 19.2372L50.1789 18.969V16.4211C50.1789 15.8344 50.5991 15.3651 51.1539 15.2645C51.8095 15.1136 52.4651 14.9963 53.1375 14.9125C55.222 14.661 57.3233 14.7951 59.3741 15.2813C59.9121 15.4154 60.2651 15.9015 60.2651 16.4211V19.0193H60.2819ZM59.6935 21.3157C59.4078 21.1984 59.1052 21.0811 58.8194 20.9972C58.2983 20.8631 57.9284 20.4106 57.9284 19.8574V17.3766C56.1465 17.0581 54.3142 17.0581 52.5491 17.3766V19.8574C52.5491 20.3603 52.2297 20.8296 51.7254 20.9805C51.1707 21.1481 50.4142 21.4498 49.8931 21.7348C49.4392 21.9862 48.8677 21.9192 48.481 21.5504L46.6991 19.7736C45.2198 20.7961 43.9086 22.1036 42.9 23.5619L44.6651 25.3219C45.0181 25.674 45.119 26.2271 44.8668 26.6965C44.6315 27.149 44.2616 28.0039 44.1103 28.49C43.9759 29.0097 43.522 29.3784 42.9672 29.3784H40.4793C40.1599 31.1553 40.1599 32.9824 40.4793 34.7424H42.9672C43.4715 34.7424 43.9422 35.0609 44.0935 35.5638C44.2784 36.1505 44.5642 36.8713 44.85 37.3909C45.1021 37.8435 45.0349 38.4134 44.6651 38.7989L42.9 40.559C43.9254 42.0341 45.2366 43.3415 46.6991 44.3473L48.4642 42.5872C48.8172 42.2352 49.372 42.1346 49.8427 42.3861C50.3302 42.6375 51.1371 42.9895 51.6414 43.1404C52.1625 43.2745 52.5323 43.7271 52.5323 44.2802V46.7611C54.3142 47.0796 56.1465 47.0796 57.9116 46.7611V44.2802C57.9116 43.7941 58.231 43.3248 58.7353 43.1572C59.206 43.0063 60.1138 42.6543 60.5172 42.4364C60.9711 42.1514 61.5763 42.2017 61.9797 42.604L63.7448 44.3641C65.2241 43.3415 66.5353 42.0341 67.544 40.5757L65.7789 38.8157C65.4259 38.4637 65.325 37.9105 65.5772 37.4412C65.8293 36.9551 66.1823 36.1505 66.3336 35.6308C66.4681 35.128 66.922 34.7424 67.4767 34.7424H69.9647C70.284 32.9656 70.284 31.1385 69.9647 29.3784H67.4935C66.9892 29.3784 66.5185 29.06 66.3672 28.5571C66.1823 27.9872 65.8965 27.2496 65.6108 26.73C65.3586 26.2774 65.4259 25.7075 65.7957 25.3219L67.5608 23.5619C66.5353 22.1036 65.2241 20.7793 63.7616 19.7736L61.9965 21.5336C61.6435 21.8856 61.0888 21.9862 60.6181 21.7348C60.3155 21.5839 59.9961 21.4498 59.6935 21.3157ZM17.9871 17.695H19.3151C21.5004 17.695 23.2991 19.4719 23.2991 21.6677V23.5116C24.728 24.0312 25.7198 25.389 25.7198 26.9479V29.9987C25.7198 32.0101 24.0724 33.6361 22.072 33.6361H15.247C13.2297 33.6361 11.5991 31.9934 11.5991 29.9987V26.9311C11.5991 25.3722 12.5909 24.0145 14.0198 23.4948V21.651C14.003 19.4886 15.7849 17.695 17.9871 17.695ZM19.2983 20.0418H17.9703C17.0793 20.0418 16.3397 20.7793 16.3397 21.6677V23.2937H20.9289V21.6677C20.9289 20.7793 20.1892 20.0418 19.2983 20.0418ZM22.0552 25.6404H15.2302C14.5073 25.6404 13.9358 26.2271 13.9358 26.9311V29.9987C13.9358 30.7194 14.5241 31.2894 15.2302 31.2894H22.0552C22.778 31.2894 23.3496 30.7027 23.3496 29.9987V26.9311C23.3496 26.2271 22.7612 25.6404 22.0552 25.6404ZM14.6418 16.4714C14.2047 16.9575 13.4651 17.0078 12.9776 16.5887C12.4901 16.1529 12.4397 15.4154 12.8599 14.9292C15.9026 11.4427 21.3491 11.4427 24.4086 14.9292C24.8289 15.4154 24.7784 16.1529 24.2909 16.5887C23.8034 17.0078 23.0638 16.9575 22.6267 16.4714C20.5254 14.0408 16.7599 14.0408 14.6418 16.4714ZM10.9435 12.8675C10.4897 13.3201 9.75 13.3201 9.27931 12.8675C8.82543 12.4149 8.82543 11.6773 9.27931 11.208C14.4233 6.04517 22.8284 6.04517 27.9892 11.208C28.4431 11.6606 28.4431 12.3981 27.9892 12.8675C27.5353 13.3201 26.7957 13.3201 26.325 12.8675C22.0888 8.64334 15.1797 8.64334 10.9435 12.8675ZM18.0879 44.9172C15.7177 43.6936 13.5155 42.2017 11.4983 40.5255V52.7955H75.6465V12.968C75.6465 12.0964 74.9237 11.3756 74.0496 11.3756H37.2685V22.3215C37.2685 22.4723 37.2349 22.6064 37.1845 22.7405C35.8565 27.5011 33.5871 31.8928 30.5276 35.6476C27.4513 39.4359 23.6017 42.6208 19.1638 44.9004C18.8276 45.1016 18.4241 45.0848 18.0879 44.9172ZM9.14483 38.3463C4.82457 34.0049 1.68103 28.6074 0.0504309 22.6232C0.0168102 22.5226 0 22.422 0 22.3215V6.16251C0 5.60935 0.386638 5.14 0.907759 5.02266L18.3065 0.0442236C18.525 -0.0228261 18.7603 -0.00606365 18.9621 0.0442236L36.3944 5.03942C36.9155 5.19028 37.2517 5.65963 37.2517 6.16251V9.04564H74.0496C76.2349 9.04564 78 10.8057 78 12.9848V58.5786C78 60.7409 76.2349 62.5177 74.0496 62.5177H51.3892L53.625 65.9876H60.3323C63.8793 65.9876 65.7116 70.2955 63.1733 72.8266C62.4504 73.5474 61.4418 74 60.3323 74H26.8125C23.2655 74 21.4332 69.6921 23.9716 67.1609C24.6944 66.4402 25.703 65.9876 26.8125 65.9876H33.5198L35.7556 62.5177H13.0953C10.9267 62.5177 9.14483 60.7577 9.14483 58.5786V38.3463ZM8.55647 34.1893C11.3134 37.592 14.7595 40.4584 18.6259 42.5537C22.5427 40.4416 25.9552 37.5753 28.7121 34.1893C31.553 30.6859 33.6879 26.6126 34.9151 22.1874V7.03415L18.6259 2.3742L2.35345 7.03415V22.1706C3.59741 26.6126 5.71552 30.6859 8.55647 34.1893ZM38.5629 62.501L36.3272 65.9708H50.8513L48.6155 62.501H38.5629ZM60.3491 68.3175H26.8125C25.3668 68.3175 24.5767 70.0944 25.6358 71.1504C25.9384 71.4521 26.3586 71.6365 26.8125 71.6365H60.3323C61.778 71.6365 62.5681 69.8597 61.509 68.8036C61.2065 68.5019 60.803 68.3175 60.3491 68.3175ZM75.6465 55.1255H11.4983V58.5618C11.4983 59.4335 12.2211 60.1542 13.0953 60.1542H74.0496C74.9237 60.1542 75.6465 59.4335 75.6465 58.5618V55.1255Z" fill="black"/>
</svg>
