<svg width="74" height="70" viewBox="0 0 74 70" fill="none" xmlns="http://www.w3.org/2000/svg">
<path fill-rule="evenodd" clip-rule="evenodd" d="M39.4044 14.2848C36.9763 14.2848 35.002 12.2991 35.002 9.85711C35.002 7.41509 36.9763 5.42944 39.4044 5.42944C41.8324 5.42944 43.8068 7.41509 43.8068 9.85711C43.8068 12.2991 41.8324 14.2848 39.4044 14.2848ZM39.4044 7.41211C38.0631 7.41211 36.9733 8.50816 36.9733 9.85711C36.9733 11.2061 38.0631 12.3021 39.4044 12.3021C40.7456 12.3021 41.8383 11.2061 41.8383 9.85711C41.8383 8.50816 40.7456 7.41211 39.4044 7.41211Z" fill="black"/>
<path fill-rule="evenodd" clip-rule="evenodd" d="M51.1456 14.2848C48.7175 14.2848 46.7432 12.2991 46.7432 9.85711C46.7432 7.41509 48.7175 5.42944 51.1456 5.42944C53.5737 5.42944 55.548 7.41509 55.548 9.85711C55.548 12.2991 53.5737 14.2848 51.1456 14.2848ZM51.1456 7.41211C49.8043 7.41211 48.7116 8.50816 48.7116 9.85711C48.7116 11.2061 49.8043 12.3021 51.1456 12.3021C52.4868 12.3021 53.5766 11.2061 53.5766 9.85711C53.5766 8.50816 52.4868 7.41211 51.1456 7.41211Z" fill="black"/>
<path fill-rule="evenodd" clip-rule="evenodd" d="M62.8907 14.2848C60.4626 14.2848 58.4883 12.2991 58.4883 9.85711C58.4883 7.41509 60.4626 5.42944 62.8907 5.42944C65.3188 5.42944 67.2931 7.41509 67.2931 9.85711C67.2931 12.2991 65.3188 14.2848 62.8907 14.2848ZM62.8907 7.41211C61.5494 7.41211 60.4596 8.50816 60.4596 9.85711C60.4596 11.2061 61.5494 12.3021 62.8907 12.3021C64.2319 12.3021 65.3246 11.2061 65.3246 9.85711C65.3246 8.50816 64.2348 7.41211 62.8907 7.41211Z" fill="black"/>
<path fill-rule="evenodd" clip-rule="evenodd" d="M29.5407 10.8457H7.69076C7.14732 10.8457 6.70508 10.4009 6.70508 9.85437C6.70508 9.30784 7.14735 8.86304 7.69076 8.86304H29.5407C30.0842 8.86304 30.5264 9.30784 30.5264 9.85437C30.5264 10.4009 30.087 10.8457 29.5407 10.8457Z" fill="black"/>
<path fill-rule="evenodd" clip-rule="evenodd" d="M68.8662 70H5.13375C2.30384 70 0 67.6829 0 64.8368V5.1632C0 2.31706 2.30384 0 5.13375 0H68.8662C71.6962 0 74 2.31706 74 5.1632V64.8368C74 67.6829 71.6962 70 68.8662 70ZM5.13375 1.98267C3.39068 1.98267 1.97143 3.41013 1.97143 5.16313V64.8367C1.97143 66.5898 3.39075 68.0172 5.13375 68.0172H68.8662C70.6093 68.0172 72.0286 66.5897 72.0286 64.8367V5.16313C72.0286 3.41006 70.6092 1.98267 68.8662 1.98267H5.13375Z" fill="black"/>
<path fill-rule="evenodd" clip-rule="evenodd" d="M73.0143 19.7324H0.98568C0.442239 19.7324 0 19.2876 0 18.7411C0 18.1946 0.442268 17.7498 0.98568 17.7498H73.0143C73.5578 17.7498 74 18.1946 74 18.7411C74 19.2876 73.5577 19.7324 73.0143 19.7324Z" fill="black"/>
<path fill-rule="evenodd" clip-rule="evenodd" d="M20.2458 62.5147H20.2198L11.3109 62.2879C10.9525 62.2792 10.6287 62.0757 10.4611 61.753C10.2964 61.4332 10.3166 61.0465 10.516 60.7471L11.4641 59.3167C7.37104 56.3717 2.86459 50.6098 5.50077 45.118C5.68287 44.7401 6.07889 44.5162 6.49518 44.5656C6.90854 44.6121 7.24961 44.9145 7.34788 45.3215C8.07053 48.3886 11.7445 52.8309 14.7218 54.4035L15.7885 52.7958C15.9879 52.4964 16.3319 52.3277 16.6904 52.3597C17.0459 52.3888 17.361 52.6126 17.5056 52.9412L21.087 60.9939C21.1853 61.148 21.2431 61.3311 21.2431 61.5259C21.2431 62.0725 20.8008 62.5172 20.2574 62.5172H20.2459L20.2458 62.5147ZM13.1464 60.3518L18.7108 60.4942L16.4388 55.3833L15.8983 56.1974C15.6439 56.5812 15.1583 56.7352 14.7305 56.5753C11.9497 55.5171 8.5821 52.1361 6.70887 48.8419C6.90542 52.659 10.5274 56.4094 13.3544 58.209C13.5799 58.3514 13.736 58.5782 13.7909 58.8398C13.8458 59.1015 13.7938 59.3718 13.6464 59.5957L13.1434 60.3515L13.1464 60.3518Z" fill="black"/>
<path fill-rule="evenodd" clip-rule="evenodd" d="M50.1707 40.2737C50.1361 40.2737 50.0985 40.2708 50.0638 40.2679C49.6504 40.2214 49.3094 39.919 49.214 39.5121C48.4942 36.4508 44.8231 32.0116 41.8487 30.4412L40.7849 32.0489C40.5855 32.3484 40.2531 32.517 39.883 32.4879C39.5275 32.4588 39.2124 32.235 39.0678 31.9065L35.4343 23.7346C35.2955 23.4236 35.3273 23.0631 35.5152 22.7811C35.7031 22.4991 36.0153 22.3247 36.3593 22.3392L45.2593 22.566C45.6177 22.5747 45.9414 22.7782 46.1091 23.098C46.2738 23.4178 46.2536 23.8045 46.0542 24.1039L45.1089 25.5314C49.1992 28.4735 53.6996 34.2271 51.0637 39.716C50.8989 40.059 50.552 40.2741 50.1791 40.2741L50.1707 40.2737ZM41.4928 28.2028C41.6084 28.2028 41.7269 28.2232 41.8425 28.2668C44.6204 29.325 47.9794 32.6973 49.8523 35.9883C49.6528 32.177 46.0367 28.4327 43.2154 26.6391C42.9899 26.4966 42.8338 26.2699 42.7789 26.0082C42.724 25.7466 42.776 25.4762 42.9234 25.2524L43.4235 24.4994L37.8706 24.357L40.1398 29.4562L40.6774 28.6452C40.8653 28.3632 41.1746 28.2033 41.4984 28.2033L41.4928 28.2028Z" fill="black"/>
<path fill-rule="evenodd" clip-rule="evenodd" d="M30.1654 56.6094H25.4393C24.2657 56.6094 23.3147 55.6499 23.3147 54.4726V51.4054C22.9707 51.231 22.6354 51.0362 22.3116 50.8211L19.6696 52.3561C19.3487 52.5422 18.9816 52.641 18.6087 52.641C17.8485 52.641 17.1431 52.2311 16.7645 51.5711L14.4 47.4546C13.8132 46.4341 14.1629 45.123 15.1776 44.5328L17.8225 42.9978C17.8109 42.803 17.8051 42.6082 17.8051 42.4164C17.8051 42.2245 17.8109 42.0297 17.8225 41.8349L15.1776 40.2999C14.1629 39.7098 13.8131 38.3986 14.4 37.3782L16.7645 33.2616C17.1432 32.6017 17.8484 32.1917 18.6087 32.1917C18.9816 32.1917 19.3458 32.2906 19.6696 32.4766L22.3116 34.0117C22.6353 33.7965 22.9707 33.6017 23.3147 33.4273V30.3602C23.3147 29.1799 24.2686 28.2234 25.4393 28.2234H30.1654C31.339 28.2234 32.2901 29.1828 32.2901 30.3602V33.4273C32.634 33.6017 32.9694 33.7965 33.2931 34.0117L35.9351 32.4766C36.256 32.2906 36.6231 32.1917 36.996 32.1917C37.7562 32.1917 38.4616 32.6017 38.8402 33.2616L41.2048 37.3782C41.7916 38.3986 41.4418 39.7097 40.4272 40.2999L37.7823 41.8349C37.7938 42.0297 37.7996 42.2245 37.7996 42.4164C37.7996 42.6082 37.7938 42.803 37.7823 42.9978L40.4272 44.5328C41.4418 45.123 41.7916 46.4341 41.2048 47.4546L38.8402 51.5711C38.4616 52.2311 37.7533 52.641 36.996 52.641C36.6231 52.641 36.2589 52.5422 35.9351 52.3561L33.2902 50.8211C32.9694 51.0362 32.6341 51.2281 32.2901 51.4025V54.4725C32.2901 55.6528 31.3361 56.6093 30.1626 56.6093L30.1654 56.6094ZM22.3636 48.6549C22.5746 48.6549 22.7828 48.7217 22.9591 48.8555C23.491 49.2625 24.072 49.5997 24.6819 49.8585C25.0461 50.0126 25.2831 50.3731 25.2831 50.7714V54.4723C25.2831 54.5566 25.3554 54.6293 25.4392 54.6293H30.1654C30.2492 54.6293 30.3215 54.5566 30.3215 54.4723V50.7714C30.3215 50.3731 30.5585 50.0126 30.9227 49.8585C31.5327 49.5997 32.1137 49.2625 32.6455 48.8584C32.9606 48.6171 33.3913 48.5909 33.7324 48.7886L36.9208 50.6405C36.9815 50.6783 37.0827 50.6754 37.1347 50.5823L39.4963 46.4658C39.5368 46.3931 39.5108 46.2913 39.4385 46.2506L36.2502 44.3987C35.9091 44.2011 35.7154 43.8144 35.7645 43.419C35.805 43.0847 35.8252 42.7475 35.8252 42.416C35.8252 42.0846 35.805 41.7473 35.7645 41.4159C35.7154 41.0205 35.9062 40.6367 36.2502 40.4362L39.4385 38.5842C39.5108 38.5435 39.5368 38.4418 39.4963 38.3691L37.1347 34.2525C37.0827 34.1624 36.9815 34.1566 36.9208 34.1944L33.7324 36.0463C33.3913 36.244 32.9606 36.2178 32.6455 35.9765C32.1137 35.5695 31.5355 35.2352 30.9227 34.9735C30.5585 34.8194 30.3215 34.4589 30.3215 34.0606V30.3597C30.3215 30.2754 30.2492 30.2027 30.1654 30.2027H25.4392C25.3554 30.2027 25.2831 30.2754 25.2831 30.3597V34.0606C25.2831 34.4589 25.0461 34.8194 24.6819 34.9735C24.072 35.2323 23.4909 35.5695 22.9591 35.9765C22.644 36.2178 22.2133 36.244 21.8722 36.0463L18.6838 34.1944C18.6202 34.1566 18.5219 34.1595 18.4699 34.2525L16.1054 38.3691C16.0649 38.4418 16.0909 38.5436 16.1632 38.5842L19.3516 40.4362C19.6955 40.6367 19.8863 41.0205 19.8372 41.4159C19.7967 41.7473 19.7765 42.0845 19.7765 42.416C19.7765 42.7474 19.7967 43.0847 19.8372 43.4161C19.8863 43.8115 19.6955 44.1982 19.3516 44.3958L16.1632 46.2477C16.0909 46.2884 16.0649 46.3902 16.1054 46.4629L18.4699 50.5794C18.5219 50.6725 18.6202 50.6754 18.6838 50.6376L21.8722 48.7857C22.0254 48.6985 22.1931 48.6549 22.3636 48.6549Z" fill="black"/>
<path fill-rule="evenodd" clip-rule="evenodd" d="M27.8004 48.6184C24.3952 48.6184 21.626 45.8333 21.626 42.4086C21.626 38.9867 24.3952 36.1987 27.8004 36.1987C31.2056 36.1987 33.9748 38.9838 33.9748 42.4086C33.9748 45.8304 31.2056 48.6184 27.8004 48.6184ZM27.8004 38.1818C25.4821 38.1818 23.5974 40.0803 23.5974 42.4089C23.5974 44.7405 25.4821 46.636 27.8004 46.636C30.1187 46.636 32.0034 44.7376 32.0034 42.4089C32.0034 40.0774 30.1158 38.1818 27.8004 38.1818Z" fill="black"/>
<path fill-rule="evenodd" clip-rule="evenodd" d="M68.2841 65.4031H63.1966C62.6532 65.4031 62.2109 64.9583 62.2109 64.4118V44.5524C62.2109 44.0058 62.6532 43.561 63.1966 43.561H68.2841C68.8276 43.561 69.2698 44.0058 69.2698 44.5524V64.4118C69.2698 64.9584 68.8275 65.4031 68.2841 65.4031ZM64.1823 63.4233H67.2984V45.5443H64.1823V63.4233Z" fill="black"/>
<path fill-rule="evenodd" clip-rule="evenodd" d="M57.5576 65.4014H52.473C51.9295 65.4014 51.4873 64.9566 51.4873 64.4101V51.1447C51.4873 50.5981 51.9296 50.1533 52.473 50.1533H57.5576C58.101 50.1533 58.5433 50.5981 58.5433 51.1447V64.4101C58.5433 64.9566 58.101 65.4014 57.5576 65.4014ZM53.4558 63.4216H56.5718V52.1358H53.4558V63.4216Z" fill="black"/>
<path fill-rule="evenodd" clip-rule="evenodd" d="M46.831 65.4159H41.7464C41.203 65.4159 40.7607 64.9711 40.7607 64.4246V57.7526C40.7607 57.206 41.203 56.7612 41.7464 56.7612H46.831C47.3745 56.7612 47.8167 57.206 47.8167 57.7526V64.4246C47.8167 64.9711 47.3744 65.4159 46.831 65.4159ZM42.7292 63.4361H45.8453V58.7438H42.7292V63.4361Z" fill="black"/>
<path fill-rule="evenodd" clip-rule="evenodd" d="M45.0046 51.218C44.7126 51.218 44.4265 51.09 44.2328 50.8429C43.8946 50.4156 43.9668 49.7905 44.3917 49.4533L64.4154 33.4981C64.8403 33.158 65.4618 33.2307 65.7971 33.658C66.1353 34.0883 66.0631 34.7105 65.6381 35.0506L45.6145 51.0057C45.4324 51.1511 45.2185 51.2209 45.0046 51.2209L45.0046 51.218Z" fill="black"/>
<path fill-rule="evenodd" clip-rule="evenodd" d="M64.5314 39.5202C64.4938 39.5202 64.4533 39.5173 64.4158 39.5115C63.8752 39.4476 63.4908 38.9562 63.5514 38.4126L63.933 35.1391L60.6753 34.7553C60.1348 34.6914 59.7503 34.2001 59.811 33.6564C59.8746 33.1127 60.366 32.7261 60.9037 32.7871L65.1385 33.2871C65.3986 33.3191 65.6328 33.4499 65.7975 33.6564C65.9594 33.8628 66.0346 34.1244 66.0028 34.3861L65.5056 38.6423C65.4477 39.1452 65.0228 39.5173 64.5285 39.5173L64.5314 39.5202Z" fill="black"/>
</svg>
