<svg width="84" height="64" viewBox="0 0 84 64" fill="none" xmlns="http://www.w3.org/2000/svg">
<path d="M61.1668 2H2V51.999H61.1668V30.2508" stroke="black" stroke-width="2.4" stroke-miterlimit="10" stroke-linecap="round" stroke-linejoin="round"/>
<path d="M9.8418 25.326L27.7433 14.2333L39.7497 25.8177L49.8632 12.8672" stroke="black" stroke-width="2.4" stroke-miterlimit="10" stroke-linecap="round" stroke-linejoin="round"/>
<path d="M31.583 52.2188V62" stroke="black" stroke-width="2.4" stroke-miterlimit="10" stroke-linecap="round" stroke-linejoin="round"/>
<path d="M42.3463 62H20.8213" stroke="black" stroke-width="2.4" stroke-miterlimit="10" stroke-linecap="round" stroke-linejoin="round"/>
<path d="M68.8016 24.0808C73.5216 21.5429 75.3116 15.6196 72.7998 10.8507C70.2879 6.08177 64.4254 4.27316 59.7054 6.81103C54.9855 9.3489 53.1954 15.2722 55.7072 20.0411C58.2191 24.81 64.0816 26.6186 68.8016 24.0808Z" stroke="black" stroke-width="2.4" stroke-miterlimit="10" stroke-linecap="round" stroke-linejoin="round"/>
<path d="M69.0088 24.5156L70.9558 28.2314" stroke="black" stroke-width="2.4" stroke-miterlimit="10" stroke-linecap="round" stroke-linejoin="round"/>
<path d="M81.2862 43.8562L77.9871 45.6048C77.3381 45.9326 76.5269 45.714 76.1483 45.0583L68.7389 30.9602C68.4144 30.3045 68.6308 29.4849 69.2798 29.1024L72.5788 27.3538C73.2278 27.0259 74.0391 27.2445 74.4176 27.9002L81.827 41.9983C82.2056 42.654 81.9352 43.4736 81.2862 43.8562Z" stroke="black" stroke-width="2.4" stroke-miterlimit="10" stroke-linecap="round" stroke-linejoin="round"/>
<path d="M11.3574 36.8047H36.0734" stroke="black" stroke-width="2.4" stroke-miterlimit="10" stroke-linecap="round" stroke-linejoin="round"/>
<path d="M11.3574 44.9453H32.8825" stroke="black" stroke-width="2.4" stroke-miterlimit="10" stroke-linecap="round" stroke-linejoin="round"/>
<path d="M47.1052 28.6094L52.4053 37.8988L57.7054 47.1882H47.1052H36.5049L41.805 37.8988L47.1052 28.6094Z" stroke="black" stroke-width="2.4" stroke-miterlimit="10" stroke-linecap="round" stroke-linejoin="round"/>
<path d="M47.1055 35.6641V38.6695" stroke="black" stroke-width="2.4" stroke-miterlimit="10" stroke-linecap="round" stroke-linejoin="round"/>
<path d="M47.1055 42.3281V43.0385" stroke="black" stroke-width="2.4" stroke-miterlimit="10" stroke-linecap="round" stroke-linejoin="round"/>
</svg>
