<svg width="1440" height="693" viewBox="0 0 1440 693" fill="none" xmlns="http://www.w3.org/2000/svg">
<g opacity="0.6" clip-path="url(#clip0_0_1)">
<path d="M1223.84 637.605C1223.84 638.368 1223.22 638.983 1222.46 638.983C1221.7 638.983 1221.08 638.368 1221.08 637.605C1221.08 636.843 1221.7 636.228 1222.46 636.228C1223.22 636.228 1223.84 636.847 1223.84 637.605Z" fill="white" fill-opacity="0.5"/>
<path d="M1046.61 643.511C1046.61 644.295 1045.97 644.927 1045.19 644.927C1044.41 644.927 1043.77 644.291 1043.77 643.511C1043.77 642.726 1044.41 642.094 1045.19 642.094C1045.98 642.09 1046.61 642.726 1046.61 643.511Z" fill="white" fill-opacity="0.5"/>
<path d="M1382.2 537.812C1382.2 538.61 1381.55 539.255 1380.75 539.255C1379.96 539.255 1379.31 538.61 1379.31 537.812C1379.31 537.015 1379.96 536.37 1380.75 536.37C1381.55 536.37 1382.2 537.015 1382.2 537.812Z" fill="white" fill-opacity="0.5"/>
<path d="M907.082 633.879C907.082 634.685 906.428 635.339 905.621 635.339C904.815 635.339 904.161 634.685 904.161 633.879C904.161 633.073 904.815 632.419 905.621 632.419C906.428 632.419 907.082 633.073 907.082 633.879Z" fill="white" fill-opacity="0.5"/>
<path d="M1207.78 170.036C1207.78 170.842 1207.13 171.496 1206.32 171.496C1205.51 171.496 1204.86 170.842 1204.86 170.036C1204.86 169.23 1205.51 168.576 1206.32 168.576C1207.13 168.576 1207.78 169.23 1207.78 170.036Z" fill="white" fill-opacity="0.5"/>
<path d="M1181.76 361.276C1182.57 361.276 1183.23 360.619 1183.23 359.808C1183.23 358.996 1182.57 358.339 1181.76 358.339C1180.95 358.339 1180.29 358.996 1180.29 359.808C1180.29 360.619 1180.95 361.276 1181.76 361.276Z" fill="white" fill-opacity="0.5"/>
<path d="M1180.88 456.541C1180.88 457.352 1180.22 458.01 1179.41 458.01C1178.6 458.01 1177.94 457.352 1177.94 456.541C1177.94 455.731 1178.6 455.073 1179.41 455.073C1180.22 455.073 1180.88 455.731 1180.88 456.541Z" fill="white" fill-opacity="0.5"/>
<path d="M1172.13 568.572C1172.13 569.387 1171.47 570.05 1170.66 570.05C1169.84 570.05 1169.18 569.387 1169.18 568.572C1169.18 567.757 1169.84 567.095 1170.66 567.095C1171.47 567.095 1172.13 567.753 1172.13 568.572Z" fill="white" fill-opacity="0.5"/>
<path d="M1412.68 445.193C1412.68 446.008 1412.01 446.67 1411.2 446.67C1410.38 446.67 1409.72 446.008 1409.72 445.193C1409.72 444.378 1410.38 443.715 1411.2 443.715C1412.01 443.715 1412.68 444.373 1412.68 445.193Z" fill="white" fill-opacity="0.5"/>
<path d="M1187.13 417.205C1187.13 418.024 1186.46 418.691 1185.64 418.691C1184.82 418.691 1184.16 418.024 1184.16 417.205C1184.16 416.385 1184.82 415.718 1185.64 415.718C1186.46 415.718 1187.13 416.381 1187.13 417.205Z" fill="white" fill-opacity="0.5"/>
<path d="M1170.93 347.635C1170.93 348.459 1170.26 349.126 1169.44 349.126C1168.62 349.126 1167.95 348.459 1167.95 347.635C1167.95 346.812 1168.62 346.145 1169.44 346.145C1170.26 346.145 1170.93 346.812 1170.93 347.635Z" fill="white" fill-opacity="0.5"/>
<path d="M1131.12 295.738C1131.12 296.566 1130.45 297.233 1129.63 297.233C1128.8 297.233 1128.13 296.562 1128.13 295.738C1128.13 294.91 1128.81 294.243 1129.63 294.243C1130.45 294.243 1131.12 294.91 1131.12 295.738Z" fill="white" fill-opacity="0.5"/>
<path d="M1300.65 286.482C1300.65 287.314 1299.98 287.985 1299.15 287.985C1298.32 287.985 1297.65 287.31 1297.65 286.482C1297.65 285.654 1298.32 284.978 1299.15 284.978C1299.98 284.978 1300.65 285.649 1300.65 286.482Z" fill="white" fill-opacity="0.5"/>
<path d="M1102.51 594.83C1102.51 595.662 1101.84 596.338 1101 596.338C1100.17 596.338 1099.5 595.662 1099.5 594.83C1099.5 593.998 1100.17 593.322 1101 593.322C1101.84 593.327 1102.51 593.998 1102.51 594.83Z" fill="white" fill-opacity="0.5"/>
<path d="M1388.54 475.499C1388.54 476.332 1387.87 477.007 1387.04 477.007C1386.2 477.007 1385.53 476.332 1385.53 475.499C1385.53 474.667 1386.2 473.991 1387.04 473.991C1387.87 473.991 1388.54 474.667 1388.54 475.499Z" fill="white" fill-opacity="0.5"/>
<path d="M1108.24 541.878C1108.24 542.72 1107.56 543.399 1106.72 543.399C1105.88 543.399 1105.2 542.72 1105.2 541.878C1105.2 541.037 1105.88 540.357 1106.72 540.357C1107.56 540.357 1108.24 541.037 1108.24 541.878Z" fill="white" fill-opacity="0.5"/>
<path d="M707.763 164.37C707.763 165.216 707.079 165.9 706.229 165.9C705.383 165.9 704.699 165.216 704.699 164.37C704.699 163.525 705.383 162.841 706.229 162.841C707.074 162.836 707.763 163.52 707.763 164.37Z" fill="white" fill-opacity="0.5"/>
<path d="M1167.09 222.857C1167.09 223.702 1166.41 224.391 1165.56 224.391C1164.71 224.391 1164.03 223.707 1164.03 222.857C1164.03 222.007 1164.71 221.323 1165.56 221.323C1166.41 221.323 1167.09 222.011 1167.09 222.857Z" fill="white" fill-opacity="0.5"/>
<path d="M1058.42 418.381C1058.42 419.231 1057.73 419.915 1056.88 419.915C1056.04 419.915 1055.35 419.227 1055.35 418.381C1055.35 417.536 1056.04 416.847 1056.88 416.847C1057.73 416.847 1058.42 417.536 1058.42 418.381Z" fill="white" fill-opacity="0.5"/>
<path d="M1218.8 161.202C1218.8 162.052 1218.11 162.745 1217.26 162.745C1216.4 162.745 1215.71 162.056 1215.71 161.202C1215.71 160.352 1216.4 159.659 1217.26 159.659C1218.11 159.659 1218.8 160.352 1218.8 161.202Z" fill="white" fill-opacity="0.5"/>
<path d="M1287.92 279.5C1287.92 280.363 1287.22 281.06 1286.36 281.06C1285.5 281.06 1284.8 280.363 1284.8 279.5C1284.8 278.637 1285.5 277.94 1286.36 277.94C1287.22 277.944 1287.92 278.641 1287.92 279.5Z" fill="white" fill-opacity="0.5"/>
<path d="M997.251 480.995C997.251 481.858 996.55 482.559 995.686 482.559C994.823 482.559 994.122 481.858 994.122 480.995C994.122 480.132 994.823 479.43 995.686 479.43C996.55 479.435 997.251 480.132 997.251 480.995Z" fill="white" fill-opacity="0.5"/>
<path d="M1164.78 684.669C1164.78 685.536 1164.08 686.243 1163.21 686.243C1162.34 686.243 1161.64 685.541 1161.64 684.669C1161.64 683.798 1162.34 683.096 1163.21 683.096C1164.08 683.1 1164.78 683.802 1164.78 684.669Z" fill="white" fill-opacity="0.5"/>
<path d="M1184.22 480.019C1184.22 480.89 1183.51 481.592 1182.65 481.592C1181.78 481.592 1181.07 480.886 1181.07 480.019C1181.07 479.147 1181.78 478.445 1182.65 478.445C1183.51 478.445 1184.22 479.151 1184.22 480.019Z" fill="white" fill-opacity="0.5"/>
<path d="M854.652 391.905C854.652 392.777 853.946 393.483 853.074 393.483C852.202 393.483 851.496 392.777 851.496 391.905C851.496 391.034 852.202 390.328 853.074 390.328C853.946 390.323 854.652 391.034 854.652 391.905Z" fill="white" fill-opacity="0.5"/>
<path d="M1394.12 306.952C1394.12 307.832 1393.4 308.543 1392.53 308.543C1391.65 308.543 1390.94 307.828 1390.94 306.952C1390.94 306.072 1391.65 305.361 1392.53 305.361C1393.4 305.361 1394.12 306.076 1394.12 306.952Z" fill="white" fill-opacity="0.5"/>
<path d="M1045.81 386.24C1045.81 387.12 1045.09 387.835 1044.21 387.835C1043.33 387.835 1042.62 387.12 1042.62 386.24C1042.62 385.36 1043.33 384.645 1044.21 384.645C1045.09 384.645 1045.81 385.355 1045.81 386.24Z" fill="white" fill-opacity="0.5"/>
<path d="M935.833 450.03C935.833 450.915 935.114 451.634 934.229 451.634C933.344 451.634 932.625 450.915 932.625 450.03C932.625 449.146 933.344 448.426 934.229 448.426C935.118 448.426 935.833 449.146 935.833 450.03Z" fill="white" fill-opacity="0.5"/>
<path d="M754.526 686.778C754.526 687.668 753.807 688.387 752.918 688.387C752.028 688.387 751.309 687.668 751.309 686.778C751.309 685.889 752.028 685.17 752.918 685.17C753.807 685.175 754.526 685.894 754.526 686.778Z" fill="white" fill-opacity="0.5"/>
<path d="M688.213 688.626C689.101 688.626 689.821 687.906 689.821 687.018C689.821 686.13 689.101 685.41 688.213 685.41C687.325 685.41 686.604 686.13 686.604 687.018C686.604 687.906 687.325 688.626 688.213 688.626Z" fill="white" fill-opacity="0.5"/>
<path d="M759.055 635.021C759.055 635.919 758.327 636.647 757.429 636.647C756.531 636.647 755.803 635.919 755.803 635.021C755.803 634.123 756.531 633.395 757.429 633.395C758.327 633.395 759.055 634.123 759.055 635.021Z" fill="white" fill-opacity="0.5"/>
<path d="M1185.37 328.394C1185.37 329.292 1184.64 330.024 1183.74 330.024C1182.84 330.024 1182.11 329.296 1182.11 328.394C1182.11 327.496 1182.84 326.764 1183.74 326.764C1184.64 326.764 1185.37 327.492 1185.37 328.394Z" fill="white" fill-opacity="0.5"/>
<path d="M680.655 507.589C681.555 507.589 682.285 506.859 682.285 505.959C682.285 505.058 681.555 504.329 680.655 504.329C679.754 504.329 679.024 505.058 679.024 505.959C679.024 506.859 679.754 507.589 680.655 507.589Z" fill="white" fill-opacity="0.5"/>
<path d="M1028.84 418.756C1028.84 419.658 1028.11 420.386 1027.21 420.386C1026.31 420.386 1025.58 419.654 1025.58 418.756C1025.58 417.854 1026.31 417.126 1027.21 417.126C1028.11 417.122 1028.84 417.854 1028.84 418.756Z" fill="white" fill-opacity="0.5"/>
<path d="M698.282 515.49C698.282 516.405 697.541 517.15 696.621 517.15C695.706 517.15 694.961 516.409 694.961 515.49C694.961 514.575 695.702 513.829 696.621 513.829C697.537 513.829 698.282 514.57 698.282 515.49Z" fill="white" fill-opacity="0.5"/>
<path d="M1375.46 602.352C1375.46 603.272 1374.72 604.017 1373.8 604.017C1372.88 604.017 1372.13 603.272 1372.13 602.352C1372.13 601.433 1372.88 600.687 1373.8 600.687C1374.72 600.683 1375.46 601.428 1375.46 602.352Z" fill="white" fill-opacity="0.5"/>
<path d="M1423.09 200.595C1423.09 201.528 1422.33 202.286 1421.4 202.286C1420.47 202.286 1419.71 201.528 1419.71 200.595C1419.71 199.663 1420.47 198.904 1421.4 198.904C1422.33 198.904 1423.09 199.663 1423.09 200.595Z" fill="white" fill-opacity="0.5"/>
<path d="M1355.55 606.057C1356.52 606.057 1357.31 605.266 1357.31 604.292C1357.31 603.317 1356.52 602.527 1355.55 602.527C1354.57 602.527 1353.78 603.317 1353.78 604.292C1353.78 605.266 1354.57 606.057 1355.55 606.057Z" fill="white" fill-opacity="0.5"/>
<path d="M1409.37 667.476C1409.37 668.452 1408.58 669.246 1407.6 669.246C1406.62 669.246 1405.83 668.452 1405.83 667.476C1405.83 666.496 1406.62 665.707 1407.6 665.707C1408.58 665.707 1409.37 666.5 1409.37 667.476Z" fill="white" fill-opacity="0.5"/>
<path d="M1188.91 196.882C1188.91 197.893 1188.09 198.717 1187.07 198.717C1186.06 198.717 1185.24 197.898 1185.24 196.882C1185.24 195.871 1186.06 195.047 1187.07 195.047C1188.09 195.047 1188.91 195.867 1188.91 196.882Z" fill="white" fill-opacity="0.5"/>
<path d="M1224.93 632.759C1224.93 633.775 1224.11 634.598 1223.09 634.598C1222.07 634.598 1221.25 633.775 1221.25 632.759C1221.25 631.744 1222.07 630.92 1223.09 630.92C1224.11 630.92 1224.93 631.744 1224.93 632.759Z" fill="white" fill-opacity="0.5"/>
<path d="M1313.16 173.767C1313.16 174.786 1312.34 175.61 1311.32 175.61C1310.3 175.61 1309.48 174.786 1309.48 173.767C1309.48 172.747 1310.3 171.923 1311.32 171.923C1312.34 171.923 1313.16 172.747 1313.16 173.767Z" fill="white" fill-opacity="0.5"/>
<path d="M1402.48 86.5859C1402.48 87.61 1401.65 88.4424 1400.62 88.4424C1399.6 88.4424 1398.77 87.61 1398.77 86.5859C1398.77 85.5617 1399.6 84.7293 1400.62 84.7293C1401.65 84.7293 1402.48 85.5617 1402.48 86.5859Z" fill="white" fill-opacity="0.5"/>
<path d="M1385.34 406.98C1385.34 408.009 1384.51 408.837 1383.49 408.837C1382.46 408.837 1381.63 408.004 1381.63 406.98C1381.63 405.956 1382.46 405.124 1383.49 405.124C1384.51 405.124 1385.34 405.956 1385.34 406.98Z" fill="white" fill-opacity="0.5"/>
<path d="M1173.42 681.008C1173.42 682.041 1172.59 682.878 1171.55 682.878C1170.52 682.878 1169.68 682.041 1169.68 681.008C1169.68 679.975 1170.52 679.139 1171.55 679.139C1172.59 679.139 1173.42 679.975 1173.42 681.008Z" fill="white" fill-opacity="0.5"/>
<path d="M951.016 382.71C952.051 382.71 952.89 381.871 952.89 380.836C952.89 379.801 952.051 378.962 951.016 378.962C949.981 378.962 949.142 379.801 949.142 380.836C949.142 381.871 949.981 382.71 951.016 382.71Z" fill="white" fill-opacity="0.5"/>
<path d="M1385.19 665.894C1385.19 666.936 1384.35 667.781 1383.3 667.781C1382.26 667.781 1381.42 666.936 1381.42 665.894C1381.42 664.853 1382.26 664.007 1383.3 664.007C1384.35 664.003 1385.19 664.853 1385.19 665.894Z" fill="white" fill-opacity="0.5"/>
<path d="M843.593 485.484C843.593 486.53 842.747 487.375 841.701 487.375C840.655 487.375 839.809 486.53 839.809 485.484C839.809 484.438 840.655 483.592 841.701 483.592C842.743 483.592 843.593 484.438 843.593 485.484Z" fill="white" fill-opacity="0.5"/>
<path d="M1201.34 277.238C1201.34 278.284 1200.49 279.134 1199.45 279.134C1198.4 279.134 1197.55 278.284 1197.55 277.238C1197.55 276.192 1198.4 275.342 1199.45 275.342C1200.49 275.342 1201.34 276.192 1201.34 277.238Z" fill="white" fill-opacity="0.5"/>
<path d="M745.277 407.216C745.277 408.266 744.427 409.116 743.376 409.116C742.326 409.116 741.476 408.266 741.476 407.216C741.476 406.165 742.326 405.315 743.376 405.315C744.427 405.315 745.277 406.17 745.277 407.216Z" fill="white" fill-opacity="0.5"/>
<path d="M1413.32 681.218C1413.32 682.268 1412.46 683.122 1411.41 683.122C1410.36 683.122 1409.51 682.268 1409.51 681.218C1409.51 680.167 1410.36 679.313 1411.41 679.313C1412.46 679.309 1413.32 680.163 1413.32 681.218Z" fill="white" fill-opacity="0.5"/>
<path d="M1170.85 562.113C1170.85 563.168 1170 564.027 1168.94 564.027C1167.88 564.027 1167.02 563.172 1167.02 562.113C1167.02 561.059 1167.88 560.2 1168.94 560.2C1170 560.204 1170.85 561.059 1170.85 562.113Z" fill="white" fill-opacity="0.5"/>
<path d="M634.201 360.788C634.201 361.847 633.342 362.706 632.283 362.706C631.224 362.706 630.365 361.847 630.365 360.788C630.365 359.729 631.224 358.871 632.283 358.871C633.342 358.871 634.201 359.729 634.201 360.788Z" fill="white" fill-opacity="0.5"/>
<path d="M793.635 411.003C793.635 412.071 792.767 412.938 791.699 412.938C790.631 412.938 789.764 412.071 789.764 411.003C789.764 409.935 790.631 409.068 791.699 409.068C792.767 409.068 793.635 409.931 793.635 411.003Z" fill="white" fill-opacity="0.5"/>
<path d="M733.381 200.648C733.381 201.72 732.513 202.587 731.441 202.587C730.369 202.587 729.501 201.72 729.501 200.648C729.501 199.576 730.369 198.708 731.441 198.708C732.513 198.708 733.381 199.576 733.381 200.648Z" fill="white" fill-opacity="0.5"/>
<path d="M1154.21 671.337C1154.21 672.41 1153.34 673.281 1152.27 673.281C1151.2 673.281 1150.33 672.41 1150.33 671.337C1150.33 670.265 1151.2 669.394 1152.27 669.394C1153.34 669.394 1154.21 670.265 1154.21 671.337Z" fill="white" fill-opacity="0.5"/>
<path d="M847.642 570.878C847.642 571.954 846.771 572.821 845.698 572.821C844.622 572.821 843.754 571.95 843.754 570.878C843.754 569.806 844.626 568.934 845.698 568.934C846.771 568.93 847.642 569.801 847.642 570.878Z" fill="white" fill-opacity="0.5"/>
<path d="M945.039 586.279C945.039 587.356 944.168 588.232 943.087 588.232C942.01 588.232 941.134 587.356 941.134 586.279C941.134 585.203 942.01 584.327 943.087 584.327C944.168 584.327 945.039 585.203 945.039 586.279Z" fill="white" fill-opacity="0.5"/>
<path d="M1242.98 558.727C1242.98 559.808 1242.1 560.684 1241.02 560.684C1239.94 560.684 1239.07 559.808 1239.07 558.727C1239.07 557.646 1239.94 556.77 1241.02 556.77C1242.1 556.77 1242.98 557.646 1242.98 558.727Z" fill="white" fill-opacity="0.5"/>
<path d="M1020.26 385.586C1020.26 386.667 1019.38 387.547 1018.3 387.547C1017.22 387.547 1016.33 386.671 1016.33 385.586C1016.33 384.505 1017.21 383.625 1018.3 383.625C1019.38 383.629 1020.26 384.505 1020.26 385.586Z" fill="white" fill-opacity="0.5"/>
<path d="M1019.01 684.207C1019.01 685.297 1018.13 686.181 1017.04 686.181C1015.95 686.181 1015.06 685.297 1015.06 684.207C1015.06 683.118 1015.95 682.233 1017.04 682.233C1018.13 682.233 1019.01 683.118 1019.01 684.207Z" fill="white" fill-opacity="0.5"/>
<path d="M1404.85 150.198C1404.85 151.291 1403.96 152.176 1402.87 152.176C1401.77 152.176 1400.89 151.291 1400.89 150.198C1400.89 149.104 1401.77 148.219 1402.87 148.219C1403.96 148.219 1404.85 149.104 1404.85 150.198Z" fill="white" fill-opacity="0.5"/>
<path d="M831.88 580.361C831.88 581.455 830.991 582.344 829.897 582.344C828.803 582.344 827.914 581.455 827.914 580.361C827.914 579.267 828.803 578.378 829.897 578.378C830.991 578.378 831.88 579.267 831.88 580.361Z" fill="white" fill-opacity="0.5"/>
<path d="M1433.39 248.853C1433.39 249.947 1432.5 250.836 1431.41 250.836C1430.32 250.836 1429.43 249.947 1429.43 248.853C1429.43 247.759 1430.32 246.87 1431.41 246.87C1432.5 246.87 1433.39 247.759 1433.39 248.853Z" fill="white" fill-opacity="0.5"/>
<path d="M977.143 423.934C977.143 425.027 976.254 425.917 975.16 425.917C974.066 425.917 973.177 425.027 973.177 423.934C973.177 422.84 974.066 421.951 975.16 421.951C976.254 421.946 977.143 422.835 977.143 423.934Z" fill="white" fill-opacity="0.5"/>
<path d="M1240.94 24.3775C1240.94 25.4888 1240.04 26.391 1238.93 26.391C1237.81 26.391 1236.91 25.4888 1236.91 24.3775C1236.91 23.2662 1237.81 22.364 1238.93 22.364C1240.04 22.364 1240.94 23.2662 1240.94 24.3775Z" fill="white" fill-opacity="0.5"/>
<path d="M1125.4 162.217C1125.4 163.333 1124.5 164.235 1123.38 164.235C1122.27 164.235 1121.36 163.333 1121.36 162.217C1121.36 161.102 1122.27 160.2 1123.38 160.2C1124.5 160.2 1125.4 161.102 1125.4 162.217Z" fill="white" fill-opacity="0.5"/>
<path d="M1426.77 476.563C1426.77 477.678 1425.87 478.585 1424.75 478.585C1423.63 478.585 1422.73 477.678 1422.73 476.563C1422.73 475.447 1423.63 474.54 1424.75 474.54C1425.87 474.54 1426.77 475.447 1426.77 476.563Z" fill="white" fill-opacity="0.5"/>
<path d="M1173.98 297.917C1173.98 299.037 1173.08 299.944 1171.95 299.944C1170.83 299.944 1169.93 299.037 1169.93 297.917C1169.93 296.797 1170.83 295.891 1171.95 295.891C1173.08 295.891 1173.98 296.797 1173.98 297.917Z" fill="white" fill-opacity="0.5"/>
<path d="M456.694 345.391C456.694 346.52 455.779 347.43 454.654 347.43C453.526 347.43 452.614 346.515 452.614 345.391C452.614 344.262 453.53 343.351 454.654 343.351C455.779 343.351 456.694 344.266 456.694 345.391Z" fill="white" fill-opacity="0.5"/>
<path d="M1398.8 265.17C1398.8 266.303 1397.88 267.223 1396.74 267.223C1395.61 267.223 1394.69 266.303 1394.69 265.17C1394.69 264.037 1395.61 263.117 1396.74 263.117C1397.88 263.113 1398.8 264.033 1398.8 265.17Z" fill="white" fill-opacity="0.5"/>
<path d="M1294.5 438.324C1294.5 439.462 1293.58 440.381 1292.44 440.381C1291.3 440.381 1290.38 439.462 1290.38 438.324C1290.38 437.187 1291.3 436.267 1292.44 436.267C1293.58 436.267 1294.5 437.187 1294.5 438.324Z" fill="white" fill-opacity="0.5"/>
<path d="M1155.6 600.199C1155.6 601.341 1154.67 602.269 1153.53 602.269C1152.38 602.269 1151.45 601.341 1151.45 600.199C1151.45 599.057 1152.38 598.129 1153.53 598.129C1154.67 598.129 1155.6 599.057 1155.6 600.199Z" fill="white" fill-opacity="0.5"/>
<path d="M1118.85 68.822C1118.85 69.9682 1117.92 70.8965 1116.77 70.8965C1115.63 70.8965 1114.7 69.9682 1114.7 68.822C1114.7 67.6759 1115.63 66.7476 1116.77 66.7476C1117.92 66.7476 1118.85 67.6759 1118.85 68.822Z" fill="white" fill-opacity="0.5"/>
<path d="M680.593 626.906C680.593 628.061 679.661 628.994 678.505 628.994C677.35 628.994 676.417 628.057 676.417 626.906C676.417 625.751 677.35 624.819 678.505 624.819C679.661 624.819 680.593 625.751 680.593 626.906Z" fill="white" fill-opacity="0.5"/>
<path d="M937.115 403.254C937.115 404.418 936.173 405.359 935.01 405.359C933.846 405.359 932.904 404.418 932.904 403.254C932.904 402.091 933.846 401.149 935.01 401.149C936.173 401.149 937.115 402.095 937.115 403.254Z" fill="white" fill-opacity="0.5"/>
<path d="M1199.66 468.295C1199.66 469.463 1198.71 470.405 1197.55 470.405C1196.38 470.405 1195.44 469.459 1195.44 468.295C1195.44 467.132 1196.38 466.186 1197.55 466.186C1198.71 466.182 1199.66 467.127 1199.66 468.295Z" fill="white" fill-opacity="0.5"/>
<path d="M1388.4 152.682C1388.4 153.85 1387.45 154.795 1386.29 154.795C1385.12 154.795 1384.17 153.85 1384.17 152.682C1384.17 151.514 1385.12 150.568 1386.29 150.568C1387.45 150.568 1388.4 151.514 1388.4 152.682Z" fill="white" fill-opacity="0.5"/>
<path d="M1042.43 95.677C1042.43 96.845 1041.48 97.7907 1040.31 97.7907C1039.15 97.7907 1038.2 96.845 1038.2 95.677C1038.2 94.509 1039.15 93.5633 1040.31 93.5633C1041.48 93.5633 1042.43 94.509 1042.43 95.677Z" fill="white" fill-opacity="0.5"/>
<path d="M394.073 242.713C394.073 243.881 393.128 244.826 391.959 244.826C390.791 244.826 389.845 243.881 389.845 242.713C389.845 241.545 390.791 240.599 391.959 240.599C393.128 240.599 394.073 241.545 394.073 242.713Z" fill="white" fill-opacity="0.5"/>
<path d="M1408.49 602.884C1408.49 604.065 1407.53 605.019 1406.35 605.019C1405.17 605.019 1404.21 604.061 1404.21 602.884C1404.21 601.703 1405.17 600.748 1406.35 600.748C1407.53 600.748 1408.49 601.703 1408.49 602.884Z" fill="white" fill-opacity="0.5"/>
<path d="M1209.14 397.767C1210.32 397.767 1211.28 396.809 1211.28 395.627C1211.28 394.446 1210.32 393.487 1209.14 393.487C1207.95 393.487 1207 394.446 1207 395.627C1207 396.809 1207.95 397.767 1209.14 397.767Z" fill="white" fill-opacity="0.5"/>
<path d="M433.784 98.4183C433.784 99.6124 432.816 100.58 431.622 100.58C430.427 100.58 429.46 99.6124 429.46 98.4183C429.46 97.2241 430.427 96.2566 431.622 96.2566C432.816 96.2566 433.784 97.2241 433.784 98.4183Z" fill="white" fill-opacity="0.5"/>
<path d="M1322.27 394.638C1322.27 395.832 1321.29 396.804 1320.1 396.804C1318.9 396.804 1317.93 395.832 1317.93 394.638C1317.93 393.444 1318.9 392.472 1320.1 392.472C1321.29 392.472 1322.27 393.44 1322.27 394.638Z" fill="white" fill-opacity="0.5"/>
<path d="M644.043 620.304C644.043 621.502 643.071 622.47 641.877 622.47C640.678 622.47 639.711 621.498 639.711 620.304C639.711 619.105 640.683 618.137 641.877 618.137C643.071 618.133 644.043 619.105 644.043 620.304Z" fill="white" fill-opacity="0.5"/>
<path d="M901.031 303.409C901.031 304.607 900.059 305.579 898.861 305.579C897.662 305.579 896.69 304.607 896.69 303.409C896.69 302.21 897.662 301.238 898.861 301.238C900.059 301.243 901.031 302.21 901.031 303.409Z" fill="white" fill-opacity="0.5"/>
<path d="M1076.97 395.083C1076.97 396.281 1076 397.253 1074.8 397.253C1073.6 397.253 1072.63 396.281 1072.63 395.083C1072.63 393.884 1073.6 392.912 1074.8 392.912C1076 392.912 1076.97 393.884 1076.97 395.083Z" fill="white" fill-opacity="0.5"/>
<path d="M736.174 494.3C736.174 495.499 735.202 496.471 734.004 496.471C732.805 496.471 731.833 495.499 731.833 494.3C731.833 493.102 732.805 492.13 734.004 492.13C735.202 492.13 736.174 493.102 736.174 494.3Z" fill="white" fill-opacity="0.5"/>
<path d="M449.868 571.257C449.868 572.468 448.888 573.453 447.671 573.453C446.46 573.453 445.479 572.473 445.479 571.257C445.479 570.041 446.46 569.06 447.671 569.06C448.888 569.06 449.868 570.045 449.868 571.257Z" fill="white" fill-opacity="0.5"/>
<path d="M1266.83 549.671C1266.83 550.887 1265.85 551.867 1264.64 551.867C1263.42 551.867 1262.44 550.882 1262.44 549.671C1262.44 548.455 1263.42 547.474 1264.64 547.474C1265.85 547.474 1266.83 548.459 1266.83 549.671Z" fill="white" fill-opacity="0.5"/>
<path d="M566.227 654.672C566.227 655.892 565.237 656.886 564.012 656.886C562.792 656.886 561.798 655.897 561.798 654.672C561.798 653.452 562.788 652.458 564.012 652.458C565.237 652.462 566.227 653.452 566.227 654.672Z" fill="white" fill-opacity="0.5"/>
<path d="M572.321 106.921C572.321 108.15 571.323 109.148 570.093 109.148C568.864 109.148 567.866 108.15 567.866 106.921C567.866 105.692 568.864 104.694 570.093 104.694C571.323 104.694 572.321 105.692 572.321 106.921Z" fill="white" fill-opacity="0.5"/>
<path d="M1234.05 380.195C1234.05 381.437 1233.04 382.444 1231.8 382.444C1230.56 382.444 1229.55 381.437 1229.55 380.195C1229.55 378.953 1230.56 377.946 1231.8 377.946C1233.04 377.946 1234.05 378.953 1234.05 380.195Z" fill="white" fill-opacity="0.5"/>
<path d="M1171.21 126.019C1171.21 127.265 1170.2 128.276 1168.96 128.276C1167.71 128.276 1166.7 127.265 1166.7 126.019C1166.7 124.772 1167.71 123.761 1168.96 123.761C1170.2 123.761 1171.21 124.772 1171.21 126.019Z" fill="white" fill-opacity="0.5"/>
<path d="M1341.4 195.392C1341.4 196.647 1340.38 197.662 1339.13 197.662C1337.87 197.662 1336.85 196.647 1336.85 195.392C1336.85 194.137 1337.87 193.121 1339.13 193.121C1340.38 193.125 1341.4 194.141 1341.4 195.392Z" fill="white" fill-opacity="0.5"/>
<path d="M438.805 523.77C438.805 525.025 437.79 526.041 436.534 526.041C435.279 526.041 434.263 525.025 434.263 523.77C434.263 522.515 435.279 521.5 436.534 521.5C437.79 521.5 438.805 522.515 438.805 523.77Z" fill="white" fill-opacity="0.5"/>
<path d="M663.035 572.603C663.035 573.863 662.015 574.883 660.756 574.883C659.496 574.883 658.476 573.863 658.476 572.603C658.476 571.344 659.496 570.324 660.756 570.324C662.015 570.329 663.035 571.348 663.035 572.603Z" fill="white" fill-opacity="0.5"/>
<path d="M1134.6 640.26C1134.6 641.523 1133.57 642.548 1132.31 642.548C1131.05 642.548 1130.02 641.523 1130.02 640.26C1130.02 638.996 1131.05 637.971 1132.31 637.971C1133.57 637.971 1134.6 638.996 1134.6 640.26Z" fill="white" fill-opacity="0.5"/>
<path d="M526.891 515.873C526.891 517.146 525.858 518.183 524.581 518.183C523.308 518.183 522.271 517.15 522.271 515.873C522.271 514.596 523.304 513.563 524.581 513.563C525.858 513.568 526.891 514.601 526.891 515.873Z" fill="white" fill-opacity="0.5"/>
<path d="M301.664 58.334C302.159 57.1556 301.605 55.7992 300.426 55.3043C299.248 54.8094 297.891 55.3635 297.396 56.5419C296.901 57.7203 297.455 59.0768 298.634 59.5716C299.813 60.0665 301.169 59.5124 301.664 58.334Z" fill="white" fill-opacity="0.5"/>
<path d="M602.097 497.229C602.097 498.51 601.059 499.548 599.778 499.548C598.496 499.548 597.459 498.51 597.459 497.229C597.459 495.948 598.496 494.911 599.778 494.911C601.059 494.911 602.097 495.948 602.097 497.229Z" fill="white" fill-opacity="0.5"/>
<path d="M502.019 496.227C502.019 497.512 500.977 498.554 499.691 498.554C498.406 498.554 497.364 497.512 497.364 496.227C497.364 494.941 498.406 493.899 499.691 493.899C500.977 493.904 502.019 494.945 502.019 496.227Z" fill="white" fill-opacity="0.5"/>
<path d="M995.495 121.987C995.495 123.277 994.449 124.323 993.158 124.323C991.868 124.323 990.822 123.277 990.822 121.987C990.822 120.697 991.868 119.651 993.158 119.651C994.449 119.651 995.495 120.697 995.495 121.987Z" fill="white" fill-opacity="0.5"/>
<path d="M612.096 254.632C612.096 255.935 611.042 256.99 609.738 256.99C608.435 256.99 607.38 255.935 607.38 254.632C607.38 253.329 608.435 252.274 609.738 252.274C611.042 252.274 612.096 253.329 612.096 254.632Z" fill="white" fill-opacity="0.5"/>
<path d="M561.384 358.701C561.384 360.004 560.325 361.063 559.021 361.063C557.718 361.063 556.659 360.004 556.659 358.701C556.659 357.398 557.718 356.339 559.021 356.339C560.325 356.339 561.384 357.398 561.384 358.701Z" fill="white" fill-opacity="0.5"/>
<path d="M510.802 91.8026C510.802 93.1101 509.739 94.1734 508.431 94.1734C507.124 94.1734 506.06 93.1144 506.06 91.8026C506.06 90.4908 507.124 89.4318 508.431 89.4318C509.743 89.4318 510.802 90.4908 510.802 91.8026Z" fill="white" fill-opacity="0.5"/>
<path d="M1365.71 242.543C1365.71 243.854 1364.65 244.918 1363.34 244.918C1362.02 244.918 1360.96 243.854 1360.96 242.543C1360.96 241.231 1362.02 240.167 1363.34 240.167C1364.65 240.167 1365.71 241.231 1365.71 242.543Z" fill="white" fill-opacity="0.5"/>
<path d="M345.715 602.095C345.715 603.407 344.651 604.47 343.339 604.47C342.027 604.47 340.964 603.407 340.964 602.095C340.964 600.783 342.027 599.72 343.339 599.72C344.651 599.72 345.715 600.783 345.715 602.095Z" fill="white" fill-opacity="0.5"/>
<path d="M976.843 481.871C976.843 483.196 975.77 484.268 974.445 484.268C973.12 484.268 972.048 483.196 972.048 481.871C972.048 480.546 973.12 479.474 974.445 479.474C975.77 479.474 976.843 480.546 976.843 481.871Z" fill="white" fill-opacity="0.5"/>
<path d="M752.817 34.3882C754.144 34.3882 755.219 33.3131 755.219 31.9869C755.219 30.6606 754.144 29.5855 752.817 29.5855C751.491 29.5855 750.416 30.6606 750.416 31.9869C750.416 33.3131 751.491 34.3882 752.817 34.3882Z" fill="white" fill-opacity="0.5"/>
<path d="M519.996 215.579C519.996 216.904 518.919 217.98 517.594 217.98C516.269 217.98 515.192 216.904 515.192 215.579C515.192 214.254 516.269 213.177 517.594 213.177C518.919 213.177 519.996 214.254 519.996 215.579Z" fill="white" fill-opacity="0.5"/>
<path d="M1216.29 94.7444C1216.29 96.078 1215.21 97.1544 1213.88 97.1544C1212.55 97.1544 1211.47 96.0736 1211.47 94.7444C1211.47 93.4151 1212.55 92.3343 1213.88 92.3343C1215.21 92.3343 1216.29 93.4108 1216.29 94.7444Z" fill="white" fill-opacity="0.5"/>
<path d="M942.433 392.572C942.433 393.91 941.348 394.995 940.009 394.995C938.671 394.995 937.586 393.91 937.586 392.572C937.586 391.234 938.671 390.149 940.009 390.149C941.348 390.145 942.433 391.23 942.433 392.572Z" fill="white" fill-opacity="0.5"/>
<path d="M645.996 81.4346C645.996 82.7725 644.911 83.8577 643.573 83.8577C642.234 83.8577 641.149 82.7725 641.149 81.4346C641.149 80.0966 642.234 79.0114 643.573 79.0114C644.911 79.0071 645.996 80.0922 645.996 81.4346Z" fill="white" fill-opacity="0.5"/>
<path d="M310.202 423.912C310.202 425.254 309.113 426.339 307.774 426.339C306.432 426.339 305.346 425.25 305.346 423.912C305.346 422.569 306.436 421.484 307.774 421.484C309.117 421.48 310.202 422.569 310.202 423.912Z" fill="white" fill-opacity="0.5"/>
<path d="M392.452 452.623C392.452 453.97 391.358 455.064 390.011 455.064C388.664 455.064 387.57 453.97 387.57 452.623C387.57 451.277 388.664 450.183 390.011 450.183C391.362 450.183 392.452 451.277 392.452 452.623Z" fill="white" fill-opacity="0.5"/>
<path d="M129.222 188.61C129.222 189.961 128.128 191.055 126.776 191.055C125.425 191.055 124.331 189.961 124.331 188.61C124.331 187.259 125.425 186.165 126.776 186.165C128.128 186.165 129.222 187.264 129.222 188.61Z" fill="white" fill-opacity="0.5"/>
<path d="M589.251 512.256C589.251 513.611 588.153 514.714 586.793 514.714C585.433 514.714 584.334 513.616 584.334 512.256C584.334 510.901 585.433 509.798 586.793 509.798C588.153 509.798 589.251 510.901 589.251 512.256Z" fill="white" fill-opacity="0.5"/>
<path d="M1246.33 345.635C1247.7 345.635 1248.82 344.523 1248.82 343.151C1248.82 341.779 1247.7 340.667 1246.33 340.667C1244.96 340.667 1243.85 341.779 1243.85 343.151C1243.85 344.523 1244.96 345.635 1246.33 345.635Z" fill="white" fill-opacity="0.5"/>
<path d="M410.463 142.174C410.463 143.547 409.352 144.658 407.979 144.658C406.605 144.658 405.494 143.547 405.494 142.174C405.494 140.801 406.605 139.69 407.979 139.69C409.352 139.694 410.463 140.806 410.463 142.174Z" fill="white" fill-opacity="0.5"/>
<path d="M269.293 148.677C269.293 150.093 268.147 151.239 266.73 151.239C265.314 151.239 264.167 150.093 264.167 148.677C264.167 147.26 265.314 146.114 266.73 146.114C268.147 146.114 269.293 147.26 269.293 148.677Z" fill="white" fill-opacity="0.5"/>
<path d="M437.733 298.257C439.163 298.257 440.322 297.098 440.322 295.669C440.322 294.239 439.163 293.08 437.733 293.08C436.303 293.08 435.144 294.239 435.144 295.669C435.144 297.098 436.303 298.257 437.733 298.257Z" fill="white" fill-opacity="0.5"/>
<path d="M1152.18 537.734C1152.18 539.172 1151.01 540.336 1149.58 540.336C1148.14 540.336 1146.97 539.172 1146.97 537.734C1146.97 536.296 1148.14 535.132 1149.58 535.132C1151.01 535.128 1152.18 536.296 1152.18 537.734Z" fill="white" fill-opacity="0.5"/>
<path d="M799.24 203.903C799.24 205.354 798.063 206.531 796.612 206.531C795.16 206.531 793.983 205.354 793.983 203.903C793.983 202.452 795.16 201.275 796.612 201.275C798.063 201.275 799.24 202.452 799.24 203.903Z" fill="white" fill-opacity="0.5"/>
<path d="M1297.36 166.34C1297.36 167.8 1296.18 168.981 1294.72 168.981C1293.26 168.981 1292.08 167.8 1292.08 166.34C1292.08 164.88 1293.26 163.699 1294.72 163.699C1296.18 163.699 1297.36 164.88 1297.36 166.34Z" fill="white" fill-opacity="0.5"/>
<path d="M946.665 235.439C946.665 236.916 945.467 238.115 943.989 238.115C942.511 238.115 941.313 236.916 941.313 235.439C941.313 233.961 942.511 232.763 943.989 232.763C945.467 232.763 946.665 233.961 946.665 235.439Z" fill="white" fill-opacity="0.5"/>
<path d="M434.015 578.286C434.015 579.79 432.794 581.015 431.29 581.015C429.787 581.015 428.566 579.794 428.566 578.286C428.566 576.779 429.787 575.563 431.29 575.563C432.794 575.563 434.015 576.783 434.015 578.286Z" fill="white" fill-opacity="0.5"/>
<path d="M1263.04 391.278C1264.55 391.278 1265.78 390.051 1265.78 388.537C1265.78 387.023 1264.55 385.795 1263.04 385.795C1261.52 385.795 1260.29 387.023 1260.29 388.537C1260.29 390.051 1261.52 391.278 1263.04 391.278Z" fill="white" fill-opacity="0.5"/>
<path d="M1436.18 178.648C1436.18 180.195 1434.92 181.45 1433.38 181.45C1431.83 181.45 1430.57 180.195 1430.57 178.648C1430.57 177.101 1431.83 175.845 1433.38 175.845C1434.92 175.841 1436.18 177.096 1436.18 178.648Z" fill="white" fill-opacity="0.5"/>
<path d="M643.612 282.376C643.612 283.923 642.356 285.183 640.805 285.183C639.253 285.183 637.997 283.928 637.997 282.376C637.997 280.825 639.253 279.57 640.805 279.57C642.356 279.57 643.612 280.825 643.612 282.376Z" fill="white" fill-opacity="0.5"/>
<path d="M32.6356 86.1719C34.1932 86.1719 35.4559 84.9094 35.4559 83.3521C35.4559 81.7948 34.1932 80.5324 32.6356 80.5324C31.078 80.5324 29.8154 81.7948 29.8154 83.3521C29.8154 84.9094 31.078 86.1719 32.6356 86.1719Z" fill="white" fill-opacity="0.5"/>
<path d="M90.427 406.244C90.427 407.843 89.1324 409.138 87.5326 409.138C85.9329 409.138 84.6382 407.843 84.6382 406.244C84.6382 404.644 85.9329 403.35 87.5326 403.35C89.1324 403.346 90.427 404.644 90.427 406.244Z" fill="white" fill-opacity="0.5"/>
<path d="M1179.37 458.206C1180.29 458.228 1181.06 457.5 1181.08 456.581L1183.43 359.847C1183.45 358.927 1182.72 358.165 1181.8 358.143C1180.88 358.121 1180.12 358.849 1180.1 359.768L1177.75 456.502C1177.73 457.422 1178.45 458.184 1179.37 458.206Z" fill="white" fill-opacity="0.087"/>
<path d="M1181.77 358.265C1180.85 358.26 1180.1 359.001 1180.1 359.921L1183.99 417.318C1184.11 418.133 1184.81 418.743 1185.63 418.747C1186.55 418.752 1187.3 418.011 1187.31 417.091L1183.41 359.694C1183.29 358.879 1182.6 358.269 1181.77 358.265Z" fill="white" fill-opacity="0.2619"/>
<path d="M1179.15 458.189C1180.06 458.332 1180.92 457.709 1181.06 456.803L1187.29 417.462C1187.36 416.638 1186.81 415.888 1186.01 415.701C1185.12 415.492 1184.22 416.045 1184.01 416.943L1177.77 456.284C1177.62 457.191 1178.24 458.045 1179.15 458.189Z" fill="white" fill-opacity="0.5"/>
<path d="M1170.6 346.45C1169.95 345.801 1168.89 345.805 1168.25 346.459C1167.6 347.112 1167.6 348.167 1168.25 348.816L1180.58 360.989C1181.23 361.638 1182.29 361.634 1182.94 360.98C1183.58 360.326 1183.58 359.272 1182.93 358.622L1170.6 346.45Z" fill="white" fill-opacity="0.5"/>
<path d="M1169.35 346.04C1168.43 346.088 1167.73 346.868 1167.77 347.788L1177.77 456.694C1177.88 457.552 1178.63 458.18 1179.5 458.136C1180.42 458.088 1181.13 457.308 1181.08 456.389L1171.09 347.483C1170.97 346.624 1170.22 345.997 1169.35 346.04Z" fill="white" fill-opacity="0.01"/>
<path d="M1182.73 361.089C1183.46 360.531 1183.6 359.49 1183.04 358.757L1130.91 294.688C1130.34 294.026 1129.35 293.925 1128.65 294.457C1127.92 295.015 1127.77 296.056 1128.33 296.789L1180.46 360.858C1181.04 361.516 1182.03 361.621 1182.73 361.089Z" fill="white" fill-opacity="0.2604"/>
<path d="M1171.06 347.261C1170.85 346.363 1169.95 345.805 1169.06 346.014C1168.16 346.223 1167.6 347.117 1167.81 348.014L1184.03 417.579C1184.24 418.477 1185.13 419.035 1186.03 418.826C1186.93 418.617 1187.49 417.723 1187.28 416.825L1171.06 347.261Z" fill="white" fill-opacity="0.3654"/>
<path d="M1171.24 570.128C1172.1 569.801 1172.53 568.838 1172.21 567.979C1171.88 567.121 1170.92 566.685 1170.06 567.012L1100.42 593.274C1099.63 593.614 1099.23 594.494 1099.5 595.309C1099.77 596.185 1100.71 596.669 1101.59 596.386L1171.24 570.128Z" fill="white" fill-opacity="0.2529"/>
<path d="M1170.45 348.96C1171.18 348.402 1171.32 347.356 1170.76 346.624L1130.95 294.727C1130.39 293.995 1129.34 293.856 1128.61 294.418C1127.88 294.976 1127.74 296.022 1128.3 296.754L1168.11 348.651C1168.67 349.378 1169.71 349.518 1170.45 348.96Z" fill="white" fill-opacity="0.4425"/>
<path d="M1412.25 444.025C1411.56 443.41 1410.51 443.471 1409.9 444.155L1385.74 474.466C1385.24 475.159 1385.35 476.109 1385.98 476.676C1386.67 477.286 1387.72 477.23 1388.33 476.541L1412.5 446.23C1412.98 445.537 1412.88 444.587 1412.25 444.025Z" fill="white" fill-opacity="0.2828"/>
<path d="M1105.18 541.229C1104.82 542.079 1105.22 543.055 1106.07 543.417L1170.01 570.106C1170.83 570.424 1171.76 570.041 1172.12 569.235C1172.5 568.398 1172.13 567.409 1171.29 567.034L1107.36 540.344C1106.52 539.983 1105.54 540.384 1105.18 541.229Z" fill="white" fill-opacity="0.1434"/>
<path d="M1449.59 503.657C1449.97 502.825 1449.61 501.836 1448.78 501.448L1387.72 473.983C1386.89 473.625 1385.92 473.991 1385.54 474.806C1385.16 475.639 1385.52 476.628 1386.35 477.02L1447.41 504.485C1448.24 504.843 1449.2 504.477 1449.59 503.657Z" fill="white" fill-opacity="0.3496"/>
<path d="M1107.03 540.401C1106.13 540.218 1105.25 540.802 1105.07 541.704L1099.36 594.656C1099.26 595.571 1099.92 596.39 1100.84 596.491C1101.75 596.591 1102.57 595.928 1102.67 595.013L1108.37 542.061C1108.37 541.255 1107.82 540.558 1107.03 540.401Z" fill="white" fill-opacity="0.4493"/>
<path d="M1218.36 160.104C1217.69 159.454 1216.63 159.459 1215.98 160.121L1164.27 221.78C1163.68 222.486 1163.77 223.541 1164.48 224.138C1165.19 224.731 1166.24 224.639 1166.84 223.929L1218.54 162.283C1219.03 161.612 1218.95 160.683 1218.36 160.104Z" fill="white" fill-opacity="0.2494"/>
<path d="M1058.08 419.554C1058.73 418.891 1058.71 417.832 1058.05 417.183C1057.39 416.538 1056.33 416.551 1055.68 417.213L994.453 479.805C993.795 480.481 993.808 481.561 994.483 482.22C995.159 482.878 996.24 482.865 996.898 482.189L1058.08 419.554Z" fill="white" fill-opacity="0.108"/>
<path d="M932.673 449.241C932.237 450.104 932.582 451.159 933.445 451.595L994.919 482.52C995.734 482.899 996.706 482.577 997.138 481.788C997.587 480.96 997.277 479.927 996.454 479.478L935.027 448.47C934.164 448.03 933.109 448.379 932.673 449.241Z" fill="white" fill-opacity="0.257"/>
<path d="M754.67 686.779C754.67 685.811 753.885 685.027 752.918 685.027L688.213 685.266C687.245 685.271 686.465 686.059 686.469 687.027C686.474 687.994 687.263 688.774 688.23 688.77L752.918 688.531C753.885 688.535 754.67 687.746 754.67 686.779Z" fill="white" fill-opacity="0.4498"/>
<path d="M1026.34 420.159C1027.18 420.674 1028.27 420.417 1028.79 419.58L1045.75 387.046C1046.2 386.192 1045.87 385.137 1045.01 384.693C1044.16 384.248 1043.1 384.579 1042.66 385.434L1025.64 417.932C1025.29 418.743 1025.58 419.693 1026.34 420.159Z" fill="white" fill-opacity="0.2338"/>
<path d="M757.669 633.356C756.697 633.221 755.803 633.897 755.668 634.868L751.174 686.63C751.091 687.598 751.806 688.448 752.769 688.531C753.733 688.613 754.587 687.899 754.67 686.935L759.199 635.178C759.229 634.267 758.571 633.483 757.669 633.356Z" fill="white" fill-opacity="0.453"/>
<path d="M758.497 636.437C759.282 635.849 759.439 634.738 758.85 633.953C758.262 633.169 757.15 633.012 756.365 633.6L687.162 685.615C686.386 686.199 686.234 687.302 686.818 688.073C687.402 688.849 688.505 689.001 689.276 688.417L758.497 636.437Z" fill="white" fill-opacity="0.0785"/>
<path d="M698.069 516.44C698.613 515.603 698.378 514.479 697.541 513.934L681.557 504.433C680.755 504.015 679.765 504.267 679.26 505.017C678.71 505.832 678.928 506.939 679.743 507.488L695.693 517.046C696.517 517.49 697.554 517.229 698.069 516.44Z" fill="white" fill-opacity="0.3622"/>
<path d="M1465.67 559.625C1465.28 558.714 1464.22 558.296 1463.31 558.692L1373.03 600.705C1372.18 601.136 1371.81 602.156 1372.18 603.037C1372.57 603.961 1373.64 604.392 1374.56 604.004L1464.83 561.948C1465.68 561.516 1466.05 560.497 1465.67 559.625Z" fill="white" fill-opacity="0.1826"/>
<path d="M1506.11 194.59C1506.04 193.566 1505.15 192.794 1504.12 192.868L1421.27 198.752C1420.25 198.826 1419.48 199.711 1419.56 200.726C1419.63 201.742 1420.52 202.509 1421.53 202.434L1504.39 196.573C1505.41 196.503 1506.18 195.614 1506.11 194.59Z" fill="white" fill-opacity="0.2561"/>
<path d="M1405.76 667.842C1405.97 668.888 1406.98 669.568 1408.03 669.363L1520.64 643.75C1521.65 643.519 1522.29 642.513 1522.05 641.502C1521.82 640.491 1520.82 639.854 1519.81 640.085L1407.18 665.594C1406.18 665.846 1405.56 666.836 1405.76 667.842Z" fill="white" fill-opacity="0.01"/>
<path d="M1521.75 656.337C1521.65 655.291 1520.73 654.519 1519.69 654.611L1407.41 665.559C1406.35 665.663 1405.57 666.613 1405.68 667.672C1405.79 668.736 1406.74 669.511 1407.8 669.402L1520.06 658.385C1521.08 658.276 1521.83 657.365 1521.75 656.337Z" fill="white" fill-opacity="0.1416"/>
<path d="M1357.03 603.067C1356.35 602.243 1355.14 602.126 1354.31 602.801C1353.49 603.477 1353.37 604.693 1354.05 605.516L1406.11 668.71C1406.79 669.468 1407.93 669.577 1408.73 668.962C1409.58 668.313 1409.75 667.101 1409.1 666.252L1357.03 603.067Z" fill="white" fill-opacity="0.3287"/>
<path d="M1402.07 85.1869C1401.29 84.3807 1400.01 84.3589 1399.21 85.1346L1309.93 172.328C1309.13 173.104 1309.11 174.381 1309.89 175.174C1310.67 175.967 1311.95 175.985 1312.74 175.205L1402.04 88.0372C1402.82 87.257 1402.84 85.9845 1402.07 85.1869Z" fill="white" fill-opacity="0.0469"/>
<path d="M1170.06 682.255C1170.79 683.113 1172.08 683.222 1172.94 682.499L1224.47 634.223C1225.28 633.465 1225.32 632.197 1224.56 631.386C1223.8 630.58 1222.54 630.536 1221.73 631.295L1170.16 679.522C1169.43 680.272 1169.39 681.457 1170.06 682.255Z" fill="white" fill-opacity="0.3902"/>
<path d="M1382.39 664.046C1381.37 664.552 1380.95 665.785 1381.46 666.809L1439.9 784.898C1440.39 785.896 1441.61 786.306 1442.6 785.813C1443.6 785.321 1444.01 784.109 1443.51 783.116L1385.15 664.983C1384.65 663.959 1383.41 663.541 1382.39 664.046Z" fill="white" fill-opacity="0.0284"/>
<path d="M1167.68 560.457C1166.76 561.159 1166.59 562.466 1167.29 563.382L1221.51 633.975C1222.18 634.786 1223.36 634.943 1224.22 634.332C1225.12 633.687 1225.33 632.437 1224.69 631.534L1170.61 560.845C1169.91 559.93 1168.59 559.756 1167.68 560.457Z" fill="white" fill-opacity="0.0389"/>
<path d="M1413.41 680.629C1413.08 679.526 1411.93 678.895 1410.82 679.217C1409.72 679.54 1409.09 680.699 1409.41 681.801L1439.78 784.571C1440.12 785.569 1441.17 786.14 1442.19 785.883C1443.27 785.608 1443.92 784.515 1443.65 783.434L1413.41 680.629Z" fill="white" fill-opacity="0.0357"/>
<path d="M1383.74 663.959C1382.63 663.706 1381.53 664.404 1381.27 665.511L1361.56 769.915C1361.35 771.026 1362.08 772.098 1363.19 772.307C1364.3 772.517 1365.38 771.784 1365.59 770.673L1385.32 666.273C1385.48 665.21 1384.79 664.199 1383.74 663.959Z" fill="white" fill-opacity="0.2149"/>
<path d="M1412.4 679.418C1411.4 678.864 1410.13 679.226 1409.58 680.233L1361.78 769.326C1361.34 770.268 1361.67 771.392 1362.56 771.937C1363.52 772.525 1364.78 772.224 1365.37 771.261L1413.24 682.198C1413.76 681.196 1413.39 679.962 1412.4 679.418Z" fill="white" fill-opacity="0.1448"/>
<path d="M1171.59 683.048C1172.72 683.022 1173.61 682.089 1173.59 680.965L1171.04 562.07C1171.02 560.915 1170.06 560 1168.91 560.026C1167.75 560.052 1166.84 561.006 1166.86 562.161L1169.51 681.056C1169.53 682.181 1170.46 683.074 1171.59 683.048Z" fill="white" fill-opacity="0.0499"/>
<path d="M741.78 405.926C741.057 406.81 741.192 408.118 742.077 408.841L840.415 487.101C841.309 487.811 842.608 487.667 843.318 486.778C844.029 485.885 843.885 484.586 842.996 483.876L744.657 405.603C743.772 404.906 742.491 405.05 741.78 405.926Z" fill="white" fill-opacity="0.1424"/>
<path d="M1381.49 664.905C1380.94 665.903 1381.3 667.158 1382.31 667.703L1410.41 683.039C1411.42 683.593 1412.68 683.222 1413.24 682.216C1413.79 681.209 1413.42 679.945 1412.41 679.391L1384.29 664.086C1383.29 663.536 1382.03 663.907 1381.49 664.905Z" fill="white" fill-opacity="0.5"/>
<path d="M1384.92 664.704C1384.24 663.789 1382.96 663.589 1382.04 664.264L1272.96 748.355C1272.16 749.044 1272.01 750.22 1272.59 751.092C1273.24 752.046 1274.53 752.299 1275.49 751.654L1384.55 667.528C1385.41 666.831 1385.57 665.589 1384.92 664.704Z" fill="white" fill-opacity="0.0234"/>
<path d="M1170.64 682.834C1171.65 683.34 1172.87 682.935 1173.38 681.928C1173.88 680.921 1173.48 679.696 1172.47 679.191L1153.22 669.446C1152.19 668.949 1150.95 669.363 1150.42 670.374C1149.88 671.412 1150.28 672.693 1151.32 673.233L1170.64 682.834Z" fill="white" fill-opacity="0.0947"/>
<path d="M745.29 408.018C745.73 406.963 745.233 405.747 744.178 405.307L633.085 358.862C632.021 358.417 630.792 358.919 630.348 359.982C629.903 361.045 630.404 362.274 631.468 362.719L742.578 409.129C743.633 409.569 744.849 409.072 745.29 408.018Z" fill="white" fill-opacity="0.2416"/>
<path d="M842.656 487.149C843.645 486.582 843.985 485.318 843.419 484.333L793.447 409.826C792.798 408.972 791.612 408.741 790.692 409.286C789.69 409.879 789.359 411.173 789.951 412.175L840.006 486.63C840.633 487.441 841.767 487.659 842.656 487.149Z" fill="white" fill-opacity="0.3393"/>
<path d="M741.344 407.024C741.235 408.161 742.072 409.172 743.21 409.281L791.529 413.104C792.693 413.195 793.709 412.328 793.8 411.164C793.892 410.001 793.024 408.985 791.861 408.894L743.524 405.15C742.412 405.089 741.449 405.917 741.344 407.024Z" fill="white" fill-opacity="0.2674"/>
<path d="M1275.97 751.135C1276.6 750.168 1276.32 748.878 1275.35 748.255L1153.42 669.559C1152.44 668.923 1151.12 669.206 1150.49 670.191C1149.85 671.176 1150.14 672.488 1151.12 673.12L1273.09 751.754C1274.06 752.377 1275.35 752.103 1275.97 751.135Z" fill="white" fill-opacity="0.0584"/>
<path d="M1171 562.431C1171.18 561.29 1170.39 560.226 1169.26 560.052C1168.11 559.878 1167.05 560.662 1166.88 561.8L1150.18 671.015C1150 672.174 1150.8 673.255 1151.96 673.434C1153.12 673.612 1154.2 672.815 1154.38 671.656L1171 562.431Z" fill="white" fill-opacity="0.0839"/>
<path d="M1241.12 560.858C1242.3 560.802 1243.21 559.804 1243.15 558.627C1243.1 557.45 1242.1 556.539 1240.92 556.596L1168.84 560.03C1167.69 560.087 1166.8 561.063 1166.86 562.214C1166.92 563.364 1167.89 564.253 1169.04 564.197L1241.12 560.858Z" fill="white" fill-opacity="0.1046"/>
<path d="M1409.79 679.901C1409.07 680.795 1409.21 682.102 1410.09 682.83C1410.99 683.554 1412.3 683.418 1413.02 682.529L1448.81 638.725C1449.56 637.806 1449.42 636.455 1448.5 635.705C1447.58 634.956 1446.23 635.095 1445.48 636.015L1409.79 679.901Z" fill="white" fill-opacity="0.1344"/>
<path d="M843.658 570.503C843.449 571.658 844.212 572.76 845.363 572.974L942.755 588.384C943.919 588.567 945.009 587.774 945.192 586.615C945.375 585.451 944.582 584.362 943.422 584.179L846.03 568.781C844.905 568.629 843.863 569.387 843.658 570.503Z" fill="white" fill-opacity="0.2632"/>
<path d="M1401.77 148.428C1400.76 149.06 1400.46 150.394 1401.09 151.4L1448.23 221.467C1448.88 222.434 1450.18 222.691 1451.15 222.042C1452.11 221.392 1452.37 220.085 1451.72 219.122L1404.67 148.995C1404 148.071 1402.74 147.822 1401.77 148.428Z" fill="white" fill-opacity="0.3476"/>
<path d="M1451.74 221.44C1452.37 220.464 1452.1 219.161 1451.12 218.529C1450.14 217.897 1448.84 218.172 1448.21 219.148L1429.59 247.677C1428.96 248.67 1429.24 249.982 1430.22 250.631C1431.21 251.294 1432.56 251.028 1433.22 250.034L1451.74 221.44Z" fill="white" fill-opacity="0.2509"/>
<path d="M1014.89 684.403C1015 685.589 1016.05 686.46 1017.24 686.351L1152.47 673.447C1153.6 673.316 1154.43 672.318 1154.34 671.185C1154.26 670.017 1153.24 669.141 1152.07 669.228L1016.82 682.063C1015.64 682.185 1014.78 683.227 1014.89 684.403Z" fill="white" fill-opacity="0.1341"/>
<path d="M847.481 569.897C846.919 568.869 845.629 568.494 844.6 569.056L828.781 578.504C827.861 579.119 827.552 580.335 828.071 581.311C828.629 582.366 829.936 582.771 830.996 582.213L846.779 572.691C847.708 572.089 848.013 570.869 847.481 569.897Z" fill="white" fill-opacity="0.5"/>
<path d="M945.214 586.397C945.279 585.22 944.377 584.218 943.204 584.153L829.993 578.199C828.799 578.138 827.783 579.058 827.722 580.252C827.661 581.446 828.581 582.462 829.775 582.523L942.969 588.406C944.146 588.471 945.153 587.574 945.214 586.397Z" fill="white" fill-opacity="0.3072"/>
<path d="M973.547 425.372C974.341 426.265 975.714 426.344 976.607 425.551L1019.72 387.186C1020.6 386.401 1020.68 385.046 1019.89 384.165C1019.11 383.285 1017.75 383.207 1016.87 383.991L973.731 422.317C972.833 423.11 972.754 424.478 973.547 425.372Z" fill="white" fill-opacity="0.5"/>
<path d="M1402.31 148.141C1401.16 148.459 1400.49 149.644 1400.8 150.795L1429.32 249.455C1429.65 250.605 1430.86 251.268 1432 250.936C1433.15 250.605 1433.82 249.402 1433.48 248.256L1404.95 149.6C1404.61 148.476 1403.44 147.831 1402.31 148.141Z" fill="white" fill-opacity="0.2563"/>
<path d="M941.491 760.479C940.65 761.368 940.685 762.767 941.57 763.613C942.459 764.454 943.858 764.419 944.704 763.53L1018.58 685.693C1019.29 684.861 1019.26 683.628 1018.51 682.83C1017.7 681.958 1016.34 681.915 1015.47 682.725L941.491 760.479Z" fill="white" fill-opacity="0.1178"/>
<path d="M1394.76 265.981C1395.23 267.123 1396.55 267.667 1397.69 267.197L1432.34 250.81C1433.42 250.3 1433.89 249.01 1433.38 247.929C1432.87 246.848 1431.58 246.386 1430.49 246.896L1395.79 263.144C1394.76 263.68 1394.32 264.913 1394.76 265.981Z" fill="white" fill-opacity="0.189"/>
<path d="M1238.59 26.5523C1239.79 26.7397 1240.92 25.9204 1241.11 24.7219L1258.65 -86.5376C1258.79 -87.6794 1258.02 -88.7341 1256.89 -88.9607C1255.69 -89.2048 1254.52 -88.429 1254.27 -87.2262L1236.76 24.0376C1236.57 25.2361 1237.39 26.3605 1238.59 26.5523Z" fill="white" fill-opacity="0.2651"/>
<path d="M1290.29 437.701C1289.95 438.891 1290.63 440.137 1291.82 440.481L1424.13 478.685C1425.3 479.025 1426.53 478.35 1426.87 477.182C1427.21 476.009 1426.53 474.785 1425.36 474.445L1293.07 436.171C1291.88 435.823 1290.64 436.511 1290.29 437.701Z" fill="white" fill-opacity="0.1533"/>
<path d="M1114.64 69.5803C1115.07 70.757 1116.36 71.3716 1117.54 70.9488L1239.67 26.4433C1240.75 26.0118 1241.31 24.8177 1240.95 23.7151C1240.57 22.5602 1239.33 21.9326 1238.17 22.3117L1115.99 66.6952C1114.83 67.1267 1114.22 68.4124 1114.64 69.5803Z" fill="white" fill-opacity="0.0324"/>
<path d="M1116.7 66.6516C1115.45 66.6909 1114.47 67.7325 1114.51 68.9833L1121.21 162.374C1121.37 163.442 1122.28 164.235 1123.37 164.244C1124.58 164.253 1125.58 163.276 1125.59 162.06L1119.03 68.6608C1118.89 67.4928 1117.88 66.6168 1116.7 66.6516Z" fill="white" fill-opacity="0.2483"/>
<path d="M1152.57 598.147C1151.43 598.665 1150.94 600.008 1151.45 601.145L1198.75 704.346C1199.26 705.462 1200.58 705.954 1201.69 705.444C1202.81 704.935 1203.3 703.614 1202.79 702.498L1155.57 599.262C1155.05 598.125 1153.71 597.628 1152.57 598.147Z" fill="white" fill-opacity="0.258"/>
<path d="M1038.63 94.2257C1037.8 95.1932 1037.92 96.6489 1038.88 97.4769L1122.02 163.935C1122.95 164.61 1124.23 164.466 1124.98 163.603C1125.78 162.688 1125.68 161.298 1124.77 160.496L1041.77 93.8771C1040.79 93.1536 1039.42 93.3062 1038.63 94.2257Z" fill="white" fill-opacity="0.0309"/>
<path d="M390.752 240.738C389.662 241.401 389.318 242.822 389.98 243.911L452.754 346.55C453.399 347.496 454.654 347.797 455.657 347.252C456.738 346.663 457.135 345.312 456.551 344.232L393.925 241.51C393.263 240.42 391.842 240.076 390.752 240.738Z" fill="white" fill-opacity="0.1345"/>
<path d="M1386.07 150.385C1384.8 150.503 1383.87 151.627 1383.99 152.895L1394.51 265.375C1394.65 266.565 1395.7 267.432 1396.89 267.349C1398.12 267.262 1399.06 266.194 1398.97 264.961L1388.58 152.468C1388.47 151.2 1387.34 150.267 1386.07 150.385Z" fill="white" fill-opacity="0.1783"/>
<path d="M1294.58 437.64C1294.21 436.459 1292.94 435.805 1291.76 436.184L1196.86 466.099C1195.7 466.495 1195.06 467.733 1195.39 468.914C1195.75 470.139 1197.02 470.845 1198.24 470.492L1293.12 440.464C1294.3 440.085 1294.96 438.825 1294.58 437.64Z" fill="white" fill-opacity="0.2641"/>
<path d="M1198.28 466.108C1197.08 465.707 1195.77 466.36 1195.36 467.567L1151.37 599.489C1151.07 600.596 1151.65 601.751 1152.71 602.178C1153.87 602.64 1155.19 602.078 1155.65 600.918L1199.74 469.023C1200.15 467.816 1199.49 466.508 1198.28 466.108Z" fill="white" fill-opacity="0.01"/>
<path d="M1038.13 96.444C1038.56 97.6469 1039.87 98.2788 1041.08 97.8561L1117.52 70.9619C1118.7 70.5478 1119.32 69.2578 1118.91 68.0768C1118.49 66.8957 1117.2 66.2768 1116.02 66.6909L1039.54 93.5066C1038.34 93.925 1037.71 95.2412 1038.13 96.444Z" fill="white" fill-opacity="0.4133"/>
<path d="M1291.43 440.32C1292.53 440.887 1293.88 440.451 1294.45 439.348C1295.01 438.246 1294.58 436.895 1293.47 436.328L1210.2 393.553C1209.06 392.965 1207.65 393.418 1207.06 394.564C1206.47 395.71 1206.93 397.118 1208.07 397.706L1291.43 440.32Z" fill="white" fill-opacity="0.1806"/>
<path d="M593.985 709.694C594.865 710.613 596.326 710.648 597.245 709.768L680.101 628.532C680.881 627.678 680.899 626.37 680.136 625.498C679.308 624.548 677.869 624.452 676.919 625.276L594.015 706.473C593.135 707.362 593.122 708.792 593.985 709.694Z" fill="white" fill-opacity="0.2647"/>
<path d="M1197.11 470.457C1198.36 470.71 1199.58 469.903 1199.83 468.657L1211.45 395.998C1211.66 394.725 1210.78 393.527 1209.51 393.326C1208.24 393.121 1207.04 393.993 1206.84 395.266L1195.28 467.938C1195.14 469.119 1195.94 470.217 1197.11 470.457Z" fill="white" fill-opacity="0.4801"/>
<path d="M639.597 619.85C639.344 621.132 640.177 622.374 641.458 622.631L678.109 629.151C679.347 629.377 680.532 628.554 680.759 627.316C680.986 626.078 680.162 624.893 678.924 624.666L642.291 617.976C641.031 617.771 639.841 618.604 639.597 619.85Z" fill="white" fill-opacity="0.2097"/>
<path d="M898.163 301.238C896.921 301.635 896.232 302.969 896.629 304.211L932.843 404.034C933.275 405.228 934.595 405.847 935.79 405.416C936.984 404.984 937.603 403.664 937.172 402.47L901.071 302.598C900.613 301.456 899.344 300.863 898.163 301.238Z" fill="white" fill-opacity="0.2252"/>
<path d="M1199.37 469.511C1200.08 468.452 1199.79 467.023 1198.73 466.317L1076 393.047C1074.92 392.481 1073.59 392.821 1072.92 393.832C1072.2 394.921 1072.5 396.39 1073.59 397.113L1196.39 470.27C1197.42 470.823 1198.72 470.492 1199.37 469.511Z" fill="white" fill-opacity="0.1651"/>
<path d="M643.015 618.373C641.89 617.706 640.438 618.081 639.776 619.201L593.588 707.048C592.995 708.177 593.431 709.576 594.56 710.169C595.689 710.762 597.088 710.326 597.681 709.197L643.956 621.402C644.466 620.304 644.061 618.992 643.015 618.373Z" fill="white" fill-opacity="0.0805"/>
<path d="M1322.44 394.634C1322.44 393.331 1321.38 392.272 1320.08 392.272L1209.12 393.296C1207.84 393.318 1206.82 394.35 1206.82 395.623C1206.82 396.913 1207.86 397.959 1209.15 397.963L1320.11 397C1321.41 396.983 1322.45 395.928 1322.44 394.634Z" fill="white" fill-opacity="0.1425"/>
<path d="M1211.48 395.636C1211.48 394.346 1210.44 393.3 1209.15 393.296L1074.8 392.712C1073.49 392.707 1072.43 393.762 1072.42 395.07C1072.42 396.377 1073.47 397.445 1074.78 397.449L1209.14 397.959C1210.42 397.968 1211.47 396.926 1211.48 395.636Z" fill="white" fill-opacity="0.22"/>
<path d="M562.783 652.593C561.632 653.273 561.253 654.755 561.933 655.905L593.654 709.301C594.307 710.273 595.589 710.6 596.631 710.06C597.764 709.476 598.204 708.081 597.62 706.952L566.1 653.447C565.416 652.292 563.934 651.913 562.783 652.593Z" fill="white" fill-opacity="0.01"/>
<path d="M1262.39 548.821C1261.92 550.059 1262.54 551.445 1263.78 551.915L1405.53 605.063C1406.69 605.442 1407.94 604.871 1408.41 603.751C1408.91 602.566 1408.35 601.197 1407.17 600.696L1265.48 547.422C1264.24 546.956 1262.86 547.583 1262.39 548.821Z" fill="white" fill-opacity="0.0983"/>
<path d="M640.447 622.073C641.467 622.888 642.958 622.718 643.769 621.698L735.913 495.699C736.55 494.697 736.349 493.377 735.438 492.614C734.435 491.773 732.94 491.899 732.099 492.901L639.955 618.905C639.275 619.929 639.488 621.306 640.447 622.073Z" fill="white" fill-opacity="0.01"/>
<path d="M499.944 -9.18899C498.824 -9.89937 497.338 -9.56817 496.627 -8.44376L429.643 97.1501C429.011 98.2222 429.316 99.595 430.344 100.297C431.421 101.029 432.89 100.754 433.622 99.6778L500.69 -5.8768C501.4 -6.99249 501.069 -8.47861 499.944 -9.18899Z" fill="white" fill-opacity="0.0807"/>
<path d="M642.823 622.465C644.017 621.938 644.558 620.539 644.03 619.345C643.503 618.151 642.104 617.61 640.909 618.137L563.032 652.462C561.868 653.012 561.336 654.376 561.829 655.565C562.339 656.799 563.747 657.387 564.98 656.877L642.823 622.465Z" fill="white" fill-opacity="0.4538"/>
<path d="M643.551 618.761C642.666 617.798 641.171 617.732 640.207 618.617L542.383 714.714C541.533 715.634 541.52 717.046 542.353 717.987C543.246 718.998 544.789 719.09 545.801 718.196L643.525 621.986C644.379 621.088 644.392 619.676 643.551 618.761Z" fill="white" fill-opacity="0.041"/>
<path d="M1322.43 395.017C1322.64 393.732 1321.77 392.516 1320.48 392.302L1232.2 377.772C1230.86 377.55 1229.6 378.456 1229.38 379.794C1229.15 381.132 1230.06 382.396 1231.4 382.618L1319.72 396.97C1321 397.179 1322.22 396.307 1322.43 395.017Z" fill="white" fill-opacity="0.217"/>
<path d="M564.784 652.427C563.524 651.996 562.151 652.671 561.72 653.931L541.773 715.708C541.403 716.959 542.078 718.275 543.312 718.706C544.585 719.151 545.975 718.48 546.42 717.207L566.318 655.417C566.689 654.171 566.013 652.85 564.784 652.427Z" fill="white" fill-opacity="0.5"/>
<path d="M519.22 738.78C520.392 739.447 521.883 739.037 522.554 737.865L566.148 655.805C566.719 654.654 566.292 653.26 565.176 652.628C564.017 651.97 562.544 652.38 561.885 653.539L518.243 735.572C517.664 736.732 518.095 738.139 519.22 738.78Z" fill="white" fill-opacity="0.3976"/>
<path d="M448.221 573.584C449.507 573.283 450.309 571.993 450.003 570.708L438.949 523.204C438.635 521.87 437.301 521.042 435.968 521.356C434.634 521.67 433.806 523.003 434.119 524.337L445.344 571.806C445.644 573.087 446.935 573.889 448.221 573.584Z" fill="white" fill-opacity="0.2312"/>
<path d="M434.891 521.997C433.888 522.925 433.823 524.489 434.751 525.496L562.282 656.354C563.21 657.309 564.74 657.33 565.699 656.402C566.654 655.474 566.676 653.944 565.747 652.985L438.3 522.04C437.358 521.125 435.859 521.103 434.891 521.997Z" fill="white" fill-opacity="0.0292"/>
<path d="M627.026 721.988C628.364 722.328 629.728 721.517 630.064 720.18L663.166 573.148C663.406 571.867 662.617 570.621 661.357 570.285C660.028 569.936 658.672 570.729 658.319 572.054L625.182 719.077C624.934 720.384 625.74 721.661 627.026 721.988Z" fill="white" fill-opacity="0.0766"/>
<path d="M434.132 523.91C434.211 525.274 435.383 526.315 436.752 526.237L524.803 518.384C526.19 518.262 527.21 517.037 527.088 515.651C526.961 514.265 525.741 513.245 524.355 513.367L436.321 521.304C435.013 521.456 434.058 522.598 434.132 523.91Z" fill="white" fill-opacity="0.1946"/>
<path d="M663.04 573.562C663.567 572.294 662.97 570.838 661.702 570.311L525.549 513.55C524.307 513.08 522.907 513.655 522.363 514.867C521.787 516.135 522.349 517.625 523.618 518.201L659.788 574.9C661.057 575.428 662.512 574.831 663.04 573.562Z" fill="white" fill-opacity="0.2419"/>
<path d="M1168.91 128.481C1170.27 128.511 1171.4 127.435 1171.43 126.075C1171.46 124.715 1170.39 123.587 1169.03 123.552L993.224 119.433C991.838 119.416 990.691 120.51 990.643 121.896C990.595 123.303 991.698 124.48 993.106 124.528L1168.91 128.481Z" fill="white" fill-opacity="0.01"/>
<path d="M662.238 574.53C663.323 573.693 663.524 572.133 662.687 571.043L601.761 495.638C600.885 494.549 599.29 494.379 598.2 495.255C597.11 496.131 596.94 497.726 597.816 498.815L658.825 574.168C659.683 575.179 661.187 575.34 662.238 574.53Z" fill="white" fill-opacity="0.4752"/>
<path d="M434.272 524.72C434.804 525.98 436.255 526.568 437.519 526.037L500.711 498.554C501.997 497.992 502.581 496.497 502.024 495.211C501.461 493.926 499.966 493.342 498.68 493.9L435.54 521.495C434.311 522.053 433.749 523.483 434.272 524.72Z" fill="white" fill-opacity="0.1706"/>
<path d="M663.001 573.671C663.589 572.434 663.062 570.947 661.819 570.359L500.79 493.934C499.526 493.333 498.009 493.869 497.407 495.137C496.806 496.405 497.342 497.918 498.61 498.519L659.692 574.848C660.93 575.441 662.412 574.909 663.001 573.671Z" fill="white" fill-opacity="0.11"/>
<path d="M602.193 496.702C601.892 495.338 600.545 494.475 599.181 494.775L523.971 513.433C522.62 513.768 521.8 515.132 522.136 516.483C522.471 517.834 523.836 518.654 525.187 518.318L600.397 499.683C601.692 499.325 602.485 498.014 602.193 496.702Z" fill="white" fill-opacity="0.4908"/>
<path d="M526.399 517.451C527.306 516.396 527.188 514.806 526.133 513.899L501.274 494.239C500.175 493.372 498.58 493.56 497.708 494.658C496.841 495.756 497.028 497.351 498.127 498.223L523.021 517.852C524.08 518.61 525.545 518.436 526.399 517.451Z" fill="white" fill-opacity="0.5"/>
<path d="M602.315 497.251C602.328 495.856 601.208 494.71 599.813 494.697L499.726 493.69C498.345 493.69 497.22 494.797 497.194 496.174C497.163 497.573 498.275 498.737 499.678 498.763L599.765 499.752C601.16 499.77 602.302 498.65 602.315 497.251Z" fill="white" fill-opacity="0.4489"/>
<path d="M558.372 356.269C556.999 356.639 556.184 358.056 556.554 359.428L597.367 497.939C597.795 499.173 599.089 499.879 600.358 499.569C601.713 499.238 602.546 497.87 602.215 496.514L561.502 357.973C561.079 356.661 559.701 355.907 558.372 356.269Z" fill="white" fill-opacity="0.1919"/>
<path d="M1449.26 402.853C1449.93 404.073 1451.47 404.514 1452.68 403.838C1453.9 403.163 1454.34 401.628 1453.67 400.413L1365.6 241.287C1364.91 240.032 1363.33 239.575 1362.08 240.268C1360.82 240.961 1360.36 242.538 1361.06 243.793L1449.26 402.853Z" fill="white" fill-opacity="0.01"/>
<path d="M560.098 356.491C558.817 355.868 557.274 356.404 556.655 357.681L497.359 495.224C496.806 496.51 497.399 498.005 498.685 498.558C499.97 499.112 501.466 498.519 502.019 497.234L561.38 359.725C561.859 358.474 561.301 357.071 560.098 356.491Z" fill="white" fill-opacity="0.0448"/>
<path d="M557.836 360.854C559.082 361.538 560.652 361.08 561.336 359.829L612.053 255.757C612.65 254.493 612.127 252.985 610.88 252.357C609.607 251.717 608.06 252.231 607.424 253.499L556.707 357.568C556.179 358.792 556.668 360.217 557.836 360.854Z" fill="white" fill-opacity="0.3258"/>
<path d="M305.373 422.94C304.823 424.295 305.482 425.842 306.842 426.387L498.811 498.598C500.071 499.016 501.439 498.393 501.954 497.172C502.494 495.878 501.888 494.392 500.594 493.852L308.707 421.428C307.369 420.966 305.904 421.628 305.373 422.94Z" fill="white" fill-opacity="0.0126"/>
<path d="M518.605 213.164C517.271 212.598 515.732 213.221 515.166 214.555C514.599 215.888 515.223 217.427 516.556 217.989L608.736 256.999C610.043 257.557 611.556 256.946 612.114 255.635C612.672 254.327 612.062 252.815 610.749 252.257L518.605 213.164Z" fill="white" fill-opacity="0.5"/>
<path d="M390.996 450.152C389.632 449.603 388.08 450.27 387.531 451.634C386.981 452.998 387.648 454.55 389.013 455.099L498.759 498.589C500.062 499.107 501.54 498.476 502.058 497.172C502.577 495.869 501.945 494.392 500.642 493.873L390.996 450.152Z" fill="white" fill-opacity="0.1367"/>
<path d="M556.537 359.42C556.934 360.788 558.363 361.581 559.736 361.185C561.105 360.788 561.898 359.359 561.502 357.986L520.109 214.851C519.673 213.574 518.335 212.837 517.023 213.151C515.615 213.487 514.743 214.899 515.079 216.307L556.537 359.42Z" fill="white" fill-opacity="0.2024"/>
<path d="M511.016 91.6108C510.911 90.1857 509.669 89.1136 508.244 89.2226C506.818 89.3272 505.746 90.5692 505.855 91.9943L514.978 215.775C515.083 217.217 516.343 218.303 517.786 218.194C519.228 218.089 520.314 216.829 520.205 215.387L511.016 91.6108Z" fill="white" fill-opacity="0.1453"/>
<path d="M942.49 391.618C941.962 390.254 940.432 389.569 939.068 390.097C937.703 390.624 937.019 392.154 937.547 393.518L971.996 482.808C972.54 484.05 973.944 484.673 975.23 484.237C976.599 483.775 977.335 482.294 976.878 480.921L942.49 391.618Z" fill="white" fill-opacity="0.4913"/>
<path d="M753.903 34.3708C755.219 33.7737 755.803 32.2222 755.206 30.9017C754.609 29.5855 753.057 29.0015 751.736 29.5986L642.474 79.0201C641.166 79.6259 640.582 81.1687 641.166 82.4892C641.755 83.8272 643.32 84.4286 644.654 83.8402L753.903 34.3708Z" fill="white" fill-opacity="0.3549"/>
<path d="M510.724 90.7348C510.118 89.4405 508.579 88.8826 507.285 89.4928L406.78 139.755C405.568 140.44 405.067 141.926 405.625 143.203C406.226 144.571 407.822 145.199 409.195 144.597L509.599 94.1124C510.816 93.4674 511.308 91.9813 510.724 90.7348Z" fill="white" fill-opacity="0.01"/>
<path d="M308.642 421.41C307.26 420.926 305.747 421.654 305.264 423.04C304.78 424.422 305.508 425.934 306.889 426.418L389.126 455.142C390.469 455.565 391.907 454.868 392.413 453.552C392.936 452.179 392.251 450.64 390.874 450.113L308.642 421.41Z" fill="white" fill-opacity="0.4416"/>
<path d="M519.664 217.056C520.501 215.875 520.222 214.241 519.037 213.404L409.491 139.925C408.266 139.137 406.636 139.459 405.803 140.658C404.949 141.887 405.25 143.573 406.479 144.427L516.125 217.758C517.306 218.499 518.862 218.194 519.664 217.056Z" fill="white" fill-opacity="0.34"/>
<path d="M263.975 148.764C264.028 150.307 265.318 151.518 266.861 151.466L408.109 144.881C409.596 144.806 410.742 143.547 410.677 142.061C410.616 140.566 409.352 139.407 407.856 139.468L266.608 145.879C265.096 145.966 263.927 147.247 263.975 148.764Z" fill="white" fill-opacity="0.3096"/>
<path d="M432.071 575.598C430.493 575.144 428.845 576.06 428.392 577.637L391.21 743.23C390.848 744.838 391.859 746.437 393.467 746.795C395.076 747.156 396.676 746.145 397.033 744.533L434.18 578.936C434.433 577.45 433.522 576.012 432.071 575.598Z" fill="white" fill-opacity="0.1416"/>
</g>
<rect width="1440" height="693" fill="url(#paint0_linear_0_1)"/>
<defs>
<linearGradient id="paint0_linear_0_1" x1="0" y1="345.951" x2="1440" y2="345.951" gradientUnits="userSpaceOnUse">
<stop offset="0.189763"/>
<stop offset="1" stop-opacity="0"/>
</linearGradient>
<clipPath id="clip0_0_1">
<rect width="2403" height="1489" fill="white" transform="translate(-6.10352e-05 -241)"/>
</clipPath>
</defs>
</svg>
