<svg width="216" height="66" viewBox="0 0 216 66" fill="none" xmlns="http://www.w3.org/2000/svg">
<path d="M6.99224 12.9615L0.243186 24.7003C0.0777544 24.9884 -0.00933838 25.3153 -0.00933838 25.648C-0.00933838 25.9806 0.0777544 26.3075 0.243186 26.5956L11.4004 46.0074C11.6887 46.5088 12.1031 46.9252 12.6021 47.2147C13.101 47.5041 13.6669 47.6565 14.2429 47.6565C14.8189 47.6565 15.3848 47.5041 15.8838 47.2147C16.3827 46.9252 16.7971 46.5088 17.0854 46.0074L21.524 38.3344L25.9321 30.5697C26.2122 30.0698 26.3578 29.5052 26.3547 28.9315C26.3516 28.3577 26.1999 27.7947 25.9145 27.2979C25.6292 26.8011 25.2199 26.3877 24.7272 26.0983C24.2345 25.809 23.6754 25.6538 23.1048 25.648H16.1734C15.5952 25.6474 15.0273 25.4947 14.526 25.2051C14.0246 24.9155 13.6074 24.4991 13.3157 23.9972L8.8467 16.2325C8.66248 15.8995 8.56736 15.5242 8.57066 15.1432C8.57397 14.7622 8.67558 14.3885 8.86555 14.0589C9.05552 13.7292 9.32736 13.4548 9.65445 13.2624C9.98154 13.0701 10.3527 12.9664 10.7316 12.9615H32.8028C33.1344 12.9632 33.4607 12.8768 33.7485 12.7111C34.0363 12.5454 34.2756 12.3063 34.4421 12.0179C34.6087 11.7295 34.6966 11.402 34.697 11.0686C34.6974 10.7351 34.6103 10.4074 34.4445 10.1185L29.3371 1.25333C29.169 0.97222 28.9334 0.738107 28.6518 0.572513C28.3703 0.406918 28.0518 0.315156 27.7258 0.305664H15.3525C15.0246 0.306276 14.7027 0.394306 14.4197 0.560782C14.1366 0.727258 13.9026 0.966226 13.7413 1.25333L6.99224 12.9615Z" fill="#040000"/>
<path d="M38.4878 65.9693H51.9555C52.2873 65.9678 52.6131 65.8798 52.9009 65.7136C53.1887 65.5475 53.4286 65.309 53.5972 65.0216L65.7576 43.8979C65.9453 43.565 66.0421 43.188 66.0382 42.8053C66.0343 42.4226 65.9298 42.0478 65.7353 41.7188C65.5408 41.3898 65.2633 41.1183 64.9309 40.9319C64.5984 40.7456 64.2229 40.6509 63.8423 40.6576H44.2336C43.6561 40.655 43.0881 40.8057 42.587 41.0945C42.0858 41.3832 41.6693 41.7998 41.3795 42.3021C41.0896 42.8044 40.9366 43.3747 40.936 43.9555C40.9354 44.5362 41.0871 45.1069 41.3759 45.6098L44.8416 51.7238C45.1328 52.2247 45.2863 52.7944 45.2863 53.3745C45.2863 53.9547 45.1328 54.5244 44.8416 55.0253L40.4031 62.79C40.2137 63.1201 39.9412 63.3943 39.613 63.5849C39.2848 63.7755 38.9124 63.8759 38.5334 63.8759C38.1544 63.8759 37.7821 63.7755 37.4538 63.5849C37.1256 63.3943 36.8531 63.1201 36.6637 62.79L25.2025 42.7974C25.0763 42.5819 24.8963 42.4032 24.6804 42.2791C24.4644 42.155 24.22 42.0897 23.9713 42.0897C23.7225 42.0897 23.4781 42.155 23.2622 42.2791C23.0462 42.4032 22.8662 42.5819 22.74 42.7974L17.2374 52.3657C17.072 52.6539 16.9849 52.9807 16.9849 53.3134C16.9849 53.6461 17.072 53.9729 17.2374 54.2611L23.3176 65.0216C23.4789 65.3087 23.713 65.5477 23.9961 65.7142C24.2791 65.8806 24.601 65.9687 24.9289 65.9693H38.4878Z" fill="#040000"/>
<path d="M68.6457 12.6863L61.9271 0.947561C61.757 0.66374 61.516 0.429702 61.2279 0.268786C60.9399 0.10787 60.6149 0.0257003 60.2854 0.0304699H38.0014C37.4194 0.0247424 36.8463 0.174706 36.3408 0.464997C35.8354 0.755289 35.4158 1.17547 35.125 1.6825C34.8342 2.18953 34.6827 2.76517 34.686 3.35046C34.6893 3.93575 34.8472 4.50963 35.1437 5.01333L39.5215 12.6558L43.9296 20.3288C44.2158 20.8374 44.6312 21.2606 45.1332 21.555C45.6353 21.8495 46.2061 22.0046 46.7873 22.0046C47.3685 22.0046 47.9393 21.8495 48.4414 21.555C48.9435 21.2606 49.3588 20.8374 49.645 20.3288L53.1108 14.2148C53.3977 13.7087 53.8139 13.2888 54.3163 12.9986C54.8187 12.7084 55.3891 12.5584 55.9685 12.5641H64.876C65.2872 12.5194 65.7025 12.5945 66.0725 12.7804C66.4425 12.9663 66.7516 13.2552 66.963 13.6127C67.1744 13.9702 67.2792 14.3812 67.2649 14.7969C67.2506 15.2125 67.1179 15.6153 66.8825 15.9573L55.7252 35.1551C55.5506 35.44 55.4554 35.7669 55.4497 36.1015C55.444 36.4361 55.5279 36.7661 55.6927 37.0569C55.8575 37.3477 56.0971 37.5885 56.3863 37.7541C56.6755 37.9197 57.0037 38.0039 57.3365 37.9981H67.5513C67.8792 37.9974 68.2011 37.9094 68.4841 37.7429C68.7672 37.5765 69.0013 37.3375 69.1625 37.0504L75.2428 26.2899C75.4082 26.0017 75.4953 25.6749 75.4953 25.3422C75.4953 25.0095 75.4082 24.6827 75.2428 24.3945L68.6457 12.6863Z" fill="#040000"/>
<path d="M95.7636 29.8971H99.1077C99.3891 29.8892 99.6585 29.7808 99.8677 29.5914C100.061 29.3841 100.169 29.1113 100.172 28.8272V15.4682C100.168 15.3452 100.188 15.2227 100.232 15.1079C100.276 14.9931 100.343 14.8883 100.428 14.7999C100.513 14.7115 100.615 14.6412 100.728 14.5932C100.84 14.5452 100.961 14.5205 101.084 14.5206C101.28 14.5181 101.471 14.5792 101.63 14.6948C101.789 14.8104 101.907 14.9744 101.965 15.1625L106.83 29.194C106.911 29.3763 107.044 29.531 107.211 29.6394C107.378 29.7479 107.573 29.8055 107.772 29.8054H110.508C110.725 29.8142 110.939 29.7497 111.115 29.6223C111.291 29.4949 111.42 29.3119 111.481 29.1023L116.406 15.2848C116.465 15.0967 116.582 14.9327 116.741 14.8171C116.9 14.7014 117.092 14.6403 117.288 14.6428C117.408 14.639 117.527 14.6616 117.637 14.7092C117.747 14.7567 117.846 14.828 117.926 14.918C118.013 15.0065 118.082 15.1114 118.129 15.2268C118.176 15.3422 118.2 15.4658 118.2 15.5905V28.8272C118.202 29.1113 118.31 29.3841 118.504 29.5914C118.702 29.7787 118.961 29.8873 119.233 29.8971H122.577C122.86 29.8979 123.133 29.7883 123.337 29.5914C123.439 29.4927 123.518 29.3736 123.57 29.2419C123.623 29.1102 123.647 28.9689 123.641 28.8272V10.4854C123.647 10.3482 123.622 10.2116 123.57 10.0849C123.517 9.95825 123.438 9.84455 123.337 9.75169C123.24 9.64827 123.122 9.56734 122.991 9.51455C122.86 9.46175 122.719 9.43836 122.577 9.44599H115.524C114.666 9.52204 113.855 9.87602 113.214 10.4548C112.577 11.0145 112.095 11.7307 111.815 12.5335L109.262 19.962L106.738 12.5335C106.459 11.7307 105.977 11.0145 105.34 10.4548C104.68 9.90564 103.879 9.55584 103.029 9.44599H95.7636C95.4894 9.44599 95.2265 9.5555 95.0327 9.75042C94.8388 9.94534 94.7299 10.2097 94.7299 10.4854V28.8272C94.7243 28.9689 94.7485 29.1102 94.8009 29.2419C94.8533 29.3736 94.9327 29.4927 95.0339 29.5914C95.2291 29.7838 95.4903 29.8932 95.7636 29.8971Z" fill="#040000"/>
<path d="M148.965 9.56812H133.279C131.666 9.56812 130.119 10.2123 128.979 11.3588C127.839 12.5054 127.198 14.0605 127.198 15.6821V23.6913C127.19 24.5084 127.344 25.3189 127.652 26.075C127.96 26.831 128.416 27.5174 128.992 28.0934C129.561 28.6692 130.239 29.1253 130.985 29.4349C131.732 29.7446 132.532 29.9017 133.339 29.897H148.965C149.773 29.9017 150.573 29.7446 151.32 29.4349C152.066 29.1253 152.744 28.6692 153.313 28.0934C153.878 27.5123 154.323 26.8237 154.62 26.0678C154.918 25.312 155.062 24.5041 155.046 23.6913V15.7738C155.054 14.9567 154.9 14.1462 154.592 13.3901C154.284 12.634 153.828 11.9477 153.252 11.3717C152.117 10.2236 150.575 9.57494 148.965 9.56812ZM149.604 15.2847V24.2416C149.605 24.3337 149.587 24.425 149.55 24.5094C149.514 24.5938 149.459 24.6693 149.391 24.7307C149.331 24.801 149.257 24.8568 149.172 24.8939C149.088 24.931 148.997 24.9483 148.905 24.9447H133.279C133.187 24.9483 133.095 24.931 133.011 24.8939C132.927 24.8568 132.852 24.801 132.792 24.7307C132.724 24.6693 132.669 24.5938 132.633 24.5094C132.596 24.425 132.578 24.3337 132.579 24.2416V15.2847C132.578 15.1925 132.596 15.1012 132.633 15.0168C132.669 14.9324 132.724 14.8569 132.792 14.7955C132.852 14.7252 132.927 14.6694 133.011 14.6323C133.095 14.5953 133.187 14.5779 133.279 14.5815H148.965C149.149 14.5891 149.322 14.6656 149.452 14.7958C149.581 14.9261 149.657 15.1006 149.665 15.2847H149.604Z" fill="#040000"/>
<path d="M186.693 9.56832H182.042C181.901 9.5663 181.762 9.59227 181.632 9.64474C181.501 9.6972 181.382 9.77513 181.282 9.87402L166.872 24.4558C166.722 24.6215 166.539 24.7536 166.334 24.8431C166.13 24.9327 165.909 24.9778 165.686 24.9755C165.237 24.9676 164.809 24.7847 164.491 24.4654C164.173 24.146 163.991 23.7151 163.984 23.2635V10.6077C163.984 10.4686 163.956 10.3309 163.902 10.2028C163.848 10.0746 163.769 9.95865 163.67 9.86172C163.571 9.7648 163.453 9.68889 163.325 9.63849C163.196 9.58809 163.058 9.56423 162.92 9.56832H159.575C159.301 9.56832 159.038 9.67783 158.845 9.87275C158.651 10.0677 158.542 10.332 158.542 10.6077V28.9495C158.54 29.0861 158.567 29.2216 158.619 29.3477C158.671 29.4738 158.748 29.588 158.846 29.6832C159.041 29.8755 159.302 29.985 159.575 29.9889H166.872C167.602 29.9925 168.326 29.8482 169 29.5645C169.673 29.2809 170.283 28.8638 170.794 28.3381L187.453 11.4636C187.55 11.3021 187.601 11.1171 187.601 10.9287C187.601 10.7402 187.55 10.5553 187.453 10.3937C187.422 10.1958 187.334 10.0116 187.198 9.8646C187.063 9.71761 186.887 9.61447 186.693 9.56832Z" fill="#040000"/>
<path d="M194.902 14.5205H214.966C215.24 14.5166 215.501 14.4071 215.696 14.2148C215.793 14.1196 215.871 14.0054 215.923 13.8793C215.975 13.7532 216.001 13.6177 216 13.4811V10.6076C216 10.3319 215.891 10.0675 215.697 9.87261C215.503 9.67769 215.24 9.56819 214.966 9.56819H194.354C193.532 9.55116 192.714 9.70223 191.951 10.0123C191.188 10.3223 190.496 10.7848 189.916 11.3718C189.339 11.9478 188.884 12.6341 188.576 13.3902C188.268 14.1463 188.113 14.9568 188.122 15.7738V23.6914C188.113 24.5084 188.268 25.3189 188.576 26.075C188.884 26.8311 189.339 27.5174 189.916 28.0934C190.496 28.6804 191.188 29.143 191.951 29.453C192.714 29.763 193.532 29.9141 194.354 29.897H214.966C215.24 29.8931 215.501 29.7837 215.696 29.5913C215.797 29.4926 215.877 29.3735 215.929 29.2418C215.981 29.1101 216.006 28.9688 216 28.8271V25.9841C216 25.7085 215.891 25.4441 215.697 25.2492C215.503 25.0543 215.24 24.9448 214.966 24.9448H194.902C194.578 24.8958 194.282 24.7316 194.068 24.4819C193.854 24.2323 193.737 23.9138 193.737 23.5844C193.737 23.255 193.854 22.9365 194.068 22.6869C194.282 22.4372 194.578 22.273 194.902 22.224H212.352C212.49 22.2241 212.627 22.1962 212.755 22.1421C212.882 22.088 212.997 22.0087 213.094 21.9089C213.19 21.8091 213.266 21.6909 213.316 21.5613C213.366 21.4316 213.39 21.2932 213.385 21.1541V18.3417C213.391 18.2 213.367 18.0587 213.315 17.927C213.262 17.7953 213.183 17.6762 213.081 17.5775C212.989 17.4764 212.876 17.3968 212.75 17.344C212.624 17.2912 212.488 17.2665 212.352 17.2718H194.902C194.578 17.2228 194.282 17.0586 194.068 16.8089C193.854 16.5593 193.737 16.2408 193.737 15.9114C193.737 15.582 193.854 15.2635 194.068 15.0139C194.282 14.7643 194.578 14.6 194.902 14.5511V14.5205Z" fill="#040000"/>
<path d="M122.912 36.1028H115.524C114.794 36.1026 114.072 36.2485 113.398 36.5319C112.725 36.8153 112.115 37.2306 111.603 37.7535L94.9731 54.628C94.8256 54.7711 94.7238 54.955 94.6805 55.1564C94.6372 55.3578 94.6544 55.5676 94.7299 55.7591C94.8005 55.9602 94.9327 56.1336 95.1075 56.2545C95.2823 56.3753 95.4907 56.4373 95.7027 56.4316H100.324C100.54 56.4322 100.752 56.3684 100.932 56.2482L115.524 41.5748C115.852 41.2608 116.288 41.0856 116.74 41.0856C116.974 41.0688 117.208 41.1006 117.429 41.1791C117.65 41.2576 117.852 41.381 118.024 41.5417C118.195 41.7023 118.331 41.8968 118.424 42.1129C118.517 42.329 118.565 42.5621 118.564 42.7975V55.3923C118.574 55.6657 118.682 55.9264 118.868 56.1259C119.064 56.3183 119.325 56.4277 119.598 56.4316H122.942C123.225 56.4293 123.496 56.3202 123.702 56.1259C123.888 55.9264 123.996 55.6657 124.006 55.3923V37.0504C124.002 36.7757 123.893 36.513 123.702 36.3168C123.593 36.2272 123.466 36.1619 123.33 36.125C123.193 36.0881 123.051 36.0806 122.912 36.1028Z" fill="#040000"/>
<path d="M131.85 36.1027H128.506C128.37 36.1013 128.235 36.1277 128.11 36.1803C127.984 36.2328 127.871 36.3104 127.776 36.4084C127.585 36.6047 127.476 36.8674 127.472 37.1421V55.4839C127.472 55.6204 127.499 55.7556 127.551 55.8817C127.603 56.0078 127.679 56.1224 127.775 56.2189C127.871 56.3154 127.985 56.3919 128.11 56.4442C128.235 56.4964 128.37 56.5233 128.506 56.5233H131.85C132.133 56.5241 132.405 56.4145 132.61 56.2176C132.707 56.1224 132.784 56.0082 132.837 55.8821C132.889 55.756 132.915 55.6205 132.914 55.4839V37.1421C132.919 37.005 132.894 36.8683 132.842 36.7417C132.789 36.615 132.71 36.5013 132.61 36.4084C132.513 36.305 132.394 36.2241 132.263 36.1713C132.132 36.1185 131.991 36.0951 131.85 36.1027Z" fill="#040000"/>
</svg>
