<svg width="48" height="49" viewBox="0 0 48 49" fill="none" xmlns="http://www.w3.org/2000/svg">
<rect x="0.5" y="1" width="47" height="47" rx="23.5" stroke="black"/>
<g clip-path="url(#clip0_2089_734)">
<path d="M24 31.3037C20.2489 31.3037 17.1963 28.2511 17.1963 24.5C17.1963 20.7489 20.2489 17.6963 24 17.6963C27.7511 17.6963 30.8037 20.7489 30.8037 24.5C30.8037 28.2511 27.7511 31.3037 24 31.3037ZM24 18.7963C20.8567 18.7963 18.2963 21.3539 18.2963 24.5C18.2963 27.6461 20.8539 30.2037 24 30.2037C27.1461 30.2037 29.7037 27.6461 29.7037 24.5C29.7037 21.3539 27.1434 18.7963 24 18.7963Z" fill="black"/>
<path d="M24.682 25.3058H22.9935C22.691 25.3058 22.4435 25.0583 22.4435 24.7558V21.3759C22.4435 21.0734 22.691 20.8259 22.9935 20.8259H24.682C25.9168 20.8259 26.9206 21.8297 26.9206 23.0645C26.9206 24.302 25.9168 25.3058 24.682 25.3058ZM23.5435 24.2058H24.682C25.309 24.2058 25.8206 23.6943 25.8206 23.0672C25.8206 22.4402 25.309 21.9287 24.682 21.9287H23.5435V24.2058Z" fill="black"/>
<path d="M24.682 28.683H22.9935C22.691 28.683 22.4435 28.4354 22.4435 28.1329V24.7558C22.4435 24.4533 22.691 24.2058 22.9935 24.2058H24.682C25.9168 24.2058 26.9206 25.2096 26.9206 26.4444C26.9206 27.6792 25.9168 28.683 24.682 28.683ZM23.5435 27.5829H24.682C25.309 27.5829 25.8206 27.0714 25.8206 26.4444C25.8206 25.8174 25.309 25.3058 24.682 25.3058H23.5435V27.5829Z" fill="black"/>
<path d="M23.5435 20.0862H22.4435V21.3787H23.5435V20.0862Z" fill="black"/>
<path d="M25.6033 20.0862H24.5033V21.3787H25.6033V20.0862Z" fill="black"/>
<path d="M23.5435 28.1328H22.4435V29.4254H23.5435V28.1328Z" fill="black"/>
<path d="M25.6033 28.1328H24.5033V29.4254H25.6033V28.1328Z" fill="black"/>
<path d="M22.9935 27.5828H21.3902V28.6828H22.9935V27.5828Z" fill="black"/>
<path d="M22.9935 20.8259H21.3902V21.926H22.9935V20.8259Z" fill="black"/>
<path d="M24.55 11.7092H23.45V16.6594H24.55V11.7092Z" fill="black"/>
<path d="M24 12.2593C22.9632 12.2593 22.1217 11.415 22.1217 10.381C22.1217 9.34421 22.966 8.50269 24 8.50269C25.0368 8.50269 25.8783 9.34421 25.8783 10.381C25.8783 11.415 25.0368 12.2593 24 12.2593ZM24 9.59997C23.571 9.59997 23.2217 9.94923 23.2217 10.3782C23.2217 10.8073 23.571 11.1565 24 11.1565C24.429 11.1565 24.7783 10.8073 24.7783 10.3782C24.7783 9.94923 24.429 9.59997 24 9.59997Z" fill="black"/>
<path d="M32.2035 16.0655C31.1667 16.0655 30.3252 15.2212 30.3252 14.1871C30.3252 13.1504 31.1695 12.3088 32.2035 12.3088C33.2403 12.3088 34.0818 13.1504 34.0818 14.1871C34.0846 15.2239 33.2403 16.0655 32.2035 16.0655ZM32.2035 13.4089C31.7745 13.4089 31.4252 13.7581 31.4252 14.1871C31.4252 14.6162 31.7745 14.9654 32.2035 14.9654C32.6325 14.9654 32.9818 14.6162 32.9818 14.1871C32.9845 13.7581 32.6353 13.4089 32.2035 13.4089Z" fill="black"/>
<path d="M26.6318 16.6594H25.5318V14.1843C25.5318 13.8818 25.7793 13.6343 26.0818 13.6343H30.8752V14.7343H26.6318V16.6594Z" fill="black"/>
<path d="M15.813 16.0655C14.7762 16.0655 13.9347 15.2212 13.9347 14.1871C13.9347 13.1504 14.779 12.3088 15.813 12.3088C16.8498 12.3088 17.6913 13.1504 17.6913 14.1871C17.6913 15.2239 16.8498 16.0655 15.813 16.0655ZM15.813 13.4089C15.384 13.4089 15.0347 13.7581 15.0347 14.1871C15.0347 14.6162 15.384 14.9654 15.813 14.9654C16.242 14.9654 16.5913 14.6162 16.5913 14.1871C16.5913 13.7581 16.242 13.4089 15.813 13.4089Z" fill="black"/>
<path d="M22.4847 16.6594H21.3847V14.7343H17.1413V13.6343H21.9347C22.2372 13.6343 22.4847 13.8818 22.4847 14.1843V16.6594Z" fill="black"/>
<path d="M16.1595 23.95H11.2094V25.05H16.1595V23.95Z" fill="black"/>
<path d="M9.87831 26.3784C8.84428 26.3784 8 25.5369 8 24.5001C8 23.4634 8.84428 22.6218 9.87831 22.6218C10.9151 22.6218 11.7566 23.4634 11.7566 24.5001C11.7594 25.5369 10.9151 26.3784 9.87831 26.3784ZM9.87831 23.7219C9.4493 23.7219 9.10003 24.0711 9.10003 24.5001C9.10003 24.9291 9.4493 25.2784 9.87831 25.2784C10.3073 25.2784 10.6566 24.9291 10.6566 24.5001C10.6593 24.0711 10.3101 23.7219 9.87831 23.7219Z" fill="black"/>
<path d="M13.6872 18.1748C12.6504 18.1748 11.8089 17.3306 11.8089 16.2965C11.8089 15.2597 12.6531 14.4182 13.6872 14.4182C14.724 14.4182 15.5655 15.2597 15.5655 16.2965C15.5655 17.3306 14.724 18.1748 13.6872 18.1748ZM13.6872 15.5155C13.2582 15.5155 12.9089 15.8648 12.9089 16.2938C12.9089 16.7228 13.2582 17.072 13.6872 17.072C14.1162 17.072 14.4655 16.7228 14.4655 16.2938C14.4655 15.8648 14.1162 15.5155 13.6872 15.5155Z" fill="black"/>
<path d="M16.1595 22.9682H13.6844C13.3819 22.9682 13.1344 22.7207 13.1344 22.4182V17.6248H14.2344V21.8681H16.1595V22.9682Z" fill="black"/>
<path d="M13.6872 34.5655C12.6504 34.5655 11.8089 33.7239 11.8089 32.6871C11.8089 31.6504 12.6531 30.8088 13.6872 30.8088C14.724 30.8088 15.5655 31.6531 15.5655 32.6871C15.5655 33.7239 14.724 34.5655 13.6872 34.5655ZM13.6872 31.9089C13.2582 31.9089 12.9089 32.2581 12.9089 32.6871C12.9089 33.1162 13.2582 33.4654 13.6872 33.4654C14.1162 33.4654 14.4655 33.1162 14.4655 32.6871C14.4655 32.2581 14.1162 31.9089 13.6872 31.9089Z" fill="black"/>
<path d="M14.2344 31.3588H13.1344V26.5654C13.1344 26.2629 13.3819 26.0154 13.6844 26.0154H16.1595V27.1154H14.2344V31.3588Z" fill="black"/>
<path d="M24.55 32.3403H23.45V37.2905H24.55V32.3403Z" fill="black"/>
<path d="M24 40.4998C22.9632 40.4998 22.1217 39.6555 22.1217 38.6215C22.1217 37.5847 22.966 36.7432 24 36.7432C25.0368 36.7432 25.8783 37.5847 25.8783 38.6215C25.8783 39.6555 25.0368 40.4998 24 40.4998ZM24 37.8404C23.571 37.8404 23.2217 38.1897 23.2217 38.6187C23.2217 39.0477 23.571 39.397 24 39.397C24.429 39.397 24.7783 39.0477 24.7783 38.6187C24.7783 38.1897 24.429 37.8404 24 37.8404Z" fill="black"/>
<path d="M15.7965 36.6909C14.7597 36.6909 13.9182 35.8467 13.9182 34.8126C13.9182 33.7759 14.7625 32.9343 15.7965 32.9343C16.8333 32.9343 17.6748 33.7759 17.6748 34.8126C17.6748 35.8494 16.8305 36.6909 15.7965 36.6909ZM15.7965 34.0344C15.3675 34.0344 15.0182 34.3836 15.0182 34.8126C15.0182 35.2416 15.3675 35.5909 15.7965 35.5909C16.2255 35.5909 16.5748 35.2416 16.5748 34.8126C16.5748 34.3836 16.2255 34.0344 15.7965 34.0344Z" fill="black"/>
<path d="M21.9182 35.3654H17.1248V34.2654H21.3682V32.3403H22.4682V34.8154C22.4682 35.1207 22.2207 35.3654 21.9182 35.3654Z" fill="black"/>
<path d="M32.187 36.6909C31.1502 36.6909 30.3087 35.8467 30.3087 34.8126C30.3087 33.7759 31.1502 32.9343 32.187 32.9343C33.2238 32.9343 34.0653 33.7759 34.0653 34.8126C34.0653 35.8494 33.2238 36.6909 32.187 36.6909ZM32.187 34.0344C31.758 34.0344 31.4087 34.3836 31.4087 34.8126C31.4087 35.2416 31.758 35.5909 32.187 35.5909C32.616 35.5909 32.9653 35.2416 32.9653 34.8126C32.9653 34.3836 32.616 34.0344 32.187 34.0344Z" fill="black"/>
<path d="M30.8587 35.3654H26.0653C25.7628 35.3654 25.5153 35.1179 25.5153 34.8154V32.3403H26.6153V34.2654H30.8587V35.3654Z" fill="black"/>
<path d="M36.7906 23.95H31.8405V25.05H36.7906V23.95Z" fill="black"/>
<path d="M38.1217 26.3782C37.0849 26.3782 36.2434 25.5339 36.2434 24.4999C36.2434 23.4631 37.0877 22.6216 38.1217 22.6216C39.1585 22.6216 40 23.4631 40 24.4999C40 25.5367 39.1557 26.3782 38.1217 26.3782ZM38.1217 23.7216C37.6927 23.7216 37.3434 24.0709 37.3434 24.4999C37.3434 24.9289 37.6927 25.2782 38.1217 25.2782C38.5507 25.2782 38.9 24.9289 38.9 24.4999C38.9 24.0709 38.5507 23.7216 38.1217 23.7216Z" fill="black"/>
<path d="M34.3128 34.5845C33.276 34.5845 32.4345 33.7402 32.4345 32.7062C32.4345 31.6694 33.2788 30.8279 34.3128 30.8279C35.3496 30.8279 36.1911 31.6694 36.1911 32.7062C36.1911 33.7402 35.3496 34.5845 34.3128 34.5845ZM34.3128 31.9252C33.8838 31.9252 33.5345 32.2744 33.5345 32.7034C33.5345 33.1325 33.8838 33.4817 34.3128 33.4817C34.7418 33.4817 35.0911 33.1325 35.0911 32.7034C35.0911 32.2744 34.7418 31.9252 34.3128 31.9252Z" fill="black"/>
<path d="M34.8656 31.3752H33.7655V27.1318H31.8405V26.0317H34.3156C34.6181 26.0317 34.8656 26.2792 34.8656 26.5818V31.3752Z" fill="black"/>
<path d="M34.3128 18.1912C33.276 18.1912 32.4345 17.3497 32.4345 16.3129C32.4345 15.2761 33.2788 14.4346 34.3128 14.4346C35.3496 14.4346 36.1911 15.2788 36.1911 16.3129C36.1911 17.3497 35.3496 18.1912 34.3128 18.1912ZM34.3128 15.5319C33.8838 15.5319 33.5345 15.8811 33.5345 16.3101C33.5345 16.7391 33.8838 17.0884 34.3128 17.0884C34.7418 17.0884 35.0911 16.7391 35.0911 16.3101C35.0911 15.8839 34.7418 15.5319 34.3128 15.5319Z" fill="black"/>
<path d="M34.3156 22.9845H31.8405V21.8845H33.7655V17.6411H34.8656V22.4345C34.8656 22.737 34.6208 22.9845 34.3156 22.9845Z" fill="black"/>
</g>
<defs>
<clipPath id="clip0_2089_734">
<rect width="32" height="32" fill="white" transform="translate(8 8.5)"/>
</clipPath>
</defs>
</svg>
