<svg width="48" height="49" viewBox="0 0 48 49" fill="none" xmlns="http://www.w3.org/2000/svg">
<rect x="0.5" y="1" width="47" height="47" rx="23.5" stroke="black"/>
<g clip-path="url(#clip0_2089_735)">
<path d="M18.8443 35.6377C18.5207 35.6377 18.2583 35.9 18.2583 36.2236V38.4142C18.2583 38.7378 18.5207 39.0001 18.8443 39.0001C19.1678 39.0001 19.4302 38.7378 19.4302 38.4142V36.2236C19.4302 35.9 19.1678 35.6377 18.8443 35.6377Z" fill="black"/>
<path d="M29.1557 35.6377C28.8322 35.6377 28.5698 35.9 28.5698 36.2236V38.4142C28.5698 38.7378 28.8322 39.0001 29.1557 39.0001C29.4793 39.0001 29.7417 38.7378 29.7417 38.4142V36.2236C29.7417 35.9 29.4793 35.6377 29.1557 35.6377Z" fill="black"/>
<path d="M23.9993 35.6377C23.6757 35.6377 23.4134 35.9 23.4134 36.2236V38.4142C23.4134 38.7378 23.6757 39.0001 23.9993 39.0001C24.3229 39.0001 24.5852 38.7378 24.5852 38.4142V36.2236C24.5852 35.9 24.3229 35.6377 23.9993 35.6377Z" fill="black"/>
<path d="M18.8443 9C18.5207 9 18.2583 9.26232 18.2583 9.58594V11.7765C18.2583 12.1001 18.5207 12.3624 18.8443 12.3624C19.1678 12.3624 19.4302 12.1001 19.4302 11.7765V9.58594C19.4302 9.26232 19.1678 9 18.8443 9Z" fill="black"/>
<path d="M29.1557 9C28.8322 9 28.5698 9.26232 28.5698 9.58594V11.7765C28.5698 12.1001 28.8322 12.3624 29.1557 12.3624C29.4793 12.3624 29.7417 12.1001 29.7417 11.7765V9.58594C29.7417 9.26232 29.4793 9 29.1557 9Z" fill="black"/>
<path d="M23.9993 9C23.6757 9 23.4134 9.26232 23.4134 9.58594V11.7765C23.4134 12.1001 23.6757 12.3624 23.9993 12.3624C24.3229 12.3624 24.5852 12.1001 24.5852 11.7765V9.58594C24.5852 9.26232 24.3229 9 23.9993 9Z" fill="black"/>
<path d="M11.7765 18.2583H9.58594C9.26238 18.2583 9 18.5206 9 18.8442C9 19.1679 9.26238 19.4302 9.58594 19.4302H11.7765C12.1 19.4302 12.3624 19.1679 12.3624 18.8442C12.3624 18.5206 12.1 18.2583 11.7765 18.2583Z" fill="black"/>
<path d="M11.7765 28.5698H9.58594C9.26238 28.5698 9 28.8321 9 29.1558C9 29.4794 9.26238 29.7417 9.58594 29.7417H11.7765C12.1 29.7417 12.3624 29.4794 12.3624 29.1558C12.3624 28.8321 12.1 28.5698 11.7765 28.5698Z" fill="black"/>
<path d="M11.7765 23.4133H9.58594C9.26238 23.4133 9 23.6757 9 23.9993C9 24.3229 9.26238 24.5852 9.58594 24.5852H11.7765C12.1 24.5852 12.3624 24.3229 12.3624 23.9993C12.3624 23.6757 12.1 23.4133 11.7765 23.4133Z" fill="black"/>
<path d="M38.4141 18.2583H36.2235C35.9 18.2583 35.6376 18.5206 35.6376 18.8442C35.6376 19.1679 35.9 19.4302 36.2235 19.4302H38.4141C38.7376 19.4302 39 19.1679 39 18.8442C39 18.5206 38.7376 18.2583 38.4141 18.2583Z" fill="black"/>
<path d="M38.4141 28.5698H36.2235C35.9 28.5698 35.6376 28.8321 35.6376 29.1558C35.6376 29.4794 35.9 29.7417 36.2235 29.7417H38.4141C38.7376 29.7417 39 29.4794 39 29.1558C39 28.8321 38.7376 28.5698 38.4141 28.5698Z" fill="black"/>
<path d="M38.4141 23.4133H36.2235C35.9 23.4133 35.6376 23.6757 35.6376 23.9993C35.6376 24.3229 35.9 24.5852 36.2235 24.5852H38.4141C38.7376 24.5852 39 24.3229 39 23.9993C39 23.6757 38.7376 23.4133 38.4141 23.4133Z" fill="black"/>
<path d="M34.0781 13.3359H13.9219C13.5983 13.3359 13.3359 13.5983 13.3359 13.9219V34.0781C13.3359 34.4017 13.5983 34.6641 13.9219 34.6641H34.0781C34.4017 34.6641 34.6641 34.4017 34.6641 34.0781V13.9219C34.6641 13.5983 34.4017 13.3359 34.0781 13.3359ZM33.4922 33.4922H14.5078V14.5078H33.4922V33.4922Z" fill="black"/>
<path d="M30.5625 16.8516H17.4375C17.1139 16.8516 16.8516 17.1139 16.8516 17.4375V30.5625C16.8516 30.8861 17.1139 31.1484 17.4375 31.1484H30.5625C30.8861 31.1484 31.1484 30.8861 31.1484 30.5625V17.4375C31.1484 17.1139 30.8861 16.8516 30.5625 16.8516ZM29.9766 18.7266H26.3249C26.0014 18.7266 25.739 18.9889 25.739 19.3125C25.739 19.6361 26.0014 19.8984 26.3249 19.8984H29.9766V29.9766H18.0234V29.2734H21.6751C21.9986 29.2734 22.261 29.0111 22.261 28.6875C22.261 28.3639 21.9986 28.1016 21.6751 28.1016H18.0234V18.0234H29.9766V18.7266Z" fill="black"/>
<path d="M27.9363 20.3672C27.6127 20.3672 27.3503 20.6295 27.3503 20.9531V27.0469C27.3503 27.3705 27.6127 27.6328 27.9363 27.6328C28.2598 27.6328 28.5222 27.3705 28.5222 27.0469V20.9531C28.5222 20.6295 28.2598 20.3672 27.9363 20.3672Z" fill="black"/>
<path d="M25.2342 26.8391L22.9229 20.7454C22.8366 20.5177 22.6185 20.3672 22.3751 20.3672C22.1316 20.3672 21.9135 20.5177 21.8272 20.7454L19.516 26.8391C19.4012 27.1417 19.5534 27.48 19.856 27.5947C20.1585 27.7095 20.4969 27.5573 20.6116 27.2546L20.9572 26.3436H23.7929L24.1385 27.2546C24.2273 27.4888 24.45 27.633 24.6864 27.633C24.7555 27.633 24.8257 27.6207 24.8941 27.5947C25.1967 27.48 25.349 27.1417 25.2342 26.8391ZM21.4016 25.1717L22.375 22.6054L23.3484 25.1717H21.4016Z" fill="black"/>
<path d="M19.2586 31.97C19.1496 31.861 18.9984 31.7983 18.8443 31.7983C18.6902 31.7983 18.5391 31.861 18.4301 31.97C18.3211 32.0796 18.2584 32.2302 18.2584 32.3843C18.2584 32.5384 18.3211 32.6896 18.4301 32.7991C18.5391 32.9081 18.6902 32.9702 18.8443 32.9702C18.9984 32.9702 19.1496 32.9081 19.2586 32.7991C19.3675 32.6896 19.4303 32.539 19.4303 32.3843C19.4303 32.2302 19.3676 32.0796 19.2586 31.97Z" fill="black"/>
<path d="M29.5699 31.97C29.4609 31.861 29.3098 31.7983 29.1557 31.7983C29.0015 31.7983 28.8504 31.861 28.7414 31.97C28.6324 32.079 28.5697 32.2302 28.5697 32.3843C28.5697 32.539 28.6324 32.6901 28.7414 32.7985C28.8504 32.9081 29.0015 32.9708 29.1557 32.9708C29.3098 32.9708 29.4609 32.9081 29.5699 32.7985C29.6789 32.6896 29.7416 32.539 29.7416 32.3843C29.7416 32.2302 29.6789 32.0796 29.5699 31.97Z" fill="black"/>
<path d="M24.4136 31.9699C24.3047 31.8609 24.1535 31.7988 23.9994 31.7988C23.8453 31.7988 23.6941 31.8609 23.5852 31.9699C23.4762 32.0789 23.4135 32.2301 23.4135 32.3842C23.4135 32.5389 23.4761 32.6895 23.5852 32.799C23.6941 32.908 23.8453 32.9707 23.9994 32.9707C24.1535 32.9707 24.3047 32.908 24.4136 32.799C24.5226 32.6895 24.5854 32.5389 24.5854 32.3842C24.5854 32.2301 24.5227 32.0789 24.4136 31.9699Z" fill="black"/>
<path d="M19.2586 15.2009C19.1496 15.0919 18.9984 15.0298 18.8443 15.0298C18.6902 15.0298 18.5391 15.0919 18.4301 15.2009C18.3211 15.3104 18.2584 15.461 18.2584 15.6157C18.2584 15.7698 18.3211 15.9204 18.4301 16.03C18.5391 16.139 18.6902 16.2017 18.8443 16.2017C18.9984 16.2017 19.1496 16.139 19.2586 16.03C19.3675 15.921 19.4303 15.7698 19.4303 15.6157C19.4303 15.461 19.3676 15.3104 19.2586 15.2009Z" fill="black"/>
<path d="M29.5699 15.2009C29.4609 15.0919 29.3098 15.0298 29.1557 15.0298C29.0015 15.0298 28.8504 15.0919 28.7414 15.2009C28.6324 15.3104 28.5697 15.461 28.5697 15.6157C28.5697 15.7698 28.6324 15.921 28.7414 16.03C28.8504 16.139 29.0015 16.2017 29.1557 16.2017C29.3098 16.2017 29.4609 16.139 29.5699 16.03C29.6789 15.921 29.7416 15.7698 29.7416 15.6157C29.7416 15.461 29.6789 15.3104 29.5699 15.2009Z" fill="black"/>
<path d="M24.4136 15.2009C24.3047 15.0919 24.1535 15.0298 23.9994 15.0298C23.8453 15.0298 23.6941 15.0919 23.5852 15.2009C23.4762 15.3104 23.4135 15.461 23.4135 15.6157C23.4135 15.7698 23.4761 15.921 23.5852 16.03C23.6941 16.139 23.8453 16.2017 23.9994 16.2017C24.1535 16.2017 24.3047 16.139 24.4136 16.03C24.5226 15.921 24.5854 15.7698 24.5854 15.6157C24.5854 15.461 24.5227 15.3104 24.4136 15.2009Z" fill="black"/>
<path d="M16.03 18.3655C15.9211 18.2565 15.7699 18.1938 15.6158 18.1938C15.4611 18.1938 15.3105 18.2565 15.2016 18.3655C15.092 18.4745 15.0299 18.6257 15.0299 18.7804C15.0299 18.9345 15.092 19.0851 15.2016 19.1946C15.3105 19.3036 15.4611 19.3663 15.6158 19.3663C15.7699 19.3663 15.9211 19.3036 16.03 19.1946C16.139 19.0851 16.2018 18.9345 16.2018 18.7804C16.2018 18.6257 16.1391 18.4751 16.03 18.3655Z" fill="black"/>
<path d="M16.03 28.6775C15.9211 28.568 15.7699 28.5059 15.6158 28.5059C15.4611 28.5059 15.3105 28.568 15.2016 28.6775C15.092 28.7865 15.0299 28.9371 15.0299 29.0918C15.0299 29.2459 15.092 29.3971 15.2016 29.5061C15.3105 29.615 15.4611 29.6777 15.6158 29.6777C15.7699 29.6777 15.9211 29.615 16.03 29.5061C16.139 29.3971 16.2018 29.2459 16.2018 29.0918C16.2018 28.9377 16.1391 28.7865 16.03 28.6775Z" fill="black"/>
<path d="M16.03 23.5208C15.9211 23.4118 15.7699 23.3491 15.6158 23.3491C15.4611 23.3491 15.3105 23.4118 15.2016 23.5208C15.092 23.6298 15.0299 23.781 15.0299 23.9351C15.0299 24.0897 15.092 24.2403 15.2016 24.3493C15.3105 24.4589 15.4611 24.521 15.6158 24.521C15.7699 24.521 15.9211 24.4589 16.03 24.3493C16.139 24.2403 16.2018 24.0897 16.2018 23.9351C16.2018 23.781 16.1391 23.6298 16.03 23.5208Z" fill="black"/>
<path d="M32.7985 18.3655C32.6895 18.2565 32.5389 18.1938 32.3848 18.1938C32.2301 18.1938 32.0795 18.2565 31.9699 18.3655C31.861 18.4751 31.7982 18.6257 31.7982 18.7804C31.7982 18.9345 31.8609 19.0851 31.9699 19.1946C32.0795 19.3036 32.2301 19.3663 32.3848 19.3663C32.5389 19.3663 32.6895 19.3036 32.7985 19.1946C32.9081 19.0851 32.9702 18.9345 32.9702 18.7804C32.9702 18.6257 32.9081 18.4751 32.7985 18.3655Z" fill="black"/>
<path d="M32.7985 28.6775C32.6895 28.568 32.5389 28.5059 32.3848 28.5059C32.2301 28.5059 32.0789 28.568 31.9699 28.6775C31.861 28.7865 31.7982 28.9371 31.7982 29.0918C31.7982 29.2459 31.8609 29.3971 31.9699 29.5061C32.0789 29.615 32.2301 29.6777 32.3848 29.6777C32.5389 29.6777 32.6895 29.615 32.7985 29.5061C32.9081 29.3971 32.9702 29.2459 32.9702 29.0918C32.9702 28.9371 32.9081 28.7865 32.7985 28.6775Z" fill="black"/>
<path d="M32.7985 23.5208C32.6895 23.4118 32.5389 23.3491 32.3848 23.3491C32.2301 23.3491 32.0795 23.4118 31.9699 23.5208C31.861 23.6298 31.7982 23.781 31.7982 23.9356C31.7982 24.0897 31.8609 24.2403 31.9699 24.3493C32.0795 24.4589 32.2301 24.521 32.3848 24.521C32.5389 24.521 32.6895 24.4589 32.7985 24.3493C32.9081 24.2403 32.9702 24.0897 32.9702 23.9356C32.9702 23.781 32.9081 23.6298 32.7985 23.5208Z" fill="black"/>
<path d="M24.4136 28.2732C24.3047 28.1643 24.1535 28.1016 23.9994 28.1016C23.8453 28.1016 23.6941 28.1643 23.5852 28.2732C23.4762 28.3822 23.4135 28.5334 23.4135 28.6875C23.4135 28.8416 23.4761 28.9928 23.5852 29.1018C23.6942 29.2107 23.8447 29.2734 23.9994 29.2734C24.1535 29.2734 24.3047 29.2107 24.4136 29.1018C24.5226 28.9928 24.5854 28.8416 24.5854 28.6875C24.5854 28.5334 24.5227 28.3822 24.4136 28.2732Z" fill="black"/>
<path d="M24.4148 18.8982C24.3059 18.7893 24.1552 18.7266 24.0006 18.7266C23.8465 18.7266 23.6953 18.7893 23.5863 18.8982C23.4774 19.0072 23.4146 19.1584 23.4146 19.3125C23.4146 19.4666 23.4773 19.6178 23.5863 19.7268C23.6953 19.8357 23.8465 19.8984 24.0006 19.8984C24.1547 19.8984 24.3059 19.8357 24.4148 19.7268C24.5238 19.6178 24.5865 19.4666 24.5865 19.3125C24.5865 19.1584 24.5238 19.0072 24.4148 18.8982Z" fill="black"/>
</g>
<defs>
<clipPath id="clip0_2089_735">
<rect width="30" height="30" fill="white" transform="translate(9 9)"/>
</clipPath>
</defs>
</svg>
