<svg width="194" height="25" viewBox="0 0 194 25" fill="none" xmlns="http://www.w3.org/2000/svg">
<path d="M26.5 6.9C26.6 6.9 26.7 6.8 26.8 6.8C27 6.8 27.2 6.8 27.3 6.8C28.4 6.8 29.3 6.5 29.9 5.8C30.4 5.3 30.6 4.7 30.7 4.1V0.1H24.1V3C24.1 3.2 24.1 3.4 24.1 3.6C24.1 3.8 24.1 4 24.1 4.1C24.1 4.7 23.8 5.2 23.3 5.6C22.9 6 22.7 6.1 22.6 6.1C22.6 6.1 22.4 6.1 22.2 6.1C22 6.1 21.6 6.1 21.2 6.1C19.5 6.1 18 7.4 17.9 9.1C17.9 9.5 17.9 9.8 17.9 10C17.9 10.2 17.9 10.3 17.9 10.5C17.7 11 17.4 11.4 16.9 11.7C16.4 12 15.9 12.2 15.4 12.2C14.9 12.2 14.4 12 13.9 11.7C13.4 11.4 13.1 11 12.9 10.5C12.9 10.3 12.9 10.2 12.9 10C12.9 9.8 12.9 9.5 12.9 9.1C12.7 7.4 11.3 6.1 9.6 6.1C7.9 6.1 8.9 6.1 8.6 6.1C8.3 6.1 8.2 6.1 8.2 6.1C8.2 6.1 7.9 6 7.5 5.6C7.1 5.2 6.8 4.7 6.7 4.1C6.7 4 6.7 3.9 6.7 3.8V0H0.1V3.4C0.1 4.3 0.4 5.2 1 5.8C1.6 6.4 2.5 6.8 3.6 6.8C4.7 6.8 4 6.8 4.1 6.8C4.1 6.8 4.3 6.8 4.4 6.9C4.8 7.1 5.2 7.4 5.5 7.8C6.2 8.8 6.2 10.1 5.5 11C5.3 11.3 5 11.6 4.6 11.8C4.6 11.8 4.4 11.9 4.3 11.9C4 11.9 3.8 12 3.5 12C1.4 12 0 13.3 0 15.2C0 17.1 0.7 17.5 1.3 17.9C2 18.4 2.8 18.5 3.6 18.6C3.8 18.6 4 18.6 4.2 18.8H4.3C4.8 19 5.3 19.4 5.6 19.9C5.8 20.2 5.9 20.6 5.9 21C5.9 21.2 5.9 21.3 5.9 21.5C5.9 21.6 5.9 21.7 5.9 21.9V24.8H12.5V20.9C12.4 20.2 12 19.5 11.5 18.9C11.5 18.9 11.5 18.9 11.4 18.8C10.7 18.2 9.8 18.1 9.1 18.1C9 18.1 8.9 18.1 8.8 18.1H8.7H8.5H8.3L8.1 17.9C7.9 17.8 7.7 17.7 7.5 17.5C6.9 16.9 6.6 16.2 6.6 15.4C6.6 14.8 6.8 14.2 7.2 13.7C7.6 13.2 8.1 12.9 8.6 12.7C9.2 12.5 10.2 12.5 10.7 12.7C11.6 13 12.3 13.8 12.3 14.8C12.3 14.8 12.3 15 12.3 15.1C12.3 15.4 12.3 15.8 12.4 16.3C12.9 17.7 14.1 18.6 15.6 18.6C17 18.6 18.3 17.7 18.8 16.3C19 15.8 18.9 15.4 18.9 15.1C18.9 15.1 18.9 14.9 18.9 14.8C18.9 13.8 19.6 13 20.5 12.7C21 12.5 22.1 12.5 22.6 12.7C23.2 12.9 23.7 13.2 24 13.7C24.4 14.2 24.6 14.8 24.6 15.4C24.6 16.2 24.3 16.9 23.7 17.5C23.5 17.7 23.3 17.8 23.1 17.9H22.9L22.7 18.1H22.5H22.4C22.4 18.1 22.2 18.1 22.1 18.1C21.4 18.1 20.5 18.1 19.8 18.7C19.8 18.7 19.8 18.7 19.7 18.8C19.2 19.3 18.8 20 18.7 20.7V24.7H25.3V21.8C25.3 21.7 25.3 21.5 25.3 21.4C25.3 21.3 25.3 21.1 25.3 20.9C25.3 20.5 25.5 20.1 25.6 19.8C25.9 19.3 26.3 18.9 26.9 18.7H27C27.2 18.6 27.4 18.5 27.6 18.5C28.4 18.5 29.3 18.3 29.9 17.8C30.9 17.1 31.2 15.9 31.2 15.1C31.2 13.2 29.8 11.9 27.7 11.9C25.6 11.9 27.1 11.9 26.9 11.8C26.9 11.8 26.7 11.8 26.6 11.7C26.3 11.5 25.9 11.2 25.7 10.9C25 9.9 25 8.6 25.7 7.7C26 7.3 26.4 7 26.8 6.8L26.5 6.9Z" fill="#040000"/>
<path d="M72.6 24.5H68.5V6.80005C68.5 5.90005 67.2 5.70005 67 6.60005L62.2999 24.5H54.5L49.7999 6.60005C49.5999 5.70005 48.2999 5.90005 48.2999 6.80005V24.5H44.2V0.300049H52.2999L57.7 21.1C57.9 21.9 59 21.9 59.2 21.1L64.5 0.300049H72.6V24.5Z" fill="#040000"/>
<path d="M74 15.9C74 10.6 77.3 7 82.6 7C87.9 7 91.2 10.7 91.2 15.9C91.2 21.1 87.9 24.9 82.6 24.9C77.3 24.9 74 21.2 74 15.9ZM87.2 15.9C87.2 12.2 85.6 9.8 82.6 9.8C79.6 9.8 78 12.2 78 15.9C78 19.6 79.7 22.1 82.6 22.1C85.5 22.1 87.2 19.7 87.2 15.9Z" fill="#040000"/>
<path d="M104.3 7.3999H108.3L103 24.4999H95.5999L90.2999 7.3999H94.2999L98.5999 21.5999C98.7999 22.2999 99.8999 22.2999 100.1 21.5999L104.4 7.3999H104.3Z" fill="#040000"/>
<path d="M124 17.1H112.2C111.7 17.1 111.4 17.5 111.4 18C111.9 20.7 113.5 22.1 115.7 22.1C117.9 22.1 119 21.1 119.6 19.5H123.6C122.5 23.2 119.6 24.9 115.6 24.9C111.6 24.9 107.2 21.2 107.2 15.9C107.2 10.6 110.5 7 115.6 7C120.7 7 124 10.5 124 15.8C124 21.1 124 16.6 124 17.1ZM112.4 14.3H119.2C119.7 14.3 120.1 13.8 120 13.4C119.5 11.2 118 9.8 115.8 9.8C113.6 9.8 112.2 11 111.6 13.4C111.5 13.9 111.8 14.4 112.3 14.4L112.4 14.3Z" fill="#040000"/>
<path d="M150.7 13.7V24.5H146.7V14.5C146.7 11.3 145.6 9.8 143.3 9.8C141 9.8 139.9 11.3 139.9 14.5V24.4H135.9V14.4C135.9 11.2 134.8 9.7 132.5 9.7C130.2 9.7 129.1 11.2 129.1 14.4V24.3H125.1V7.4H129V8.1C129 8.8 129.9 9.1 130.3 8.6C131.2 7.6 132.4 7 134.2 7C136 7 138 8.2 138.9 9.7C139.2 10.2 139.9 10.2 140.2 9.7C141.1 8.2 142.6 7 144.9 7C148.7 7 150.5 9.8 150.5 13.7H150.7Z" fill="#040000"/>
<path d="M168.3 17.1H156.5C156 17.1 155.7 17.5 155.7 18C156.2 20.7 157.8 22.1 160 22.1C162.2 22.1 163.3 21.1 163.9 19.5H167.9C166.8 23.2 163.9 24.9 159.9 24.9C155.9 24.9 151.5 21.2 151.5 15.9C151.5 10.6 154.8 7 159.9 7C165 7 168.3 10.5 168.3 15.8C168.3 21.1 168.3 16.6 168.3 17.1ZM156.7 14.3H163.5C164 14.3 164.4 13.8 164.3 13.4C163.8 11.2 162.3 9.8 160.1 9.8C157.9 9.8 156.5 11 155.9 13.4C155.8 13.9 156.1 14.4 156.6 14.4L156.7 14.3Z" fill="#040000"/>
<path d="M184.7 13.7V24.5H180.7V14.5C180.7 11.3 179.3 9.8 177.1 9.8C174.9 9.8 173.5 11.3 173.5 14.5V24.4H169.5V7.4H173.4V8.2C173.4 8.9 174.3 9.2 174.7 8.7C175.6 7.7 177 7 178.8 7C182.7 7 184.6 9.9 184.6 13.7H184.7Z" fill="#040000"/>
<path d="M192.2 21.5C190.7 21.5 189.9 21 189.9 19.4V11C189.9 10.6 190.2 10.2 190.7 10.2H194V7.29995H190.7C190.3 7.29995 189.9 6.99995 189.9 6.49995V3.19995H185.9V19.5C185.9 22.7999 188.3 24.4 191.5 24.4H194V21.4H192.2V21.5Z" fill="#040000"/>
</svg>
