<svg width="75" height="75" viewBox="0 0 75 75" fill="none" xmlns="http://www.w3.org/2000/svg">
<rect width="75" height="75" rx="37.5" fill="black"/>
<g clip-path="url(#clip0_2101_2225)">
<path d="M37.5119 16.5625C34.9272 16.5625 32.8244 18.6653 32.8244 21.25C32.8244 23.8347 34.9272 25.9375 37.5119 25.9375C40.0966 25.9375 42.1994 23.8347 42.1994 21.25C42.1994 18.6653 40.0966 16.5625 37.5119 16.5625ZM37.5119 24.0625C35.9611 24.0625 34.6994 22.8008 34.6994 21.25C34.6994 19.6992 35.9611 18.4375 37.5119 18.4375C39.0627 18.4375 40.3244 19.6992 40.3244 21.25C40.3244 22.8008 39.0627 24.0625 37.5119 24.0625Z" fill="#FFD828"/>
<path d="M38.175 20.5872C38.0006 20.4128 37.7587 20.3125 37.5122 20.3125C37.2647 20.3125 37.0237 20.4127 36.8494 20.5872C36.6741 20.7616 36.5747 21.0034 36.5747 21.25C36.5747 21.4966 36.6741 21.7384 36.8494 21.9127C37.0237 22.0871 37.2648 22.1875 37.5122 22.1875C37.7587 22.1875 37.9997 22.0872 38.175 21.9127C38.3493 21.7384 38.4497 21.4966 38.4497 21.25C38.4497 21.0034 38.3494 20.7616 38.175 20.5872Z" fill="#FFD828"/>
<path d="M46.3125 36.0625H28.6875C26.9299 36.0625 25.5 37.4924 25.5 39.25C25.5 41.0076 26.9299 42.4375 28.6875 42.4375H46.3125C48.0701 42.4375 49.5 41.0076 49.5 39.25C49.5 37.4924 48.0701 36.0625 46.3125 36.0625ZM30.9375 40.5625H28.6875C27.9638 40.5625 27.375 39.9737 27.375 39.25C27.375 38.5263 27.9638 37.9375 28.6875 37.9375H30.9375V40.5625ZM36.5625 40.5625H32.8125V37.9375H36.5625V40.5625ZM42.1875 40.5625H38.4375V37.9375H42.1875V40.5625ZM46.3125 40.5625H44.0625V37.9375H46.3125C47.0362 37.9375 47.625 38.5263 47.625 39.25C47.625 39.9737 47.0362 40.5625 46.3125 40.5625Z" fill="#FFD828"/>
<path d="M16.6716 46.4631C16.4972 46.2888 16.2553 46.1884 16.0088 46.1884C15.7622 46.1884 15.5203 46.2887 15.3459 46.4631C15.1717 46.6375 15.0713 46.8794 15.0713 47.1259C15.0713 47.3734 15.1716 47.6144 15.3459 47.7887C15.5203 47.963 15.7622 48.0634 16.0088 48.0634C16.2553 48.0634 16.4972 47.963 16.6716 47.7887C16.8459 47.6144 16.9463 47.3725 16.9463 47.1259C16.9463 46.8794 16.8459 46.6375 16.6716 46.4631Z" fill="#FFD828"/>
<path d="M16.0155 49.601C14.6285 49.601 13.5 50.7295 13.5 52.1166V52.4135C13.5 52.9312 13.9198 53.351 14.4375 53.351C14.9552 53.351 15.375 52.9312 15.375 52.4135V52.1166C15.375 51.7634 15.6622 51.476 16.0155 51.476C16.3687 51.476 16.6561 51.7634 16.6561 52.1166V52.4135C16.6561 52.9312 17.0759 53.351 17.5936 53.351C18.1113 53.351 18.5311 52.9312 18.5311 52.4135V52.1166C18.5311 50.7295 17.4026 49.601 16.0155 49.601Z" fill="#FFD828"/>
<path d="M59.654 46.4631C59.4797 46.2887 59.2378 46.1884 58.9912 46.1884C58.7446 46.1884 58.5027 46.2887 58.3284 46.4631C58.1541 46.6375 58.0537 46.8794 58.0537 47.1259C58.0537 47.3725 58.154 47.6144 58.3284 47.7887C58.5027 47.963 58.7446 48.0634 58.9912 48.0634C59.2378 48.0634 59.4797 47.9631 59.654 47.7887C59.8283 47.6144 59.9287 47.3725 59.9287 47.1259C59.9287 46.8794 59.8284 46.6375 59.654 46.4631Z" fill="#FFD828"/>
<path d="M57.4456 36.6023H56.923V36.5866C56.923 35.1603 55.7628 34 54.3366 34H52.9222C52.4244 32.0585 50.66 30.6191 48.5654 30.6191H40.4766V29.5H44.25C44.7677 29.5 45.1875 29.0802 45.1875 28.5625V20.6875C45.1875 16.4486 41.7389 13 37.5 13C33.2611 13 29.8125 16.4486 29.8125 20.6875V28.5625C29.8125 29.0802 30.2323 29.5 30.75 29.5H34.1016V30.6192H26.4346C24.34 30.6192 22.5756 32.0585 22.0779 34.0001H20.6634C19.2372 34.0001 18.077 35.1604 18.077 36.5867V36.6024H17.5544C16.1852 36.6024 15.0712 37.7164 15.0712 39.0857V44.0079C15.0712 44.5256 15.491 44.9454 16.0087 44.9454C16.5264 44.9454 16.9462 44.5256 16.9462 44.0079V39.0857C16.9462 38.7502 17.219 38.4774 17.5544 38.4774H18.077V38.5385C18.077 39.9648 19.2372 41.1251 20.6634 41.1251H21.9375V45.6222C21.9375 48.1019 23.9549 50.1193 26.4346 50.1193H29.3429C29.7113 51.8527 31.0791 53.2205 32.8125 53.5889V56.3125C32.8125 58.8972 34.9153 61 37.5 61C40.0847 61 42.1875 58.8972 42.1875 56.3125V53.5887C43.9209 53.2203 45.2888 51.8525 45.6571 50.1191H48.5654C51.0451 50.1191 53.0625 48.1017 53.0625 45.622V41.125H54.3366C55.7628 41.125 56.923 39.9647 56.923 38.5384V38.4773H57.4456C57.781 38.4773 58.0539 38.7501 58.0539 39.0856V44.0078C58.0539 44.5255 58.4737 44.9453 58.9914 44.9453C59.509 44.9453 59.9289 44.5255 59.9289 44.0078V39.0856C59.9289 37.7163 58.8148 36.6023 57.4456 36.6023ZM21.9375 39.25H20.6634C20.2711 39.25 19.952 38.9309 19.952 38.5384V36.5866C19.952 36.1941 20.2711 35.875 20.6634 35.875H21.9375V39.25ZM31.6875 27.625V20.6875C31.6875 17.4825 34.295 14.875 37.5 14.875C40.705 14.875 43.3125 17.4825 43.3125 20.6875V27.625H31.6875ZM38.6016 29.5V30.6192H35.9766V29.5H38.6016ZM32.8125 51.6393C32.115 51.3722 31.5594 50.8167 31.2924 50.1192H32.8125V51.6393ZM40.3125 56.3125C40.3125 57.8633 39.0508 59.125 37.5 59.125C35.9492 59.125 34.6875 57.8633 34.6875 56.3125V49.1875C34.6875 47.6367 35.9492 46.375 37.5 46.375C39.0508 46.375 40.3125 47.6367 40.3125 49.1875V56.3125ZM42.1875 51.6393V50.1192H43.7076C43.4406 50.8167 42.885 51.3722 42.1875 51.6393ZM51.1875 45.6221C51.1875 47.0679 50.0112 48.2442 48.5654 48.2442H42.0921C41.6544 46.1101 39.7617 44.5 37.5 44.5C35.2383 44.5 33.3457 46.1101 32.9079 48.2442H26.4345C24.9887 48.2442 23.8124 47.0679 23.8124 45.6221V35.1162C23.8124 33.6704 24.9887 32.4941 26.4345 32.4941H48.5654C50.0112 32.4941 51.1875 33.6704 51.1875 35.1162V45.6221ZM55.048 38.5384C55.048 38.9309 54.7289 39.25 54.3366 39.25H53.0625V35.875H54.3366C54.7289 35.875 55.048 36.1941 55.048 36.5866V38.5384Z" fill="#FFD828"/>
<path d="M58.9845 49.601C57.5974 49.601 56.4689 50.7295 56.4689 52.1166V52.4135C56.4689 52.9312 56.8887 53.351 57.4064 53.351C57.9241 53.351 58.3439 52.9312 58.3439 52.4135V52.1166C58.3439 51.7634 58.6312 51.476 58.9845 51.476C59.3377 51.476 59.625 51.7634 59.625 52.1166V52.4135C59.625 52.9312 60.0448 53.351 60.5625 53.351C61.0802 53.351 61.5 52.9312 61.5 52.4135V52.1166C61.5 50.7295 60.3715 49.601 58.9845 49.601Z" fill="#FFD828"/>
</g>
<defs>
<clipPath id="clip0_2101_2225">
<rect width="48" height="48" fill="white" transform="translate(13.5 13)"/>
</clipPath>
</defs>
</svg>
