<svg width="75" height="75" viewBox="0 0 75 75" fill="none" xmlns="http://www.w3.org/2000/svg">
<rect width="75" height="75" rx="37.5" fill="black"/>
<g clip-path="url(#clip0_2101_2227)">
<path d="M54.7969 47.7581H54.5154V41.2181C54.5154 40.8298 54.2006 40.515 53.8123 40.515C53.424 40.515 53.1092 40.8298 53.1092 41.2181V47.7581H21.8904V29.8987C21.8904 28.7356 22.8367 27.7893 23.9998 27.7893H26.4365C26.388 28.0296 26.3622 28.2779 26.3622 28.5323C26.3622 28.6213 26.3655 28.7106 26.3719 28.7998C25.2405 29.4677 24.5351 30.6812 24.5351 32.0254C24.5351 34.0928 26.217 35.7747 28.2844 35.7747H29.9999C30.3882 35.7747 30.703 35.4599 30.703 35.0716C30.703 34.6833 30.3882 34.3685 29.9999 34.3685H28.2844C26.9924 34.3685 25.9413 33.3174 25.9413 32.0254C25.9413 31.0667 26.5156 30.2143 27.4045 29.8538C27.7232 29.7245 27.9016 29.3837 27.8263 29.0482C27.7879 28.8774 27.7685 28.7039 27.7685 28.5323C27.7685 27.2403 28.8196 26.1892 30.1116 26.1892C30.4683 26.1892 30.8105 26.2671 31.1288 26.4208C31.3058 26.5063 31.5105 26.5136 31.6934 26.4414C31.8762 26.369 32.0203 26.2233 32.0908 26.0398C32.9494 23.8056 35.1347 22.3044 37.5285 22.3044C40.0609 22.3044 42.303 23.9688 43.0697 26.3367C42.6573 26.5308 42.2703 26.7812 41.926 27.0804C41.485 27.4639 41.1183 27.917 40.8362 28.4275C40.6483 28.7674 40.7716 29.1952 41.1115 29.383C41.2192 29.4426 41.3358 29.4709 41.4509 29.4709C41.6985 29.4709 41.9387 29.3398 42.0669 29.1077C42.2692 28.7419 42.5321 28.4169 42.8486 28.1418C43.2525 27.7907 43.7374 27.5323 44.2508 27.3942C44.5506 27.3137 44.8607 27.2728 45.1748 27.2728C47.131 27.2728 48.7226 28.8644 48.7226 30.8206C48.7226 32.7769 47.131 34.3685 45.1748 34.3685H35.6016C35.2133 34.3685 34.8984 34.6833 34.8984 35.0716C34.8984 35.4599 35.2133 35.7747 35.6016 35.7747H36.7969V37.4925H27.0715C26.6832 37.4925 26.3683 37.8073 26.3683 38.1956V40.515H24.8215C24.4332 40.515 24.1183 40.8298 24.1183 41.2181V45.7181C24.1183 46.1064 24.4332 46.4212 24.8215 46.4212H29.3215C29.7097 46.4212 30.0246 46.1064 30.0246 45.7181V41.2181C30.0246 40.8298 29.7097 40.515 29.3215 40.515H27.7746V38.8987H36.7969V40.515H35.2498C34.8615 40.515 34.5467 40.8298 34.5467 41.2181V45.7181C34.5467 46.1064 34.8615 46.4212 35.2498 46.4212H39.7498C40.1381 46.4212 40.4529 46.1064 40.4529 45.7181V41.2181C40.4529 40.8298 40.1381 40.515 39.7498 40.515H38.2031V38.8987H47.2433V40.515H45.678C45.2898 40.515 44.9749 40.8298 44.9749 41.2181V45.7181C44.9749 46.1064 45.2898 46.4212 45.678 46.4212H50.178C50.5663 46.4212 50.8812 46.1064 50.8812 45.7181V41.2181C50.8812 40.8298 50.5663 40.515 50.178 40.515H48.6495V38.1956C48.6495 37.8073 48.3347 37.4925 47.9464 37.4925H38.2031V35.7747H45.1748C47.9065 35.7747 50.1288 33.5524 50.1288 30.8206C50.1288 29.6794 49.7399 28.6279 49.089 27.7893H50.9997C52.1628 27.7893 53.1091 28.7356 53.1091 29.8987V35.2891C53.1091 35.6773 53.424 35.9922 53.8122 35.9922C54.2005 35.9922 54.5153 35.6773 54.5153 35.2891V29.8987C54.5153 27.9602 52.9382 26.3831 50.9997 26.3831H47.4461C47.4238 26.3831 47.4019 26.3844 47.3801 26.3864C46.7154 26.0544 45.9667 25.8666 45.1747 25.8666C44.9193 25.8666 44.6656 25.886 44.4152 25.9245C43.9918 24.6042 43.1881 23.4179 42.1054 22.5314C40.8192 21.4781 39.1937 20.8981 37.5284 20.8981C36.0377 20.8981 34.6062 21.3483 33.3888 22.2001C32.39 22.899 31.5932 23.8244 31.0563 24.9026C30.7504 24.8231 30.4344 24.783 30.1114 24.783C28.8432 24.783 27.7208 25.4165 27.042 26.3831H23.9996C22.0611 26.3831 20.484 27.9602 20.484 29.8987V47.7581H20.2031C19.8149 47.7581 19.5 48.0729 19.5 48.4612V49.6565C19.5 51.5563 21.0455 53.1018 22.9453 53.1018H52.0547C53.9545 53.1018 55.5 51.5563 55.5 49.6565V48.4612C55.5 48.0729 55.1851 47.7581 54.7969 47.7581ZM28.6183 41.9212V45.015H25.5246V41.9212H28.6183ZM39.0467 41.9212V45.015H35.9529V41.9212H39.0467ZM49.475 41.9212V45.015H46.3812V41.9212H49.475ZM40.1372 49.1643C40.0367 49.4897 39.7332 49.7268 39.3753 49.7268H35.6247C35.2668 49.7268 34.9633 49.4897 34.8628 49.1643H40.1372ZM54.0938 49.6565C54.0938 50.7808 53.179 51.6956 52.0547 51.6956H22.9453C21.821 51.6956 20.9062 50.7808 20.9062 49.6565V49.1643H21.1873H33.434C33.5515 50.2694 34.4891 51.1331 35.6247 51.1331H39.3753C40.5109 51.1331 41.4485 50.2694 41.566 49.1643H53.8123H54.0938V49.6565Z" fill="#FFD828"/>
<path d="M54.3095 37.6983C54.1788 37.5674 53.9974 37.4922 53.8125 37.4922C53.6268 37.4922 53.4462 37.5674 53.3147 37.6983C53.1839 37.8297 53.1094 38.0105 53.1094 38.1954C53.1094 38.3803 53.1839 38.5617 53.3147 38.6924C53.4462 38.8239 53.6276 38.8985 53.8125 38.8985C53.9974 38.8985 54.1781 38.8239 54.3095 38.6924C54.4404 38.5617 54.5156 38.381 54.5156 38.1954C54.5156 38.0105 54.4404 37.8297 54.3095 37.6983Z" fill="#FFD828"/>
<path d="M33.2158 34.5743C33.0851 34.4435 32.9037 34.3682 32.7188 34.3682C32.5338 34.3682 32.3524 34.4435 32.2216 34.5743C32.0909 34.705 32.0156 34.8864 32.0156 35.0714C32.0156 35.257 32.0908 35.4377 32.2216 35.5692C32.3524 35.6999 32.5338 35.7745 32.7188 35.7745C32.9037 35.7745 33.0851 35.7 33.2158 35.5692C33.3466 35.4377 33.4219 35.257 33.4219 35.0714C33.4219 34.8864 33.3466 34.705 33.2158 34.5743Z" fill="#FFD828"/>
</g>
<defs>
<clipPath id="clip0_2101_2227">
<rect width="36" height="36" fill="white" transform="translate(19.5 19)"/>
</clipPath>
</defs>
</svg>
