<svg width="75" height="75" viewBox="0 0 75 75" fill="none" xmlns="http://www.w3.org/2000/svg">
<rect width="75" height="75" rx="37.5" fill="black"/>
<g clip-path="url(#clip0_2101_2229)">
<path d="M39.3366 23.6949C38.7322 23.6122 38.1143 23.5703 37.5 23.5703C30.0948 23.5703 24.0703 29.5948 24.0703 37C24.0703 39.7916 24.9095 42.4456 26.5027 44.7101C26.256 45.0909 26.1232 45.5346 26.1232 45.9991C26.1232 46.6342 26.3706 47.2312 26.8196 47.6803C27.2687 48.1294 27.8658 48.3767 28.5009 48.3767C29.136 48.3767 29.7331 48.1293 30.1822 47.6803C30.6312 47.2312 30.8786 46.6342 30.8786 45.9991C30.8786 45.364 30.6312 44.7669 30.1822 44.3178C29.7331 43.8687 29.136 43.6214 28.501 43.6214C28.1816 43.6214 27.8719 43.684 27.5857 43.8034C26.2042 41.7981 25.4766 39.459 25.4766 37C25.4766 30.3702 30.8702 24.9766 37.5 24.9766C38.0508 24.9766 38.6045 25.0141 39.1459 25.0882C39.5308 25.141 39.8852 24.8717 39.9379 24.4869C39.9905 24.1022 39.7213 23.7476 39.3366 23.6949ZM27.8141 45.3121C28.0035 45.1228 28.2522 45.0281 28.501 45.0281C28.7498 45.0281 28.9985 45.1228 29.1879 45.3121C29.3714 45.4956 29.4724 45.7395 29.4724 45.999C29.4724 46.2585 29.3714 46.5025 29.1879 46.6859C28.8091 47.0647 28.1928 47.0647 27.814 46.6859C27.6306 46.5025 27.5295 46.2585 27.5295 45.999C27.5295 45.7395 27.6306 45.4956 27.8141 45.3121Z" fill="#FFD828"/>
<path d="M48.4967 29.29C49.091 28.3694 48.9858 27.1252 48.1803 26.3197C47.2532 25.3926 45.7448 25.3926 44.8178 26.3197C43.8907 27.2468 43.8907 28.7552 44.8178 29.6822C45.2813 30.1457 45.8902 30.3775 46.4991 30.3775C46.8104 30.3775 47.1216 30.3165 47.4136 30.1953C48.7955 32.2011 49.5234 34.542 49.5234 37C49.5234 43.6298 44.1298 49.0235 37.5 49.0235C36.8502 49.0235 36.198 48.9712 35.5618 48.8681C35.1788 48.8058 34.8174 49.0664 34.7554 49.4497C34.6933 49.833 34.9536 50.1942 35.337 50.2562C36.0473 50.3713 36.775 50.4297 37.5 50.4297C44.9052 50.4297 50.9297 44.4051 50.9297 37C50.9297 34.21 50.0898 31.555 48.4967 29.29ZM47.1859 28.6879C46.8072 29.0667 46.1909 29.0667 45.8121 28.6879C45.4334 28.3091 45.4334 27.6929 45.8121 27.3141C46.0015 27.1247 46.2502 27.03 46.499 27.03C46.7478 27.03 46.9965 27.1247 47.1859 27.3141C47.5647 27.6929 47.5647 28.3091 47.1859 28.6879Z" fill="#FFD828"/>
<path d="M33.0541 48.1748L33.0233 48.1624C32.6633 48.0166 32.2533 48.19 32.1075 48.5498C31.9616 48.9097 32.1349 49.3197 32.4948 49.4656L32.5392 49.4833C32.6237 49.5166 32.7107 49.5323 32.7964 49.5323C33.0768 49.5323 33.342 49.3633 33.4509 49.0864C33.5931 48.7251 33.4154 48.3169 33.0541 48.1748Z" fill="#FFD828"/>
<path d="M42.5292 24.5441L42.5144 24.5381C42.1544 24.3924 41.7446 24.5661 41.5989 24.9261C41.4532 25.286 41.6268 25.6959 41.9868 25.8416C41.9875 25.8419 41.9935 25.8443 41.9941 25.8446L41.998 25.8461C42.0849 25.8817 42.1749 25.8985 42.2633 25.8985C42.5406 25.8985 42.8034 25.7334 42.9146 25.4608C43.0612 25.1012 42.8887 24.6908 42.5292 24.5441Z" fill="#FFD828"/>
<path d="M45.4227 32.1851L37.8389 27.9833C37.627 27.8658 37.3694 27.8658 37.1574 27.9833L29.5737 32.1851C29.35 32.309 29.2113 32.5444 29.2113 32.8001V41.2038C29.2113 41.4594 29.35 41.6949 29.5737 41.8188L37.1574 46.0206C37.2634 46.0793 37.3808 46.1087 37.4982 46.1087C37.6155 46.1087 37.7329 46.0793 37.8389 46.0206L45.4227 41.8188C45.6463 41.6949 45.7851 41.4594 45.7851 41.2038V32.8001C45.7851 32.5444 45.6463 32.309 45.4227 32.1851ZM36.795 44.2122L30.6175 40.7895V33.9935L36.795 37.4162V44.2122ZM37.4981 36.1981L31.3652 32.8001L37.4982 29.4021L43.6311 32.8001L37.4981 36.1981ZM44.3788 40.7896L38.2013 44.2122V37.4162L44.3788 33.9935V40.7896Z" fill="#FFD828"/>
<path d="M50.2279 24.2721C46.8281 20.8723 42.308 19 37.5 19C32.692 19 28.1719 20.8723 24.7721 24.2721C21.3723 27.6719 19.5 32.192 19.5 37C19.5 41.808 21.3723 46.3281 24.7721 49.728C28.1719 53.1276 32.692 55 37.5 55C42.308 55 46.8281 53.1276 50.2279 49.728C53.6277 46.3281 55.5 41.808 55.5 37C55.5 32.192 53.6277 27.6719 50.2279 24.2721ZM37.5 53.5938C28.3502 53.5938 20.9062 46.1498 20.9062 37C20.9062 27.8502 28.3502 20.4062 37.5 20.4062C46.6498 20.4062 54.0938 27.8502 54.0938 37C54.0938 46.1498 46.6498 53.5938 37.5 53.5938Z" fill="#FFD828"/>
</g>
<defs>
<clipPath id="clip0_2101_2229">
<rect width="36" height="36" fill="white" transform="translate(19.5 19)"/>
</clipPath>
</defs>
</svg>
