<svg width="680" height="192" viewBox="0 0 680 192" fill="none" xmlns="http://www.w3.org/2000/svg">
<g opacity="0.5" clip-path="url(#clip0_2035_2739)">
<path d="M53.6592 192V72.0438C62.8778 67.9995 72.0895 63.9483 81.2945 59.8901C117.74 75.9137 154.184 91.9432 190.625 107.979V192H189.823V108.334L81.2945 60.5947L54.465 72.396V192H53.6592Z" fill="black"/>
<path d="M81.6957 60.2423V192H80.8933V60.2423H81.6957Z" fill="black"/>
<path d="M108.121 72.2198V48.0887C126.431 40.076 144.72 32.0315 162.987 23.955C199.408 40.0147 235.851 56.0443 272.318 72.0437V96.1748H271.515V72.3959L162.99 24.6595L108.93 48.4384V72.2198H108.121Z" fill="black"/>
<path d="M217.054 192V96.0013C226.272 91.9604 235.483 87.9092 244.686 83.8477L299.351 107.891L298.953 108.409L244.689 84.5419L217.856 96.3587V192H217.054Z" fill="black"/>
<path d="M163.395 24.3073V96.1748H162.589V24.3073H163.395Z" fill="black"/>
<path d="M271.519 192V143.911C280.737 139.87 289.948 135.819 299.15 131.758C308.358 135.814 317.57 139.865 326.786 143.911V192H325.983V144.264L299.15 132.462L272.321 144.264V192H271.519Z" fill="black"/>
<path d="M298.749 132.105V84.0213C326.138 72.0179 353.504 59.9843 380.849 47.9204L462.742 83.9254L462.344 84.4564L380.846 48.6094L299.541 84.3736V132.105H298.749Z" fill="black"/>
<path d="M543.839 192V96.3587L489.779 72.5799L354.02 132.286V192H353.214V131.934C398.774 111.966 444.296 91.944 489.779 71.8676C508.055 79.9234 526.344 87.9679 544.645 96.0013V192H543.839Z" fill="black"/>
<path d="M245.09 84.2V192H244.284V84.2H245.09Z" fill="black"/>
<path d="M299.555 132.11V192H298.749V132.11H299.555Z" fill="black"/>
<path d="M381.251 48.2649V120.132H380.448V48.2649H381.251Z" fill="black"/>
<path d="M490.18 72.2198V192H489.375V72.2198H490.18Z" fill="black"/>
<path d="M543.84 96.1748V48.0887C562.141 40.064 580.429 32.0194 598.706 23.955C607.913 28.0148 617.125 32.0669 626.341 36.1112V192H625.535V36.4609L598.706 24.6595L544.645 48.4384V96.1748H543.84Z" fill="black"/>
<path d="M599.11 24.3073V192H598.304V24.3073H599.11Z" fill="black"/>
<path d="M462.144 84.1973V36.1112C489.528 24.1061 516.893 12.069 544.241 0C553.45 4.05121 562.662 8.10242 571.876 12.1536V36.2874H571.074V12.5059L544.241 0.704559L462.946 36.4506V84.1973H462.144Z" fill="black"/>
<path d="M544.642 0.352295V48.2649H543.84V0.352295H544.642Z" fill="black"/>
<path d="M407.679 60.2424V36.1113C425.983 28.0969 444.271 20.0523 462.545 11.9775L489.977 24.0431L489.579 24.5741L462.545 12.6925L408.485 36.4713V60.2528L407.679 60.2424Z" fill="black"/>
<path d="M462.946 12.3298V36.2874H462.144V12.3298H462.946Z" fill="black"/>
<path d="M0 47.7364C8.94884 43.813 17.892 39.8792 26.8295 35.9351C36.0413 39.9863 45.2531 44.0375 54.4649 48.0887V72.2198H53.6591V48.4384L26.8295 36.637L0 48.4384V47.7364Z" fill="black"/>
<path d="M27.2307 36.2874V192H26.4283V36.2874H27.2307Z" fill="black"/>
<path d="M680.003 12.5059L653.17 0.704559L626.341 12.5059V36.2874H625.535V12.1536C634.754 8.11279 643.965 4.06157 653.17 0C662.108 3.94069 671.051 7.87448 680 11.8014V12.5059H680.003Z" fill="black"/>
<path d="M653.575 0.352295V192H652.769V0.352295H653.575Z" fill="black"/>
<path d="M671.728 8.33813V192H670.925V8.33813H671.728Z" fill="black"/>
<path d="M662.65 4.34387V192H661.847V4.34387H662.65Z" fill="black"/>
<path d="M562.798 8.33813V40.279H561.996V8.33813H562.798Z" fill="black"/>
<path d="M553.723 4.34387V44.2706H552.917V4.34387H553.723Z" fill="black"/>
<path d="M617.263 32.2931V192H616.46V32.2931H617.263Z" fill="black"/>
<path d="M608.185 28.3015V192H607.382V28.3015H608.185Z" fill="black"/>
<path d="M517.411 84.2V192H516.609V84.2H517.411Z" fill="black"/>
<path d="M508.333 80.2057V192H507.531V80.2057H508.333Z" fill="black"/>
<path d="M499.258 76.2115V192H498.453V76.2115H499.258Z" fill="black"/>
<path d="M535.567 92.1832V192H534.761V92.1832H535.567Z" fill="black"/>
<path d="M526.489 88.189V192H525.687V88.189H526.489Z" fill="black"/>
<path d="M481.102 20.3157V28.3015H480.297V20.3157H481.102Z" fill="black"/>
<path d="M472.024 16.324V32.2931H471.219V16.324H472.024Z" fill="black"/>
<path d="M408.485 60.2423V108.152H407.679V60.2423H408.485Z" fill="black"/>
<path d="M399.407 56.2482V112.147H398.601V56.2482H399.407Z" fill="black"/>
<path d="M390.329 52.2565V116.141H389.523V52.2565H390.329Z" fill="black"/>
<path d="M426.638 68.2283V100.169H425.835V68.2283H426.638Z" fill="black"/>
<path d="M417.559 64.234V104.163H416.757V64.234H417.559Z" fill="black"/>
<path d="M435.715 72.2198V96.1748H434.91V72.2198H435.715Z" fill="black"/>
<path d="M453.868 80.2057V88.1915H453.066V80.2057H453.868Z" fill="black"/>
<path d="M444.794 76.2115V92.1833H443.988V76.2115H444.794Z" fill="black"/>
<path d="M317.708 140.096V192H316.905V140.096H317.708Z" fill="black"/>
<path d="M308.633 136.102V192H307.827V136.102H308.633Z" fill="black"/>
<path d="M281.399 140.096V192H280.597V140.096H281.399Z" fill="black"/>
<path d="M290.477 136.102V192H289.671V136.102H290.477Z" fill="black"/>
<path d="M226.938 92.1832V192H226.132V92.1832H226.938Z" fill="black"/>
<path d="M236.012 88.189V192H235.21V88.189H236.012Z" fill="black"/>
<path d="M136.161 36.2874V84.1999H135.358V36.2874H136.161Z" fill="black"/>
<path d="M145.238 32.2931V88.1915H144.436V32.2931H145.238Z" fill="black"/>
<path d="M154.317 28.3015V92.1832H153.511V28.3015H154.317Z" fill="black"/>
<path d="M118.008 44.2706V76.2141H117.202V44.2706H118.008Z" fill="black"/>
<path d="M127.082 40.2791V80.2058H126.28V40.2791H127.082Z" fill="black"/>
<path d="M63.5429 68.2283V192H62.7371V68.2283H63.5429Z" fill="black"/>
<path d="M72.621 64.234V192H71.8152V64.234H72.621Z" fill="black"/>
<path d="M9.07804 44.2706V192H8.27563V44.2706H9.07804Z" fill="black"/>
<path d="M18.1561 40.2791V192H17.3503V40.2791H18.1561Z" fill="black"/>
</g>
<defs>
<clipPath id="clip0_2035_2739">
<rect width="680" height="192" fill="white"/>
</clipPath>
</defs>
</svg>
