<svg width="36" height="36" viewBox="0 0 36 36" fill="none" xmlns="http://www.w3.org/2000/svg">
<rect x="0.499756" y="0.5" width="35" height="35" rx="17.5" stroke="black"/>
<g clip-path="url(#clip0_2056_32)">
<path d="M28.9688 18.0001C28.9688 17.8486 28.8955 17.7064 28.7723 17.6184L26.4746 15.9795L28.7723 14.3405C28.8956 14.2525 28.9688 14.1104 28.9688 13.9589C28.9688 13.8074 28.8955 13.6652 28.7723 13.5773L18.2723 6.08715C18.1094 5.97095 17.8906 5.97095 17.7278 6.08715L14.1848 8.61451C13.974 8.76484 13.9251 9.05757 14.0754 9.26832C14.2257 9.47898 14.5184 9.52806 14.7292 9.37768L18 7.04457L27.6928 13.9589L18 20.8732L8.30714 13.9589L11.8443 11.4357C12.055 11.2854 12.104 10.9927 11.9536 10.7819C11.8033 10.5712 11.5106 10.5222 11.2998 10.6726L7.22775 13.5774C7.10442 13.6653 7.03125 13.8075 7.03125 13.959C7.03125 14.1105 7.10447 14.2526 7.22775 14.3406L9.52538 15.9796L7.22775 17.6185C7.10442 17.7064 7.03125 17.8486 7.03125 18.0001C7.03125 18.1516 7.10447 18.2937 7.22775 18.3817L9.52538 20.0207L7.22775 21.6596C7.10442 21.7475 7.03125 21.8897 7.03125 22.0412C7.03125 22.1926 7.10447 22.3348 7.22775 22.4228L17.7278 29.9129C17.8092 29.9709 17.9046 30 18 30C18.0954 30 18.1908 29.9709 18.2723 29.9129L28.7723 22.4228C28.8956 22.3348 28.9688 22.1927 28.9688 22.0412C28.9688 21.8897 28.8955 21.7475 28.7723 21.6595L26.4746 20.0206L28.7723 18.3816C28.8955 18.2937 28.9688 18.1515 28.9688 18.0001ZM23.3928 21.0674C23.1821 21.2177 23.1331 21.5105 23.2835 21.7212C23.3749 21.8494 23.5191 21.9178 23.6655 21.9178C23.7596 21.9178 23.8547 21.8895 23.9373 21.8306L25.6674 20.5964L27.6928 22.0412L18 28.9555L8.30714 22.0412L10.3325 20.5964L17.7278 25.8717C17.8092 25.9298 17.9046 25.9589 18 25.9589C18.0954 25.9589 18.1908 25.9298 18.2723 25.8717L21.0904 23.8614C21.3012 23.7111 21.3502 23.4183 21.1998 23.2076C21.0495 22.9969 20.7568 22.9478 20.546 23.0982L18 24.9144L8.30714 18.0001L10.3325 16.5553L17.7278 21.8306C17.8092 21.8887 17.9046 21.9178 18 21.9178C18.0954 21.9178 18.1908 21.8887 18.2723 21.8306L25.6675 16.5553L27.6928 18.0001L23.3928 21.0674Z" fill="black"/>
<path d="M22.6354 22.0885C22.5477 22.0013 22.4273 21.9512 22.304 21.9512C22.1802 21.9512 22.0597 22.0013 21.9721 22.0885C21.8849 22.1757 21.8352 22.2966 21.8352 22.4199C21.8352 22.5437 21.8849 22.6641 21.9721 22.7513C22.0597 22.8389 22.1802 22.8887 22.304 22.8887C22.4273 22.8887 22.5477 22.8389 22.6354 22.7513C22.7225 22.6641 22.7722 22.5436 22.7722 22.4199C22.7722 22.2966 22.7225 22.1757 22.6354 22.0885Z" fill="black"/>
<path d="M13.3425 9.69618C13.2553 9.60904 13.1344 9.55884 13.0106 9.55884C12.8873 9.55884 12.7669 9.60899 12.6793 9.69618C12.5921 9.78337 12.5419 9.90431 12.5419 10.0276C12.5419 10.1513 12.592 10.2723 12.6793 10.359C12.7669 10.4466 12.8878 10.4968 13.0106 10.4968C13.1344 10.4968 13.2548 10.4466 13.3425 10.359C13.4297 10.2722 13.4794 10.1513 13.4794 10.0276C13.4794 9.90431 13.4297 9.78337 13.3425 9.69618Z" fill="black"/>
</g>
<defs>
<clipPath id="clip0_2056_32">
<rect width="24" height="24" fill="white" transform="translate(6 6)"/>
</clipPath>
</defs>
</svg>
