<svg width="36" height="36" viewBox="0 0 36 36" fill="none" xmlns="http://www.w3.org/2000/svg">
<rect x="0.5" y="0.5" width="35" height="35" rx="17.5" stroke="black"/>
<g clip-path="url(#clip0_2089_1542)">
<path d="M26.883 18.4688C27.0836 19.1195 27.6905 19.5938 28.4062 19.5938C29.2851 19.5938 30 18.8788 30 18C30 17.1212 29.2851 16.4062 28.4062 16.4062C27.6905 16.4062 27.0836 16.8805 26.883 17.5312H24.8438V15.6549H27C27.2588 15.6549 27.4688 15.445 27.4688 15.1861V14.7191H29.5312C29.7901 14.7191 30 14.5092 30 14.2503C30 13.9915 29.7901 13.7816 29.5312 13.7816H27.4688V13.3145C27.4688 13.0557 27.2588 12.8458 27 12.8458H24.8438V11.625C24.8438 11.3662 24.6338 11.1562 24.375 11.1562H23.1542V9C23.1542 8.74116 22.9443 8.53125 22.6855 8.53125H22.2184V6.46875C22.2184 6.20991 22.0085 6 21.7497 6C21.4908 6 21.2809 6.20991 21.2809 6.46875V8.53125H20.8139C20.555 8.53125 20.3451 8.74116 20.3451 9V11.1562H18.4688V9.11705C19.1195 8.91642 19.5938 8.30948 19.5938 7.59375C19.5938 6.71494 18.8788 6 18 6C17.1212 6 16.4062 6.71494 16.4062 7.59375C16.4062 8.30948 16.8805 8.91642 17.5312 9.11705V11.1562H15.6549V9C15.6549 8.74116 15.445 8.53125 15.1861 8.53125H14.7191V6.46875C14.7191 6.20991 14.5092 6 14.2503 6C13.9915 6 13.7816 6.20991 13.7816 6.46875V8.53125H13.3145C13.0557 8.53125 12.8458 8.74116 12.8458 9V11.1562H11.625C11.3662 11.1562 11.1562 11.3662 11.1562 11.625V12.8458H9C8.74116 12.8458 8.53125 13.0557 8.53125 13.3145V13.7816H6.46875C6.20991 13.7816 6 13.9915 6 14.2503C6 14.5092 6.20991 14.7191 6.46875 14.7191H8.53125V15.1861C8.53125 15.445 8.74116 15.6549 9 15.6549H11.1562V17.5312H9.11705C8.91642 16.8805 8.30948 16.4062 7.59375 16.4062C6.71494 16.4062 6 17.1212 6 18C6 18.8788 6.71494 19.5938 7.59375 19.5938C8.30948 19.5938 8.91642 19.1195 9.11705 18.4688H11.1562V20.3451H9C8.74116 20.3451 8.53125 20.555 8.53125 20.8139V21.2809H6.46875C6.20991 21.2809 6 21.4908 6 21.7497C6 22.0085 6.20991 22.2184 6.46875 22.2184H8.53125V22.6855C8.53125 22.9443 8.74116 23.1542 9 23.1542H11.1562V24.375C11.1562 24.6338 11.3662 24.8438 11.625 24.8438H12.8458V27C12.8458 27.2588 13.0557 27.4688 13.3145 27.4688H13.7816V29.5312C13.7816 29.7901 13.9915 30 14.2503 30C14.5092 30 14.7191 29.7901 14.7191 29.5312V27.4688H15.1861C15.445 27.4688 15.6549 27.2588 15.6549 27V24.8438H17.5312V26.883C16.8805 27.0836 16.4062 27.6905 16.4062 28.4062C16.4062 29.2851 17.1212 30 18 30C18.8788 30 19.5938 29.2851 19.5938 28.4062C19.5938 27.6905 19.1195 27.0836 18.4688 26.883V24.8438H20.3451V27C20.3451 27.2588 20.555 27.4688 20.8139 27.4688H21.2809V29.5312C21.2809 29.7901 21.4908 30 21.7497 30C22.0085 30 22.2184 29.7901 22.2184 29.5312V27.4688H22.6855C22.9443 27.4688 23.1542 27.2588 23.1542 27V24.8438H24.375C24.6338 24.8438 24.8438 24.6338 24.8438 24.375V23.1542H27C27.2588 23.1542 27.4688 22.9443 27.4688 22.6855V22.2184H29.5312C29.7901 22.2184 30 22.0085 30 21.7497C30 21.4908 29.7901 21.2809 29.5312 21.2809H27.4688V20.8139C27.4688 20.555 27.2588 20.3451 27 20.3451H24.8438V18.4688H26.883ZM28.4062 17.3438C28.7681 17.3438 29.0625 17.6381 29.0625 18C29.0625 18.3619 28.7681 18.6562 28.4062 18.6562C28.0444 18.6562 27.75 18.3619 27.75 18C27.75 17.6381 28.0444 17.3438 28.4062 17.3438ZM24.8438 13.7833H26.5312V14.7174H24.8438V13.7833ZM7.59375 18.6562C7.23188 18.6562 6.9375 18.3619 6.9375 18C6.9375 17.6381 7.23188 17.3438 7.59375 17.3438C7.95562 17.3438 8.25 17.6381 8.25 18C8.25 18.3619 7.95562 18.6562 7.59375 18.6562ZM11.1562 22.2167H9.46875V21.2826H11.1562V22.2167ZM11.1562 14.7174H9.46875V13.7833H11.1562V14.7174ZM21.2826 9.46875H22.2167V11.1562H21.2826V9.46875ZM17.3438 7.59375C17.3438 7.23188 17.6381 6.9375 18 6.9375C18.3619 6.9375 18.6562 7.23188 18.6562 7.59375C18.6562 7.95562 18.3619 8.25 18 8.25C17.6381 8.25 17.3438 7.95562 17.3438 7.59375ZM13.7833 9.46875H14.7174V11.1562H13.7833V9.46875ZM14.7174 26.5312H13.7833V24.8438H14.7174V26.5312ZM18.6562 28.4062C18.6562 28.7681 18.3619 29.0625 18 29.0625C17.6381 29.0625 17.3438 28.7681 17.3438 28.4062C17.3438 28.0444 17.6381 27.75 18 27.75C18.3619 27.75 18.6562 28.0444 18.6562 28.4062ZM22.2167 26.5312H21.2826V24.8438H22.2167V26.5312ZM23.9062 17.9873C23.9062 17.9916 23.9062 23.9062 23.9062 23.9062H12.0938V22.9531H14.8112C15.0701 22.9531 15.28 22.7432 15.28 22.4844C15.28 22.2255 15.0701 22.0156 14.8112 22.0156H12.0947L12.0938 12.0938H23.9062V17.9873ZM26.5312 21.2826V22.2167H24.8438V21.2826H26.5312Z" fill="black"/>
<path d="M22.4616 17.5058C22.653 17.2581 22.7626 16.9495 22.7626 16.6222C22.7626 15.8254 22.1145 15.1772 21.3177 15.1772C21.2988 15.1772 21.2801 15.1779 21.2614 15.1787C20.9561 14.6573 20.3966 14.3275 19.7693 14.3275C19.5771 14.3275 19.3923 14.3595 19.2194 14.4176C18.9019 14.1428 18.497 13.9894 18.067 13.9894H16.2371C15.4838 13.9894 14.8395 14.4638 14.5865 15.1295C13.7024 15.296 13.0312 16.0735 13.0312 17.0053C13.0312 17.4057 13.1554 17.7775 13.3668 18.0848C13.364 18.1058 13.362 18.127 13.362 18.1487C13.362 19.1519 14.1781 19.9681 15.1814 19.9681H17.5344L18.0589 21.6793C18.1192 21.8762 18.301 22.0107 18.507 22.0107H19.5333C19.7376 22.0107 19.9185 21.8783 19.9801 21.6835L20.3746 20.4383C20.6063 20.5443 20.8636 20.6039 21.1346 20.6039C22.1459 20.6039 22.9687 19.7811 22.9687 18.7698C22.9687 18.2801 22.7754 17.835 22.4616 17.5058ZM21.1347 19.6664C20.6403 19.6664 20.2381 19.2642 20.2381 18.7698C20.2381 18.511 20.0282 18.3011 19.7693 18.3011C19.5105 18.3011 19.3006 18.511 19.3006 18.7698C19.3006 19.1406 19.4115 19.4858 19.6015 19.7746L19.1901 21.0733H18.8537L18.3292 19.3621C18.2689 19.1651 18.0871 19.0307 17.8811 19.0307H15.1814C15.0144 19.0307 14.8587 18.9832 14.7254 18.9022C14.796 18.9102 14.8678 18.9147 14.9405 18.9147C15.1994 18.9147 15.4093 18.7048 15.4093 18.4459C15.4093 18.1871 15.1994 17.9772 14.9405 17.9772C14.4046 17.9772 13.9687 17.5412 13.9687 17.0054C13.9687 16.623 14.1913 16.2924 14.5132 16.134C14.5783 16.4305 14.7188 16.707 14.9252 16.936C15.0178 17.0387 15.1455 17.0911 15.2737 17.0911C15.3855 17.0911 15.4977 17.0513 15.5872 16.9706C15.7796 16.7973 15.795 16.5008 15.6218 16.3086C15.4847 16.1565 15.4093 15.9598 15.4093 15.7548C15.4093 15.2984 15.7806 14.927 16.2371 14.927H18.0669C18.1849 14.927 18.2987 14.9518 18.4028 14.9979C18.1747 15.2912 18.0383 15.6592 18.0383 16.0586C18.0383 16.3174 18.2482 16.5273 18.5071 16.5273C18.7659 16.5273 18.9758 16.3174 18.9758 16.0586C18.9758 15.6211 19.3318 15.2651 19.7693 15.2651C20.0053 15.2651 20.2201 15.3671 20.367 15.5356C20.0645 15.8006 19.8728 16.1894 19.8728 16.6223C19.8728 16.8811 20.0827 17.0911 20.3415 17.0911C20.6004 17.0911 20.8103 16.8811 20.8103 16.6223C20.8103 16.3425 21.0379 16.1149 21.3177 16.1149C21.5975 16.1149 21.8251 16.3425 21.8251 16.6223C21.8251 16.7741 21.7579 16.9142 21.6463 17.009C21.4838 16.9617 21.3122 16.9358 21.1346 16.9358C20.8758 16.9358 20.6659 17.1458 20.6659 17.4046C20.6659 17.6634 20.8758 17.8733 21.1346 17.8733C21.629 17.8733 22.0312 18.2755 22.0312 18.7699C22.0312 19.2643 21.6291 19.6664 21.1347 19.6664Z" fill="black"/>
<path d="M17.0021 22.1531C16.9149 22.0654 16.7939 22.0157 16.6707 22.0157C16.5474 22.0157 16.4264 22.0654 16.3392 22.1531C16.2521 22.2403 16.2019 22.3608 16.2019 22.4845C16.2019 22.6078 16.2521 22.7287 16.3392 22.8159C16.4264 22.903 16.5474 22.9532 16.6707 22.9532C16.7939 22.9532 16.9149 22.9031 17.0021 22.8159C17.0892 22.7287 17.1394 22.6078 17.1394 22.4845C17.1394 22.3607 17.0892 22.2403 17.0021 22.1531Z" fill="black"/>
</g>
<defs>
<clipPath id="clip0_2089_1542">
<rect width="24" height="24" fill="white" transform="translate(6 6)"/>
</clipPath>
</defs>
</svg>
