<svg width="48" height="48" viewBox="0 0 48 48" fill="none" xmlns="http://www.w3.org/2000/svg">
<rect x="0.5" y="0.5" width="47" height="47" rx="23.5" stroke="#FFD012"/>
<g clip-path="url(#clip0_2089_1630)">
<path d="M23.2572 18.4635C23.1701 18.3763 23.0492 18.3262 22.926 18.3262C22.8023 18.3262 22.6818 18.3763 22.5947 18.4635C22.5071 18.5506 22.4574 18.6715 22.4574 18.7947C22.4574 18.918 22.5071 19.0389 22.5947 19.126C22.6818 19.2131 22.8023 19.2633 22.926 19.2633C23.0492 19.2633 23.1701 19.2131 23.2572 19.126C23.3444 19.0389 23.3945 18.918 23.3945 18.7947C23.3945 18.6715 23.3444 18.5506 23.2572 18.4635Z" fill="#FFD012"/>
<path d="M25.3948 28.9854C25.3077 28.8983 25.1868 28.8481 25.0635 28.8481C24.9403 28.8481 24.8194 28.8983 24.7323 28.9854C24.6451 29.0726 24.595 29.1935 24.595 29.3167C24.595 29.4399 24.6451 29.5608 24.7323 29.6479C24.8194 29.7351 24.9403 29.7853 25.0635 29.7853C25.1868 29.7853 25.3077 29.7351 25.3948 29.6479C25.4824 29.5608 25.5321 29.4399 25.5321 29.3167C25.532 29.1935 25.4824 29.0726 25.3948 28.9854Z" fill="#FFD012"/>
<path d="M25.9195 22.0405C25.6607 22.0405 25.4509 22.2503 25.4509 22.5091V25.4888C25.4509 25.7476 25.6607 25.9574 25.9195 25.9574C26.1783 25.9574 26.3881 25.7476 26.3881 25.4888V22.5091C26.388 22.2503 26.1782 22.0405 25.9195 22.0405Z" fill="#FFD012"/>
<path d="M24.7683 25.3227L23.6381 22.3429C23.5691 22.1609 23.3947 22.0405 23.2001 22.0405C23.0054 22.0405 22.831 22.1609 22.762 22.3429L21.6319 25.3227C21.5402 25.5646 21.6619 25.8351 21.9038 25.9269C22.1458 26.0188 22.4163 25.8969 22.508 25.6549L22.6324 25.3269H23.7677L23.8921 25.6549C23.9631 25.8422 24.1412 25.9574 24.3303 25.9574C24.3854 25.9574 24.4416 25.9476 24.4963 25.9268C24.7383 25.8351 24.86 25.5647 24.7683 25.3227ZM22.9879 24.3899L23.2002 23.8304L23.4124 24.3899H22.9879Z" fill="#FFD012"/>
<path d="M34.4069 32.8099C34.138 32.8099 33.8847 32.8771 33.6623 32.9952L32.4128 31.7457V31.0473C32.9414 30.4953 33.2671 29.7477 33.2671 28.9249C33.2671 28.5 33.1775 28.0805 33.0091 27.6945C33.9931 27.4493 34.7244 26.5584 34.7244 25.4995V21.3274C34.7244 20.1364 33.799 19.1581 32.6296 19.0721C32.6803 18.8853 32.7069 18.6912 32.7069 18.4938C32.7069 18.094 32.5994 17.719 32.4128 17.3953V16.2545L33.6623 15.005C33.8847 15.1231 34.138 15.1903 34.4069 15.1903C35.2853 15.1903 35.9999 14.4757 35.9999 13.5972C35.9999 12.7188 35.2853 12.0042 34.4069 12.0042C33.5284 12.0042 32.8138 12.7188 32.8138 13.5972C32.8138 13.8664 32.8811 14.12 32.9995 14.3426L31.6129 15.7292C31.5251 15.817 31.4757 15.9362 31.4757 16.0605V16.5154C31.1815 16.3698 30.8506 16.2875 30.5006 16.2875C30.311 16.2875 30.1239 16.3116 29.9434 16.3586C29.6615 15.1629 28.5863 14.2698 27.3056 14.2698C25.811 14.2698 24.595 15.4858 24.595 16.9804V19.9694H21.5817C21.4574 19.9694 21.3382 20.0188 21.2504 20.1067L20.1025 21.2546C20.0146 21.3425 19.9652 21.4616 19.9652 21.5859V26.4119C19.9652 26.5362 20.0146 26.6553 20.1025 26.7432L21.2504 27.8911C21.3382 27.979 21.4574 28.0284 21.5817 28.0284H22.4573V31.0034C22.4573 31.989 21.6554 32.7908 20.6699 32.7908C19.9654 32.7908 19.3259 32.3758 19.0384 31.733C19.4482 31.5514 19.8169 31.2807 20.1156 30.9361C20.2002 30.9534 20.2878 30.9626 20.3775 30.9626C21.0959 30.9626 21.6803 30.3781 21.6803 29.6598C21.6803 28.9414 21.0959 28.357 20.3775 28.357C19.6592 28.357 19.0747 28.9414 19.0747 29.6598C19.0747 29.9424 19.1655 30.2042 19.3191 30.4179C18.9208 30.8245 18.3732 31.0594 17.7942 31.0594C16.6171 31.0594 15.6595 30.1018 15.6595 28.9247C15.6595 28.4798 15.793 28.0593 16.046 27.7C16.3281 27.6331 16.5959 27.5129 16.8331 27.3456C17.083 27.5174 17.3853 27.6182 17.7108 27.6182C18.5671 27.6182 19.2638 26.9215 19.2638 26.0651C19.2638 25.2088 18.5671 24.5121 17.7108 24.5121C16.8545 24.5121 16.1577 25.2087 16.1577 26.0651C16.1577 26.2556 16.1924 26.4381 16.2554 26.6068C16.0414 26.7484 15.7911 26.8245 15.5273 26.8245C14.7967 26.8245 14.2022 26.2301 14.2022 25.4994V21.3273C14.2022 20.5966 14.7967 20.0022 15.5273 20.0022C16.1341 20.0022 16.6466 20.4124 16.803 20.9699C16.3416 21.1706 16.0181 21.6307 16.0181 22.165C16.0181 22.8834 16.6025 23.4678 17.3209 23.4678C18.0392 23.4678 18.6237 22.8834 18.6237 22.165C18.6237 21.5988 18.2605 21.1162 17.755 20.9369C17.6271 20.2052 17.147 19.5932 16.4958 19.2834C16.3174 19.0594 16.2198 18.7823 16.2198 18.4936C16.2198 17.7938 16.7892 17.2245 17.489 17.2245C17.6603 17.2245 17.8277 17.2594 17.9829 17.325C18.019 17.698 18.1577 18.0497 18.3843 18.3469C18.3342 18.4947 18.3066 18.6528 18.3066 18.8174C18.3066 19.6277 18.9659 20.2869 19.7763 20.2869C20.5866 20.2869 21.2459 19.6277 21.2459 18.8174C21.2459 18.007 20.5866 17.3477 19.7763 17.3477C19.4935 17.3477 19.2292 17.4282 19.0048 17.5673C18.9437 17.4305 18.9104 17.2818 18.9104 17.1279V17.0688C18.9115 17.0512 18.9114 17.0336 18.9104 17.0161V16.9803C18.9104 16.0024 19.706 15.2068 20.6839 15.2068C21.6618 15.2068 22.4574 16.0023 22.4574 16.9803C22.4574 17.239 22.6672 17.4489 22.926 17.4489C23.1848 17.4489 23.3945 17.239 23.3945 16.9803C23.3945 15.4857 22.1786 14.2697 20.684 14.2697C19.4033 14.2697 18.3281 15.1627 18.0462 16.3585C17.8656 16.3115 17.6786 16.2874 17.489 16.2874C17.1432 16.2874 16.8159 16.3675 16.5244 16.5099V16.0603C16.5244 15.936 16.475 15.8169 16.3871 15.729L15.0004 14.3425C15.1188 14.12 15.1861 13.8663 15.1861 13.5972C15.1861 12.7188 14.4715 12.0042 13.593 12.0042C12.7146 12.0042 12 12.7188 12 13.5972C12 14.4756 12.7146 15.1902 13.593 15.1902C13.8619 15.1902 14.1152 15.1231 14.3376 15.0049L15.5871 16.2545V17.3772C15.394 17.705 15.2826 18.0865 15.2826 18.4938C15.2826 18.6911 15.3093 18.8853 15.3599 19.0721C14.1905 19.1582 13.265 20.1364 13.265 21.3275V25.4996C13.265 26.5584 13.9964 27.4493 14.9804 27.6946C14.812 28.0804 14.7223 28.5 14.7223 28.925C14.7223 29.7531 15.0524 30.5053 15.5871 31.0583V31.7457L14.3376 32.9953C14.1152 32.8772 13.8618 32.81 13.593 32.81C12.7146 32.8099 12 33.5245 12 34.403C12 35.2814 12.7146 35.996 13.593 35.996C14.4715 35.996 15.1861 35.2814 15.1861 34.403C15.1861 34.1338 15.1188 33.8802 15.0004 33.6576L16.387 32.271C16.4749 32.1831 16.5243 32.064 16.5243 31.9397V31.7207C16.9116 31.8973 17.3413 31.9966 17.7942 31.9966C17.9044 31.9966 18.0138 31.9903 18.1221 31.9787L18.1784 32.1059C18.6144 33.0912 19.5924 33.7279 20.6699 33.7279C22.1722 33.7279 23.3944 32.5057 23.3944 31.0034V28.0284H26.4078C26.5321 28.0284 26.6513 27.979 26.7391 27.8911L27.887 26.7432C27.9749 26.6553 28.0243 26.5362 28.0243 26.4119V21.5859C28.0243 21.4616 27.9749 21.3425 27.887 21.2546L26.7391 20.1067C26.6513 20.0188 26.5321 19.9694 26.4078 19.9694H25.5322V16.9804C25.5322 16.0025 26.3277 15.2069 27.3057 15.2069C28.2836 15.2069 29.0792 16.0025 29.0792 16.9804V17.0162C29.0783 17.0337 29.0782 17.0513 29.0792 17.0689V17.128C29.0792 17.2819 29.046 17.4307 28.9849 17.5674C28.7605 17.4284 28.4962 17.3479 28.2134 17.3479C27.403 17.3479 26.7438 18.0072 26.7438 18.8175C26.7438 19.6278 27.403 20.2871 28.2134 20.2871C29.0237 20.2871 29.683 19.6278 29.683 18.8175C29.683 18.653 29.6554 18.4949 29.6053 18.347C29.832 18.0498 29.9707 17.6981 30.0068 17.3252C30.1621 17.2595 30.3293 17.2246 30.5007 17.2246C31.2005 17.2246 31.7698 17.794 31.7698 18.4937C31.7698 18.7824 31.6722 19.0595 31.4938 19.2835C30.8427 19.5933 30.3625 20.2053 30.2346 20.9371C29.7291 21.1163 29.366 21.599 29.366 22.1652C29.366 22.8835 29.9504 23.468 30.6688 23.468C31.3871 23.468 31.9716 22.8835 31.9716 22.1652C31.9716 21.6308 31.648 21.1707 31.1867 20.9701C31.3431 20.4125 31.8556 20.0024 32.4624 20.0024C33.193 20.0024 33.7874 20.5968 33.7874 21.3274V25.4995C33.7874 26.2302 33.1929 26.8246 32.4624 26.8246C32.1985 26.8246 31.9482 26.7485 31.7343 26.607C31.7973 26.4382 31.8319 26.2557 31.8319 26.0653C31.8319 25.209 31.1352 24.5122 30.2789 24.5122C29.4226 24.5122 28.7258 25.2089 28.7258 26.0653C28.7258 26.9216 29.4226 27.6183 30.2789 27.6183C30.6044 27.6183 30.9066 27.5175 31.1565 27.3457C31.3937 27.5129 31.6616 27.6332 31.9437 27.7001C32.1967 28.0594 32.3301 28.48 32.3301 28.9249C32.3301 30.1019 31.3725 31.0596 30.1954 31.0596C29.6165 31.0596 29.0689 30.8246 28.6705 30.4181C28.8241 30.2043 28.9149 29.9426 28.9149 29.6599C28.9149 28.9416 28.3305 28.3571 27.6121 28.3571C26.8938 28.3571 26.3093 28.9416 26.3093 29.6599C26.3093 30.3783 26.8938 30.9627 27.6121 30.9627C27.7018 30.9627 27.7894 30.9536 27.874 30.9362C28.1727 31.2808 28.5414 31.5515 28.9512 31.7331C28.6638 32.3759 28.0243 32.7909 27.3198 32.7909C26.3341 32.7909 25.5323 31.9891 25.5323 31.0035C25.5323 30.7448 25.3226 30.535 25.0638 30.535C24.805 30.535 24.5952 30.7448 24.5952 31.0035C24.5952 32.5058 25.8175 33.728 27.3198 33.728C28.3973 33.728 29.3753 33.0913 29.8113 32.106L29.8675 31.9789C29.9758 31.9905 30.0852 31.9967 30.1955 31.9967C30.6523 31.9967 31.0858 31.8958 31.4758 31.7161V31.9398C31.4758 32.0641 31.5252 32.1832 31.613 32.2711L32.9996 33.6577C32.8813 33.8803 32.814 34.1339 32.814 34.403C32.814 35.2815 33.5286 35.9961 34.407 35.9961C35.2854 35.9961 36 35.2815 36 34.403C36 33.5246 35.2853 32.8099 34.4069 32.8099ZM34.4069 12.9412C34.7686 12.9412 35.0629 13.2355 35.0629 13.5972C35.0629 13.9589 34.7686 14.2532 34.4069 14.2532C34.0452 14.2532 33.7509 13.9589 33.7509 13.5972C33.7509 13.2355 34.0452 12.9412 34.4069 12.9412ZM20.3775 29.2942C20.5791 29.2942 20.7432 29.4582 20.7432 29.6599C20.7432 29.8616 20.5792 30.0256 20.3775 30.0256C20.1758 30.0256 20.0118 29.8616 20.0118 29.6599C20.0118 29.4583 20.1759 29.2942 20.3775 29.2942ZM17.7107 25.4494C18.0504 25.4494 18.3267 25.7257 18.3267 26.0653C18.3267 26.405 18.0504 26.6812 17.7107 26.6812C17.3711 26.6812 17.0948 26.405 17.0948 26.0653C17.0948 25.7257 17.3711 25.4494 17.7107 25.4494ZM17.3209 21.7995C17.5225 21.7995 17.6866 21.9635 17.6866 22.1652C17.6866 22.3669 17.5225 22.5309 17.3209 22.5309C17.1192 22.5309 16.9551 22.3669 16.9551 22.1652C16.9551 21.9635 17.1192 21.7995 17.3209 21.7995ZM19.7762 18.285C20.0698 18.285 20.3088 18.5239 20.3088 18.8175C20.3088 19.1111 20.0698 19.35 19.7762 19.35C19.4826 19.35 19.2437 19.1111 19.2437 18.8175C19.2437 18.5239 19.4825 18.285 19.7762 18.285ZM13.593 14.2532C13.2313 14.2532 12.9371 13.9589 12.9371 13.5972C12.9371 13.2355 13.2313 12.9412 13.593 12.9412C13.9548 12.9412 14.249 13.2355 14.249 13.5972C14.249 13.9589 13.9548 14.2532 13.593 14.2532ZM13.593 35.0589C13.2313 35.0589 12.9371 34.7647 12.9371 34.403C12.9371 34.0412 13.2313 33.747 13.593 33.747C13.9548 33.747 14.249 34.0412 14.249 34.403C14.249 34.7646 13.9548 35.0589 13.593 35.0589ZM26.2137 20.9065L27.0872 21.78V26.2178L26.2137 27.0914H21.7758L20.9023 26.2178V21.78L21.7758 20.9065H26.2137ZM28.2133 19.3501C27.9197 19.3501 27.6807 19.1112 27.6807 18.8176C27.6807 18.5239 27.9197 18.2851 28.2133 18.2851C28.5069 18.2851 28.7458 18.524 28.7458 18.8176C28.7458 19.1112 28.507 19.3501 28.2133 19.3501ZM30.6687 22.5308C30.467 22.5308 30.303 22.3668 30.303 22.1651C30.303 21.9634 30.467 21.7994 30.6687 21.7994C30.8704 21.7994 31.0344 21.9634 31.0344 22.1651C31.0344 22.3668 30.8703 22.5308 30.6687 22.5308ZM30.2787 26.6812C29.9391 26.6812 29.6628 26.405 29.6628 26.0653C29.6628 25.7257 29.9391 25.4494 30.2787 25.4494C30.6184 25.4494 30.8947 25.7257 30.8947 26.0653C30.8947 26.405 30.6184 26.6812 30.2787 26.6812ZM27.612 30.0256C27.4104 30.0256 27.2463 29.8615 27.2463 29.6599C27.2463 29.4582 27.4104 29.2941 27.612 29.2941C27.8137 29.2941 27.9777 29.4582 27.9777 29.6599C27.9777 29.8615 27.8137 30.0256 27.612 30.0256ZM34.4069 35.0589C34.0452 35.0589 33.7509 34.7647 33.7509 34.403C33.7509 34.0412 34.0452 33.747 34.4069 33.747C34.7686 33.747 35.0629 34.0412 35.0629 34.403C35.0629 34.7646 34.7686 35.0589 34.4069 35.0589Z" fill="#FFD012"/>
</g>
<defs>
<clipPath id="clip0_2089_1630">
<rect width="24" height="24" fill="white" transform="translate(12 12)"/>
</clipPath>
</defs>
</svg>
