<svg width="48" height="48" viewBox="0 0 48 48" fill="none" xmlns="http://www.w3.org/2000/svg">
<rect x="0.5" y="0.5" width="47" height="47" rx="23.5" stroke="#FFD012"/>
<g clip-path="url(#clip0_2089_1717)">
<path d="M36.1052 19.7051C36.9019 19.0579 37.3834 18.0785 37.3834 17.0163C37.3834 15.1056 35.829 13.5512 33.9184 13.5512C33.6929 13.5512 33.4711 13.574 33.2548 13.6158C32.9572 12.9317 32.481 12.3244 31.8817 11.8744C31.1292 11.3094 30.2329 11.0107 29.2897 11.0107C28.6322 11.0107 28.0089 11.159 27.4505 11.4228C26.6141 10.5143 25.449 10 24.2004 10H18.7301C16.6699 10 14.9343 11.416 14.4451 13.3258C11.9596 13.5342 10.0007 15.6234 10.0007 18.1617C10.0007 19.3304 10.416 20.4039 11.1066 21.2424C11.0335 21.3355 10.9895 21.4525 10.9895 21.58C10.9895 24.108 13.0461 26.1646 15.5741 26.1646H19.7892C20.0913 26.1646 20.3361 25.9197 20.3361 25.6177C20.3361 25.3157 20.0913 25.0708 19.7892 25.0708H15.574C13.8541 25.0708 12.4216 23.8201 12.136 22.1805C12.9119 22.7071 13.8477 23.015 14.854 23.015C15.156 23.015 15.4008 22.7701 15.4008 22.4681C15.4008 22.1661 15.156 21.9212 14.854 21.9212C12.7809 21.9212 11.0944 20.2347 11.0944 18.1617C11.0944 16.2742 12.4926 14.7078 14.3075 14.4423C14.3119 15.429 14.6441 16.3783 15.2488 17.1494C14.8832 17.6763 14.6683 18.3152 14.6683 19.0036C14.6683 19.3057 14.9131 19.5505 15.2151 19.5505C15.5172 19.5505 15.762 19.3057 15.762 19.0036C15.762 17.8083 16.7345 16.8358 17.9298 16.8358C18.2319 16.8358 18.4767 16.591 18.4767 16.289C18.4767 15.9869 18.2319 15.7421 17.9298 15.7421C17.2183 15.7421 16.5599 15.9717 16.0232 16.3599C15.6202 15.7975 15.4008 15.1224 15.4008 14.4228C15.4009 12.5872 16.8943 11.0937 18.73 11.0937H24.2004C25.0744 11.0937 25.8935 11.4297 26.5105 12.0268C25.686 12.7213 25.1245 13.7177 24.9975 14.8442C23.9844 15.0799 23.227 15.9895 23.227 17.0733C23.227 17.3754 23.4718 17.6202 23.7739 17.6202C24.0759 17.6202 24.3208 17.3754 24.3208 17.0733C24.3208 16.4142 24.857 15.8779 25.5162 15.8779C26.1753 15.8779 26.7116 16.4142 26.7116 17.0733C26.7116 17.3754 26.9564 17.6202 27.2585 17.6202C27.5605 17.6202 27.8053 17.3754 27.8053 17.0733C27.8053 16.0121 27.0793 15.1174 26.0979 14.8593C26.3269 13.3031 27.6708 12.1045 29.2896 12.1045C30.575 12.1045 31.7081 12.8475 32.2261 13.9907C31.8358 14.2094 31.4865 14.505 31.1993 14.8682C31.0119 15.1051 31.0521 15.449 31.289 15.6364C31.5259 15.8238 31.8699 15.7835 32.0572 15.5467C32.5104 14.9736 33.1888 14.645 33.9184 14.645C35.2259 14.645 36.2897 15.7088 36.2897 17.0163C36.2897 17.9035 35.799 18.7064 35.0241 19.1144C34.5104 18.9173 33.9535 18.8082 33.3712 18.8082C33.0692 18.8082 32.8243 19.053 32.8243 19.3551C32.8243 19.6571 33.0692 19.9019 33.3712 19.9019C35.3203 19.9019 36.9059 21.4876 36.9059 23.4367C36.9059 25.3857 35.3202 26.9713 33.3712 26.9713C31.556 26.9713 30.0567 25.5958 29.8592 23.8325C30.2842 23.7384 30.6881 23.5272 31.018 23.1973C31.2316 22.9837 31.2316 22.6375 31.018 22.4239C30.8045 22.2103 30.4582 22.2103 30.2446 22.4239C29.7482 22.9203 28.9404 22.9202 28.444 22.4239C28.2304 22.2103 27.8841 22.2103 27.6706 22.4239C27.457 22.6374 27.457 22.9837 27.6706 23.1972C27.9824 23.509 28.3603 23.7151 28.7596 23.8161C28.8626 25.0783 29.4734 26.1983 30.3877 26.9713H29.4416H26.038C25.2159 26.9713 24.5471 26.3025 24.5471 25.4803V23.2227C24.5471 22.258 23.7623 21.4618 22.7977 21.4477C22.3183 21.4411 21.867 21.6221 21.5259 21.9584C21.1847 22.2947 20.9967 22.7437 20.9967 23.2227V23.3479C20.9967 23.6499 21.2416 23.8947 21.5436 23.8947C21.8457 23.8947 22.0905 23.6499 22.0905 23.3479V23.2227C22.0905 23.0389 22.1626 22.8665 22.2936 22.7374C22.4246 22.6083 22.5981 22.5377 22.7818 22.5414C23.1521 22.5468 23.4533 22.8525 23.4533 23.2227V30.5078C23.4533 30.8099 23.6981 31.0547 24.0002 31.0547C24.3022 31.0547 24.5471 30.8099 24.5471 30.5078V27.5897C24.9687 27.8887 25.483 28.0651 26.038 28.0651H27.9146C27.8589 28.2282 27.8283 28.4028 27.8283 28.5846V31.4103C27.0691 31.6444 26.5158 32.3525 26.5158 33.1874C26.5158 34.2127 27.3499 35.0468 28.3752 35.0468C29.4005 35.0468 30.2346 34.2127 30.2346 33.1874C30.2346 32.3525 29.6812 31.6443 28.9221 31.4103V28.5846C28.9221 28.2982 29.1551 28.0651 29.4416 28.0651H33.3712C35.9233 28.0651 37.9996 25.9888 37.9996 23.4367C37.9996 21.9066 37.2529 20.5482 36.1052 19.7051ZM29.1408 33.1875C29.1408 33.6097 28.7974 33.9531 28.3752 33.9531C27.953 33.9531 27.6096 33.6097 27.6096 33.1875C27.6096 32.7653 27.953 32.4219 28.3752 32.4219C28.7974 32.4219 29.1408 32.7653 29.1408 33.1875Z" fill="#FFD012"/>
<path d="M22.1445 25.231C22.0427 25.1293 21.9016 25.0708 21.7578 25.0708C21.614 25.0708 21.4729 25.1293 21.3712 25.231C21.2695 25.3328 21.2109 25.4738 21.2109 25.6177C21.2109 25.7621 21.2695 25.9026 21.3712 26.0043C21.4729 26.106 21.614 26.1646 21.7578 26.1646C21.9016 26.1646 22.0427 26.106 22.1445 26.0043C22.2462 25.9026 22.3047 25.7615 22.3047 25.6177C22.3047 25.4738 22.2462 25.3328 22.1445 25.231Z" fill="#FFD012"/>
<path d="M24.3866 32.1446C24.2849 32.0429 24.1438 31.9844 24 31.9844C23.8562 31.9844 23.7151 32.0429 23.6134 32.1446C23.5116 32.2463 23.4531 32.3874 23.4531 32.5312C23.4531 32.6751 23.5116 32.8162 23.6134 32.9179C23.7151 33.0196 23.8562 33.0781 24 33.0781C24.1438 33.0781 24.2849 33.0196 24.3866 32.9179C24.4884 32.8162 24.5469 32.6751 24.5469 32.5312C24.5469 32.3874 24.4884 32.2463 24.3866 32.1446Z" fill="#FFD012"/>
<path d="M24 34.2812C22.9747 34.2812 22.1406 35.1153 22.1406 36.1406C22.1406 37.1659 22.9747 38 24 38C25.0253 38 25.8594 37.1659 25.8594 36.1406C25.8594 35.1153 25.0253 34.2812 24 34.2812ZM24 36.9062C23.5778 36.9062 23.2344 36.5628 23.2344 36.1406C23.2344 35.7184 23.5778 35.375 24 35.375C24.4222 35.375 24.7656 35.7184 24.7656 36.1406C24.7656 36.5628 24.4222 36.9062 24 36.9062Z" fill="#FFD012"/>
</g>
<defs>
<clipPath id="clip0_2089_1717">
<rect width="28" height="28" fill="white" transform="translate(10 10)"/>
</clipPath>
</defs>
</svg>
