<svg width="48" height="48" viewBox="0 0 48 48" fill="none" xmlns="http://www.w3.org/2000/svg">
<rect x="0.5" y="0.5" width="47" height="47" rx="23.5" stroke="#FFD012"/>
<g clip-path="url(#clip0_2089_1702)">
<path d="M33.1955 24.4008C33.1083 24.3131 32.9874 24.2634 32.8641 24.2634C32.7409 24.2634 32.6199 24.3131 32.5327 24.4008C32.4455 24.488 32.3954 24.6084 32.3954 24.7322C32.3954 24.8555 32.4455 24.9764 32.5327 25.0636C32.6199 25.1508 32.7409 25.2009 32.8641 25.2009C32.9874 25.2009 33.1084 25.1508 33.1955 25.0636C33.2827 24.9764 33.3329 24.8555 33.3329 24.7322C33.3329 24.6084 33.2827 24.488 33.1955 24.4008Z" fill="#FFD012"/>
<path d="M35.1436 19.8171C34.9721 19.3302 34.6205 18.9408 34.1535 18.7205C33.2235 18.282 32.1197 18.6511 31.6406 19.561L29.6862 23.2733V20.9368C30.2317 20.7433 30.6237 20.2223 30.6237 19.6112C30.6237 18.8358 29.9928 18.205 29.2174 18.205C28.442 18.205 27.8112 18.8358 27.8112 19.6112C27.8112 20.2223 28.2031 20.7433 28.7487 20.9368V25.0155C28.7487 25.0228 28.7494 25.0298 28.7497 25.037H28.2597C28.38 24.8024 28.4483 24.537 28.4483 24.2557C28.4483 23.308 27.6772 22.537 26.7295 22.537H26.1237V18.1155L26.4805 17.7587C26.664 17.8466 26.8694 17.896 27.0861 17.896C27.8615 17.896 28.4923 17.2651 28.4923 16.4897C28.4923 15.7143 27.8615 15.0835 27.0861 15.0835C26.3107 15.0835 25.6798 15.7143 25.6798 16.4897C25.6798 16.7067 25.7293 16.9124 25.8174 17.096L25.3235 17.5899C25.2356 17.6778 25.1862 17.7971 25.1862 17.9214V22.537H23.0477C22.4909 22.537 21.9606 22.7067 21.5144 23.0204V17.9215C21.5144 17.7972 21.465 17.6779 21.3771 17.59L20.8832 17.0961C20.9713 16.9124 21.0208 16.7068 21.0208 16.4898C21.0208 15.7144 20.3899 15.0836 19.6145 15.0836C18.8391 15.0836 18.2083 15.7144 18.2083 16.4898C18.2083 17.2652 18.8391 17.8961 19.6145 17.8961C19.8312 17.8961 20.0366 17.8468 20.2201 17.7588L20.5769 18.1156V23.9003L18.7093 25.7679C18.3964 26.0808 18.2277 26.514 18.2464 26.9562C18.2637 27.365 18.4404 27.7523 18.7343 28.034L15.0808 31.6874H14.7022C13.6239 31.6874 12.7466 32.5647 12.7466 33.6431V35.5312C12.7466 35.7901 12.9564 35.9999 13.2153 35.9999C13.4742 35.9999 13.6841 35.7901 13.6841 35.5312V33.6431C13.6841 33.0817 14.1408 32.6249 14.7022 32.6249H21.1035C21.6648 32.6249 22.1216 33.0817 22.1216 33.6431V35.5312C22.1216 35.7901 22.3315 35.9999 22.5903 35.9999C22.8492 35.9999 23.0591 35.7901 23.0591 35.5312V33.6431C23.0591 32.8338 22.565 32.1378 21.8627 31.8409L22.5124 31.1911C22.5663 31.212 22.6236 31.2231 22.6816 31.2231C22.7237 31.2231 22.7662 31.2173 22.8078 31.2057L31.2027 28.8573C31.3318 28.8211 31.4393 28.7315 31.498 28.611L32.4564 26.6413C32.5696 26.4085 32.4728 26.128 32.2399 26.0147C32.0071 25.9014 31.7266 25.9983 31.6133 26.2311L30.7471 28.0112L28.463 28.6501L27.3721 27.5593C26.5302 26.7173 25.2266 26.5529 24.202 27.1596L21.2316 28.9184L19.4127 27.3843C19.2724 27.266 19.1908 27.0998 19.183 26.9164C19.1752 26.733 19.2424 26.5606 19.3722 26.4308L21.8199 23.9831C21.8739 23.9291 21.931 23.8796 21.9904 23.8338L22.6901 25.4023L22.0802 26.0122C21.8972 26.1952 21.8972 26.492 22.0802 26.6751C22.0917 26.6866 22.1036 26.6973 22.1159 26.7073C22.2877 26.8474 22.5358 26.8474 22.7076 26.7073C22.7199 26.6972 22.7318 26.6866 22.7432 26.6751L23.4438 25.9745H26.7296H29.0406C29.2145 25.9745 29.3743 25.8781 29.4553 25.7242L29.785 25.0981L30.345 25.4215C30.4189 25.4642 30.4994 25.4844 30.579 25.4844C30.741 25.4844 30.8986 25.4004 30.9854 25.25C31.1149 25.0258 31.0381 24.7391 30.8139 24.6097L30.222 24.2679L31.3137 22.1943L31.7503 22.4001C31.8149 22.4305 31.8829 22.445 31.9498 22.445C32.1256 22.445 32.2942 22.3455 32.3741 22.176C32.4845 21.9418 32.3842 21.6625 32.15 21.5521L31.7509 21.3639L32.4702 19.9978C32.7148 19.533 33.2787 19.3446 33.7536 19.5685C33.9921 19.681 34.1717 19.8799 34.2593 20.1286C34.3469 20.3773 34.3316 20.6448 34.2162 20.8819L33.2826 22.8007C33.1693 23.0335 33.2662 23.3141 33.499 23.4274C33.7318 23.5406 34.0123 23.4437 34.1256 23.2109L35.0593 21.2921C35.2851 20.8279 35.3151 20.3041 35.1436 19.8171ZM27.0861 16.0211C27.3446 16.0211 27.5549 16.2314 27.5549 16.4898C27.5549 16.7483 27.3446 16.9586 27.0861 16.9586C26.8276 16.9586 26.6174 16.7483 26.6174 16.4898C26.6174 16.2314 26.8276 16.0211 27.0861 16.0211ZM19.6146 16.9586C19.3562 16.9586 19.1459 16.7483 19.1459 16.4898C19.1459 16.2314 19.3562 16.0211 19.6146 16.0211C19.8731 16.0211 20.0834 16.2314 20.0834 16.4898C20.0834 16.7483 19.8731 16.9586 19.6146 16.9586ZM24.6798 27.9663C25.3357 27.5779 26.1702 27.6831 26.7093 28.2222L27.4271 28.94L22.7942 30.2361L21.9908 29.5585L24.6798 27.9663ZM21.7749 30.6028L20.6902 31.6874H19.2235L20.9792 29.9317L21.7749 30.6028ZM19.4511 28.643L20.2599 29.3251L17.8977 31.6874H16.4067L19.4511 28.643ZM26.7296 25.037H23.5539L22.8613 23.4846C22.9228 23.4781 22.985 23.4745 23.0477 23.4745H25.1863V23.8339C25.1863 24.0928 25.3961 24.3026 25.655 24.3026C25.9139 24.3026 26.1238 24.0928 26.1238 23.8339V23.4745H26.7296C27.1604 23.4745 27.5109 23.825 27.5109 24.2558C27.5109 24.6866 27.1604 25.037 26.7296 25.037ZM29.2175 20.08C28.959 20.08 28.7487 19.8697 28.7487 19.6113C28.7487 19.3528 28.9589 19.1425 29.2175 19.1425C29.4759 19.1425 29.6862 19.3528 29.6862 19.6113C29.6862 19.8697 29.4759 20.08 29.2175 20.08Z" fill="#FFD012"/>
<path d="M23.2438 12C22.4684 12 21.8375 12.6308 21.8375 13.4062C21.8375 14.0173 22.2294 14.5384 22.775 14.7319V19.2275C22.775 19.4864 22.9849 19.6963 23.2438 19.6963C23.5027 19.6963 23.7125 19.4864 23.7125 19.2275V14.7319C24.2581 14.5384 24.65 14.0174 24.65 13.4062C24.65 12.6308 24.0192 12 23.2438 12ZM23.2628 13.874C23.2564 13.8738 23.2502 13.873 23.2438 13.873C23.2373 13.873 23.2311 13.8737 23.2247 13.874C22.9751 13.8639 22.775 13.6583 22.775 13.4062C22.775 13.1478 22.9853 12.9375 23.2438 12.9375C23.5022 12.9375 23.7125 13.1478 23.7125 13.4062C23.7125 13.6583 23.5124 13.8639 23.2628 13.874Z" fill="#FFD012"/>
<path d="M23.5749 20.6727C23.4878 20.5856 23.3673 20.5354 23.2435 20.5354C23.1202 20.5354 22.9993 20.5856 22.9121 20.6727C22.8249 20.7599 22.7748 20.8809 22.7748 21.0041C22.7748 21.1274 22.8249 21.2484 22.9121 21.3356C22.9993 21.4227 23.1202 21.4729 23.2435 21.4729C23.3673 21.4729 23.4877 21.4227 23.5749 21.3356C23.6621 21.2484 23.7123 21.1274 23.7123 21.0041C23.7123 20.8809 23.6621 20.7599 23.5749 20.6727Z" fill="#FFD012"/>
</g>
<defs>
<clipPath id="clip0_2089_1702">
<rect width="24" height="24" fill="white" transform="translate(12 12)"/>
</clipPath>
</defs>
</svg>
