<svg width="48" height="48" viewBox="0 0 48 48" fill="none" xmlns="http://www.w3.org/2000/svg">
<rect x="0.5" y="0.5" width="47" height="47" rx="23.5" stroke="#FFD012"/>
<g clip-path="url(#clip0_2089_1690)">
<path d="M23.6896 25.6552C26.432 25.6552 28.6552 23.432 28.6552 20.6896C28.6552 17.9473 26.432 15.7241 23.6896 15.7241C20.9473 15.7241 18.7241 17.9473 18.7241 20.6896C18.7241 23.432 20.9473 25.6552 23.6896 25.6552Z" stroke="#FFD012" stroke-miterlimit="10" stroke-linecap="round" stroke-linejoin="round"/>
<path d="M31.9655 20.6897C31.9655 21.5614 30.7793 22.229 30.5366 23.018C30.2828 23.8345 30.8566 25.098 30.3876 25.7766C29.9076 26.4607 28.578 26.2786 27.9214 26.7807C27.2704 27.2773 27.0276 28.6621 26.2497 28.9269C25.4993 29.1807 24.5283 28.2207 23.6897 28.2207C22.8511 28.2207 21.8855 29.1862 21.1297 28.9269C20.3517 28.6621 20.109 27.2773 19.458 26.7807C18.8014 26.2786 17.4717 26.4662 16.9917 25.7766C16.5173 25.098 17.0966 23.829 16.8428 23.018C16.6 22.229 15.4138 21.5669 15.4138 20.6897C15.4138 19.818 16.6 19.1504 16.8428 18.3614C17.0966 17.5448 16.5228 16.2814 16.9917 15.6028C17.4717 14.9186 18.8014 15.1007 19.458 14.5986C20.109 14.1021 20.3517 12.7173 21.1297 12.4524C21.88 12.1986 22.8511 13.1586 23.6897 13.1586C24.5283 13.1586 25.4938 12.1931 26.2497 12.4524C27.0276 12.7173 27.2704 14.1021 27.9214 14.5986C28.578 15.0952 29.9076 14.9131 30.3876 15.6028C30.8621 16.2814 30.2828 17.5504 30.5366 18.3614C30.7793 19.1504 31.9655 19.818 31.9655 20.6897Z" stroke="#FFD012" stroke-miterlimit="10" stroke-linecap="round" stroke-linejoin="round"/>
<path d="M24.2413 20.6896H22.0344V18.4827H24.2413C24.8482 18.4827 25.3448 18.9737 25.3448 19.5861V19.5916C25.3448 20.1985 24.8537 20.6896 24.2413 20.6896Z" stroke="#FFD012" stroke-miterlimit="10" stroke-linecap="round" stroke-linejoin="round"/>
<path d="M24.2413 22.8966H22.0344V20.6897H24.2413C24.8482 20.6897 25.3448 21.1807 25.3448 21.7931V21.7987C25.3448 22.4056 24.8537 22.8966 24.2413 22.8966Z" stroke="#FFD012" stroke-miterlimit="10" stroke-linecap="round" stroke-linejoin="round"/>
<path d="M23.6897 17.3794V18.4828" stroke="#FFD012" stroke-miterlimit="10" stroke-linecap="round" stroke-linejoin="round"/>
<path d="M23.6897 23.4482V24" stroke="#FFD012" stroke-miterlimit="10" stroke-linecap="round" stroke-linejoin="round"/>
<path d="M23.6785 29.7103L21.6647 35.2386C21.5158 35.6469 20.9696 35.7131 20.7268 35.3544L19.9544 34.2234C19.8275 34.0413 19.6013 33.9531 19.3861 34.0082L17.9351 34.3779C17.5213 34.4827 17.1627 34.0855 17.3061 33.6827L19.822 27.3103" stroke="#FFD012" stroke-miterlimit="10" stroke-linecap="round" stroke-linejoin="round"/>
<path d="M23.6787 29.7103L25.6925 35.2386C25.8415 35.6469 26.3877 35.7131 26.6304 35.3544L27.4028 34.2234C27.5297 34.0413 27.756 33.9531 27.9711 34.0082L29.4222 34.3779C29.836 34.4827 30.1946 34.0855 29.9573 33.44L27.5573 27.3103" stroke="#FFD012" stroke-miterlimit="10" stroke-linecap="round" stroke-linejoin="round"/>
</g>
<defs>
<clipPath id="clip0_2089_1690">
<rect width="17.3793" height="24" fill="white" transform="translate(15 12)"/>
</clipPath>
</defs>
</svg>
