<svg width="48" height="48" viewBox="0 0 48 48" fill="none" xmlns="http://www.w3.org/2000/svg">
<rect x="0.5" y="0.5" width="47" height="47" rx="23.5" stroke="#FFD012"/>
<g clip-path="url(#clip0_2089_1609)">
<path d="M16.6144 24.7231L15.4944 25.8431C15.0592 26.2783 14.3616 26.2783 13.9264 25.8431L12.8064 24.7231C12.3712 24.2879 12.3712 23.5903 12.8064 23.1551L13.9264 22.0351C14.3616 21.5999 15.0592 21.5999 15.4944 22.0351L16.6144 23.1551C17.0432 23.5839 17.0432 24.2879 16.6144 24.7231Z" stroke="#FFD012" stroke-miterlimit="10" stroke-linecap="round" stroke-linejoin="round"/>
<path d="M21.2288 20.1089L20.1088 21.2289C19.6736 21.6641 18.976 21.6641 18.5408 21.2289L17.4208 20.1089C16.9856 19.6737 16.9856 18.9761 17.4208 18.5409L18.5408 17.4209C18.976 16.9857 19.6736 16.9857 20.1088 17.4209L21.2288 18.5409C21.6576 18.9697 21.6576 19.6737 21.2288 20.1089Z" stroke="#FFD012" stroke-miterlimit="10" stroke-linecap="round" stroke-linejoin="round"/>
<path d="M25.8431 15.4944L24.7231 16.6144C24.2879 17.0496 23.5903 17.0496 23.1551 16.6144L22.0351 15.4944C21.5999 15.0592 21.5999 14.3552 22.0351 13.9264L23.1551 12.8064C23.5903 12.3712 24.2879 12.3712 24.7231 12.8064L25.8431 13.9264C26.2719 14.3552 26.2719 15.0592 25.8431 15.4944Z" stroke="#FFD012" stroke-miterlimit="10" stroke-linecap="round" stroke-linejoin="round"/>
<path d="M21.2864 29.3953L20.1664 30.5153C19.7312 30.9505 19.0336 30.9505 18.5984 30.5153L17.4784 29.3953C17.0432 28.9601 17.0432 28.2625 17.4784 27.8273L18.5984 26.7073C19.0336 26.2721 19.7312 26.2721 20.1664 26.7073L21.2864 27.8273C21.7216 28.2625 21.7216 28.9665 21.2864 29.3953Z" stroke="#FFD012" stroke-miterlimit="10" stroke-linecap="round" stroke-linejoin="round"/>
<path d="M25.9008 24.7808L24.7808 25.9008C24.3456 26.336 23.648 26.336 23.2128 25.9008L22.0928 24.7808C21.6576 24.3456 21.6576 23.648 22.0928 23.2128L23.2128 22.0928C23.648 21.6576 24.3456 21.6576 24.7808 22.0928L25.9008 23.2128C26.336 23.648 26.336 24.352 25.9008 24.7808Z" stroke="#FFD012" stroke-miterlimit="10" stroke-linecap="round" stroke-linejoin="round"/>
<path d="M30.5151 20.1665L29.3951 21.2865C28.9599 21.7217 28.2623 21.7217 27.8271 21.2865L26.7071 20.1665C26.2719 19.7313 26.2719 19.0337 26.7071 18.5985L27.8271 17.4785C28.2623 17.0433 28.9599 17.0433 29.3951 17.4785L30.5151 18.5985C30.9503 19.0337 30.9503 19.7377 30.5151 20.1665Z" stroke="#FFD012" stroke-miterlimit="10" stroke-linecap="round" stroke-linejoin="round"/>
<path d="M25.9647 34.0735L24.8447 35.1935C24.4095 35.6287 23.7119 35.6287 23.2767 35.1935L22.1567 34.0735C21.7215 33.6383 21.7215 32.9407 22.1567 32.5055L23.2767 31.3855C23.7119 30.9503 24.4095 30.9503 24.8447 31.3855L25.9647 32.5055C26.3999 32.9407 26.3999 33.6447 25.9647 34.0735Z" stroke="#FFD012" stroke-miterlimit="10" stroke-linecap="round" stroke-linejoin="round"/>
<path d="M30.5792 29.4592L29.4592 30.5792C29.024 31.0144 28.3264 31.0144 27.8912 30.5792L26.7712 29.4592C26.336 29.024 26.336 28.3264 26.7712 27.8912L27.8912 26.7712C28.3264 26.336 29.024 26.336 29.4592 26.7712L30.5792 27.8912C31.0144 28.3264 31.0144 29.0304 30.5792 29.4592Z" stroke="#FFD012" stroke-miterlimit="10" stroke-linecap="round" stroke-linejoin="round"/>
<path d="M35.1936 24.8447L34.0736 25.9647C33.6384 26.3999 32.9408 26.3999 32.5056 25.9647L31.3856 24.8447C30.9504 24.4095 30.9504 23.7119 31.3856 23.2767L32.5056 22.1567C32.9408 21.7215 33.6384 21.7215 34.0736 22.1567L35.1936 23.2767C35.6288 23.7119 35.6288 24.4159 35.1936 24.8447Z" stroke="#FFD012" stroke-miterlimit="10" stroke-linecap="round" stroke-linejoin="round"/>
<path d="M16.0511 22.5919L17.9775 20.6655" stroke="#FFD012" stroke-miterlimit="10" stroke-linecap="round" stroke-linejoin="round"/>
<path d="M20.6655 17.9777L22.5919 16.0513" stroke="#FFD012" stroke-miterlimit="10" stroke-linecap="round" stroke-linejoin="round"/>
<path d="M25.344 22.6559L27.2704 20.7295" stroke="#FFD012" stroke-miterlimit="10" stroke-linecap="round" stroke-linejoin="round"/>
<path d="M20.8447 27.1551L22.4959 25.5039" stroke="#FFD012" stroke-miterlimit="10" stroke-linecap="round" stroke-linejoin="round"/>
<path d="M25.5167 31.8336L27.2063 30.1504" stroke="#FFD012" stroke-miterlimit="10" stroke-linecap="round" stroke-linejoin="round"/>
<path d="M30.0223 27.3344L31.9487 25.408" stroke="#FFD012" stroke-miterlimit="10" stroke-linecap="round" stroke-linejoin="round"/>
<path d="M25.3568 15.9744L27.3472 17.9648" stroke="#FFD012" stroke-miterlimit="10" stroke-linecap="round" stroke-linejoin="round"/>
<path d="M20.7296 29.9585L22.72 31.9489" stroke="#FFD012" stroke-miterlimit="10" stroke-linecap="round" stroke-linejoin="round"/>
</g>
<defs>
<clipPath id="clip0_2089_1609">
<rect width="24" height="24" fill="white" transform="translate(12 12)"/>
</clipPath>
</defs>
</svg>
