<svg width="48" height="48" viewBox="0 0 48 48" fill="none" xmlns="http://www.w3.org/2000/svg">
<rect x="0.5" y="0.5" width="47" height="47" rx="23.5" stroke="#FFD012"/>
<g clip-path="url(#clip0_2089_1648)">
<path d="M35.686 24.011C35.5504 23.8092 35.3209 23.4796 34.9976 23.0559C34.4637 22.356 33.5933 21.2958 32.4791 20.2201C31.2405 19.0244 29.9733 18.0694 28.7126 17.3819C27.1186 16.5125 25.533 16.0718 24 16.0718C20.5381 16.0718 17.4785 18.317 15.5214 20.2006C14.3996 21.2802 13.5321 22.3379 13.0019 23.0351C12.6728 23.4679 12.4452 23.7983 12.3121 23.9992C12.0242 24.4342 12 24.5146 12 24.6499C12 24.7912 12.027 24.8617 12.314 25.2888C12.4496 25.4907 12.6791 25.8202 13.0024 26.2438C13.5363 26.9438 14.4067 28.0039 15.5209 29.0796C16.7595 30.2754 18.0267 31.2303 19.2874 31.9179C20.8814 32.7872 22.467 33.228 24 33.228C27.4619 33.228 30.5215 30.9828 32.4786 29.0992C33.6004 28.0196 34.4679 26.9619 34.9981 26.2647C35.3272 25.8319 35.5548 25.5016 35.6879 25.3006C35.9744 24.8676 36 24.7826 36 24.6499C36 24.5086 35.973 24.4381 35.686 24.011ZM16.3282 28.5544C14.5799 26.8998 13.3846 25.2208 13.0104 24.6443C13.3701 24.0795 14.5545 22.3971 16.3405 20.7152C16.4003 20.6589 16.4612 20.6022 16.5231 20.5453C15.8515 21.7639 15.4688 23.1629 15.4688 24.6499C15.4688 26.1217 15.8434 27.5076 16.5024 28.7174C16.4434 28.6628 16.3853 28.6084 16.3282 28.5544ZM24 32.2437C19.8128 32.2437 16.4062 28.8371 16.4062 24.6499C16.4062 20.4627 19.8128 17.0562 24 17.0562C28.1872 17.0562 31.5938 20.4627 31.5938 24.6499C31.5938 28.8371 28.1872 32.2437 24 32.2437ZM31.6595 28.5846C31.5997 28.6409 31.5388 28.6976 31.4768 28.7545C32.1485 27.5359 32.5312 26.1368 32.5312 24.6499C32.5312 23.1781 32.1566 21.7922 31.4976 20.5824C31.5567 20.637 31.6148 20.6914 31.6718 20.7454C33.4201 22.4 34.6154 24.079 34.9897 24.6555C34.6299 25.2202 33.4456 26.9025 31.6595 28.5846Z" fill="#FFD012"/>
<path d="M26.2539 26.075C26.0629 25.9003 25.7664 25.9136 25.5917 26.1046C25.1839 26.5504 24.6038 26.8062 24 26.8062C22.8111 26.8062 21.8438 25.8388 21.8438 24.6499C21.8438 23.461 22.8111 22.4937 24 22.4937C24.2588 22.4937 24.4688 22.2838 24.4688 22.0249C24.4688 21.766 24.2588 21.5562 24 21.5562C22.2941 21.5562 20.9062 22.944 20.9062 24.6499C20.9062 26.3558 22.2941 27.7437 24 27.7437C24.8662 27.7437 25.6986 27.3769 26.2835 26.7373C26.4582 26.5462 26.445 26.2497 26.2539 26.075Z" fill="#FFD012"/>
<path d="M26.625 24.1812C26.3662 24.1812 26.1563 24.391 26.1563 24.6499V24.6589C26.1536 24.9177 26.3614 25.1297 26.6202 25.1323C26.6218 25.1323 26.6234 25.1323 26.6251 25.1323C26.8818 25.1323 27.0911 24.9255 27.0937 24.6683L27.0938 24.6499C27.0938 24.391 26.8839 24.1812 26.625 24.1812Z" fill="#FFD012"/>
<path d="M30.2312 27.0992C30.1615 26.8391 30.0218 26.6099 29.8287 26.4316C30.0045 25.8563 30.0937 25.2587 30.0937 24.6498C30.0937 23.1999 29.5758 21.795 28.6353 20.694C27.7846 19.698 26.6359 19.003 25.371 18.7114C25.2287 18.0856 24.6682 17.6169 24 17.6169C23.3315 17.6169 22.7709 18.0859 22.6288 18.712C21.545 18.9607 20.5556 19.4986 19.7501 20.2827C19.5646 20.4632 19.5605 20.76 19.7411 20.9455C19.833 21.0399 19.955 21.0873 20.0771 21.0873C20.1949 21.0873 20.3129 21.0432 20.404 20.9545C21.0614 20.3147 21.8629 19.8681 22.7409 19.6484C22.9715 20.1108 23.4491 20.4294 24 20.4294C24.5507 20.4294 25.0282 20.111 25.2589 19.6488C27.5399 20.217 29.1562 22.2585 29.1562 24.6499C29.1562 25.1311 29.0899 25.6037 28.9602 26.0602C28.4447 26.0289 27.9303 26.2833 27.6549 26.7601C27.3798 27.2368 27.4165 27.8091 27.7009 28.2398C26.7318 29.2396 25.4041 29.8062 23.9999 29.8062C22.5952 29.8062 21.268 29.2399 20.2989 28.2399C20.5834 27.8091 20.6201 27.2368 20.3449 26.7601C20.0696 26.2832 19.5551 26.0289 19.0396 26.0602C18.91 25.6037 18.8437 25.1311 18.8437 24.6499C18.8437 24.3503 18.8696 24.05 18.9206 23.7573C18.965 23.5023 18.7944 23.2595 18.5393 23.215C18.2843 23.1708 18.0415 23.3413 17.997 23.5963C17.9368 23.942 17.9062 24.2965 17.9062 24.65C17.9062 25.2588 17.9954 25.8565 18.1712 26.4318C17.9781 26.6101 17.8384 26.8392 17.7687 27.0993C17.6715 27.4621 17.7214 27.8411 17.9092 28.1664C18.1694 28.6171 18.6431 28.8693 19.1295 28.8692C19.268 28.8692 19.4075 28.8481 19.5435 28.8059C20.6952 30.0417 22.2994 30.7437 23.9999 30.7437C25.6997 30.7437 27.3047 30.0416 28.4564 28.806C28.5924 28.8481 28.7318 28.8692 28.8703 28.8692C29.3567 28.8692 29.8303 28.617 30.0905 28.1664C30.2785 27.841 30.3284 27.462 30.2312 27.0992ZM24 19.492C23.7415 19.492 23.5312 19.2817 23.5312 19.0232C23.5312 18.7648 23.7415 18.5545 24 18.5545C24.2584 18.5545 24.4687 18.7648 24.4687 19.0232C24.4687 19.2817 24.2584 19.492 24 19.492ZM19.3616 27.8692C19.1376 27.9983 18.8505 27.9213 18.7212 27.6976C18.6586 27.5892 18.642 27.4628 18.6744 27.3419C18.7068 27.221 18.7844 27.1199 18.8928 27.0573C18.9664 27.0148 19.0469 26.9946 19.1264 26.9946C19.2885 26.9946 19.4464 27.0787 19.5331 27.2288C19.6624 27.4527 19.5854 27.74 19.3616 27.8692ZM29.2788 27.6976C29.1495 27.9215 28.8622 27.9985 28.6384 27.8692C28.4146 27.74 28.3376 27.4527 28.4668 27.2289C28.5961 27.0051 28.8835 26.9281 29.1071 27.0573C29.2156 27.1199 29.2932 27.221 29.3256 27.342C29.358 27.4629 29.3413 27.5892 29.2788 27.6976Z" fill="#FFD012"/>
<path d="M19.3124 21.5123C19.0874 21.3843 18.8012 21.463 18.6732 21.6881L18.6675 21.6984L18.6668 21.6995C18.5413 21.9258 18.6238 22.2099 18.8503 22.3354C18.9219 22.3752 18.9996 22.394 19.0762 22.394C19.2417 22.394 19.4024 22.3062 19.4882 22.1515C19.6161 21.9265 19.5375 21.6403 19.3124 21.5123Z" fill="#FFD012"/>
<path d="M35.5312 13.9478H35.2097C34.9509 13.9478 34.741 14.1576 34.741 14.4165C34.741 14.6754 34.9508 14.8853 35.2097 14.8853H35.5312C35.7901 14.8853 36 14.6754 36 14.4165C36 14.1577 35.7901 13.9478 35.5312 13.9478Z" fill="#FFD012"/>
<path d="M33.2568 13.9478H32.9353C32.6765 13.9478 32.4666 14.1576 32.4666 14.4165C32.4666 14.6754 32.6765 14.8853 32.9353 14.8853H33.2568C33.5157 14.8853 33.7256 14.6754 33.7256 14.4165C33.7256 14.1577 33.5157 13.9478 33.2568 13.9478Z" fill="#FFD012"/>
<path d="M34.2334 14.9243C33.9746 14.9243 33.7646 15.1342 33.7646 15.3931V15.7146C33.7646 15.9735 33.9745 16.1833 34.2334 16.1833C34.4922 16.1833 34.7021 15.9735 34.7021 15.7146V15.3931C34.7021 15.1342 34.4922 14.9243 34.2334 14.9243Z" fill="#FFD012"/>
<path d="M34.2334 12.6499C33.9746 12.6499 33.7646 12.8598 33.7646 13.1187V13.4402C33.7646 13.6991 33.9745 13.9089 34.2334 13.9089C34.4922 13.9089 34.7021 13.6991 34.7021 13.4402V13.1187C34.7021 12.8598 34.4922 12.6499 34.2334 12.6499Z" fill="#FFD012"/>
<path d="M16.3625 33.1147H16.041C15.7822 33.1147 15.5723 33.3246 15.5723 33.5835C15.5723 33.8424 15.7822 34.0522 16.041 34.0522H16.3625C16.6214 34.0522 16.8313 33.8424 16.8313 33.5835C16.8313 33.3246 16.6214 33.1147 16.3625 33.1147Z" fill="#FFD012"/>
<path d="M14.0881 33.1147H13.7666C13.5078 33.1147 13.2979 33.3246 13.2979 33.5835C13.2979 33.8424 13.5078 34.0522 13.7666 34.0522H14.0881C14.347 34.0522 14.5569 33.8424 14.5569 33.5835C14.5569 33.3246 14.347 33.1147 14.0881 33.1147Z" fill="#FFD012"/>
<path d="M15.0647 34.0911C14.8059 34.0911 14.5959 34.3009 14.5959 34.5598V34.8813C14.5959 35.1402 14.8059 35.3501 15.0647 35.3501C15.3235 35.3501 15.5334 35.1402 15.5334 34.8813V34.5598C15.5334 34.3009 15.3235 34.0911 15.0647 34.0911Z" fill="#FFD012"/>
<path d="M15.0647 31.8167C14.8059 31.8167 14.5959 32.0265 14.5959 32.2854V32.6069C14.5959 32.8658 14.8059 33.0757 15.0647 33.0757C15.3235 33.0757 15.5334 32.8658 15.5334 32.6069V32.2854C15.5334 32.0266 15.3235 31.8167 15.0647 31.8167Z" fill="#FFD012"/>
</g>
<defs>
<clipPath id="clip0_2089_1648">
<rect width="24" height="24" fill="white" transform="translate(12 12)"/>
</clipPath>
</defs>
</svg>
