<svg width="48" height="48" viewBox="0 0 48 48" fill="none" xmlns="http://www.w3.org/2000/svg">
<rect width="48" height="48" rx="24" fill="#333333"/>
<g clip-path="url(#clip0_2089_773)">
<path d="M24.1002 35.068C30.1576 35.068 35.0682 30.1575 35.0682 24.1001C35.0682 18.0426 30.1576 13.1321 24.1002 13.1321C18.0427 13.1321 13.1322 18.0426 13.1322 24.1001C13.1322 30.1575 18.0427 35.068 24.1002 35.068Z" stroke="#FFCB06" stroke-miterlimit="10" stroke-linecap="round" stroke-linejoin="round"/>
<path d="M27.9147 27.9147C31.9383 23.8912 33.4921 18.9215 31.3853 16.8147C29.2785 14.7079 24.3088 16.2617 20.2853 20.2853C16.2617 24.3088 14.7079 29.2785 16.8147 31.3853C18.9215 33.4921 23.8912 31.9383 27.9147 27.9147Z" stroke="#FFCB06" stroke-miterlimit="10" stroke-linecap="round" stroke-linejoin="round"/>
<path d="M13.2625 22.4138C15.6 22.9211 18.3146 24.4772 20.7001 26.8627C23.209 29.3716 24.7994 32.2439 25.2175 34.65" stroke="#FFCB06" stroke-miterlimit="10" stroke-linecap="round" stroke-linejoin="round"/>
<path d="M34.6568 25.2175C32.2439 24.7925 29.3785 23.2022 26.8695 20.7001C24.484 18.3146 22.9279 15.6 22.4207 13.2625" stroke="#FFCB06" stroke-miterlimit="10" stroke-linecap="round" stroke-linejoin="round"/>
<path d="M31.8531 16.3472L16.3472 31.8531" stroke="#FFCB06" stroke-miterlimit="10" stroke-linecap="round" stroke-linejoin="round"/>
<path d="M31.3733 31.3733L16.3472 16.3472" stroke="#FFCB06" stroke-miterlimit="10" stroke-linecap="round" stroke-linejoin="round"/>
</g>
<defs>
<clipPath id="clip0_2089_773">
<rect width="24" height="24" fill="white" transform="translate(12 12)"/>
</clipPath>
</defs>
</svg>
