<svg width="48" height="48" viewBox="0 0 48 48" fill="none" xmlns="http://www.w3.org/2000/svg">
<rect width="48" height="48" rx="24" fill="#333333"/>
<g clip-path="url(#clip0_2089_754)">
<path d="M10.6102 17.4915H36.6441" stroke="#FFCB06" stroke-miterlimit="10" stroke-linecap="round" stroke-linejoin="round"/>
<path d="M34.2035 35.3898H13.0509C11.7004 35.3898 10.6102 34.2996 10.6102 32.9491V15.0508C10.6102 13.7003 11.7004 12.6101 13.0509 12.6101H34.2035C35.554 12.6101 36.6441 13.7003 36.6441 15.0508V32.9491C36.6441 34.2996 35.554 35.3898 34.2035 35.3898Z" stroke="#FFCB06" stroke-miterlimit="10" stroke-linecap="round" stroke-linejoin="round"/>
<path d="M18.7458 27.2542H17.9323C16.5817 27.2542 15.4916 26.164 15.4916 24.8135C15.4916 23.463 16.5817 22.3728 17.9323 22.3728H23.6272C24.9777 22.3728 26.0678 23.463 26.0678 24.8135C26.0678 26.164 24.9777 27.2542 23.6272 27.2542H22.8136" stroke="#FFCB06" stroke-miterlimit="10" stroke-linecap="round" stroke-linejoin="round"/>
<path d="M28.5086 24.8135H29.3221C30.6726 24.8135 31.7628 25.9036 31.7628 27.2542C31.7628 28.6047 30.6726 29.6948 29.3221 29.6948H23.6272C22.2767 29.6948 21.1865 28.6047 21.1865 27.2542C21.1865 25.9036 22.2767 24.8135 23.6272 24.8135H24.4408" stroke="#FFCB06" stroke-miterlimit="10" stroke-linecap="round" stroke-linejoin="round"/>
</g>
<defs>
<clipPath id="clip0_2089_754">
<rect width="27.2542" height="24" fill="white" transform="translate(10 12)"/>
</clipPath>
</defs>
</svg>
