<svg width="48" height="48" viewBox="0 0 48 48" fill="none" xmlns="http://www.w3.org/2000/svg">
<rect width="48" height="48" rx="24" fill="#333333"/>
<path d="M20.4603 22.4287V26.1726L24 28.3176L27.5396 26.1726V22.4287L24 20.2837L20.4603 22.4287ZM21.246 23.3873L23.6071 24.8173V27.1626L21.246 25.7326V23.3873ZM26.7539 25.7365L24.3928 27.1626V24.8173L26.7539 23.3873V25.7365ZM26.3925 22.6958L24 24.1415L21.6075 22.6919L21.5682 22.6683L24 21.203L26.4278 22.6723L26.3925 22.6958Z" fill="#FFCB06"/>
<path d="M31.8532 20.7943L35 18.8889V15.145L31.4604 13L27.9168 15.145V16.9207H24H20.0793V15.1529L16.5396 13.0079L13 15.1529V18.8929L16.1468 20.7982V24.9507V27.2057L13 29.1111V32.8511L16.5396 34.9961L20.0832 32.8511V31.6686H24H27.9168V32.855L31.4604 35L35 32.855V29.1111L31.8532 27.2057V24.9507V20.7943ZM28.7025 16.1036L31.0675 17.5336V19.8789L28.7025 18.445V16.1036ZM34.2143 18.445L31.8532 19.8789V17.5336L34.2143 16.1036V18.445ZM31.4604 13.9193L33.8882 15.3886L33.8529 15.4121L31.4604 16.8618L29.0679 15.4082L29.0286 15.3846L31.4604 13.9193ZM16.9325 17.5414L19.2936 16.1075V18.4529L16.9325 19.8829V17.5414ZM16.5396 13.9232L18.9714 15.3964L18.9321 15.4161L16.5396 16.8618L14.1471 15.4121L14.1118 15.3925L16.5396 13.9232ZM13.7857 18.4529V16.1075L16.1468 17.5414V19.8829L13.7857 18.4529ZM16.5396 27.8814L18.9714 29.3546L18.9321 29.3782L16.5396 30.8279L14.1471 29.3782L14.1118 29.3546L16.5396 27.8814ZM13.7857 30.0736L16.1468 31.5036V33.845L13.7857 32.415V30.0736ZM19.2975 32.415L16.9325 33.845V31.5036L19.2975 30.0736V32.415ZM27.9168 30.8907H24.3929V29.3625C24.3929 29.1464 24.2161 28.9736 24 28.9736C23.7839 28.9736 23.6071 29.1504 23.6071 29.3625V30.8907H20.0832V29.115L16.9325 27.2096V25.3436H18.9832C19.1993 25.3436 19.3761 25.1668 19.3761 24.9546C19.3761 24.7386 19.1993 24.5657 18.9832 24.5657H16.9325V20.8021L20.0793 18.8929V17.7025H23.6071V19.2346C23.6071 19.4507 23.7839 19.6236 24 19.6236C24.2161 19.6236 24.3929 19.4468 24.3929 19.2346V17.7025H27.9168V18.8889L31.0675 20.7943V24.5618H29.0168C28.8007 24.5618 28.6239 24.7386 28.6239 24.9507C28.6239 25.1668 28.8007 25.3396 29.0168 25.3396H31.0675V27.2057L27.9168 29.1111V30.8907ZM28.7025 30.0736L31.0675 31.5036V33.845L28.7025 32.415V30.0736ZM34.2143 32.415L31.8532 33.845V31.5036L34.2143 30.0736V32.415ZM33.8882 29.3546L33.8529 29.3782L31.4604 30.8279L29.0679 29.3782L29.0286 29.3546L31.4604 27.8814L33.8882 29.3546Z" fill="#FFCB06"/>
</svg>
