<svg width="74" height="92" viewBox="0 0 74 92" fill="none" xmlns="http://www.w3.org/2000/svg">
<path d="M3.54227 11.0837L36.6182 3.58906C36.8676 3.53239 37.133 3.53239 37.3839 3.58906L40.0132 4.1848L37.886 12.469L41.3271 13.3503L43.6379 4.35037C43.8296 3.60409 43.7139 2.83071 43.3118 2.17312C42.9097 1.51529 42.2737 1.05924 41.5208 0.888503L38.1672 0.128918C37.4019 -0.0430545 36.5945 -0.0430547 35.8322 0.12941L2.7558 7.624C1.07234 8.00564 -0.0849139 9.53171 0.00488379 11.2581L2.03224 47.965C2.45853 56.3183 5.26915 62.0323 8.89905 68.634L12.0131 66.9261C8.49151 60.5217 5.96878 55.3998 5.5795 47.7768L3.54227 11.0837Z" fill="black"/>
<path d="M71.2663 7.62118L66.2793 6.41934C65.4642 6.22421 64.62 6.45605 64.021 7.04194L63.7904 7.26738L47.6453 22.5056L47.6093 22.5406C47.0488 23.1009 46.8472 23.9184 47.0843 24.6743C47.3216 25.4304 47.9537 25.9872 48.7352 26.1277L61.203 28.3648L42.4358 49.0869L47.402 35.748L47.4193 35.6987C47.6142 35.1242 47.5658 34.4858 47.2861 33.947C47.0061 33.4084 46.5117 33.0009 45.9305 32.8289L36.7899 30.1239L38.9968 21.53L35.5554 20.6487L33.0248 30.5051C32.73 31.6537 33.3906 32.8176 34.5296 33.1554L43.58 35.8335L36.1169 55.8781L36.0999 55.9262C35.8056 56.7924 36.1707 57.7472 36.9677 58.1965C37.7515 58.6388 38.738 58.4713 39.3321 57.8018L65.5377 28.8671L65.5782 28.8211C66.0726 28.2359 66.2184 27.4248 65.9578 26.7047C65.6978 25.9845 65.0678 25.4528 64.3131 25.3176L52.1495 23.1351L66.0538 10.012L70.4465 11.0542L68.3799 48.5474C67.5118 65.5433 57.9848 79.0069 40.8268 87.4816L39.8255 87.9776C38.5858 88.5883 37.1572 88.6046 35.9055 88.0202L34.126 87.1892C27.4906 84.0932 21.7473 79.6783 17.0556 74.0683L14.3291 76.3426C19.357 82.3542 25.5119 87.0854 32.6217 90.4029L34.4009 91.2335C35.491 91.7422 36.6562 91.9967 37.8211 91.9967C39.0442 91.9967 40.2668 91.7166 41.4011 91.1571L42.4035 90.6609C51.2115 86.3103 58.2148 80.6266 63.2188 73.7682C68.5203 66.502 71.4506 58.0768 71.9274 48.7351L73.994 11.2437C74.0836 9.52199 72.9258 7.99592 71.2663 7.62118Z" fill="black"/>
<path d="M14.1859 12.1509L9.37305 13.2344L10.1542 16.6951L14.967 15.6115L14.1859 12.1509Z" fill="black"/>
<path d="M30.3941 8.49471L18.1152 11.2578L18.896 14.7185L31.1748 11.9554L30.3941 8.49471Z" fill="black"/>
</svg>
