<svg width="90" height="90" viewBox="0 0 90 90" fill="none" xmlns="http://www.w3.org/2000/svg">
<path fill-rule="evenodd" clip-rule="evenodd" d="M28.1242 47.8189H10.986C2.52592 47.8189 -2.77571 38.3015 1.52887 30.7454L15.8545 5.59848C20.1071 -1.86616 30.5177 -1.86616 34.7702 5.59848L35.4593 6.80767C37.0765 6.05685 38.8808 5.63785 40.7806 5.63785H66.0934C66.4675 5.63785 66.8247 5.78549 67.0891 6.04982L89.5894 28.5464C89.8523 28.8093 90 29.1679 90 29.5405V77.3457C90 84.3337 84.3342 90 77.3436 90H40.7806C33.7915 90 28.1242 84.3337 28.1242 77.3457V47.8189ZM64.6886 8.44992H40.7806C39.387 8.44992 38.0595 8.73957 36.8571 9.26261L49.0959 30.7454C53.4005 38.3015 48.0988 47.8189 39.6387 47.8189H30.9367V77.3457C30.9367 82.7814 35.3454 87.1879 40.7806 87.1879H77.3436C82.7802 87.1879 87.1875 82.7814 87.1875 77.3457V30.9465H73.1262C68.4644 30.9465 64.6886 27.1685 64.6886 22.5103V8.44992ZM68.906 74.5336H50.6245C49.8496 74.5336 49.2182 75.1635 49.2182 75.9396C49.2182 76.7158 49.8496 77.3457 50.6245 77.3457H68.906C69.6822 77.3457 70.3122 76.7158 70.3122 75.9396C70.3122 75.1635 69.6822 74.5336 68.906 74.5336ZM67.4997 60.4732H50.6245C49.8496 60.4732 49.2182 61.1032 49.2182 61.8793C49.2182 62.6554 49.8496 63.2853 50.6245 63.2853H67.4997C68.276 63.2853 68.906 62.6554 68.906 61.8793C68.906 61.1032 68.276 60.4732 67.4997 60.4732ZM57.6558 46.4129H53.437C52.6622 46.4129 52.0308 47.0428 52.0308 47.8189C52.0308 48.5951 52.6622 49.225 53.437 49.225H57.6558C58.4321 49.225 59.0621 48.5951 59.0621 47.8189C59.0621 47.0428 58.4321 46.4129 57.6558 46.4129ZM78.7499 46.4129H63.2809C62.5061 46.4129 61.8746 47.0428 61.8746 47.8189C61.8746 48.5951 62.5061 49.225 63.2809 49.225H78.7499C79.5261 49.225 80.1561 48.5951 80.1561 47.8189C80.1561 47.0428 79.5261 46.4129 78.7499 46.4129ZM3.97297 32.1374L18.2986 6.99046C21.4515 1.4549 29.1733 1.4549 32.3261 6.99046L46.6518 32.1374C49.8848 37.8122 45.9923 45.0069 39.6387 45.0069H10.986C4.63251 45.0069 0.739958 37.8122 3.97297 32.1374ZM10.9874 41.3919H39.6373C41.8564 41.3919 43.0517 39.9325 43.558 39.0495C43.9982 38.2846 44.8799 36.2515 43.5678 33.9484L29.2408 8.80003C28.0595 6.72612 26.2665 6.4421 25.3131 6.4421C24.3568 6.4421 22.5652 6.72612 21.384 8.80003L7.05691 33.9484C5.74487 36.2529 6.6266 38.2846 7.06816 39.0523C7.57442 39.9325 8.76975 41.3919 10.9874 41.3919ZM10.9874 38.5799C10.138 38.5799 9.7007 37.9879 9.50663 37.6505C9.30554 37.3018 8.90756 36.3822 9.50101 35.339L23.8281 10.192C24.2809 9.39618 24.946 9.25418 25.3131 9.25418C25.6787 9.25418 26.3439 9.39759 26.7967 10.192L41.1238 35.3404C41.7172 36.3822 41.3192 37.3018 41.1195 37.6491C40.9255 37.9879 40.4867 38.5799 39.6373 38.5799H10.9874ZM56.2496 32.3525H54.8433C54.0685 32.3525 53.437 32.9824 53.437 33.7586C53.437 34.5347 54.0685 35.1646 54.8433 35.1646H56.2496C57.0258 35.1646 57.6558 34.5347 57.6558 33.7586C57.6558 32.9824 57.0258 32.3525 56.2496 32.3525ZM64.6872 32.3525H61.8746C61.0998 32.3525 60.4684 32.9824 60.4684 33.7586C60.4684 34.5347 61.0998 35.1646 61.8746 35.1646H64.6872C65.4634 35.1646 66.0934 34.5347 66.0934 33.7586C66.0934 32.9824 65.4634 32.3525 64.6872 32.3525ZM78.7499 32.3525H70.3122C69.5374 32.3525 68.906 32.9824 68.906 33.7586C68.906 34.5347 69.5374 35.1646 70.3122 35.1646H78.7499C79.5261 35.1646 80.1561 34.5347 80.1561 33.7586C80.1561 32.9824 79.5261 32.3525 78.7499 32.3525ZM25.3117 32.0573C26.0893 32.0573 26.7194 32.6872 26.7194 33.4647C26.7194 34.2408 26.0893 34.8707 25.3117 34.8707C24.5354 34.8707 23.9054 34.2408 23.9054 33.4647C23.9054 32.6872 24.5354 32.0573 25.3117 32.0573ZM26.7179 28.1344V19.6982C26.7179 18.9221 26.0879 18.2922 25.3117 18.2922C24.5368 18.2922 23.9054 18.9221 23.9054 19.6982V28.1344C23.9054 28.9106 24.5368 29.5405 25.3117 29.5405C26.0879 29.5405 26.7179 28.9106 26.7179 28.1344ZM85.199 28.1344L67.5011 10.4395V22.5103C67.5011 25.6162 70.0183 28.1344 73.1262 28.1344H85.199ZM60.4684 18.2922H56.2496C55.4747 18.2922 54.8433 18.9221 54.8433 19.6982C54.8433 20.4743 55.4747 21.1042 56.2496 21.1042H60.4684C61.2446 21.1042 61.8746 20.4743 61.8746 19.6982C61.8746 18.9221 61.2446 18.2922 60.4684 18.2922Z" fill="black"/>
</svg>
