<svg width="82" height="73" viewBox="0 0 82 73" fill="none" xmlns="http://www.w3.org/2000/svg">
<g clip-path="url(#clip0_2484_2197)">
<path d="M26.7993 43.232H57.5286C58.3128 43.232 58.948 42.6059 58.948 41.8351C58.948 41.0633 58.3128 40.4382 57.5286 40.4382H26.7993C26.0151 40.4382 25.3799 41.0643 25.3799 41.8351C25.3799 42.6068 26.0151 43.232 26.7993 43.232ZM26.7993 49.1307H57.5286C58.3128 49.1307 58.948 48.5046 58.948 47.7338C58.948 46.9621 58.3128 46.3369 57.5286 46.3369H26.7993C26.0151 46.3369 25.3799 46.963 25.3799 47.7338C25.3799 48.5056 26.0151 49.1307 26.7993 49.1307ZM33.3342 31.9603C33.3457 31.9688 33.3582 31.9773 33.3707 31.9858L40.7743 37.0816C41.0184 37.25 41.3039 37.3341 41.5883 37.3341C41.8737 37.3341 42.1592 37.25 42.4033 37.0807L49.7906 31.9849C49.803 31.9764 49.8146 31.9679 49.8271 31.9593C52.0864 30.2939 53.4357 27.641 53.4357 24.8633V15.2807C53.4357 14.7473 53.1272 14.2603 52.639 14.0257L42.1995 9.00368C41.8065 8.81453 41.3461 8.81453 40.9521 9.00368L30.5136 14.0257C30.2748 14.1406 30.0735 14.3191 29.9327 14.541C29.7918 14.7628 29.7171 15.0191 29.7169 15.2807V24.8576C29.7179 27.64 31.07 30.2948 33.3342 31.9603ZM32.5577 16.1537L41.5758 11.8145L50.594 16.1537V24.8633C50.594 26.7586 49.6772 28.5688 48.1395 29.7103L41.5864 34.2311L35.0169 29.7094C33.4764 28.5678 32.5577 26.7567 32.5577 24.8585V16.1537Z" fill="#231F20"/>
<path d="M41.5 17.5V24" stroke="black" stroke-width="2" stroke-linecap="round"/>
<path d="M41.5 29V29.5" stroke="black" stroke-width="2" stroke-linecap="round"/>
<path d="M80.5857 54.166H36.2148C35.4306 54.166 34.7954 54.7921 34.7954 55.5629V61.9468C34.7954 64.1533 33.9228 66.2274 32.3381 67.7869C30.7533 69.3465 28.6468 70.2053 26.4057 70.2053C21.494 70.2053 17.4981 66.2728 17.4981 61.4389V8.61027V8.60081C17.4962 6.36502 16.6226 4.32689 15.1955 2.79569H61.6941C64.9394 2.79569 67.5793 5.39371 67.5793 8.58757V48.429H70.4191V8.58757C70.4191 3.85306 66.5049 0.000945792 61.6941 0.000945792H8.77596C8.76635 0.000945792 8.7577 0 8.74905 0C3.92477 0 0 3.86251 0 8.60932V20.4059C0 21.1776 0.635229 21.8028 1.41941 21.8028H14.6564V61.438C14.6564 67.8125 19.9266 72.9991 26.4038 72.9991H70.7747C76.9665 72.9991 82.0041 68.0404 82.0041 61.9459V55.5619C82.0051 54.7911 81.3699 54.166 80.5857 54.166ZM14.6564 19.009H2.83979V8.60932C2.83979 5.40601 5.48546 2.79947 8.73944 2.79474H8.77596C12.0213 2.80893 14.6574 5.41168 14.6574 8.60838V19.009H14.6564ZM79.1653 61.9468C79.1653 66.5007 75.402 70.2053 70.7757 70.2053H33.8661C34.0285 70.0625 34.189 69.9159 34.3447 69.7626C36.4656 67.6753 37.6342 64.8995 37.6342 61.9468V56.9598H79.1653V61.9468Z" fill="#231F20"/>
<path d="M67.5781 48.429C67.5781 48.6124 67.6148 48.7941 67.6861 48.9636C67.7574 49.1331 67.8619 49.2872 67.9938 49.4169C68.1256 49.5467 68.282 49.6496 68.4543 49.7198C68.6265 49.79 68.8111 49.8262 68.9975 49.8262C69.184 49.8262 69.3686 49.79 69.5408 49.7198C69.713 49.6496 69.8695 49.5467 70.0013 49.4169C70.1331 49.2872 70.2377 49.1331 70.309 48.9636C70.3803 48.7941 70.417 48.6124 70.417 48.429C70.417 48.2455 70.3803 48.0638 70.309 47.8943C70.2377 47.7248 70.1331 47.5707 70.0013 47.441C69.8695 47.3112 69.713 47.2083 69.5408 47.1381C69.3686 47.0679 69.184 47.0317 68.9975 47.0317C68.8111 47.0317 68.6265 47.0679 68.4543 47.1381C68.282 47.2083 68.1256 47.3112 67.9938 47.441C67.8619 47.5707 67.7574 47.7248 67.6861 47.8943C67.6148 48.0638 67.5781 48.2455 67.5781 48.429Z" fill="#231F20"/>
</g>
<defs>
<clipPath id="clip0_2484_2197">
<rect width="82" height="73" fill="white"/>
</clipPath>
</defs>
</svg>
