<svg width="72" height="72" viewBox="0 0 72 72" fill="none" xmlns="http://www.w3.org/2000/svg">
<path d="M31.6374 59.9977H5.45499C3.65098 59.9977 2.1814 58.5312 2.1814 56.7241L2.18447 10.9096H47.999V45.9248C47.999 46.5261 48.4868 47.0169 49.0912 47.0169C49.6956 47.0169 50.1834 46.5291 50.1834 45.9248L50.1803 5.45491C50.1803 2.44828 47.7321 0 44.7254 0L5.45491 0.00306876C2.44828 0.00306876 0 2.45135 0 5.45798V56.7272C0 59.7338 2.44828 62.1821 5.45491 62.1821H31.6342C32.2386 62.1821 32.7264 61.6943 32.7264 61.0899C32.7264 60.4886 32.2386 59.9977 31.6342 59.9977L31.6374 59.9977ZM2.18454 5.45491C2.18454 3.6509 3.65106 2.18132 5.45813 2.18132H44.7286C46.5327 2.18132 48.0022 3.64784 48.0022 5.45491V8.7285H2.18454V5.45491Z" fill="white"/>
<path d="M7.63995 4.36719H6.54776C5.94336 4.36719 5.45557 4.855 5.45557 5.45938C5.45557 6.06071 5.94338 6.55157 6.54776 6.55157H7.63995C8.24435 6.55157 8.73214 6.06376 8.73214 5.45938C8.73214 4.85805 8.24433 4.36719 7.63995 4.36719Z" fill="white"/>
<path d="M13.0916 4.36719H11.9994C11.395 4.36719 10.9072 4.855 10.9072 5.45938C10.9072 6.06071 11.395 6.55157 11.9994 6.55157H13.0916C13.696 6.55157 14.1838 6.06376 14.1838 5.45938C14.1838 4.85805 13.696 4.36719 13.0916 4.36719Z" fill="white"/>
<path d="M18.5462 4.36719H17.454C16.8496 4.36719 16.3618 4.855 16.3618 5.45938C16.3618 6.06071 16.8496 6.55157 17.454 6.55157H18.5462C19.1506 6.55157 19.6384 6.06376 19.6384 5.45938C19.6384 4.85805 19.1506 4.36719 18.5462 4.36719Z" fill="white"/>
<path d="M63.2721 67.637H67.6348C69.4389 67.637 70.9084 66.1704 70.9084 64.3634V42.547C70.9084 40.743 69.4419 39.2734 67.6348 39.2734H63.2721C61.4681 39.2734 59.9985 40.74 59.9985 42.547V64.3634C59.9985 66.1674 61.4651 67.637 63.2721 67.637ZM62.1799 42.547C62.1799 41.9457 62.6677 41.4548 63.2721 41.4548H67.6348C68.2362 41.4548 68.727 41.9457 68.727 42.547V64.3634C68.727 64.9647 68.2392 65.4556 67.6348 65.4556H63.2721C62.6708 65.4556 62.1799 64.9647 62.1799 64.3634V42.547Z" fill="white"/>
<path d="M46.9106 51.2658V64.357C46.9106 66.161 48.3772 67.6306 50.1842 67.6306H54.547C56.351 67.6306 57.8205 66.1641 57.8205 64.357V51.2658C57.8205 49.4618 56.354 47.9922 54.547 47.9922H50.1842C48.3802 47.9922 46.9106 49.4587 46.9106 51.2658ZM55.6358 51.2658V64.357C55.6358 64.9583 55.148 65.4492 54.5436 65.4492H50.1809C49.5795 65.4492 49.0887 64.9583 49.0887 64.357V51.2658C49.0887 50.6645 49.5765 50.1736 50.1809 50.1736H54.5436C55.1449 50.1736 55.6358 50.6645 55.6358 51.2658Z" fill="white"/>
<path d="M37.0929 67.6287H41.4556C43.2597 67.6287 44.7292 66.1621 44.7292 64.3551V59.9923C44.7292 58.1883 43.2627 56.7188 41.4556 56.7188H37.0929C35.2889 56.7188 33.8193 58.1853 33.8193 59.9923V64.3551C33.8193 66.1591 35.2859 67.6287 37.0929 67.6287ZM36.0007 59.9923C36.0007 59.391 36.4885 58.9001 37.0929 58.9001H41.4556C42.057 58.9001 42.5478 59.391 42.5478 59.9923V64.3551C42.5478 64.9564 42.06 65.4473 41.4556 65.4473H37.0929C36.4916 65.4473 36.0007 64.9564 36.0007 64.3551V59.9923Z" fill="white"/>
<path d="M70.9082 69.8125H33.8188C33.2144 69.8125 32.7266 70.3003 32.7266 70.9047C32.7266 71.506 33.2144 71.9969 33.8188 71.9969H70.9082C71.5126 71.9969 72.0004 71.5091 72.0004 70.9047C72.0004 70.3034 71.5126 69.8125 70.9082 69.8125Z" fill="white"/>
<path d="M42.5445 43.6412C42.5445 43.0399 42.0567 42.549 41.4523 42.549H38.1787V24.0063C38.1787 23.4049 37.6909 22.9141 37.0865 22.9141C36.4821 22.9141 35.9943 23.4019 35.9943 24.0063V42.549H26.1767V33.8239C26.1767 33.2226 25.6889 32.7317 25.0845 32.7317C24.4801 32.7317 23.9923 33.2195 23.9923 33.8239V42.549H14.1747V28.3684C14.1747 27.7671 13.6869 27.2762 13.0825 27.2762C12.4781 27.2762 11.9903 27.764 11.9903 28.3684V42.549H8.7167C8.11231 42.549 7.62451 43.0368 7.62451 43.6412C7.62451 44.2425 8.11232 44.7334 8.7167 44.7334H41.4432C42.0476 44.7334 42.5354 44.2456 42.5354 43.6412H42.5445Z" fill="white"/>
<path d="M13.0915 19.6392C11.2875 19.6392 9.81787 21.1057 9.81787 22.9128C9.81787 24.7168 11.2844 26.1864 13.0915 26.1864C14.0149 26.1864 14.8464 25.7998 15.4416 25.1832L21.8475 28.0885C21.8383 28.1806 21.8199 28.2726 21.8199 28.3677C21.8199 30.1717 23.2864 31.6413 25.0935 31.6413C26.8975 31.6413 28.3671 30.1748 28.3671 28.3677C28.3671 27.9781 28.2873 27.613 28.1615 27.2664L35.4051 21.3389C35.8991 21.6396 36.4728 21.8206 37.0925 21.8206C38.8965 21.8206 40.3661 20.3541 40.3661 18.547C40.3661 16.743 38.8996 15.2734 37.0925 15.2734C35.2885 15.2734 33.8189 16.74 33.8189 18.547C33.8189 18.9367 33.8987 19.3018 34.0245 19.6484L26.7809 25.5758C26.2869 25.2752 25.7132 25.0941 25.0935 25.0941C24.17 25.0941 23.3386 25.4807 22.7434 26.0974L16.3374 23.192C16.3466 23.0999 16.3651 23.0079 16.3651 22.9128C16.3651 21.1088 14.8985 19.6392 13.0915 19.6392ZM37.0928 17.4579C37.6941 17.4579 38.185 17.9487 38.185 18.5501C38.185 19.1514 37.6972 19.6422 37.0928 19.6422C36.4915 19.6422 36.0006 19.1514 36.0006 18.5501C36.0006 17.9487 36.4884 17.4579 37.0928 17.4579ZM25.091 27.2755C25.6923 27.2755 26.1832 27.7664 26.1832 28.3677C26.1832 28.969 25.6953 29.4599 25.091 29.4599C24.4896 29.4599 23.9988 28.969 23.9988 28.3677C23.9988 27.7664 24.4866 27.2755 25.091 27.2755ZM13.0922 24.0019C12.4909 24.0019 12.0001 23.511 12.0001 22.9097C12.0001 22.3084 12.4879 21.8175 13.0922 21.8175C13.6936 21.8175 14.1844 22.3084 14.1844 22.9097C14.1844 23.511 13.6966 24.0019 13.0922 24.0019Z" fill="white"/>
<path d="M28.3639 47.9984C28.3639 47.3971 27.8761 46.9062 27.2717 46.9062H11.9994C11.395 46.9062 10.9072 47.3941 10.9072 47.9984C10.9072 48.5998 11.395 49.0906 11.9994 49.0906H27.2717C27.8761 49.0906 28.3639 48.6028 28.3639 47.9984Z" fill="white"/>
<path d="M20.7279 51.2719C20.7279 50.6706 20.2401 50.1797 19.6357 50.1797H11.9994C11.395 50.1797 10.9072 50.6675 10.9072 51.2719C10.9072 51.8732 11.395 52.3641 11.9994 52.3641H19.6357C20.2401 52.3641 20.7279 51.8763 20.7279 51.2719Z" fill="white"/>
<path d="M12.0023 53.4531C11.398 53.4531 10.9102 53.9409 10.9102 54.5453C10.9102 55.1466 11.398 55.6375 12.0023 55.6375H17.4573C18.0617 55.6375 18.5495 55.1497 18.5495 54.5453C18.5495 53.944 18.0616 53.4531 17.4573 53.4531H12.0023Z" fill="white"/>
</svg>
