<svg width="90" height="68" viewBox="0 0 90 68" fill="none" xmlns="http://www.w3.org/2000/svg">
<path fill-rule="evenodd" clip-rule="evenodd" d="M20.5392 5.26331C17.9803 2.68974 14.3196 1.57044 10.7763 2.28385C7.23287 2.99326 4.27551 5.44067 2.88865 8.80634C1.50178 12.172 1.86903 16.0146 3.86923 19.0489C5.86944 22.0833 9.23708 23.9123 12.8508 23.928C17.238 23.9398 21.2034 21.2796 22.887 17.1926C24.5747 13.1017 23.645 8.39228 20.5392 5.26331ZM45.2801 17.327C45.4012 17.0945 45.6005 16.9171 45.8427 16.8304L50.2494 15.1988V15.1949C50.7846 15.0017 51.3745 15.2776 51.5699 15.8136L53.7615 21.9184H53.7654C54.7499 21.7726 55.754 21.9223 56.6525 22.3559C57.8635 22.9431 58.8011 23.9875 59.2583 25.2605V25.2723C59.7232 26.5531 59.6685 27.9641 59.1059 29.2055C58.6918 30.1159 58.016 30.8805 57.1721 31.4046L59.4302 37.6868C59.5239 37.9469 59.5083 38.2307 59.395 38.4789C59.2778 38.7272 59.0708 38.9204 58.8129 39.0149L54.4413 40.5598C54.1913 40.6623 53.91 40.6623 53.6599 40.5598C51.3433 39.5785 48.8664 39.0504 46.3583 38.9952H46.2684C44.9871 38.9755 43.7017 39.074 42.4399 39.2986L42.7485 40.142C42.9516 40.7017 42.9243 41.3244 42.6664 41.8682C42.4086 42.4042 41.9554 42.8219 41.3968 43.0229L41.2132 43.0899L42.7173 47.1769L42.7329 47.2163V47.2202C43.315 48.7848 42.6235 50.5387 41.1389 51.2795C39.6543 52.0204 37.8533 51.5042 36.9743 50.0893L36.9157 49.9947L32.4347 42.1125V42.1164C29.0788 42.0652 26.2425 39.602 25.6917 36.2639C25.1408 32.9297 27.0356 29.6703 30.1922 28.5274C34.0638 27.0653 37.3767 26.0642 40.6624 23.2109H40.6664C42.565 21.5675 44.1316 19.5693 45.2841 17.3269L45.2801 17.327ZM45.9794 20.2316H45.9833C45.0066 21.7253 43.8503 23.0928 42.5415 24.3028L47.0733 36.9456C48.8626 37.0363 50.6323 37.3476 52.3473 37.8718L45.9794 20.2316ZM40.8577 25.7137H40.8616C39.2794 26.9118 37.5526 27.901 35.7243 28.6499L39.1036 37.9863C40.9788 37.3833 42.9205 37.0326 44.8855 36.9419L40.8577 25.7137ZM33.7944 29.3828L30.8956 30.4784H30.8917C29.6611 30.912 28.6531 31.8263 28.0945 33.0165C27.5319 34.2106 27.4694 35.5743 27.9187 36.8117C28.364 38.0532 29.286 39.0582 30.4737 39.606C31.6613 40.1537 33.017 40.2011 34.2358 39.7321L37.162 38.6758L33.7944 29.3828ZM34.9351 41.6826C34.8335 41.7181 34.7359 41.7536 34.6343 41.7851L38.7364 49.0092V49.0052C39.0645 49.4939 39.6935 49.6634 40.217 49.4072C40.7445 49.155 41.0062 48.552 40.8343 47.9885L40.7992 47.886L38.0957 40.5399L34.9431 41.6828L34.9351 41.6826ZM40.4202 39.7554L40.0334 39.8697L40.5022 41.1466L40.7014 41.0717V41.0677C40.7522 41.048 40.7913 41.0126 40.8108 40.9653C40.8304 40.9298 40.8343 40.8865 40.8225 40.8431L40.4241 39.7554L40.4202 39.7554ZM60.5636 29.197L63.7944 29.7921H63.7984C64.0679 29.8473 64.3492 29.7921 64.5797 29.6345C64.8102 29.4808 64.9665 29.2364 65.0133 28.9605C65.0641 28.6846 65.0016 28.4009 64.8375 28.1762C64.6774 27.9477 64.4352 27.794 64.1578 27.7545L60.923 27.1594H60.9269C60.6534 27.1043 60.3721 27.1594 60.1416 27.3171C59.9111 27.4708 59.7549 27.7151 59.7041 27.991C59.6572 28.2669 59.7197 28.5507 59.8799 28.7792C60.044 29.0039 60.2901 29.1576 60.5636 29.197ZM58.6805 31.9321L61.2511 34.1509C61.6848 34.478 62.2982 34.411 62.6497 33.9972C63.0013 33.5834 62.974 32.9647 62.5872 32.5824L60.0166 30.3596C59.5869 29.9892 58.9384 30.0404 58.5672 30.4739C58.2 30.9114 58.2469 31.5656 58.6805 31.9361L58.6805 31.9321ZM59.3212 22.9227L61.5207 20.3295C61.8918 19.8959 61.841 19.2378 61.4113 18.8673C60.9777 18.4929 60.3292 18.5442 59.9619 18.9816L57.7625 21.5749H57.7586C57.5749 21.7837 57.4812 22.0596 57.5007 22.3355C57.5163 22.6153 57.6453 22.8754 57.8562 23.0567C58.0672 23.238 58.3407 23.3247 58.618 23.3011C58.8915 23.2774 59.1454 23.1395 59.3212 22.9227ZM56.6139 21.0192L57.2038 17.685C57.2546 17.4091 57.196 17.1253 57.0397 16.8968C56.8835 16.6682 56.6413 16.5105 56.3678 16.4632C56.0982 16.4159 55.8169 16.479 55.5942 16.6406C55.3677 16.8061 55.2153 17.0504 55.1762 17.3263L54.5863 20.6605C54.5355 20.9364 54.5941 21.2202 54.7504 21.4487C54.9067 21.6773 55.1489 21.835 55.4224 21.8823C55.6919 21.9296 55.9732 21.8665 56.1998 21.7049C56.4225 21.5433 56.5748 21.295 56.6139 21.0192ZM60.8058 25.8864L63.9664 24.7001L63.9703 24.7041C64.4938 24.4991 64.7594 23.908 64.5602 23.3759C64.3649 22.8439 63.7828 22.568 63.2514 22.7611L60.0988 23.9474C59.5675 24.1484 59.294 24.7435 59.4932 25.2795C59.6925 25.8155 60.2824 26.0874 60.8137 25.8904L60.8058 25.8864ZM54.9262 31.2345C53.3362 26.651 51.625 22.0675 49.9881 17.5L47.5112 18.4144L54.6762 38.274L57.1453 37.403L54.9262 31.2345ZM56.4459 29.3783H56.4498C56.7858 29.0906 57.0553 28.7359 57.2389 28.3299C57.9304 26.7851 57.278 24.9682 55.7661 24.2272C55.3676 24.0381 54.9339 23.9356 54.4925 23.9356L56.4498 29.3822L56.4459 29.3783ZM15.312 13.0146L9.42847 16.4236V9.57787L15.312 13.0066V13.0146ZM8.91281 6.88616L17.8827 12.12V12.116C18.035 12.2106 18.164 12.3407 18.2538 12.4983C18.5351 12.9949 18.3671 13.6255 17.8788 13.9131L8.99101 19.0602C8.67456 19.2849 8.26436 19.3125 7.92058 19.1351C7.5807 18.9578 7.36582 18.5991 7.36582 18.2129V7.78063C7.36582 7.41017 7.56116 7.06729 7.8776 6.88207C8.19795 6.69684 8.58863 6.69684 8.90893 6.88601L8.91281 6.88616ZM6.76805 57.8166V24.4435C4.81862 23.3793 3.16992 21.8265 1.98228 19.9388C-1.51034 14.3385 -0.283592 6.98423 4.84202 2.84966C9.96763 -1.28461 17.3515 -0.87862 21.9961 3.79552C22.8907 4.69803 23.6447 5.72277 24.2463 6.8459H82.8273C83.3977 6.8459 83.8587 7.31096 83.8587 7.88237V57.8241H88.9687C89.5352 57.8241 89.9961 58.2852 90 58.8566V63.0421C89.9922 65.7771 87.7966 67.992 85.0892 68H5.5367C2.82548 67.9921 0.629917 65.7772 0.625917 63.0421V58.8566C0.625917 58.2812 1.08691 57.8162 1.65334 57.8162L6.76805 57.8166ZM8.82689 25.3453C9.80748 25.6764 10.8232 25.8853 11.8546 25.968V53.7255C11.8546 54.3009 12.3155 54.7659 12.8859 54.7659H77.7456H77.7417C78.0152 54.7659 78.2769 54.6556 78.4723 54.4625C78.6637 54.2654 78.7731 54.0014 78.7731 53.7255V13.0063C78.7731 12.4349 78.3121 11.9699 77.7418 11.9699H25.7356C25.6574 10.9295 25.4543 9.9047 25.13 8.91556H81.8008V57.8171H8.82707L8.82689 25.3453ZM30.3024 59.897C30.8415 61.0755 32.0096 61.8361 33.2988 61.84H57.3957C58.2122 61.84 58.9975 61.5247 59.5913 60.9612C59.9077 60.6577 60.1577 60.299 60.3335 59.897L30.3024 59.897ZM62.5012 59.897C62.2512 60.8823 61.7316 61.773 60.9971 62.4706C60.0244 63.3968 58.7352 63.9131 57.3951 63.9091H33.2982C30.8721 63.9091 28.7508 62.2617 28.1257 59.897H2.68866V63.0421C2.69648 64.6303 3.97002 65.9152 5.5406 65.9191H85.0891C86.6635 65.9112 87.9333 64.6304 87.9411 63.0421V59.897H62.5012ZM13.9134 25.9639C18.5156 25.554 22.5589 22.7283 24.5557 18.527C25.2159 17.1201 25.6183 15.6028 25.7355 14.0499H76.7106V52.6846H13.9141L13.9134 25.9639Z" fill="white"/>
</svg>
