<svg width="67" height="72" viewBox="0 0 67 72" fill="none" xmlns="http://www.w3.org/2000/svg">
<path d="M8.91047 26.9083C8.45354 26.4442 8.45354 25.6953 8.91047 25.2313L19.3993 14.5789C19.8354 14.1359 20.5382 14.1148 21.002 14.5332L24.6263 17.8167L35.295 6.9816C35.7312 6.53862 36.4339 6.51754 36.8978 6.93589L40.5221 10.216L48.2415 2.37612H47.4038C46.7599 2.37612 46.2372 1.84526 46.2372 1.19136C46.2372 0.537453 46.7599 0.00659525 47.4038 0.00659525H51.0592C51.7031 0.00659525 52.2258 0.537453 52.2258 1.19136V4.90738C52.2258 5.56128 51.7031 6.09214 51.0592 6.09214C50.4154 6.09214 49.8927 5.56128 49.8927 4.90738V4.05308L41.3944 12.6839C40.9582 13.1269 40.2555 13.148 39.7917 12.7296L36.1674 9.44956L25.4987 20.2847C25.0625 20.7277 24.3597 20.7488 23.8959 20.3304L20.2716 17.0468L10.5618 26.9082C10.3333 27.1402 10.0356 27.2562 9.7379 27.2562C9.44019 27.2562 9.13903 27.1402 8.91402 26.9082L8.91047 26.9083ZM16.7026 33.6055C17.3465 33.6055 17.8692 34.1364 17.8692 34.7903V46.6172C17.8692 47.2711 17.3465 47.802 16.7026 47.802H9.73435C9.09049 47.802 8.56779 47.2711 8.56779 46.6172V34.7903C8.56779 34.1364 9.09049 33.6055 9.73435 33.6055H16.7026ZM15.5361 35.9786H10.9044V45.4322H15.5361V35.9786ZM67 67.7496C66.9654 68.9133 66.4946 69.9679 65.6707 70.7238C64.8469 71.5465 63.7564 72 62.5933 72C61.4198 72 60.319 71.5359 59.4917 70.6992L51.8242 62.9086C51.7723 62.8559 51.7307 62.8032 51.6892 62.7434L49.6572 59.7551C47.3241 61.193 44.6412 61.9594 41.8443 61.9594C37.808 61.9594 34.0141 60.3633 31.1614 57.4664C29.6867 55.9687 28.5513 54.2109 27.8036 52.2984H6.47327V55.3184C6.47327 55.9723 5.95056 56.5031 5.3067 56.5031C4.66284 56.5031 4.14014 55.9723 4.14014 55.3184V52.2984H1.16657C0.522704 52.2984 0 51.7676 0 51.1137C0 50.4597 0.522704 49.9289 1.16657 49.9289H4.14014V1.18476C4.14014 0.530858 4.66284 0 5.3067 0C5.95056 0 6.47327 0.530858 6.47327 1.18476V49.9289H27.0876C26.9352 49.2328 26.8349 48.5226 26.7795 47.8019H21.1855C20.5416 47.8019 20.0189 47.2711 20.0189 46.6171V29.3803C20.0189 28.7264 20.5416 28.1955 21.1855 28.1955H28.1468C28.7907 28.1955 29.3134 28.7264 29.3134 29.3803V38.0358C29.85 37.2307 30.4661 36.4713 31.1584 35.7683C31.2588 35.6663 31.3627 35.5644 31.4665 35.4659V23.4671C31.4665 22.8132 31.9892 22.2823 32.6331 22.2823H39.6014C40.2452 22.2823 40.7679 22.8132 40.7679 23.4671V31.314C41.1245 31.2894 41.481 31.2753 41.841 31.2753C42.201 31.2753 42.561 31.2894 42.9141 31.314V15.5568C42.9141 14.9029 43.4368 14.372 44.0806 14.372H51.0489C51.6928 14.372 52.2155 14.9029 52.2155 15.5568V35.4657C52.3193 35.5642 52.4232 35.6661 52.5236 35.7681C55.3795 38.6685 56.951 42.5216 56.951 46.6176C56.951 49.3949 56.2275 52.0598 54.874 54.3906L57.8372 56.4649L57.858 56.4789C57.9168 56.5211 57.9722 56.5668 58.0207 56.6161L65.6916 64.4067C66.557 65.2856 67.0312 66.5055 66.9967 67.7536L67 67.7496ZM45.2541 31.6649C46.8984 32.0481 48.4596 32.709 49.8858 33.6231V16.7408H45.2541V31.6649ZM33.8064 33.6231C35.2326 32.709 36.7938 32.0481 38.4381 31.6649V24.6547H33.8064V33.6266V33.6231ZM22.3552 45.432H26.7827C26.8242 44.8941 26.89 44.3633 26.9869 43.836V30.5645H22.3586V45.4326L22.3552 45.432ZM41.8476 59.5891C45.2573 59.5891 48.4663 58.2391 50.8786 55.7886C53.2914 53.3382 54.6207 50.0792 54.6207 46.6167C54.6207 43.1542 53.2914 39.8948 50.8786 37.4448C48.4658 34.9943 45.2569 33.6443 41.8476 33.6443C38.4378 33.6443 35.2289 34.9943 32.8166 37.4448C30.4038 39.8952 29.0745 43.1542 29.0745 46.6167C29.0745 50.0792 30.4038 53.3386 32.8166 55.7886C35.2294 58.2391 38.4383 59.5891 41.8476 59.5891ZM51.5539 58.3726L52.814 60.2289L55.3825 57.6203L53.5409 56.3336C53.2224 56.7273 52.8867 57.1035 52.5267 57.4691C52.2117 57.789 51.8863 58.0878 51.5539 58.3761V58.3726ZM64.6667 67.6786C64.684 67.081 64.459 66.4974 64.0436 66.0791L57.1999 59.1286L54.3026 62.0712L61.1428 69.0216C61.9424 69.8337 63.244 69.8337 64.0436 69.0216C64.0609 69.004 64.0748 68.99 64.0955 68.9724C64.4486 68.6525 64.6529 68.1954 64.6667 67.6751V67.6786ZM49.6708 54.5656C47.5799 56.6891 44.8037 57.8598 41.8475 57.8598C38.8913 57.8598 36.1115 56.6891 34.0208 54.5656C31.9299 52.4421 30.7772 49.6226 30.7772 46.6203C30.7772 43.618 31.9299 40.7948 34.0208 38.6715C38.334 34.291 45.3541 34.291 49.6707 38.6715C53.9839 43.052 53.984 50.1853 49.6708 54.5656ZM48.023 40.3447C46.3199 38.615 44.0837 37.7501 41.8474 37.7501C39.6112 37.7501 37.375 38.615 35.6718 40.3447C34.0206 42.0216 33.1102 44.247 33.1102 46.6166C33.1102 48.9862 34.0206 51.2116 35.6718 52.8885C37.3196 54.5655 39.5142 55.4901 41.8474 55.4901C44.1806 55.4901 46.3718 54.5655 48.023 52.8885C51.4293 49.4291 51.4293 43.8043 48.023 40.3447Z" fill="white"/>
</svg>
