<svg width="65" height="65" viewBox="0 0 65 65" fill="none" xmlns="http://www.w3.org/2000/svg">
<path d="M8.56176 32.2064L0.833261 39.7118L0.826761 39.7183C0.434514 40.0954 0.16568 40.5826 0.0556499 41.1155C-0.0543802 41.6485 -0.000448999 42.2022 0.210344 42.7039C0.419723 43.2128 0.776219 43.6477 1.2342 43.9528C1.69217 44.2579 2.23079 44.4195 2.78109 44.4167H3.27834C3.52447 49.9325 5.87892 55.1434 9.85571 58.9736C13.8325 62.8038 19.128 64.9611 24.6493 65H29.911C30.8242 64.9995 31.7045 64.6591 32.3805 64.0453C33.0566 63.4314 33.48 62.588 33.5684 61.6791C33.6568 60.7702 33.4038 59.861 32.8588 59.1284C32.3137 58.3957 31.5155 57.8922 30.6195 57.7157L29.3195 57.4654C26.1988 56.8463 23.3574 55.2465 21.2097 52.8992C19.062 50.5519 17.7203 47.58 17.3801 44.4167H18.2392C18.7232 44.4156 19.1985 44.2883 19.6183 44.0473C22.0902 46.8468 25.4029 48.7697 29.0599 49.5276C32.7169 50.2856 36.521 49.8378 39.902 48.2513C43.2829 46.6649 46.0586 44.0253 47.8129 40.7282C49.5671 37.4312 50.2054 33.6543 49.632 29.9639L52.5451 32.7925C53.0688 33.2972 53.7678 33.5792 54.4951 33.5792C55.2224 33.5792 55.9214 33.2972 56.4451 32.7925L64.1736 25.2872L64.1801 25.2807C64.5723 24.9035 64.8412 24.4163 64.9512 23.8834C65.0612 23.3505 65.0073 22.7967 64.7965 22.295C64.587 21.7863 64.2304 21.3517 63.7724 21.0467C63.3145 20.7418 62.7759 20.5805 62.2258 20.5833H61.7285C61.4824 15.0675 59.1279 9.85661 55.1511 6.02638C51.1744 2.19616 45.8788 0.038934 40.3576 7.04678e-07H35.0958C34.1818 -0.00056487 33.3003 0.339335 32.6233 0.953417C31.9463 1.5675 31.5223 2.41173 31.4339 3.32148C31.3456 4.23123 31.5993 5.14127 32.1455 5.87413C32.6917 6.60699 33.4914 7.11013 34.3884 7.28542L35.6884 7.5335C38.809 8.15322 41.65 9.75339 43.7975 12.1008C45.9449 14.4482 47.2865 17.4201 47.6268 20.5833H46.7677C46.2837 20.5844 45.8083 20.7117 45.3886 20.9528C42.916 18.1557 39.6038 16.2351 35.9481 15.4787C32.2923 14.7222 28.4899 15.1706 25.1104 16.7566C21.7308 18.3427 18.9562 20.981 17.2021 24.2764C15.4479 27.5718 14.8087 31.3469 15.3803 35.0361L12.4618 32.2075C11.9383 31.7024 11.2394 31.4201 10.512 31.4199C9.78459 31.4197 9.08548 31.7016 8.56176 32.2064ZM18.2392 42.25H16.2534C15.9661 42.25 15.6906 42.3641 15.4874 42.5673C15.2842 42.7705 15.1701 43.046 15.1701 43.3333C15.2749 47.1997 16.6918 50.9155 19.188 53.8699C21.6841 56.8244 25.1111 58.8419 28.9057 59.5909L30.1959 59.8401C30.539 59.91 30.8477 60.0955 31.0705 60.3656C31.2933 60.6357 31.4167 60.9741 31.4201 61.3242C31.4181 61.7239 31.2585 62.1066 30.9759 62.3891C30.6933 62.6717 30.3106 62.8313 29.911 62.8333H24.6493C19.5157 62.7904 14.6086 60.7135 11.0039 57.0581C7.39927 53.4027 5.39123 48.467 5.42009 43.3333C5.42009 43.046 5.30596 42.7705 5.10279 42.5673C4.89963 42.3641 4.62408 42.25 4.33676 42.25H2.78109C2.66015 42.2548 2.54071 42.2219 2.43924 42.1559C2.33776 42.09 2.25924 41.9941 2.21451 41.8817C2.16883 41.7778 2.1569 41.6623 2.18042 41.5513C2.20394 41.4403 2.26172 41.3395 2.34559 41.2631L10.0784 33.7588C10.1957 33.6447 10.353 33.5808 10.5166 33.5808C10.6803 33.5808 10.8375 33.6447 10.9548 33.7588L18.6779 41.2588C18.7626 41.335 18.8211 41.4361 18.845 41.5476C18.869 41.659 18.8571 41.7752 18.8112 41.8795C18.7666 41.9934 18.6875 42.0904 18.5848 42.1569C18.4822 42.2233 18.3613 42.2559 18.2392 42.25ZM46.7677 22.75H48.7534C49.0407 22.75 49.3163 22.6359 49.5195 22.4327C49.7226 22.2295 49.8368 21.954 49.8368 21.6667C49.7314 17.8 48.3142 14.0842 45.818 11.1294C43.3217 8.17466 39.8948 6.15668 36.1001 5.40692L34.8109 5.15992C34.4678 5.09 34.1591 4.9045 33.9363 4.63438C33.7135 4.36426 33.5901 4.02588 33.5868 3.67575C33.5888 3.27613 33.7484 2.89345 34.031 2.61087C34.3135 2.32829 34.6962 2.16866 35.0958 2.16667H40.3576C45.4912 2.20961 50.3983 4.28647 54.0029 7.9419C57.6076 11.5973 59.6156 16.533 59.5868 21.6667C59.5868 21.954 59.7009 22.2295 59.9041 22.4327C60.1072 22.6359 60.3828 22.75 60.6701 22.75H62.2247C62.3456 22.7452 62.4651 22.7781 62.5665 22.8441C62.668 22.91 62.7465 23.0059 62.7913 23.1183C62.8369 23.2222 62.8489 23.3378 62.8253 23.4487C62.8018 23.5597 62.7441 23.6605 62.6602 23.7369L54.9328 31.2412C54.8154 31.3553 54.6582 31.4192 54.4945 31.4192C54.3309 31.4192 54.1736 31.3553 54.0563 31.2412L46.3333 23.7413C46.2486 23.665 46.1901 23.5639 46.1661 23.4524C46.1422 23.341 46.1541 23.2248 46.2 23.1205C46.2443 23.0074 46.3228 22.9109 46.4246 22.8444C46.5263 22.778 46.6463 22.745 46.7677 22.75ZM17.3368 32.5C17.3322 29.3928 18.2835 26.3594 20.0617 23.8112C21.8398 21.2631 24.3588 19.3236 27.2768 18.2559C30.1948 17.1882 33.3706 17.0439 36.3734 17.8426C39.3762 18.6413 42.0607 20.3444 44.0626 22.7208C43.9539 23.1777 43.9668 23.6551 44.0998 24.1055C44.2329 24.5559 44.4815 24.9637 44.8209 25.2883L46.6626 27.0703C47.3312 28.8024 47.6728 30.6434 47.6701 32.5C47.6747 35.6072 46.7234 38.6406 44.9452 41.1888C43.167 43.7369 40.6481 45.6764 37.7301 46.7441C34.8121 47.8118 31.6362 47.9561 28.6334 47.1574C25.6306 46.3587 22.9462 44.6556 20.9443 42.2793C21.0529 41.8223 21.0401 41.3449 20.907 40.8945C20.774 40.4441 20.5254 40.0363 20.1859 39.7118L18.3443 37.9297C17.6756 36.1976 17.334 34.3566 17.3368 32.5Z" fill="white"/>
<path d="M25.2376 39.7734C25.4407 39.9765 25.7163 40.0906 26.0035 40.0906C26.2908 40.0906 26.5663 39.9765 26.7694 39.7734L39.7694 26.7734C39.9668 26.5691 40.076 26.2955 40.0735 26.0114C40.071 25.7274 39.9571 25.4557 39.7562 25.2548C39.5554 25.0539 39.2837 24.94 38.9996 24.9375C38.7156 24.9351 38.4419 25.0443 38.2376 25.2416L25.2376 38.2416C25.0345 38.4448 24.9204 38.7203 24.9204 39.0075C24.9204 39.2948 25.0345 39.5703 25.2376 39.7734Z" fill="white"/>
<path d="M27.0869 30.3359C27.7297 30.3359 28.3581 30.1453 28.8925 29.7882C29.427 29.4311 29.8435 28.9235 30.0895 28.3297C30.3355 27.7358 30.3999 27.0823 30.2745 26.4519C30.1491 25.8215 29.8395 25.2424 29.385 24.7878C28.9305 24.3333 28.3514 24.0238 27.721 23.8984C27.0905 23.773 26.4371 23.8373 25.8432 24.0833C25.2493 24.3293 24.7418 24.7459 24.3846 25.2803C24.0275 25.8148 23.8369 26.4431 23.8369 27.0859C23.8369 27.9479 24.1793 28.7745 24.7888 29.384C25.3983 29.9935 26.225 30.3359 27.0869 30.3359ZM27.0869 26.0026C27.3012 26.0026 27.5106 26.0661 27.6888 26.1852C27.8669 26.3042 28.0058 26.4734 28.0878 26.6714C28.1698 26.8693 28.1912 27.0871 28.1494 27.2973C28.1076 27.5074 28.0045 27.7005 27.8529 27.852C27.7014 28.0035 27.5084 28.1067 27.2983 28.1485C27.0881 28.1903 26.8703 28.1688 26.6723 28.0868C26.4744 28.0048 26.3052 27.866 26.1862 27.6878C26.0671 27.5097 26.0036 27.3002 26.0036 27.0859C26.0036 26.7986 26.1177 26.5231 26.3209 26.3199C26.524 26.1167 26.7996 26.0026 27.0869 26.0026Z" fill="white"/>
<path d="M34.6699 37.9219C34.6699 38.5647 34.8605 39.193 35.2176 39.7275C35.5748 40.2619 36.0823 40.6785 36.6762 40.9245C37.2701 41.1705 37.9235 41.2348 38.554 41.1094C39.1844 40.984 39.7635 40.6745 40.218 40.22C40.6725 39.7654 40.9821 39.1864 41.1075 38.5559C41.2329 37.9255 41.1685 37.272 40.9225 36.6782C40.6765 36.0843 40.26 35.5767 39.7255 35.2196C39.1911 34.8625 38.5627 34.6719 37.9199 34.6719C37.058 34.6719 36.2313 35.0143 35.6218 35.6238C35.0123 36.2333 34.6699 37.0599 34.6699 37.9219ZM39.0033 37.9219C39.0033 38.1361 38.9397 38.3456 38.8207 38.5237C38.7016 38.7019 38.5324 38.8407 38.3345 38.9227C38.1365 39.0047 37.9187 39.0262 37.7086 38.9844C37.4984 38.9426 37.3054 38.8394 37.1539 38.6879C37.0024 38.5364 36.8992 38.3434 36.8574 38.1332C36.8156 37.9231 36.8371 37.7053 36.9191 37.5073C37.001 37.3093 37.1399 37.1402 37.3181 37.0211C37.4962 36.9021 37.7057 36.8385 37.9199 36.8385C38.2072 36.8385 38.4828 36.9527 38.686 37.1558C38.8891 37.359 39.0033 37.6346 39.0033 37.9219Z" fill="white"/>
<path d="M9.75358 43.3255C9.75358 43.0382 9.63944 42.7627 9.43628 42.5595C9.23311 42.3563 8.95757 42.2422 8.67025 42.2422C8.38293 42.2422 8.10738 42.3563 7.90422 42.5595C7.70105 42.7627 7.58691 43.0382 7.58691 43.3255C7.58946 46.0261 8.21665 48.6895 9.41943 51.1075C10.6222 53.5255 12.368 55.6324 14.5202 57.2637C14.6341 57.349 14.7636 57.4112 14.9014 57.4465C15.0392 57.4818 15.1826 57.4896 15.3235 57.4695C15.4643 57.4493 15.5998 57.4017 15.7222 57.3292C15.8446 57.2567 15.9516 57.1608 16.0369 57.047C16.1223 56.9332 16.1844 56.8037 16.2197 56.6659C16.255 56.5281 16.2628 56.3847 16.2427 56.2438C16.2226 56.103 16.1749 55.9675 16.1024 55.8451C16.0299 55.7227 15.9341 55.6157 15.8202 55.5304C13.9368 54.1012 12.4093 52.2559 11.3569 50.1388C10.3045 48.0216 9.75579 45.6898 9.75358 43.3255Z" fill="white"/>
<path d="M55.2534 21.6705C55.2534 21.9578 55.3676 22.2333 55.5707 22.4365C55.7739 22.6397 56.0494 22.7538 56.3368 22.7538C56.6241 22.7538 56.8996 22.6397 57.1028 22.4365C57.306 22.2333 57.4201 21.9578 57.4201 21.6705C57.4175 18.9699 56.7904 16.3065 55.5876 13.8885C54.3848 11.4705 52.639 9.36355 50.4868 7.7323C50.2569 7.55991 49.968 7.48588 49.6835 7.52652C49.3991 7.56715 49.1425 7.71911 48.9701 7.94896C48.7977 8.17882 48.7237 8.46774 48.7643 8.75217C48.8049 9.0366 48.9569 9.29324 49.1868 9.46563C51.0702 10.8948 52.5977 12.7401 53.6501 14.8572C54.7025 16.9744 55.2512 19.3062 55.2534 21.6705Z" fill="white"/>
</svg>
