<svg width="54" height="62" viewBox="0 0 54 62" fill="none" xmlns="http://www.w3.org/2000/svg">
<path d="M53.1512 0H8.96122C8.84981 -1.26688e-07 8.7395 0.0219582 8.63659 0.064619C8.53367 0.10728 8.44018 0.169806 8.36147 0.248621C8.28275 0.327435 8.22034 0.420992 8.17783 0.523939C8.13531 0.626886 8.11351 0.737203 8.11368 0.84858V7.91965H0.848823C0.624585 7.91965 0.409454 8.00835 0.250415 8.16638C0.0913762 8.32442 0.00135084 8.53895 0 8.76312V61.1514C0 61.3765 0.0894291 61.5923 0.248614 61.7515C0.4078 61.9106 0.623701 62 0.848823 62H45.0388C45.1502 62 45.2605 61.978 45.3634 61.9354C45.4663 61.8927 45.5598 61.8302 45.6385 61.7514C45.7173 61.6726 45.7797 61.579 45.8222 61.4761C45.8647 61.3731 45.8865 61.2628 45.8863 61.1514V54.0803H53.1512C53.3763 54.0803 53.5922 53.9909 53.7514 53.8318C53.9106 53.6727 54 53.4568 54 53.2318V0.84858C54 0.623522 53.9106 0.407683 53.7514 0.248543C53.5922 0.0894037 53.3763 0 53.1512 0ZM44.19 60.3028H1.69637V9.61553H34.4144V18.739C34.4144 18.9638 34.5037 19.1793 34.6627 19.3382C34.8216 19.4971 35.0372 19.5863 35.262 19.5863H44.1963L44.19 60.3028ZM43.019 17.8905H36.1044V10.8437L43.019 17.8905ZM52.3036 52.3832H45.8863V18.739C45.8863 18.7109 45.8863 18.6828 45.8863 18.6547C45.8863 18.6394 45.8863 18.6253 45.8863 18.61C45.8863 18.5946 45.8863 18.5844 45.8863 18.5729C45.8863 18.5614 45.8774 18.5384 45.8735 18.5218L45.8659 18.4924C45.8659 18.4758 45.8544 18.4592 45.848 18.4438L45.8377 18.4144C45.8313 18.4004 45.825 18.3863 45.8173 18.3723C45.813 18.3613 45.8078 18.3506 45.8019 18.3403C45.8019 18.3275 45.7892 18.3173 45.7815 18.3045L45.7598 18.2687L45.7393 18.2419C45.7307 18.2282 45.7213 18.215 45.7112 18.2023L45.6907 18.1806L45.6601 18.1448L35.8769 8.17653L35.8474 8.14969L35.8155 8.12157C35.7955 8.10429 35.7746 8.08808 35.7529 8.07301C35.6367 7.99427 35.5026 7.94594 35.363 7.93243C35.3344 7.93049 35.3058 7.93049 35.2773 7.93243H9.83817V1.69716H52.3036V52.3832Z" fill="white"/>
<path d="M34.9114 27.0429C34.9127 25.1463 34.4629 23.2766 33.5993 21.588C32.7357 19.8994 31.4828 18.4402 29.9442 17.3308C28.4055 16.2214 26.6251 15.4936 24.7497 15.2074C22.8744 14.9211 20.9578 15.0847 19.1581 15.6846C17.3584 16.2844 15.7271 17.3034 14.3988 18.6575C13.0705 20.0116 12.0832 21.6619 11.5184 23.4724C10.9535 25.283 10.8273 27.2018 11.1501 29.0707C11.4729 30.9396 12.2355 32.705 13.375 34.2213L13.4147 34.2788C13.43 34.298 13.4454 34.3146 13.4607 34.3325C14.9833 36.3133 17.088 37.7678 19.4796 38.4918C21.8711 39.2159 24.4294 39.1732 26.7954 38.3697C29.1615 37.5662 31.2165 36.0423 32.672 34.0118C34.1276 31.9813 34.9107 29.5461 34.9114 27.048V27.0429ZM22.0947 16.819V26.6301L14.2814 32.565C13.3306 31.074 12.7812 29.3626 12.6866 27.5969C12.5919 25.8311 12.9553 24.0709 13.7413 22.4868C14.5273 20.9027 15.7094 19.5485 17.173 18.5555C18.6365 17.5625 20.3319 16.9643 22.0947 16.819ZM22.9435 37.3191C21.503 37.3196 20.0786 37.0165 18.7632 36.4297C17.4478 35.8428 16.2709 34.9854 15.3092 33.9133L23.4561 27.7266C23.5613 27.6465 23.6463 27.543 23.7044 27.4243C23.7626 27.3056 23.7922 27.175 23.791 27.0429V16.819C26.4336 17.0361 28.8898 18.2666 30.6456 20.2529C32.4014 22.2392 33.3208 24.8273 33.2113 27.4758C33.1018 30.1243 31.9719 32.6278 30.0581 34.4625C28.1444 36.2971 25.595 37.3207 22.9435 37.3191Z" fill="white"/>
<path d="M18.4096 42.3678H8.38864C8.16939 42.3763 7.96195 42.4694 7.80984 42.6275C7.65772 42.7856 7.57275 42.9964 7.57275 43.2158C7.57275 43.4351 7.65772 43.646 7.80984 43.8041C7.96195 43.9621 8.16939 44.0552 8.38864 44.0637H18.4096C18.5238 44.0681 18.6376 44.0495 18.7444 44.0089C18.8512 43.9683 18.9487 43.9065 19.031 43.8273C19.1133 43.7482 19.1788 43.6532 19.2236 43.5481C19.2683 43.443 19.2914 43.33 19.2914 43.2158C19.2914 43.1016 19.2683 42.9885 19.2236 42.8834C19.1788 42.7784 19.1133 42.6834 19.031 42.6042C18.9487 42.525 18.8512 42.4633 18.7444 42.4227C18.6376 42.382 18.5238 42.3634 18.4096 42.3678Z" fill="white"/>
<path d="M18.4096 46.8522H8.38864C8.16939 46.8607 7.96195 46.9538 7.80984 47.1119C7.65772 47.27 7.57275 47.4808 7.57275 47.7001C7.57275 47.9195 7.65772 48.1303 7.80984 48.2884C7.96195 48.4465 8.16939 48.5396 8.38864 48.5481H18.4096C18.5238 48.5525 18.6376 48.5339 18.7444 48.4932C18.8512 48.4526 18.9487 48.3909 19.031 48.3117C19.1133 48.2325 19.1788 48.1376 19.2236 48.0325C19.2683 47.9274 19.2914 47.8144 19.2914 47.7001C19.2914 47.5859 19.2683 47.4729 19.2236 47.3678C19.1788 47.2627 19.1133 47.1677 19.031 47.0886C18.9487 47.0094 18.8512 46.9477 18.7444 46.907C18.6376 46.8664 18.5238 46.8478 18.4096 46.8522Z" fill="white"/>
<path d="M18.4096 51.3366H8.38864C8.16939 51.3451 7.96195 51.4381 7.80984 51.5962C7.65772 51.7543 7.57275 51.9652 7.57275 52.1845C7.57275 52.4039 7.65772 52.6147 7.80984 52.7728C7.96195 52.9309 8.16939 53.0239 8.38864 53.0325H18.4096C18.5238 53.0369 18.6376 53.0182 18.7444 52.9776C18.8512 52.937 18.9487 52.8753 19.031 52.7961C19.1133 52.7169 19.1788 52.6219 19.2236 52.5168C19.2683 52.4118 19.2914 52.2987 19.2914 52.1845C19.2914 52.0703 19.2683 51.9573 19.2236 51.8522C19.1788 51.7471 19.1133 51.6521 19.031 51.573C18.9487 51.4938 18.8512 51.432 18.7444 51.3914C18.6376 51.3508 18.5238 51.3321 18.4096 51.3366Z" fill="white"/>
<path d="M37.4033 40.5547H26.141C25.9162 40.5547 25.7006 40.644 25.5417 40.8029C25.3828 40.9618 25.2935 41.1773 25.2935 41.402V46.1727C25.2933 46.2841 25.3151 46.3944 25.3576 46.4973C25.4001 46.6003 25.4625 46.6938 25.5412 46.7727C25.62 46.8515 25.7135 46.914 25.8164 46.9567C25.9193 46.9993 26.0296 47.0213 26.141 47.0213H37.4033C37.5147 47.0213 37.625 46.9993 37.7279 46.9567C37.8308 46.914 37.9243 46.8515 38.003 46.7727C38.0817 46.6938 38.1441 46.6003 38.1867 46.4973C38.2292 46.3944 38.251 46.2841 38.2508 46.1727V41.402C38.2508 41.1773 38.1615 40.9618 38.0026 40.8029C37.8436 40.644 37.628 40.5547 37.4033 40.5547ZM36.5544 45.3254H26.9898V42.248H36.5544V45.3254Z" fill="white"/>
<path d="M37.4033 50H26.141C26.0296 50 25.9193 50.022 25.8164 50.0646C25.7135 50.1073 25.62 50.1698 25.5412 50.2486C25.4625 50.3274 25.4001 50.421 25.3576 50.5239C25.3151 50.6269 25.2933 50.7372 25.2935 50.8486V55.6193C25.2935 55.844 25.3828 56.0595 25.5417 56.2184C25.7006 56.3773 25.9162 56.4666 26.141 56.4666H37.4033C37.628 56.4666 37.8436 56.3773 38.0026 56.2184C38.1615 56.0595 38.2508 55.844 38.2508 55.6193V50.8486C38.251 50.7372 38.2292 50.6269 38.1867 50.5239C38.1441 50.421 38.0817 50.3274 38.003 50.2486C37.9243 50.1698 37.8308 50.1073 37.7279 50.0646C37.625 50.022 37.5147 50 37.4033 50ZM36.5544 54.772H26.9898V51.6959H36.5544V54.772Z" fill="white"/>
</svg>
