<svg width="386" height="399" viewBox="0 0 386 399" fill="none" xmlns="http://www.w3.org/2000/svg">
<g clip-path="url(#clip0_2484_5258)">
<path d="M85.739 177.412H85.5771C84.643 177.413 83.7097 177.362 82.7815 177.258L83.0765 174.611C83.8663 174.699 84.6601 174.744 85.4547 174.748H85.5915V176.08L85.9009 177.373L85.739 177.412ZM88.4015 177.258L88.1064 174.608C88.9411 174.514 89.77 174.373 90.589 174.188L91.1791 176.787C90.2625 176.994 89.3352 177.151 88.4015 177.258ZM80.0002 176.795C79.0833 176.586 78.1788 176.325 77.291 176.015L78.1725 173.502C78.9642 173.78 79.7715 174.013 80.5903 174.198L80.0002 176.795ZM93.9063 176.008L93.0213 173.494C93.8133 173.216 94.5892 172.893 95.3455 172.528L96.5077 174.927C95.6609 175.334 94.7925 175.695 93.9063 176.008ZM74.7004 174.931C73.8537 174.522 73.0298 174.068 72.2322 173.57L73.6534 171.311C74.3642 171.759 75.1007 172.166 75.859 172.528L74.7004 174.931ZM98.9435 173.566L97.5043 171.311C98.2167 170.865 98.9026 170.378 99.5587 169.853L101.225 171.936C100.494 172.52 99.7328 173.064 98.9435 173.566ZM69.9044 171.954C69.1706 171.369 68.4691 170.744 67.8031 170.083L69.6885 168.194C70.2847 168.787 70.9129 169.347 71.5702 169.871L69.9044 171.954ZM103.337 170.061L101.462 168.18C102.057 167.586 102.618 166.959 103.142 166.302L105.229 167.964C104.643 168.698 104.016 169.398 103.351 170.061H103.337ZM65.9178 167.99C65.3318 167.256 64.7865 166.491 64.2843 165.698L66.5403 164.262C66.9885 164.972 67.4762 165.657 68.001 166.313L65.9178 167.99ZM106.859 165.673L104.599 164.237C105.048 163.528 105.455 162.795 105.819 162.039L108.226 163.196C107.817 164.046 107.361 164.874 106.859 165.673ZM62.9387 163.239C62.5304 162.394 62.17 161.527 61.8593 160.642L64.3779 159.759C64.6573 160.55 64.9804 161.324 65.3457 162.079L62.9387 163.239ZM109.306 160.614L106.787 159.73C107.063 158.939 107.295 158.134 107.481 157.317L110.086 157.906C109.877 158.822 109.616 159.726 109.306 160.614ZM61.093 157.942C60.8831 157.026 60.7246 156.1 60.618 155.166L63.2733 154.868C63.3668 155.701 63.5074 156.529 63.6943 157.346L61.093 157.942ZM110.554 155.13L107.899 154.836C107.993 154.001 108.04 153.162 108.039 152.322L110.709 152.254V152.322C110.708 153.26 110.657 154.198 110.554 155.13ZM60.4453 152.362V152.329C60.4447 151.403 60.4951 150.478 60.5964 149.557L63.2517 149.848C63.1606 150.672 63.115 151.5 63.115 152.329L60.4453 152.362ZM107.895 149.744C107.799 148.912 107.656 148.086 107.467 147.27L110.068 146.67C110.28 147.584 110.439 148.51 110.547 149.442L107.895 149.744ZM63.6619 147.356L61.057 146.77C61.2635 145.854 61.523 144.95 61.8341 144.063L64.3527 144.943C64.0759 145.737 63.8453 146.546 63.6619 147.367V147.356ZM106.765 144.842C106.48 144.064 106.151 143.303 105.78 142.562L108.183 141.395C108.591 142.241 108.952 143.109 109.262 143.995L106.765 144.842ZM65.317 142.605L62.9099 141.485C63.3175 140.64 63.7727 139.818 64.2735 139.025L66.5331 140.44C66.086 141.146 65.68 141.877 65.317 142.63V142.605ZM104.571 140.332C104.122 139.622 103.634 138.939 103.106 138.285L105.19 136.615C105.774 137.348 106.32 138.112 106.823 138.903L104.571 140.332ZM68.001 138.378L65.9106 136.716C66.497 135.983 67.1228 135.283 67.7852 134.619L69.6777 136.5C69.084 137.094 68.5242 137.721 68.001 138.378ZM101.433 136.439C100.838 135.847 100.21 135.288 99.5516 134.766L101.214 132.679C101.949 133.265 102.652 133.889 103.319 134.55L101.433 136.439ZM71.5702 134.823L69.9008 132.741C70.6343 132.156 71.3994 131.611 72.1927 131.11L73.6318 133.362C72.9083 133.81 72.2104 134.298 71.5414 134.823H71.5702ZM97.5115 133.315C96.8015 132.869 96.0663 132.463 95.3096 132.101L96.4609 129.699C97.3098 130.105 98.135 130.558 98.9327 131.056L97.5115 133.315ZM75.7906 132.148L74.6249 129.749C75.4717 129.343 76.3401 128.984 77.2262 128.672L78.1149 131.186C77.3227 131.463 76.5467 131.784 75.7906 132.148ZM92.9493 131.153C92.1562 130.876 91.3478 130.644 90.5279 130.46L91.1143 127.864C92.0328 128.069 92.9386 128.327 93.8272 128.636L92.9493 131.153ZM80.5327 130.482L79.9355 127.886C80.8517 127.676 81.7791 127.518 82.7131 127.412L83.0153 130.058C82.1809 130.152 81.3521 130.291 80.5327 130.475V130.482ZM88.0453 130.051C87.2257 129.96 86.4017 129.914 85.5771 129.914L85.5303 127.519V127.254C86.4657 127.236 87.4012 127.285 88.3295 127.401L88.0453 130.051Z" fill="#F2D037"/>
<path d="M257.254 153.009H85.0703V152.65C85.2173 129.956 94.353 108.242 110.483 92.2462C126.614 76.2509 148.429 67.2734 171.168 67.2734C193.906 67.2734 215.721 76.2509 231.852 92.2462C247.982 108.242 257.118 129.956 257.265 152.65L257.254 153.009ZM85.7791 152.291H256.535C256.348 105.472 218.123 67.4397 171.166 67.4397C124.209 67.4397 85.9914 105.472 85.7899 152.291H85.7791Z" fill="black"/>
<path d="M216.929 348.363C216.93 348.84 216.789 349.307 216.524 349.704C216.258 350.102 215.881 350.411 215.439 350.595C214.998 350.778 214.511 350.826 214.042 350.733C213.573 350.641 213.142 350.411 212.803 350.074C212.465 349.737 212.234 349.307 212.14 348.838C212.047 348.37 212.095 347.885 212.277 347.444C212.46 347.002 212.77 346.625 213.168 346.36C213.566 346.095 214.033 345.953 214.512 345.953C214.829 345.953 215.143 346.015 215.437 346.136C215.73 346.256 215.996 346.434 216.221 346.658C216.446 346.881 216.624 347.147 216.745 347.44C216.867 347.732 216.929 348.046 216.929 348.363Z" fill="black"/>
<path d="M191.795 308.64C192.461 308.64 193 308.102 193 307.437C193 306.773 192.461 306.234 191.795 306.234C191.129 306.234 190.59 306.773 190.59 307.437C190.59 308.102 191.129 308.64 191.795 308.64Z" fill="black"/>
<path d="M152.518 224.162C152.518 224.501 152.417 224.833 152.228 225.115C152.039 225.398 151.77 225.618 151.456 225.748C151.142 225.878 150.796 225.912 150.462 225.845C150.129 225.779 149.822 225.616 149.582 225.376C149.341 225.135 149.178 224.83 149.111 224.497C149.045 224.164 149.079 223.819 149.209 223.505C149.339 223.191 149.56 222.923 149.842 222.735C150.125 222.546 150.458 222.445 150.798 222.445C151.254 222.445 151.692 222.626 152.014 222.948C152.337 223.27 152.518 223.707 152.518 224.162Z" fill="black"/>
<path d="M134.485 333.285C134.486 333.761 134.345 334.227 134.081 334.623C133.816 335.019 133.44 335.328 133 335.511C132.559 335.693 132.074 335.741 131.607 335.649C131.139 335.556 130.709 335.328 130.371 334.991C130.034 334.655 129.804 334.226 129.711 333.759C129.617 333.293 129.665 332.809 129.847 332.369C130.03 331.929 130.339 331.553 130.735 331.289C131.132 331.024 131.598 330.883 132.075 330.883C132.713 330.883 133.326 331.136 133.778 331.586C134.23 332.037 134.484 332.648 134.485 333.285Z" fill="black"/>
<path d="M170.957 385.255C173.626 385.255 175.789 383.096 175.789 380.432C175.789 377.769 173.626 375.609 170.957 375.609C168.288 375.609 166.125 377.769 166.125 380.432C166.125 383.096 168.288 385.255 170.957 385.255Z" fill="black"/>
<path d="M141.033 296.273C141.699 296.273 142.239 295.735 142.239 295.07C142.239 294.406 141.699 293.867 141.033 293.867C140.368 293.867 139.828 294.406 139.828 295.07C139.828 295.735 140.368 296.273 141.033 296.273Z" fill="black"/>
<path d="M198.746 261.811C200.081 261.811 201.164 260.73 201.164 259.397C201.164 258.065 200.081 256.984 198.746 256.984C197.411 256.984 196.328 258.065 196.328 259.397C196.328 260.73 197.411 261.811 198.746 261.811Z" fill="black"/>
<path d="M171.386 380.544L171.422 380.418L181.903 342.447L165.029 339.359L169.969 379.937L169.872 379.808L143.121 345.334L139.818 347.906L139.793 347.855L131.992 333.244L134.014 333.603L133.028 332.332L133.144 332.353L154.53 336.357L163.708 329.222L160.11 299.776L141.041 295.115L141.063 295.025L160.132 299.672L150.899 224.078L150.982 224.139L198.716 259.27L198.662 259.341L151.015 224.261L160.197 299.693L191.592 307.342L191.772 306.67L191.826 306.764L215.677 347.909H215.58L182.213 341.657L182.004 342.404L214.623 348.326L214.54 348.387L171.386 380.544ZM181.993 342.462L171.541 380.318L214.403 348.39L181.993 342.462ZM143.2 345.281L169.85 379.635L164.935 339.348L153.515 337.258L143.2 345.281ZM182.252 341.542L215.519 347.773L191.812 306.89L191.682 307.364L191.898 307.417L191.603 307.647L182.252 341.542ZM132.168 333.348L139.854 347.766L143.074 345.252L134.104 333.689L132.168 333.348ZM134.237 333.728L143.142 345.22L153.404 337.244L134.237 333.728ZM165.025 339.266L181.935 342.361L182.141 341.614L164.917 338.382L165.025 339.266ZM164.906 338.293L182.177 341.524L191.484 307.748L163.78 329.272L164.906 338.293ZM153.609 337.194L164.924 339.266L164.816 338.382L154.555 336.461L153.609 337.194ZM154.649 336.389L164.806 338.271L163.726 329.322L154.649 336.389ZM134.14 333.635L153.483 337.172L154.429 336.454L133.237 332.486L134.14 333.635ZM160.204 299.801L163.777 329.171L191.517 307.626L191.564 307.46L160.204 299.801ZM191.65 307.464V307.514L191.704 307.475L191.65 307.464Z" fill="black"/>
<path d="M171.422 19.6797H171.062V252.375H171.422V19.6797Z" fill="black"/>
<path d="M355.95 152.469H54.668V152.828H355.95V152.469Z" fill="black"/>
<path d="M171.241 23.9912C174.371 23.9912 176.908 21.4591 176.908 18.3355C176.908 15.2119 174.371 12.6797 171.241 12.6797C168.111 12.6797 165.574 15.2119 165.574 18.3355C165.574 21.4591 168.111 23.9912 171.241 23.9912Z" fill="black"/>
<path d="M254.217 53.4403C254.217 53.6812 254.147 53.9169 254.013 54.1176C253.879 54.3183 253.689 54.4749 253.466 54.5675C253.244 54.6602 252.998 54.6849 252.761 54.6383C252.524 54.5917 252.307 54.4761 252.136 54.306C251.965 54.1359 251.848 53.919 251.801 53.6827C251.754 53.4465 251.778 53.2015 251.87 52.9789C251.962 52.7562 252.118 52.5659 252.319 52.432C252.52 52.2981 252.756 52.2266 252.997 52.2266C253.32 52.2266 253.63 52.3543 253.858 52.5818C254.087 52.8094 254.216 53.1181 254.217 53.4403Z" fill="black"/>
<path d="M294.152 5.65937C295.717 5.65937 296.987 4.39248 296.987 2.82969C296.987 1.26689 295.717 0 294.152 0C292.586 0 291.316 1.26689 291.316 2.82969C291.316 4.39248 292.586 5.65937 294.152 5.65937Z" fill="black"/>
<path d="M295.369 2.82672C295.369 3.06764 295.297 3.30314 295.163 3.50341C295.029 3.70368 294.838 3.8597 294.615 3.95173C294.392 4.04376 294.147 4.06766 293.91 4.0204C293.673 3.97314 293.456 3.85684 293.286 3.68623C293.115 3.51562 292.999 3.29838 292.953 3.062C292.906 2.82563 292.931 2.58075 293.024 2.35837C293.116 2.13599 293.273 1.94612 293.474 1.81279C293.675 1.67946 293.912 1.60867 294.153 1.60938C294.313 1.60938 294.471 1.64089 294.619 1.70211C294.767 1.76333 294.901 1.85306 295.014 1.96615C295.127 2.07924 295.217 2.21346 295.278 2.36114C295.338 2.50881 295.37 2.66703 295.369 2.82672Z" fill="white"/>
<path d="M292.262 5.40227L171.195 152.609L171.334 152.723L292.401 5.51619L292.262 5.40227Z" fill="black"/>
<path d="M292.472 5.3125L291.508 5.72905L292.35 6.35029L292.472 5.3125Z" fill="black"/>
<path opacity="0.19" d="M246.71 12.2109C195.979 12.2109 154.887 53.2414 154.887 103.853C154.887 154.464 195.997 195.498 246.71 195.498C297.424 195.498 338.534 154.467 338.534 103.853C338.534 53.2378 297.424 12.2109 246.71 12.2109ZM246.71 155.735C236.43 155.735 226.38 152.692 217.832 146.992C209.284 141.292 202.622 133.189 198.688 123.71C194.753 114.231 193.724 103.8 195.729 93.7364C197.734 83.673 202.685 74.4291 209.954 67.1736C217.223 59.918 226.484 54.9768 236.567 52.9746C246.65 50.9725 257.101 51.9993 266.6 55.9254C276.098 59.8514 284.216 66.5003 289.928 75.0312C295.64 83.5622 298.689 93.592 298.69 103.853C298.69 110.666 297.346 117.412 294.734 123.707C292.122 130.001 288.294 135.721 283.467 140.539C278.64 145.356 272.91 149.178 266.603 151.786C260.296 154.393 253.537 155.735 246.71 155.735Z" fill="#D4B942"/>
<path d="M278.033 152.328H260.504V153.208H278.033V152.328Z" fill="#DEBC23"/>
<path d="M277.968 148.591L260.445 149.195L260.476 150.078L277.998 149.474L277.968 148.591Z" fill="#DEBC23"/>
<path d="M277.752 144.867L260.266 146.094L260.328 146.975L277.814 145.748L277.752 144.867Z" fill="#DEBC23"/>
<path d="M277.402 141.202L259.965 143.031L260.057 143.91L277.494 142.081L277.402 141.202Z" fill="#DEBC23"/>
<path d="M276.944 137.479L259.582 139.914L259.705 140.785L277.067 138.35L276.944 137.479Z" fill="#DEBC23"/>
<path d="M276.333 133.839L259.066 136.875L259.22 137.745L276.487 134.709L276.333 133.839Z" fill="#DEBC23"/>
<path d="M275.603 130.198L258.453 133.836L258.637 134.7L275.787 131.062L275.603 130.198Z" fill="#DEBC23"/>
<path d="M274.756 126.547L257.746 130.773L257.96 131.631L274.97 127.404L274.756 126.547Z" fill="#DEBC23"/>
<path d="M273.777 122.965L256.926 127.797L257.17 128.646L274.021 123.814L273.777 122.965Z" fill="#DEBC23"/>
<path d="M272.669 119.435L255.996 124.836L256.268 125.673L272.941 120.272L272.669 119.435Z" fill="#DEBC23"/>
<path d="M271.445 115.87L254.977 121.875L255.28 122.705L271.748 116.7L271.445 115.87Z" fill="#DEBC23"/>
<path d="M270.093 112.42L253.844 118.992L254.176 119.811L270.425 113.239L270.093 112.42Z" fill="#DEBC23"/>
<path d="M268.619 108.993L252.609 116.117L252.968 116.921L268.978 109.796L268.619 108.993Z" fill="#DEBC23"/>
<path d="M267.032 105.641L251.277 113.32L251.664 114.111L267.419 106.432L267.032 105.641Z" fill="#DEBC23"/>
<path d="M265.327 102.352L249.848 110.562L250.261 111.339L265.74 103.129L265.327 102.352Z" fill="#DEBC23"/>
<path d="M263.506 99.1072L248.328 107.867L248.769 108.629L263.947 99.8688L263.506 99.1072Z" fill="#DEBC23"/>
<path d="M261.575 95.899L246.711 105.18L247.178 105.926L262.042 96.6448L261.575 95.899Z" fill="#DEBC23"/>
<path d="M259.533 92.8133L245.004 102.602L245.497 103.331L260.026 93.5425L259.533 92.8133Z" fill="#DEBC23"/>
<path d="M257.372 89.7408L243.191 100.031L243.712 100.746L257.893 90.4553L257.372 89.7408Z" fill="#DEBC23"/>
<path d="M255.124 86.8016L241.309 97.5703L241.851 98.2637L255.666 87.495L255.124 86.8016Z" fill="#DEBC23"/>
<path d="M252.773 83.9371L239.344 95.1875L239.91 95.8614L253.339 84.611L252.773 83.9371Z" fill="#DEBC23"/>
<path d="M250.304 81.1059L237.277 92.8125L237.87 93.469L250.896 81.7624L250.304 81.1059Z" fill="#DEBC23"/>
<path d="M247.762 78.4202L235.152 90.5781L235.765 91.2109L248.375 79.053L247.762 78.4202Z" fill="#DEBC23"/>
<path d="M245.119 75.8052L232.938 88.3906L233.574 89.0044L245.756 76.4189L245.119 75.8052Z" fill="#DEBC23"/>
<path d="M242.384 73.2849L230.652 86.2891L231.31 86.8802L243.042 73.876L242.384 73.2849Z" fill="#DEBC23"/>
<path d="M239.564 70.853L228.285 84.25L228.963 84.8183L240.242 71.4213L239.564 70.853Z" fill="#DEBC23"/>
<path d="M236.652 68.5173L225.855 82.3047L226.553 82.8487L237.35 69.0613L236.652 68.5173Z" fill="#DEBC23"/>
<path d="M233.663 66.2992L223.359 80.4531L224.075 80.9724L234.379 66.8184L233.663 66.2992Z" fill="#DEBC23"/>
<path d="M230.772 63.8901L220.953 78.4141L221.685 78.9067L231.503 64.3827L230.772 63.8901Z" fill="#DEBC23"/>
<path d="M227.458 62.1432L218.156 76.9766L218.903 77.4433L228.205 62.6099L227.458 62.1432Z" fill="#DEBC23"/>
<path d="M224.255 60.233L215.48 75.3828L216.244 75.8231L225.018 60.6733L224.255 60.233Z" fill="#DEBC23"/>
<path d="M221.003 58.471L212.766 73.9141L213.544 74.3275L221.781 58.8845L221.003 58.471Z" fill="#DEBC23"/>
<path d="M217.672 56.7827L209.98 72.5078L210.773 72.8938L218.464 57.1686L217.672 56.7827Z" fill="#DEBC23"/>
<path d="M214.291 55.2221L207.148 71.2031L207.953 71.5615L215.096 55.5805L214.291 55.2221Z" fill="#DEBC23"/>
<path d="M210.848 53.7843L204.277 70.0078L205.095 70.3375L211.665 54.1141L210.848 53.7843Z" fill="#DEBC23"/>
<path d="M207.366 52.4727L201.363 68.9141L202.192 69.2153L208.194 52.7739L207.366 52.4727Z" fill="#DEBC23"/>
<path d="M203.837 51.277L198.414 67.9141L199.256 68.1873L204.678 51.5503L203.837 51.277Z" fill="#DEBC23"/>
<path d="M200.274 50.2025L195.441 67.0234L196.292 67.2669L201.125 50.446L200.274 50.2025Z" fill="#DEBC23"/>
<path d="M196.671 49.2505L192.418 66.2266L193.277 66.4409L197.53 49.4648L196.671 49.2505Z" fill="#DEBC23"/>
<path d="M193.03 48.4317L189.379 65.5469L190.245 65.7308L193.896 48.6157L193.03 48.4317Z" fill="#DEBC23"/>
<path d="M189.365 47.728L186.32 64.9609L187.188 65.1137L190.233 47.8808L189.365 47.728Z" fill="#DEBC23"/>
<path d="M185.841 47.2699L183.387 64.5938L184.263 64.7174L186.718 47.3936L185.841 47.2699Z" fill="#DEBC23"/>
<path d="M181.964 46.7211L180.141 64.125L181.021 64.2169L182.844 46.813L181.964 46.7211Z" fill="#DEBC23"/>
<path d="M178.271 46.4188L177.051 63.8752L177.93 63.9365L179.15 46.4801L178.271 46.4188Z" fill="#DEBC23"/>
<path d="M174.539 46.2382L173.934 63.7266L174.815 63.757L175.42 46.2686L174.539 46.2382Z" fill="#DEBC23"/>
<path d="M171.694 46.1875H170.809V63.6863H171.694V46.1875Z" fill="#DEBC23"/>
<path d="M167.955 46.2501L167.074 46.2812L167.695 63.7691L168.576 63.7379L167.955 46.2501Z" fill="#DEBC23"/>
<path d="M164.235 46.4066L163.355 46.4688L164.594 63.9239L165.473 63.8617L164.235 46.4066Z" fill="#DEBC23"/>
<path d="M160.525 46.7204L159.648 46.8125L161.484 64.2151L162.361 64.123L160.525 46.7204Z" fill="#DEBC23"/>
<path d="M156.818 47.1662L155.945 47.2891L158.395 64.6163L159.267 64.4934L156.818 47.1662Z" fill="#DEBC23"/>
<path d="M153.134 47.7454L152.266 47.8984L155.316 65.1303L156.184 64.9773L153.134 47.7454Z" fill="#DEBC23"/>
<path d="M149.479 48.4409L148.613 48.625L152.268 65.7395L153.133 65.5554L149.479 48.4409Z" fill="#DEBC23"/>
<path d="M145.839 49.262L144.98 49.4766L149.24 66.4511L150.098 66.2365L145.839 49.262Z" fill="#DEBC23"/>
<path d="M142.264 49.5662L141.418 49.8125L146.327 66.6114L147.173 66.365L142.264 49.5662Z" fill="#DEBC23"/>
<path d="M138.666 51.2668L137.828 51.5391L143.254 68.1752L144.092 67.9029L138.666 51.2668Z" fill="#DEBC23"/>
<path d="M135.14 52.471L134.309 52.7734L140.31 69.2115L141.141 68.909L135.14 52.471Z" fill="#DEBC23"/>
<path d="M131.657 53.7939L130.836 54.125L137.407 70.3485L138.227 70.0174L131.657 53.7939Z" fill="#DEBC23"/>
<path d="M128.215 55.2339L127.406 55.5938L134.549 71.5747L135.357 71.2149L128.215 55.2339Z" fill="#DEBC23"/>
<path d="M124.839 56.7848L124.043 57.1719L131.725 72.8978L132.52 72.5107L124.839 56.7848Z" fill="#DEBC23"/>
<path d="M121.512 58.4604L120.73 58.875L128.957 74.3238L129.739 73.9092L121.512 58.4604Z" fill="#DEBC23"/>
<path d="M118.239 60.2532L117.473 60.6953L126.245 75.842L127.012 75.3999L118.239 60.2532Z" fill="#DEBC23"/>
<path d="M115.036 62.1411L114.285 62.6094L123.577 77.4445L124.327 76.9763L115.036 62.1411Z" fill="#DEBC23"/>
<path d="M111.902 64.1698L111.168 64.6641L120.977 79.1678L121.711 78.6736L111.902 64.1698Z" fill="#DEBC23"/>
<path d="M109.104 66.1507L108.387 66.6719L118.729 80.843L119.446 80.3218L109.104 66.1507Z" fill="#DEBC23"/>
<path d="M105.853 68.5183L105.156 69.0625L115.958 82.8461L116.655 82.3019L105.853 68.5183Z" fill="#DEBC23"/>
<path d="M102.939 70.8455L102.262 71.4141L113.546 84.8071L114.223 84.2386L102.939 70.8455Z" fill="#DEBC23"/>
<path d="M100.126 73.2602L99.4688 73.8516L111.203 86.849L111.86 86.2576L100.126 73.2602Z" fill="#DEBC23"/>
<path d="M97.3907 75.7927L96.7539 76.4062L108.931 88.996L109.568 88.3824L97.3907 75.7927Z" fill="#DEBC23"/>
<path d="M94.7434 78.4267L94.1289 79.0625L106.747 91.2116L107.362 90.5758L94.7434 78.4267Z" fill="#DEBC23"/>
<path d="M92.1897 81.1324L91.5977 81.7891L104.631 93.4935L105.223 92.8368L92.1897 81.1324Z" fill="#DEBC23"/>
<path d="M89.7243 83.9242L89.1562 84.6016L102.601 95.8332L103.169 95.1558L89.7243 83.9242Z" fill="#DEBC23"/>
<path d="M87.3727 86.8036L86.8281 87.5L100.65 98.2661L101.194 97.5697L87.3727 86.8036Z" fill="#DEBC23"/>
<path d="M85.1131 89.7613L84.5938 90.4766L98.7907 100.745L99.3101 100.029L85.1131 89.7613Z" fill="#DEBC23"/>
<path d="M82.967 92.8141L82.4727 93.5469L97.0166 103.319L97.5109 102.587L82.967 92.8141Z" fill="#DEBC23"/>
<path d="M80.9261 95.9149L80.457 96.6641L95.3257 105.937L95.7948 105.188L80.9261 95.9149Z" fill="#DEBC23"/>
<path d="M78.9896 99.0866L78.5469 99.8516L93.7293 108.604L94.1719 107.839L78.9896 99.0866Z" fill="#DEBC23"/>
<path d="M77.1675 102.348L76.7539 103.125L92.2374 111.335L92.6509 110.558L77.1675 102.348Z" fill="#DEBC23"/>
<path d="M75.4615 105.643L75.0742 106.438L90.8393 114.095L91.2267 113.3L75.4615 105.643Z" fill="#DEBC23"/>
<path d="M73.8751 109.013L73.5156 109.82L89.5377 116.927L89.8971 116.119L73.8751 109.013Z" fill="#DEBC23"/>
<path d="M72.397 112.431L72.0664 113.25L88.3306 119.785L88.6612 118.966L72.397 112.431Z" fill="#DEBC23"/>
<path d="M71.0519 115.904L70.75 116.734L87.2318 122.702L87.5336 121.872L71.0519 115.904Z" fill="#DEBC23"/>
<path d="M69.8279 119.425L69.5547 120.266L86.2313 125.667L86.5045 124.827L69.8279 119.425Z" fill="#DEBC23"/>
<path d="M68.724 122.979L68.4805 123.828L85.3367 128.643L85.5802 127.793L68.724 122.979Z" fill="#DEBC23"/>
<path d="M67.741 126.557L67.5273 127.414L84.5416 131.639L84.7553 130.781L67.741 126.557Z" fill="#DEBC23"/>
<path d="M66.8942 130.19L66.7109 131.055L83.8638 134.678L84.0471 133.814L66.8942 130.19Z" fill="#DEBC23"/>
<path d="M66.1614 133.818L66.0078 134.688L83.2748 137.723L83.4284 136.853L66.1614 133.818Z" fill="#DEBC23"/>
<path d="M65.5596 137.492L65.4375 138.367L82.8027 140.781L82.9248 139.906L65.5596 137.492Z" fill="#DEBC23"/>
<path d="M65.0916 141.192L65 142.07L82.4387 143.881L82.5303 143.003L65.0916 141.192Z" fill="#DEBC23"/>
<path d="M64.7525 144.908L64.6914 145.789L82.1824 146.998L82.2435 146.116L64.7525 144.908Z" fill="#DEBC23"/>
<path d="M64.3664 148.093L64.3398 148.977L81.8727 149.502L81.8993 148.618L64.3664 148.093Z" fill="#DEBC23"/>
<path d="M81.9938 152.318L64.4609 152.336L64.4619 153.219L81.9947 153.201L81.9938 152.318Z" fill="#DEBC23"/>
<path d="M241.547 150.547H217.93V151.139H241.547V150.547Z" fill="#DEBC23"/>
<path d="M249.903 143.073C249.903 143.234 249.855 143.392 249.765 143.526C249.676 143.66 249.548 143.764 249.399 143.826C249.25 143.888 249.085 143.904 248.927 143.872C248.768 143.841 248.623 143.763 248.509 143.649C248.395 143.535 248.317 143.39 248.285 143.232C248.254 143.074 248.27 142.91 248.332 142.761C248.394 142.612 248.498 142.485 248.633 142.395C248.767 142.306 248.925 142.258 249.086 142.258C249.194 142.257 249.3 142.278 249.399 142.319C249.499 142.36 249.589 142.42 249.665 142.496C249.741 142.571 249.801 142.661 249.842 142.76C249.883 142.86 249.903 142.966 249.903 143.073Z" fill="black"/>
<path d="M245.678 143.075C245.678 143.275 245.618 143.471 245.507 143.638C245.395 143.804 245.237 143.934 245.051 144.011C244.866 144.087 244.662 144.107 244.465 144.068C244.268 144.029 244.087 143.933 243.946 143.791C243.804 143.65 243.707 143.469 243.668 143.273C243.629 143.076 243.649 142.873 243.726 142.688C243.802 142.503 243.933 142.344 244.099 142.233C244.266 142.122 244.462 142.062 244.663 142.062C244.796 142.062 244.928 142.089 245.051 142.14C245.174 142.19 245.286 142.265 245.381 142.359C245.475 142.453 245.549 142.565 245.6 142.688C245.651 142.81 245.678 142.942 245.678 143.075Z" fill="black"/>
<path d="M240.244 144.287C240.913 144.287 241.456 143.746 241.456 143.077C241.456 142.409 240.913 141.867 240.244 141.867C239.574 141.867 239.031 142.409 239.031 143.077C239.031 143.746 239.574 144.287 240.244 144.287Z" fill="black"/>
<path d="M237.231 143.072C237.231 143.35 237.148 143.622 236.993 143.854C236.838 144.085 236.618 144.266 236.36 144.372C236.103 144.479 235.819 144.507 235.545 144.452C235.272 144.398 235.02 144.264 234.823 144.067C234.626 143.87 234.492 143.619 234.437 143.346C234.383 143.073 234.411 142.79 234.518 142.533C234.624 142.276 234.805 142.056 235.037 141.901C235.269 141.747 235.542 141.664 235.821 141.664C236.006 141.664 236.189 141.7 236.36 141.771C236.531 141.842 236.687 141.946 236.818 142.076C236.949 142.207 237.053 142.362 237.124 142.533C237.194 142.704 237.231 142.887 237.231 143.072Z" fill="black"/>
<path d="M233.006 143.074C233.006 143.391 232.911 143.702 232.735 143.966C232.558 144.23 232.307 144.435 232.013 144.557C231.719 144.678 231.396 144.71 231.084 144.648C230.772 144.586 230.485 144.433 230.26 144.209C230.035 143.984 229.882 143.698 229.82 143.387C229.758 143.076 229.79 142.753 229.911 142.46C230.033 142.166 230.239 141.916 230.504 141.739C230.768 141.563 231.079 141.469 231.397 141.469C231.609 141.469 231.818 141.51 232.013 141.591C232.208 141.672 232.385 141.79 232.535 141.939C232.684 142.088 232.802 142.265 232.883 142.46C232.964 142.654 233.006 142.863 233.006 143.074Z" fill="black"/>
<path d="M228.785 143.077C228.785 143.432 228.68 143.779 228.482 144.074C228.285 144.37 228.004 144.6 227.675 144.736C227.346 144.871 226.984 144.907 226.636 144.838C226.287 144.768 225.966 144.597 225.714 144.346C225.463 144.095 225.291 143.775 225.222 143.427C225.153 143.079 225.188 142.718 225.324 142.39C225.461 142.062 225.691 141.781 225.987 141.584C226.283 141.387 226.631 141.281 226.986 141.281C227.464 141.281 227.921 141.47 228.259 141.807C228.596 142.144 228.785 142.601 228.785 143.077Z" fill="black"/>
<path d="M224.555 143.078C224.555 143.474 224.437 143.861 224.217 144.19C223.997 144.519 223.683 144.775 223.317 144.927C222.951 145.078 222.547 145.117 222.159 145.04C221.77 144.962 221.413 144.771 221.133 144.491C220.852 144.211 220.662 143.855 220.585 143.466C220.508 143.078 220.548 142.676 220.7 142.31C220.853 141.945 221.11 141.633 221.44 141.413C221.77 141.194 222.158 141.077 222.555 141.078C222.818 141.078 223.078 141.13 223.321 141.23C223.564 141.331 223.785 141.478 223.97 141.664C224.156 141.85 224.303 142.07 224.404 142.313C224.504 142.556 224.555 142.816 224.555 143.078Z" fill="black"/>
<path d="M240.785 147.586C240.785 147.982 240.668 148.368 240.448 148.697C240.228 149.026 239.915 149.283 239.548 149.434C239.182 149.585 238.779 149.625 238.39 149.548C238.002 149.471 237.645 149.28 237.364 149C237.084 148.721 236.893 148.364 236.816 147.976C236.739 147.588 236.778 147.186 236.93 146.821C237.082 146.455 237.338 146.143 237.668 145.923C237.998 145.703 238.385 145.586 238.781 145.586C239.313 145.586 239.823 145.797 240.198 146.172C240.574 146.547 240.785 147.056 240.785 147.586Z" fill="black"/>
<path d="M236.938 147.586C236.938 147.982 236.82 148.368 236.6 148.697C236.38 149.026 236.067 149.283 235.701 149.434C235.334 149.585 234.932 149.625 234.543 149.548C234.154 149.471 233.797 149.28 233.517 149C233.236 148.721 233.046 148.364 232.968 147.976C232.891 147.588 232.931 147.186 233.082 146.821C233.234 146.455 233.491 146.143 233.82 145.923C234.15 145.703 234.537 145.586 234.934 145.586C235.465 145.586 235.975 145.797 236.351 146.172C236.727 146.547 236.938 147.056 236.938 147.586Z" fill="black"/>
<path d="M233.086 147.586C233.086 147.982 232.969 148.368 232.749 148.697C232.528 149.026 232.215 149.283 231.849 149.434C231.483 149.585 231.08 149.625 230.691 149.548C230.302 149.471 229.945 149.28 229.665 149C229.385 148.721 229.194 148.364 229.117 147.976C229.039 147.588 229.079 147.186 229.231 146.821C229.382 146.455 229.639 146.143 229.969 145.923C230.298 145.703 230.686 145.586 231.082 145.586C231.614 145.586 232.123 145.797 232.499 146.172C232.875 146.547 233.086 147.056 233.086 147.586Z" fill="black"/>
<path d="M229.239 147.586C229.239 147.982 229.121 148.368 228.901 148.697C228.681 149.026 228.368 149.283 228.001 149.434C227.635 149.585 227.232 149.625 226.844 149.548C226.455 149.471 226.098 149.28 225.817 149C225.537 148.721 225.346 148.364 225.269 147.976C225.192 147.588 225.231 147.186 225.383 146.821C225.535 146.455 225.792 146.143 226.121 145.923C226.451 145.703 226.838 145.586 227.235 145.586C227.498 145.586 227.758 145.638 228.001 145.738C228.245 145.839 228.466 145.986 228.652 146.172C228.838 146.358 228.985 146.578 229.086 146.821C229.187 147.063 229.239 147.323 229.239 147.586Z" fill="black"/>
<path d="M225.391 147.586C225.391 147.982 225.273 148.368 225.053 148.697C224.833 149.026 224.52 149.283 224.154 149.434C223.788 149.585 223.385 149.625 222.996 149.548C222.607 149.471 222.25 149.28 221.97 149C221.69 148.721 221.499 148.364 221.421 147.976C221.344 147.588 221.384 147.186 221.535 146.821C221.687 146.455 221.944 146.143 222.273 145.923C222.603 145.703 222.991 145.586 223.387 145.586C223.918 145.586 224.428 145.797 224.804 146.172C225.18 146.547 225.391 147.056 225.391 147.586Z" fill="black"/>
<path d="M221.539 147.586C221.539 147.982 221.422 148.368 221.202 148.697C220.981 149.026 220.668 149.283 220.302 149.434C219.936 149.585 219.533 149.625 219.144 149.548C218.756 149.471 218.399 149.28 218.118 149C217.838 148.721 217.647 148.364 217.57 147.976C217.492 147.588 217.532 147.186 217.684 146.821C217.835 146.455 218.092 146.143 218.422 145.923C218.751 145.703 219.139 145.586 219.535 145.586C220.067 145.586 220.577 145.797 220.952 146.172C221.328 146.547 221.539 147.056 221.539 147.586Z" fill="black"/>
<path d="M217.676 147.586C217.676 147.982 217.558 148.369 217.338 148.698C217.118 149.027 216.805 149.283 216.438 149.434C216.072 149.586 215.669 149.625 215.28 149.548C214.891 149.47 214.534 149.279 214.254 148.999C213.974 148.719 213.783 148.362 213.706 147.974C213.629 147.586 213.669 147.184 213.822 146.818C213.974 146.453 214.231 146.141 214.561 145.921C214.891 145.702 215.279 145.585 215.676 145.586C215.939 145.586 216.199 145.638 216.442 145.738C216.685 145.839 216.906 145.986 217.091 146.172C217.277 146.358 217.425 146.578 217.525 146.821C217.625 147.064 217.677 147.324 217.676 147.586Z" fill="black"/>
<path d="M319.274 156.326C319.274 156.419 319.246 156.511 319.194 156.589C319.142 156.667 319.068 156.728 318.981 156.763C318.894 156.799 318.799 156.809 318.706 156.79C318.614 156.772 318.53 156.727 318.463 156.661C318.397 156.594 318.352 156.51 318.333 156.418C318.315 156.326 318.324 156.231 318.36 156.144C318.396 156.058 318.457 155.984 318.535 155.931C318.613 155.879 318.705 155.852 318.799 155.852C318.925 155.852 319.046 155.902 319.135 155.99C319.224 156.079 319.274 156.2 319.274 156.326Z" fill="black"/>
<path d="M312.723 156.326C312.723 156.419 312.695 156.511 312.643 156.589C312.591 156.667 312.517 156.728 312.43 156.763C312.343 156.799 312.248 156.809 312.156 156.79C312.064 156.772 311.979 156.727 311.913 156.661C311.846 156.594 311.801 156.51 311.783 156.418C311.764 156.326 311.774 156.231 311.81 156.144C311.846 156.058 311.906 155.984 311.985 155.931C312.063 155.879 312.154 155.852 312.248 155.852C312.374 155.852 312.495 155.902 312.584 155.99C312.673 156.079 312.723 156.2 312.723 156.326Z" fill="black"/>
<path d="M306.188 156.326C306.188 156.419 306.16 156.511 306.108 156.589C306.056 156.667 305.982 156.728 305.895 156.763C305.808 156.799 305.713 156.809 305.621 156.79C305.528 156.772 305.444 156.727 305.377 156.661C305.311 156.594 305.266 156.51 305.247 156.418C305.229 156.326 305.238 156.231 305.274 156.144C305.31 156.058 305.371 155.984 305.449 155.931C305.527 155.879 305.619 155.852 305.713 155.852C305.776 155.852 305.837 155.864 305.895 155.888C305.953 155.911 306.005 155.946 306.049 155.99C306.093 156.034 306.128 156.087 306.152 156.144C306.176 156.202 306.188 156.263 306.188 156.326Z" fill="black"/>
<path d="M299.622 156.326C299.622 156.419 299.594 156.511 299.542 156.589C299.49 156.667 299.415 156.728 299.329 156.763C299.242 156.799 299.146 156.809 299.054 156.79C298.962 156.772 298.877 156.727 298.811 156.661C298.745 156.594 298.699 156.51 298.681 156.418C298.663 156.326 298.672 156.231 298.708 156.144C298.744 156.058 298.805 155.984 298.883 155.931C298.961 155.879 299.053 155.852 299.147 155.852C299.273 155.852 299.394 155.902 299.483 155.99C299.572 156.079 299.622 156.2 299.622 156.326Z" fill="black"/>
<path d="M293.067 156.326C293.067 156.419 293.039 156.511 292.987 156.589C292.935 156.667 292.861 156.728 292.774 156.763C292.687 156.799 292.592 156.809 292.499 156.79C292.407 156.772 292.323 156.727 292.256 156.661C292.19 156.594 292.145 156.51 292.126 156.418C292.108 156.326 292.117 156.231 292.153 156.144C292.189 156.058 292.25 155.984 292.328 155.931C292.406 155.879 292.498 155.852 292.592 155.852C292.718 155.852 292.839 155.902 292.928 155.99C293.017 156.079 293.067 156.2 293.067 156.326Z" fill="black"/>
<path d="M294.141 158.502C294.141 158.408 294.17 158.317 294.222 158.24C294.275 158.162 294.349 158.102 294.436 158.067C294.523 158.031 294.619 158.022 294.71 158.041C294.802 158.06 294.887 158.105 294.953 158.172C295.019 158.238 295.064 158.322 295.082 158.414C295.1 158.506 295.09 158.601 295.054 158.688C295.018 158.774 294.957 158.848 294.879 158.9C294.801 158.952 294.709 158.98 294.616 158.98C294.553 158.98 294.491 158.967 294.433 158.943C294.375 158.919 294.323 158.884 294.278 158.839C294.234 158.795 294.199 158.742 294.176 158.684C294.152 158.626 294.14 158.564 294.141 158.502Z" fill="black"/>
<path d="M296.598 158.498C296.596 158.381 296.628 158.267 296.692 158.168C296.755 158.07 296.846 157.993 296.954 157.947C297.061 157.9 297.18 157.887 297.295 157.908C297.41 157.929 297.516 157.984 297.6 158.066C297.684 158.147 297.741 158.252 297.765 158.366C297.789 158.481 297.779 158.599 297.735 158.708C297.691 158.816 297.616 158.909 297.519 158.974C297.423 159.04 297.308 159.076 297.191 159.076C297.036 159.077 296.887 159.017 296.776 158.909C296.665 158.801 296.601 158.653 296.598 158.498Z" fill="black"/>
<path d="M299.055 158.499C299.055 158.357 299.097 158.219 299.176 158.1C299.255 157.982 299.367 157.89 299.499 157.836C299.63 157.782 299.775 157.767 299.915 157.795C300.054 157.823 300.182 157.891 300.283 157.992C300.384 158.092 300.452 158.22 300.48 158.359C300.508 158.499 300.494 158.643 300.439 158.774C300.385 158.906 300.292 159.018 300.174 159.097C300.056 159.176 299.917 159.218 299.774 159.218C299.583 159.218 299.4 159.142 299.265 159.007C299.131 158.873 299.055 158.69 299.055 158.499Z" fill="black"/>
<path d="M301.508 158.503C301.509 158.341 301.557 158.183 301.648 158.049C301.738 157.915 301.867 157.81 302.017 157.749C302.167 157.687 302.331 157.672 302.49 157.704C302.649 157.736 302.795 157.814 302.909 157.929C303.024 158.043 303.102 158.189 303.133 158.348C303.164 158.507 303.148 158.671 303.086 158.82C303.024 158.97 302.918 159.097 302.784 159.187C302.649 159.277 302.49 159.325 302.328 159.325C302.22 159.325 302.113 159.304 302.013 159.262C301.914 159.221 301.823 159.16 301.747 159.084C301.671 159.007 301.61 158.917 301.569 158.817C301.528 158.717 301.507 158.61 301.508 158.503Z" fill="black"/>
<path d="M303.969 158.504C303.969 158.319 304.024 158.139 304.126 157.985C304.229 157.832 304.375 157.712 304.546 157.641C304.717 157.571 304.905 157.552 305.087 157.588C305.268 157.624 305.435 157.713 305.566 157.844C305.697 157.974 305.786 158.141 305.822 158.322C305.858 158.503 305.839 158.691 305.768 158.861C305.698 159.032 305.578 159.178 305.424 159.28C305.27 159.383 305.089 159.438 304.904 159.438C304.656 159.438 304.418 159.339 304.243 159.164C304.067 158.989 303.969 158.752 303.969 158.504Z" fill="black"/>
<path d="M306.426 158.502C306.426 158.294 306.487 158.092 306.603 157.919C306.718 157.747 306.882 157.612 307.074 157.533C307.266 157.454 307.478 157.433 307.681 157.473C307.885 157.514 308.072 157.614 308.219 157.76C308.366 157.907 308.466 158.094 308.507 158.297C308.547 158.501 308.527 158.711 308.447 158.903C308.368 159.095 308.233 159.258 308.06 159.374C307.887 159.489 307.684 159.55 307.476 159.55C307.198 159.55 306.931 159.44 306.734 159.243C306.536 159.046 306.426 158.78 306.426 158.502Z" fill="black"/>
<path d="M308.887 158.499C308.887 158.269 308.955 158.044 309.083 157.853C309.211 157.662 309.393 157.513 309.606 157.425C309.819 157.336 310.054 157.313 310.28 157.358C310.506 157.403 310.714 157.514 310.877 157.677C311.04 157.839 311.151 158.047 311.196 158.272C311.241 158.498 311.218 158.732 311.129 158.945C311.041 159.157 310.892 159.339 310.7 159.467C310.508 159.595 310.283 159.663 310.052 159.663C309.899 159.663 309.747 159.634 309.606 159.575C309.464 159.517 309.335 159.431 309.227 159.323C309.119 159.215 309.033 159.087 308.974 158.945C308.916 158.804 308.886 158.652 308.887 158.499Z" fill="black"/>
<path d="M313.754 162.07H313.074V164.031H313.754V162.07Z" fill="black"/>
<path d="M312.477 162.07H311.797V164.031H312.477V162.07Z" fill="black"/>
<path d="M311.203 162.07H310.523V164.031H311.203V162.07Z" fill="black"/>
<path d="M306.102 162.07H305.422V164.031H306.102V162.07Z" fill="black"/>
<path d="M304.828 162.07H304.148V164.031H304.828V162.07Z" fill="black"/>
<path d="M303.551 162.07H302.871V164.031H303.551V162.07Z" fill="black"/>
<path d="M302.278 162.07H301.598V164.031H302.278V162.07Z" fill="black"/>
<path d="M295.907 162.07H295.227V164.031H295.907V162.07Z" fill="black"/>
<path d="M293.356 162.07H292.676V164.031H293.356V162.07Z" fill="black"/>
<path d="M290.809 162.07H290.129V164.031H290.809V162.07Z" fill="black"/>
<path d="M289.532 162.07H288.852V164.031H289.532V162.07Z" fill="black"/>
<path d="M312.729 168.25H312.125V169.992H312.729V168.25Z" fill="black"/>
<path d="M311.597 168.25H310.992V169.992H311.597V168.25Z" fill="black"/>
<path d="M310.464 168.25H309.859V169.992H310.464V168.25Z" fill="black"/>
<path d="M308.202 168.25H307.598V169.992H308.202V168.25Z" fill="black"/>
<path d="M307.069 168.25H306.465V169.992H307.069V168.25Z" fill="black"/>
<path d="M301.405 168.25H300.801V169.992H301.405V168.25Z" fill="black"/>
<path d="M300.276 168.25H299.672V169.992H300.276V168.25Z" fill="black"/>
<path d="M294.612 168.25H294.008V169.992H294.612V168.25Z" fill="black"/>
<path d="M293.479 168.25H292.875V169.992H293.479V168.25Z" fill="black"/>
<path d="M308.774 165.188H308.008V167.396H308.774V165.188Z" fill="black"/>
<path d="M307.337 165.188H306.57V167.396H307.337V165.188Z" fill="black"/>
<path d="M305.903 165.188H305.137V167.396H305.903V165.188Z" fill="black"/>
<path d="M304.466 165.188H303.699V167.396H304.466V165.188Z" fill="black"/>
<path d="M303.032 165.188H302.266V167.396H303.032V165.188Z" fill="black"/>
<path d="M301.591 165.188H300.824V167.396H301.591V165.188Z" fill="black"/>
<path d="M300.157 165.188H299.391V167.396H300.157V165.188Z" fill="black"/>
<path d="M298.719 165.188H297.953V167.396H298.719V165.188Z" fill="black"/>
<path d="M297.286 165.188H296.52V167.396H297.286V165.188Z" fill="black"/>
<path d="M295.848 165.188H295.082V167.396H295.848V165.188Z" fill="black"/>
<path d="M294.415 165.188H293.648V167.396H294.415V165.188Z" fill="black"/>
<path d="M292.973 165.188H292.207V167.396H292.973V165.188Z" fill="black"/>
<path d="M291.54 165.188H290.773V167.396H291.54V165.188Z" fill="black"/>
<path d="M290.102 165.188H289.336V167.396H290.102V165.188Z" fill="black"/>
<path d="M288.669 165.188H287.902V167.396H288.669V165.188Z" fill="black"/>
<path d="M287.231 165.188H286.465V167.396H287.231V165.188Z" fill="black"/>
<path d="M285.798 165.188H285.031V167.396H285.798V165.188Z" fill="black"/>
<path d="M284.356 165.188H283.59V167.396H284.356V165.188Z" fill="black"/>
<path d="M282.923 165.188H282.156V167.396H282.923V165.188Z" fill="black"/>
<path d="M281.485 165.188H280.719V167.396H281.485V165.188Z" fill="black"/>
<path d="M280.052 165.188H279.285V167.396H280.052V165.188Z" fill="black"/>
<path d="M278.614 165.188H277.848V167.396H278.614V165.188Z" fill="black"/>
<path d="M277.177 165.188H276.41V167.396H277.177V165.188Z" fill="black"/>
<path d="M164.527 256.008V266.792H177.959V264.22L164.527 256.008Z" fill="#000002"/>
<path d="M177.959 252.977H164.527V255.602L177.959 263.814V252.977Z" fill="#000002"/>
<path d="M182.123 258.917L180.234 259.961L180.583 260.589L182.472 259.546L182.123 258.917Z" fill="black"/>
<path d="M186.207 257.471L185.848 256.842L189.611 254.785L189.971 255.413L186.207 257.471ZM193.695 253.338L193.335 252.709L197.077 250.641L197.437 251.269L193.695 253.338ZM201.182 249.212L200.822 248.583L204.564 246.515L204.924 247.143L201.182 249.212ZM208.68 245.078L208.321 244.45L212.062 242.389L212.422 243.017L208.68 245.078ZM216.153 240.952L215.794 240.324L219.539 238.259L219.899 238.887L216.153 240.952ZM223.641 236.819L223.281 236.191L227.03 234.129L227.39 234.758L223.641 236.819ZM231.128 232.693L230.768 232.065L234.51 229.996L234.87 230.625L231.128 232.693ZM238.612 228.56L238.252 227.931L241.997 225.863L242.357 226.491L238.612 228.56ZM246.099 224.412L245.739 223.784L249.485 221.715L249.845 222.344L246.099 224.412ZM253.586 220.275L253.227 219.647L256.969 217.582L257.328 218.211L253.586 220.275ZM261.074 216.142L260.714 215.514L264.456 213.449L264.816 214.077L261.074 216.142ZM268.558 212.009L268.198 211.381L271.94 209.316L272.299 209.944L268.558 212.009ZM276.045 207.876L275.685 207.247L279.431 205.183L279.79 205.811L276.045 207.876ZM283.518 203.743L283.158 203.114L286.9 201.046L287.26 201.674L283.518 203.743ZM291.005 199.609L290.645 198.981L294.387 196.913L294.747 197.541L291.005 199.609ZM298.489 195.476L298.129 194.848L301.875 192.779L302.235 193.408L298.489 195.476ZM305.976 191.339L305.617 190.711L309.362 188.646L309.722 189.275L305.976 191.339ZM313.464 187.206L313.104 186.578L316.846 184.513L317.206 185.141L313.464 187.206ZM320.951 183.073L320.591 182.445L324.333 180.38L324.693 181.008L320.951 183.073ZM328.435 178.94L328.075 178.311L331.821 176.243L332.18 176.871L328.435 178.94ZM335.922 174.807L335.562 174.178L339.308 172.11L339.668 172.738L335.922 174.807ZM343.41 170.673L343.05 170.045L346.792 167.977L347.151 168.605L343.41 170.673Z" fill="black"/>
<path d="M352.451 164.863L350.562 165.906L350.911 166.535L352.8 165.491L352.451 164.863Z" fill="black"/>
<path d="M180.763 154.703H180.043V239.54H180.763V154.703Z" fill="black"/>
<path d="M188.317 154.703H187.957V255.071H188.317V154.703Z" fill="black"/>
<path d="M196.231 154.703H195.512V249.415H196.231V154.703Z" fill="black"/>
<path d="M203.97 154.703H203.25V246.452H203.97V154.703Z" fill="black"/>
<path d="M211.524 154.703H211.164V240.527H211.524V154.703Z" fill="black"/>
<path d="M219.215 154.703H218.945V236.936H219.215V154.703Z" fill="black"/>
<path d="M226.997 154.703H226.637V232.089H226.997V154.703Z" fill="black"/>
<path d="M234.911 154.703H234.191V227.151H234.911V154.703Z" fill="black"/>
<path d="M242.422 154.703H242.152V224.188H242.422V154.703Z" fill="black"/>
<path d="M250.384 154.703H249.664V219.341H250.384V154.703Z" fill="black"/>
<path d="M257.938 154.703H257.578V214.403H257.938V154.703Z" fill="black"/>
<path d="M265.629 154.703H265.359V210.722H265.629V154.703Z" fill="black"/>
<path d="M273.411 154.703H273.051V206.593H273.411V154.703Z" fill="black"/>
<path d="M171.344 269.617H170.984V377.346H171.344V269.617Z" fill="black"/>
<path d="M85.6027 152.577L85.2656 152.703L171.094 382.061L171.431 381.935L85.6027 152.577Z" fill="black"/>
<path d="M94.5438 190.52L93.8907 190.766C93.2715 190.999 92.9587 191.688 93.1921 192.306L93.4382 192.958C93.6716 193.576 94.3627 193.889 94.9819 193.656L95.635 193.41C96.2542 193.177 96.567 192.487 96.3337 191.869L96.0875 191.217C95.8541 190.599 95.163 190.287 94.5438 190.52Z" fill="#DEBC23"/>
<path d="M96.1649 194.817L95.5118 195.063C94.8926 195.296 94.5798 195.985 94.8132 196.603L95.0593 197.255C95.2927 197.873 95.9838 198.185 96.603 197.953L97.2562 197.707C97.8753 197.474 98.1881 196.784 97.9548 196.166L97.7086 195.514C97.4752 194.896 96.7841 194.584 96.1649 194.817Z" fill="#DEBC23"/>
<path d="M99.6492 203.957L98.9961 204.203C98.3769 204.436 98.0643 205.126 98.2977 205.744L98.544 206.396C98.7775 207.014 99.4686 207.326 100.088 207.093L100.741 206.847C101.36 206.614 101.673 205.924 101.439 205.306L101.193 204.654C100.96 204.036 100.268 203.724 99.6492 203.957Z" fill="#DEBC23"/>
<path d="M101.462 208.84L100.809 209.086C100.189 209.319 99.8767 210.009 100.11 210.627L100.356 211.279C100.59 211.897 101.281 212.209 101.9 211.976L102.553 211.73C103.172 211.497 103.485 210.808 103.252 210.19L103.005 209.538C102.772 208.92 102.081 208.608 101.462 208.84Z" fill="#DEBC23"/>
<path d="M104.923 218.004L104.27 218.25C103.65 218.483 103.338 219.173 103.571 219.791L103.817 220.443C104.05 221.061 104.742 221.373 105.361 221.14L106.014 220.894C106.633 220.661 106.946 219.972 106.713 219.354L106.466 218.702C106.233 218.084 105.542 217.772 104.923 218.004Z" fill="#DEBC23"/>
<path d="M106.544 222.301L105.891 222.547C105.271 222.78 104.959 223.47 105.192 224.088L105.438 224.74C105.672 225.358 106.363 225.67 106.982 225.437L107.635 225.191C108.254 224.958 108.567 224.268 108.334 223.65L108.088 222.999C107.854 222.381 107.163 222.068 106.544 222.301Z" fill="#DEBC23"/>
<path d="M108.384 227.161L107.731 227.406C107.111 227.639 106.799 228.329 107.032 228.947L107.278 229.599C107.511 230.217 108.203 230.529 108.822 230.296L109.475 230.051C110.094 229.818 110.407 229.128 110.174 228.51L109.927 227.858C109.694 227.24 109.003 226.928 108.384 227.161Z" fill="#DEBC23"/>
<path d="M111.841 236.325L111.188 236.57C110.568 236.803 110.256 237.493 110.489 238.111L110.735 238.763C110.968 239.381 111.66 239.693 112.279 239.46L112.932 239.215C113.551 238.982 113.864 238.292 113.631 237.674L113.384 237.022C113.151 236.404 112.46 236.092 111.841 236.325Z" fill="#DEBC23"/>
<path d="M113.462 240.622L112.809 240.867C112.189 241.1 111.877 241.79 112.11 242.408L112.356 243.06C112.59 243.678 113.281 243.99 113.9 243.757L114.553 243.512C115.172 243.279 115.485 242.589 115.252 241.971L115.005 241.319C114.772 240.701 114.081 240.389 113.462 240.622Z" fill="#DEBC23"/>
<path d="M115.298 245.489L114.645 245.735C114.025 245.967 113.713 246.657 113.946 247.275L114.192 247.927C114.425 248.545 115.117 248.857 115.736 248.624L116.389 248.379C117.008 248.146 117.321 247.456 117.088 246.838L116.841 246.186C116.608 245.568 115.917 245.256 115.298 245.489Z" fill="#DEBC23"/>
<path d="M120.384 258.942L119.731 259.188C119.111 259.421 118.799 260.11 119.032 260.728L119.278 261.38C119.511 261.998 120.203 262.31 120.822 262.077L121.475 261.832C122.094 261.599 122.407 260.909 122.174 260.291L121.927 259.639C121.694 259.021 121.003 258.709 120.384 258.942Z" fill="#DEBC23"/>
<path d="M122.216 263.809L121.563 264.055C120.943 264.288 120.631 264.978 120.864 265.596L121.11 266.247C121.343 266.865 122.035 267.178 122.654 266.945L123.307 266.699C123.926 266.466 124.239 265.776 124.006 265.158L123.759 264.506C123.526 263.888 122.835 263.576 122.216 263.809Z" fill="#DEBC23"/>
<path d="M123.872 268.067L123.219 268.312C122.6 268.545 122.287 269.235 122.52 269.853L122.767 270.505C123 271.123 123.691 271.435 124.31 271.202L124.964 270.956C125.583 270.723 125.895 270.033 125.662 269.416L125.416 268.764C125.182 268.146 124.491 267.834 123.872 268.067Z" fill="#DEBC23"/>
<path d="M127.337 277.231L126.684 277.477C126.064 277.71 125.752 278.399 125.985 279.017L126.231 279.669C126.465 280.287 127.156 280.599 127.775 280.366L128.428 280.12C129.048 279.887 129.36 279.198 129.127 278.58L128.88 277.928C128.647 277.31 127.956 276.998 127.337 277.231Z" fill="#DEBC23"/>
<path d="M111.679 127.094H105.836V132.925H111.679V127.094Z" fill="#000002"/>
<path d="M123.304 117.539H118.469V122.365H123.304V117.539Z" fill="#DEBC23"/>
<path d="M120.675 124.961H114.832V130.793H120.675V124.961Z" fill="#DEBC23"/>
<path d="M161.66 123.242H158.336V126.309H161.66V123.242Z" fill="#DEBC23"/>
<path d="M156.957 123.242H153.633V126.309H156.957V123.242Z" fill="black"/>
<path d="M152.258 123.242H148.934V126.309H152.258V123.242Z" fill="black"/>
<path d="M147.555 123.25H144.23V126.317H147.555V123.25Z" fill="#DEBC23"/>
<path d="M142.856 123.25H139.531V126.317H142.856V123.25Z" fill="black"/>
<path d="M125.246 113.289V126.493H138.472V113.289H125.246ZM137.245 125.265H126.473V114.517H137.245V125.265Z" fill="#000002"/>
<path d="M126.961 115.008V124.779H136.755V115.008H126.961ZM135.844 123.888H127.871V115.916H135.844V123.888Z" fill="#DEBC23"/>
<path d="M112.699 122.828V132.922H122.813V122.828H112.699ZM121.87 131.985H113.638V123.765H121.87V131.985Z" fill="#000002"/>
<path d="M101.102 106.688V121.956H116.396V106.688H101.102ZM114.975 120.538H102.541V108.106H114.993L114.975 120.538Z" fill="#DEBC23"/>
<path d="M134.439 162.797L127.801 158.969L134.439 155.141V162.797Z" fill="#000002"/>
<path d="M124.384 164.715L117.742 160.89L124.384 157.062V164.715Z" fill="#DEBC23"/>
<path d="M140.625 168.999L135.477 166.036L140.625 163.07V168.999Z" fill="#DEBC23"/>
<path d="M131.59 168.335L126.988 165.681L131.59 163.031V168.335Z" fill="#000002"/>
<g opacity="0.13">
<path d="M177.757 367.988V368.153C177.758 369.085 177.706 370.017 177.602 370.943L174.95 370.649C175.038 369.861 175.083 369.068 175.087 368.275V368.139H176.422L177.717 367.83L177.757 367.988ZM177.602 365.331L174.947 365.629C174.853 364.796 174.712 363.969 174.526 363.151L177.131 362.559C177.338 363.474 177.495 364.399 177.602 365.331ZM177.138 373.716C176.929 374.632 176.668 375.536 176.357 376.423L173.839 375.544C174.117 374.753 174.351 373.947 174.537 373.13L177.138 373.716ZM176.35 359.855L173.831 360.738C173.551 359.946 173.228 359.171 172.864 358.415L175.267 357.258C175.675 358.103 176.037 358.97 176.35 359.855ZM175.271 379.023C174.861 379.868 174.406 380.691 173.907 381.487L171.644 380.068C172.093 379.359 172.5 378.624 172.864 377.867L175.271 379.023ZM173.903 354.788L171.644 356.224C171.195 355.514 170.708 354.83 170.183 354.174L172.27 352.511C172.855 353.24 173.4 354 173.903 354.788ZM172.288 383.767C171.702 384.499 171.076 385.199 170.413 385.864L168.521 383.982C169.116 383.388 169.677 382.761 170.201 382.104L172.288 383.767ZM170.392 350.4L168.507 352.288C167.911 351.695 167.283 351.135 166.625 350.611L168.291 348.529C169.025 349.117 169.726 349.745 170.392 350.41V350.4ZM168.316 387.746C167.581 388.332 166.815 388.877 166.02 389.379L164.581 387.124C165.293 386.678 165.979 386.191 166.636 385.666L168.316 387.746ZM165.995 346.909L164.556 349.161C163.845 348.714 163.11 348.308 162.354 347.943L163.513 345.545C164.366 345.952 165.195 346.409 165.995 346.913V346.909ZM163.556 390.744C162.709 391.15 161.84 391.51 160.954 391.821L160.069 389.308C160.861 389.029 161.637 388.706 162.394 388.342L163.556 390.744ZM160.926 344.467L160.041 346.981C159.249 346.704 158.441 346.472 157.623 346.288L158.213 343.688C159.131 343.897 160.037 344.158 160.926 344.471V344.467ZM158.249 392.586C157.331 392.796 156.403 392.953 155.468 393.057L155.169 390.41C156.004 390.317 156.833 390.177 157.651 389.99L158.249 392.586ZM155.432 343.225L155.136 345.875C154.3 345.781 153.459 345.734 152.618 345.735L152.55 343.07H152.618C153.558 343.069 154.497 343.12 155.432 343.225ZM152.654 393.24H152.622C151.694 393.239 150.766 393.188 149.844 393.089L150.135 390.439C150.961 390.529 151.791 390.573 152.622 390.572L152.654 393.24ZM150.035 345.878C149.201 345.973 148.373 346.115 147.556 346.306L146.955 343.706C147.871 343.496 148.798 343.338 149.732 343.232L150.035 345.878ZM147.642 390.022L147.055 392.622C146.137 392.416 145.232 392.158 144.343 391.85L145.224 389.336C146.02 389.611 146.831 389.84 147.653 390.022H147.642ZM145.123 347.006C144.345 347.284 143.582 347.604 142.839 347.965L141.669 345.57C142.516 345.161 143.386 344.801 144.274 344.492L145.123 347.006ZM142.882 388.374L141.723 390.776C140.877 390.37 140.054 389.915 139.259 389.415L140.676 387.16C141.397 387.605 142.142 388.01 142.907 388.374H142.882ZM140.604 349.193C139.894 349.643 139.209 350.132 138.553 350.658L136.88 348.579C137.614 347.993 138.379 347.447 139.172 346.945L140.604 349.193ZM138.622 385.706L136.956 387.789C136.221 387.206 135.52 386.582 134.855 385.921L136.74 384.033C137.345 384.625 137.981 385.183 138.647 385.706H138.622ZM136.722 352.339C136.129 352.933 135.569 353.56 135.045 354.217L132.955 352.558C133.539 351.823 134.165 351.121 134.83 350.457L136.722 352.339ZM135.103 382.162L133.016 383.824C132.429 383.093 131.884 382.329 131.383 381.537L133.639 380.1C134.082 380.814 134.565 381.502 135.085 382.162H135.103ZM133.592 356.267C133.144 356.977 132.738 357.712 132.376 358.468L129.969 357.319C130.374 356.471 130.828 355.648 131.329 354.852L133.592 356.267ZM132.415 377.921L130.012 379.081C129.605 378.237 129.244 377.371 128.933 376.488L131.451 375.601C131.726 376.391 132.044 377.166 132.405 377.921H132.415ZM131.419 360.792C131.141 361.583 130.909 362.39 130.724 363.209L128.123 362.623C128.328 361.708 128.587 360.805 128.897 359.919L131.419 360.792ZM130.746 373.188L128.145 373.784C127.934 372.869 127.776 371.944 127.67 371.012L130.321 370.71C130.412 371.543 130.548 372.37 130.728 373.188H130.746ZM130.314 365.69C130.223 366.508 130.177 367.33 130.177 368.153L127.778 368.196H127.511C127.494 367.262 127.543 366.327 127.659 365.399L130.314 365.69Z" fill="#C4C4C4"/>
<path d="M153.305 196.789V368.649H152.945C130.207 368.503 108.45 359.385 92.4237 343.286C76.3972 327.186 67.4023 305.414 67.4023 282.719C67.4023 260.025 76.3972 238.252 92.4237 222.153C108.45 206.054 130.207 196.936 152.945 196.789H153.305ZM152.585 367.931V197.507C105.675 197.705 67.569 235.855 67.569 282.717C67.569 329.58 105.675 367.748 152.585 367.946V367.931Z" fill="black"/>
<path d="M349.043 237.063C349.522 237.062 349.99 237.203 350.388 237.468C350.786 237.733 351.096 238.109 351.28 238.551C351.463 238.992 351.511 239.477 351.418 239.946C351.325 240.414 351.095 240.844 350.756 241.182C350.418 241.52 349.987 241.75 349.518 241.843C349.048 241.936 348.562 241.887 348.12 241.704C347.678 241.521 347.3 241.211 347.035 240.814C346.769 240.417 346.628 239.95 346.629 239.472C346.628 239.155 346.691 238.842 346.812 238.549C346.933 238.257 347.111 237.991 347.335 237.767C347.559 237.543 347.826 237.366 348.119 237.245C348.412 237.124 348.726 237.062 349.043 237.063Z" fill="black"/>
<path d="M308.037 263.343C308.703 263.343 309.243 262.805 309.243 262.14C309.243 261.476 308.703 260.938 308.037 260.938C307.372 260.938 306.832 261.476 306.832 262.14C306.832 262.805 307.372 263.343 308.037 263.343Z" fill="black"/>
<path d="M224.595 301.344C224.935 301.344 225.267 301.444 225.55 301.633C225.833 301.822 226.054 302.09 226.184 302.403C226.314 302.717 226.348 303.062 226.282 303.395C226.215 303.728 226.051 304.034 225.811 304.274C225.57 304.514 225.264 304.678 224.93 304.744C224.597 304.81 224.251 304.776 223.937 304.646C223.622 304.516 223.354 304.296 223.165 304.014C222.976 303.732 222.875 303.4 222.875 303.06C222.875 302.605 223.056 302.168 223.379 301.847C223.701 301.525 224.139 301.344 224.595 301.344Z" fill="black"/>
<path d="M333.934 324.156C335.265 324.156 336.345 323.078 336.345 321.75C336.345 320.421 335.265 319.344 333.934 319.344C332.603 319.344 331.523 320.421 331.523 321.75C331.523 323.078 332.603 324.156 333.934 324.156Z" fill="black"/>
<path d="M381.172 287.763C383.841 287.763 386.004 285.603 386.004 282.94C386.004 280.276 383.841 278.117 381.172 278.117C378.503 278.117 376.34 280.276 376.34 282.94C376.34 285.603 378.503 287.763 381.172 287.763Z" fill="black"/>
<path d="M296.851 313.02C296.958 312.364 296.512 311.746 295.855 311.639C295.198 311.532 294.578 311.977 294.471 312.633C294.364 313.289 294.81 313.907 295.467 314.014C296.124 314.121 296.743 313.676 296.851 313.02Z" fill="black"/>
<path d="M262.272 255.578C262.488 254.263 261.595 253.022 260.277 252.807C258.959 252.591 257.716 253.483 257.5 254.798C257.284 256.114 258.178 257.354 259.495 257.57C260.813 257.785 262.056 256.893 262.272 255.578Z" fill="black"/>
<path d="M381.282 282.513L381.156 282.477L343.111 272.016L340.006 288.858L380.663 283.924L380.534 284.024L345.993 310.723L348.569 314.02L348.519 314.045L333.89 321.826L334.25 319.808L332.976 320.796L332.997 320.681L337.009 299.333L329.86 290.179L300.357 293.77L295.697 312.824L295.607 312.802L300.263 293.77L224.512 302.96L224.573 302.877L259.772 255.236L259.844 255.289L224.695 302.845L300.274 293.677L307.938 262.342L307.265 262.141L307.358 262.087L348.573 238.297V238.394L342.309 271.697L343.057 271.901L349.001 239.36L349.062 239.442L381.282 282.513ZM343.126 271.926L381.055 282.34L349.066 239.579L343.126 271.926ZM345.95 310.651L380.372 284.046L340.006 288.951L337.912 300.349L345.95 310.651ZM342.205 271.671L348.447 238.473L307.484 262.141L307.959 262.27L308.013 262.055L308.243 262.349L342.205 271.671ZM333.994 321.661L348.44 313.991L345.921 310.777L334.336 319.726L333.994 321.661ZM334.375 319.596L345.889 310.705L337.898 300.467L334.375 319.596ZM339.924 288.869L343.025 271.991L342.277 271.786L339.038 288.976L339.924 288.869ZM338.948 288.987L342.187 271.75L308.344 262.453L329.91 290.104L338.948 288.987ZM337.847 300.252L339.924 288.962L339.042 289.07L337.113 299.311L337.847 300.252ZM337.042 299.218L338.927 289.073L329.961 290.151L337.042 299.218ZM334.282 319.686L337.826 300.378L337.106 299.437L333.131 320.588L334.282 319.686ZM300.382 293.673L329.81 290.104L308.222 262.417L308.056 262.374L300.382 293.673ZM308.06 262.288H308.11L308.071 262.238L308.06 262.288Z" fill="black"/>
<path d="M252.867 282.477H19.7188V282.836H252.867V282.477Z" fill="black"/>
<path d="M153.125 98.3125H152.766V399.01H153.125V98.3125Z" fill="black"/>
<path d="M18.3699 288.312C21.4996 288.312 24.0367 285.779 24.0367 282.656C24.0367 279.532 21.4996 277 18.3699 277C15.2402 277 12.7031 279.532 12.7031 282.656C12.7031 285.779 15.2402 288.312 18.3699 288.312Z" fill="black"/>
<path d="M53.54 202.278C54.2136 202.278 54.7597 201.733 54.7597 201.061C54.7597 200.389 54.2136 199.844 53.54 199.844C52.8664 199.844 52.3203 200.389 52.3203 201.061C52.3203 201.733 52.8664 202.278 53.54 202.278Z" fill="black"/>
<path d="M161.707 104.522C165.15 99.5132 163.872 92.6666 158.853 89.2303C153.834 85.7939 146.974 87.069 143.531 92.0783C140.088 97.0876 141.366 103.934 146.385 107.371C151.404 110.807 158.264 109.532 161.707 104.522Z" fill="black"/>
<path d="M162.344 102.327C164.569 96.9678 162.019 90.8236 156.649 88.6036C151.279 86.3837 145.123 88.9287 142.898 94.2881C140.674 99.6475 143.224 105.792 148.594 108.012C153.964 110.232 160.12 107.687 162.344 102.327Z" fill="white"/>
<path d="M156.196 117.899C157.99 116.108 157.99 113.205 156.196 111.414C154.402 109.623 151.492 109.623 149.698 111.414C147.904 113.205 147.904 116.108 149.698 117.899C151.492 119.69 154.402 119.69 156.196 117.899Z" fill="black"/>
<path d="M2.83519 162.816C4.40103 162.816 5.67039 161.549 5.67039 159.986C5.67039 158.423 4.40103 157.156 2.83519 157.156C1.26936 157.156 0 158.423 0 159.986C0 161.549 1.26936 162.816 2.83519 162.816Z" fill="black"/>
<path d="M2.8369 158.773C3.07813 158.773 3.31395 158.845 3.51453 158.979C3.71511 159.112 3.87144 159.302 3.96376 159.525C4.05608 159.747 4.08023 159.992 4.03317 160.228C3.98611 160.464 3.86994 160.681 3.69936 160.852C3.52878 161.022 3.31145 161.138 3.07485 161.185C2.83825 161.232 2.59301 161.208 2.37013 161.115C2.14726 161.023 1.95677 160.867 1.82275 160.667C1.68872 160.467 1.61719 160.232 1.61719 159.991C1.61719 159.668 1.74569 159.358 1.97443 159.13C2.20317 158.902 2.51341 158.773 2.8369 158.773Z" fill="white"/>
<path d="M5.52429 161.744L5.41016 161.883L152.904 282.714L153.018 282.575L5.52429 161.744Z" fill="black"/>
<path d="M5.32422 161.664L5.74158 162.623L6.36403 161.783L5.32422 161.664Z" fill="black"/>
<path fill-rule="evenodd" clip-rule="evenodd" d="M160.828 114.373C160.824 111.191 161.629 108.06 163.167 105.273C163.411 105.396 163.663 105.51 163.912 105.633C161.958 109.158 161.243 113.234 161.878 117.213C162.514 121.191 164.464 124.843 167.419 127.587C170.374 130.332 174.164 132.011 178.185 132.358C182.207 132.705 186.229 131.699 189.612 129.502C189.828 129.688 190.044 129.861 190.27 130.051C187.423 131.955 184.112 133.051 180.689 133.222C177.267 133.393 173.862 132.633 170.839 131.023C167.816 129.413 165.287 127.014 163.524 124.081C161.761 121.149 160.829 117.793 160.828 114.373ZM195.448 105.424C195.725 105.356 196.002 105.295 196.286 105.241C193.94 101.009 190.058 97.8362 185.438 96.375C185.345 96.6335 185.251 96.8885 185.143 97.1399C189.498 98.5099 193.175 101.468 195.441 105.424H195.448Z" fill="#B1B0B2"/>
<path fill-rule="evenodd" clip-rule="evenodd" d="M163.73 114.375C163.722 111.556 164.468 108.786 165.889 106.35C169.321 107.339 172.985 107.156 176.301 105.831C179.617 104.505 182.394 102.112 184.192 99.0312C188.044 100.153 191.335 102.675 193.417 106.098C191.396 106.95 189.603 108.262 188.182 109.93C186.761 111.599 185.752 113.576 185.236 115.704C184.719 117.832 184.71 120.051 185.209 122.184C185.707 124.316 186.7 126.302 188.106 127.982C185.681 129.468 182.903 130.283 180.058 130.341C177.213 130.399 174.403 129.699 171.92 128.312C169.436 126.926 167.367 124.904 165.927 122.454C164.487 120.005 163.727 117.216 163.727 114.375H163.73Z" fill="#A2A2A4"/>
<path fill-rule="evenodd" clip-rule="evenodd" d="M154.659 90.3844C154.659 87.317 155.569 84.3184 157.277 81.7677C158.984 79.2171 161.41 77.2292 164.25 76.0553C167.089 74.8815 170.214 74.5745 173.228 75.1733C176.242 75.7721 179.011 77.2496 181.183 79.4191C183.356 81.5886 184.835 84.3524 185.434 87.3611C186.032 90.3697 185.723 93.4879 184.546 96.3213C183.368 99.1546 181.375 101.576 178.819 103.278C176.263 104.981 173.258 105.889 170.184 105.887C166.065 105.886 162.114 104.252 159.201 101.345C156.288 98.4384 154.65 94.4959 154.648 90.3844H154.659ZM155.336 90.3844C155.336 93.319 156.208 96.1876 157.842 98.6274C159.475 101.067 161.798 102.969 164.514 104.091C167.231 105.213 170.22 105.506 173.104 104.933C175.987 104.359 178.636 102.945 180.714 100.869C182.792 98.7927 184.206 96.1481 184.778 93.2696C185.35 90.3911 185.054 87.408 183.926 84.6976C182.799 81.9872 180.892 79.6714 178.446 78.0432C176 76.4149 173.125 75.5473 170.184 75.5501C166.245 75.553 162.467 77.1172 159.683 79.899C156.898 82.6808 155.335 86.4523 155.336 90.3844Z" fill="#B1B0B2"/>
<path fill-rule="evenodd" clip-rule="evenodd" d="M183.344 90.3864C183.345 87.7908 182.574 85.2533 181.13 83.0947C179.686 80.9361 177.633 79.2532 175.231 78.259C172.829 77.2647 170.185 77.0036 167.634 77.5088C165.083 78.0139 162.74 79.2626 160.9 81.097C159.06 82.9313 157.806 85.2689 157.297 87.8143C156.788 90.3597 157.047 92.9986 158.041 95.3972C159.034 97.7959 160.718 99.8467 162.879 101.29C165.04 102.734 167.582 103.506 170.183 103.508C173.67 103.504 177.013 102.121 179.48 99.6613C181.947 97.2018 183.336 93.8666 183.344 90.3864Z" fill="#B1B0B2"/>
<path fill-rule="evenodd" clip-rule="evenodd" d="M211.481 119.072C211.481 116.612 210.75 114.206 209.381 112.161C208.011 110.115 206.064 108.521 203.787 107.579C201.509 106.638 199.003 106.392 196.585 106.872C194.167 107.352 191.947 108.537 190.204 110.277C188.461 112.017 187.274 114.234 186.794 116.647C186.313 119.061 186.561 121.562 187.504 123.835C188.448 126.108 190.046 128.05 192.096 129.416C194.146 130.783 196.556 131.512 199.022 131.511C202.325 131.504 205.491 130.192 207.826 127.86C210.161 125.529 211.476 122.369 211.481 119.072Z" fill="#88898B"/>
<path d="M153.503 176.07H152.621V193.566H153.503V176.07Z" fill="#999999"/>
<path d="M149.084 176.895L148.199 176.922L148.725 194.421L149.61 194.394L149.084 176.895Z" fill="#999999"/>
<path d="M146.07 176.29L145.188 176.352L146.416 193.804L147.299 193.742L146.07 176.29Z" fill="#999999"/>
<path d="M142.345 176.611L141.465 176.703L143.298 194.106L144.178 194.014L142.345 176.611Z" fill="#999999"/>
<path d="M138.763 176.869L137.891 176.992L140.345 194.316L141.218 194.193L138.763 176.869Z" fill="#999999"/>
<path d="M134.954 177.62L134.082 177.773L137.124 195.007L137.995 194.854L134.954 177.62Z" fill="#999999"/>
<path d="M131.284 178.324L130.418 178.508L134.063 195.624L134.929 195.441L131.284 178.324Z" fill="#999999"/>
<path d="M127.671 179.123L126.812 179.336L131.047 196.313L131.906 196.1L127.671 179.123Z" fill="#999999"/>
<path d="M124.054 180.076L123.203 180.32L128.045 197.139L128.895 196.895L124.054 180.076Z" fill="#999999"/>
<path d="M120.495 181.142L119.656 181.414L125.07 198.054L125.909 197.782L120.495 181.142Z" fill="#999999"/>
<path d="M116.96 182.337L116.129 182.641L122.146 199.077L122.977 198.774L116.96 182.337Z" fill="#999999"/>
<path d="M113.469 183.668L112.648 184L119.233 200.218L120.054 199.886L113.469 183.668Z" fill="#999999"/>
<path d="M110.036 185.095L109.23 185.453L116.369 201.432L117.174 201.074L110.036 185.095Z" fill="#999999"/>
<path d="M106.648 186.661L105.855 187.047L113.55 202.771L114.342 202.385L106.648 186.661Z" fill="#999999"/>
<path d="M103.321 188.337L102.543 188.75L110.77 204.199L111.548 203.786L103.321 188.337Z" fill="#999999"/>
<path d="M100.056 190.122L99.293 190.562L108.073 205.709L108.836 205.269L100.056 190.122Z" fill="#999999"/>
<path d="M96.8528 192.026L96.1055 192.492L105.404 207.327L106.152 206.861L96.8528 192.026Z" fill="#999999"/>
<path d="M93.7033 194.062L92.9727 194.555L102.78 209.055L103.511 208.563L93.7033 194.062Z" fill="#999999"/>
<path d="M90.6496 196.176L89.9336 196.695L100.242 210.85L100.958 210.331L90.6496 196.176Z" fill="#999999"/>
<path d="M87.6752 198.38L86.9805 198.922L97.7702 212.71L98.4649 212.169L87.6752 198.38Z" fill="#999999"/>
<path d="M84.7611 200.723L84.0859 201.289L95.3582 214.692L96.0334 214.126L84.7611 200.723Z" fill="#999999"/>
<path d="M81.9313 203.167L81.2734 203.758L93.0005 216.761L93.6584 216.17L81.9313 203.167Z" fill="#999999"/>
<path d="M79.1965 205.693L78.5625 206.305L90.744 218.89L91.378 218.279L79.1965 205.693Z" fill="#999999"/>
<path d="M76.5603 208.294L75.9453 208.93L88.5553 221.088L89.1702 220.452L76.5603 208.294Z" fill="#999999"/>
<path d="M74.0024 211.015L73.4102 211.672L86.4396 223.381L87.0319 222.724L74.0024 211.015Z" fill="#999999"/>
<path d="M71.546 213.816L70.9766 214.492L84.3996 225.75L84.969 225.073L71.546 213.816Z" fill="#999999"/>
<path d="M69.1857 216.695L68.6406 217.391L82.4548 228.166L82.9999 227.47L69.1857 216.695Z" fill="#999999"/>
<path d="M66.9304 219.66L66.4102 220.375L80.5916 230.658L81.1119 229.944L66.9304 219.66Z" fill="#999999"/>
<path d="M64.7863 222.677L64.293 223.406L78.8232 233.199L79.3165 232.47L64.7863 222.677Z" fill="#999999"/>
<path d="M62.7373 225.817L62.2695 226.562L77.1301 235.848L77.5979 235.103L62.7373 225.817Z" fill="#999999"/>
<path d="M60.8083 228.965L60.3672 229.727L75.5465 238.484L75.9876 237.722L60.8083 228.965Z" fill="#999999"/>
<path d="M58.9846 232.239L58.5703 233.016L74.0434 241.237L74.4577 240.461L58.9846 232.239Z" fill="#999999"/>
<path d="M57.2812 235.538L56.8945 236.328L72.6503 244.005L73.037 243.214L57.2812 235.538Z" fill="#999999"/>
<path d="M55.695 238.892L55.3359 239.695L71.348 246.824L71.7071 246.02L55.695 238.892Z" fill="#999999"/>
<path d="M54.221 242.317L53.8906 243.133L70.1423 249.689L70.4727 248.874L54.221 242.317Z" fill="#999999"/>
<path d="M52.8694 245.787L52.5664 246.617L69.0398 252.608L69.3428 251.778L52.8694 245.787Z" fill="#999999"/>
<path d="M51.641 249.301L51.3672 250.141L68.0366 255.553L68.3104 254.713L51.641 249.301Z" fill="#999999"/>
<path d="M50.5408 252.862L50.2969 253.711L67.1505 258.534L67.3945 257.685L50.5408 252.862Z" fill="#999999"/>
<path d="M49.5585 256.448L49.3438 257.305L66.3528 261.55L66.5676 260.693L49.5585 256.448Z" fill="#999999"/>
<path d="M48.7078 260.066L48.5234 260.93L65.6719 264.574L65.8562 263.71L48.7078 260.066Z" fill="#999999"/>
<path d="M47.9773 263.72L47.8242 264.586L65.0907 267.625L65.2438 266.758L47.9773 263.72Z" fill="#999999"/>
<path d="M47.3769 267.367L47.2539 268.242L64.6166 270.675L64.7396 269.8L47.3769 267.367Z" fill="#999999"/>
<path d="M46.9085 271.067L46.8164 271.945L64.2542 273.765L64.3462 272.887L46.9085 271.067Z" fill="#999999"/>
<path d="M46.5731 274.794L46.5117 275.672L64.0021 276.889L64.0634 276.012L46.5731 274.794Z" fill="#999999"/>
<path d="M46.3625 278.504L46.332 279.383L63.8544 279.987L63.8849 279.108L46.3625 278.504Z" fill="#999999"/>
<path d="M63.8141 282.203H46.2812V283.087H63.8141V282.203Z" fill="#999999"/>
<path d="M63.8305 285.318L46.3086 285.938L46.3398 286.817L63.8617 286.197L63.8305 285.318Z" fill="#999999"/>
<path d="M63.9977 289.174L46.4648 290.398L46.5265 291.278L64.0594 290.053L63.9977 289.174Z" fill="#999999"/>
<path d="M64.2685 291.519L46.832 293.352L46.9243 294.227L64.3608 292.394L64.2685 291.519Z" fill="#999999"/>
<path d="M64.6188 294.602L47.2578 297.047L47.381 297.918L64.7419 295.474L64.6188 294.602Z" fill="#999999"/>
<path d="M65.074 297.682L47.8086 300.727L47.962 301.593L65.2274 298.548L65.074 297.682Z" fill="#999999"/>
<path d="M65.6517 300.743L48.5039 304.391L48.6884 305.255L65.8362 301.607L65.6517 300.743Z" fill="#999999"/>
<path d="M66.3662 303.754L49.3594 308.008L49.5745 308.865L66.5814 304.611L66.3662 303.754Z" fill="#999999"/>
<path d="M67.1332 306.788L50.2812 311.617L50.5245 312.463L67.3765 307.634L67.1332 306.788Z" fill="#999999"/>
<path d="M68.1489 309.436L51.4961 314.859L51.7694 315.695L68.4222 310.272L68.1489 309.436Z" fill="#999999"/>
<path d="M69.0325 312.706L52.5625 318.695L52.8655 319.525L69.3355 313.536L69.0325 312.706Z" fill="#999999"/>
<path d="M70.1261 315.622L53.8711 322.18L54.2028 322.999L70.4578 316.441L70.1261 315.622Z" fill="#999999"/>
<path d="M71.3324 318.481L55.3203 325.609L55.6809 326.416L71.693 319.288L71.3324 318.481Z" fill="#999999"/>
<path d="M72.6472 321.302L56.8906 328.969L57.2785 329.763L73.035 322.096L72.6472 321.302Z" fill="#999999"/>
<path d="M74.0492 324.086L58.5703 332.297L58.9857 333.077L74.4646 324.866L74.0492 324.086Z" fill="#999999"/>
<path d="M75.7309 328.229L60.4805 336.977L60.923 337.745L76.1735 328.997L75.7309 328.229Z" fill="#999999"/>
<path d="M77.2866 330.157L62.3867 339.43L62.8558 340.181L77.7557 330.908L77.2866 330.157Z" fill="#999999"/>
<path d="M79.0757 332.458L64.5234 342.258L65.0191 342.991L79.5714 333.192L79.0757 332.458Z" fill="#999999"/>
<path d="M80.6097 334.631L66.4336 344.922L66.9542 345.636L81.1303 335.345L80.6097 334.631Z" fill="#999999"/>
<path d="M82.4511 337.149L68.6406 347.93L69.1859 348.626L82.9963 337.845L82.4511 337.149Z" fill="#999999"/>
<path d="M84.4152 339.55L70.9961 350.812L71.5657 351.489L84.9849 340.227L84.4152 339.55Z" fill="#999999"/>
<path d="M86.4446 341.922L73.4219 353.633L74.0144 354.289L87.037 342.578L86.4446 341.922Z" fill="#999999"/>
<path d="M88.5634 344.206L75.9492 356.359L76.564 356.995L89.1782 344.841L88.5634 344.206Z" fill="#999999"/>
<path d="M90.7352 346.429L78.5625 359.023L79.1995 359.637L91.3722 347.043L90.7352 346.429Z" fill="#999999"/>
<path d="M93.0124 348.554L81.2852 361.562L81.9431 362.153L93.6703 349.145L93.0124 348.554Z" fill="#999999"/>
<path d="M95.359 350.581L84.1055 364L84.7842 364.567L96.0377 351.148L95.359 350.581Z" fill="#999999"/>
<path d="M97.7597 352.58L86.9727 366.375L87.6704 366.919L98.4575 353.124L97.7597 352.58Z" fill="#999999"/>
<path d="M100.232 354.473L89.9414 368.641L90.658 369.159L100.949 354.992L100.232 354.473Z" fill="#999999"/>
<path d="M102.776 356.273L92.9844 370.789L93.7186 371.282L103.51 356.767L102.776 356.273Z" fill="#999999"/>
<path d="M105.389 357.973L96.0977 372.812L96.8483 373.281L106.139 358.441L105.389 357.973Z" fill="#999999"/>
<path d="M108.062 359.558L99.293 374.711L100.059 375.153L108.828 360L108.062 359.558Z" fill="#999999"/>
<path d="M110.777 361.086L102.551 376.539L103.329 376.952L111.555 361.498L110.777 361.086Z" fill="#999999"/>
<path d="M113.535 362.484L105.863 378.219L106.659 378.605L114.331 362.871L113.535 362.484Z" fill="#999999"/>
<path d="M116.351 363.837L109.23 379.828L110.039 380.187L117.159 364.196L116.351 363.837Z" fill="#999999"/>
<path d="M119.219 365.078L120.039 365.405L113.473 381.632L112.652 381.302L119.219 365.078Z" fill="#999999"/>
<path d="M122.116 366.199L116.137 382.648L116.969 382.95L122.948 366.5L122.116 366.199Z" fill="#999999"/>
<path d="M125.058 367.199L119.648 383.844L120.49 384.116L125.9 367.471L125.058 367.199Z" fill="#999999"/>
<path d="M128.163 370.193L123.254 386.992L124.104 387.24L129.013 370.441L128.163 370.193Z" fill="#999999"/>
<path d="M131.037 368.972L126.805 385.953L127.664 386.166L131.896 369.185L131.037 368.972Z" fill="#999999"/>
<path d="M134.072 369.701L130.441 386.82L131.307 387.003L134.938 369.884L134.072 369.701Z" fill="#999999"/>
<path d="M137.127 370.282L134.086 387.516L134.958 387.669L137.999 370.435L137.127 370.282Z" fill="#999999"/>
<path d="M140.326 371.629L137.871 388.953L138.747 389.077L141.202 371.753L140.326 371.629Z" fill="#999999"/>
<path d="M143.287 371.197L141.473 388.602L142.353 388.693L144.167 371.288L143.287 371.197Z" fill="#999999"/>
<path d="M146.394 371.496L145.184 388.953L146.067 389.014L147.277 371.557L146.394 371.496Z" fill="#999999"/>
<path d="M149.501 371.667L148.914 389.156L149.799 389.186L150.386 371.697L149.501 371.667Z" fill="#999999"/>
<path d="M153.51 371.726L152.625 371.727L152.643 389.225L153.528 389.224L153.51 371.726Z" fill="#999999"/>
<path d="M151.43 212.484H150.836V236.056H151.43V212.484Z" fill="black"/>
<path d="M143.352 204.148C143.514 204.148 143.673 204.195 143.809 204.285C143.944 204.374 144.05 204.502 144.112 204.651C144.175 204.801 144.192 204.966 144.161 205.125C144.129 205.284 144.051 205.43 143.937 205.545C143.822 205.66 143.676 205.738 143.517 205.77C143.358 205.802 143.193 205.786 143.042 205.724C142.892 205.662 142.764 205.557 142.674 205.422C142.583 205.288 142.535 205.129 142.535 204.967C142.535 204.86 142.555 204.753 142.596 204.654C142.637 204.555 142.697 204.465 142.773 204.388C142.849 204.312 142.939 204.252 143.039 204.211C143.138 204.17 143.244 204.148 143.352 204.148Z" fill="black"/>
<path d="M143.354 208.359C143.556 208.359 143.753 208.418 143.921 208.529C144.089 208.64 144.22 208.799 144.298 208.984C144.375 209.17 144.396 209.374 144.357 209.572C144.318 209.769 144.222 209.95 144.079 210.093C143.937 210.235 143.756 210.333 143.558 210.372C143.36 210.412 143.156 210.392 142.969 210.315C142.783 210.238 142.624 210.108 142.512 209.941C142.4 209.773 142.34 209.577 142.34 209.376C142.34 209.107 142.447 208.849 142.637 208.658C142.827 208.468 143.085 208.36 143.354 208.359Z" fill="black"/>
<path d="M144.473 214.238C144.728 213.619 144.432 212.912 143.812 212.658C143.193 212.405 142.485 212.7 142.23 213.318C141.976 213.936 142.272 214.643 142.891 214.897C143.511 215.151 144.219 214.856 144.473 214.238Z" fill="black"/>
<path d="M143.352 216.797C143.631 216.797 143.903 216.879 144.135 217.034C144.367 217.189 144.548 217.409 144.655 217.666C144.762 217.923 144.79 218.206 144.735 218.479C144.681 218.752 144.546 219.003 144.349 219.2C144.152 219.397 143.901 219.531 143.627 219.585C143.353 219.639 143.07 219.612 142.812 219.505C142.554 219.399 142.334 219.218 142.179 218.987C142.024 218.755 141.941 218.483 141.941 218.205C141.941 218.02 141.977 217.836 142.048 217.665C142.119 217.494 142.222 217.339 142.353 217.208C142.485 217.077 142.64 216.974 142.812 216.903C142.983 216.832 143.166 216.796 143.352 216.797Z" fill="black"/>
<path d="M143.354 221.016C143.672 221.016 143.983 221.11 144.248 221.286C144.512 221.463 144.719 221.713 144.84 222.007C144.962 222.3 144.994 222.623 144.932 222.934C144.87 223.245 144.717 223.531 144.492 223.756C144.267 223.98 143.98 224.133 143.668 224.195C143.356 224.257 143.033 224.225 142.739 224.104C142.445 223.982 142.194 223.777 142.017 223.513C141.84 223.249 141.746 222.938 141.746 222.621C141.746 222.41 141.788 222.201 141.869 222.007C141.949 221.812 142.068 221.635 142.217 221.486C142.366 221.337 142.544 221.218 142.739 221.138C142.934 221.057 143.143 221.016 143.354 221.016Z" fill="black"/>
<path d="M143.354 225.227C143.709 225.227 144.057 225.332 144.353 225.529C144.649 225.726 144.88 226.007 145.016 226.335C145.152 226.663 145.187 227.024 145.118 227.372C145.049 227.721 144.877 228.041 144.626 228.292C144.374 228.543 144.054 228.714 143.705 228.783C143.356 228.852 142.994 228.817 142.665 228.681C142.337 228.545 142.056 228.315 141.858 228.02C141.66 227.724 141.555 227.377 141.555 227.022C141.555 226.546 141.744 226.089 142.082 225.752C142.419 225.416 142.877 225.227 143.354 225.227Z" fill="black"/>
<path d="M143.352 229.445C143.748 229.445 144.136 229.563 144.465 229.782C144.795 230.002 145.052 230.315 145.203 230.68C145.355 231.046 145.395 231.448 145.317 231.836C145.24 232.224 145.049 232.58 144.769 232.86C144.489 233.14 144.131 233.33 143.743 233.407C143.354 233.484 142.951 233.445 142.585 233.293C142.219 233.142 141.906 232.886 141.685 232.557C141.465 232.228 141.348 231.841 141.348 231.445C141.348 230.915 141.559 230.406 141.935 230.031C142.31 229.656 142.82 229.445 143.352 229.445Z" fill="black"/>
<path d="M147.875 213.25C148.272 213.25 148.659 213.367 148.989 213.587C149.318 213.807 149.575 214.119 149.727 214.485C149.878 214.85 149.918 215.252 149.841 215.64C149.763 216.028 149.573 216.385 149.292 216.664C149.012 216.944 148.655 217.135 148.266 217.212C147.877 217.289 147.474 217.249 147.108 217.098C146.742 216.947 146.429 216.69 146.209 216.361C145.989 216.032 145.871 215.646 145.871 215.25C145.871 214.72 146.082 214.211 146.458 213.836C146.834 213.461 147.344 213.25 147.875 213.25Z" fill="black"/>
<path d="M147.875 217.094C148.272 217.094 148.659 217.211 148.989 217.431C149.318 217.651 149.575 217.963 149.727 218.328C149.878 218.694 149.918 219.096 149.841 219.484C149.763 219.872 149.573 220.229 149.292 220.508C149.012 220.788 148.655 220.978 148.266 221.056C147.877 221.133 147.474 221.093 147.108 220.942C146.742 220.79 146.429 220.534 146.209 220.205C145.989 219.876 145.871 219.49 145.871 219.094C145.871 218.563 146.082 218.055 146.458 217.68C146.834 217.304 147.344 217.094 147.875 217.094Z" fill="black"/>
<path d="M147.875 220.93C148.272 220.93 148.659 221.047 148.989 221.267C149.318 221.487 149.575 221.799 149.727 222.164C149.878 222.53 149.918 222.932 149.841 223.32C149.763 223.708 149.573 224.064 149.292 224.344C149.012 224.624 148.655 224.814 148.266 224.892C147.877 224.969 147.474 224.929 147.108 224.778C146.742 224.626 146.429 224.37 146.209 224.041C145.989 223.712 145.871 223.325 145.871 222.93C145.871 222.667 145.923 222.407 146.024 222.164C146.124 221.922 146.272 221.701 146.458 221.516C146.644 221.33 146.865 221.182 147.108 221.082C147.351 220.981 147.612 220.93 147.875 220.93Z" fill="black"/>
<path d="M147.875 224.773C148.272 224.773 148.659 224.891 148.989 225.111C149.318 225.33 149.575 225.643 149.727 226.008C149.878 226.374 149.918 226.776 149.841 227.164C149.763 227.552 149.573 227.908 149.292 228.188C149.012 228.468 148.655 228.658 148.266 228.735C147.877 228.813 147.474 228.773 147.108 228.622C146.742 228.47 146.429 228.214 146.209 227.885C145.989 227.556 145.871 227.169 145.871 226.774C145.871 226.243 146.082 225.734 146.458 225.359C146.834 224.984 147.344 224.773 147.875 224.773Z" fill="black"/>
<path d="M147.875 228.617C148.272 228.617 148.659 228.734 148.989 228.954C149.318 229.174 149.575 229.486 149.727 229.852C149.878 230.217 149.918 230.62 149.841 231.008C149.763 231.396 149.573 231.752 149.292 232.032C149.012 232.311 148.655 232.502 148.266 232.579C147.877 232.656 147.474 232.617 147.108 232.465C146.742 232.314 146.429 232.058 146.209 231.729C145.989 231.4 145.871 231.013 145.871 230.617C145.871 230.355 145.923 230.095 146.024 229.852C146.124 229.609 146.272 229.389 146.458 229.203C146.644 229.017 146.865 228.87 147.108 228.769C147.351 228.669 147.612 228.617 147.875 228.617Z" fill="black"/>
<path d="M147.875 232.453C148.272 232.453 148.659 232.57 148.989 232.79C149.318 233.01 149.575 233.322 149.727 233.688C149.878 234.053 149.918 234.456 149.841 234.843C149.763 235.231 149.573 235.588 149.292 235.868C149.012 236.147 148.655 236.338 148.266 236.415C147.877 236.492 147.474 236.453 147.108 236.301C146.742 236.15 146.429 235.893 146.209 235.565C145.989 235.236 145.871 234.849 145.871 234.453C145.871 233.923 146.082 233.414 146.458 233.039C146.834 232.664 147.344 232.453 147.875 232.453Z" fill="black"/>
<path d="M147.875 236.289C148.272 236.289 148.659 236.406 148.989 236.626C149.318 236.846 149.575 237.158 149.727 237.524C149.878 237.889 149.918 238.291 149.841 238.679C149.763 239.067 149.573 239.424 149.292 239.704C149.012 239.983 148.655 240.174 148.266 240.251C147.877 240.328 147.474 240.289 147.108 240.137C146.742 239.986 146.429 239.729 146.209 239.4C145.989 239.072 145.871 238.685 145.871 238.289C145.871 237.759 146.082 237.25 146.458 236.875C146.834 236.5 147.344 236.289 147.875 236.289Z" fill="black"/>
<path d="M156.627 134.906C156.722 134.906 156.815 134.933 156.894 134.985C156.974 135.037 157.036 135.112 157.072 135.199C157.109 135.287 157.119 135.383 157.1 135.476C157.082 135.569 157.036 135.655 156.969 135.722C156.902 135.789 156.817 135.834 156.723 135.852C156.63 135.871 156.534 135.861 156.446 135.824C156.359 135.788 156.284 135.726 156.232 135.647C156.179 135.568 156.152 135.475 156.152 135.38C156.153 135.255 156.204 135.135 156.292 135.046C156.381 134.957 156.502 134.907 156.627 134.906Z" fill="#999999"/>
<path d="M156.627 141.445C156.722 141.445 156.815 141.472 156.894 141.524C156.973 141.576 157.035 141.65 157.072 141.738C157.109 141.825 157.119 141.921 157.101 142.014C157.083 142.107 157.037 142.192 156.971 142.259C156.904 142.326 156.818 142.372 156.726 142.391C156.633 142.41 156.536 142.401 156.449 142.364C156.361 142.328 156.286 142.267 156.233 142.189C156.181 142.11 156.152 142.018 156.152 141.923C156.152 141.797 156.202 141.676 156.291 141.586C156.38 141.497 156.501 141.446 156.627 141.445Z" fill="#999999"/>
<path d="M156.627 147.984C156.722 147.984 156.815 148.011 156.894 148.063C156.973 148.115 157.035 148.19 157.072 148.277C157.109 148.364 157.119 148.46 157.101 148.553C157.083 148.646 157.037 148.731 156.971 148.798C156.904 148.866 156.818 148.911 156.726 148.93C156.633 148.949 156.536 148.94 156.449 148.904C156.361 148.868 156.286 148.806 156.233 148.728C156.181 148.649 156.152 148.557 156.152 148.462C156.152 148.336 156.202 148.215 156.291 148.126C156.38 148.036 156.501 147.985 156.627 147.984Z" fill="#999999"/>
<path d="M156.627 154.523C156.722 154.523 156.815 154.55 156.894 154.602C156.973 154.654 157.035 154.729 157.072 154.816C157.109 154.903 157.119 154.999 157.101 155.092C157.083 155.185 157.037 155.27 156.971 155.337C156.904 155.405 156.818 155.45 156.726 155.469C156.633 155.488 156.536 155.479 156.449 155.443C156.361 155.407 156.286 155.345 156.233 155.267C156.181 155.188 156.152 155.096 156.152 155.001C156.152 154.939 156.164 154.876 156.187 154.819C156.211 154.761 156.246 154.708 156.29 154.664C156.334 154.619 156.387 154.584 156.445 154.56C156.503 154.536 156.565 154.523 156.627 154.523Z" fill="#999999"/>
<path d="M156.627 161.063C156.722 161.062 156.815 161.089 156.894 161.141C156.973 161.193 157.035 161.268 157.072 161.355C157.109 161.442 157.119 161.538 157.101 161.631C157.083 161.724 157.037 161.809 156.971 161.877C156.904 161.944 156.818 161.99 156.726 162.008C156.633 162.027 156.536 162.018 156.449 161.982C156.361 161.946 156.286 161.884 156.233 161.806C156.181 161.727 156.152 161.635 156.152 161.54C156.152 161.414 156.202 161.293 156.291 161.204C156.38 161.114 156.501 161.063 156.627 161.063Z" fill="#999999"/>
<path d="M158.811 160.003C158.717 160.002 158.626 159.974 158.548 159.921C158.471 159.869 158.41 159.794 158.375 159.708C158.34 159.621 158.331 159.526 158.349 159.434C158.368 159.342 158.414 159.258 158.48 159.192C158.547 159.126 158.631 159.082 158.723 159.064C158.815 159.046 158.911 159.055 158.997 159.091C159.084 159.127 159.158 159.188 159.21 159.266C159.262 159.344 159.29 159.435 159.29 159.529C159.29 159.591 159.277 159.653 159.253 159.711C159.229 159.769 159.194 159.821 159.149 159.865C159.105 159.909 159.052 159.944 158.994 159.968C158.936 159.991 158.874 160.003 158.811 160.003Z" fill="#999999"/>
<path d="M158.809 157.545C158.693 157.544 158.579 157.509 158.482 157.444C158.386 157.379 158.311 157.287 158.267 157.179C158.222 157.071 158.211 156.953 158.234 156.839C158.258 156.725 158.314 156.62 158.397 156.538C158.479 156.456 158.585 156.401 158.699 156.378C158.813 156.356 158.932 156.368 159.039 156.412C159.147 156.457 159.239 156.533 159.304 156.629C159.368 156.726 159.403 156.84 159.403 156.956C159.403 157.034 159.387 157.111 159.358 157.182C159.328 157.254 159.284 157.319 159.229 157.374C159.174 157.429 159.108 157.472 159.036 157.501C158.964 157.531 158.887 157.545 158.809 157.545Z" fill="#999999"/>
<path d="M158.809 155.093C158.667 155.093 158.528 155.051 158.41 154.972C158.291 154.893 158.199 154.781 158.145 154.649C158.09 154.518 158.076 154.374 158.104 154.234C158.131 154.095 158.2 153.967 158.301 153.867C158.401 153.766 158.529 153.698 158.669 153.67C158.809 153.642 158.953 153.657 159.085 153.711C159.216 153.765 159.329 153.857 159.408 153.975C159.487 154.094 159.529 154.232 159.529 154.374C159.529 154.565 159.453 154.748 159.318 154.882C159.183 155.017 159 155.093 158.809 155.093Z" fill="#999999"/>
<path d="M158.809 152.637C158.647 152.637 158.489 152.588 158.354 152.498C158.22 152.407 158.115 152.279 158.054 152.13C157.992 151.98 157.976 151.815 158.008 151.657C158.04 151.498 158.119 151.353 158.234 151.239C158.349 151.124 158.495 151.047 158.654 151.015C158.813 150.984 158.978 151.001 159.127 151.063C159.277 151.125 159.405 151.23 159.495 151.364C159.585 151.499 159.633 151.657 159.633 151.819C159.633 151.927 159.612 152.033 159.57 152.133C159.529 152.232 159.468 152.323 159.391 152.399C159.315 152.475 159.224 152.535 159.124 152.576C159.024 152.617 158.917 152.638 158.809 152.637Z" fill="#999999"/>
<path d="M158.81 150.188C158.625 150.188 158.445 150.133 158.291 150.03C158.137 149.928 158.017 149.782 157.946 149.611C157.875 149.441 157.857 149.253 157.893 149.072C157.929 148.891 158.018 148.724 158.149 148.594C158.28 148.463 158.446 148.374 158.628 148.338C158.809 148.302 158.998 148.321 159.168 148.391C159.339 148.462 159.485 148.582 159.588 148.735C159.691 148.889 159.746 149.069 159.746 149.254C159.746 149.502 159.647 149.739 159.472 149.914C159.297 150.089 159.059 150.188 158.81 150.188Z" fill="#999999"/>
<path d="M158.812 147.738C158.605 147.738 158.401 147.676 158.229 147.561C158.056 147.446 157.921 147.282 157.842 147.09C157.762 146.899 157.741 146.688 157.782 146.485C157.822 146.281 157.923 146.094 158.069 145.948C158.216 145.801 158.404 145.701 158.607 145.661C158.811 145.62 159.022 145.641 159.214 145.72C159.406 145.8 159.57 145.934 159.686 146.107C159.801 146.279 159.863 146.482 159.863 146.689C159.863 146.967 159.752 147.234 159.555 147.431C159.358 147.627 159.091 147.738 158.812 147.738Z" fill="#999999"/>
<path d="M158.81 145.28C158.58 145.28 158.354 145.212 158.163 145.084C157.971 144.956 157.822 144.774 157.733 144.562C157.645 144.349 157.622 144.115 157.667 143.89C157.712 143.664 157.823 143.457 157.986 143.294C158.149 143.131 158.357 143.02 158.583 142.975C158.809 142.931 159.043 142.954 159.256 143.042C159.469 143.13 159.651 143.279 159.78 143.47C159.908 143.662 159.976 143.886 159.976 144.117C159.976 144.27 159.947 144.421 159.888 144.562C159.83 144.704 159.744 144.832 159.636 144.94C159.527 145.048 159.399 145.134 159.257 145.192C159.115 145.251 158.963 145.281 158.81 145.28Z" fill="#999999"/>
<path d="M164.351 140.422H162.387V141.101H164.351V140.422Z" fill="#999999"/>
<path d="M164.351 141.695H162.387V142.374H164.351V141.695Z" fill="#999999"/>
<path d="M164.351 142.969H162.387V143.647H164.351V142.969Z" fill="#999999"/>
<path d="M164.351 148.055H162.387V148.733H164.351V148.055Z" fill="#999999"/>
<path d="M164.351 149.328H162.387V150.007H164.351V149.328Z" fill="#999999"/>
<path d="M164.351 150.601H162.387V151.28H164.351V150.601Z" fill="#999999"/>
<path d="M164.351 151.875H162.387V152.554H164.351V151.875Z" fill="#999999"/>
<path d="M164.351 158.234H162.387V158.913H164.351V158.234Z" fill="#999999"/>
<path d="M164.351 160.781H162.387V161.46H164.351V160.781Z" fill="#999999"/>
<path d="M164.351 163.328H162.387V164.007H164.351V163.328Z" fill="#999999"/>
<path d="M164.351 164.594H162.387V165.272H164.351V164.594Z" fill="#999999"/>
<path d="M170.323 141.445H168.578V142.049H170.323V141.445Z" fill="#999999"/>
<path d="M170.323 142.57H168.578V143.174H170.323V142.57Z" fill="#999999"/>
<path d="M170.323 143.703H168.578V144.306H170.323V143.703Z" fill="#999999"/>
<path d="M170.323 145.969H168.578V146.572H170.323V145.969Z" fill="#999999"/>
<path d="M170.323 147.094H168.578V147.697H170.323V147.094Z" fill="#999999"/>
<path d="M170.323 152.742H168.578V153.345H170.323V152.742Z" fill="#999999"/>
<path d="M170.323 153.875H168.578V154.478H170.323V153.875Z" fill="#999999"/>
<path d="M170.323 159.531H168.578V160.135H170.323V159.531Z" fill="#999999"/>
<path d="M170.323 160.656H168.578V161.26H170.323V160.656Z" fill="#999999"/>
<path d="M167.721 145.391H165.508V146.156H167.721V145.391Z" fill="#999999"/>
<path d="M167.721 146.82H165.508V147.585H167.721V146.82Z" fill="#999999"/>
<path d="M167.721 148.258H165.508V149.023H167.721V148.258Z" fill="#999999"/>
<path d="M167.721 149.695H165.508V150.46H167.721V149.695Z" fill="#999999"/>
<path d="M167.721 151.125H165.508V151.89H167.721V151.125Z" fill="#999999"/>
<path d="M167.721 152.555H165.508V153.32H167.721V152.555Z" fill="#999999"/>
<path d="M167.721 153.992H165.508V154.757H167.721V153.992Z" fill="#999999"/>
<path d="M167.721 155.422H165.508V156.187H167.721V155.422Z" fill="#999999"/>
<path d="M167.721 156.859H165.508V157.624H167.721V156.859Z" fill="#999999"/>
<path d="M167.721 158.297H165.508V159.062H167.721V158.297Z" fill="#999999"/>
<path d="M167.721 159.727H165.508V160.491H167.721V159.727Z" fill="#999999"/>
<path d="M167.721 161.156H165.508V161.921H167.721V161.156Z" fill="#999999"/>
<path d="M167.721 162.594H165.508V163.359H167.721V162.594Z" fill="#999999"/>
<path d="M167.721 164.023H165.508V164.788H167.721V164.023Z" fill="#999999"/>
<path d="M167.721 165.461H165.508V166.226H167.721V165.461Z" fill="#999999"/>
<path d="M167.721 166.891H165.508V167.656H167.721V166.891Z" fill="#999999"/>
<path d="M167.721 168.328H165.508V169.093H167.721V168.328Z" fill="#999999"/>
<path d="M167.721 169.758H165.508V170.523H167.721V169.758Z" fill="#999999"/>
<path d="M167.721 171.195H165.508V171.96H167.721V171.195Z" fill="#999999"/>
<path d="M167.721 172.625H165.508V173.39H167.721V172.625Z" fill="#999999"/>
<path d="M167.721 174.055H165.508V174.82H167.721V174.055Z" fill="#999999"/>
<path d="M167.721 175.492H165.508V176.257H167.721V175.492Z" fill="#999999"/>
<path d="M167.721 176.93H165.508V177.695H167.721V176.93Z" fill="#999999"/>
<path d="M256.504 289.358H267.309V275.953H264.732L256.504 289.358Z" fill="#000002"/>
<path d="M253.469 275.953V289.358H256.099L264.327 275.953H253.469Z" fill="#000002"/>
<path d="M260.063 271.433L259.434 271.781L260.479 273.666L261.109 273.318L260.063 271.433Z" fill="black"/>
<path d="M257.973 267.72L257.343 268.079L255.271 264.345L255.901 263.986L257.973 267.72ZM253.832 260.251L253.202 260.61L251.137 256.861L251.767 256.502L253.832 260.251ZM249.698 252.778L249.068 253.137L246.996 249.399L247.625 249.04L249.698 252.778ZM245.556 245.305L244.927 245.664L242.862 241.919L243.491 241.56L245.556 245.305ZM241.422 237.836L240.793 238.195L238.724 234.461L239.354 234.102L241.422 237.836ZM237.281 230.363L236.652 230.722L234.586 226.973L235.216 226.614L237.281 230.363ZM233.147 222.891L232.517 223.25L230.445 219.515L231.075 219.156L233.147 222.891ZM229.006 215.418L228.376 215.777L226.304 212.042L226.933 211.683L229.006 215.418ZM224.865 207.949L224.235 208.308L222.163 204.573L222.792 204.214L224.865 207.949ZM220.723 200.476L220.094 200.835L218.021 197.097L218.651 196.737L220.723 200.476ZM216.579 193.003L215.949 193.362L213.866 189.609L214.495 189.25L216.579 193.003ZM212.423 185.53L211.793 185.889L209.724 182.155L210.354 181.795L212.423 185.53ZM208.282 178.061L207.652 178.42L205.583 174.685L206.213 174.326L208.282 178.061ZM204.14 170.577L203.511 170.936L201.438 167.198L202.068 166.839L204.14 170.577ZM199.999 163.104L199.369 163.464L197.297 159.729L197.927 159.37L199.999 163.104ZM195.858 155.632L195.228 155.991L193.156 152.263L193.785 151.904L195.858 155.632ZM191.713 148.162L191.083 148.522L189.015 144.787L189.644 144.428L191.713 148.162ZM187.572 140.7L186.942 141.059L184.873 137.321L185.503 136.962L187.572 140.7ZM183.431 133.231L182.801 133.59L180.732 129.856L181.362 129.497L183.431 133.231ZM179.289 125.758L178.66 126.117L176.587 122.383L177.217 122.024L179.289 125.758ZM175.148 118.289L174.518 118.648L172.446 114.914L173.076 114.555L175.148 118.289ZM171.007 110.816L170.377 111.175L168.305 107.437L168.934 107.078L171.007 110.816Z" fill="black"/>
<path d="M165.821 101.441L165.191 101.789L166.237 103.674L166.867 103.326L165.821 101.441Z" fill="black"/>
<path d="M240.006 273.156H155.004V273.874H240.006V273.156Z" fill="black"/>
<path d="M255.567 265.609H155.004V265.968H255.567V265.609Z" fill="black"/>
<path d="M249.9 257.711H155.004V258.429H249.9V257.711Z" fill="black"/>
<path d="M246.932 249.992H155.004V250.71H246.932V249.992Z" fill="black"/>
<path d="M240.995 242.453H155.004V242.812H240.995V242.453Z" fill="black"/>
<path d="M237.397 234.781H155.004V235.051H237.397V234.781Z" fill="black"/>
<path d="M232.54 227.008H155.004V227.367H232.54V227.008Z" fill="black"/>
<path d="M227.593 219.109H155.004V219.828H227.593V219.109Z" fill="black"/>
<path d="M224.624 211.617H155.004V211.887H224.624V211.617Z" fill="black"/>
<path d="M219.767 203.672H155.004V204.39H219.767V203.672Z" fill="black"/>
<path d="M214.82 196.125H155.004V196.484H214.82V196.125Z" fill="black"/>
<path d="M211.132 188.453H155.004V188.722H211.132V188.453Z" fill="black"/>
<path d="M206.994 180.688H155.004V181.047H206.994V180.688Z" fill="black"/>
<path d="M378.076 282.555H270.137V282.914H378.076V282.555Z" fill="black"/>
<path d="M382.706 282.455L152.902 368.117L153.028 368.454L382.832 282.792L382.706 282.455Z" fill="black"/>
<path d="M192.204 357.434L191.551 357.68C190.932 357.913 190.619 358.603 190.852 359.221L191.098 359.872C191.332 360.49 192.023 360.803 192.642 360.57L193.295 360.324C193.914 360.091 194.227 359.401 193.994 358.783L193.748 358.131C193.514 357.513 192.823 357.201 192.204 357.434Z" fill="#D3D4D7"/>
<path d="M196.513 355.817L195.859 356.063C195.24 356.296 194.927 356.985 195.161 357.603L195.407 358.255C195.64 358.873 196.331 359.185 196.951 358.953L197.604 358.707C198.223 358.474 198.536 357.784 198.302 357.166L198.056 356.514C197.823 355.896 197.132 355.584 196.513 355.817Z" fill="#A8A9AB"/>
<path d="M205.696 352.356L205.043 352.602C204.424 352.835 204.111 353.524 204.344 354.142L204.591 354.794C204.824 355.412 205.515 355.724 206.134 355.492L206.787 355.246C207.407 355.013 207.719 354.323 207.486 353.705L207.24 353.053C207.006 352.435 206.315 352.123 205.696 352.356Z" fill="#D3D4D7"/>
<path d="M210.563 350.528L209.91 350.774C209.291 351.007 208.978 351.696 209.212 352.314L209.458 352.966C209.691 353.584 210.382 353.896 211.001 353.663L211.655 353.418C212.274 353.185 212.587 352.495 212.353 351.877L212.107 351.225C211.874 350.607 211.183 350.295 210.563 350.528Z" fill="#D3D4D7"/>
<path d="M219.743 347.083L219.09 347.328C218.471 347.561 218.158 348.251 218.391 348.869L218.637 349.521C218.871 350.139 219.562 350.451 220.181 350.218L220.834 349.972C221.453 349.74 221.766 349.05 221.533 348.432L221.287 347.78C221.053 347.162 220.362 346.85 219.743 347.083Z" fill="#D3D4D7"/>
<path d="M224.052 345.458L223.398 345.703C222.779 345.936 222.467 346.626 222.7 347.244L222.946 347.896C223.179 348.514 223.87 348.826 224.49 348.593L225.143 348.347C225.762 348.115 226.075 347.425 225.841 346.807L225.595 346.155C225.362 345.537 224.671 345.225 224.052 345.458Z" fill="#97989A"/>
<path d="M228.958 343.574L228.305 343.82C227.686 344.053 227.373 344.743 227.606 345.361L227.853 346.013C228.086 346.631 228.777 346.943 229.396 346.71L230.05 346.464C230.669 346.231 230.981 345.541 230.748 344.923L230.502 344.271C230.268 343.654 229.577 343.341 228.958 343.574Z" fill="#97989A"/>
<path d="M238.099 340.169L237.445 340.414C236.826 340.647 236.513 341.337 236.747 341.955L236.993 342.607C237.226 343.225 237.917 343.537 238.537 343.304L239.19 343.058C239.809 342.825 240.122 342.136 239.888 341.518L239.642 340.866C239.409 340.248 238.718 339.936 238.099 340.169Z" fill="#D3D4D7"/>
<path d="M242.407 338.551L241.754 338.797C241.135 339.03 240.822 339.72 241.055 340.338L241.301 340.99C241.535 341.608 242.226 341.92 242.845 341.687L243.498 341.441C244.118 341.208 244.43 340.519 244.197 339.901L243.951 339.249C243.717 338.631 243.026 338.318 242.407 338.551Z" fill="#D3D4D7"/>
<path d="M247.282 336.723L246.629 336.969C246.01 337.202 245.697 337.892 245.93 338.51L246.176 339.161C246.41 339.779 247.101 340.092 247.72 339.859L248.373 339.613C248.993 339.38 249.305 338.69 249.072 338.072L248.826 337.421C248.592 336.803 247.901 336.49 247.282 336.723Z" fill="#929395"/>
<path d="M260.77 331.637L260.117 331.883C259.498 332.116 259.185 332.806 259.419 333.424L259.665 334.076C259.898 334.694 260.589 335.006 261.208 334.773L261.862 334.527C262.481 334.294 262.794 333.604 262.56 332.986L262.314 332.335C262.081 331.717 261.39 331.404 260.77 331.637Z" fill="#D3D4D7"/>
<path d="M265.638 329.809L264.984 330.055C264.365 330.288 264.052 330.978 264.286 331.596L264.532 332.247C264.765 332.865 265.456 333.178 266.076 332.945L266.729 332.699C267.348 332.466 267.661 331.776 267.427 331.158L267.181 330.506C266.948 329.888 266.257 329.576 265.638 329.809Z" fill="#EEEEF0"/>
<path d="M269.95 328.176L269.297 328.422C268.678 328.655 268.365 329.345 268.598 329.963L268.844 330.615C269.078 331.233 269.769 331.545 270.388 331.312L271.041 331.066C271.66 330.833 271.973 330.144 271.74 329.526L271.494 328.874C271.26 328.256 270.569 327.943 269.95 328.176Z" fill="#EEEEF0"/>
<path d="M279.446 326.861L278.79 327.105C278.168 327.336 277.852 328.027 278.083 328.647L278.328 329.302C278.559 329.923 279.251 330.239 279.873 330.008L280.529 329.764C281.151 329.533 281.468 328.842 281.236 328.221L280.992 327.567C280.76 326.946 280.068 326.63 279.446 326.861Z" fill="#D3D4D7"/>
<path d="M133.183 342.109H127.34V347.941H133.183V342.109Z" fill="#000002"/>
<path d="M122.601 330.5H117.766V335.326H122.601V330.5Z" fill="#C4C4C4"/>
<path d="M131.05 333.125H125.207V338.957H131.05V333.125Z" fill="#C4C4C4"/>
<path d="M126.553 292.219H123.48V295.537H126.553V292.219Z" fill="#88898B"/>
<path d="M126.553 296.914H123.48V300.232H126.553V296.914Z" fill="black"/>
<path d="M126.557 301.602H123.484V304.92H126.557V301.602Z" fill="black"/>
<path d="M126.561 306.297H123.488V309.615H126.561V306.297Z" fill="#88898B"/>
<path d="M126.561 310.992H123.488V314.31H126.561V310.992Z" fill="black"/>
<path d="M113.512 328.574H126.741V315.359H113.512V328.574ZM125.511 316.598V327.346H114.742V316.587L125.511 316.598Z" fill="#000002"/>
<path d="M115.23 326.85H125.021V317.086H115.23V326.85ZM124.128 317.987V325.941H116.141V317.987H124.128Z" fill="#C4C4C4"/>
<path d="M123.066 341.086H133.18V330.992H123.066V341.086ZM132.241 331.929V340.149H124.005V331.929H132.241Z" fill="#000002"/>
<path d="M106.895 352.659H122.193V337.391H106.895V352.659ZM120.772 338.809V351.241H108.316V338.809H120.772Z" fill="#C4C4C4"/>
<path d="M163.112 319.391L159.277 326.02L155.441 319.391H163.112Z" fill="#000002"/>
<path d="M165.038 329.422L161.207 336.047L157.371 329.422H165.038Z" fill="#C4C4C4"/>
<path d="M169.331 313.219L166.363 318.354L163.391 313.219H169.331Z" fill="#C4C4C4"/>
<path d="M168.662 322.234L166.003 326.827L163.348 322.234H168.662Z" fill="#000002"/>
</g>
</g>
<defs>
<clipPath id="clip0_2484_5258">
<rect width="386" height="399" fill="white"/>
</clipPath>
</defs>
</svg>
