<svg width="78" height="70" viewBox="0 0 78 70" fill="none" xmlns="http://www.w3.org/2000/svg">
<path d="M38.996 26.6583C37.8273 26.6583 36.876 25.7243 36.876 24.5682C36.876 24.3041 36.7712 24.0515 36.5809 23.8639C36.3906 23.6763 36.1305 23.5691 35.8626 23.5691H30.8304C30.2713 23.5691 29.817 24.017 29.817 24.5682C29.8092 28.224 32.038 31.5238 35.4666 32.9171V36.9978C35.4666 37.2658 35.5714 37.5185 35.7617 37.706C35.9519 37.8936 36.2121 38.0008 36.48 38.0008H41.5122C41.7801 38.0008 42.0402 37.8936 42.2305 37.706C42.4208 37.5185 42.5256 37.2658 42.5256 36.9978V32.9171C44.2108 32.2243 45.6474 31.0529 46.6492 29.5485C46.9598 29.0853 46.8278 28.4651 46.358 28.1627C45.892 27.8603 45.263 27.9866 44.9523 28.4498C44.067 29.782 42.7429 30.7772 41.2015 31.2672C40.7783 31.3974 40.491 31.7802 40.491 32.2166V35.9987H37.4934V32.2204C37.4934 31.784 37.21 31.4012 36.7906 31.2672C34.193 30.448 32.3021 28.2315 31.9216 25.5673H34.9773C35.3656 27.0832 36.5965 28.2507 38.1458 28.5723C39.6989 28.8938 41.3025 28.3158 42.2732 27.0832C43.2478 25.8468 43.4264 24.1738 42.7275 22.7729C42.0286 21.368 40.5802 20.476 38.9961 20.4799C35.4782 20.4799 32.4806 17.9534 31.9331 14.5273C31.3856 11.1012 33.4474 7.79 36.7944 6.72202C37.2138 6.58803 37.4933 6.20524 37.4933 5.76884V2.002H40.4948V5.77266L40.4986 5.76883C40.4986 6.20522 40.7782 6.58803 41.1976 6.72201C43.7952 7.54887 45.69 9.76533 46.0744 12.4296H43.0186C42.6303 10.9137 41.4033 9.74994 39.8502 9.42841C38.3009 9.10686 36.6973 9.68489 35.7227 10.9175C34.7481 12.1501 34.5735 13.8229 35.2684 15.224C35.9635 16.6289 37.4117 17.5209 38.996 17.5209C41.3451 17.5209 43.5467 18.6617 44.8785 20.568C45.1969 21.0197 45.826 21.1307 46.2842 20.8168C46.7462 20.5068 46.8627 19.8866 46.5482 19.431C44.8358 16.9849 42.013 15.5226 38.996 15.5188C38.1379 15.5188 37.3652 15.0097 37.039 14.2287C36.709 13.4478 36.8914 12.5483 37.4972 11.9511C38.1029 11.3539 39.0153 11.174 39.8075 11.4994C40.5996 11.8209 41.116 12.5866 41.116 13.4287C41.116 13.6967 41.2208 13.9494 41.4111 14.1369C41.6013 14.3245 41.8615 14.4317 42.1294 14.4317H47.1616C47.4295 14.4317 47.6897 14.3245 47.8799 14.1369C48.0702 13.9494 48.175 13.6967 48.175 13.4287C48.1789 9.77294 45.9501 6.47699 42.5255 5.07601V0.999116C42.5255 0.734983 42.4206 0.482335 42.2304 0.294758C42.0401 0.10718 41.78 0 41.512 0H36.4798C35.9207 0 35.4664 0.447879 35.4664 0.999087V5.07599C31.4283 6.73352 29.1374 10.9711 29.9955 15.205C30.8536 19.435 34.6199 22.4783 38.996 22.4783C40.1686 22.4783 41.116 23.4162 41.116 24.5684C41.116 25.7245 40.1687 26.6583 38.996 26.6583Z" fill="black"/>
<path d="M73.4337 59.6847C73.2978 59.2751 72.9096 58.9995 72.4708 58.9995H63.5674L60.7563 50.685C60.6165 50.2753 60.2282 49.9997 59.7933 49.9997H50.8899L48.0788 41.6852H48.0749C47.939 41.2756 47.5507 41 47.1158 41H30.8856C30.4507 41 30.0625 41.2756 29.9266 41.6852L27.1115 49.9997H18.2082C17.7733 49.9997 17.385 50.2753 17.2452 50.685L14.434 58.9995H5.53068C5.09191 58.9995 4.70363 59.2751 4.56773 59.6847L1.52357 68.6844C1.42262 68.9906 1.4731 69.3237 1.66335 69.584C1.85361 69.8443 2.16036 70.0012 2.48651 70.0012H24.8011C25.1272 70.0012 25.434 69.8443 25.6242 69.584C25.8145 69.3237 25.865 68.9906 25.7601 68.6844L23.1664 61.0016H29.4799L26.8823 68.6844C26.7774 68.9906 26.8318 69.3237 27.0221 69.584C27.2123 69.8443 27.5191 70.0012 27.8452 70.0012H50.1558C50.482 70.0012 50.7887 69.8443 50.979 69.584C51.1692 69.3237 51.2236 68.9906 51.1187 68.6844L48.5211 61.0016H54.8347L52.237 68.6844H52.2409C52.1361 68.9906 52.1865 69.3237 52.3768 69.584C52.5671 69.8443 52.8738 70.0012 53.2 70.0012H75.5145C75.8407 70.0012 76.1474 69.8443 76.3377 69.584C76.5279 69.3237 76.5784 68.9906 76.4775 68.6844L73.4337 59.6847ZM31.6196 43.0025H46.3827L48.7474 50.004L29.2518 50.0002L31.6196 43.0025ZM42.1611 52.0023L39.7926 58.9999H38.2084L35.8437 51.9984L42.1611 52.0023ZM23.3952 68.0033L3.89169 67.9995L6.25635 60.998L21.0264 61.0019L23.3952 68.0033ZM21.7567 58.9998H16.5731L18.9377 51.9983L33.7038 52.0022L36.0684 59.0036L21.7567 58.9998ZM48.75 67.9995H29.2505L31.6152 60.998L46.3812 61.0019L48.75 67.9995ZM47.1154 58.9998H41.9278L44.2925 51.9983L59.0625 52.0022L61.4272 59.0036L47.1154 58.9998ZM54.6093 67.9995L56.974 60.998L71.74 61.0019L74.1047 68.0033L54.6093 67.9995Z" fill="black"/>
<path d="M14.8468 42.8491C14.9361 43.1056 15.1264 43.3123 15.371 43.4272C15.6195 43.542 15.903 43.5535 16.1592 43.4578C16.4155 43.3621 16.6213 43.1707 16.73 42.9257C16.8426 42.6807 16.8465 42.4012 16.7455 42.1486L14.4663 36.1501C14.2682 35.6333 13.6858 35.3691 13.1616 35.5644C12.6336 35.7558 12.3695 36.3338 12.5637 36.8506L14.8468 42.8491Z" fill="black"/>
<path d="M5.98176 52.5643C6.40888 52.5643 6.7894 52.304 6.93695 51.9059C7.0845 51.5116 6.96413 51.0675 6.63797 50.7996L1.66791 46.6806C1.23692 46.3246 0.596269 46.3782 0.239021 46.8031C-0.122084 47.2242 -0.0677213 47.8558 0.359386 48.2118L5.32944 52.3308C5.51193 52.4801 5.74491 52.5643 5.98176 52.5643Z" fill="black"/>
<path d="M61.8453 43.4306C62.0977 43.5263 62.3773 43.5148 62.6219 43.4076C62.8665 43.2966 63.0567 43.0937 63.1538 42.8449L65.4331 36.8464C65.534 36.5975 65.5263 36.3181 65.4176 36.0731C65.3088 35.8243 65.0992 35.6329 64.8468 35.541C64.5905 35.4453 64.3071 35.4568 64.0586 35.5716C63.8139 35.6865 63.6237 35.8932 63.5305 36.1458L61.2512 42.1444C61.0571 42.665 61.3211 43.2392 61.8453 43.4306Z" fill="black"/>
<path d="M77.7606 46.8012C77.5898 46.5983 77.3413 46.472 77.0733 46.449C76.8054 46.4261 76.5375 46.5103 76.3317 46.6825L71.3617 50.8015C70.9345 51.1537 70.8763 51.7853 71.2374 52.2102C71.5985 52.6313 72.2392 52.6849 72.6663 52.3289L77.6364 48.2099V48.2137C77.8421 48.0415 77.9742 47.7965 77.9975 47.5324C78.0169 47.2682 77.9353 47.0041 77.7606 46.8012Z" fill="black"/>
</svg>
