<svg width="70" height="70" viewBox="0 0 70 70" fill="none" xmlns="http://www.w3.org/2000/svg">
<path d="M29.1654 33.8359H26.832V36.1693H29.1654V33.8359Z" fill="black"/>
<path d="M43.1654 33.8359H40.832V36.1693H43.1654V33.8359Z" fill="black"/>
<path d="M36.1667 29.3358V28H33.8333V29.3358C33.2007 29.5326 32.6415 29.9143 32.2277 30.4317C31.8138 30.949 31.5644 31.5785 31.5114 32.2389C31.4585 32.8993 31.6044 33.5604 31.9305 34.1371C32.2566 34.7138 32.7478 35.1798 33.341 35.4748L35.6148 36.6123C35.8156 36.7126 35.9766 36.8777 36.0718 37.081C36.1671 37.2842 36.1909 37.5136 36.1394 37.732C36.088 37.9505 35.9643 38.1452 35.7884 38.2845C35.6125 38.4239 35.3948 38.4998 35.1703 38.5H34.8297C34.5655 38.4997 34.3123 38.3946 34.1255 38.2078C33.9387 38.0211 33.8336 37.7678 33.8333 37.5037V37.3333H31.5V37.5037C31.5026 38.2101 31.7302 38.8972 32.1498 39.4655C32.5693 40.0338 33.159 40.4537 33.8333 40.6642V42H36.1667V40.6642C36.7993 40.4674 37.3585 40.0857 37.7723 39.5683C38.1862 39.051 38.4356 38.4215 38.4886 37.7611C38.5415 37.1007 38.3956 36.4396 38.0695 35.8629C37.7434 35.2862 37.2522 34.8202 36.659 34.5252L34.3852 33.3877C34.1844 33.2874 34.0234 33.1223 33.9282 32.919C33.8329 32.7158 33.8091 32.4864 33.8606 32.268C33.912 32.0495 34.0357 31.8548 34.2116 31.7155C34.3875 31.5761 34.6052 31.5002 34.8297 31.5H35.1703C35.4345 31.5003 35.6877 31.6054 35.8745 31.7922C36.0613 31.9789 36.1664 32.2322 36.1667 32.4963V32.6667H38.5V32.4963C38.4974 31.7899 38.2698 31.1028 37.8502 30.5345C37.4307 29.9662 36.841 29.5463 36.1667 29.3358Z" fill="black"/>
<path d="M35.0013 22.1641C32.4631 22.1641 29.9819 22.9167 27.8715 24.3269C25.7611 25.737 24.1162 27.7413 23.1449 30.0863C22.1735 32.4313 21.9194 35.0116 22.4146 37.5011C22.9097 39.9905 24.132 42.2772 25.9268 44.0719C27.7215 45.8667 30.0082 47.089 32.4976 47.5841C34.9871 48.0793 37.5674 47.8252 39.9124 46.8538C42.2574 45.8825 44.2617 44.2376 45.6718 42.1272C47.082 40.0168 47.8346 37.5356 47.8346 34.9974C47.8306 31.595 46.4773 28.3331 44.0714 25.9273C41.6656 23.5214 38.4037 22.1681 35.0013 22.1641ZM35.0013 45.4974C32.9246 45.4974 30.8945 44.8816 29.1678 43.7278C27.4411 42.5741 26.0953 40.9342 25.3006 39.0156C24.5059 37.0969 24.2979 34.9857 24.7031 32.9489C25.1082 30.9121 26.1082 29.0412 27.5767 27.5728C29.0451 26.1043 30.9161 25.1043 32.9529 24.6991C34.9897 24.294 37.1009 24.5019 39.0195 25.2967C40.9381 26.0914 42.578 27.4372 43.7317 29.1639C44.8855 30.8906 45.5013 32.9207 45.5013 34.9974C45.4982 37.7812 44.391 40.4501 42.4225 42.4186C40.4541 44.3871 37.7851 45.4943 35.0013 45.4974Z" fill="black"/>
<path d="M36.1654 4.66406H33.832V6.9974H36.1654V4.66406Z" fill="black"/>
<path d="M7.0013 4.66406H4.66797V6.9974H7.0013V4.66406Z" fill="black"/>
<path d="M68.8333 0H59.5C59.1906 0 58.8938 0.122916 58.675 0.341709C58.4562 0.560501 58.3333 0.857247 58.3333 1.16667V10.5C58.3333 10.8094 58.4562 11.1062 58.675 11.325C58.8938 11.5437 59.1906 11.6667 59.5 11.6667H62.8343C62.5764 12.6655 61.9949 13.5507 61.1805 14.184C60.3661 14.8172 59.3649 15.1628 58.3333 15.1667H52.5C50.8297 15.1686 49.2151 15.7678 47.9479 16.8559C46.6806 17.9441 45.8443 19.4495 45.5898 21.1003C42.8669 19.0161 39.5883 17.7842 36.1667 17.5595V11.6667H39.6667C39.9761 11.6667 40.2728 11.5437 40.4916 11.325C40.7104 11.1062 40.8333 10.8094 40.8333 10.5V1.16667C40.8333 0.857247 40.7104 0.560501 40.4916 0.341709C40.2728 0.122916 39.9761 0 39.6667 0H30.3333C30.0239 0 29.7272 0.122916 29.5084 0.341709C29.2896 0.560501 29.1667 0.857247 29.1667 1.16667V10.5C29.1667 10.8094 29.2896 11.1062 29.5084 11.325C29.7272 11.5437 30.0239 11.6667 30.3333 11.6667H33.8333V17.5595C30.4117 17.7842 27.133 19.0161 24.4102 21.1003C24.1557 19.4495 23.3194 17.9441 22.0521 16.8559C20.7849 15.7678 19.1703 15.1686 17.5 15.1667H11.6667C10.6351 15.1628 9.63385 14.8172 8.8195 14.184C8.00514 13.5507 7.42356 12.6655 7.16567 11.6667H10.5C10.8094 11.6667 11.1062 11.5437 11.325 11.325C11.5437 11.1062 11.6667 10.8094 11.6667 10.5V1.16667C11.6667 0.857247 11.5437 0.560501 11.325 0.341709C11.1062 0.122916 10.8094 0 10.5 0H1.16667C0.857247 0 0.560501 0.122916 0.341709 0.341709C0.122916 0.560501 0 0.857247 0 1.16667V10.5C0 10.8094 0.122916 11.1062 0.341709 11.325C0.560501 11.5437 0.857247 11.6667 1.16667 11.6667H4.77167C5.04848 13.296 5.89228 14.775 7.15396 15.8424C8.41565 16.9098 10.014 17.4969 11.6667 17.5H17.5C18.7377 17.5 19.9247 17.9917 20.7998 18.8668C21.675 19.742 22.1667 20.929 22.1667 22.1667V23.142C19.4498 26.0716 17.8231 29.8465 17.5595 33.8333H11.6667V30.3333C11.6667 30.0239 11.5437 29.7272 11.325 29.5084C11.1062 29.2896 10.8094 29.1667 10.5 29.1667H1.16667C0.857247 29.1667 0.560501 29.2896 0.341709 29.5084C0.122916 29.7272 0 30.0239 0 30.3333V39.6667C0 39.9761 0.122916 40.2728 0.341709 40.4916C0.560501 40.7104 0.857247 40.8333 1.16667 40.8333H10.5C10.8094 40.8333 11.1062 40.7104 11.325 40.4916C11.5437 40.2728 11.6667 39.9761 11.6667 39.6667V36.1667H17.5595C17.8231 40.1535 19.4498 43.9284 22.1667 46.858V47.8333C22.1667 49.071 21.675 50.258 20.7998 51.1332C19.9247 52.0083 18.7377 52.5 17.5 52.5H11.6667C10.014 52.5031 8.41565 53.0902 7.15396 54.1576C5.89228 55.225 5.04848 56.704 4.77167 58.3333H1.16667C0.857247 58.3333 0.560501 58.4562 0.341709 58.675C0.122916 58.8938 0 59.1906 0 59.5V68.8333C0 69.1428 0.122916 69.4395 0.341709 69.6583C0.560501 69.8771 0.857247 70 1.16667 70H10.5C10.8094 70 11.1062 69.8771 11.325 69.6583C11.5437 69.4395 11.6667 69.1428 11.6667 68.8333V59.5C11.6667 59.1906 11.5437 58.8938 11.325 58.675C11.1062 58.4562 10.8094 58.3333 10.5 58.3333H7.16567C7.42356 57.3345 8.00514 56.4493 8.8195 55.816C9.63385 55.1828 10.6351 54.8372 11.6667 54.8333H17.5C19.1703 54.8314 20.7849 54.2322 22.0521 53.1441C23.3194 52.0559 24.1557 50.5505 24.4102 48.8997C27.133 50.9839 30.4117 52.2158 33.8333 52.4405V58.3333H30.3333C30.0239 58.3333 29.7272 58.4562 29.5084 58.675C29.2896 58.8938 29.1667 59.1906 29.1667 59.5V68.8333C29.1667 69.1428 29.2896 69.4395 29.5084 69.6583C29.7272 69.8771 30.0239 70 30.3333 70H39.6667C39.9761 70 40.2728 69.8771 40.4916 69.6583C40.7104 69.4395 40.8333 69.1428 40.8333 68.8333V59.5C40.8333 59.1906 40.7104 58.8938 40.4916 58.675C40.2728 58.4562 39.9761 58.3333 39.6667 58.3333H36.1667V52.4405C39.5883 52.2158 42.8669 50.9839 45.5898 48.8997C45.8443 50.5505 46.6806 52.0559 47.9479 53.1441C49.2151 54.2322 50.8297 54.8314 52.5 54.8333H58.3333C59.3649 54.8372 60.3661 55.1828 61.1805 55.816C61.9949 56.4493 62.5764 57.3345 62.8343 58.3333H59.5C59.1906 58.3333 58.8938 58.4562 58.675 58.675C58.4562 58.8938 58.3333 59.1906 58.3333 59.5V68.8333C58.3333 69.1428 58.4562 69.4395 58.675 69.6583C58.8938 69.8771 59.1906 70 59.5 70H68.8333C69.1428 70 69.4395 69.8771 69.6583 69.6583C69.8771 69.4395 70 69.1428 70 68.8333V59.5C70 59.1906 69.8771 58.8938 69.6583 58.675C69.4395 58.4562 69.1428 58.3333 68.8333 58.3333H65.2283C64.9515 56.704 64.1077 55.225 62.846 54.1576C61.5843 53.0902 59.986 52.5031 58.3333 52.5H52.5C51.2623 52.5 50.0753 52.0083 49.2002 51.1332C48.325 50.258 47.8333 49.071 47.8333 47.8333V46.858C50.5502 43.9284 52.1769 40.1535 52.4405 36.1667H58.3333V39.6667C58.3333 39.9761 58.4562 40.2728 58.675 40.4916C58.8938 40.7104 59.1906 40.8333 59.5 40.8333H68.8333C69.1428 40.8333 69.4395 40.7104 69.6583 40.4916C69.8771 40.2728 70 39.9761 70 39.6667V30.3333C70 30.0239 69.8771 29.7272 69.6583 29.5084C69.4395 29.2896 69.1428 29.1667 68.8333 29.1667H59.5C59.1906 29.1667 58.8938 29.2896 58.675 29.5084C58.4562 29.7272 58.3333 30.0239 58.3333 30.3333V33.8333H52.4405C52.1769 29.8465 50.5502 26.0716 47.8333 23.142V22.1667C47.8333 20.929 48.325 19.742 49.2002 18.8668C50.0753 17.9917 51.2623 17.5 52.5 17.5H58.3333C59.986 17.4969 61.5843 16.9098 62.846 15.8424C64.1077 14.775 64.9515 13.296 65.2283 11.6667H68.8333C69.1428 11.6667 69.4395 11.5437 69.6583 11.325C69.8771 11.1062 70 10.8094 70 10.5V1.16667C70 0.857247 69.8771 0.560501 69.6583 0.341709C69.4395 0.122916 69.1428 0 68.8333 0ZM31.5 2.33333H38.5V9.33333H31.5V2.33333ZM2.33333 2.33333H9.33333V9.33333H2.33333V2.33333ZM9.33333 38.5H2.33333V31.5H9.33333V38.5ZM9.33333 67.6667H2.33333V60.6667H9.33333V67.6667ZM38.5 67.6667H31.5V60.6667H38.5V67.6667ZM67.6667 67.6667H60.6667V60.6667H67.6667V67.6667ZM60.6667 31.5H67.6667V38.5H60.6667V31.5ZM35 50.1667C32.0003 50.1667 29.068 49.2772 26.5739 47.6106C24.0797 45.9441 22.1358 43.5754 20.9878 40.804C19.8399 38.0327 19.5395 34.9832 20.1248 32.0411C20.71 29.0991 22.1544 26.3966 24.2755 24.2755C26.3966 22.1544 29.0991 20.71 32.0411 20.1248C34.9832 19.5395 38.0327 19.8399 40.804 20.9878C43.5754 22.1358 45.9441 24.0797 47.6106 26.5739C49.2772 29.068 50.1667 32.0003 50.1667 35C50.162 39.021 48.5626 42.876 45.7193 45.7193C42.876 48.5626 39.021 50.162 35 50.1667ZM67.6667 9.33333H60.6667V2.33333H67.6667V9.33333Z" fill="black"/>
<path d="M65.3333 4.66406H63V6.9974H65.3333V4.66406Z" fill="black"/>
<path d="M36.1654 63H33.832V65.3333H36.1654V63Z" fill="black"/>
<path d="M7.0013 63H4.66797V65.3333H7.0013V63Z" fill="black"/>
<path d="M65.3333 63H63V65.3333H65.3333V63Z" fill="black"/>
<path d="M65.3333 33.8359H63V36.1693H65.3333V33.8359Z" fill="black"/>
<path d="M7.0013 33.8359H4.66797V36.1693H7.0013V33.8359Z" fill="black"/>
</svg>
