<svg width="70" height="66" viewBox="0 0 70 66" fill="none" xmlns="http://www.w3.org/2000/svg">
<path d="M68.8851 65.9952H1.11494C0.498278 65.9952 0 65.4922 0 64.8697V13.199C0 12.5765 0.49831 12.0703 1.11494 12.0703H68.8851C69.5017 12.0703 70 12.5765 70 13.199V64.8697C70 65.1684 69.8848 65.4545 69.673 65.6651C69.4643 65.8758 69.1809 65.9952 68.8851 65.9952ZM2.22956 63.7409H67.7696V14.324H2.22956V63.7409Z" fill="black"/>
<path d="M68.8851 14.3278H1.11494C0.498278 14.3278 0 13.8247 0 13.2022V1.12871C0 0.50617 0.49831 0 1.11494 0H68.8851C69.5017 0 70 0.50621 70 1.12871V13.2022C70 13.5009 69.8848 13.787 69.673 13.9977C69.4643 14.2084 69.1809 14.3278 68.8851 14.3278ZM2.22956 12.0734H67.7696V2.25445H2.22956V12.0734Z" fill="black"/>
<path d="M20.955 8.28554H6.69697C6.08031 8.28554 5.58203 7.78248 5.58203 7.15996C5.58203 6.53745 6.08034 6.03125 6.69697 6.03125H20.955C21.5717 6.03125 22.0699 6.53746 22.0699 7.15996C22.0699 7.78247 21.5716 8.28554 20.955 8.28554Z" fill="black"/>
<path d="M63.3163 8.28554H59.3298C58.7131 8.28554 58.2148 7.78248 58.2148 7.15996C58.2148 6.53745 58.7132 6.03125 59.3298 6.03125H63.3163C63.9329 6.03125 64.4312 6.53746 64.4312 7.15996C64.4312 7.78247 63.9329 8.28554 63.3163 8.28554Z" fill="black"/>
<path d="M54.7616 8.28554H50.7751C50.1616 8.28554 49.6602 7.78248 49.6602 7.15996C49.6602 6.53745 50.1616 6.03125 50.7751 6.03125H54.7616C55.3782 6.03125 55.8796 6.53746 55.8796 7.15996C55.8796 7.78247 55.3782 8.28554 54.7616 8.28554Z" fill="black"/>
<path d="M46.21 8.28554H42.2235C41.6069 8.28554 41.1055 7.78248 41.1055 7.15996C41.1055 6.53745 41.6069 6.03125 42.2235 6.03125H46.21C46.8267 6.03125 47.3249 6.53746 47.3249 7.15996C47.3249 7.78247 46.8266 8.28554 46.21 8.28554Z" fill="black"/>
<path d="M62.6347 60.6171H48.3767C47.76 60.6171 47.2617 60.1109 47.2617 59.4884V45.0943C47.2617 44.4749 47.76 43.9688 48.3767 43.9688H62.6347C63.2514 43.9688 63.7527 44.475 63.7527 45.0943V59.4884C63.7527 59.7902 63.6344 60.0763 63.4257 60.287C63.2171 60.4976 62.9337 60.6171 62.6347 60.6171ZM49.4921 58.3627H61.5201V46.2232H49.4953L49.4921 58.3627Z" fill="black"/>
<path d="M54.1766 56.1169C53.8808 56.1169 53.5942 55.9974 53.3856 55.7868L50.729 53.0954C50.2929 52.652 50.2929 51.9383 50.7321 51.5012C51.1681 51.0611 51.8751 51.0611 52.3111 51.5012L54.1766 53.3941L58.7019 48.8068C58.9106 48.5961 59.194 48.4766 59.4899 48.4766C59.7858 48.4735 60.0692 48.593 60.281 48.8036C60.717 49.2438 60.717 49.9575 60.2841 50.3977L54.9677 55.7836C54.759 55.9974 54.4725 56.1169 54.1766 56.1169Z" fill="black"/>
<path d="M42.13 60.6171H27.872C27.2553 60.6171 26.7539 60.1109 26.7539 59.4884V45.0943C26.7539 44.4749 27.2553 43.9688 27.872 43.9688H42.13C42.7467 43.9688 43.248 44.475 43.248 45.0943V59.4884C43.248 59.7902 43.1297 60.0763 42.921 60.287C42.7092 60.4976 42.4259 60.6171 42.13 60.6171ZM28.9874 58.3627H41.0154V46.2232H28.9874V58.3627Z" fill="black"/>
<path d="M31.4097 57.0449C30.9581 57.0449 30.5501 56.7713 30.3788 56.35C30.2044 55.9287 30.3009 55.4445 30.6217 55.1207L37.7974 47.8766C38.2334 47.4521 38.9279 47.4584 39.3577 47.8923C39.7875 48.3262 39.7968 49.0274 39.3733 49.4706L32.1976 56.7147C31.9889 56.9254 31.7056 57.0449 31.4097 57.0449Z" fill="black"/>
<path d="M38.5884 57.0449C38.2925 57.0449 38.0091 56.9254 37.8004 56.7147L30.6248 49.4706C30.2012 49.0273 30.2106 48.3261 30.6404 47.8923C31.0702 47.4584 31.7647 47.4521 32.2007 47.8766L39.3763 55.1207C39.6971 55.4445 39.7937 55.9287 39.6193 56.35C39.448 56.7713 39.04 57.0449 38.5884 57.0449Z" fill="black"/>
<path d="M21.6222 60.6171H7.36414C6.74748 60.6171 6.24609 60.1109 6.24609 59.4884V45.0943C6.24609 44.4749 6.74752 43.9688 7.36414 43.9688H21.6222C22.2388 43.9688 22.7371 44.475 22.7371 45.0943V59.4884C22.7371 59.7902 22.6188 60.0763 22.4101 60.287C22.2014 60.4976 21.918 60.6171 21.6222 60.6171ZM8.47956 58.3627H20.5044V46.2232H8.47956V58.3627Z" fill="black"/>
<path d="M10.9037 57.0445C10.4552 57.0445 10.0473 56.771 9.87282 56.3497C9.70153 55.9284 9.79807 55.4442 10.1157 55.1204L17.2914 47.8762C17.7305 47.4581 18.4189 47.4706 18.8455 47.9014C19.2722 48.3321 19.2846 49.027 18.8704 49.4703L11.6948 56.7144C11.4861 56.9251 11.2027 57.0445 10.9037 57.0445Z" fill="black"/>
<path d="M18.0791 57.0446C17.7833 57.0446 17.4999 56.9251 17.2912 56.7144L10.1155 49.4703C9.70132 49.027 9.71377 48.3321 10.1405 47.9014C10.5671 47.4706 11.2554 47.4581 11.6945 47.8762L18.8702 55.1204C19.1879 55.4442 19.2844 55.9284 19.1131 56.3497C18.9387 56.771 18.5308 57.0446 18.0791 57.0446Z" fill="black"/>
<path d="M21.6222 40.8524H7.36414C6.74748 40.8524 6.24609 40.3493 6.24609 39.7268V33.5485C6.24921 30.7062 8.5321 28.4016 11.3506 28.3984H17.6355C20.451 28.4016 22.7338 30.7062 22.737 33.5485V39.7268C22.737 40.0255 22.6186 40.3116 22.4099 40.5222C22.2013 40.7329 21.918 40.8524 21.6222 40.8524ZM8.47956 38.598H20.5044V33.5485C20.5044 31.9481 19.2212 30.6527 17.6359 30.6527H11.351C9.76575 30.6527 8.47948 31.9481 8.47948 33.5485L8.47956 38.598Z" fill="black"/>
<path d="M14.491 25.4312C12.8933 25.4281 11.4514 24.4565 10.8409 22.9662C10.2274 21.4727 10.5669 19.756 11.6974 18.6147C12.828 17.4734 14.5284 17.1307 16.0077 17.7501C17.484 18.3664 18.4463 19.8221 18.4463 21.4382C18.4463 23.6422 16.6742 25.4281 14.491 25.4312ZM14.491 19.6994C13.7965 19.6994 13.1674 20.1239 12.9027 20.7715C12.6348 21.4224 12.7843 22.1707 13.2764 22.6675C13.7685 23.1643 14.5097 23.312 15.1513 23.0448C15.796 22.7744 16.2164 22.1393 16.2164 21.4381C16.2133 20.4792 15.4409 19.7026 14.491 19.7026L14.491 19.6994Z" fill="black"/>
<path d="M11.0712 40.8491C10.4545 40.8491 9.95312 40.346 9.95312 39.7235V35.699C9.95312 35.0765 10.4546 34.5703 11.0712 34.5703C11.6878 34.5703 12.1861 35.0765 12.1861 35.699V39.7235C12.1861 40.0222 12.0678 40.3083 11.8591 40.519C11.6504 40.7297 11.367 40.8491 11.0712 40.8491Z" fill="black"/>
<path d="M17.9157 40.8491C17.2991 40.8491 16.8008 40.346 16.8008 39.7235V35.699C16.8008 35.0765 17.2991 34.5703 17.9157 34.5703C18.5324 34.5703 19.0338 35.0765 19.0338 35.699V39.7235C19.0338 40.0222 18.9154 40.3083 18.7067 40.519C18.4981 40.7297 18.2116 40.8491 17.9157 40.8491Z" fill="black"/>
<path d="M42.13 40.8524H27.872C27.2553 40.8524 26.7539 40.3493 26.7539 39.7268V33.5485C26.757 30.7062 29.0399 28.4016 31.8584 28.3984H38.1434C40.962 28.4016 43.2448 30.7062 43.2479 33.5485V39.7268C43.2479 40.0255 43.1295 40.3116 42.9209 40.5222C42.7091 40.7329 42.4259 40.8524 42.13 40.8524ZM28.9874 38.598H41.0154V33.5485C41.0154 31.9481 39.7291 30.6527 38.1438 30.6527H31.8589C30.2736 30.6527 28.9874 31.9481 28.9874 33.5485V38.598Z" fill="black"/>
<path d="M34.9981 25.4312C33.3972 25.4312 31.9553 24.4565 31.3449 22.9662C30.7313 21.4727 31.0708 19.756 32.2013 18.6147C33.3319 17.4734 35.0323 17.1307 36.5116 17.7501C37.9879 18.3664 38.9534 19.8221 38.9534 21.4382C38.9502 23.6422 37.1812 25.4281 34.9981 25.4312ZM34.9981 19.6994C34.3004 19.6994 33.6744 20.1239 33.4066 20.7715C33.1419 21.4224 33.2882 22.1707 33.7803 22.6675C34.2724 23.1643 35.0136 23.312 35.6583 23.0448C36.2999 22.7744 36.7203 22.1393 36.7203 21.4381C36.7172 20.4792 35.948 19.7026 34.998 19.7026L34.9981 19.6994Z" fill="black"/>
<path d="M31.5759 40.8491C30.9592 40.8491 30.4609 40.346 30.4609 39.7235V35.699C30.4609 35.0765 30.9592 34.5703 31.5759 34.5703C32.1925 34.5703 32.6939 35.0765 32.6939 35.699V39.7235C32.6939 40.0222 32.5756 40.3083 32.3669 40.519C32.1551 40.7297 31.8718 40.8491 31.5759 40.8491Z" fill="black"/>
<path d="M38.4227 40.8491C37.8061 40.8491 37.3047 40.346 37.3047 39.7235V35.699C37.3047 35.0765 37.8061 34.5703 38.4227 34.5703C39.0394 34.5703 39.5377 35.0765 39.5377 35.699V39.7235C39.5377 40.0222 39.4193 40.3083 39.2107 40.519C39.002 40.7297 38.7186 40.8491 38.4227 40.8491Z" fill="black"/>
<path d="M62.6347 40.8524H48.3767C47.76 40.8524 47.2617 40.3493 47.2617 39.7268V33.5517C47.2648 30.7062 49.5477 28.4016 52.3631 28.3984H58.6481C61.4667 28.4016 63.7495 30.7063 63.7526 33.5517V39.7268C63.7526 40.0255 63.6342 40.3116 63.4256 40.5222C63.2169 40.7329 62.9337 40.8524 62.6347 40.8524ZM49.4921 38.598H61.5201V33.5517C61.5201 31.9513 60.2338 30.6527 58.6485 30.6527H52.3636C50.7784 30.6527 49.4952 31.9513 49.4952 33.5517L49.4921 38.598Z" fill="black"/>
<path d="M55.509 25.4312C53.9082 25.4312 52.4662 24.4597 51.8527 22.9662C51.2391 21.4727 51.5786 19.756 52.7091 18.6147C53.8428 17.4734 55.5433 17.1307 57.0194 17.7501C58.4988 18.3664 59.4612 19.8221 59.4612 21.4382C59.458 23.6422 57.689 25.4281 55.509 25.4312ZM55.509 19.6994C54.8113 19.6994 54.1822 20.1239 53.9144 20.7715C53.6497 21.4224 53.796 22.1707 54.2881 22.6675C54.7802 23.1643 55.5214 23.3152 56.1661 23.0448C56.8108 22.7775 57.2312 22.1424 57.2312 21.4381C57.2281 20.4792 56.4589 19.6994 55.509 19.6994Z" fill="black"/>
<path d="M52.0868 40.8491C51.4701 40.8491 50.9688 40.346 50.9688 39.7235V35.699C50.9688 35.0765 51.4702 34.5703 52.0868 34.5703C52.7035 34.5703 53.2017 35.0765 53.2017 35.699V39.7235C53.2017 40.0222 53.0834 40.3083 52.8747 40.519C52.666 40.7297 52.3827 40.8491 52.0868 40.8491Z" fill="black"/>
<path d="M58.9274 40.8491C58.3108 40.8491 57.8125 40.346 57.8125 39.7235V35.699C57.8125 35.0765 58.3108 34.5703 58.9274 34.5703C59.5441 34.5703 60.0455 35.0765 60.0455 35.699V39.7235C60.0455 40.0222 59.9271 40.3083 59.7185 40.519C59.5098 40.7297 59.2233 40.8491 58.9274 40.8491Z" fill="black"/>
</svg>
