<svg width="94" height="74" viewBox="0 0 94 74" fill="none" xmlns="http://www.w3.org/2000/svg">
<path fill-rule="evenodd" clip-rule="evenodd" d="M56.9281 38.2893L39.4297 48.3373C38.843 48.6756 38.088 48.4734 37.7476 47.8901C37.6342 47.6957 37.5833 47.4857 37.5833 47.2757L37.5794 27.1141C37.5794 26.4376 38.131 25.8893 38.8117 25.8893C39.0777 25.8893 39.3242 25.9709 39.5276 26.1148L56.9978 36.1388C57.5846 36.4771 57.7841 37.2237 57.4438 37.8109C57.3186 38.0209 57.1354 38.1882 56.9281 38.2893ZM28.4529 66.1964C29.1336 66.1964 29.6852 66.7447 29.6852 67.4213C29.6852 68.0979 29.1336 68.6462 28.4529 68.6462H6.89069C6.21002 68.6462 5.65841 68.0979 5.65841 67.4213C5.65841 66.7447 6.20999 66.1964 6.89069 66.1964H28.4529ZM18.161 51.1563C18.8417 51.1563 19.3933 51.7046 19.3933 52.3812C19.3933 53.0578 18.8417 53.6061 18.161 53.6061H6.89069C6.21002 53.6061 5.65841 53.0578 5.65841 52.3812C5.65841 51.7046 6.20999 51.1563 6.89069 51.1563H18.161ZM28.4529 58.6766C29.1336 58.6766 29.6852 59.2248 29.6852 59.9015C29.6852 60.578 29.1336 61.1263 28.4529 61.1263H6.89069C6.21002 61.1263 5.65841 60.5781 5.65841 59.9015C5.65841 59.2249 6.20999 58.6766 6.89069 58.6766H28.4529ZM32.6425 45.7976C33.4014 45.7976 34.086 46.1242 34.5789 46.6492C35.0523 47.1508 35.3418 47.839 35.3418 48.5856V58.9361H69.7936C71.0845 58.9361 72.262 58.4229 73.1226 57.5946L73.1774 57.5363C74.0458 56.673 74.5856 55.4832 74.5856 54.1728V28.2058H61.3635C60.6046 28.2058 59.92 27.8792 59.4271 27.3543C58.9576 26.8526 58.6643 26.1644 58.6643 25.4178V15.0315H24.2705C22.9522 15.0315 21.7552 15.5681 20.8867 16.4352L20.8828 16.4313C20.0144 17.2946 19.4746 18.4883 19.4746 19.7987V45.8005L32.6425 45.7976ZM35.3417 61.3901H69.7936C71.7495 61.3901 73.5373 60.6047 74.8478 59.337L74.9221 59.2709C76.2365 57.9644 77.0541 56.1602 77.0541 54.1771L77.0502 28.2061H91.3008C92.0597 28.2061 92.7443 27.8795 93.2372 27.3546C93.7105 26.853 94 26.1647 94 25.4182V2.79188C94 2.04141 93.7066 1.35706 93.2372 0.855454C92.7443 0.330521 92.0597 0.00388842 91.3008 0.00388842L61.3625 0C60.6036 0 59.919 0.326622 59.4261 0.851566C58.9567 1.35318 58.6633 2.04141 58.6633 2.78799V12.579L24.2695 12.5829C22.2744 12.5829 20.4593 13.3956 19.1449 14.7021V14.706C17.8305 16.0164 17.0129 17.8167 17.0129 19.7959V45.7977H2.69922C1.94032 45.7977 1.25574 46.1244 0.762823 46.6493C0.293394 47.1509 0 47.8392 0 48.5857V71.212C0 71.9625 0.293394 72.6468 0.762823 73.1484C1.25573 73.6734 1.94033 74 2.69922 74H32.6375C33.3964 74 34.081 73.6734 34.5739 73.1484C35.0473 72.6468 35.3367 71.9586 35.3367 71.212L35.3417 61.3901ZM32.7755 48.3131C32.7364 48.2742 32.6895 48.247 32.6386 48.247H2.70031C2.64946 48.247 2.60251 48.2742 2.5634 48.3131C2.50472 48.3792 2.4656 48.4764 2.4656 48.5853V71.2115C2.4656 71.3243 2.50472 71.4215 2.5634 71.4837C2.60251 71.5226 2.64946 71.5498 2.70031 71.5498H32.6386C32.6895 71.5498 32.7364 71.5226 32.7755 71.4837C32.8342 71.4176 32.8733 71.3204 32.8733 71.2115V48.5853C32.8772 48.4764 32.8381 48.3792 32.7755 48.3131ZM83.7202 5.86268C84.8077 5.86268 85.6878 6.80367 85.6878 7.96633C85.6878 9.12512 84.8077 10.0661 83.7202 10.0661C82.6327 10.0661 81.7526 9.12511 81.7526 7.96633C81.7526 6.80366 82.6327 5.86268 83.7202 5.86268ZM80.1017 17.567L70.1967 7.58976C69.7351 7.12315 68.9762 7.09982 68.4873 7.55088L61.1289 14.3168V2.79159C61.1289 2.67883 61.168 2.58161 61.2267 2.5194C61.2658 2.48051 61.3128 2.4533 61.3636 2.4533H91.3019C91.3528 2.4533 91.3997 2.48051 91.4389 2.5194C91.4975 2.5855 91.5367 2.68271 91.5367 2.79159L91.5406 14.8105L88.3015 12.4153C87.8712 12.0809 87.2492 12.0653 86.7954 12.4114L80.1017 17.567ZM91.5402 17.8587V25.4178C91.5402 25.5306 91.5011 25.6278 91.4424 25.69C91.4033 25.7289 91.3564 25.7561 91.3055 25.7561H61.3642C61.3133 25.7561 61.2664 25.7289 61.2273 25.69C61.1647 25.6239 61.1295 25.5267 61.1295 25.4178V17.641L69.278 10.1441L82.9027 23.8622C83.3799 24.3405 84.1584 24.3483 84.6396 23.8778C85.1247 23.4034 85.1286 22.6296 84.6552 22.1513L81.8465 19.3205L87.5656 14.9149L91.5402 17.8587ZM46.9838 41.1778L53.9235 37.196L40.0444 29.2286V45.1556L46.9838 41.1778Z" fill="white"/>
</svg>
