<svg width="68" height="82" viewBox="0 0 68 82" fill="none" xmlns="http://www.w3.org/2000/svg">
<path d="M8.90293 56.6115C6.41565 53.9077 4.36487 50.8008 2.86489 47.405C1.02198 43.2406 0 38.6423 0 33.8063C0 24.4718 3.80714 16.0192 9.95905 9.9023C16.111 3.78545 24.6121 0 34 0C43.3879 0 51.889 3.78545 58.041 9.9023C64.1929 16.0192 68 24.4718 68 33.8063C68 38.6423 66.9746 43.2403 65.1351 47.405C63.6317 50.8046 61.5809 53.908 59.0971 56.6115C60.3719 56.8802 61.5116 57.5174 62.4019 58.3992L62.4781 58.4818C63.6317 59.6667 64.3453 61.2822 64.3453 63.0491V75.4177C64.3453 77.2295 63.6005 78.876 62.4019 80.0677C61.2033 81.2595 59.5474 82 57.7254 82H10.2767C8.45449 82 6.79861 81.2595 5.60007 80.0677C4.40144 78.8759 3.65668 77.2294 3.65668 75.4177V63.0491C3.65668 61.2408 4.40494 59.5943 5.60353 58.4026C6.49035 57.5174 7.6301 56.8802 8.90491 56.6116L8.90293 56.6115ZM41.9407 63.4178C41.435 62.8942 41.4488 62.0572 41.9788 61.5509C42.5054 61.048 43.3472 61.0618 43.8564 61.5888C45.921 63.7312 46.9499 66.4833 46.9499 69.2354C46.9499 71.9875 45.9176 74.743 43.8564 76.882C43.3507 77.4056 42.5089 77.4228 41.9788 76.9199C41.4523 76.417 41.435 75.5801 41.9407 75.053C43.503 73.4307 44.2859 71.333 44.2859 69.2354C44.2859 67.1377 43.503 65.0401 41.9407 63.4178ZM37.3854 66.6521C36.8796 66.1285 36.8935 65.2915 37.4235 64.7852C37.95 64.2823 38.7918 64.2961 39.3011 64.8231C40.4928 66.0596 41.0885 67.6509 41.0885 69.2354C41.0885 70.8233 40.4927 72.4112 39.3011 73.6477C38.7953 74.1712 37.9535 74.1885 37.4235 73.6856C36.8969 73.1827 36.8796 72.3457 37.3854 71.8187C38.0782 71.0988 38.4246 70.1688 38.4246 69.2354C38.4246 68.3019 38.0782 67.372 37.3854 66.6521ZM33.9836 70.5581C33.2492 70.5581 32.6534 69.9656 32.6534 69.2354C32.6534 68.5052 33.2492 67.9128 33.9836 67.9128H34.0148C34.7492 67.9128 35.345 68.5052 35.345 69.2354C35.345 69.9656 34.7492 70.5581 34.0148 70.5581H33.9836ZM24.1451 61.5887C24.6509 61.0651 25.4927 61.0479 26.0227 61.5508C26.5493 62.0537 26.5666 62.8907 26.0608 63.4177C24.4985 65.04 23.7156 67.1377 23.7156 69.2354C23.7156 71.333 24.4985 73.4307 26.0608 75.053C26.5666 75.5766 26.5528 76.4136 26.0227 76.9199C25.4962 77.4228 24.6544 77.409 24.1451 76.882C22.084 74.743 21.0516 71.9875 21.0516 69.2354C21.0516 66.4833 22.084 63.7311 24.1451 61.5887ZM28.7005 64.823C29.2063 64.2995 30.048 64.2823 30.5781 64.7851C31.1046 65.288 31.122 66.125 30.6162 66.652C29.9234 67.3719 29.5769 68.3019 29.5769 69.2354C29.5769 70.1688 29.9233 71.0988 30.6162 71.8187C31.122 72.3422 31.1081 73.1793 30.5781 73.6856C30.0515 74.1885 29.2097 74.1747 28.7005 73.6477C27.5088 72.4112 26.913 70.8233 26.913 69.2354C26.913 67.6509 27.5089 66.0595 28.7005 64.823ZM54.547 56.4668C53.7018 51.8307 51.3081 47.7283 47.92 44.7146C44.2272 41.432 39.3497 39.4343 33.9978 39.4343C28.6492 39.4343 23.7683 41.432 20.0755 44.7146C16.6876 47.7285 14.2939 51.8273 13.4485 56.4668H54.547ZM57.7202 59.1122H10.2715C9.1837 59.1122 8.19294 59.5565 7.47594 60.2695C6.75539 60.979 6.31198 61.9642 6.31198 63.0491V75.4177C6.31198 76.4993 6.75886 77.4844 7.47594 78.1973C8.19302 78.9102 9.18379 79.3546 10.2715 79.3546H57.7202C58.808 79.3546 59.7987 78.9103 60.5157 78.1973C61.2328 77.4843 61.6797 76.4992 61.6797 75.4177V63.0491C61.6797 61.9951 61.2605 61.0341 60.5781 60.328L60.5157 60.2695C59.7986 59.5565 58.8079 59.1122 57.7202 59.1122ZM56.9581 55.0168C59.3276 52.4817 61.2813 49.5505 62.7017 46.3368C64.3957 42.5065 65.3379 38.2631 65.3379 33.8024C65.3379 25.1982 61.8288 17.4067 56.1575 11.7687C50.4867 6.13017 42.6512 2.64055 33.9975 2.64055C25.3441 2.64055 17.5079 6.12973 11.8375 11.7687C6.16674 17.4072 2.65712 25.198 2.65712 33.8024C2.65712 38.2629 3.59938 42.5064 5.29339 46.3368C6.71373 49.5504 8.66749 52.4817 11.037 55.0168C12.1352 50.1945 14.7298 45.9336 18.3117 42.7513C20.889 40.4573 23.9756 38.7248 27.3813 37.7328C26.2728 37.1197 25.2578 36.355 24.3675 35.4698L24.2947 35.3906C21.8733 32.9451 20.3768 29.5902 20.3768 25.8913C20.3768 22.154 21.9045 18.7682 24.3675 16.3161C26.8304 13.8602 30.2392 12.3412 34.0011 12.3412C37.7629 12.3412 41.1718 13.8603 43.6346 16.3092L43.7074 16.3884C46.1289 18.8339 47.6254 22.1923 47.6254 25.8913C47.6254 29.6285 46.0976 33.0143 43.6347 35.4665C42.7444 36.3551 41.7294 37.1198 40.6174 37.7363C44.0226 38.7283 47.1092 40.4643 49.687 42.7583C53.269 45.9444 55.8635 50.2051 56.9617 55.0237L56.9581 55.0168ZM41.7508 18.1754C39.7693 16.2052 37.0257 14.9825 33.998 14.9825C30.9703 14.9825 28.2267 16.2052 26.2452 18.1754C24.2602 20.1457 23.0339 22.8736 23.0339 25.8841C23.0339 28.8635 24.236 31.5639 26.1794 33.5307L26.2452 33.5927C28.2267 35.5629 30.9703 36.7857 33.998 36.7857C37.0257 36.7857 39.7693 35.5629 41.7508 33.5927C43.7358 31.6225 44.9621 28.8945 44.9621 25.8841C44.9621 22.9047 43.76 20.2042 41.8166 18.234L41.7508 18.172V18.1754Z" fill="white"/>
</svg>
