<svg width="55" height="55" viewBox="0 0 55 55" fill="none" xmlns="http://www.w3.org/2000/svg">
<path d="M42.3324 25.5703C35.3464 25.5703 29.6641 19.8354 29.6641 12.7839C29.6616 5.73533 35.346 0 42.3324 0C49.3159 0 54.9983 5.73489 54.9983 12.7864C54.9983 19.835 49.3164 25.5703 42.3324 25.5703ZM42.3324 1.76846C36.3152 1.76846 31.4187 6.71055 31.4187 12.7839C31.4187 18.8572 36.3152 23.7993 42.3324 23.7993C48.3497 23.8018 53.2462 18.8597 53.2462 12.7864C53.2462 6.71068 48.3497 1.76846 42.3324 1.76846Z" fill="black"/>
<path d="M42.3334 19.9091C40.1433 19.9067 38.3668 18.1161 38.3643 15.9056C38.3643 15.4166 38.7583 15.0214 39.2428 15.0214C39.7273 15.0214 40.1188 15.4166 40.1188 15.9056C40.1188 16.8096 40.6571 17.6246 41.4842 17.9704C42.3113 18.3161 43.2632 18.1259 43.897 17.4863C44.5308 16.8466 44.7192 15.8859 44.3766 15.051C44.034 14.2162 43.2265 13.6729 42.3334 13.6729C40.7281 13.6729 39.2795 12.6973 38.6653 11.2005C38.0511 9.70383 38.3912 7.98241 39.5266 6.83642C40.662 5.69043 42.3701 5.34957 43.8505 5.96951C45.3334 6.58944 46.2999 8.05158 46.2999 9.67178C46.2999 10.1608 45.906 10.5559 45.4215 10.5559C44.937 10.5559 44.5455 10.1608 44.5455 9.67178C44.5455 8.76782 44.0047 7.95276 43.1776 7.60703C42.3505 7.26126 41.3987 7.4539 40.7673 8.09111C40.1335 8.73078 39.9451 9.69152 40.2877 10.5264C40.6303 11.3612 41.4377 11.9045 42.3334 11.9045C44.5038 11.9317 46.2486 13.7174 46.2486 15.9081C46.2486 18.1013 44.5038 19.8845 42.3334 19.9116L42.3334 19.9091Z" fill="black"/>
<path d="M42.3335 7.42846C41.849 7.42846 41.4551 7.03329 41.4551 6.54429V4.12636C41.4551 3.63733 41.849 3.24219 42.3335 3.24219C42.818 3.24219 43.2095 3.63736 43.2095 4.12636V6.54429C43.2095 6.77892 43.1165 7.00367 42.9526 7.16915C42.7886 7.3371 42.566 7.42846 42.3335 7.42846Z" fill="black"/>
<path d="M42.3335 22.3269C41.849 22.3269 41.4551 21.9317 41.4551 21.4427V19.0248C41.4551 18.5358 41.849 18.1406 42.3335 18.1406C42.818 18.1406 43.2095 18.5358 43.2095 19.0248V21.4427C43.2095 21.6774 43.1165 21.9021 42.9526 22.0676C42.7886 22.2355 42.566 22.3269 42.3335 22.3269Z" fill="black"/>
<path d="M7.25506 54.9972H0.877958C0.393449 54.9972 0.00195312 54.602 0.00195312 54.113V44.9179C0.00195312 44.4289 0.393474 44.0312 0.877958 44.0312H7.25506C7.73957 44.0312 8.13351 44.4289 8.13351 44.9179V54.113C8.13351 54.3476 8.04052 54.5724 7.87657 54.7379C7.71262 54.9058 7.48753 54.9972 7.25506 54.9972ZM1.75421 53.2288H6.37905V45.8021H1.75421V53.2288Z" fill="black"/>
<path d="M20.0095 54.9996H13.6324C13.1478 54.9996 12.7539 54.6044 12.7539 54.1154V35.7201C12.7539 35.2311 13.1479 34.8359 13.6324 34.8359H20.0095C20.494 34.8359 20.8879 35.2311 20.8879 35.7201V54.1129C20.8879 54.3475 20.7949 54.5747 20.631 54.7402C20.467 54.9082 20.2419 54.9996 20.0095 54.9996ZM14.5086 53.2287H19.1334V36.6044H14.5086V53.2287Z" fill="black"/>
<path d="M32.7653 54.9995H26.3882C25.9037 54.9995 25.5098 54.6043 25.5098 54.1153V40.3217C25.5098 39.8326 25.9037 39.4375 26.3882 39.4375H32.7653C33.2498 39.4375 33.6413 39.8327 33.6413 40.3217V54.1153C33.6413 54.3499 33.5508 54.5747 33.3844 54.7402C33.2204 54.9081 32.9978 54.9995 32.7653 54.9995ZM27.2645 53.2286H31.8893V41.2053H27.2645V53.2286Z" fill="black"/>
<path d="M45.5212 55.0018H39.1416C38.6571 55.0018 38.2656 54.6066 38.2656 54.1176V31.1264C38.2656 30.6373 38.6571 30.2422 39.1416 30.2422H45.5212C46.0057 30.2422 46.3972 30.6374 46.3972 31.1264V54.1176C46.3972 54.3523 46.3043 54.577 46.1403 54.7425C45.9764 54.9104 45.7537 55.0018 45.5212 55.0018ZM40.0204 53.2309H44.6452L44.6428 32.0125H40.0204L40.0204 53.2309Z" fill="black"/>
<path d="M4.06558 39.3734C2.4212 39.3734 0.938301 38.3732 0.309424 36.8394C-0.319453 35.3056 0.0280169 33.5397 1.19032 32.3666C2.35261 31.1935 4.10223 30.8402 5.62183 31.4775C7.14144 32.1122 8.13246 33.6089 8.13246 35.2687C8.12756 37.5335 6.30947 39.3685 4.06558 39.3734ZM4.06558 32.9344C3.13082 32.9344 2.28664 33.5025 1.92932 34.3743C1.57206 35.2486 1.77026 36.2514 2.43096 36.9182C3.09166 37.5875 4.08756 37.7851 4.95135 37.4245C5.81514 37.0639 6.37793 36.2118 6.37793 35.2683C6.37548 33.9791 5.34295 32.9369 4.06558 32.9344Z" fill="black"/>
<path d="M16.8214 30.1692C15.1771 30.1692 13.6942 29.169 13.0653 27.6352C12.4364 26.1014 12.7839 24.338 13.9462 23.1624C15.1085 21.9892 16.8581 21.6385 18.3777 22.2733C19.8973 22.9105 20.8883 24.4072 20.8883 26.0669C20.8834 28.3317 19.0653 30.1667 16.8214 30.1692ZM16.8214 23.7327C15.8867 23.7327 15.0425 24.3008 14.6852 25.1726C14.3279 26.0444 14.5261 27.0497 15.1868 27.7164C15.8475 28.3832 16.841 28.5834 17.7072 28.2228C18.571 27.8597 19.1338 27.0101 19.1338 26.0666C19.1313 24.7773 18.0964 23.7352 16.8214 23.7327Z" fill="black"/>
<path d="M29.5777 34.763C27.9333 34.763 26.4504 33.7627 25.8191 32.2289C25.1902 30.6952 25.5377 28.9318 26.7025 27.7561C27.8648 26.583 29.6144 26.2322 31.134 26.867C32.6512 27.5018 33.6422 28.9985 33.6422 30.6582C33.6397 32.9255 31.8217 34.7605 29.5777 34.763ZM29.5777 28.3239C28.6405 28.3239 27.7988 28.8944 27.4414 29.7663C27.0817 30.6381 27.2799 31.6408 27.9406 32.3077C28.6038 32.977 29.5972 33.177 30.461 32.814C31.3248 32.4534 31.89 31.6013 31.89 30.6578C31.89 29.3685 30.855 28.3238 29.5776 28.3214L29.5777 28.3239Z" fill="black"/>
<path d="M26.5749 30.4608C26.4746 30.4608 26.3743 30.4435 26.2788 30.4089L19.5321 27.9761C19.0745 27.8131 18.8372 27.3068 19.0011 26.8449C19.1651 26.3855 19.6667 26.1459 20.1219 26.309L26.8686 28.7442C27.2699 28.8875 27.5097 29.3049 27.4387 29.7272C27.3653 30.152 27.0007 30.4608 26.5749 30.4608Z" fill="black"/>
<path d="M32.1731 29.675C31.8526 29.675 31.5565 29.4996 31.4047 29.2156C31.2506 28.9316 31.2628 28.5858 31.4341 28.3116L35.2343 22.3248V22.3272C35.5035 21.9345 36.032 21.8283 36.4284 22.0852C36.8273 22.3421 36.9521 22.8706 36.7098 23.283L32.9121 29.2674C32.7506 29.5217 32.4717 29.675 32.1731 29.675Z" fill="black"/>
<path d="M6.66053 34.2759C6.2788 34.2759 5.93869 34.029 5.82368 33.661C5.70622 33.2954 5.83836 32.8929 6.14913 32.6706L13.7177 27.2148C13.9061 27.0765 14.1435 27.0196 14.3735 27.0592C14.6035 27.0962 14.8091 27.2246 14.9461 27.4173C15.0807 27.6099 15.137 27.847 15.0978 28.0817C15.0587 28.3138 14.929 28.5188 14.7381 28.6547L7.16955 34.1105C7.02028 34.2192 6.84161 34.2759 6.66053 34.2759Z" fill="black"/>
</svg>
