<svg width="55" height="55" viewBox="0 0 55 55" fill="none" xmlns="http://www.w3.org/2000/svg">
<path d="M42.8749 13.7585C43.122 13.7585 43.359 13.662 43.5338 13.4901C43.7085 13.3182 43.8067 13.0851 43.8067 12.8421V9.17616H49.569C49.7888 9.78764 50.2213 10.303 50.7901 10.6312C51.3589 10.9594 52.0273 11.0792 52.6773 10.9695C53.3272 10.8598 53.9168 10.5277 54.3418 10.0318C54.7669 9.53596 55 8.90826 55 8.25968C55 7.6111 54.7669 6.9834 54.3418 6.48753C53.9168 5.99165 53.3272 5.65952 52.6773 5.54985C52.0273 5.44017 51.3589 5.56001 50.7901 5.88818C50.2213 6.21635 49.7888 6.73172 49.569 7.3432H42.8749C42.6277 7.3432 42.3907 7.43976 42.216 7.61163C42.0412 7.78351 41.9431 8.01662 41.9431 8.25968V11.9256H32.5774C32.4701 10.6565 32.1373 9.41576 31.5944 8.25968H38.2158C38.463 8.25968 38.7 8.16312 38.8747 7.99125C39.0495 7.81938 39.1476 7.58627 39.1476 7.3432V3.6773H43.9781C44.1979 4.28878 44.6305 4.80415 45.1993 5.13232C45.768 5.46049 46.4365 5.58033 47.0864 5.47065C47.7363 5.36098 48.3259 5.02885 48.751 4.53297C49.176 4.0371 49.4091 3.4094 49.4091 2.76082C49.4091 2.11224 49.176 1.48454 48.751 0.988665C48.3259 0.492788 47.7363 0.160661 47.0864 0.0509849C46.4365 -0.0586911 45.768 0.0611459 45.1993 0.389315C44.6305 0.717485 44.1979 1.23286 43.9781 1.84434H38.2158C37.9687 1.84434 37.7317 1.9409 37.5569 2.11277C37.3822 2.28465 37.284 2.51775 37.284 2.76082V6.42673H30.7613C30.6861 6.43221 30.6119 6.44699 30.5405 6.47072C29.4055 4.89743 27.8688 3.64625 26.0854 2.8433C24.302 2.04036 22.3349 1.71403 20.3823 1.89721C18.4298 2.08039 16.5609 2.76661 14.964 3.88669C13.3671 5.00677 12.0986 6.52113 11.2865 8.27709C11.2558 8.26963 11.2247 8.26382 11.1933 8.25968H3.73882V5.34162C4.36054 5.12543 4.88453 4.70002 5.21819 4.14059C5.55186 3.58117 5.6737 2.92373 5.56219 2.2845C5.45068 1.64526 5.11299 1.06537 4.60882 0.647328C4.10464 0.229284 3.46644 0 2.80701 0C2.14758 0 1.50938 0.229284 1.00521 0.647328C0.501033 1.06537 0.163349 1.64526 0.0518379 2.2845C-0.0596731 2.92373 0.062169 3.58117 0.395829 4.14059C0.729489 4.70002 1.25348 5.12543 1.8752 5.34162V9.17616C1.8752 9.41922 1.97337 9.65233 2.14812 9.8242C2.32287 9.99608 2.55988 10.0926 2.80701 10.0926H10.6296C10.3889 10.9901 10.2652 11.9139 10.2615 12.8421H2.80701C2.55988 12.8421 2.32287 12.9386 2.14812 13.1105C1.97337 13.2824 1.8752 13.5155 1.8752 13.7585V19.426C1.25348 19.6422 0.729489 20.0676 0.395829 20.6271C0.062169 21.1865 -0.0596731 21.8439 0.0518379 22.4832C0.163349 23.1224 0.501033 23.7023 1.00521 24.1203C1.50938 24.5384 2.14758 24.7677 2.80701 24.7677C3.46644 24.7677 4.10464 24.5384 4.60882 24.1203C5.11299 23.7023 5.45068 23.1224 5.56219 22.4832C5.6737 21.8439 5.55186 21.1865 5.21819 20.6271C4.88453 20.0676 4.36054 19.6422 3.73882 19.426V14.675H10.4171C10.764 16.7214 11.6953 18.6285 13.1026 20.1739H8.39788C8.15075 20.1739 7.91374 20.2704 7.73899 20.4423C7.56424 20.6142 7.46607 20.8473 7.46607 21.0904V30.2551H5.43099C5.21118 29.6436 4.77866 29.1283 4.20987 28.8001C3.64108 28.4719 2.97265 28.3521 2.32272 28.4618C1.67279 28.5714 1.0832 28.9036 0.658158 29.3995C0.23312 29.8953 0 30.523 0 31.1716C0 31.8202 0.23312 32.4479 0.658158 32.9438C1.0832 33.4396 1.67279 33.7718 2.32272 33.8814C2.97265 33.9911 3.64108 33.8713 4.20987 33.5431C4.77866 33.2149 5.21118 32.6996 5.43099 32.0881H8.39788C8.64501 32.0881 8.88202 31.9915 9.05677 31.8197C9.23151 31.6478 9.32969 31.4147 9.32969 31.1716V22.0068H15.2644C16.0289 22.5027 16.8522 22.9047 17.716 23.2038V29.5384L14.6951 30.2826C14.524 30.3246 14.3686 30.4135 14.2469 30.5389C14.1252 30.6643 14.0421 30.8211 14.0074 30.9911L13.0756 35.5734C13.0634 35.6329 13.0572 35.6934 13.0569 35.754V44.0023C13.057 44.2453 13.1552 44.4784 13.33 44.6502L16.089 47.3639L19.5796 51.6558V54.0835C19.5796 54.3266 19.6778 54.5597 19.8525 54.7316C20.0273 54.9034 20.2643 55 20.5114 55H41.9431C42.1902 55 42.4272 54.9034 42.602 54.7316C42.7767 54.5597 42.8749 54.3266 42.8749 54.0835V51.7135L47.2609 47.3997C47.4357 47.2278 47.5339 46.9948 47.5339 46.7517V26.5892C47.5334 25.8448 47.3025 25.1182 46.8719 24.506C46.4412 23.8938 45.8313 23.4251 45.1233 23.1621C44.4152 22.8992 43.6425 22.8545 42.908 23.034C42.1734 23.2135 41.5119 23.6087 41.0113 24.167C40.662 23.7761 40.232 23.463 39.7499 23.2485C39.2679 23.034 38.7449 22.923 38.2158 22.923C37.6867 22.923 37.1637 23.034 36.6817 23.2485C36.1997 23.463 35.7697 23.7761 35.4204 24.167C35.0711 23.7761 34.6411 23.463 34.1591 23.2485C33.677 23.034 33.154 22.923 32.625 22.923C32.0959 22.923 31.5729 23.034 31.0908 23.2485C30.6088 23.463 30.1788 23.7761 29.8295 24.167C29.2612 23.5309 28.4863 23.1083 27.6367 22.9713C26.7871 22.8343 25.9155 22.9912 25.1705 23.4155V23.2065C26.5819 22.7113 27.8781 21.9429 28.9824 20.9467C30.0867 19.9504 30.9768 18.7465 31.6 17.4061C31.6307 17.4139 31.6618 17.42 31.6931 17.4244H49.569C49.7888 18.0359 50.2213 18.5513 50.7901 18.8795C51.3589 19.2076 52.0273 19.3275 52.6773 19.2178C53.3272 19.1081 53.9168 18.776 54.3418 18.2801C54.7669 17.7843 55 17.1566 55 16.508C55 15.8594 54.7669 15.2317 54.3418 14.7358C53.9168 14.2399 53.3272 13.9078 52.6773 13.7981C52.0273 13.6885 51.3589 13.8083 50.7901 14.1365C50.2213 14.4646 49.7888 14.98 49.569 15.5915H32.2643C32.4244 14.9906 32.5319 14.3774 32.5858 13.7585H42.8749ZM52.193 7.3432C52.3773 7.3432 52.5574 7.39695 52.7107 7.49766C52.8639 7.59836 52.9833 7.7415 53.0539 7.90896C53.1244 8.07642 53.1428 8.2607 53.1069 8.43848C53.0709 8.61626 52.9822 8.77956 52.8519 8.90773C52.7216 9.0359 52.5555 9.12319 52.3748 9.15855C52.194 9.19391 52.0067 9.17576 51.8364 9.1064C51.6661 9.03703 51.5206 8.91956 51.4182 8.76885C51.3158 8.61813 51.2612 8.44094 51.2612 8.25968C51.2612 8.01662 51.3593 7.78351 51.5341 7.61163C51.7088 7.43976 51.9459 7.3432 52.193 7.3432ZM46.6021 1.84434C46.7864 1.84434 46.9666 1.89809 47.1198 1.9988C47.273 2.0995 47.3925 2.24264 47.463 2.4101C47.5335 2.57756 47.552 2.76184 47.516 2.93962C47.4801 3.11739 47.3913 3.28069 47.261 3.40887C47.1307 3.53704 46.9647 3.62432 46.7839 3.65969C46.6032 3.69505 46.4158 3.6769 46.2455 3.60753C46.0753 3.53817 45.9297 3.4207 45.8273 3.26999C45.725 3.11927 45.6703 2.94208 45.6703 2.76082C45.6703 2.51775 45.7685 2.28465 45.9432 2.11277C46.118 1.9409 46.355 1.84434 46.6021 1.84434ZM2.80701 1.84434C2.99131 1.84434 3.17146 1.89809 3.3247 1.9988C3.47793 2.0995 3.59737 2.24264 3.66789 2.4101C3.73842 2.57756 3.75687 2.76184 3.72092 2.93962C3.68496 3.11739 3.59622 3.28069 3.4659 3.40887C3.33559 3.53704 3.16955 3.62432 2.9888 3.65969C2.80805 3.69505 2.62069 3.6769 2.45042 3.60753C2.28016 3.53817 2.13463 3.4207 2.03224 3.26999C1.92985 3.11927 1.8752 2.94208 1.8752 2.76082C1.8752 2.51775 1.97337 2.28465 2.14812 2.11277C2.32287 1.9409 2.55988 1.84434 2.80701 1.84434ZM2.80701 22.9233C2.62272 22.9233 2.44256 22.8696 2.28933 22.7689C2.13609 22.6682 2.01666 22.525 1.94613 22.3576C1.8756 22.1901 1.85715 22.0058 1.89311 21.828C1.92906 21.6503 2.01781 21.487 2.14812 21.3588C2.27844 21.2306 2.44447 21.1433 2.62522 21.108C2.80598 21.0726 2.99333 21.0908 3.1636 21.1601C3.33387 21.2295 3.4794 21.347 3.58178 21.4977C3.68417 21.6484 3.73882 21.8256 3.73882 22.0068C3.73882 22.2499 3.64065 22.483 3.4659 22.6549C3.29115 22.8268 3.05414 22.9233 2.80701 22.9233ZM2.80701 32.0881C2.62272 32.0881 2.44256 32.0343 2.28933 31.9336C2.13609 31.8329 2.01666 31.6898 1.94613 31.5223C1.8756 31.3549 1.85715 31.1706 1.89311 30.9928C1.92906 30.815 2.01781 30.6517 2.14812 30.5236C2.27844 30.3954 2.44447 30.3081 2.62522 30.2727C2.80598 30.2374 2.99333 30.2555 3.1636 30.3249C3.33387 30.3943 3.4794 30.5117 3.58178 30.6624C3.68417 30.8132 3.73882 30.9903 3.73882 31.1716C3.73882 31.4147 3.64065 31.6478 3.4659 31.8197C3.29115 31.9915 3.05414 32.0881 2.80701 32.0881ZM52.193 15.5915C52.3773 15.5915 52.5574 15.6452 52.7107 15.7459C52.8639 15.8467 52.9833 15.9898 53.0539 16.1573C53.1244 16.3247 53.1428 16.509 53.1069 16.6868C53.0709 16.8645 52.9822 17.0278 52.8519 17.156C52.7216 17.2842 52.5555 17.3715 52.3748 17.4068C52.194 17.4422 52.0067 17.4241 51.8364 17.3547C51.6661 17.2853 51.5206 17.1679 51.4182 17.0171C51.3158 16.8664 51.2612 16.6892 51.2612 16.508C51.2612 16.2649 51.3593 16.0318 51.5341 15.8599C51.7088 15.6881 51.9459 15.5915 52.193 15.5915ZM21.4432 11.0091C20.4547 11.0091 19.5067 11.3953 18.8077 12.0828C18.1087 12.7703 17.716 13.7028 17.716 14.675V15.5832C17.1976 14.9019 16.8824 14.092 16.8057 13.2443C16.7289 12.3967 16.8937 11.5448 17.2815 10.784C17.6694 10.0233 18.2649 9.38381 19.0014 8.93723C19.738 8.49064 20.5864 8.25461 21.4516 8.25556C22.3169 8.25652 23.1647 8.49444 23.9002 8.94265C24.6357 9.39086 25.2298 10.0317 25.6159 10.7933C26.002 11.5548 26.1648 12.4071 26.0861 13.2546C26.0075 14.1021 25.6904 14.9113 25.1705 15.5915V14.675C25.1705 13.7028 24.7778 12.7703 24.0788 12.0828C23.3798 11.3953 22.4318 11.0091 21.4432 11.0091ZM27.0341 24.7563C27.5284 24.7563 28.0024 24.9494 28.3519 25.2931C28.7014 25.6369 28.8977 26.1031 28.8977 26.5892C28.8977 26.8323 28.9959 27.0654 29.1706 27.2373C29.3454 27.4091 29.5824 27.5057 29.8295 27.5057C30.0767 27.5057 30.3137 27.4091 30.4884 27.2373C30.6632 27.0654 30.7613 26.8323 30.7613 26.5892C30.7613 26.1031 30.9577 25.6369 31.3072 25.2931C31.6567 24.9494 32.1307 24.7563 32.625 24.7563C33.1192 24.7563 33.5932 24.9494 33.9427 25.2931C34.2922 25.6369 34.4886 26.1031 34.4886 26.5892C34.4886 26.8323 34.5868 27.0654 34.7615 27.2373C34.9362 27.4091 35.1733 27.5057 35.4204 27.5057C35.6675 27.5057 35.9045 27.4091 36.0793 27.2373C36.254 27.0654 36.3522 26.8323 36.3522 26.5892C36.3522 26.1031 36.5485 25.6369 36.898 25.2931C37.2475 24.9494 37.7216 24.7563 38.2158 24.7563C38.7101 24.7563 39.1841 24.9494 39.5336 25.2931C39.8831 25.6369 40.0794 26.1031 40.0794 26.5892C40.0794 26.8323 40.1776 27.0654 40.3524 27.2373C40.5271 27.4091 40.7641 27.5057 41.0113 27.5057C41.2584 27.5057 41.4954 27.4091 41.6701 27.2373C41.8449 27.0654 41.9431 26.8323 41.9431 26.5892C41.9431 26.1031 42.1394 25.6369 42.4889 25.2931C42.8384 24.9494 43.3124 24.7563 43.8067 24.7563C44.301 24.7563 44.775 24.9494 45.1245 25.2931C45.474 25.6369 45.6703 26.1031 45.6703 26.5892V46.3723L41.2843 50.6861C41.1095 50.858 41.0113 51.091 41.0113 51.3341V53.167H21.4432V51.3341C21.4433 51.1259 21.3714 50.9239 21.2392 50.7613L17.5119 46.1789C17.4905 46.1533 17.4672 46.1276 17.443 46.1038L14.9206 43.6229V35.8456L15.7182 31.9213L17.716 31.4282V36.6705C17.716 36.9135 17.8142 37.1466 17.9889 37.3185C18.1637 37.4904 18.4007 37.5869 18.6478 37.5869C18.8949 37.5869 19.1319 37.4904 19.3067 37.3185C19.4814 37.1466 19.5796 36.9135 19.5796 36.6705V14.675C19.5796 14.1889 19.776 13.7227 20.1254 13.3789C20.4749 13.0352 20.949 12.8421 21.4432 12.8421C21.9375 12.8421 22.4115 13.0352 22.761 13.3789C23.1105 13.7227 23.3068 14.1889 23.3068 14.675V26.5892C23.3068 26.8323 23.405 27.0654 23.5798 27.2373C23.7545 27.4091 23.9915 27.5057 24.2387 27.5057C24.4858 27.5057 24.7228 27.4091 24.8976 27.2373C25.0723 27.0654 25.1705 26.8323 25.1705 26.5892C25.1705 26.1031 25.3668 25.6369 25.7163 25.2931C26.0658 24.9494 26.5398 24.7563 27.0341 24.7563ZM25.1705 21.237V18.0935C26.3095 17.3122 27.1652 16.1938 27.6132 14.901C28.0611 13.6082 28.0779 12.2086 27.6611 10.9058C27.2443 9.60296 26.4156 8.46499 25.2956 7.6575C24.1757 6.85 22.823 6.41511 21.4343 6.41613C20.0457 6.41716 18.6936 6.85404 17.5749 7.66319C16.4562 8.47234 15.6292 9.61153 15.2144 10.9149C14.7996 12.2184 14.8185 13.618 15.2684 14.9101C15.7183 16.2022 16.5758 17.3194 17.716 18.099V21.2397C15.754 20.3975 14.1466 18.9166 13.1642 17.0458C12.1818 15.1751 11.8843 13.0287 12.3217 10.9676C12.759 8.90654 13.9046 7.05641 15.5658 5.72836C17.227 4.4003 19.3025 3.67532 21.4432 3.67532C23.584 3.67532 25.6594 4.4003 27.3206 5.72836C28.9818 7.05641 30.1274 8.90654 30.5648 10.9676C31.0022 13.0287 30.7046 15.1751 29.7222 17.0458C28.7398 18.9166 27.1325 20.3975 25.1705 21.2397V21.237Z" fill="black"/>
</svg>
