<svg width="48" height="55" viewBox="0 0 48 55" fill="none" xmlns="http://www.w3.org/2000/svg">
<path fill-rule="evenodd" clip-rule="evenodd" d="M47.3567 6.59883C47.7813 6.9778 48 7.44525 48 7.98307V53.0394C48 54.1173 47.011 55 45.8033 55H2.19927C0.983941 55 0 54.1173 0 53.0394V1.9629C0 0.880456 0.983941 0 2.19927 0H39.053C39.6581 0 40.1793 0.195157 40.6039 0.574121L47.3567 6.59883ZM38.5548 1.77439H2.19974C2.08278 1.77439 1.98871 1.85835 1.98871 1.96274V53.0392C1.98871 53.1436 2.08278 53.2253 2.19974 53.2253H45.8037C45.9181 53.2253 46.0122 53.1413 46.0122 53.0392V8.4279H40.1517C39.2771 8.4279 38.555 7.78568 38.555 7.00282L38.5548 1.77439ZM44.606 6.65553L40.5431 3.02926V6.65553H44.606ZM13.732 18.1335L8.54527 16.064C8.18931 15.921 7.95795 15.6033 7.95795 15.2539C7.95795 14.9044 8.18932 14.5867 8.54527 14.4438L22.9767 8.68437C23.236 8.58225 23.5309 8.58225 23.7877 8.68437L38.2191 14.4438C38.5776 14.5867 38.8064 14.9044 38.8064 15.2539C38.8064 15.6033 38.5776 15.921 38.2191 16.064L33.0324 18.1335L38.2191 20.2008C38.5776 20.3438 38.8064 20.6615 38.8064 21.0109C38.8064 21.3604 38.5776 21.6781 38.2191 21.821L33.0324 23.8906L38.2191 25.9602C38.5776 26.1031 38.8064 26.4208 38.8064 26.7703C38.8064 27.1197 38.5776 27.4374 38.2191 27.5781L23.7877 33.3375C23.5309 33.4396 23.236 33.4396 22.9767 33.3375L8.54527 27.5781C8.18931 27.4374 7.95795 27.1197 7.95795 26.7703C7.95795 26.4208 8.18932 26.1031 8.54527 25.9602L13.732 23.8906L8.54527 21.821C8.18931 21.6781 7.95795 21.3604 7.95795 21.0109C7.95795 20.6615 8.18932 20.3438 8.54527 20.2008L13.732 18.1335ZM30.5964 19.1048L23.7875 21.8211C23.5307 21.9232 23.2358 21.9232 22.9765 21.8211L16.1676 19.1048L11.3876 21.0109L23.3834 25.7968L35.3792 21.0109L30.5964 19.1048ZM30.5964 24.8619L23.7875 27.5782C23.5307 27.6826 23.2358 27.6826 22.9765 27.5782L16.1676 24.8619L11.3876 26.7704L23.3834 31.5562L35.3792 26.7704L30.5964 24.8619ZM23.3833 10.4659L11.3875 15.254L23.3833 20.0399L35.3791 15.254L23.3833 10.4659ZM10.1854 45.1422C9.63618 45.1422 9.19127 44.745 9.19127 44.2572C9.19127 43.767 9.63621 43.3699 10.1854 43.3699H37.8147C38.3614 43.3699 38.8063 43.767 38.8063 44.2572C38.8063 44.7451 38.3613 45.1422 37.8147 45.1422H10.1854ZM10.1854 40.497C9.63618 40.497 9.19127 40.0999 9.19127 39.6097C9.19127 39.1218 9.63621 38.7225 10.1854 38.7225H37.8147C38.3614 38.7225 38.8063 39.1219 38.8063 39.6097C38.8063 40.0999 38.3613 40.497 37.8147 40.497H10.1854Z" fill="black"/>
</svg>
