<svg width="55" height="55" viewBox="0 0 55 55" fill="none" xmlns="http://www.w3.org/2000/svg">
<path d="M50.5676 55H4.43238C1.98511 54.9977 0.00230724 53.0149 0 50.5676V4.43238C0.00231079 1.98511 1.98511 0.00230724 4.43238 0H50.5676C53.0149 0.00231079 54.9977 1.98511 55 4.43238V50.5676C54.9977 53.0149 53.0149 54.9977 50.5676 55ZM4.43238 1.84839C3.00651 1.8507 1.85105 3.00615 1.84875 4.43202V50.5673C1.85106 51.9931 3.00651 53.1486 4.43238 53.1509H50.5676C51.9935 53.1486 53.1489 51.9931 53.1513 50.5673V4.43202C53.1489 3.00615 51.9935 1.8507 50.5676 1.84839H4.43238Z" fill="black"/>
<path d="M54.076 12.7784H0.924373C0.413658 12.7784 0 12.3625 0 11.8541C0 11.3433 0.413658 10.9297 0.924373 10.9297H54.076C54.5867 10.9297 55.0004 11.3433 55.0004 11.8541C55.0004 12.3625 54.5867 12.7784 54.076 12.7784Z" fill="black"/>
<path d="M9.1198 10.0652C7.63389 10.0652 6.29356 9.17087 5.72503 7.79818C5.15654 6.4255 5.47083 4.8448 6.52002 3.79566C7.57147 2.74421 9.15216 2.4299 10.5249 2.99836C11.8975 3.56686 12.7919 4.90722 12.7919 6.39083V6.39314C12.7895 8.41984 11.1465 10.0629 9.1198 10.0652ZM9.1198 4.56977V4.56746C8.38261 4.56746 7.71706 5.01347 7.4328 5.69516C7.15087 6.37686 7.3057 7.16032 7.82797 7.68258C8.35024 8.20485 9.13594 8.36197 9.8177 8.07775C10.4994 7.79582 10.9431 7.13025 10.9431 6.39075V6.39306C10.9408 5.38551 10.1274 4.56977 9.1198 4.56977Z" fill="black"/>
<path d="M17.3229 10.0652C15.837 10.0652 14.4967 9.17087 13.9282 7.79818C13.3597 6.4255 13.674 4.8448 14.7231 3.79566C15.7746 2.74421 17.3553 2.4299 18.728 2.99836C20.1007 3.56686 20.995 4.90722 20.995 6.39314C20.9927 8.41984 19.3496 10.0629 17.3229 10.0652ZM17.3229 4.56977V4.56746C16.5857 4.56746 15.9202 5.01347 15.6359 5.69516C15.354 6.37686 15.5088 7.16032 16.0311 7.68258C16.5534 8.20485 17.3391 8.36197 18.0208 8.07775C18.7025 7.79582 19.1462 7.13025 19.1462 6.39075V6.39306C19.1439 5.38551 18.3305 4.56977 17.3229 4.56977Z" fill="black"/>
<path d="M25.528 10.0652C24.0421 10.0652 22.7018 9.17087 22.1332 7.79818C21.5647 6.4255 21.879 4.8448 22.9282 3.79566C23.9797 2.74421 25.5604 2.4299 26.9331 2.99836C28.3057 3.56686 29.2001 4.90722 29.2001 6.39314C29.1977 8.41984 27.5547 10.0629 25.528 10.0652ZM25.528 4.56977V4.56746C24.7908 4.56746 24.1253 5.01347 23.841 5.69516C23.5591 6.37686 23.7139 7.16032 24.2362 7.68258C24.7584 8.20485 25.5441 8.36197 26.2259 8.07775C26.9076 7.79582 27.3513 7.13025 27.3513 6.39075V6.39306C27.349 5.38551 26.5356 4.56977 25.528 4.56977Z" fill="black"/>
<path d="M48.6316 7.30968H31.1841C30.6734 7.30968 30.2598 6.89372 30.2598 6.38531C30.2598 5.8746 30.6734 5.46094 31.1841 5.46094H48.6316C49.14 5.46094 49.5559 5.8746 49.5559 6.38531C49.5559 6.89372 49.14 7.30968 48.6316 7.30968Z" fill="black"/>
<path d="M16.8074 46.387H16.3452C14.8986 46.3847 13.7246 45.213 13.7223 43.7664H13.7246C13.7223 43.4336 13.512 43.1401 13.1977 43.0338H13.1954C11.8528 42.5855 10.6141 41.8691 9.55342 40.9308H9.55573C9.30615 40.7067 8.941 40.6674 8.65218 40.8338C8.04905 41.1827 7.33262 41.2775 6.66246 41.0972C5.98999 40.917 5.41685 40.4779 5.07023 39.8771L4.83913 39.4796V39.4773C4.49018 38.8741 4.39543 38.16 4.57569 37.4875C4.75594 36.8151 5.19503 36.2419 5.79586 35.8953H5.8051C6.08935 35.7266 6.23494 35.3938 6.16561 35.068C5.8883 33.6814 5.8883 32.2556 6.16561 30.869C6.23263 30.5455 6.08935 30.215 5.8051 30.0463H5.79817H5.80048C5.19735 29.6997 4.75826 29.1266 4.578 28.4541C4.39775 27.7816 4.4925 27.0675 4.83914 26.4644L5.07024 26.0669C5.41918 25.4638 5.9923 25.0247 6.66246 24.8444C7.33493 24.6642 8.05136 24.7589 8.65219 25.1056C8.94337 25.2743 9.30851 25.235 9.55804 25.0131C10.6188 24.0749 11.8574 23.3585 13.2 22.9079C13.5166 22.8039 13.7292 22.5081 13.7269 22.1753C13.7292 20.7287 14.9032 19.557 16.3498 19.5547H16.812C18.2587 19.557 19.4326 20.7287 19.4349 22.1753C19.4326 22.5081 19.6452 22.8039 19.9618 22.9079C21.3045 23.3585 22.5432 24.0726 23.6038 25.0131C23.8511 25.235 24.2163 25.2743 24.5051 25.1079C25.1082 24.7589 25.8246 24.6642 26.4948 24.8444C27.1673 25.0247 27.7404 25.4638 28.087 26.0669L28.3181 26.4644H28.3204C28.6671 27.0675 28.7618 27.7817 28.5816 28.4541C28.4013 29.1266 27.9622 29.6997 27.3591 30.0464H27.3522C27.0679 30.2174 26.9223 30.5478 26.9893 30.8736V30.8713C27.269 32.2579 27.269 33.686 26.9893 35.0703C26.9223 35.3962 27.0679 35.729 27.3522 35.8976H27.3591C28.6139 36.6233 29.0438 38.227 28.3204 39.4796L28.0893 39.8771V39.8794C27.7404 40.4825 27.1673 40.9216 26.4971 41.1018C25.8247 41.2821 25.1082 41.1873 24.5074 40.8384C24.2162 40.672 23.8511 40.709 23.6015 40.9331C22.5408 41.8714 21.3022 42.5878 19.9595 43.0384H19.9572C19.6429 43.1424 19.4326 43.4382 19.4303 43.7687C19.428 45.2153 18.254 46.387 16.8074 46.387ZM9.03557 38.8831C9.67799 38.8831 10.2996 39.1165 10.7803 39.5441C11.6539 40.3182 12.6776 40.9098 13.7845 41.2819C14.8522 41.6401 15.5732 42.6407 15.5732 43.7661C15.5732 44.1937 15.9175 44.538 16.345 44.538H16.8072C17.2347 44.538 17.5791 44.1937 17.5814 43.7661C17.5791 42.6407 18.3 41.64 19.3677 41.2819C20.4746 40.9098 21.4984 40.3182 22.3719 39.5441C23.2154 38.7953 24.4448 38.6705 25.4223 39.2344C25.6002 39.3361 25.8105 39.3661 26.0093 39.313C26.208 39.2598 26.379 39.1304 26.4807 38.9525L26.7118 38.555V38.5527C26.9244 38.1852 26.7996 37.7161 26.4345 37.5012H26.4276C25.4501 36.935 24.9463 35.8096 25.1704 34.7027C25.4015 33.5588 25.4015 32.3802 25.1704 31.2363C24.9462 30.1316 25.4523 29.0039 26.4276 28.44H26.4345C26.7996 28.2251 26.9244 27.7536 26.7118 27.3862L26.4807 26.9888C26.2658 26.619 25.7943 26.4919 25.4246 26.7068C24.4471 27.2707 23.2176 27.1459 22.3718 26.3972C21.496 25.623 20.4746 25.0337 19.3676 24.664C18.3 24.3058 17.579 23.3051 17.5813 22.1797C17.579 21.7522 17.2347 21.4056 16.8071 21.4056H16.3449C15.9174 21.4056 15.5731 21.7522 15.5708 22.1797H15.5731C15.5731 23.3051 14.852 24.3058 13.7844 24.664C12.6775 25.0337 11.656 25.623 10.7802 26.3972C9.93213 27.1413 8.70503 27.2614 7.72748 26.6953C7.55184 26.5913 7.33924 26.5636 7.1405 26.6167C6.94176 26.6699 6.77306 26.7993 6.66906 26.9772L6.43797 27.3747C6.22768 27.7421 6.35247 28.2113 6.71529 28.4285H6.72453C7.69972 28.9923 8.20583 30.1201 7.98168 31.2247C7.75059 32.3686 7.75059 33.5472 7.98168 34.6911C8.21046 35.8004 7.70437 36.9304 6.72453 37.4966H6.7176C6.35247 37.7138 6.22999 38.183 6.44029 38.5504L6.67138 38.9478C6.77306 39.1258 6.94175 39.2552 7.1405 39.3083C7.33924 39.3615 7.54953 39.3338 7.72747 39.2298C8.12496 39.001 8.57803 38.8808 9.03557 38.8831Z" fill="black"/>
<path d="M16.5829 39.8944H16.3518C12.7005 39.7743 9.76789 36.8417 9.65016 33.1928C9.58776 31.277 10.3226 29.4237 11.6769 28.0694C13.0311 26.7152 14.8844 25.9804 16.8002 26.0427H16.7979C20.4492 26.1606 23.3818 29.0931 23.5019 32.7444C23.5597 34.6186 22.8595 36.4349 21.5538 37.7845C20.2504 39.1317 18.4571 39.8944 16.583 39.8967L16.5829 39.8944ZM16.5759 27.8867H16.5736C14.503 27.8891 12.6404 29.1462 11.864 31.0666C11.0875 32.987 11.5543 35.187 13.0449 36.6267C14.5354 38.0664 16.7493 38.457 18.6419 37.6158C20.5369 36.7746 21.7294 34.8681 21.6577 32.7998C21.5676 30.1261 19.4231 27.9792 16.7493 27.8891L16.5759 27.8867Z" fill="black"/>
<path d="M44.631 20.63H32.1216C31.6109 20.63 31.1973 20.214 31.1973 19.7056C31.1973 19.1949 31.6109 18.7812 32.1216 18.7812H44.631C45.1417 18.7812 45.5554 19.1949 45.5554 19.7056C45.5554 20.214 45.1417 20.63 44.631 20.63Z" fill="black"/>
<path d="M47.4198 23.426C45.9177 23.426 44.5635 22.5225 43.9881 21.1336C43.4126 19.747 43.7315 18.1502 44.7923 17.0872C45.8553 16.0264 47.4522 15.7076 48.8387 16.283C50.2276 16.8584 51.1311 18.2126 51.1311 19.7147V19.7124C51.1311 21.7645 49.4696 23.426 47.4198 23.426ZM47.4198 17.8498C46.6641 17.8498 45.9847 18.305 45.6958 19.0006C45.407 19.6985 45.5664 20.5004 46.1002 21.0342C46.6341 21.568 47.4359 21.7252 48.1339 21.4363C48.8295 21.1475 49.2847 20.468 49.2824 19.7123C49.2824 18.684 48.4481 17.8521 47.4198 17.8498Z" fill="black"/>
<path d="M38.3748 29.4659H32.1216C31.6109 29.4659 31.1973 29.0523 31.1973 28.5416C31.1973 28.0308 31.6109 27.6172 32.1216 27.6172H38.3772C38.8879 27.6172 39.3016 28.0308 39.3016 28.5416C39.3016 29.0523 38.8879 29.4659 38.3772 29.4659H38.3748Z" fill="black"/>
<path d="M50.2069 29.4659H43.9537C43.443 29.4659 43.0293 29.0523 43.0293 28.5416C43.0293 28.0308 43.443 27.6172 43.9537 27.6172H50.2092H50.2069C50.7176 27.6172 51.1313 28.0308 51.1313 28.5416C51.1313 29.0523 50.7176 29.4659 50.2069 29.4659Z" fill="black"/>
<path d="M41.1636 32.2554C39.6615 32.2554 38.3073 31.3495 37.7341 29.9629C37.1587 28.574 37.4776 26.9772 38.5384 25.9165C39.6014 24.8535 41.1983 24.5369 42.5871 25.11C43.9737 25.6854 44.8796 27.0396 44.8796 28.5417C44.875 30.5915 43.2134 32.2531 41.1636 32.2554ZM41.1636 26.6791C40.4102 26.6791 39.7308 27.132 39.4419 27.8299C39.153 28.5255 39.3125 29.3274 39.8463 29.8612C40.3802 30.3951 41.182 30.5545 41.8776 30.2656C42.5755 29.9768 43.0308 29.2974 43.0308 28.5417C43.0285 27.5133 42.1942 26.6791 41.1636 26.6791Z" fill="black"/>
<path d="M50.207 38.3019H37.6959C37.1851 38.3019 36.7715 37.8882 36.7715 37.3775C36.7715 36.8668 37.1851 36.4531 37.6959 36.4531H50.207C50.7177 36.4531 51.1314 36.8668 51.1314 37.3775C51.1314 37.8882 50.7177 38.3019 50.207 38.3019Z" fill="black"/>
<path d="M34.907 41.0913C33.4048 41.0913 32.0507 40.1854 31.4752 38.7989C30.9021 37.41 31.2187 35.8131 32.2817 34.7524C33.3425 33.6894 34.9393 33.3728 36.3282 33.9459C37.7148 34.5213 38.6206 35.8755 38.6206 37.3777C38.6183 39.4274 36.9567 41.089 34.907 41.0913ZM34.907 35.5127C34.1536 35.5127 33.4719 35.968 33.183 36.6635C32.8964 37.3615 33.0559 38.1634 33.5874 38.6972C34.1212 39.2287 34.9231 39.3882 35.621 39.1016C36.3166 38.8127 36.7719 38.131 36.7719 37.3776C36.7695 36.3492 35.9353 35.515 34.907 35.5127Z" fill="black"/>
<path d="M38.3748 47.1456H32.1216C31.6109 47.1456 31.1973 46.732 31.1973 46.2212C31.1973 45.7105 31.6109 45.2969 32.1216 45.2969H38.3772C38.8879 45.2969 39.3016 45.7105 39.3016 46.2212C39.3016 46.732 38.8879 47.1456 38.3772 47.1456H38.3748Z" fill="black"/>
<path d="M50.2069 47.1456H43.9537C43.443 47.1456 43.0293 46.732 43.0293 46.2212C43.0293 45.7105 43.443 45.2969 43.9537 45.2969H50.2092H50.2069C50.7176 45.2969 51.1313 45.7105 51.1313 46.2212C51.1313 46.732 50.7176 47.1456 50.2069 47.1456Z" fill="black"/>
<path d="M41.1635 49.926C39.6614 49.926 38.3072 49.0225 37.7341 47.6336C37.1586 46.2447 37.4776 44.6478 38.5406 43.5848C39.6036 42.524 41.2028 42.2075 42.5894 42.7852C43.9783 43.3606 44.8818 44.7171 44.8795 46.2192C44.8726 48.2667 43.2133 49.9237 41.1635 49.926ZM41.1635 44.3474C40.4102 44.3497 39.7307 44.8027 39.4418 45.4982C39.153 46.1938 39.3124 46.9957 39.8439 47.5296C40.3755 48.0634 41.1773 48.2252 41.8752 47.9386C42.5709 47.652 43.0261 46.9726 43.0307 46.2193C43.0307 45.7247 42.8343 45.2487 42.4853 44.8974C42.1341 44.5462 41.6604 44.3497 41.1635 44.3474Z" fill="black"/>
</svg>
