<svg width="53" height="60" viewBox="0 0 53 60" fill="none" xmlns="http://www.w3.org/2000/svg">
<path d="M11.3001 59.8322C7.15962 59.2788 3.10648 56.1177 1.17415 51.9342C-0.0809502 49.2161 0.00109689 50.7544 0.00109689 30.0482C0.00109689 12.5137 0.0157316 11.5353 0.295136 10.4493C1.54137 5.60752 5.26144 1.75805 10.0362 0.370343C11.2771 0.00955607 11.4066 0.00539794 21.953 0.000778394C32.5105 -0.00384115 32.6293 0.000316511 34.0037 0.364799C37.7087 1.3483 41.0802 4.21242 42.7992 7.83599C44.01 10.3883 44.0188 10.4571 44.1248 17.7172L44.2189 24.1689L44.6269 25.0669C45.4101 26.7918 46.4208 27.4612 48.7137 27.7726C50.4349 28.0063 51.1654 28.3117 51.9078 29.1076C53.0485 30.3309 52.9997 29.8551 52.9997 39.7663C52.9997 48.6474 52.9988 48.6705 52.632 49.8868C51.8728 52.4054 50.6638 54.3844 48.7439 56.2526C46.6475 58.2916 44.3559 59.4391 41.5747 59.8419C40.0801 60.0586 12.9291 60.0498 11.3001 59.8322ZM37.3198 45.8309C38.2542 45.3874 38.9315 44.7226 39.4029 43.7872C39.7639 43.0707 39.8242 42.7524 39.8242 41.5629C39.8247 39.9585 39.5705 39.3062 38.4964 38.1536C37.2 36.7618 37.8591 36.8343 26.4137 36.8301L16.2917 36.8264L15.4837 37.2454C14.013 38.009 13.0954 39.4744 12.9726 41.2552C12.8355 43.2416 13.6919 44.8677 15.3204 45.7131L16.1347 46.1357L26.4137 46.132C36.0225 46.1288 36.7339 46.109 37.3198 45.8309ZM30.8908 22.5539C32.5797 21.721 33.393 20.361 33.393 18.3704C33.393 16.3905 32.5593 14.9958 30.8908 14.1828L30.1067 13.8008L23.2746 13.7989C15.4047 13.7971 15.4149 13.7957 14.1722 15.1247C13.3056 16.0519 12.9371 17.0451 12.9371 18.4554C12.9371 20.2889 14.1141 22.1062 15.6752 22.6837C16.1866 22.8731 17.6373 22.9202 23.2076 22.9294L30.1067 22.9405L30.8908 22.5539Z" fill="#ECEAE6"/>
</svg>
