<svg width="63" height="60" viewBox="0 0 63 60" fill="none" xmlns="http://www.w3.org/2000/svg">
<path d="M31.5 0C27.3634 0 23.2672 0.795238 19.4455 2.34031C15.6237 3.88538 12.1512 6.15003 9.22614 9.00495C3.31874 14.7707 0 22.5908 0 30.7448C0 44.334 9.0405 55.8633 21.546 59.9524C23.121 60.1983 23.625 59.2453 23.625 58.4151V53.2193C14.8995 55.064 13.041 49.0995 13.041 49.0995C11.592 45.5331 9.5445 44.58 9.5445 44.58C6.678 42.6738 9.765 42.7353 9.765 42.7353C12.915 42.9505 14.5845 45.902 14.5845 45.902C17.325 50.5752 21.9555 49.1917 23.751 48.4538C24.0345 46.4554 24.8535 45.1026 25.7355 44.334C18.7425 43.5654 11.403 40.9213 11.403 29.2076C11.403 25.7949 12.6 23.0586 14.6475 20.8757C14.3325 20.1071 13.23 16.9096 14.9625 12.7591C14.9625 12.7591 17.6085 11.929 23.625 15.8951C26.1135 15.2187 28.8225 14.8805 31.5 14.8805C34.1775 14.8805 36.8865 15.2187 39.375 15.8951C45.3915 11.929 48.0375 12.7591 48.0375 12.7591C49.77 16.9096 48.6675 20.1071 48.3525 20.8757C50.4 23.0586 51.597 25.7949 51.597 29.2076C51.597 40.9521 44.226 43.5346 37.2015 44.3033C38.3355 45.2564 39.375 47.1318 39.375 49.9911V58.4151C39.375 59.2453 39.879 60.2291 41.4855 59.9524C53.991 55.8326 63 44.334 63 30.7448C63 26.7073 62.1852 22.7094 60.6022 18.9793C59.0192 15.2491 56.6989 11.8599 53.7739 9.00495C50.8488 6.15003 47.3763 3.88538 43.5545 2.34031C39.7328 0.795238 35.6366 0 31.5 0Z" fill="#ECEAE6"/>
</svg>
