<svg width="70" height="60" viewBox="0 0 70 60" fill="none" xmlns="http://www.w3.org/2000/svg">
<path fill-rule="evenodd" clip-rule="evenodd" d="M62.7492 0.410479C63.6099 0.0470217 64.5519 -0.078332 65.4772 0.0474629C66.4026 0.173258 67.2774 0.545604 68.0106 1.12575C68.7439 1.70589 69.3087 2.47261 69.6464 3.34612C69.9841 4.21963 70.0823 5.16799 69.9307 6.09249L62.0317 54.166C61.2655 58.8031 56.1946 61.4624 51.956 59.1526C48.4105 57.2201 43.1445 54.2428 38.4079 51.1362C36.0396 49.5812 28.7849 44.6016 29.6765 41.0582C30.4428 38.0285 42.6325 26.6435 49.5981 19.8747C52.3321 17.2154 51.0853 15.6813 47.8567 18.1275C39.8393 24.2008 26.9669 33.4367 22.7109 36.0366C18.9565 38.329 16.9991 38.7204 14.6587 38.329C10.3888 37.6161 6.42886 36.5119 3.19682 35.1665C-1.17061 33.3494 -0.95816 27.3249 3.19334 25.5707L62.7492 0.410479Z" fill="#ECEAE6"/>
</svg>
